<svg width="231" height="198" viewBox="0 0 231 198" fill="none" xmlns="http://www.w3.org/2000/svg">
<path d="M115.35 181.979C174.779 181.979 222.955 179.165 222.955 175.693C222.955 172.222 174.779 169.408 115.35 169.408C55.922 169.408 7.74582 172.222 7.74582 175.693C7.74582 179.165 55.922 181.979 115.35 181.979Z" fill="#3F3D56"/>
<path opacity="0.1" d="M51.0181 144.283C52.0478 146.29 53.7114 147.9 55.7505 148.864C57.7895 149.828 60.0899 150.092 62.2942 149.614C64.4985 149.136 66.4833 147.944 67.9402 146.222C69.3971 144.5 70.2446 142.346 70.351 140.093C70.4225 138.676 70.1951 137.261 69.6835 135.938C68.8409 136.492 68.0844 137.166 67.4386 137.94C66.4659 139.138 65.8223 140.473 64.6969 141.58C62.6017 143.633 59.2224 144.484 56.2142 144.573C54.478 144.579 52.7429 144.482 51.0181 144.283Z" fill="black"/>
<path d="M132.028 169.991L92.5184 178.073L91.6205 177.983L56.8997 174.481V130.481L99.4027 123.298L130.232 126.89L130.241 127.084L130.244 127.18L132.028 169.991Z" fill="#6BDAA7"/>
<path opacity="0.1" d="M132.028 169.991L92.5184 178.073L91.6205 177.983V132.876L130.241 127.084L132.028 169.991Z" fill="black"/>
<path opacity="0.05" d="M130.244 127.18L130.232 127.189L91.6205 132.876L56.8997 130.481L99.4027 123.298L130.232 126.89L130.241 127.084L130.244 127.18Z" fill="black"/>
<path d="M175.429 171.787L135.919 179.869L135.021 179.779L100.301 176.277V132.277L142.804 125.094L173.633 128.686L173.642 128.88L173.645 128.976L175.429 171.787Z" fill="#3F3D56"/>
<path opacity="0.1" d="M175.429 171.787L135.919 179.869L135.021 179.779V134.672L173.642 128.88L175.429 171.787Z" fill="black"/>
<path opacity="0.05" d="M173.645 128.976L173.633 128.985L135.021 134.672L100.301 132.277L142.804 125.094L173.633 128.686L173.642 128.88L173.645 128.976Z" fill="black"/>
<path d="M148.191 128.686L108.682 136.767L107.784 136.677L73.0628 133.175V89.1757L115.566 81.9921L146.396 85.5839L146.404 85.7785L146.407 85.8742L148.191 128.686Z" fill="#3F3D56"/>
<path opacity="0.1" d="M148.191 128.686L108.682 136.767L107.784 136.677V91.5702L146.404 85.7784L148.191 128.686Z" fill="black"/>
<path opacity="0.05" d="M146.407 85.8742L146.396 85.8832L107.784 91.5703L73.0628 89.1757L115.566 81.9921L146.396 85.5839L146.404 85.7785L146.407 85.8742Z" fill="black"/>
<path d="M170.64 130.529L150.02 134.75L149.55 134.702L131.43 132.873V109.909L153.612 106.159L169.703 108.036L169.709 108.137V108.185L170.64 130.529Z" fill="#3F3D56"/>
<path opacity="0.1" d="M170.64 130.529L150.02 134.75L149.55 134.702V111.161L169.709 108.137L170.64 130.529Z" fill="black"/>
<path opacity="0.05" d="M169.709 108.185L169.703 108.191L149.55 111.161L131.43 109.909L153.612 106.159L169.703 108.036L169.709 108.137V108.185Z" fill="black"/>
<path d="M115.267 85.9311L94.6466 90.1485L94.1766 90.1036L76.056 88.2747V65.3111L98.2384 61.5607L114.33 63.4374L114.336 63.5392V63.5871L115.267 85.9311Z" fill="#3F3D56"/>
<path opacity="0.1" d="M115.267 85.9311L94.6466 90.1485L94.1767 90.1036V66.5623L114.336 63.5392L115.267 85.9311Z" fill="black"/>
<path opacity="0.05" d="M114.336 63.5871L114.33 63.5931L94.1766 66.5623L76.056 65.3111L98.2384 61.5607L114.33 63.4374L114.336 63.5392V63.5871Z" fill="black"/>
<path d="M151.484 85.0331L130.864 89.2505L130.394 89.2056L112.273 87.3768V64.4132L134.456 60.6628L150.547 62.5395L150.553 62.6412V62.6891L151.484 85.0331Z" fill="#6BDAA7"/>
<path opacity="0.1" d="M151.484 85.0331L130.864 89.2505L130.394 89.2056V65.6643L150.553 62.6412L151.484 85.0331Z" fill="black"/>
<path opacity="0.05" d="M150.553 62.6891L150.547 62.6951L130.394 65.6643L112.273 64.4132L134.456 60.6628L150.547 62.5395L150.553 62.6412V62.6891Z" fill="black"/>
<path d="M162.259 61.9857L141.639 66.2031L141.169 66.1582L123.049 64.3294V41.3658L145.231 37.6153L161.322 39.492L161.328 39.5938V39.6417L162.259 61.9857Z" fill="#3F3D56"/>
<path opacity="0.1" d="M162.259 61.9857L141.639 66.2031L141.169 66.1582V42.6169L161.328 39.5938L162.259 61.9857Z" fill="black"/>
<path opacity="0.05" d="M161.328 39.6417L161.322 39.6477L141.169 42.6169L123.049 41.3658L145.231 37.6153L161.322 39.492L161.328 39.5938V39.6417Z" fill="black"/>
<path d="M124.246 62.8837L103.626 67.1011L103.156 67.0562L85.0355 65.2273V42.2637L107.218 38.5133L123.309 40.39L123.315 40.4918V40.5397L124.246 62.8837Z" fill="#6BDAA7"/>
<path opacity="0.1" d="M124.246 62.8837L103.626 67.1011L103.156 67.0562V43.5149L123.315 40.4918L124.246 62.8837Z" fill="black"/>
<path opacity="0.05" d="M123.315 40.5397L123.309 40.5456L103.156 43.5149L85.0355 42.2637L107.218 38.5133L123.309 40.39L123.315 40.4918V40.5397Z" fill="black"/>
<path d="M135.021 40.1356L114.401 44.3559L113.932 44.3081L95.8109 42.4792V19.5156L117.993 15.7652L134.085 17.6419L134.091 17.7437V17.7915L135.021 40.1356Z" fill="#3F3D56"/>
<path opacity="0.1" d="M135.021 40.1356L114.401 44.356L113.932 44.3081V20.7668L134.091 17.7437L135.021 40.1356Z" fill="black"/>
<path opacity="0.05" d="M134.091 17.7915L134.085 17.7975L113.932 20.7668L95.8109 19.5156L117.993 15.7652L134.085 17.6419L134.091 17.7437V17.7915Z" fill="black"/>
</svg>
