<svg width="47" height="48" viewBox="0 0 47 48" fill="none" xmlns="http://www.w3.org/2000/svg">
    <style type="text/css">
        @keyframes load {
            0%{
                transform: rotate(0deg);
                transform-origin: 50% 50%;
            }
            100%{
                transform: rotate(360deg);
                transform-origin: 50% 50%;
            }
        }

        .loading {
            animation: load 1.5s linear infinite;
        }
    </style>
    <rect y="0.5" width="47" height="47" rx="10" fill="#6BDAA7"/>
    <path class="loading" d="M24 31.7292C23.4477 31.7292 23 31.2815 23 30.7292C23 30.1769 23.4477 29.7292 24 29.7292C27.3137 29.7292 30 27.0429 30 23.7292C30 20.4155 27.3137 17.7292 24 17.7292C20.6863 17.7292 18 20.4155 18 23.7292C18 24.3764 18.1021 25.0085 18.3002 25.6093C18.4731 26.1339 18.1881 26.6992 17.6635 26.8722C17.139 27.0451 16.5736 26.76 16.4007 26.2355C16.1363 25.4333 16 24.5898 16 23.7292C16 19.3109 19.5817 15.7292 24 15.7292C28.4183 15.7292 32 19.3109 32 23.7292C32 28.1475 28.4183 31.7292 24 31.7292Z" fill="white"/>
</svg>
