<svg width="280" height="240" viewBox="0 0 280 240" fill="none" xmlns="http://www.w3.org/2000/svg">
<path d="M55.8886 133.416V178.415H226.889V133.416C317.889 118.416 266.889 -8.08441 189.389 47.4155C182.389 -5.58441 103.889 -12.5844 90.3886 47.4155C10.3888 -10.0844 -36.6112 123.416 55.8886 133.416Z" fill="white"/>
<path d="M224.5 195.916H57.5V232.5H224.5V195.916Z" fill="white"/>
<path d="M68.8886 133.415V178.415H226V133.415C317 118.416 267.5 -8.08445 190 47.4155C183 -5.58445 115.5 -1.99997 102 58C22.0002 0.500042 -23.6112 123.416 68.8886 133.415Z" fill="#F2D3AB"/>
<path d="M223.5 195.916H68.8886V232H223.5V195.916Z" fill="#F2D3AB"/>
<path d="M68.5 133.5V168.416H213.814V126C304.814 111 266 -7.99995 188.5 47.5C181.5 -5.49995 102.315 -7.99997 88.8146 52C8.81477 -5.49997 -23.9998 123.5 68.5 133.5Z" fill="#FBF5EF"/>
<path d="M213.814 197H68.5V225.416H213.814V197Z" fill="#FBF5EF"/>
<path d="M55.8886 133.416V178.415H226.889V133.416C317.889 118.416 266.889 -8.08441 189.389 47.4155C182.389 -5.58441 103.889 -12.5844 90.3886 47.4155C10.3888 -10.0844 -36.6112 123.416 55.8886 133.416Z" stroke="black" stroke-width="9"/>
<path d="M226.889 195.916H55.8886V219.416C55.8886 228.252 63.0521 235.416 71.8886 235.416H210.889C219.725 235.416 226.889 228.252 226.889 219.416V195.916Z" stroke="black" stroke-width="9"/>
</svg>
