<svg width="16" height="15" viewBox="0 0 16 15" fill="none" xmlns="http://www.w3.org/2000/svg">
<path d="M13.8933 2.57333C13.5528 2.23267 13.1485 1.96243 12.7036 1.77805C12.2586 1.59368 11.7817 1.49878 11.3 1.49878C10.8183 1.49878 10.3414 1.59368 9.89643 1.77805C9.45145 1.96243 9.04717 2.23267 8.70666 2.57333L8 3.28L7.29333 2.57333C6.60554 1.88554 5.67269 1.49914 4.7 1.49914C3.72731 1.49914 2.79446 1.88554 2.10666 2.57333C1.41887 3.26112 1.03247 4.19397 1.03247 5.16666C1.03247 6.13935 1.41887 7.0722 2.10666 7.76L2.81333 8.46666L8 13.6533L13.1867 8.46666L13.8933 7.76C14.234 7.41949 14.5042 7.01521 14.6886 6.57023C14.873 6.12526 14.9679 5.64832 14.9679 5.16666C14.9679 4.685 14.873 4.20807 14.6886 3.76309C14.5042 3.31812 14.234 2.91383 13.8933 2.57333Z" fill="#FF5151" stroke="#FF5151" stroke-width="1.6" stroke-linecap="round" stroke-linejoin="round"/>
</svg>
