<svg width="183" height="183" viewBox="0 0 183 183" fill="none" xmlns="http://www.w3.org/2000/svg">
<path d="M91.5 22.875C110.34 22.875 125.217 29.3652 138.953 41.9276C152.484 54.3031 160.125 71.1888 160.125 88.8396L160.015 146.487C159.244 156.785 152.153 164.409 141.849 164.409C131.544 164.409 128.818 157.264 120.004 158.723C111.191 160.183 107.883 171.562 91.5 171.562C75.1175 171.562 71.4825 160.129 62.9955 158.723C54.1822 157.264 51.4559 164.409 41.1513 164.409C31.2283 164.409 23.5019 157.243 22.9853 146.487L22.875 88.8396C22.875 71.1888 30.5156 54.3031 44.047 41.9276C57.2106 29.8887 72.6596 22.875 91.5 22.875ZM117.996 116.886C114.978 113.772 109.813 113.52 106.459 116.322C98.0124 123.381 89.589 123.381 81.0093 119.079C78.8003 117.972 77.2275 116.896 76.5411 116.322L75.7368 115.73C72.4054 113.575 67.7897 114.012 65.0035 116.886C61.9852 120.001 62.257 124.797 65.6108 127.6C67.1937 128.923 69.7814 130.692 73.2457 132.429C87.3594 139.506 103.142 139.506 117.389 127.6C120.743 124.797 121.015 120.001 117.996 116.886ZM62.9062 74.3438C56.5895 74.3438 51.4688 79.4645 51.4688 85.7812C51.4688 92.098 56.5895 97.2188 62.9062 97.2188C69.223 97.2188 74.3438 92.098 74.3438 85.7812C74.3438 79.4645 69.223 74.3438 62.9062 74.3438ZM120.094 74.3438C113.777 74.3438 108.656 79.4645 108.656 85.7812C108.656 92.098 113.777 97.2188 120.094 97.2188C126.411 97.2188 131.531 92.098 131.531 85.7812C131.531 79.4645 126.411 74.3438 120.094 74.3438Z" fill="white"/>
<path d="M160.149 88.3695C160.149 70.7187 152.508 53.833 138.977 41.4576C137.282 39.9507 131.88 36.0845 131.88 36.0845C131.308 36.5141 132.127 39.9507 136.124 44.4646C151.589 58.2111 155.988 79.4623 156.255 88.3695V143.479C156.255 153.583 146.667 157.277 141.873 157.861C141.283 157.878 140.103 160.794 140.103 162.169C140.103 163.543 141.283 163.922 141.873 163.939C152.177 163.939 159.268 156.315 160.039 146.017L160.149 88.3695Z" fill="#ECECEC"/>
<path d="M141.849 163.979C152.153 163.979 159.244 156.355 160.015 146.056L160.015 137.465C159.498 148.221 151.772 155.387 141.849 155.387C131.544 155.387 128.818 148.242 120.004 149.701C111.191 151.161 107.883 162.541 91.5 162.541C75.1174 162.541 71.4825 151.107 62.9955 149.701C54.1822 148.242 51.4559 155.387 41.1513 155.387C31.2283 155.387 23.5019 148.221 22.9852 137.465L22.9852 146.056C23.5019 156.813 31.2283 163.979 41.1513 163.979C51.4559 163.979 54.1822 156.833 62.9955 158.293C71.4825 159.699 75.1175 171.132 91.5 171.132C107.883 171.132 111.191 159.753 120.004 158.293C128.818 156.833 131.544 163.979 141.849 163.979Z" fill="#ECECEC"/>
</svg>
