<svg width="222" height="158" viewBox="0 0 222 158" fill="none" xmlns="http://www.w3.org/2000/svg">
<g clip-path="url(#clip0)">
<path opacity="0.1" d="M222 103.863C221.996 111.347 220.361 118.741 217.209 125.535C214.057 132.329 209.463 138.36 203.743 143.214C198.023 148.067 191.315 151.627 184.08 153.647C176.845 155.668 169.256 156.1 161.837 154.916H79.5418C76.3632 155.35 73.1586 155.568 69.9503 155.568C67.647 155.568 65.3716 155.459 63.1238 155.24C45.8295 153.568 29.7812 145.537 18.11 132.715C6.4389 119.894 -0.0176885 103.201 3.63978e-05 85.8941C3.63978e-05 47.4131 31.3188 16.22 69.9503 16.22C101.064 16.22 127.428 36.4544 136.513 64.4321C145.886 56.4901 157.794 52.1378 170.099 52.1571C198.76 52.1571 222 75.3059 222 103.863Z" fill="currentColor"/>
<path opacity="0.1" d="M202.059 144.6C196.427 148.98 189.948 152.157 183.027 153.932C176.107 155.707 168.893 156.042 161.837 154.916H79.5418C76.3632 155.35 73.1586 155.568 69.9503 155.568C67.647 155.568 65.3715 155.459 63.1238 155.24C49.4948 153.909 36.5575 148.623 25.9147 140.04C15.2719 131.456 7.39137 119.95 3.24951 106.949C9.95001 92.6878 27.1644 82.5397 47.3472 82.5397C67.0147 82.5397 83.8725 92.1783 90.9082 105.868C94.3728 105.24 97.8871 104.926 101.409 104.928C121.793 104.928 139.149 115.286 145.702 129.762C151.13 128.123 156.773 127.296 162.445 127.309C179.071 127.316 193.683 134.201 202.059 144.6Z" fill="currentColor"/>
<path d="M118.491 109.257C118.413 110.287 118.104 111.287 117.588 112.183C118.203 113.279 118.526 114.513 118.526 115.768C118.526 117.023 118.203 118.257 117.588 119.353C118.036 120.126 118.327 120.978 118.447 121.862L115.854 126.301L118.483 123.709C118.391 124.7 118.086 125.66 117.588 126.523C118.203 127.619 118.526 128.854 118.526 130.109C118.526 131.365 118.203 132.599 117.588 133.695C118.203 134.791 118.526 136.025 118.526 137.28C118.526 138.535 118.203 139.77 117.588 140.865C118.214 141.956 118.537 143.193 118.526 144.449C118.526 147.69 116.513 150.315 114.027 150.315C113.957 150.315 113.889 150.315 113.819 150.315C112.441 150.232 111.059 150.232 109.68 150.315C109.613 150.315 109.541 150.315 109.473 150.315C109.405 150.315 109.336 150.315 109.266 150.315C107.887 150.232 106.505 150.232 105.127 150.315C105.059 150.315 104.987 150.315 104.92 150.315C102.435 150.315 100.42 147.69 100.42 144.449C100.408 143.193 100.732 141.955 101.36 140.865C100.732 139.778 100.405 138.543 100.414 137.289C100.415 136.823 100.458 136.359 100.544 135.901L104.146 138.128L100.895 134.664C101.019 134.33 101.173 134.007 101.354 133.699C100.738 132.604 100.414 131.369 100.414 130.113C100.414 128.857 100.738 127.622 101.354 126.527C100.738 125.432 100.415 124.197 100.415 122.942C100.415 121.687 100.738 120.452 101.354 119.357C100.792 118.383 100.474 117.289 100.428 116.167L106.6 119.98L100.705 113.704C100.857 113.173 101.076 112.664 101.354 112.187C100.932 111.464 100.648 110.67 100.517 109.844C100.448 109.434 100.414 109.019 100.414 108.603C100.402 107.345 100.726 106.108 101.354 105.017C100.726 103.927 100.402 102.689 100.414 101.433C100.414 98.1922 102.43 95.5654 104.914 95.5654C105.742 95.5742 106.543 95.8582 107.191 96.3722C107.834 95.8502 108.638 95.5652 109.467 95.5652C110.297 95.5652 111.101 95.8502 111.744 96.3722C112.391 95.8579 113.193 95.5739 114.021 95.5654C116.507 95.5654 118.52 98.1922 118.52 101.433C118.533 102.687 118.211 103.923 117.588 105.013C118.214 106.105 118.537 107.342 118.526 108.599C118.52 108.821 118.51 109.041 118.491 109.257Z" fill="#3F3D56"/>
<path opacity="0.1" d="M117.588 105.013C118.214 106.105 118.537 107.342 118.526 108.599C118.526 108.821 118.526 109.041 118.497 109.257C115.5 108.224 112.772 106.538 110.512 104.322C107.748 107.032 104.295 108.94 100.523 109.84C100.454 109.43 100.42 109.015 100.42 108.599C100.408 107.342 100.732 106.104 101.36 105.013C100.732 103.923 100.408 102.686 100.42 101.429C100.42 98.1884 102.435 95.5616 104.92 95.5616C105.746 95.5728 106.545 95.858 107.191 96.3722C107.834 95.8502 108.638 95.5652 109.467 95.5652C110.297 95.5652 111.101 95.8502 111.744 96.3722C112.391 95.8579 113.193 95.5739 114.021 95.5654C116.507 95.5654 118.52 98.1922 118.52 101.433C118.533 102.687 118.211 103.923 117.588 105.013V105.013Z" fill="black"/>
<path d="M160.926 80.3105L171.678 75.1631C169.481 71.6306 166.296 68.8134 162.515 67.057C162.575 66.4027 162.608 65.7407 162.608 65.071C162.612 62.5138 162.153 59.9769 161.252 57.5824L147.766 52.7535L147.814 52.6551L159.231 53.5911C156.962 50.0746 153.707 47.2979 149.87 45.6047C149.955 44.831 149.997 44.0534 149.998 43.2751C150.001 40.4508 149.439 37.6542 148.343 35.0493L141.949 41.3548L147.097 32.5519C146.241 31.0952 145.216 29.7444 144.041 28.5278L137.395 35.0764L142.212 26.839C139.971 24.9981 137.376 23.6333 134.585 22.8284C133.797 19.8689 132.378 17.1132 130.425 14.7487C128.472 12.3841 126.031 10.4662 123.267 9.12518L113.928 18.3276L120.039 7.87452C117.313 7.0657 114.452 6.80691 111.624 7.1133C108.796 7.41969 106.057 8.28511 103.569 9.65886C101.081 11.0326 98.8933 12.8871 97.1338 15.1137C95.3743 17.3402 94.0786 19.8941 93.3225 22.6257C89.4347 23.5953 85.8997 25.6361 83.1226 28.5143L90.6156 35.611L81.3438 30.6064C78.6129 34.2688 77.1417 38.7112 77.1487 43.2732C77.1487 43.5743 77.1487 43.8734 77.17 44.1726C72.2175 45.113 67.7591 47.7693 64.5848 51.6708L70.6516 57.4165L63.2885 53.4406C61.0146 56.8984 59.8062 60.9433 59.8123 65.0768C59.8123 65.3238 59.8123 65.5689 59.8278 65.814C56.4514 66.7237 53.3517 68.4471 50.802 70.8321L58.919 78.5175L48.7559 73.0323C45.7049 76.805 44.0444 81.5052 44.0512 86.3495C44.0512 86.6506 44.0512 86.9498 44.0725 87.2489L54.1911 96.8296L44.7313 91.7401C45.681 95.3605 47.5721 98.6676 50.214 101.328C52.856 103.988 56.1554 105.908 59.7796 106.893C63.4038 107.878 67.2247 107.894 70.8572 106.94C74.4897 105.985 77.8053 104.094 80.4699 101.456C84.4573 105.404 89.8468 107.628 95.4694 107.644C101.092 107.659 106.494 105.467 110.504 101.541C114.338 105.291 119.45 107.464 124.821 107.627C130.193 107.79 135.428 105.93 139.484 102.419C143.131 105.575 147.744 107.406 152.571 107.615C157.397 107.824 162.152 106.398 166.061 103.569C169.969 100.741 172.8 96.6764 174.091 92.0396C175.383 87.4028 175.059 82.4669 173.172 78.0369L160.926 80.3105Z" fill="currentColor"/>
<path opacity="0.1" d="M164.443 87.7179C159.921 90.0031 154.501 88.2062 149.726 86.5039C143.479 84.2748 137.095 82.2328 130.487 81.6075C123.88 80.9821 116.97 81.8603 111.221 85.1626C107.787 87.1351 104.827 89.9259 101.18 91.4796C90.9004 95.8627 78.8229 89.2446 67.9951 92.0219C61.624 93.6547 56.7876 98.1826 52.0674 102.969C56.1632 106.234 61.3225 107.884 66.5612 107.603C71.7999 107.322 76.7516 105.131 80.4718 101.446C84.4592 105.395 89.8488 107.618 95.4713 107.634C101.094 107.65 106.496 105.457 110.506 101.531C114.339 105.282 119.45 107.457 124.821 107.621C130.191 107.786 135.427 105.928 139.484 102.419C142.578 105.096 146.38 106.83 150.436 107.414C154.492 107.999 158.631 107.409 162.36 105.716C166.089 104.022 169.25 101.296 171.467 97.8628C173.683 94.4295 174.862 90.4335 174.862 86.3515C174.862 85.0319 174.739 83.7152 174.496 82.4181C172.525 82.7473 170.643 83.4794 168.97 84.5681C167.437 85.5795 166.088 86.8861 164.443 87.7179Z" fill="black"/>
<path opacity="0.1" d="M95.1865 23.0002C99.6432 24.0269 104.017 25.7196 107.553 28.5973C111.089 31.4749 113.713 35.6631 114.027 40.2083" fill="black"/>
<path opacity="0.1" d="M123.595 61.4386C125.263 57.2022 127.579 53.1395 130.958 50.065C134.337 46.9904 138.868 45.0218 143.421 45.3692" fill="black"/>
<path opacity="0.1" d="M65.8326 65.4531C70.3843 65.8237 74.9649 66.862 78.8849 69.1993C82.8048 71.5366 86.0116 75.2905 86.9882 79.7373" fill="black"/>
<path d="M90.6292 38.7299C92.3703 38.7299 93.7818 37.324 93.7818 35.5898C93.7818 33.8555 92.3703 32.4496 90.6292 32.4496C88.888 32.4496 87.4766 33.8555 87.4766 35.5898C87.4766 37.324 88.888 38.7299 90.6292 38.7299Z" fill="#FF6F61"/>
<path d="M93.7818 25.2969C95.5229 25.2969 96.9344 23.891 96.9344 22.1567C96.9344 20.4225 95.5229 19.0166 93.7818 19.0166C92.0406 19.0166 90.6292 20.4225 90.6292 22.1567C90.6292 23.891 92.0406 25.2969 93.7818 25.2969Z" fill="#FF6F61"/>
<path d="M77.143 46.4037C78.8841 46.4037 80.2956 44.9978 80.2956 43.2636C80.2956 41.5293 78.8841 40.1234 77.143 40.1234C75.4018 40.1234 73.9904 41.5293 73.9904 43.2636C73.9904 44.9978 75.4018 46.4037 77.143 46.4037Z" fill="#FF6F61"/>
<path d="M134.587 25.2969C136.328 25.2969 137.74 23.891 137.74 22.1567C137.74 20.4225 136.328 19.0166 134.587 19.0166C132.846 19.0166 131.435 20.4225 131.435 22.1567C131.435 23.891 132.846 25.2969 134.587 25.2969Z" fill="#FF6F61"/>
<path d="M148.246 38.7299C149.987 38.7299 151.399 37.324 151.399 35.5898C151.399 33.8555 149.987 32.4496 148.246 32.4496C146.505 32.4496 145.094 33.8555 145.094 35.5898C145.094 37.324 146.505 38.7299 148.246 38.7299Z" fill="#FF6F61"/>
<path d="M161.207 60.7091C162.948 60.7091 164.36 59.3032 164.36 57.5689C164.36 55.8347 162.948 54.4288 161.207 54.4288C159.466 54.4288 158.055 55.8347 158.055 57.5689C158.055 59.3032 159.466 60.7091 161.207 60.7091Z" fill="#FF6F61"/>
<path d="M173.116 82.862C174.857 82.862 176.269 81.4561 176.269 79.7218C176.269 77.9876 174.857 76.5817 173.116 76.5817C171.375 76.5817 169.964 77.9876 169.964 79.7218C169.964 81.4561 171.375 82.862 173.116 82.862Z" fill="#FF6F61"/>
<path d="M139.49 105.54C141.231 105.54 142.642 104.134 142.642 102.4C142.642 100.665 141.231 99.2595 139.49 99.2595C137.749 99.2595 136.337 100.665 136.337 102.4C136.337 104.134 137.749 105.54 139.49 105.54Z" fill="#FF6F61"/>
<path d="M80.4718 105.54C82.213 105.54 83.6244 104.134 83.6244 102.4C83.6244 100.665 82.213 99.2595 80.4718 99.2595C78.7307 99.2595 77.3192 100.665 77.3192 102.4C77.3192 104.134 78.7307 105.54 80.4718 105.54Z" fill="#FF6F61"/>
<path d="M112.87 42.5668C114.611 42.5668 116.023 41.1609 116.023 39.4267C116.023 37.6924 114.611 36.2865 112.87 36.2865C111.129 36.2865 109.717 37.6924 109.717 39.4267C109.717 41.1609 111.129 42.5668 112.87 42.5668Z" fill="#FF6F61"/>
<path d="M123.554 63.8493C125.295 63.8493 126.707 62.4434 126.707 60.7091C126.707 58.9748 125.295 57.5689 123.554 57.5689C121.813 57.5689 120.402 58.9748 120.402 60.7091C120.402 62.4434 121.813 63.8493 123.554 63.8493Z" fill="#FF6F61"/>
<path d="M166.811 106.063C168.552 106.063 169.964 104.657 169.964 102.923C169.964 101.188 168.552 99.7826 166.811 99.7826C165.07 99.7826 163.658 101.188 163.658 102.923C163.658 104.657 165.07 106.063 166.811 106.063Z" fill="#FF6F61"/>
<path d="M86.775 81.8159C88.5162 81.8159 89.9276 80.41 89.9276 78.6758C89.9276 76.9415 88.5162 75.5356 86.775 75.5356C85.0339 75.5356 83.6224 76.9415 83.6224 78.6758C83.6224 80.41 85.0339 81.8159 86.775 81.8159Z" fill="#FF6F61"/>
<path d="M114.096 20.937C115.838 20.937 117.249 19.5311 117.249 17.7968C117.249 16.0625 115.838 14.6567 114.096 14.6567C112.355 14.6567 110.944 16.0625 110.944 17.7968C110.944 19.5311 112.355 20.937 114.096 20.937Z" fill="#FF6F61"/>
<path d="M59.8046 68.5585C61.5457 68.5585 62.9572 67.1526 62.9572 65.4184C62.9572 63.6841 61.5457 62.2782 59.8046 62.2782C58.0635 62.2782 56.652 63.6841 56.652 65.4184C56.652 67.1526 58.0635 68.5585 59.8046 68.5585Z" fill="#FF6F61"/>
<path d="M44.0435 96.1194C45.7846 96.1194 47.1961 94.7135 47.1961 92.9792C47.1961 91.2449 45.7846 89.8391 44.0435 89.8391C42.3023 89.8391 40.8909 91.2449 40.8909 92.9792C40.8909 94.7135 42.3023 96.1194 44.0435 96.1194Z" fill="#FF6F61"/>
<path d="M48.9478 77.1066C50.6889 77.1066 52.1004 75.7007 52.1004 73.9665C52.1004 72.2322 50.6889 70.8263 48.9478 70.8263C47.2066 70.8263 45.7952 72.2322 45.7952 73.9665C45.7952 75.7007 47.2066 77.1066 48.9478 77.1066Z" fill="#FF6F61"/>
<path d="M157.892 68.9754C157.404 68.9059 156.832 68.657 156.342 68.6647C155.851 68.6724 155.485 70.147 154.999 70.2222C154.512 70.2975 153.887 69.5679 153.412 69.705C152.937 69.842 152.724 70.6333 152.269 70.8205C151.813 71.0078 151.269 70.9132 150.835 71.1429C150.401 71.3725 150.228 71.9689 149.819 72.2353C149.411 72.5016 148.657 72.2661 148.269 72.5653C147.882 72.8644 147.742 73.4492 147.37 73.7696C146.998 74.09 146.07 73.8024 145.713 74.1402C145.357 74.478 144.805 74.642 144.46 74.9913C144.115 75.3407 144.225 76.1358 143.879 76.491C143.532 76.8461 143.235 77.234 142.91 77.5911" fill="#EDEDF4"/>
<path d="M92.8943 64.683C92.654 64.2527 92.5068 63.6389 92.2122 63.2548C91.9177 62.8707 90.4683 63.5096 90.1079 63.1699C89.7475 62.8302 89.9859 61.8652 89.5906 61.5718C89.1953 61.2785 88.4163 61.6085 87.992 61.3615C87.5676 61.1144 87.3215 60.6107 86.8759 60.3964C86.4302 60.1822 85.845 60.4293 85.3839 60.2671C84.9227 60.105 84.6708 59.3446 84.198 59.2153C83.7252 59.086 83.1691 59.3446 82.6886 59.2442C82.208 59.1439 81.8844 58.1943 81.3981 58.1171C80.9117 58.0399 80.4486 57.6847 79.9603 57.6211C79.472 57.5574 78.9004 58.1537 78.4102 58.1016C77.9199 58.0495 77.4258 58.0399 76.9395 57.9897" fill="#EDEDF4"/>
<path d="M104.245 78.8089C104.518 78.3689 105.249 77.9867 105.749 77.8439C106.249 77.7011 106.877 77.9134 107.371 77.9558C107.865 77.9983 108.353 78.3805 108.857 78.4287C109.361 78.477 110.041 78.8842 110.537 78.7549C111.024 78.6 111.499 78.4064 111.955 78.1759C112.422 77.9655 112.626 77.1452 113.118 77.0082C113.61 76.8712 114.28 77.6644 114.777 77.5872C115.273 77.51 115.629 76.4562 116.133 76.4022C116.637 76.3481 117.166 76.4408 117.683 76.4022C118.057 76.3713 118.193 77.1202 118.545 77.2437C119.036 77.4154 120.142 76.7148 120.469 77.1375C120.797 77.5602 120.663 78.2338 121.148 78.4017" fill="#EDEDF4"/>
<path d="M112.87 37.5893C113.29 37.5693 113.708 37.6473 114.093 37.817C114.505 38.01 115.061 37.9927 115.364 38.3323C115.666 38.672 115.718 39.2279 115.846 39.666C115.926 39.39 116.286 39.0329 116.286 38.7299C116.286 38.3034 115.926 37.9039 115.771 37.5333C115.625 37.146 115.403 36.7912 115.12 36.4892C114.829 36.1997 114.581 35.6998 114.197 35.5415C113.814 35.3832 113.298 35.6071 112.87 35.6071C112.457 35.6015 112.048 35.6776 111.665 35.831C111.277 35.9893 110.76 36.0491 110.469 36.3367C110.178 36.6243 110.142 37.1531 109.981 37.5372C109.82 37.9212 110.025 38.3092 110.025 38.7299C110.025 39.0329 109.638 39.1623 109.715 39.4382C109.83 39.0118 110.038 38.6161 110.326 38.2802C110.635 37.9068 111.017 37.599 111.448 37.375C111.849 37.1994 112.401 37.5893 112.87 37.5893Z" fill="#EDEDF4"/>
<path d="M139.484 100.213C139.904 100.193 140.322 100.271 140.707 100.441C141.119 100.634 141.675 100.616 141.978 100.956C142.28 101.296 142.332 101.852 142.46 102.292C142.54 102.014 142.9 101.657 142.9 101.354C142.9 100.927 142.54 100.528 142.385 100.157C142.238 99.7697 142.017 99.4149 141.733 99.1129C141.443 98.8253 141.195 98.3254 140.811 98.1652C140.428 98.005 139.912 98.2308 139.484 98.2308C139.071 98.2252 138.662 98.3013 138.279 98.4547C137.891 98.613 137.374 98.6728 137.083 98.9623C136.792 99.2518 136.756 99.7787 136.595 100.161C136.434 100.543 136.639 100.933 136.639 101.354C136.639 101.657 136.252 101.786 136.329 102.062C136.444 101.636 136.653 101.24 136.94 100.904C137.25 100.531 137.632 100.223 138.064 99.9987C138.469 99.825 139.021 100.213 139.484 100.213Z" fill="#EDEDF4"/>
<path d="M166.805 100.213C167.224 100.193 167.642 100.271 168.026 100.441C168.441 100.634 168.995 100.616 169.299 100.956C169.603 101.296 169.654 101.852 169.78 102.292C169.861 102.014 170.219 101.657 170.219 101.354C170.219 100.927 169.859 100.528 169.706 100.157C169.558 99.77 169.337 99.4153 169.053 99.1129C168.764 98.8253 168.516 98.3254 168.131 98.1652C167.745 98.005 167.233 98.2308 166.805 98.2308C166.392 98.2248 165.983 98.3009 165.6 98.4547C165.212 98.613 164.695 98.6728 164.404 98.9623C164.114 99.2518 164.077 99.7787 163.916 100.161C163.755 100.543 163.961 100.933 163.961 101.354C163.961 101.657 163.573 101.786 163.651 102.062C163.765 101.636 163.973 101.241 164.259 100.904C164.57 100.531 164.952 100.224 165.383 99.9987C165.788 99.825 166.342 100.213 166.805 100.213Z" fill="#EDEDF4"/>
<path d="M85.3703 76.6608C85.7193 76.4298 86.1172 76.2825 86.5329 76.2304C86.9863 76.1822 87.4611 75.8869 87.8893 76.0278C88.3175 76.1686 88.6644 76.6068 88.9918 76.9233C88.9182 76.6434 89.0383 76.1513 88.8814 75.8965C88.6624 75.5317 88.1489 75.3696 87.8273 75.1245C87.5016 74.8674 87.1283 74.6765 86.7286 74.5629C86.3314 74.4644 85.8625 74.1653 85.4498 74.227C85.037 74.2888 84.7115 74.7366 84.3453 74.9566C83.9874 75.1624 83.6745 75.4373 83.4249 75.7653C83.1769 76.0992 82.7661 76.4176 82.6653 76.8133C82.5646 77.2089 82.801 77.6799 82.8591 78.091C82.9172 78.5021 83.2873 78.7298 83.5063 79.0946C83.6632 79.3532 83.4036 79.6736 83.6148 79.8666C83.4943 79.4443 83.4705 79.0004 83.545 78.5677C83.6172 78.0886 83.7859 77.629 84.0411 77.2167C84.2968 76.8577 84.9673 76.9021 85.3703 76.6608Z" fill="#EDEDF4"/>
<path d="M78.8888 100.385C79.238 100.154 79.6358 100.007 80.0514 99.9543C80.5028 99.9061 80.9795 99.6108 81.4077 99.7613C81.836 99.9119 82.1731 100.34 82.5103 100.657C82.4366 100.377 82.5568 99.8848 82.3998 99.6301C82.1809 99.2653 81.6674 99.1032 81.3438 98.8581C81.0188 98.6009 80.6461 98.4101 80.2471 98.2964C79.8479 98.198 79.379 97.8988 78.9663 97.9606C78.5535 98.0224 78.2299 98.4701 77.8618 98.6902C77.505 98.8967 77.1929 99.1715 76.9433 99.4988C76.6953 99.8327 76.2845 100.151 76.1837 100.547C76.083 100.943 76.3194 101.413 76.3775 101.825C76.4356 102.236 76.8057 102.463 77.0247 102.828C77.1817 103.087 76.9201 103.398 77.1332 103.6C77.0127 103.178 76.9889 102.734 77.0635 102.301C77.1356 101.822 77.3043 101.363 77.5595 100.95C77.8172 100.582 78.4877 100.618 78.8888 100.385Z" fill="#EDEDF4"/>
<path d="M59.2756 63.7547C59.6246 63.5237 60.0225 63.3764 60.4382 63.3243C60.8916 63.276 61.3683 62.9807 61.7946 63.1216C62.2209 63.2625 62.5696 63.7006 62.8971 64.0152C62.8235 63.7373 62.9436 63.2432 62.7867 62.9904C62.5677 62.6256 62.0542 62.4635 61.7326 62.2184C61.4068 61.9618 61.0335 61.7716 60.6339 61.6587C60.2464 61.5583 59.7678 61.2611 59.355 61.3228C58.9423 61.3846 58.6168 61.8324 58.2506 62.0524C57.8927 62.2582 57.5798 62.5331 57.3302 62.8611C57.0821 63.195 56.6713 63.5115 56.5706 63.9091C56.4698 64.3067 56.7062 64.7757 56.7644 65.1868C56.8225 65.5979 57.1926 65.8237 57.4115 66.1904C57.5685 66.449 57.3088 66.7578 57.5201 66.9624C57.3996 66.5401 57.3758 66.0962 57.4503 65.6635C57.5224 65.1844 57.6912 64.7249 57.9463 64.3125C58.2021 63.9477 58.8764 63.9921 59.2756 63.7547Z" fill="#EDEDF4"/>
<path d="M48.4129 72.8258C48.7618 72.5949 49.1598 72.4475 49.5755 72.3954C50.0289 72.3453 50.5056 72.0519 50.9319 72.1928C51.3581 72.3337 51.7069 72.7718 52.0344 73.0864C51.9608 72.8085 52.0809 72.3144 51.9239 72.0615C51.705 71.6968 51.1934 71.5346 50.8698 71.2895C50.5445 71.0333 50.1719 70.8432 49.7731 70.7298C49.374 70.6295 48.905 70.3322 48.4923 70.3921C48.0796 70.4519 47.7541 70.9035 47.3878 71.1216C47.031 71.3289 46.7189 71.6044 46.4694 71.9322C46.2194 72.2661 45.8086 72.5826 45.7098 72.9802C45.611 73.3778 45.8454 73.8468 45.9036 74.2579C45.9617 74.669 46.3318 74.8948 46.5527 75.2596C46.7077 75.5202 46.4481 75.829 46.6593 76.0316C46.5408 75.609 46.517 75.1655 46.5895 74.7327C46.664 74.2542 46.8326 73.7951 47.0856 73.3817C47.3452 73.0188 48.0137 73.0632 48.4129 72.8258Z" fill="#EDEDF4"/>
<path d="M43.5126 91.3136C43.8618 91.0832 44.2596 90.9359 44.6752 90.8832C45.1286 90.8349 45.6053 90.5396 46.0316 90.6902C46.4579 90.8407 46.7969 91.2692 47.1341 91.5857C47.0585 91.3059 47.1787 90.8137 47.0237 90.5589C46.8028 90.1942 46.2912 90.032 45.9676 89.7869C45.6419 89.5309 45.2695 89.3401 44.8709 89.2253C44.4717 89.1268 44.0028 88.8393 43.5901 88.8895C43.1774 88.9396 42.8518 89.4009 42.4856 89.619C42.1289 89.8255 41.8167 90.1004 41.5671 90.4277C41.3191 90.7616 40.9064 91.08 40.8076 91.4757C40.7088 91.8714 40.9432 92.3442 41.0013 92.7534C41.0595 93.1625 41.4315 93.3922 41.6505 93.757C41.8074 94.0176 41.5458 94.3264 41.759 94.529C41.6389 94.106 41.6144 93.6617 41.6873 93.2282C41.761 92.7492 41.9303 92.2898 42.1853 91.8771C42.441 91.5104 43.1115 91.5471 43.5126 91.3136Z" fill="#EDEDF4"/>
<path d="M76.4375 41.7736C76.7868 41.5432 77.1846 41.3959 77.6001 41.3432C78.0535 41.293 78.5302 40.9996 78.9565 41.1405C79.3828 41.2814 79.7219 41.7195 80.059 42.0341C79.9835 41.7562 80.1036 41.2621 79.9486 41.0093C79.7277 40.6445 79.2161 40.4824 78.8926 40.2373C78.5672 39.9811 78.1946 39.7909 77.7958 39.6776C77.3967 39.5772 76.9277 39.28 76.515 39.3398C76.1023 39.3996 75.7768 39.8513 75.4105 40.0694C75.0537 40.2766 74.7416 40.5521 74.4921 40.88C74.244 41.2119 73.8313 41.5304 73.7325 41.928C73.6337 42.3256 73.8681 42.7946 73.9263 43.2057C73.9844 43.6168 74.3564 43.8426 74.5754 44.2074C74.7323 44.4679 74.4708 44.7767 74.6839 44.9794C74.5638 44.557 74.5393 44.1134 74.6122 43.6805C74.6862 43.2016 74.8555 42.7422 75.1102 42.3294C75.366 41.9685 76.0345 42.0129 76.4375 41.7736Z" fill="#EDEDF4"/>
<path d="M89.9219 34.0978C90.2712 33.8674 90.669 33.7201 91.0845 33.6674C91.536 33.6192 92.0127 33.3239 92.4409 33.4648C92.8691 33.6057 93.2063 34.0438 93.5435 34.3584C93.4698 34.0805 93.59 33.5864 93.433 33.3336C93.2141 32.9688 92.7006 32.8067 92.377 32.5615C92.0521 32.3046 91.6794 32.1144 91.2803 32.0018C90.883 31.9015 90.4122 31.6042 90.0014 31.666C89.5906 31.7278 89.2631 32.1755 88.895 32.3956C88.5382 32.6021 88.2261 32.8769 87.9765 33.2042C87.7285 33.5381 87.3177 33.8547 87.217 34.2522C87.1162 34.6498 87.3526 35.1188 87.4107 35.5299C87.4688 35.941 87.8389 36.1668 88.0579 36.5335C88.2149 36.7922 87.9552 37.101 88.1664 37.3056C88.046 36.8832 88.0222 36.4394 88.0967 36.0066C88.1688 35.5276 88.3375 35.068 88.5927 34.6556C88.8504 34.2928 89.5208 34.3372 89.9219 34.0978Z" fill="#EDEDF4"/>
<path d="M92.7258 20.3174C93.0748 20.0865 93.4727 19.9391 93.8884 19.887C94.3418 19.8369 94.8185 19.5435 95.2448 19.6844C95.6711 19.8253 96.0198 20.2634 96.3473 20.578C96.2737 20.3001 96.3938 19.806 96.2369 19.5531C96.0179 19.1884 95.5044 19.0262 95.1828 18.7811C94.857 18.5245 94.4837 18.3344 94.0841 18.2214C93.6869 18.1211 93.218 17.8238 92.8052 17.8837C92.3925 17.9435 92.067 18.3951 91.7008 18.6132C91.3434 18.8205 91.0306 19.0959 90.7804 19.4238C90.5323 19.7558 90.1215 20.0742 90.0208 20.4718C89.92 20.8694 90.1564 21.3384 90.2146 21.7495C90.2727 22.1606 90.6428 22.3864 90.8617 22.7512C91.0187 23.0118 90.759 23.3206 90.9702 23.5232C90.8498 23.1009 90.826 22.657 90.9005 22.2243C90.9729 21.7453 91.1416 21.2858 91.3965 20.8733C91.6523 20.522 92.3227 20.5568 92.7258 20.3174Z" fill="#EDEDF4"/>
<path d="M114.1 15.7838C114.519 15.7638 114.937 15.8418 115.321 16.0115C115.736 16.2045 116.299 16.1872 116.594 16.5269C116.889 16.8665 116.949 17.4224 117.075 17.8624C117.156 17.5845 117.514 17.2275 117.514 16.9244C117.514 16.4979 117.154 16.0984 117.001 15.7278C116.853 15.3408 116.632 14.9862 116.348 14.6837C116.059 14.3961 115.811 13.8962 115.426 13.736C115.04 13.5758 114.528 13.8016 114.1 13.8016C113.688 13.7956 113.278 13.8717 112.895 14.0255C112.507 14.1838 111.988 14.2436 111.699 14.5331C111.411 14.8226 111.372 15.3495 111.211 15.7317C111.05 16.1138 111.256 16.5037 111.256 16.9244C111.256 17.2275 110.868 17.3568 110.946 17.6328C111.06 17.2069 111.268 16.8115 111.554 16.4747C111.865 16.1018 112.247 15.7941 112.678 15.5696C113.073 15.3959 113.627 15.7838 114.1 15.7838Z" fill="#EDEDF4"/>
<path d="M135.291 21.0161C135.677 21.1806 136.02 21.4323 136.293 21.7514C136.583 22.1008 137.095 22.3305 137.211 22.7666C137.327 23.2028 137.141 23.7317 137.064 24.1756C137.257 23.9613 137.736 23.7896 137.868 23.5213C138.062 23.1353 137.905 22.6219 137.928 22.2224C137.964 21.8103 137.918 21.3953 137.794 21.0007C137.659 20.6147 137.653 20.0588 137.376 19.7481C137.099 19.4373 136.539 19.4161 136.155 19.2328C135.786 19.0485 135.383 18.9395 134.971 18.9124C134.554 18.8892 134.06 18.7194 133.673 18.8545C133.285 18.9896 133.022 19.4451 132.704 19.7211C132.386 19.997 132.407 20.4294 132.221 20.8134C132.09 21.0856 131.685 21.0354 131.64 21.321C131.928 20.9893 132.287 20.7256 132.69 20.549C133.132 20.3467 133.611 20.2345 134.097 20.219C134.539 20.2267 134.868 20.8134 135.291 21.0161Z" fill="#EDEDF4"/>
<path d="M149.477 34.6228C149.863 34.7867 150.206 35.0378 150.478 35.3562C150.769 35.7075 151.28 35.9352 151.397 36.3734C151.513 36.8115 151.327 37.3384 151.249 37.7823C151.443 37.568 151.922 37.3963 152.054 37.128C152.247 36.742 152.09 36.2286 152.114 35.8272C152.15 35.4158 152.104 35.0014 151.98 34.6074C151.844 34.2214 151.839 33.6655 151.561 33.3548C151.284 33.0441 150.724 33.0228 150.341 32.8375C149.971 32.6549 149.569 32.5467 149.157 32.5191C148.74 32.494 148.246 32.3261 147.859 32.4593C147.471 32.5924 147.207 33.0518 146.89 33.3278C146.572 33.6038 146.593 34.0361 146.407 34.4202C146.275 34.6923 145.87 34.6421 145.826 34.9278C146.114 34.5962 146.473 34.3325 146.876 34.1557C147.319 33.9549 147.797 33.8434 148.283 33.8276C148.725 33.8392 149.054 34.4182 149.477 34.6228Z" fill="#EDEDF4"/>
<path d="M161.736 55.5559C162.123 55.7198 162.466 55.9709 162.738 56.2893C163.027 56.6387 163.54 56.8683 163.656 57.3064C163.773 57.7446 163.587 58.2715 163.509 58.7154C163.703 58.5011 164.18 58.3294 164.311 58.0611C164.505 57.6751 164.35 57.1617 164.371 56.7603C164.408 56.3484 164.363 55.9333 164.24 55.5385C164.104 55.1525 164.098 54.5967 163.821 54.2879C163.544 53.9791 162.984 53.9559 162.598 53.7706C162.229 53.5881 161.828 53.4792 161.416 53.4502C161 53.4271 160.506 53.2572 160.118 53.3923C159.731 53.5275 159.467 53.9849 159.149 54.2609C158.832 54.5369 158.853 54.9692 158.667 55.3533C158.535 55.6254 158.13 55.5752 158.086 55.8609C158.374 55.5293 158.733 55.2656 159.136 55.0888C159.578 54.8871 160.056 54.7756 160.543 54.7607C160.992 54.7665 161.314 55.3533 161.736 55.5559Z" fill="#EDEDF4"/>
<path d="M124.081 59.3928C124.468 59.5567 124.811 59.8085 125.083 60.1282C125.374 60.4775 125.885 60.7072 126.001 61.1433C126.118 61.5795 125.934 62.1084 125.856 62.5523C126.05 62.338 126.527 62.1663 126.658 61.898C126.852 61.512 126.695 60.9986 126.718 60.5991C126.755 60.1872 126.71 59.7721 126.587 59.3774C126.451 58.9914 126.445 58.4355 126.166 58.1248C125.887 57.814 125.331 57.7947 124.945 57.6095C124.576 57.4249 124.174 57.3159 123.762 57.2891C123.345 57.2659 122.853 57.0961 122.465 57.2312C122.078 57.3663 121.812 57.8218 121.496 58.0978C121.181 58.3738 121.2 58.8061 121.014 59.1902C120.882 59.4642 120.477 59.414 120.433 59.6978C120.72 59.3656 121.079 59.1018 121.483 58.9257C121.924 58.7234 122.402 58.6112 122.888 58.5957C123.329 58.6034 123.659 59.1902 124.081 59.3928Z" fill="#EDEDF4"/>
<path d="M173.645 78.0581C174.032 78.2226 174.375 78.4744 174.647 78.7935C174.936 79.1428 175.447 79.3725 175.565 79.8087C175.684 80.2449 175.496 80.7737 175.418 81.2176C175.612 81.0034 176.089 80.8316 176.22 80.5633C176.414 80.1773 176.259 79.6639 176.28 79.2644C176.317 78.8525 176.272 78.4375 176.149 78.0427C176.013 77.6567 176.007 77.1008 175.73 76.7901C175.453 76.4794 174.893 76.4581 174.507 76.2748C174.139 76.0905 173.737 75.9815 173.326 75.9544C172.909 75.9312 172.415 75.7614 172.027 75.8965C171.64 76.0316 171.376 76.4871 171.058 76.7631C170.741 77.0391 170.762 77.4714 170.576 77.8555C170.444 78.1276 170.039 78.0774 169.995 78.3631C170.283 78.0309 170.641 77.7672 171.045 77.5911C171.487 77.3887 171.965 77.2765 172.452 77.261C172.893 77.2649 173.223 77.8555 173.645 78.0581Z" fill="#EDEDF4"/>
<path d="M115.106 0.802895L115.726 2.05355C115.83 2.26259 115.983 2.44343 116.172 2.58058C116.361 2.71773 116.581 2.8071 116.813 2.84101L118.198 3.03401C118.466 3.07262 118.716 3.18493 118.923 3.35823C119.129 3.53152 119.282 3.75888 119.366 4.01456C119.449 4.27024 119.459 4.54404 119.394 4.80496C119.329 5.06589 119.192 5.30351 118.999 5.49094L117.997 6.45595C117.828 6.62158 117.703 6.82585 117.631 7.05093C117.56 7.276 117.545 7.51503 117.588 7.74714L117.824 9.12132C117.87 9.38595 117.84 9.65792 117.738 9.90653C117.637 10.1551 117.467 10.3705 117.249 10.5283C117.031 10.686 116.773 10.7799 116.504 10.7994C116.235 10.8188 115.967 10.7631 115.728 10.6383L114.488 9.98984C114.28 9.88146 114.05 9.82485 113.815 9.82485C113.581 9.82485 113.35 9.88146 113.143 9.98984L111.903 10.6383C111.664 10.7631 111.395 10.8188 111.127 10.7994C110.858 10.7799 110.6 10.686 110.382 10.5283C110.164 10.3705 109.994 10.1551 109.893 9.90653C109.791 9.65792 109.761 9.38595 109.806 9.12132L110.031 7.74714C110.07 7.51679 110.053 7.2804 109.98 7.05822C109.908 6.83603 109.782 6.63468 109.615 6.47139L108.613 5.50638C108.419 5.31895 108.282 5.08133 108.218 4.8204C108.153 4.55948 108.162 4.28568 108.246 4.03C108.329 3.77432 108.482 3.54696 108.689 3.37367C108.895 3.20037 109.146 3.08806 109.413 3.04945L110.798 2.85645C111.03 2.82283 111.251 2.7336 111.44 2.59644C111.63 2.45927 111.784 2.27827 111.887 2.06899L112.508 0.818335C112.625 0.575126 112.808 0.369635 113.037 0.225291C113.266 0.0809465 113.531 0.00355781 113.802 0.00194824C114.073 0.00033866 114.339 0.0745728 114.569 0.216187C114.8 0.357801 114.986 0.561097 115.106 0.802895V0.802895Z" fill="#FEE374"/>
<path d="M146.291 151.442C146.291 151.888 143.733 151.509 143.456 151.924C143.224 152.27 144.632 154.063 144.231 154.379C143.898 154.642 143.315 154.831 142.875 155.068C142.487 155.275 141.838 155.093 141.385 155.277C140.976 155.443 140.362 155.101 139.899 155.248C139.474 155.383 138.862 154.775 138.397 154.891C137.932 155.007 137.558 155.084 137.091 155.171C136.624 155.257 136.426 156.581 135.957 156.651C135.488 156.72 134.863 155.147 134.392 155.2C133.921 155.252 133.657 157.06 133.186 157.093C132.716 157.126 132.247 156.9 131.778 156.923C131.309 156.946 130.852 155.477 130.383 155.477C129.914 155.477 129.414 158.015 128.951 158C128.488 157.985 128.04 157.066 127.585 157.035C127.129 157.004 126.686 156.545 126.228 156.495C125.771 156.444 125.453 155.337 125.011 155.269C124.57 155.201 124.105 155.304 123.655 155.217C123.205 155.13 122.376 156.663 121.94 156.552C121.504 156.442 121.307 155.304 120.88 155.169C120.419 155.024 120.326 154.103 119.911 153.937C119.456 153.744 118.543 154.748 118.168 154.541C117.728 154.304 117.447 153.895 117.113 153.632C116.708 153.316 117.515 152.281 117.284 151.934C117.005 151.519 115.567 151.89 115.567 151.444C115.602 150.97 115.775 150.518 116.065 150.141C116.298 149.795 117.332 150.359 117.737 150.043C118.071 149.782 117.701 148.531 118.142 148.294C118.53 148.087 118.462 146.675 118.917 146.491C119.326 146.325 120.01 146.572 120.468 146.426C120.894 146.291 121.396 146.14 121.861 146.024C122.326 145.908 122.754 145.573 123.217 145.482C123.68 145.391 124.368 146.607 124.837 146.538C125.306 146.468 125.591 145.03 126.062 144.98C126.532 144.93 127.153 146.692 127.621 146.659C128.09 146.626 128.548 147.325 129.017 147.31C129.485 147.294 129.896 146.061 130.373 146.061C130.85 146.061 131.301 146.2 131.758 146.215C132.216 146.231 132.764 145.14 133.219 145.173C133.675 145.206 134.068 146.35 134.522 146.399C134.975 146.447 135.506 146.123 135.953 146.188C136.401 146.254 136.653 147.551 137.097 147.638C137.54 147.725 138.021 147.609 138.453 147.717C138.92 147.835 139.445 147.553 139.871 147.686C140.333 147.833 140.538 148.483 140.947 148.651C141.402 148.844 142.371 147.815 142.753 148.022C143.197 148.231 143.624 148.474 144.032 148.747C144.437 149.064 145.194 149.298 145.431 149.645C145.716 150.056 146.291 150.992 146.291 151.442Z" fill="#EDEDF4"/>
<path d="M166.249 151.442C166.249 151.888 163.691 151.509 163.414 151.924C163.182 152.27 164.59 154.063 164.189 154.379C163.856 154.642 163.273 154.831 162.833 155.068C162.445 155.275 161.796 155.093 161.343 155.277C160.934 155.443 160.32 155.101 159.857 155.248C159.432 155.383 158.82 154.775 158.355 154.891C157.89 155.007 157.516 155.084 157.049 155.171C156.582 155.257 156.384 156.581 155.915 156.651C155.446 156.72 154.821 155.147 154.35 155.2C153.879 155.252 153.615 157.06 153.144 157.093C152.674 157.126 152.205 156.9 151.736 156.923C151.267 156.946 150.81 155.477 150.341 155.477C149.872 155.477 149.372 158.015 148.909 158C148.446 157.985 147.998 157.066 147.543 157.035C147.087 157.004 146.644 156.545 146.186 156.495C145.729 156.444 145.411 155.337 144.969 155.269C144.528 155.201 144.063 155.304 143.613 155.217C143.163 155.13 142.334 156.663 141.898 156.552C141.462 156.442 141.265 155.304 140.838 155.169C140.377 155.024 140.284 154.103 139.869 153.937C139.414 153.744 138.501 154.748 138.126 154.541C137.686 154.304 137.405 153.895 137.071 153.632C136.666 153.316 137.473 152.281 137.242 151.934C136.963 151.519 135.525 151.89 135.525 151.444C135.56 150.97 135.733 150.518 136.023 150.141C136.256 149.795 137.29 150.359 137.695 150.043C138.029 149.782 137.659 148.531 138.1 148.294C138.488 148.087 138.42 146.675 138.875 146.491C139.284 146.325 139.968 146.572 140.426 146.426C140.852 146.291 141.354 146.14 141.819 146.024C142.284 145.908 142.712 145.573 143.175 145.482C143.638 145.391 144.326 146.607 144.795 146.538C145.264 146.468 145.549 145.03 146.02 144.98C146.49 144.93 147.111 146.692 147.579 146.659C148.048 146.626 148.506 147.325 148.975 147.31C149.444 147.294 149.854 146.061 150.331 146.061C150.808 146.061 151.259 146.2 151.716 146.215C152.174 146.231 152.722 145.14 153.177 145.173C153.633 145.206 154.026 146.35 154.48 146.399C154.933 146.447 155.464 146.123 155.911 146.188C156.359 146.254 156.611 147.551 157.055 147.638C157.498 147.725 157.979 147.609 158.411 147.717C158.878 147.835 159.403 147.553 159.829 147.686C160.291 147.833 160.496 148.483 160.905 148.651C161.36 148.844 162.329 147.815 162.711 148.022C163.155 148.231 163.582 148.474 163.99 148.747C164.395 149.064 165.152 149.298 165.389 149.645C165.674 150.056 166.249 150.992 166.249 151.442Z" fill="#EDEDF4"/>
<path d="M113.157 150.67C113.157 151.116 110.599 150.737 110.322 151.152C110.089 151.498 111.498 153.291 111.097 153.607C110.764 153.87 110.18 154.059 109.74 154.296C109.353 154.503 108.704 154.321 108.25 154.505C107.842 154.671 107.227 154.329 106.764 154.476C106.34 154.611 105.728 154.003 105.262 154.119C104.797 154.235 104.423 154.312 103.956 154.399C103.49 154.485 103.292 155.809 102.823 155.879C102.354 155.948 101.728 154.375 101.257 154.428C100.786 154.48 100.523 156.288 100.052 156.321C99.5812 156.354 99.1123 156.128 98.6434 156.151C98.1744 156.174 97.7172 154.705 97.2482 154.705C96.7793 154.705 96.2794 157.243 95.8163 157.228C95.3532 157.213 94.9056 156.294 94.4502 156.263C93.9949 156.232 93.5511 155.773 93.0939 155.723C92.6366 155.672 92.3188 154.565 91.877 154.497C91.4352 154.429 90.9702 154.532 90.5206 154.445C90.0711 154.358 89.2417 155.891 88.8058 155.78C88.3407 155.665 88.1721 154.532 87.7459 154.397C87.2847 154.252 87.1917 153.331 86.777 153.165C86.3217 152.972 85.409 153.976 85.0331 153.769C84.5932 153.532 84.3123 153.123 83.979 152.86C83.574 152.544 84.3801 151.509 84.1495 151.162C83.8705 150.747 82.4327 151.118 82.4327 150.672C82.4677 150.198 82.6408 149.746 82.9307 149.369C83.1632 149.023 84.198 149.587 84.6029 149.27C84.9362 149.01 84.5661 147.759 85.0079 147.522C85.3954 147.315 85.3276 145.903 85.783 145.719C86.1918 145.553 86.8758 145.8 87.3331 145.654C87.7594 145.518 88.2613 145.368 88.7263 145.252C89.1914 145.136 89.6196 144.801 90.0827 144.71C90.5458 144.619 91.2337 145.835 91.7026 145.766C92.1715 145.696 92.4564 144.258 92.9272 144.208C93.3981 144.158 94.0181 145.92 94.4871 145.887C94.956 145.854 95.4133 146.553 95.8822 146.538C96.3511 146.522 96.7619 145.289 97.2385 145.289C97.7152 145.289 98.1667 145.428 98.624 145.443C99.0813 145.459 99.6296 144.368 100.085 144.401C100.54 144.434 100.934 145.578 101.387 145.627C101.841 145.675 102.371 145.351 102.819 145.416C103.267 145.482 103.519 146.779 103.962 146.866C104.406 146.953 104.887 146.837 105.319 146.945C105.786 147.063 106.311 146.781 106.737 146.914C107.198 147.061 107.404 147.711 107.812 147.879C108.268 148.072 109.237 147.043 109.618 147.25C110.062 147.459 110.49 147.702 110.897 147.975C111.302 148.292 112.06 148.525 112.296 148.873C112.581 149.284 113.157 150.22 113.157 150.67Z" fill="#EDEDF4"/>
<path d="M96.2988 150.284C96.2988 150.73 93.7411 150.351 93.464 150.766C93.2314 151.112 94.6401 152.905 94.239 153.221C93.9058 153.484 93.3225 153.673 92.8827 153.91C92.4951 154.117 91.846 153.935 91.3926 154.119C90.9837 154.285 90.3695 153.943 89.9064 154.09C89.482 154.225 88.8697 153.617 88.4047 153.733C87.9396 153.849 87.5657 153.926 87.0987 154.013C86.6317 154.099 86.4341 155.423 85.9651 155.493C85.4962 155.562 84.8704 153.989 84.3995 154.042C83.9287 154.094 83.6651 155.902 83.1943 155.935C82.7234 155.968 82.2545 155.742 81.7856 155.765C81.3167 155.788 80.8594 154.319 80.3904 154.319C79.9215 154.319 79.4216 156.857 78.9585 156.842C78.4954 156.827 78.0478 155.908 77.5924 155.877C77.1371 155.846 76.6934 155.387 76.2361 155.337C75.7788 155.286 75.461 154.179 75.0192 154.111C74.5774 154.043 74.1124 154.146 73.6628 154.059C73.2133 153.972 72.384 155.505 71.948 155.394C71.4829 155.279 71.3144 154.146 70.8881 154.011C70.4269 153.866 70.3339 152.945 69.9192 152.779C69.4639 152.586 68.5512 153.59 68.1753 153.383C67.7355 153.146 67.4545 152.737 67.1212 152.474C66.7162 152.158 67.5223 151.123 67.2917 150.776C67.0127 150.361 65.575 150.732 65.575 150.286C65.6099 149.812 65.783 149.36 66.0729 148.983C66.3055 148.637 67.3402 149.201 67.7451 148.884C68.0784 148.624 67.7083 147.373 68.1501 147.136C68.5377 146.929 68.4698 145.517 68.9252 145.333C69.334 145.167 70.018 145.414 70.4753 145.268C70.9016 145.133 71.4035 144.982 71.8685 144.866C72.3336 144.75 72.7618 144.415 73.2249 144.324C73.688 144.233 74.3759 145.449 74.8448 145.38C75.3137 145.31 75.5986 143.872 76.0694 143.822C76.5403 143.772 77.1603 145.534 77.6196 145.501C78.0788 145.468 78.5458 146.167 79.0147 146.152C79.4836 146.136 79.8944 144.903 80.3711 144.903C80.8477 144.903 81.2992 145.042 81.7565 145.057C82.2138 145.073 82.7622 143.982 83.2175 144.015C83.6729 144.048 84.0662 145.192 84.5196 145.241C84.9731 145.289 85.504 144.965 85.9516 145.03C86.3992 145.096 86.6511 146.393 87.0948 146.48C87.5385 146.567 88.0191 146.451 88.4512 146.559C88.9182 146.677 89.4433 146.395 89.8696 146.528C90.3307 146.675 90.5361 147.325 90.945 147.493C91.4003 147.686 92.3692 146.657 92.7509 146.864C93.1949 147.073 93.6224 147.316 94.0298 147.589C94.4347 147.906 95.1924 148.139 95.4288 148.487C95.7233 148.898 96.2988 149.834 96.2988 150.284Z" fill="#EDEDF4"/>
<path d="M82.0801 141.649V145.847L80.9659 148.085L80.9311 148.157L77.98 147.964L76.8464 147.889L74.2131 147.715V142.693L76.8464 142.766L78.0226 142.799L81.0008 142.884L82.0801 141.649Z" fill="#FF6F61"/>
<path opacity="0.1" d="M82.0801 141.896V145.847L81.8088 146.395L81.5279 146.954L80.9659 148.085L81.0299 143.888L81.0415 143.04L81.5763 142.45L81.8108 142.193L82.0801 141.896Z" fill="black"/>
<path d="M82.2312 140.533V142L82.0801 142.239L81.8108 142.668L81.5705 143.048L81.0415 143.888H81.0299L73.9825 143.527V142.079L74 142.06L74.8409 141.155L75.1452 140.825L75.6974 140.232L82.2312 140.533Z" fill="#FF6F61"/>
<path opacity="0.1" d="M81.0415 142.442V143.888L73.9825 143.527V142.079L74 142.06L81.0415 142.442Z" fill="black"/>
<path opacity="0.15" d="M82.2313 140.533V142L81.0415 143.888V142.442L82.2313 140.533Z" fill="black"/>
<path d="M81.8108 141.207V142.193V142.668L81.8088 146.395L81.5279 146.954L81.5705 143.048L81.5763 142.45L81.586 141.568L74.8409 141.155L75.1452 140.825L81.8108 141.207Z" fill="#3F3D56"/>
<path d="M78.5012 141.257L78.0284 142.278L78.0226 142.799L77.98 147.964L76.8464 147.889V142.21L77.451 141.257H78.5012Z" fill="#3F3D56"/>
<path d="M76.9433 141.325C76.6706 141.416 76.3772 141.426 76.0985 141.355C76.0438 141.345 75.9926 141.321 75.9493 141.286C75.9032 141.235 75.8718 141.172 75.8582 141.104C75.8092 140.965 75.7818 140.82 75.7768 140.672C75.7753 140.598 75.791 140.525 75.8226 140.458C75.8541 140.391 75.9008 140.332 75.959 140.286C75.9832 140.271 76.0059 140.254 76.0268 140.234C76.0521 140.202 76.0705 140.165 76.0811 140.126C76.1624 139.881 76.3233 139.622 76.579 139.582C76.8348 139.541 77.0324 139.711 77.2146 139.865L77.6157 140.205C77.6606 140.086 77.7404 139.984 77.8447 139.911C77.949 139.838 78.073 139.798 78.2004 139.796C78.3279 139.795 78.4529 139.831 78.5591 139.901C78.6653 139.972 78.7477 140.072 78.7957 140.19C79.0387 139.917 79.3446 139.708 79.6871 139.58C79.7239 139.563 79.7639 139.555 79.8043 139.555C79.8447 139.555 79.8847 139.563 79.9215 139.58C79.9646 139.611 79.997 139.655 80.0145 139.705C80.1243 139.943 80.1836 140.2 80.1889 140.462C80.2171 140.453 80.2476 140.453 80.2756 140.463C80.3036 140.473 80.3276 140.491 80.3439 140.516C80.3751 140.566 80.3925 140.623 80.3943 140.682C80.4059 140.773 80.4117 140.866 80.4118 140.958C80.4208 141.055 80.3947 141.152 80.3381 141.232C80.2909 141.273 80.2354 141.304 80.1753 141.323C80.1152 141.342 80.0518 141.347 79.9893 141.34C80.0017 141.355 80.0106 141.373 80.0155 141.392C80.0205 141.412 80.0213 141.431 80.0181 141.451C80.0148 141.47 80.0074 141.489 79.9965 141.505C79.9855 141.522 79.9712 141.536 79.9545 141.546C79.8827 141.585 79.801 141.601 79.72 141.593C79.4066 141.617 79.093 141.55 78.817 141.4C78.7143 141.332 78.6233 141.242 78.5245 141.174C78.2625 141.032 77.962 140.976 77.6661 141.014C77.4025 141.023 77.1933 141.242 76.9433 141.325Z" fill="#3F3D56"/>
<path d="M76.8969 141.257C76.8969 141.257 74.2946 141.618 73.9323 143.187L74.4767 143.106L74.8643 143.789C74.8643 143.789 75.2692 142.263 76.459 141.902C76.9832 141.727 77.5177 141.586 78.0595 141.477C78.0595 141.477 78.8869 141.67 79.6329 144.069L80.0573 143.49L80.8033 143.65C80.8033 143.65 80.2588 141.782 78.7861 141.261L76.8969 141.257Z" fill="#3F3D56"/>
<path d="M90.6252 141.265V147.462L88.9801 150.768L88.9278 150.872L84.5739 150.587L82.8997 150.475L79.0146 150.22V142.807L82.8997 142.917L84.6378 142.965L89.0325 143.089L90.6252 141.265Z" fill="currentColor"/>
<path opacity="0.1" d="M90.6253 141.631V147.462L90.2223 148.271L89.8115 149.097V149.099L88.9802 150.768L89.0732 144.571L89.0926 143.32L89.8812 142.45L90.2262 142.07L90.6253 141.631Z" fill="black"/>
<path d="M90.8481 139.618V141.784L90.6253 142.139L90.2261 142.772L89.8715 143.332L89.0926 144.571H89.0732L78.6718 144.038V141.902L78.6989 141.875L79.9409 140.535L80.3905 140.051L81.2024 139.174L90.8481 139.618Z" fill="currentColor"/>
<path opacity="0.1" d="M89.0926 142.436V144.571L78.6718 144.038V141.902L78.6989 141.875L89.0926 142.436Z" fill="black"/>
<path opacity="0.15" d="M90.8482 139.618V141.784L89.0927 144.571V142.436L90.8482 139.618Z" fill="black"/>
<path d="M90.2261 140.616V142.07V142.772L90.2222 148.271L89.8115 149.097L89.8715 143.332L89.8812 142.45L89.8967 141.147L79.9409 140.535L80.3905 140.051L90.2261 140.616Z" fill="#3F3D56"/>
<path d="M85.3412 140.686L84.6437 142.195L84.6379 142.965L84.5739 150.587L82.8998 150.475V142.095L83.793 140.686H85.3412Z" fill="#3F3D56"/>
<path d="M83.0432 140.788C82.64 140.921 82.207 140.937 81.7953 140.832C81.7155 140.816 81.6406 140.782 81.5764 140.732C81.5087 140.656 81.462 140.563 81.4407 140.464C81.3679 140.258 81.328 140.043 81.3225 139.825C81.3184 139.714 81.3402 139.605 81.3863 139.504C81.4324 139.403 81.5015 139.315 81.588 139.246C81.6245 139.224 81.6589 139.199 81.6907 139.171C81.7275 139.123 81.7539 139.069 81.7682 139.01C81.8903 138.65 82.1267 138.265 82.5064 138.208C82.8862 138.15 83.1749 138.401 83.4443 138.626L84.0256 139.128C84.0909 138.952 84.2084 138.799 84.3627 138.69C84.5169 138.582 84.7006 138.522 84.8895 138.519C85.0785 138.517 85.2637 138.572 85.4208 138.676C85.5779 138.781 85.6995 138.93 85.7695 139.105C86.1277 138.703 86.5795 138.394 87.0852 138.206C87.1384 138.178 87.1971 138.162 87.2571 138.16C87.3171 138.158 87.3768 138.169 87.432 138.192C87.4949 138.238 87.5428 138.302 87.5696 138.375C87.7305 138.727 87.8175 139.107 87.8254 139.493C87.8668 139.478 87.9121 139.478 87.9536 139.493C87.9952 139.507 88.0306 139.535 88.054 139.572C88.0995 139.646 88.1255 139.73 88.1296 139.817C88.1451 139.952 88.1529 140.088 88.1528 140.224C88.1661 140.368 88.1284 140.511 88.0463 140.63C87.976 140.69 87.894 140.735 87.8052 140.763C87.7165 140.79 87.6231 140.799 87.5308 140.788C87.5492 140.811 87.5626 140.837 87.57 140.865C87.5773 140.894 87.5786 140.923 87.5736 140.952C87.5687 140.981 87.5577 141.008 87.5413 141.033C87.5249 141.057 87.5035 141.078 87.4785 141.093C87.3727 141.151 87.2515 141.174 87.1317 141.16C86.6725 141.16 86.1822 141.143 85.7986 140.888C85.6474 140.788 85.5215 140.655 85.3703 140.554C84.9983 140.309 84.5313 140.298 84.1012 140.317C83.7214 140.344 83.4133 140.664 83.0432 140.788Z" fill="#3F3D56"/>
<path d="M82.9599 140.688C82.9599 140.688 79.1194 141.22 78.5826 143.534L79.3868 143.415L79.9526 144.424C79.9526 144.424 80.5474 142.17 82.3049 141.635C84.0624 141.101 84.6863 141.014 84.6863 141.014C84.6863 141.014 85.9071 141.309 87.0116 144.839L87.6374 143.978L88.738 144.216C88.738 144.216 87.9339 141.458 85.7617 140.688H82.9599Z" fill="#3F3D56"/>
<path d="M92.1638 149.512C92.1638 149.888 90.6621 149.467 90.1234 149.788C89.7824 149.981 89.9723 151.438 89.4569 151.608C89.05 151.741 88.521 151.781 88.023 151.89C87.5889 151.984 87.0541 151.801 86.5658 151.872C86.1182 151.938 85.6125 151.668 85.1261 151.712C84.6708 151.752 84.1902 151.326 83.7058 151.339C83.2214 151.353 82.8029 151.363 82.3223 151.363C81.8418 151.363 81.3651 152.135 80.9059 152.115C80.4466 152.096 80.0359 151.054 79.5824 151.013C79.0941 150.969 78.5148 152.009 78.0691 151.945C77.5769 151.874 77.1293 151.642 76.6953 151.55C76.1973 151.442 76.019 150.454 75.6121 150.32C75.0967 150.152 74.0213 151.394 73.6745 151.191C73.1358 150.87 73.0331 149.888 73.0331 149.512C73.0331 149.135 73.5524 148.85 74.093 148.527C74.4321 148.334 75.0618 148.769 75.5734 148.601C75.9803 148.466 76.3388 148.259 76.8387 148.151C77.2708 148.056 77.544 146.956 78.0342 146.885C78.4818 146.821 79.0302 147.408 79.5166 147.364C79.9719 147.323 80.4544 147.808 80.9369 147.788C81.4194 147.769 81.836 146.962 82.3165 146.962C82.7971 146.962 83.264 147.091 83.7252 147.113C84.1864 147.134 84.601 147.975 85.0564 148.018C85.5427 148.06 86.1008 147.174 86.5465 147.246C87.0386 147.317 87.4979 147.439 87.93 147.535C88.4299 147.643 88.6643 148.439 89.0732 148.572C89.5867 148.74 90.2823 148.197 90.6233 148.4C91.1678 148.713 92.1638 149.135 92.1638 149.512Z" fill="#EDEDF4"/>
<path d="M102.821 147.968C102.821 148.344 101.319 147.923 100.781 148.244C100.44 148.437 100.63 149.894 100.114 150.064C99.7072 150.197 99.1782 150.237 98.6802 150.346C98.2462 150.44 97.7114 150.257 97.2231 150.328C96.7755 150.394 96.2697 150.124 95.7834 150.168C95.328 150.208 94.8475 149.782 94.3631 149.795C93.8786 149.809 93.4601 149.819 92.9795 149.819C92.499 149.819 92.0223 150.591 91.5631 150.571C91.1039 150.552 90.6931 149.51 90.2397 149.469C89.7514 149.425 89.172 150.465 88.7263 150.401C88.2342 150.33 87.7866 150.098 87.3525 150.006C86.8545 149.898 86.6763 148.91 86.2694 148.776C85.7539 148.608 84.6785 149.849 84.3317 149.647C83.793 149.326 83.6903 148.344 83.6903 147.968C83.6903 147.591 84.2096 147.306 84.7502 146.983C85.0893 146.79 85.7191 147.225 86.2306 147.057C86.6375 146.922 86.996 146.715 87.4959 146.607C87.928 146.512 88.2012 145.412 88.6915 145.341C89.1391 145.277 89.6874 145.864 90.1738 145.82C90.6291 145.779 91.1116 146.263 91.5941 146.244C92.0766 146.225 92.4932 145.418 92.9737 145.418C93.4543 145.418 93.9213 145.547 94.3824 145.569C94.8436 145.59 95.2583 146.431 95.7136 146.474C96.2 146.516 96.758 145.63 97.2037 145.702C97.6959 145.773 98.1551 145.895 98.5872 145.991C99.0871 146.099 99.3216 146.895 99.7304 147.028C100.244 147.196 100.94 146.653 101.281 146.856C101.825 147.169 102.821 147.591 102.821 147.968Z" fill="#EDEDF4"/>
<path d="M125.364 150.863C125.364 151.309 122.806 150.93 122.529 151.345C122.297 151.691 123.705 153.484 123.304 153.8C122.971 154.063 122.388 154.252 121.948 154.489C121.56 154.696 120.911 154.514 120.458 154.698C120.049 154.864 119.435 154.522 118.972 154.669C118.547 154.804 117.935 154.196 117.47 154.312C117.005 154.428 116.631 154.505 116.164 154.592C115.697 154.678 115.499 156.002 115.03 156.072C114.561 156.141 113.936 154.568 113.465 154.621C112.994 154.673 112.73 156.481 112.259 156.514C111.789 156.547 111.32 156.321 110.851 156.344C110.382 156.367 109.925 154.898 109.456 154.898C108.987 154.898 108.487 157.436 108.024 157.421C107.561 157.406 107.113 156.487 106.658 156.456C106.202 156.425 105.759 155.966 105.301 155.916C104.844 155.865 104.526 154.758 104.084 154.69C103.643 154.622 103.178 154.725 102.728 154.638C102.278 154.551 101.449 156.084 101.013 155.973C100.577 155.863 100.38 154.725 99.9533 154.59C99.4921 154.445 99.3991 153.524 98.9844 153.358C98.5291 153.165 97.6164 154.169 97.2405 153.962C96.8006 153.725 96.5197 153.316 96.1864 153.053C95.7814 152.737 96.5875 151.702 96.3569 151.355C96.0779 150.94 94.6401 151.311 94.6401 150.865C94.6751 150.391 94.8481 149.939 95.1381 149.562C95.3706 149.216 96.4054 149.78 96.8103 149.463C97.1436 149.203 96.7735 147.952 97.2153 147.715C97.6028 147.508 97.535 146.096 97.9904 145.912C98.3992 145.746 99.0832 145.993 99.5405 145.847C99.9668 145.711 100.469 145.561 100.934 145.445C101.399 145.329 101.827 144.994 102.29 144.903C102.753 144.812 103.441 146.028 103.91 145.959C104.379 145.889 104.664 144.451 105.135 144.401C105.605 144.351 106.226 146.113 106.694 146.08C107.163 146.047 107.621 146.746 108.09 146.731C108.558 146.715 108.969 145.482 109.446 145.482C109.923 145.482 110.374 145.621 110.831 145.636C111.289 145.652 111.837 144.561 112.292 144.594C112.748 144.627 113.141 145.771 113.595 145.82C114.048 145.868 114.579 145.544 115.026 145.609C115.474 145.675 115.726 146.972 116.17 147.059C116.613 147.146 117.094 147.03 117.526 147.138C117.993 147.256 118.518 146.974 118.944 147.107C119.406 147.254 119.611 147.904 120.02 148.072C120.475 148.265 121.444 147.236 121.826 147.443C122.27 147.652 122.697 147.895 123.105 148.168C123.51 148.485 124.267 148.718 124.504 149.066C124.789 149.477 125.364 150.413 125.364 150.863Z" fill="#EDEDF4"/>
<path d="M154.394 130.327V139.244L152.026 144L151.953 144.15L145.688 143.739L143.278 143.579L137.69 143.212V132.547L143.278 132.703L145.779 132.773L152.102 132.952L154.394 130.327Z" fill="#FF6F61"/>
<path opacity="0.1" d="M154.394 130.854V139.244L153.815 140.406L153.222 141.597L152.026 144L152.16 135.083L152.187 133.284L153.325 132.031L153.821 131.485L154.394 130.854Z" fill="black"/>
<path d="M154.716 127.959V131.074L154.394 131.584L153.821 132.495L153.311 133.301L152.187 135.085L152.16 135.083L137.197 134.317V131.244L137.234 131.203L139.021 129.277L139.668 128.581L140.838 127.32L154.716 127.959Z" fill="#FF6F61"/>
<path opacity="0.1" d="M152.187 132.012V135.085L137.197 134.317V131.244L137.234 131.203L152.187 132.012Z" fill="black"/>
<path opacity="0.15" d="M154.716 127.959V131.074L152.187 135.085V132.012L154.716 127.959Z" fill="black"/>
<path d="M153.821 129.393V131.485V132.495L153.815 140.406L153.222 141.597L153.311 133.301L153.325 132.031L153.344 130.157L139.021 129.277L139.668 128.581L153.821 129.393Z" fill="#3F3D56"/>
<path d="M146.791 129.495L145.787 131.667L145.779 132.773L145.688 143.739L143.278 143.579V131.522L144.565 129.495H146.791Z" fill="#3F3D56"/>
<path d="M143.485 129.642C142.906 129.835 142.283 129.857 141.691 129.706C141.576 129.682 141.467 129.632 141.375 129.559C141.277 129.45 141.21 129.317 141.181 129.173C141.076 128.877 141.018 128.566 141.009 128.252C141.006 128.095 141.04 127.94 141.107 127.797C141.174 127.655 141.273 127.53 141.396 127.432C141.449 127.401 141.498 127.364 141.544 127.322C141.597 127.255 141.635 127.177 141.656 127.094C141.83 126.573 142.171 126.023 142.718 125.936C143.22 125.859 143.687 126.21 144.074 126.539L144.925 127.26C145.02 127.008 145.189 126.79 145.411 126.635C145.632 126.48 145.896 126.395 146.166 126.391C146.437 126.388 146.703 126.466 146.928 126.615C147.154 126.764 147.329 126.978 147.43 127.228C147.946 126.648 148.597 126.204 149.325 125.933C149.401 125.893 149.485 125.871 149.571 125.868C149.657 125.864 149.742 125.88 149.821 125.913C149.911 125.98 149.979 126.072 150.015 126.178C150.246 126.683 150.371 127.23 150.383 127.785C150.443 127.765 150.508 127.765 150.567 127.785C150.627 127.806 150.678 127.845 150.713 127.897C150.777 128.005 150.815 128.127 150.821 128.252C150.845 128.445 150.856 128.638 150.854 128.831C150.873 129.036 150.819 129.241 150.701 129.41C150.527 129.603 150.226 129.634 149.961 129.64C149.987 129.673 150.006 129.711 150.017 129.752C150.027 129.793 150.028 129.835 150.021 129.877C150.014 129.918 149.998 129.957 149.974 129.992C149.95 130.027 149.919 130.056 149.883 130.078C149.731 130.16 149.557 130.194 149.385 130.175C148.723 130.175 148.019 130.15 147.467 129.789C147.25 129.644 147.068 129.453 146.849 129.308C146.316 128.957 145.644 128.94 145.026 128.968C144.462 129.003 144.018 129.464 143.485 129.642Z" fill="#3F3D56"/>
<path d="M143.359 129.495C143.359 129.495 137.833 130.267 137.062 133.591L138.224 133.421L139.038 134.872C139.038 134.872 139.895 131.63 142.421 130.862C144.948 130.094 145.849 129.966 145.849 129.966C145.849 129.966 147.605 130.393 149.19 135.469L150.089 134.232L151.674 134.573C151.674 134.573 150.511 130.605 147.392 129.495H143.359Z" fill="#3F3D56"/>
<path d="M146.673 133.815V145.86L143.476 152.283L143.375 152.486L134.911 151.93L131.658 151.716L124.108 151.218V136.812L131.658 137.023L135.035 137.119L143.578 137.358L146.673 133.815Z" fill="currentColor"/>
<path opacity="0.1" d="M146.673 134.525V145.86L145.892 147.429L145.092 149.037V149.039L143.476 152.283L143.656 140.238L143.693 137.808L145.229 136.117V136.115L145.898 135.378L146.673 134.525Z" fill="black"/>
<path d="M147.107 130.617V134.822L146.673 135.511L145.898 136.743L145.21 137.831L143.693 140.24L143.656 140.238L123.442 139.203V135.054L123.494 134.998L125.907 132.396L126.781 131.454L128.36 129.752L147.107 130.617Z" fill="currentColor"/>
<path opacity="0.1" d="M143.693 136.09V140.24L123.442 139.203V135.054L123.494 134.998L143.693 136.09Z" fill="black"/>
<path opacity="0.15" d="M147.107 130.617V134.822L143.693 140.24V136.09L147.107 130.617Z" fill="black"/>
<path d="M145.9 132.553L145.898 135.378V136.743L145.892 147.429L145.092 149.037L145.21 137.831L145.229 136.117V136.115L145.256 133.585L125.907 132.396L126.78 131.454L145.9 132.553Z" fill="#3F3D56"/>
<path d="M136.403 132.69L135.047 135.623L135.035 137.119L134.911 151.93L131.658 151.716V135.428L133.394 132.69H136.403Z" fill="#3F3D56"/>
<path d="M131.939 132.888C131.155 133.148 130.313 133.177 129.513 132.973C129.357 132.944 129.212 132.878 129.088 132.78C128.955 132.634 128.864 132.455 128.825 132.261C128.683 131.861 128.605 131.442 128.592 131.018C128.588 130.806 128.632 130.596 128.722 130.403C128.812 130.211 128.946 130.042 129.112 129.908C129.181 129.867 129.246 129.817 129.305 129.762C129.377 129.67 129.428 129.565 129.456 129.453C129.695 128.748 130.154 128.005 130.89 127.893C131.57 127.789 132.19 128.262 132.714 128.706L133.863 129.671C133.99 129.329 134.219 129.034 134.518 128.824C134.817 128.614 135.173 128.499 135.539 128.494C135.905 128.489 136.264 128.594 136.569 128.796C136.874 128.998 137.111 129.287 137.248 129.625C137.945 128.843 138.823 128.243 139.806 127.876C140.023 127.795 140.278 127.729 140.478 127.851C140.601 127.94 140.694 128.065 140.745 128.208C141.058 128.891 141.227 129.629 141.243 130.379C141.324 130.353 141.411 130.354 141.491 130.381C141.571 130.409 141.64 130.462 141.687 130.532C141.776 130.676 141.827 130.841 141.834 131.01C141.865 131.272 141.881 131.536 141.881 131.8C141.907 132.079 141.834 132.359 141.673 132.589C141.437 132.861 141.032 132.89 140.672 132.898C140.846 133.052 140.761 133.361 140.569 133.491C140.363 133.601 140.129 133.646 139.897 133.62C139.001 133.62 138.05 133.587 137.306 133.091C137.011 132.898 136.765 132.636 136.471 132.443C135.748 131.966 134.841 131.943 134.006 131.983C133.256 132.024 132.656 132.657 131.939 132.888Z" fill="#3F3D56"/>
<path d="M131.774 132.691C131.774 132.691 124.31 133.728 123.269 138.223L124.831 137.993L125.93 139.952C125.93 139.952 127.092 135.573 130.501 134.535C133.909 133.496 135.13 133.325 135.13 133.325C135.13 133.325 137.502 133.904 139.643 140.759L140.858 139.088L142.989 139.549C142.989 139.549 141.427 134.189 137.203 132.691H131.774Z" fill="#3F3D56"/>
<path d="M158.785 139.798V147.252L156.807 151.228L156.745 151.355L151.507 151.009L149.492 150.876L144.82 150.569V141.653L149.492 141.784L151.583 141.842L156.871 141.99L158.785 139.798Z" fill="#3F3D56"/>
<path opacity="0.1" d="M158.785 140.238V147.252L158.303 148.224L157.807 149.218V149.22L156.807 151.228L156.919 143.774L156.942 142.27L157.892 141.222L158.307 140.765L158.785 140.238Z" fill="black"/>
<path d="M159.054 137.818V140.421L158.785 140.848L158.307 141.61L157.88 142.284L156.942 143.774H156.919L144.408 143.133V140.564L144.439 140.531L145.933 138.92L146.473 138.337L147.452 137.283L159.054 137.818Z" fill="#3F3D56"/>
<path opacity="0.1" d="M156.942 141.207V143.774L144.408 143.133V140.564L144.439 140.531L156.942 141.207Z" fill="black"/>
<path opacity="0.15" d="M159.055 137.818V140.421L156.943 143.774V141.207L159.055 137.818Z" fill="black"/>
<path d="M158.308 139.016L158.307 140.765V141.61L158.303 148.224L157.807 149.218L157.88 142.284L157.892 141.222L157.909 139.655L145.932 138.92L146.473 138.337L158.308 139.016Z" fill="currentColor"/>
<path d="M152.43 139.101L151.591 140.917L151.583 141.842L151.507 151.009L149.492 150.876V140.796L150.567 139.101H152.43Z" fill="currentColor"/>
<path d="M149.666 139.219C149.181 139.38 148.66 139.398 148.165 139.271C148.068 139.252 147.978 139.21 147.901 139.149C147.819 139.058 147.763 138.947 147.738 138.827C147.651 138.579 147.603 138.318 147.595 138.055C147.592 137.924 147.62 137.793 147.675 137.674C147.731 137.555 147.814 137.45 147.917 137.368C147.96 137.342 148.001 137.311 148.039 137.277C148.083 137.22 148.116 137.154 148.134 137.084C148.279 136.648 148.564 136.189 149.021 136.119C149.442 136.056 149.823 136.349 150.149 136.623L150.86 137.227C150.939 137.016 151.08 136.833 151.266 136.703C151.451 136.573 151.671 136.502 151.897 136.499C152.124 136.496 152.346 136.561 152.534 136.686C152.723 136.811 152.87 136.989 152.955 137.198C153.386 136.714 153.929 136.342 154.538 136.115C154.602 136.082 154.672 136.063 154.744 136.061C154.816 136.058 154.888 136.071 154.954 136.1C155.03 136.156 155.087 136.233 155.119 136.322C155.314 136.746 155.42 137.206 155.429 137.673C155.479 137.656 155.533 137.656 155.582 137.673C155.632 137.69 155.674 137.723 155.702 137.768C155.757 137.857 155.789 137.958 155.793 138.063C155.813 138.225 155.822 138.388 155.822 138.551C155.839 138.724 155.794 138.897 155.694 139.039C155.549 139.209 155.307 139.232 155.074 139.232C155.096 139.26 155.112 139.292 155.121 139.326C155.13 139.36 155.131 139.395 155.125 139.43C155.119 139.465 155.106 139.498 155.086 139.527C155.066 139.556 155.04 139.581 155.01 139.599C154.883 139.666 154.738 139.694 154.594 139.678C154.04 139.678 153.451 139.659 152.989 139.352C152.809 139.23 152.656 139.07 152.474 138.951C152.026 138.655 151.466 138.642 150.949 138.665C150.482 138.69 150.11 139.076 149.666 139.219Z" fill="currentColor"/>
<path d="M149.56 139.101C149.56 139.101 144.94 139.744 144.297 142.527L145.266 142.384L145.946 143.596C145.946 143.596 146.663 140.894 148.775 140.244C150.887 139.593 151.639 139.495 151.639 139.495C151.639 139.495 153.108 139.852 154.433 144.096L155.185 143.062L156.51 143.347C156.51 143.347 155.541 140.029 152.929 139.101H149.56Z" fill="currentColor"/>
<path d="M134.599 150.863C134.599 151.239 133.097 150.818 132.559 151.139C132.218 151.332 132.407 152.789 131.892 152.959C131.485 153.092 130.956 153.132 130.458 153.241C130.024 153.335 129.489 153.152 129.001 153.223C128.553 153.289 128.048 153.019 127.561 153.063C127.106 153.104 126.625 152.677 126.141 152.69C125.657 152.704 125.238 152.714 124.758 152.714C124.277 152.714 123.8 153.486 123.341 153.466C122.882 153.447 122.471 152.405 122.018 152.364C121.529 152.32 120.95 153.36 120.504 153.297C120.012 153.225 119.565 152.994 119.13 152.901C118.632 152.793 118.454 151.805 118.047 151.671C117.532 151.504 116.456 152.745 116.11 152.542C115.571 152.221 115.468 151.239 115.468 150.863C115.468 150.486 115.988 150.201 116.528 149.878C116.867 149.685 117.497 150.12 118.009 149.952C118.415 149.817 118.774 149.61 119.274 149.502C119.706 149.407 119.979 148.307 120.469 148.236C120.917 148.172 121.465 148.759 121.952 148.715C122.407 148.674 122.89 149.159 123.372 149.139C123.855 149.12 124.271 148.313 124.752 148.313C125.232 148.313 125.699 148.442 126.16 148.464C126.622 148.485 127.036 149.326 127.492 149.369C127.978 149.411 128.536 148.525 128.982 148.597C129.474 148.668 129.933 148.79 130.365 148.886C130.865 148.994 131.1 149.79 131.508 149.923C132.022 150.091 132.717 149.548 133.059 149.751C133.603 150.064 134.599 150.486 134.599 150.863Z" fill="#EDEDF4"/>
<path d="M147 150.863C147 151.239 145.499 150.818 144.96 151.139C144.619 151.332 144.809 152.789 144.293 152.959C143.886 153.092 143.357 153.132 142.859 153.241C142.425 153.335 141.891 153.152 141.402 153.223C140.955 153.289 140.449 153.019 139.963 153.063C139.507 153.104 139.027 152.677 138.542 152.69C138.058 152.704 137.639 152.714 137.159 152.714C136.678 152.714 136.202 153.486 135.742 153.466C135.283 153.447 134.872 152.405 134.419 152.364C133.931 152.32 133.351 153.36 132.906 153.297C132.413 153.225 131.966 152.994 131.532 152.901C131.034 152.793 130.855 151.805 130.449 151.671C129.933 151.504 128.858 152.745 128.511 152.542C127.972 152.221 127.87 151.239 127.87 150.863C127.87 150.486 128.389 150.201 128.929 149.878C129.269 149.685 129.898 150.12 130.41 149.952C130.817 149.817 131.175 149.61 131.675 149.502C132.107 149.407 132.38 148.307 132.871 148.236C133.318 148.172 133.867 148.759 134.353 148.715C134.808 148.674 135.291 149.159 135.773 149.139C136.256 149.12 136.672 148.313 137.153 148.313C137.633 148.313 138.1 148.442 138.562 148.464C139.023 148.485 139.437 149.326 139.893 149.369C140.379 149.411 140.937 148.525 141.383 148.597C141.875 148.668 142.334 148.79 142.766 148.886C143.266 148.994 143.501 149.79 143.91 149.923C144.423 150.091 145.119 149.548 145.46 149.751C146.004 150.064 147 150.486 147 150.863Z" fill="#EDEDF4"/>
<path d="M161.533 149.512C161.533 149.888 160.031 149.467 159.492 149.788C159.151 149.981 159.341 151.438 158.826 151.608C158.419 151.741 157.89 151.781 157.392 151.89C156.958 151.984 156.423 151.801 155.935 151.872C155.487 151.938 154.982 151.668 154.495 151.712C154.04 151.752 153.559 151.326 153.075 151.339C152.59 151.353 152.172 151.363 151.691 151.363C151.211 151.363 150.734 152.135 150.275 152.115C149.816 152.096 149.405 151.054 148.951 151.013C148.463 150.969 147.884 152.009 147.438 151.945C146.946 151.874 146.498 151.642 146.064 151.55C145.566 151.442 145.388 150.454 144.981 150.32C144.466 150.152 143.39 151.394 143.043 151.191C142.505 150.87 142.402 149.888 142.402 149.512C142.402 149.135 142.921 148.85 143.462 148.527C143.801 148.334 144.431 148.769 144.942 148.601C145.349 148.466 145.708 148.259 146.208 148.151C146.64 148.056 146.913 146.956 147.403 146.885C147.851 146.821 148.399 147.408 148.886 147.364C149.341 147.323 149.823 147.808 150.306 147.788C150.788 147.769 151.205 146.962 151.686 146.962C152.166 146.962 152.633 147.091 153.094 147.113C153.555 147.134 153.97 147.975 154.425 148.018C154.912 148.06 155.47 147.174 155.915 147.246C156.408 147.317 156.867 147.439 157.299 147.535C157.799 147.643 158.033 148.439 158.442 148.572C158.956 148.74 159.651 148.197 159.992 148.4C160.537 148.713 161.533 149.135 161.533 149.512Z" fill="#EDEDF4"/>
</g>
<defs>
<clipPath id="clip0">
<rect width="222" height="158" fill="white"/>
</clipPath>
</defs>
</svg>
