<svg width="292" height="169" viewBox="0 0 292 169" fill="none" xmlns="http://www.w3.org/2000/svg">
<path d="M292 121.759H218.619V122.369H292V121.759Z" fill="#3F3D56"/>
<path d="M234.984 116.283L237.115 127.559L241.682 128.779L240.464 115.368L234.984 116.283Z" fill="#A0616A"/>
<path d="M260.56 116.283L262.692 127.559L267.259 128.779L266.041 115.368L260.56 116.283Z" fill="#A0616A"/>
<path d="M239.855 125.426C239.855 125.426 234.984 125.121 234.984 126.645C234.984 128.169 232.548 133.35 232.548 133.35C232.548 133.35 230.721 139.446 235.593 138.837C240.464 138.227 243.509 132.741 243.509 132.741L242.291 126.95L239.855 125.426Z" fill="#2F2E41"/>
<path d="M264.256 125.988C264.256 125.988 261.007 123.897 261.239 125.291C261.471 126.685 261.703 130.403 263.328 130.635C264.953 130.867 269.827 132.261 270.059 132.726C270.291 133.191 275.862 135.05 275.862 132.029C275.862 129.009 272.38 126.685 272.38 126.685L268.434 123.665C268.434 123.665 265.881 123.432 265.417 125.059C264.953 126.685 264.256 125.988 264.256 125.988Z" fill="#2F2E41"/>
<path d="M233.387 52.1172C233.387 52.1172 228.211 44.4977 226.384 46.936C224.557 49.3742 230.951 53.9459 230.951 53.9459L233.387 52.1172Z" fill="#A0616A"/>
<path d="M235.214 59.4319C234.909 59.1272 229.429 53.9459 229.429 53.9459L233.387 51.2029L237.954 55.7746L235.214 59.4319Z" fill="#575A89"/>
<path d="M235.975 35.8116C235.975 35.8116 232.017 36.1163 232.321 39.4689C232.626 42.8215 235.214 53.9459 235.214 53.9459L236.736 56.9937C236.736 56.9937 242.369 39.4689 235.975 35.8116Z" fill="#575A89"/>
<path d="M236.279 25.1443L237.376 28.8016H251.108L251.504 24.8395L252.691 28.8016H254.457L254.853 24.8395L256.04 28.8016H257.898L256.151 24.5905C255.34 22.5774 254.724 20.4911 254.31 18.3601C253.766 15.7141 252.326 13.337 250.233 11.6302C248.141 9.92336 245.525 8.99119 242.826 8.99098V8.99098C242.664 8.99098 242.503 8.99424 242.343 9.00077C234.646 9.31314 229.716 17.3811 232.67 24.5026L234.452 28.8016H235.914L236.279 25.1443Z" fill="#2F2E41"/>
<path d="M236.127 56.9937C236.127 56.9937 226.688 64.9179 229.428 75.5852C232.169 86.2525 233.082 119.778 233.082 119.778L242.521 118.864V76.8043L255.614 101.796L257.745 119.778L268.402 117.95L263.531 96.0054L254.162 68.0334L253.178 59.9635L236.127 56.9937Z" fill="#2F2E41"/>
<path d="M242.674 25.4491C246.205 25.4491 249.068 22.5835 249.068 19.0487C249.068 15.5139 246.205 12.6483 242.674 12.6483C239.142 12.6483 236.28 15.5139 236.28 19.0487C236.28 22.5835 239.142 25.4491 242.674 25.4491Z" fill="#A0616A"/>
<path d="M238.868 23.468C238.868 23.468 241.608 33.5257 240.086 34.7448C238.563 35.9639 250.743 30.7827 250.743 30.7827C250.743 30.7827 245.566 24.9919 246.175 22.5536L238.868 23.468Z" fill="#A0616A"/>
<path d="M250.133 28.6492C250.133 28.6492 245.258 32.8467 240.54 33.1862C240.54 33.1862 234.3 36.5735 234.605 36.8783C234.909 37.183 235.823 41.4499 235.823 41.4499C235.823 41.4499 237.345 43.8032 237.345 48.7646C237.345 49.3742 235.214 57.908 235.214 57.908L253.178 60.3462C253.178 60.3462 258.05 44.4977 258.355 39.0117C258.659 33.5257 260.486 27.7349 257.746 27.4301C255.005 27.1253 250.133 28.6492 250.133 28.6492Z" fill="#575A89"/>
<path d="M257.137 28.6492C257.137 28.6492 259.268 26.8206 260.486 31.0875C261.704 35.3544 266.575 48.7647 265.358 51.5077C264.14 54.2507 256.832 66.4418 256.832 66.4418L253.178 64.0036L260.486 50.2886L256.223 40.5356L257.137 28.6492Z" fill="#575A89"/>
<path d="M254.701 63.6988C254.701 63.6988 245.262 69.4896 248.307 70.7087C251.351 71.9279 256.528 65.5275 256.528 65.5275L254.701 63.6988Z" fill="#A0616A"/>
<path d="M235.67 11.734V18.1344H238.106L239.02 15.3913L239.248 18.1344H246.023L246.936 15.3913L247.165 18.1344H249.981V11.734H235.67Z" fill="#2F2E41"/>
<path opacity="0.2" d="M235.671 41.9071C235.671 41.9071 235.062 48.0027 235.975 49.2218C236.888 50.4409 235.671 41.9071 235.671 41.9071Z" fill="black"/>
<path d="M182.995 148.275H53.8936V148.885H182.995V148.275Z" fill="#3F3D56"/>
<path d="M175.142 101.982L137.685 139.476C131.958 145.208 124.192 148.427 116.094 148.427C107.996 148.427 100.229 145.208 94.5028 139.476C93.9973 138.97 93.5101 138.449 93.0473 137.913C92.2847 137.041 91.574 136.125 90.919 135.17C88.5165 131.691 86.8732 127.745 86.096 123.588C85.9224 122.683 85.7915 121.768 85.7032 120.845C85.6088 119.86 85.5611 118.867 85.5601 117.864C85.5574 115.06 85.9385 112.269 86.6928 109.568C86.9516 108.639 87.255 107.724 87.6032 106.825C89.1409 102.858 91.4911 99.2561 94.5028 96.2523L110.844 79.8948C111.701 79.0376 112.862 78.556 114.073 78.556C115.285 78.556 116.446 79.0376 117.303 79.8948C118.159 80.752 118.64 81.9147 118.64 83.127C118.64 84.3393 118.159 85.5019 117.303 86.3592L100.961 102.717C99.7261 103.951 98.6454 105.33 97.7425 106.825C95.7373 110.157 94.6831 113.975 94.6946 117.864C94.6949 118.861 94.7631 119.857 94.8986 120.845C95.0258 121.771 95.215 122.687 95.465 123.588C96.4626 127.198 98.3889 130.484 101.052 133.116C103.714 135.749 107.02 137.636 110.639 138.59C114.259 139.543 118.064 139.53 121.677 138.551C125.289 137.573 128.582 135.662 131.227 133.012L140.641 123.588L157.388 106.825L168.684 95.5178C172.236 91.9527 174.422 87.2509 174.86 82.2353C175.298 77.2196 173.96 72.2095 171.08 68.0816C170.402 67.0865 170.144 65.8638 170.361 64.6791C170.578 63.4944 171.254 62.4434 172.241 61.7542C173.228 61.065 174.446 60.7933 175.632 60.9982C176.818 61.2031 177.875 61.868 178.574 62.8485C182.677 68.7387 184.582 75.8853 183.955 83.0388C183.328 90.1923 180.208 96.8975 175.142 101.982V101.982Z" fill="#3F3D56"/>
<path d="M233.844 30.5632C233.844 30.7888 233.841 31.0143 233.835 31.2399C233.756 35.2295 232.894 39.1648 231.298 42.8215C230.889 43.759 230.432 44.6745 229.928 45.5645C228.56 47.9862 226.869 50.2102 224.901 52.1751L208.559 68.5326C207.703 69.3878 206.542 69.8677 205.332 69.8668C204.122 69.866 202.961 69.3845 202.106 68.528C201.25 67.6716 200.769 66.5103 200.768 65.2991C200.767 64.0879 201.247 62.9259 202.101 62.0683L218.443 45.7108C218.492 45.662 218.54 45.6132 218.586 45.5645C222.357 41.7333 224.54 36.6158 224.697 31.2399C224.706 31.0143 224.709 30.7888 224.709 30.5632C224.709 29.8683 224.677 29.1795 224.612 28.4968C224.135 23.5519 221.954 18.9271 218.443 15.4157C218.117 15.0896 217.785 14.7757 217.441 14.477C213.535 11.0394 208.511 9.14337 203.31 9.14337C198.109 9.14337 193.085 11.0394 189.179 14.477C188.835 14.7757 188.503 15.0896 188.177 15.4157L150.72 52.9097C146.713 56.9305 144.462 62.3779 144.462 68.0572C144.462 73.7364 146.713 79.1838 150.72 83.2047C151.576 84.0619 152.057 85.2246 152.057 86.4369C152.057 87.6492 151.576 88.8118 150.72 89.669C149.863 90.5263 148.702 91.0079 147.491 91.0079C146.279 91.0079 145.118 90.5263 144.261 89.669C138.544 83.9327 135.333 76.1604 135.333 68.0572C135.333 59.954 138.544 52.1816 144.261 46.4453L181.719 8.95136C184.978 5.6962 188.929 3.21993 193.278 1.70745C197.627 0.194972 202.261 -0.314649 206.834 0.216632C211.407 0.747914 215.801 2.30637 219.688 4.77566C223.576 7.24495 226.855 10.5613 229.283 14.477C229.835 15.3637 230.341 16.2794 230.796 17.22C232.509 20.7505 233.52 24.5804 233.774 28.4968C233.819 29.1826 233.843 29.8714 233.844 30.5632Z" fill="#3F3D56"/>
<path d="M38.1566 160.517C36.7617 165.678 31.984 168.874 31.984 168.874C31.984 168.874 29.4678 163.703 30.8626 158.542C32.2575 153.38 37.0352 150.184 37.0352 150.184C37.0352 150.184 39.5514 155.355 38.1566 160.517Z" fill="currentColor"/>
<path d="M25.4671 160.517C26.862 165.678 31.6397 168.874 31.6397 168.874C31.6397 168.874 34.1559 163.703 32.7611 158.542C31.3662 153.38 26.5885 150.184 26.5885 150.184C26.5885 150.184 24.0723 155.355 25.4671 160.517Z" fill="currentColor"/>
<path d="M27.5169 159.407C31.3444 163.137 31.8119 168.87 31.8119 168.87C31.8119 168.87 26.0738 168.557 22.2462 164.827C18.4187 161.098 17.9512 155.364 17.9512 155.364C17.9512 155.364 23.6893 155.678 27.5169 159.407Z" fill="#3F3D56"/>
<path d="M36.1068 159.407C32.2793 163.137 31.8118 168.87 31.8118 168.87C31.8118 168.87 37.5499 168.557 41.3775 164.827C45.205 161.098 45.6725 155.364 45.6725 155.364C45.6725 155.364 39.9344 155.678 36.1068 159.407Z" fill="#3F3D56"/>
<path d="M207.963 30.0207C207.962 30.4302 207.922 30.8385 207.841 31.2399C207.56 32.6166 206.812 33.8538 205.725 34.7424C204.637 35.631 203.277 36.1163 201.873 36.1163C200.469 36.1163 199.108 35.631 198.021 34.7424C196.933 33.8538 196.186 32.6166 195.905 31.2399C195.722 30.3319 195.746 29.3942 195.975 28.4969C196.344 27.0589 197.225 25.8054 198.452 24.9715C199.68 24.1376 201.169 23.7807 202.64 23.9677C204.112 24.1548 205.464 24.8729 206.444 25.9874C207.424 27.1019 207.964 28.5361 207.963 30.0207V30.0207Z" fill="#3F3D56"/>
<path d="M118.14 122.369C118.14 122.778 118.099 123.187 118.018 123.588C117.737 124.965 116.99 126.202 115.902 127.09C114.815 127.979 113.454 128.464 112.05 128.464C110.646 128.464 109.286 127.979 108.198 127.09C107.111 126.202 106.363 124.965 106.082 123.588C105.899 122.68 105.923 121.742 106.152 120.845C106.522 119.407 107.403 118.153 108.63 117.32C109.857 116.486 111.346 116.129 112.817 116.316C114.289 116.503 115.641 117.221 116.621 118.335C117.601 119.45 118.141 120.884 118.14 122.369V122.369Z" fill="#3F3D56"/>
<path d="M70.3358 168.39H0V169H70.3358V168.39Z" fill="#3F3D56"/>
<path d="M176.199 14.477H189.179C188.835 14.7757 188.503 15.0896 188.177 15.4157L186.374 17.22H173.458L176.199 14.477Z" fill="currentColor"/>
<path d="M230.796 17.22H220.054C219.551 16.5886 219.013 15.9862 218.443 15.4157C218.117 15.0896 217.785 14.7757 217.441 14.477H229.283C229.835 15.3637 230.341 16.2794 230.796 17.22V17.22Z" fill="currentColor"/>
<path d="M162.193 28.4968H175.109L172.368 31.2399H159.452L162.193 28.4968Z" fill="currentColor"/>
<path d="M207.771 28.4968C208 29.3942 208.024 30.3319 207.841 31.2399H195.905C195.722 30.3319 195.746 29.3942 195.975 28.4968H207.771Z" fill="currentColor"/>
<path d="M233.844 30.5632C233.844 30.7888 233.84 31.0143 233.834 31.2399H224.697C224.706 31.0143 224.709 30.7888 224.709 30.5632C224.709 29.8683 224.677 29.1795 224.612 28.4968H233.773C233.819 29.1826 233.842 29.8714 233.844 30.5632Z" fill="currentColor"/>
<path d="M147.882 42.8215H160.798L158.058 45.5645H145.141L147.882 42.8215Z" fill="currentColor"/>
<path d="M231.298 42.8215C230.889 43.7589 230.432 44.6745 229.928 45.5645H218.586C219.422 44.716 220.185 43.7984 220.867 42.8215H231.298Z" fill="currentColor"/>
<path d="M97.7423 106.825C97.213 107.705 96.7479 108.621 96.3509 109.568H86.6926C86.9515 108.639 87.2549 107.724 87.603 106.825H97.7423Z" fill="currentColor"/>
<path d="M170.304 106.825L167.564 109.568H154.647L157.388 106.825H170.304Z" fill="currentColor"/>
<path d="M95.4649 123.588H86.0959C85.9224 122.683 85.7914 121.768 85.7031 120.845H94.8985C95.0257 121.771 95.2149 122.687 95.4649 123.588V123.588Z" fill="currentColor"/>
<path d="M118.14 122.369C118.14 122.778 118.099 123.187 118.018 123.588H106.082C105.899 122.68 105.923 121.742 106.152 120.845H117.948C118.075 121.343 118.14 121.855 118.14 122.369Z" fill="currentColor"/>
<path d="M156.298 120.845L153.557 123.588H140.641L143.381 120.845H156.298Z" fill="currentColor"/>
<path d="M108.53 137.913H93.0473C92.2847 137.041 91.574 136.125 90.9189 135.17H103.476C105.028 136.31 106.729 137.232 108.53 137.913V137.913Z" fill="currentColor"/>
<path d="M141.987 135.17L139.247 137.913H123.657C125.458 137.232 127.159 136.31 128.711 135.17H141.987Z" fill="currentColor"/>
<path d="M96.0934 51.7315C93.7655 47.7942 89.16 47.6108 89.16 47.6108C89.16 47.6108 84.6721 47.0363 81.7932 53.0328C79.1098 58.622 75.4064 64.0185 81.197 65.3268L82.2429 62.0682L82.8907 65.5694C83.7151 65.6288 84.5422 65.643 85.3683 65.6118C91.5695 65.4114 97.4753 65.6705 97.2851 63.443C97.0323 60.482 98.3333 55.5199 96.0934 51.7315Z" fill="#2F2E41"/>
<path d="M79.3181 138.674L79.6226 146.599H85.1033L84.7988 138.065L79.3181 138.674Z" fill="#FBBEBE"/>
<path d="M94.2377 82.5951L93.6836 84.439L86.5038 108.312L85.7122 110.94L86.3211 138.979L78.709 139.894C78.709 139.894 78.4868 136.949 78.161 132.603C77.5063 123.996 76.4345 109.882 75.8134 102.202C75.585 99.361 75.4206 97.4013 75.3597 96.9197C75.0552 94.4815 79.0135 82.2904 79.0135 82.2904L86.9301 81.6808L94.2377 82.5951Z" fill="#2F2E41"/>
<path d="M81.1449 145.684C81.1449 145.684 79.0135 143.246 78.709 145.075C78.4045 146.904 74.7507 153.913 74.7507 153.913C74.7507 153.913 64.0938 160.923 73.2283 161.533C73.2283 161.533 77.7955 160.923 79.318 158.485C79.318 158.485 81.7538 156.961 82.3628 156.961C82.9718 156.961 86.6256 155.742 86.0166 153.913C85.4076 152.085 85.7121 145.38 85.7121 145.38L81.1449 145.684Z" fill="#2F2E41"/>
<path d="M80.8406 131.36L83.5809 136.541L87.8437 134.408L85.1034 128.312L80.8406 131.36Z" fill="#FBBEBE"/>
<path opacity="0.2" d="M78.709 116.426C78.709 116.426 76.4376 111.458 75.8164 103.777C80.2253 98.846 85.5599 93.4148 85.5599 93.4148L91.9541 93.11L93.9332 92.9576C94.396 97.5903 90.4804 103.558 86.5038 108.312C84.0873 111.186 81.4833 113.896 78.709 116.426V116.426Z" fill="black"/>
<path d="M86.6257 93.2624C86.6257 93.2624 67.1388 110.33 69.8791 117.34C72.6195 124.35 80.2316 132.884 80.2316 132.884L86.1126 129.37L80.536 116.426C80.536 116.426 82.8739 114.35 85.7196 111.276C90.3504 106.272 96.326 98.6209 95.7602 92.9576L95.4558 82.5951L90.2795 83.2047L86.6257 93.2624Z" fill="#2F2E41"/>
<path d="M84.7988 135.322C84.7988 135.322 82.6674 135.322 82.9719 137.151C83.2764 138.979 83.8854 142.027 83.8854 142.027C83.8854 142.027 81.4495 156.352 87.2347 152.999C93.0199 149.647 91.4975 140.808 91.4975 140.808C91.4975 140.808 93.6288 135.322 90.8885 134.712C88.1481 134.103 87.2347 133.493 86.9302 133.798C86.6257 134.103 84.7988 135.322 84.7988 135.322Z" fill="#2F2E41"/>
<path d="M89.0615 60.651C92.0884 60.651 94.5422 58.1949 94.5422 55.165C94.5422 52.1352 92.0884 49.679 89.0615 49.679C86.0346 49.679 83.5808 52.1352 83.5808 55.165C83.5808 58.1949 86.0346 60.651 89.0615 60.651Z" fill="#FBBEBE"/>
<path d="M86.9301 57.2985C86.9301 57.2985 89.366 63.6988 88.4525 64.0036C87.5391 64.3084 85.7122 65.8323 85.7122 65.8323L88.757 68.5753L96.6736 64.3084C96.6736 64.3084 93.0198 59.4319 93.3243 57.2985H86.9301Z" fill="#FBBEBE"/>
<path d="M96.6736 63.0893C96.6736 63.0893 90.3023 66.2331 88.0072 64.204C88.0072 64.204 84.1897 64.0036 83.5807 66.1371C82.9718 68.2705 84.1897 70.0992 82.6673 70.7087C81.1449 71.3183 80.0792 72.9946 80.9926 75.7376C81.9061 78.4806 81.7538 78.9378 80.5359 79.8521C79.318 80.7665 78.1 82.5951 78.1 83.2047C78.1 83.8142 76.8821 83.8142 77.4911 84.4238C78.1 85.0334 76.8821 84.4238 78.1 85.0334C79.318 85.6429 82.6673 80.1569 85.1032 82.8999C87.539 85.6429 95.1511 90.2146 95.7601 87.4716C96.3691 84.7286 98.196 78.0234 98.196 78.0234C98.196 78.0234 104.59 66.1371 102.763 64.9179C100.936 63.6988 96.6736 63.0893 96.6736 63.0893Z" fill="#CFCCE0"/>
<path d="M95.7603 84.4238C95.7603 84.4238 92.411 83.8142 91.4975 85.9477C90.5841 88.0812 85.4079 92.9576 88.7572 93.2624C92.1065 93.5672 94.5424 88.0812 94.5424 88.0812L97.8917 87.4716L95.7603 84.4238Z" fill="#FBBEBE"/>
<path d="M99.1094 64.918L103.091 65.1399C103.091 65.1399 104.895 67.0514 105.199 68.8801C105.504 70.7088 111.289 84.4238 107.635 85.9477C103.981 87.4716 96.0646 88.3859 96.0646 88.3859L95.1511 84.119L100.327 82.2904L96.6735 74.6709L99.1094 64.918Z" fill="#CFCCE0"/>
<path opacity="0.2" d="M80.9928 116.578L86.0013 129.111L80.0793 116.578L85.2556 111.092L80.9928 116.578Z" fill="black"/>
<path opacity="0.2" d="M77.9915 130.374L80.0793 133.036H78.5569L77.9915 130.374Z" fill="black"/>
<path d="M89.7234 50.964C91.5625 50.964 93.0535 49.4716 93.0535 47.6307C93.0535 45.7898 91.5625 44.2974 89.7234 44.2974C87.8842 44.2974 86.3933 45.7898 86.3933 47.6307C86.3933 49.4716 87.8842 50.964 89.7234 50.964Z" fill="#2F2E41"/>
<path d="M86.0429 46.7535C86.043 45.9303 86.3474 45.1362 86.8975 44.5242C87.4476 43.9122 88.2045 43.5256 89.0224 43.439C88.906 43.4266 88.789 43.4203 88.6719 43.4202C88.2343 43.4198 87.8009 43.5057 87.3965 43.673C86.9921 43.8404 86.6247 44.0858 86.3151 44.3954C86.0055 44.705 85.76 45.0726 85.5924 45.4772C85.4249 45.8818 85.3386 46.3155 85.3386 46.7535C85.3386 47.1915 85.4249 47.6252 85.5924 48.0299C85.76 48.4345 86.0055 48.8021 86.3151 49.1117C86.6247 49.4212 86.9921 49.6667 87.3965 49.834C87.8009 50.0013 88.2343 50.0873 88.6719 50.0868C88.789 50.0867 88.906 50.0804 89.0224 50.0681C88.2045 49.9814 87.4476 49.5948 86.8975 48.9829C86.3474 48.3709 86.043 47.5768 86.0429 46.7535V46.7535Z" fill="#2F2E41"/>
<path d="M95.0641 51.3519L90.5139 48.9664L84.2306 49.9423L82.9304 55.6895L86.1668 55.5649L87.0708 53.4534V55.5302L88.564 55.4725L89.4305 52.1111L89.9722 55.6895L95.2806 55.5811L95.0641 51.3519Z" fill="#2F2E41"/>
</svg>
