<svg width="190" height="231" viewBox="0 0 190 231" fill="none" xmlns="http://www.w3.org/2000/svg">
<g clip-path="url(#clip0)">
<path d="M88.9923 177.886L88.9922 177.293C90.1711 177.293 91.3679 177.268 92.5496 177.221L92.5734 177.813C91.3838 177.861 90.1791 177.886 88.9923 177.886ZM85.4123 177.817C84.227 177.771 83.0243 177.7 81.8378 177.606L81.8844 177.015C83.0632 177.108 84.258 177.179 85.4355 177.225L85.4123 177.817ZM96.1479 177.599L96.1007 177.007C97.2773 176.913 98.4681 176.794 99.6399 176.652L99.7111 177.241C98.5314 177.383 97.3326 177.504 96.1479 177.599V177.599ZM78.2742 177.253C77.0919 177.111 75.8987 176.944 74.7276 176.756L74.8217 176.171C75.9849 176.358 77.1702 176.524 78.3445 176.664L78.2742 177.253ZM103.257 176.74L103.162 176.155C104.325 175.967 105.502 175.752 106.661 175.516L106.78 176.097C105.613 176.335 104.427 176.551 103.257 176.74V176.74ZM71.204 176.117C70.0371 175.881 68.8613 175.618 67.709 175.336L67.85 174.759C68.9946 175.04 70.1626 175.301 71.3216 175.536L71.204 176.117ZM110.274 175.312L110.132 174.736C111.28 174.453 112.436 174.144 113.568 173.816L113.733 174.386C112.593 174.716 111.43 175.027 110.274 175.312V175.312ZM64.2484 174.413C63.1051 174.083 61.9543 173.726 60.8282 173.351L61.0155 172.788C62.1341 173.161 63.2772 173.516 64.4129 173.843L64.2484 174.413ZM117.152 173.319L116.964 172.757C118.084 172.383 119.211 171.981 120.315 171.561L120.525 172.116C119.414 172.538 118.279 172.943 117.152 173.319V173.319ZM57.4446 172.148C56.3323 171.726 55.2118 171.276 54.1142 170.808L54.3466 170.263C55.4368 170.727 56.5499 171.175 57.6548 171.593L57.4446 172.148ZM123.838 170.78L123.605 170.235C124.689 169.772 125.777 169.281 126.839 168.776L127.094 169.311C126.025 169.82 124.929 170.314 123.838 170.78V170.78ZM50.8415 169.335C49.7645 168.824 48.6847 168.284 47.6323 167.731L47.9082 167.206C48.9535 167.755 50.0259 168.291 51.0957 168.799L50.8415 169.335ZM130.29 167.712L130.014 167.187C131.058 166.638 132.104 166.06 133.123 165.471L133.42 165.984C132.395 166.577 131.342 167.159 130.29 167.712V167.712ZM44.4915 165.998C43.4581 165.401 42.4261 164.776 41.4239 164.141L41.7412 163.64C42.7366 164.271 43.7619 164.892 44.7882 165.485L44.4915 165.998ZM136.479 164.131L136.162 163.63C137.156 163 138.152 162.34 139.124 161.668L139.461 162.156C138.483 162.833 137.48 163.497 136.479 164.131L136.479 164.131ZM38.4344 162.163C37.4539 161.485 36.4759 160.78 35.5274 160.067L35.8838 159.593C36.8261 160.302 37.7976 161.002 38.7714 161.675L38.4344 162.163ZM142.363 160.063L142.007 159.589C142.947 158.882 143.888 158.144 144.804 157.395L145.18 157.855C144.257 158.608 143.309 159.351 142.363 160.063V160.063ZM32.7074 157.855C31.7868 157.103 30.8689 156.322 29.979 155.533L30.3722 155.09C31.2563 155.873 32.1681 156.649 33.0826 157.396L32.7074 157.855ZM147.906 155.535L147.513 155.091C148.396 154.308 149.276 153.497 150.127 152.679L150.537 153.107C149.681 153.93 148.795 154.746 147.906 155.535L147.906 155.535ZM27.3462 153.105C26.4909 152.283 25.6387 151.431 24.8134 150.573L25.2408 150.162C26.0607 151.014 26.9073 151.861 27.757 152.677L27.3462 153.105ZM153.07 150.575L152.643 150.164C153.46 149.314 154.272 148.435 155.057 147.55L155.501 147.944C154.711 148.834 153.893 149.719 153.07 150.575V150.575ZM22.3843 147.943C21.5937 147.052 20.8127 146.135 20.0627 145.218L20.5219 144.842C21.2667 145.753 22.0426 146.664 22.8278 147.549L22.3843 147.943ZM157.824 145.217L157.365 144.842C158.114 143.926 158.854 142.984 159.563 142.042L160.037 142.398C159.323 143.347 158.578 144.295 157.824 145.217V145.217ZM17.8527 142.403C17.1382 141.454 16.4333 140.478 15.7578 139.502L16.2454 139.165C16.9164 140.134 17.6165 141.104 18.3264 142.046L17.8527 142.403ZM162.135 139.492L161.647 139.155C162.321 138.181 162.983 137.183 163.614 136.187L164.115 136.504C163.479 137.507 162.813 138.512 162.135 139.492ZM13.7814 136.521C13.146 135.519 12.5221 134.49 11.9268 133.463L12.4399 133.166C13.0311 134.186 13.651 135.208 14.282 136.203L13.7814 136.521ZM165.974 133.438L165.461 133.14C166.055 132.115 166.634 131.065 167.183 130.021L167.708 130.298C167.155 131.348 166.572 132.405 165.974 133.438V133.438ZM10.1975 130.333C9.64504 129.285 9.10623 128.209 8.59608 127.138L9.13142 126.883C9.63824 127.947 10.1734 129.015 10.7221 130.057L10.1975 130.333ZM169.314 127.089L168.778 126.835C169.286 125.767 169.779 124.673 170.243 123.585L170.789 123.818C170.321 124.914 169.825 126.014 169.314 127.089ZM7.12543 123.883C6.65842 122.791 6.20849 121.677 5.78795 120.571L6.34211 120.36C6.7599 121.458 7.20679 122.565 7.67062 123.649L7.12543 123.883ZM172.13 120.487L171.576 120.277C171.996 119.168 172.399 118.038 172.773 116.917L173.335 117.105C172.959 118.233 172.554 119.371 172.13 120.487V120.487ZM4.58236 117.199C4.20481 116.072 3.84551 114.921 3.51443 113.78L4.08394 113.615C4.41284 114.748 4.76968 115.891 5.14462 117.011L4.58236 117.199ZM174.4 113.685L173.83 113.52C174.157 112.389 174.466 111.233 174.748 110.084L175.324 110.225C175.04 111.382 174.729 112.546 174.4 113.685V113.685ZM2.58622 110.321C2.30132 109.167 2.03654 107.991 1.79884 106.828L2.37994 106.709C2.6159 107.865 2.87894 109.033 3.16181 110.179L2.58622 110.321ZM176.107 106.731L175.526 106.613C175.76 105.458 175.975 104.28 176.163 103.113L176.748 103.208C176.559 104.383 176.343 105.568 176.107 106.731ZM1.15362 103.305C0.96355 102.135 0.794465 100.942 0.651148 99.7596L1.23976 99.6884C1.38221 100.863 1.55013 102.047 1.73905 103.21L1.15362 103.305ZM177.247 99.6606L176.658 99.5899C176.799 98.4162 176.918 97.2254 177.011 96.0506L177.602 96.0975C177.508 97.2802 177.389 98.479 177.247 99.6606V99.6606ZM0.291699 96.197C0.196009 95.0127 0.12305 93.81 0.074843 92.6222L0.667217 92.5981C0.715134 93.778 0.787661 94.9727 0.882626 96.1492L0.291699 96.197ZM177.815 92.5233L177.223 92.4998C177.269 91.3183 177.293 90.1217 177.293 88.9431L177.293 88.7467H177.886L177.886 88.9418C177.886 90.1293 177.862 91.3338 177.815 92.5233ZM0.592953 89.0414H0L0.000144764 88.9418C0.000144764 87.7852 0.02259 86.6137 0.0670348 85.4616L0.659391 85.4844C0.615382 86.6291 0.593089 87.7927 0.593089 88.9431L0.592953 89.0414ZM177.215 85.1909C177.166 84.0135 177.092 82.8188 176.995 81.6401L177.587 81.5917C177.684 82.7784 177.758 83.9809 177.807 85.1663L177.215 85.1909ZM0.867136 81.9332L0.27592 81.8869C0.36915 80.6996 0.487564 79.5006 0.627696 78.3231L1.2166 78.3932C1.07733 79.5629 0.959785 80.754 0.867136 81.9332ZM176.635 78.1012C176.492 76.9318 176.323 75.747 176.132 74.58L176.717 74.4843C176.909 75.6592 177.079 76.8519 177.223 78.0294L176.635 78.1012ZM1.70765 74.8702L1.12223 74.7764C1.31013 73.6024 1.52453 72.4166 1.75977 71.2524L2.34086 71.3697C2.10733 72.5262 1.89437 73.7038 1.70764 74.8702L1.70765 74.8702ZM175.486 71.0816C175.248 69.9229 174.984 68.7558 174.701 67.6123L175.276 67.4696C175.562 68.6208 175.828 69.7959 176.067 70.9623L175.486 71.0816ZM3.11489 67.8978L2.53887 67.7571C2.82087 66.603 3.13066 65.4385 3.45957 64.2958L4.02936 64.4598C3.70263 65.5949 3.395 66.7516 3.11489 67.8978ZM173.775 64.1777C173.445 63.0452 173.087 61.9031 172.711 60.7834L173.273 60.5946C173.652 61.7219 174.012 62.8716 174.344 64.0118L173.775 64.1777ZM5.08238 61.062L4.51967 60.875C4.89489 59.746 5.29908 58.6074 5.72107 57.491L6.2758 57.7006C5.85657 58.8097 5.455 59.9406 5.08238 61.062ZM171.509 57.435C171.088 56.332 170.64 55.2259 170.177 54.1471L170.722 53.9135C171.188 54.9995 171.639 56.113 172.063 57.2233L171.509 57.435ZM7.60459 54.3915L7.05883 54.1593C7.52483 53.0638 8.01992 51.9625 8.53021 50.8862L9.06599 51.1401C8.55902 52.2093 8.06741 53.3033 7.60459 54.3915ZM168.713 50.9145C168.205 49.8517 167.669 48.7845 167.119 47.7426L167.643 47.4657C168.197 48.5146 168.737 49.5889 169.248 50.6592L168.713 50.9145ZM10.6578 47.9514L10.1326 47.676C10.6853 46.6226 11.2676 45.5655 11.863 44.5341L12.3766 44.8305C11.7851 45.855 11.2068 46.9051 10.6578 47.9514ZM165.397 44.6365C164.804 43.6158 164.184 42.5947 163.552 41.6011L164.052 41.2829C164.688 42.2831 165.313 43.3112 165.91 44.3386L165.397 44.6365ZM14.2196 41.7825L13.7184 41.4655C14.3545 40.4598 15.0197 39.4536 15.6953 38.4748L16.1832 38.8117C15.512 39.7839 14.8515 40.7834 14.2196 41.7825ZM161.585 38.6414C160.912 37.6723 160.211 36.7035 159.501 35.7625L159.974 35.4052C160.689 36.3526 161.395 37.3277 162.072 38.3036L161.585 38.6414ZM18.2643 35.9228L17.7903 35.5667C18.5049 34.6156 19.2482 33.6665 19.9997 32.7455L20.4592 33.1204C19.7127 34.0352 18.9742 34.978 18.2643 35.9228V35.9228ZM157.303 32.9686C156.555 32.0561 155.778 31.1463 154.994 30.2644L155.437 29.8703C156.226 30.7582 157.008 31.6741 157.761 32.5928L157.303 32.9686ZM22.7643 30.4087L22.3204 30.0158C23.1077 29.1264 23.9243 28.2402 24.7477 27.3817L25.1756 27.7923C24.3577 28.6449 23.5464 29.5254 22.7643 30.4087L22.7643 30.4087ZM152.578 27.6539C151.757 26.8025 150.91 25.9574 150.059 25.1418L150.469 24.7136C151.326 25.5347 152.179 26.3854 153.005 27.2424L152.578 27.6539ZM27.689 25.2747L27.2779 24.8473C28.1334 24.024 29.0181 23.2064 29.9069 22.4169L30.3007 22.8601C29.4176 23.6445 28.5389 24.4569 27.689 25.2747ZM147.441 22.7319C146.555 21.9486 145.642 21.1735 144.728 20.4284L145.103 19.9688C146.023 20.7189 146.942 21.4991 147.834 22.2877L147.441 22.7319ZM33.0063 20.5526L32.6305 20.094C33.5505 19.3405 34.4972 18.5966 35.4443 17.8826L35.8013 18.3559C34.8605 19.0652 33.9201 19.8043 33.0063 20.5526ZM141.924 18.2351C140.978 17.5252 140.006 16.8255 139.034 16.1555L139.371 15.6674C140.349 16.3419 141.328 17.0461 142.28 17.7608L141.924 18.2351ZM38.6818 16.2729L38.3439 15.7857C39.3213 15.1083 40.3241 14.4428 41.3244 13.8076L41.6423 14.3082C40.6487 14.9391 39.6526 15.6001 38.6818 16.2729H38.6818ZM136.062 14.1933C135.063 13.5618 134.037 12.9424 133.013 12.3521L133.309 11.8385C134.34 12.4326 135.372 13.0563 136.379 13.6919L136.062 14.1933ZM44.6786 12.4646L44.3811 11.9516C45.4064 11.357 46.4588 10.7745 47.5089 10.2205L47.7857 10.7448C46.7424 11.2952 45.6971 11.8739 44.6786 12.4646ZM129.892 10.635C128.844 10.0863 127.771 9.55141 126.702 9.04517L126.956 8.50925C128.032 9.01882 129.113 9.55734 130.167 10.1098L129.892 10.635ZM50.9584 9.15258L50.7032 8.61725C51.7724 8.10753 52.8675 7.61215 53.9583 7.14485L54.1917 7.68989C53.1082 8.15401 52.0203 8.64606 50.9584 9.15259L50.9584 9.15258ZM123.45 7.58552C122.36 7.12272 121.247 6.6764 120.14 6.25861L120.35 5.70388C121.463 6.12442 122.585 6.57391 123.682 7.03976L123.45 7.58552ZM57.4804 6.35951L57.2692 5.80536C58.3787 5.38236 59.513 4.97615 60.6407 4.59788L60.8292 5.16014C59.7092 5.53581 58.5825 5.93941 57.4804 6.35951ZM116.778 5.06691C115.657 4.69531 114.514 4.34165 113.379 4.01578L113.543 3.44599C114.685 3.77403 115.836 4.13 116.964 4.50407L116.778 5.06691ZM64.2244 4.09729L64.0588 3.52807C65.1991 3.19627 66.3627 2.88329 67.5172 2.59767L67.6596 3.17326C66.5128 3.45699 65.357 3.76795 64.2244 4.09729V4.09729ZM109.941 3.10348C108.796 2.82423 107.628 2.56438 106.469 2.33116L106.585 1.74979C107.753 1.9846 108.929 2.24633 110.081 2.52731L109.941 3.10348ZM71.1292 2.38965L71.0102 1.80885C72.1726 1.57086 73.3577 1.35314 74.5324 1.16161L74.628 1.74674C73.4609 1.93712 72.2838 2.15339 71.1292 2.38965ZM102.968 1.7C101.802 1.5141 100.616 1.34938 99.4443 1.21069L99.5141 0.621792C100.694 0.761489 101.887 0.927244 103.061 1.11457L102.968 1.7ZM78.1495 1.24558L78.0777 0.656969C79.2572 0.513364 80.4559 0.391623 81.6403 0.295493L81.6884 0.886421C80.5118 0.9821 79.3211 1.10284 78.1495 1.24558ZM95.9042 0.863257C94.7287 0.771622 93.5339 0.702425 92.3529 0.657693L92.3755 0.0650357C93.5643 0.110201 94.767 0.179835 95.9503 0.272048L95.9042 0.863257ZM85.2393 0.66913L85.215 0.0767707C86.4006 0.027852 87.6052 0.00205885 88.7953 4.57764e-05L88.7962 0.592999C87.614 0.595012 86.4173 0.620632 85.2393 0.66913V0.66913Z" fill="#3F3D56"/>
<path d="M189.441 60.7899V44.6497C184.427 43.4982 179.707 41.3174 175.58 38.2455C171.454 35.1737 168.01 31.2779 165.468 26.8051L165.468 26.8054C164.249 27.7095 162.77 28.1961 161.252 28.1929H148.436C151.856 36.7166 157.435 44.2039 164.624 49.919C171.813 55.6341 180.366 59.3805 189.441 60.7899Z" fill="#3F3D56"/>
<path d="M189.441 43.7247V28.2196C189.442 27.0854 189.218 25.9622 188.784 24.9142C188.351 23.8662 187.714 22.914 186.912 22.112C186.11 21.31 185.158 20.6738 184.11 20.2399C183.062 19.806 181.939 19.5829 180.805 19.5832H168.362V21.0804C168.363 22.0407 168.169 22.9912 167.792 23.8744C167.415 24.7575 166.863 25.5548 166.168 26.218C168.627 30.5863 171.964 34.3974 175.97 37.4106C179.976 40.4238 184.563 42.5738 189.441 43.7247V43.7247Z" fill="#3F3D56"/>
<path d="M129.586 28.1929H121.572C119.686 28.1924 117.877 27.4427 116.544 26.1089C115.211 24.7751 114.462 22.9663 114.462 21.0804V19.5832H102.787C101.653 19.5831 100.53 19.8064 99.4819 20.2404C98.434 20.6744 97.4819 21.3106 96.68 22.1125C95.878 22.9145 95.2418 23.8666 94.8078 24.9145C94.3739 25.9623 94.1505 27.0854 94.1506 28.2196V220.396C94.1494 221.53 94.372 222.653 94.8057 223.701C95.2394 224.749 95.8756 225.701 96.6778 226.503C97.4801 227.305 98.4327 227.94 99.481 228.373C100.529 228.806 101.653 229.028 102.787 229.026H180.805C181.161 229.027 181.516 229.005 181.869 228.961C183.958 228.701 185.88 227.687 187.274 226.11C188.668 224.532 189.439 222.501 189.441 220.396V78.9254C161.066 75.6374 137.422 55.3913 129.586 28.1929Z" fill="#3F3D56"/>
<path d="M147.464 28.1929H130.523C138.32 54.8873 161.558 74.7479 189.441 78.0211V61.7089C180.123 60.2842 171.342 56.439 163.976 50.5575C156.61 44.676 150.916 36.9643 147.464 28.1929V28.1929Z" fill="#3F3D56"/>
<path opacity="0.1" d="M122.402 226.055C122.617 225.842 127.717 220.677 132.04 208.421C136.006 197.177 140.009 177.569 136.55 148.01C129.998 92.0129 163.597 56.3257 163.938 55.9717L162.943 55.0166C162.857 55.1064 154.218 64.1876 146.532 80.13C136.358 101.27 132.421 124.872 135.181 148.171C141.722 204.072 121.633 224.875 121.429 225.078L122.402 226.055Z" fill="black"/>
<path opacity="0.1" d="M174.255 55.0334C179.203 55.0334 183.215 51.0218 183.215 46.0732C183.215 41.1246 179.203 37.113 174.255 37.113C169.306 37.113 165.295 41.1246 165.295 46.0732C165.295 51.0218 169.306 55.0334 174.255 55.0334Z" fill="black"/>
<path opacity="0.1" d="M138.955 80.4701C143.904 80.4701 147.915 76.4585 147.915 71.5099C147.915 66.5613 143.904 62.5497 138.955 62.5497C134.006 62.5497 129.995 66.5613 129.995 71.5099C129.995 76.4585 134.006 80.4701 138.955 80.4701Z" fill="black"/>
<path opacity="0.1" d="M152.472 106.474C157.42 106.474 161.432 102.463 161.432 97.514C161.432 92.5654 157.42 88.5538 152.472 88.5538C147.523 88.5538 143.511 92.5654 143.511 97.514C143.511 102.463 147.523 106.474 152.472 106.474Z" fill="black"/>
<path opacity="0.1" d="M125.292 118.994C130.24 118.994 134.252 114.983 134.252 110.034C134.252 105.085 130.24 101.074 125.292 101.074C120.343 101.074 116.332 105.085 116.332 110.034C116.332 114.983 120.343 118.994 125.292 118.994Z" fill="black"/>
<path opacity="0.1" d="M147.887 154.31C152.835 154.31 156.847 150.298 156.847 145.35C156.847 140.401 152.835 136.389 147.887 136.389C142.938 136.389 138.927 140.401 138.927 145.35C138.927 150.298 142.938 154.31 147.887 154.31Z" fill="black"/>
<path opacity="0.1" d="M117.065 225.092C117.065 225.092 131.001 205.791 108.811 183.345L117.065 225.092Z" fill="black"/>
<path opacity="0.1" d="M127.865 227.317C127.865 227.317 137.39 205.499 168.003 213.18L127.865 227.317Z" fill="black"/>
<path d="M179.585 149.998H104.28V164.822H179.585V149.998Z" fill="currentColor"/>
<path d="M127.28 118.58C124.26 114.09 122.948 108.667 123.583 103.294C124.219 97.9207 126.759 92.953 130.742 89.2917C134.726 85.6304 139.89 83.518 145.298 83.3376C150.705 83.1571 155.999 84.9205 160.218 88.308C164.437 91.6955 167.302 96.4828 168.294 101.802C169.286 107.121 168.34 112.619 165.625 117.3C162.911 121.981 158.61 125.534 153.501 127.315C148.391 129.096 142.813 128.987 137.777 127.008C137.451 128.174 136.841 129.24 136.001 130.111C135.161 130.983 134.119 131.633 132.967 132.002C131.814 132.372 130.588 132.451 129.398 132.23C128.208 132.01 127.092 131.498 126.148 130.741C125.204 129.983 124.463 129.003 123.991 127.889C123.519 126.775 123.331 125.561 123.443 124.356C123.555 123.151 123.964 121.992 124.634 120.984C125.303 119.976 126.212 119.15 127.28 118.58V118.58Z" fill="#F2F2F2"/>
<path d="M150.848 97.8585C150.31 97.5475 148.269 100.042 146.016 103.671C143.763 100.042 141.722 97.5475 141.183 97.8585C140.585 98.2039 142.057 101.886 144.504 106.229C142.057 110.571 140.585 114.253 141.183 114.599C141.722 114.91 143.763 112.416 146.016 108.786C148.269 112.416 150.31 114.91 150.848 114.599C151.447 114.253 149.974 110.571 147.528 106.229C149.974 101.886 151.447 98.2039 150.848 97.8585Z" fill="currentColor"/>
<path d="M42.4417 136.276C42.4417 136.276 40.03 146.612 42.0972 146.612C44.1643 146.612 48.2987 141.789 48.2987 141.789V139.033L42.4417 136.276Z" fill="#A0616A"/>
<path d="M47.4375 127.146L41.2357 136.793H45.7146L47.4375 127.146Z" fill="#D0CDE1"/>
<path d="M51.9163 211.212H43.6476V218.102H51.9163V211.212Z" fill="#A0616A"/>
<path d="M70.1763 210.178L71.8992 218.102L80.5124 216.035L78.445 209.145L70.1763 210.178Z" fill="#A0616A"/>
<path d="M44.3366 138.86C44.3366 138.86 41.5804 140.238 41.2358 146.44C40.8913 152.642 42.2694 168.835 42.2694 168.835C42.2694 168.835 40.8913 176.07 42.2694 182.616C43.6476 189.162 40.8913 212.934 42.614 212.934C44.3366 212.934 53.2944 213.968 53.6389 212.934C53.9835 211.901 54.328 196.397 54.328 196.397C54.328 196.397 57.0842 188.473 54.328 183.649C54.328 183.649 60.5296 188.817 60.5296 190.195C60.5296 191.574 67.0756 212.934 70.1764 213.279C73.2772 213.623 81.8904 212.934 80.1678 209.834C78.4451 206.733 74.3108 192.607 74.3108 192.607C74.3108 192.607 71.21 182.271 65.6975 177.792L68.4538 155.742C68.4538 155.742 74.3108 140.928 70.8655 138.86C67.4202 136.793 44.3366 138.86 44.3366 138.86Z" fill="#2F2E41"/>
<path d="M54.6725 82.7019C59.6198 82.7019 63.6303 78.6913 63.6303 73.7441C63.6303 68.7968 59.6198 64.7863 54.6725 64.7863C49.7253 64.7863 45.7148 68.7968 45.7148 73.7441C45.7148 78.6913 49.7253 82.7019 54.6725 82.7019Z" fill="#A0616A"/>
<path d="M50.1936 79.2566C50.1936 79.2566 53.6389 90.6261 52.6054 92.0042C51.5718 93.3823 63.6303 84.4245 63.6303 84.4245C63.6303 84.4245 59.1514 81.3237 60.8741 76.8448L50.1936 79.2566Z" fill="#A0616A"/>
<path d="M64.6639 83.3909C64.6639 83.3909 60.5296 84.7691 58.4624 87.1808C56.3952 89.5925 51.5718 89.937 51.5718 89.937C51.5718 89.937 47.3078 92.3384 45.7148 96.4831C44.0169 100.9 45.0038 107.12 45.7148 108.542C47.0929 111.298 47.0929 118.189 47.0929 118.189L45.3702 134.037C45.3702 134.037 39.1687 139.894 43.9921 140.583C48.8155 141.272 57.4288 140.238 62.5967 140.583C67.7647 140.928 73.6217 141.617 71.8991 138.171C70.1764 134.726 68.1092 132.314 70.1764 125.424C71.7941 120.032 71.7239 99.8711 71.6169 91.3576C71.6022 90.1884 71.2886 89.0424 70.706 88.0286C70.1234 87.0148 69.2911 86.1669 68.2882 85.5655L64.6639 83.3909Z" fill="#D0CDE1"/>
<path d="M51.2272 136.104C51.2272 136.104 49.6597 139.555 49.5046 141.617C48.2987 157.637 57.0842 141.617 57.0842 141.617V138.86L51.2272 136.104Z" fill="#A0616A"/>
<path d="M75.3444 215.346C75.3444 215.346 70.1764 211.556 70.1764 213.623C70.1764 215.691 64.3194 223.959 64.3194 223.959C64.3194 223.959 54.6725 230.85 62.5967 230.85C70.5209 230.85 73.9662 229.472 73.9662 229.472L82.235 223.959C82.235 223.959 84.3022 221.548 83.6131 218.791C82.924 216.035 80.5123 212.245 80.5123 212.245C80.5123 212.245 77.7561 216.035 75.3444 215.346Z" fill="#2F2E41"/>
<path d="M45.0257 216.38C45.0257 216.38 44.3366 212.934 41.9249 214.657C39.5132 216.38 32.9671 221.548 32.9671 221.548C32.9671 221.548 20.9086 224.304 28.4882 227.749C36.0679 231.195 53.2944 226.371 53.2944 226.371C53.2944 226.371 53.9835 215.346 53.2944 215.691C52.6054 216.035 45.3702 217.069 45.0257 216.38Z" fill="#2F2E41"/>
<path opacity="0.1" d="M59.6683 94.2437L60.7018 115.26L50.6865 135.545L48.9877 134.898L59.3238 115.949L59.6683 94.2437Z" fill="black"/>
<path d="M67.7647 87.8698L70.3487 87.353C70.3487 87.353 78.1006 93.0378 75.6889 104.407C73.2772 115.777 62.5967 133.003 62.5967 133.003C62.5967 133.003 60.185 136.104 59.496 136.793C58.8069 137.482 57.4288 136.793 58.1178 137.827C58.8069 138.86 57.0843 139.549 57.0843 139.549C57.0843 139.549 49.5046 139.549 50.1936 136.793C50.8827 134.037 62.5967 114.399 62.5967 114.399L60.8741 96.1386C60.8741 96.1386 59.496 87.1808 67.7647 87.8698Z" fill="#D0CDE1"/>
<path opacity="0.1" d="M71.0379 119.739V117.327L59.3238 136.621L71.0379 119.739Z" fill="black"/>
<path d="M48.3163 65.4459L46.8354 64.8531C46.8354 64.8531 49.9317 61.4441 54.2398 61.7406L53.0281 60.4066C53.0281 60.4066 55.9899 59.2209 58.6824 62.3334C60.0978 63.9696 61.7354 65.8928 62.7563 68.0593H64.3423L63.6804 69.5168L65.997 70.9742L63.6192 70.7124C63.8444 71.9707 63.7673 73.2644 63.3943 74.487L63.458 75.639C63.458 75.639 60.7018 71.3745 60.7018 70.7817V72.2638C60.7018 72.2638 59.2209 70.9299 59.2209 70.0406L58.4132 71.0781L58.0093 69.4477L53.0281 71.0781L53.8359 69.7442L50.7395 70.1888L51.9511 68.5584C51.9511 68.5584 48.4509 70.4852 48.3162 72.1156C48.1816 73.746 46.4315 75.821 46.4315 75.821L45.6238 74.3388C45.6238 74.3388 44.4121 67.6691 48.3163 65.4459Z" fill="#2F2E41"/>
</g>
<defs>
<clipPath id="clip0">
<rect width="189.441" height="230.85" fill="white"/>
</clipPath>
</defs>
</svg>
