<svg width="42" height="39" viewBox="0 0 42 39" fill="none" xmlns="http://www.w3.org/2000/svg">
<g clip-path="url(#clip0)">
<path d="M6.54192 17.4064C6.58617 18.6826 6.90504 23.4857 10.7215 27.5529C13.6928 30.7193 17.6507 31.7925 18.7171 32.0825C19.0199 32.1649 19.2726 32.2248 19.444 32.2637L16.8999 34.8003L18.3529 38.6032C18.3534 38.6038 18.3539 38.6044 18.3537 38.6051C18.338 38.6512 14.895 37.7067 12.7204 36.7933C8.02572 34.8215 5.18791 31.2917 4.17961 29.9083C3.77056 29.3471 2.184 27.1104 1.09037 23.748C0.345472 21.4578 0.0856292 19.4338 0 17.95L3.27096 13.4204L6.54192 17.4064Z" fill="#203C56"/>
<path d="M16.8999 34.8003L18.3528 38.6031C18.3534 38.6038 18.3538 38.6045 18.3537 38.6051C18.338 38.6512 14.8949 37.7067 12.7203 36.7933C8.02573 34.8214 5.18784 31.2917 4.17954 29.9083C3.77049 29.3471 2.18392 27.1104 1.09029 23.7479C0.345472 21.4578 0.0856292 19.4338 0 17.95L3.27096 13.4203C3.08614 14.8424 2.30373 22.0073 7.26878 28.2776C10.7149 32.6297 15.1073 34.249 16.8999 34.8003Z" fill="#0D2B45"/>
<path d="M35.4353 17.4064C35.391 18.6826 35.0721 23.4857 31.2558 27.5529C28.2845 30.7193 24.3265 31.7925 23.2601 32.0825C22.9573 32.1649 22.7046 32.2248 22.5332 32.2637L25.0774 34.8003L23.6243 38.6032C23.6239 38.6038 23.6233 38.6044 23.6236 38.6051C23.6393 38.6512 27.0822 37.7067 29.2568 36.7933C33.9515 34.8215 36.7893 31.2917 37.7976 29.9083C38.2067 29.3471 39.7932 27.1104 40.8869 23.748C41.6318 21.4578 41.8915 19.4338 41.9772 17.95L38.7062 13.4204L35.4353 17.4064Z" fill="#203C56"/>
<path d="M25.0774 34.8003L23.6244 38.6031C23.6239 38.6038 23.6234 38.6045 23.6236 38.6051C23.6393 38.6512 27.0823 37.7067 29.2569 36.7933C33.9515 34.8214 36.7894 31.2917 37.7977 29.9083C38.2067 29.3471 39.7933 27.1104 40.8869 23.7479C41.6318 21.4578 41.8917 19.4338 41.9773 17.95L38.7063 13.4203C38.8911 14.8424 39.6735 22.0073 34.7085 28.2776C31.2623 32.6297 26.8699 34.249 25.0774 34.8003Z" fill="#0D2B45"/>
<path d="M29.166 8.43776L21.0794 0.375H20.8978L12.8112 8.43776L4.36133 5.62943L9.38829 22.9932C9.43171 23.1431 9.49362 23.2873 9.57448 23.4209C10.0518 24.2085 11.9208 26.973 15.6279 28.8211C19.9891 30.9954 20.8978 30.9954 20.8978 30.9954H21.0794C21.0794 30.9954 21.988 30.9954 26.3493 28.8211C30.0564 26.973 31.9254 24.2085 32.4026 23.4209C32.4835 23.2873 32.5455 23.1431 32.5889 22.9932L37.6159 5.62943L29.166 8.43776Z" fill="#FFC725"/>
<path d="M29.166 8.43776L21.0794 0.375H20.8978L12.8112 8.43776L4.36133 5.62943L9.38829 22.9932C9.43171 23.1431 9.49362 23.2873 9.57448 23.4209C10.0518 24.2085 11.9208 26.973 15.6279 28.8211C19.9891 30.9954 20.8978 30.9954 20.8978 30.9954H21.0794C21.0794 30.9954 21.988 30.9954 26.3493 28.8211C30.0564 26.973 31.9254 24.2085 32.4026 23.4209C32.4835 23.2873 32.5455 23.1431 32.5889 22.9932L37.6159 5.62943L29.166 8.43776Z" fill="#C5631D"/>
<path d="M29.166 8.43776L21.0794 0.375H20.8978L12.8112 8.43776L4.36133 5.62943L9.38829 22.9932C9.43171 23.1431 9.49362 23.2873 9.57448 23.4209C10.0518 24.2085 11.9208 26.973 15.6279 28.8211C19.9891 30.9954 20.8978 30.9954 20.8978 30.9954H21.0794C21.0794 30.9954 21.988 30.9954 26.3493 28.8211C30.0564 26.973 31.9254 24.2085 32.4026 23.4209C32.4835 23.2873 32.5455 23.1431 32.5889 22.9932L37.6159 5.62943L29.166 8.43776Z" fill="#E7842D"/>
<g clip-path="url(#clip1)">
<path d="M29.166 8.43776L21.0794 0.375H20.8978L12.8112 8.43776L4.36133 5.62943L9.38829 22.9932C9.43171 23.1431 9.49362 23.2873 9.57448 23.4209C10.0518 24.2085 11.9208 26.973 15.6279 28.8211C19.9891 30.9954 20.8978 30.9954 20.8978 30.9954H21.0794C21.0794 30.9954 21.988 30.9954 26.3493 28.8211C30.0564 26.973 31.9254 24.2085 32.4026 23.4209C32.4835 23.2873 32.5455 23.1431 32.5889 22.9932L37.6159 5.62943L29.166 8.43776Z" fill="#FFAA5E"/>
<path d="M32.6869 13.0522L37.6174 5.5843L29.3269 8.35287H29.1078L21 0.302155L12.8921 8.35287H12.673L4.38257 5.5843L9.31301 13.0522L21 6.0943L32.6869 13.0522Z" fill="#FFD4A3"/>
<path d="M30.8243 25.365L32.7234 12.9793L21 6.05786L9.27649 12.9793L11.1391 25.365L21.073 29.0807L30.8243 25.365Z" fill="#D08159"/>
</g>
<path d="M20.8978 8.34719L11.9935 13.4204L12.6915 21.0762C12.8199 22.484 13.7576 23.6888 15.0935 24.1625L21.0794 26.2846L26.86 24.1887C28.2074 23.7002 29.1409 22.4673 29.243 21.0414L29.802 13.2392L21.0794 8.34719H20.8978Z" fill="#544E68"/>
<path d="M23.5566 14.6858C23.1734 14.7882 22.9461 15.1808 23.0488 15.5628L23.1439 15.9169C23.079 15.9171 23.0138 15.9203 22.9484 15.9272L22.6324 14.7515C22.5298 14.3694 22.136 14.1428 21.7528 14.2451C21.3697 14.3474 21.1424 14.7401 21.245 15.1221L21.5547 16.275L21.3389 16.3327L20.8556 14.5342C20.7529 14.1522 20.3591 13.9255 19.976 14.0278C19.5928 14.1302 19.3654 14.5229 19.4681 14.9049L19.9576 16.7262C19.8975 16.7528 19.8394 16.7826 19.7831 16.8148L18.6222 12.4949C18.5195 12.113 18.1258 11.8862 17.7426 11.9886C17.3594 12.091 17.1321 12.4836 17.2347 12.8656L18.7714 18.5837C18.7727 18.5885 18.7742 18.5931 18.7756 18.5979C18.777 18.6034 18.7782 18.6089 18.7797 18.6144L18.8788 18.9834L19.1555 20.013L18.0254 19.3609C17.658 19.149 17.1885 19.2744 16.9767 19.6411C16.7649 20.0078 16.8909 20.4769 17.2582 20.6888L20.6355 22.6375C21.3768 23.1518 22.332 23.3492 23.2727 23.0979C24.967 22.6453 25.9725 20.9088 25.5185 19.2194L25.2624 18.2664L25.0145 17.3441L24.9154 16.9752L24.4362 15.1921C24.3336 14.8101 23.9398 14.5835 23.5566 14.6858Z" fill="#FFECD6"/>
</g>
<defs>
<clipPath id="clip0">
<rect width="42" height="38.25" fill="white" transform="translate(0 0.375)"/>
</clipPath>
<clipPath id="clip1">
<rect width="33.2546" height="30.6204" fill="white" transform="translate(4.36133 0.375)"/>
</clipPath>
</defs>
</svg>
