<svg width="41" height="35" viewBox="0 0 41 35" fill="none" xmlns="http://www.w3.org/2000/svg">
<circle cx="17" cy="18" r="17" fill="white"/>
<path d="M12 22.3438L18.9062 15.4375L22.625 19.1562L32.5 9" stroke="#212121" stroke-width="4" stroke-linecap="round" stroke-linejoin="round"/>
<path d="M39 3H41C41 2.02232 40.2932 1.18794 39.3288 1.02721L39 3ZM33.3288 0.0272122C32.2393 -0.154378 31.2088 0.581661 31.0272 1.6712C30.8456 2.76074 31.5817 3.7912 32.6712 3.97279L33.3288 0.0272122ZM37 10C37 11.1046 37.8954 12 39 12C40.1046 12 41 11.1046 41 10H37ZM32.3679 11.9591L40.3679 4.45907L37.6321 1.54093L29.6321 9.04093L32.3679 11.9591ZM39.3288 1.02721L33.3288 0.0272122L32.6712 3.97279L38.6712 4.97279L39.3288 1.02721ZM37 3V10H41V3H37Z" fill="white"/>
</svg>
