<svg width="329" height="233" viewBox="0 0 329 233" fill="none" xmlns="http://www.w3.org/2000/svg">
<g clip-path="url(#clip0)">
<path opacity="0.1" d="M109.379 232.869C125.401 232.869 138.389 230.783 138.389 228.21C138.389 225.638 125.401 223.552 109.379 223.552C93.3568 223.552 80.3684 225.638 80.3684 228.21C80.3684 230.783 93.3568 232.869 109.379 232.869Z" fill="#F95555"/>
<path opacity="0.1" d="M267.076 233C287.069 233 303.276 230.914 303.276 228.341C303.276 225.769 287.069 223.683 267.076 223.683C247.083 223.683 230.875 225.769 230.875 228.341C230.875 230.914 247.083 233 267.076 233Z" fill="#F95555"/>
<path opacity="0.1" d="M4.12054 100.673H34.3368V141.85H6.33265C6.25822 142.272 6.18676 142.698 6.10935 143.124H34.3368V176.332C34.2862 176.317 34.2415 176.299 34.1939 176.282C33.396 175.966 32.6041 175.633 31.8121 175.275L31.306 175.046C30.512 174.671 29.7181 174.274 28.9242 173.856C28.6473 173.71 28.3704 173.558 28.0965 173.403C23.6889 170.935 19.6848 167.807 16.2231 164.128C16.1219 164.029 16.0266 163.925 15.9254 163.83C15.4431 163.306 14.9697 162.776 14.5112 162.234L14.0051 161.639C13.4632 160.975 12.9392 160.294 12.4301 159.603C12.3557 159.502 12.2842 159.401 12.2068 159.305C10.1362 156.435 8.41703 153.327 7.0859 150.048C7.04421 149.949 7.00849 149.842 6.96978 149.75C6.56091 148.698 6.19867 147.637 5.88308 146.565C5.74613 146.115 5.61513 145.672 5.50199 145.205C5.46031 145.068 5.42458 144.934 5.39183 144.8C3.70074 138.2 3.50127 131.345 3.50127 124.537C3.50127 123.742 3.50127 122.945 3.50127 122.156C3.50127 119.402 3.53402 116.631 3.58165 113.863C3.58165 113.145 3.61142 112.431 3.62631 111.71C3.66799 109.883 3.72754 108.055 3.80495 106.227C3.82281 105.718 3.84663 105.212 3.87342 104.706C3.87342 104.415 3.88831 104.123 3.91808 103.831C3.98954 102.771 4.04908 101.721 4.12054 100.673Z" fill="#F95555"/>
<path opacity="0.1" d="M34.3368 54.8253H17.7624C20.4566 50.609 23.4004 46.5574 26.5781 42.6922C29.0403 39.6678 31.6394 36.7209 34.3368 33.8811V54.8253Z" fill="#F95555"/>
<path opacity="0.1" d="M34.3368 56.0993V99.3987H4.21581C4.21581 99.2737 4.23665 99.1457 4.24558 99.0207C4.27237 98.6784 4.29917 98.3361 4.32894 97.9967C4.36169 97.5978 4.39742 97.196 4.43612 96.806C4.47483 96.4161 4.51651 95.9398 4.56117 95.5082C4.60583 95.0765 4.64751 94.639 4.69812 94.2073C4.74874 93.7757 4.79339 93.3441 4.84699 92.9154C4.90058 92.4868 4.94821 92.0522 5.00478 91.6235C5.04944 91.2663 5.09707 90.9121 5.14471 90.5549C5.21319 90.0518 5.28464 89.5458 5.36205 89.0457C5.36205 88.9713 5.38289 88.8939 5.3948 88.8224C5.93821 85.1616 6.67864 81.5326 7.61287 77.9514C8.59078 74.1948 9.83953 70.5139 11.3493 66.9376C12.954 63.1963 14.8328 59.5787 16.9704 56.1142L34.3368 56.0993Z" fill="#F95555"/>
<path opacity="0.1" d="M41.5508 100.67V141.85H106.089V100.67H41.5508ZM41.5508 143.121V178.484C41.9199 178.562 42.2861 178.636 42.6494 178.699C43.1436 178.794 43.6348 178.88 44.138 178.955C44.2333 178.969 44.3315 178.984 44.4357 178.993C44.6322 179.026 44.8347 179.053 45.0312 179.08C45.5284 179.148 46.0226 179.205 46.5198 179.249C46.755 179.273 46.9932 179.294 47.2314 179.312L47.806 179.356C48.1186 179.38 48.4282 179.398 48.7349 179.407C48.9254 179.407 49.116 179.425 49.3125 179.431C49.4613 179.431 49.6102 179.431 49.765 179.431C49.9199 179.431 50.1402 179.431 50.3277 179.431C50.5838 179.431 50.8398 179.431 51.0929 179.431H51.4353C51.6913 179.431 51.9474 179.431 52.2004 179.407H52.2183C52.394 179.407 52.5726 179.407 52.7512 179.383C52.8008 179.386 52.8505 179.386 52.9001 179.383C53.049 179.383 53.1978 179.383 53.3407 179.362H53.4449L54.4423 179.285C54.7698 179.255 55.1003 179.217 55.4337 179.181L56.1126 179.1C58.8742 178.714 61.6052 178.133 64.2852 177.362C70.3052 175.683 76.1942 173.335 82.2113 171.614C89.9909 169.396 98.5863 168.307 106.104 171.019V143.121H41.5508ZM106.089 54.8253V0.00297599C99.0232 -0.0735626 91.9765 0.752717 85.1201 2.46175C68.7779 6.56665 54.1148 15.47 41.5508 26.8411V54.8223H44.79V56.0934H41.5508V99.3987H106.089V56.0963H58.0895V54.8253H106.089ZM188.985 36.3071C184.942 36.1642 180.923 34.8842 177.287 32.9077C170.335 29.1272 164.783 23.2899 158.578 18.3634C145.687 8.10264 129.699 1.91106 113.297 0.375066V54.8253H205.429L205.658 54.5842L188.985 36.3071ZM197.378 34.8187L206.277 44.5824V32.2587C203.297 32.6279 200.686 33.506 197.39 34.8068L197.378 34.8187ZM206.277 187.266V143.121H187.315C187.264 142.933 187.214 142.743 187.154 142.552C187.211 142.743 187.258 142.933 187.312 143.121H113.309V175.046C114.012 175.567 114.705 176.115 115.393 176.671C116.134 177.267 116.867 177.895 117.602 178.511L118.343 179.124C118.698 179.422 119.055 179.72 119.415 179.999C120.13 180.579 120.851 181.15 121.58 181.714C121.94 182.012 122.309 182.28 122.675 182.559C128.489 187.004 134.622 191.014 141.024 194.559C142.459 195.352 143.907 196.127 145.368 196.883C146.342 197.381 147.321 197.875 148.304 198.354C149.78 199.074 151.269 199.769 152.77 200.438C166.604 206.647 181.233 210.907 196.238 213.098C199.57 213.59 202.916 213.977 206.274 214.259V187.263H206.572L206.277 187.266ZM113.309 56.0963V99.3987H206.289V56.0963H113.309ZM113.309 100.67V141.85H206.289V100.67H113.309ZM213.506 32.2052V45.9517L224.864 33.4911C221.101 32.8839 217.315 32.4502 213.506 32.1903V32.2052ZM213.506 100.685V141.85H303.94V100.67L213.506 100.685ZM303.61 190.534L303.928 143.121H213.506V214.732C219.331 214.977 225.165 214.907 230.982 214.523H231.084C233.862 214.349 236.628 214.095 239.381 213.761H239.444C254.131 212.052 268.492 208.221 282.078 202.387L303.61 190.534ZM321.378 107.451C321.039 106.65 320.685 105.855 320.324 105.069C319.651 103.581 318.94 102.134 318.207 100.688H311.151V141.85H328.991C328.982 130.193 326.032 118.286 321.387 107.436L321.378 107.451ZM311.151 143.136V183.917C316.177 179.1 320.423 173.591 323.48 167.292C327.157 159.707 328.839 151.494 328.976 143.13L311.151 143.136ZM311.151 88.6855V99.4017H317.547C315.612 95.7127 313.48 92.1305 311.16 88.6706L311.151 88.6855ZM249.82 40.284C249.349 40.1054 248.879 39.9238 248.405 39.7482C243.413 37.9048 238.311 36.3718 233.129 35.1581L215.748 54.2299L215.414 54.5842L215.638 54.8283H277.499C268.884 48.8988 259.595 44.0116 249.829 40.2691L249.82 40.284ZM279.312 56.1112H214.774L213.506 57.2721V99.3987H224.623H224.641H303.952V78.9933C296.778 70.3179 288.497 62.62 279.321 56.0963L279.312 56.1112Z" fill="#F95555"/>
<path opacity="0.1" d="M34.3368 77.9395V99.3987H4.21581C4.21581 99.2737 4.23665 99.1457 4.24558 99.0207C4.27237 98.6784 4.29917 98.336 4.32894 97.9967C4.36169 97.5978 4.39742 97.196 4.43612 96.806C4.47483 96.4161 4.51651 95.9398 4.56117 95.5082C4.60583 95.0765 4.64751 94.6389 4.69812 94.2073C4.74874 93.7757 4.79339 93.3441 4.84699 92.9154C4.90058 92.4868 4.94821 92.0522 5.00478 91.6235C5.04944 91.2663 5.09707 90.9121 5.14471 90.5549C5.21319 90.0518 5.28464 89.5458 5.36205 89.0457C5.36205 88.9713 5.38289 88.8939 5.3948 88.8224C5.93821 85.1615 6.67864 81.5326 7.61287 77.9514L34.3368 77.9395Z" fill="#F95555"/>
<path opacity="0.1" d="M4.12054 100.673H34.3368V141.85H6.33265C6.25822 142.272 6.18676 142.698 6.10935 143.124H34.3368V176.332C34.2862 176.317 34.2415 176.299 34.1939 176.282C33.396 175.966 32.6041 175.633 31.8121 175.275L31.306 175.046C30.512 174.671 29.7181 174.274 28.9242 173.856C28.6473 173.71 28.3704 173.558 28.0965 173.403C23.6889 170.935 19.6848 167.807 16.2231 164.128C16.1219 164.029 16.0266 163.925 15.9254 163.83C15.4431 163.306 14.9697 162.776 14.5112 162.234L14.0051 161.639C13.4632 160.975 12.9392 160.294 12.4301 159.603C12.3557 159.502 12.2842 159.401 12.2068 159.305C10.1362 156.435 8.41703 153.327 7.0859 150.048C7.04421 149.949 7.00849 149.842 6.96978 149.75C6.56091 148.698 6.19867 147.637 5.88308 146.565C5.74613 146.115 5.61513 145.672 5.50199 145.205C5.46031 145.068 5.42458 144.934 5.39183 144.8C3.70074 138.2 3.50127 131.345 3.50127 124.537C3.50127 123.742 3.50127 122.945 3.50127 122.156C3.50127 119.402 3.53402 116.631 3.58165 113.863C3.58165 113.145 3.61142 112.431 3.62631 111.71C3.66799 109.883 3.72754 108.055 3.80495 106.227C3.82281 105.718 3.84663 105.212 3.87342 104.706C3.87342 104.415 3.88831 104.123 3.91808 103.831C3.98954 102.771 4.04908 101.721 4.12054 100.673Z" fill="#F95555"/>
<path opacity="0.1" d="M64.2703 62.2968V99.3987H41.5508V62.2968H44.79V49.7351H58.0865V62.2968H64.2703Z" fill="#F95555"/>
<path opacity="0.1" d="M64.2703 100.67H41.5537V141.847H64.2703V100.67Z" fill="#F95555"/>
<path opacity="0.1" d="M41.5508 143.124H64.2703V177.356C61.5903 178.126 58.8593 178.706 56.0977 179.092L55.4189 179.175C55.0854 179.214 54.7549 179.246 54.4274 179.279C54.0999 179.312 53.7605 179.336 53.43 179.356H53.3258C53.1829 179.356 53.0281 179.374 52.8882 179.377H52.7363C52.5577 179.377 52.3791 179.395 52.2004 179.401C51.9474 179.416 51.6943 179.419 51.4353 179.422C51.3251 179.422 51.2209 179.422 51.1108 179.422C50.8547 179.422 50.6016 179.422 50.3456 179.422H49.7829C49.6311 179.422 49.4852 179.422 49.3274 179.422L48.7528 179.401C48.455 179.401 48.1335 179.368 47.8239 179.348L47.2522 179.306L46.5406 179.24C46.0405 179.196 45.5433 179.139 45.052 179.071L44.4566 178.987L44.1588 178.946C43.6616 178.868 43.1704 178.785 42.6702 178.69C42.304 178.627 41.9408 178.55 41.5716 178.475L41.5508 143.124Z" fill="#F95555"/>
<path opacity="0.1" d="M206.289 57.9151H187.556V99.3957H206.289V57.9151Z" fill="#F95555"/>
<path opacity="0.1" d="M206.292 100.67V141.85H113.309V124.088H162.836V134.566H187.556V100.67H206.292Z" fill="#F95555"/>
<path opacity="0.1" d="M206.587 187.275H206.289V214.288C202.935 214.005 199.59 213.619 196.256 213.13C181.243 210.933 166.608 206.663 152.77 200.444C148.774 198.646 144.86 196.683 141.027 194.556C134.625 191.009 128.491 186.999 122.675 182.556C121.214 181.437 119.773 180.292 118.349 179.121C117.364 178.309 116.384 177.475 115.393 176.666C114.705 176.109 114.011 175.561 113.309 175.037V143.124H187.309C187.258 142.933 187.208 142.743 187.154 142.555C187.211 142.743 187.264 142.933 187.315 143.124H206.289V187.257C206.39 187.26 206.488 187.269 206.587 187.275Z" fill="#F95555"/>
<path opacity="0.1" d="M255.146 54.8253H242.939V51.0329H248.411V39.7363C248.886 39.9089 249.358 40.0865 249.828 40.2691V51.0329H255.146V54.8253Z" fill="#F95555"/>
<path opacity="0.1" d="M284.555 99.3987H224.629C224.629 99.3987 224.629 99.3987 224.65 99.4136L224.623 99.3987H213.506V57.9181H216.656V88.5783H231.051V70.4203H242.942V56.0993H255.149V70.4322H267.04V88.5902H284.555V99.3987Z" fill="#F95555"/>
<path opacity="0.1" d="M213.506 100.67V141.85H284.555V100.67H213.506ZM303.842 190.323L303.94 157.728H284.555V143.142H213.506V214.732C219.331 214.977 225.165 214.907 230.982 214.523H231.084C233.862 214.349 236.628 214.095 239.381 213.761H239.444C254.131 212.052 268.492 208.221 282.078 202.387" fill="#F95555"/>
<path opacity="0.1" d="M312.414 143.124H328.988C328.842 151.485 327.163 159.698 323.489 167.283C320.431 173.585 316.183 179.095 311.163 183.908V157.713H312.414V143.124Z" fill="#F95555"/>
<path opacity="0.1" d="M328.997 141.85H312.414V107.436H321.387C326.032 118.286 328.982 130.193 328.997 141.85Z" fill="#F95555"/>
<path opacity="0.1" d="M206.292 69.447H196.256V82.4522H206.292V69.447Z" fill="#F95555"/>
<path opacity="0.1" d="M206.292 96.4041H196.256V99.3987H206.292V96.4041Z" fill="#F95555"/>
<path opacity="0.1" d="M206.292 100.67H196.256V109.406H206.292V100.67Z" fill="#F95555"/>
<path opacity="0.1" d="M206.292 123.361H196.256V136.367H206.292V123.361Z" fill="#F95555"/>
<path opacity="0.1" d="M206.292 150.319H196.256V163.324H206.292V150.319Z" fill="#F95555"/>
<path opacity="0.1" d="M206.289 187.257C206.39 187.257 206.488 187.257 206.587 187.275H206.289V190.296H196.256V177.276H206.289V187.257Z" fill="#F95555"/>
<path opacity="0.1" d="M206.289 204.227V214.273C202.935 213.99 199.59 213.604 196.256 213.115V204.227H206.289Z" fill="#F95555"/>
<path opacity="0.1" d="M156.321 140.894H113.309V141.85H156.321V140.894Z" fill="#F95555"/>
<path opacity="0.1" d="M156.321 143.121H113.309V146.782H156.321V143.121Z" fill="#F95555"/>
<path opacity="0.1" d="M156.321 158.784H113.309V164.672H156.321V158.784Z" fill="#F95555"/>
<path opacity="0.1" d="M156.318 176.674V182.562H122.675C121.214 181.447 119.772 180.302 118.346 179.127C117.361 178.315 116.384 177.481 115.39 176.674H156.318Z" fill="#F95555"/>
<path opacity="0.1" d="M156.318 194.562V200.444H152.767C148.775 198.644 144.862 196.68 141.027 194.553L156.318 194.562Z" fill="#F95555"/>
<path opacity="0.1" d="M239.453 104.662H230.985V113.127H239.453V104.662Z" fill="#F95555"/>
<path opacity="0.1" d="M56.1185 65.217H47.6512V73.6828H56.1185V65.217Z" fill="#F95555"/>
<path opacity="0.1" d="M56.1185 84.8812H47.6512V93.347H56.1185V84.8812Z" fill="#F95555"/>
<path opacity="0.1" d="M56.1185 104.545H47.6512V113.011H56.1185V104.545Z" fill="#F95555"/>
<path opacity="0.1" d="M56.1185 124.207H47.6512V132.673H56.1185V124.207Z" fill="#F95555"/>
<path opacity="0.1" d="M56.1185 143.871H47.6512V152.337H56.1185V143.871Z" fill="#F95555"/>
<path opacity="0.1" d="M56.1185 163.535H47.6512V172.001H56.1185V163.535Z" fill="#F95555"/>
<path opacity="0.1" d="M271.777 104.662H263.31V113.127H271.777V104.662Z" fill="#F95555"/>
<path opacity="0.1" d="M239.453 125.543H230.985V134.009H239.453V125.543Z" fill="#F95555"/>
<path opacity="0.1" d="M271.777 125.543H263.31V134.009H271.777V125.543Z" fill="#F95555"/>
<path opacity="0.1" d="M239.453 146.422H230.985V154.888H239.453V146.422Z" fill="#F95555"/>
<path opacity="0.1" d="M271.777 146.422H263.31V154.888H271.777V146.422Z" fill="#F95555"/>
<path opacity="0.1" d="M239.453 167.304H230.985V175.77H239.453V167.304Z" fill="#F95555"/>
<path opacity="0.1" d="M271.777 167.304H263.31V175.77H271.777V167.304Z" fill="#F95555"/>
<path opacity="0.1" d="M239.453 188.185H230.985V196.651H239.453V188.185Z" fill="#F95555"/>
<path opacity="0.1" d="M271.777 188.185H263.31V196.651H271.777V188.185Z" fill="#F95555"/>
<path opacity="0.1" d="M230.985 214.523V209.064H239.45V213.747L230.985 214.523Z" fill="#F95555"/>
<path opacity="0.1" d="M5.35909 88.8165V93.6596H34.3368V88.8165H5.35909ZM8.24704 93.356H5.88308V89.1141H8.2649L8.24704 93.356ZM11.132 93.356H8.75019V89.1141H11.132V93.356ZM14.011 93.356H11.6292V89.1141H14.011V93.356ZM16.896 93.356H14.5172V89.1141H16.899L16.896 93.356ZM19.778 93.356H17.3962V89.1141H19.778V93.356ZM22.663 93.356H20.2811V89.1141H22.663V93.356ZM25.5479 93.356H23.1661V89.1141H25.5479V93.356ZM28.4299 93.356H26.0481V89.1141H28.4299V93.356ZM31.3119 93.356H28.9301V89.1141H31.3119V93.356ZM34.1939 93.356H31.8121V89.1141H34.1939V93.356Z" fill="#F95555"/>
<path opacity="0.1" d="M5.35909 102.908V107.751H34.3368V102.908H5.35909ZM8.24704 107.445H5.88308V103.215H8.2649L8.24704 107.445ZM11.132 107.445H8.75019V103.215H11.132V107.445ZM14.011 107.445H11.6292V103.215H14.011V107.445ZM16.896 107.445H14.5172V103.215H16.899L16.896 107.445ZM19.778 107.445H17.3962V103.215H19.778V107.445ZM22.663 107.445H20.2811V103.215H22.663V107.445ZM25.5479 107.445H23.1661V103.215H25.5479V107.445ZM28.4299 107.445H26.0481V103.215H28.4299V107.445ZM31.3119 107.445H28.9301V103.215H31.3119V107.445ZM34.1939 107.445H31.8121V103.215H34.1939V107.445Z" fill="#F95555"/>
<path opacity="0.1" d="M5.35909 117.006V121.858H34.3368V117.006H5.35909ZM8.24704 121.543H5.88308V117.31H8.2649L8.24704 121.543ZM11.132 121.543H8.75019V117.31H11.132V121.543ZM14.011 121.543H11.6292V117.31H14.011V121.543ZM16.896 121.543H14.5172V117.31H16.899L16.896 121.543ZM19.778 121.543H17.3962V117.31H19.778V121.543ZM22.663 121.543H20.2811V117.31H22.663V121.543ZM25.5479 121.543H23.1661V117.31H25.5479V121.543ZM28.4299 121.543H26.0481V117.31H28.4299V121.543ZM31.3119 121.543H28.9301V117.31H31.3119V121.543ZM34.1939 121.543H31.8121V117.31H34.1939V121.543Z" fill="#F95555"/>
<path opacity="0.1" d="M5.35909 131.104V135.941H34.3368V131.104H5.35909ZM8.24704 135.64H5.88308V131.404H8.2649L8.24704 135.64ZM11.132 135.64H8.75019V131.404H11.132V135.64ZM14.011 135.64H11.6292V131.404H14.011V135.64ZM16.896 135.64H14.5172V131.404H16.899L16.896 135.64ZM19.778 135.64H17.3962V131.404H19.778V135.64ZM22.663 135.64H20.2811V131.404H22.663V135.64ZM25.5479 135.64H23.1661V131.404H25.5479V135.64ZM28.4299 135.64H26.0481V131.404H28.4299V135.64ZM31.3119 135.64H28.9301V131.404H31.3119V135.64ZM34.1939 135.64H31.8121V131.404H34.1939V135.64Z" fill="#F95555"/>
<path opacity="0.1" d="M5.48412 145.199C5.60023 145.654 5.73123 146.109 5.86818 146.559V145.502H8.25V149.735H6.97572C7.01443 149.833 7.05313 149.941 7.09184 150.033H34.3368V145.199H5.48412ZM11.1409 149.735H8.75911V145.502H11.1409V149.735ZM14.0199 149.735H11.6381V145.502H14.0199V149.735ZM16.9049 149.735H14.5171V145.502H16.899L16.9049 149.735ZM19.7869 149.735H17.4051V145.502H19.7869V149.735ZM22.6719 149.735H20.2901V145.502H22.6719V149.735ZM25.5569 149.735H23.175V145.502H25.5569V149.735ZM28.4388 149.735H26.057V145.502H28.4388V149.735ZM31.3208 149.735H28.939V145.502H31.3208V149.735ZM34.2028 149.735H31.821V145.502H34.2028V149.735Z" fill="#F95555"/>
<path opacity="0.1" d="M12.2128 159.296C12.2872 159.392 12.3586 159.499 12.436 159.594H14.011V161.627C14.1807 161.83 14.3475 162.032 14.5201 162.222V159.582H16.9019V163.83H15.9373C16.0326 163.928 16.1249 164.032 16.235 164.128H34.3458V159.296H12.2128ZM19.778 163.83H17.3962V159.6H19.778V163.83ZM22.663 163.83H20.2811V159.6H22.663V163.83ZM25.5479 163.83H23.1661V159.6H25.5479V163.83ZM28.4299 163.83H26.0481V159.6H28.4299V163.83ZM31.3119 163.83H28.9301V159.6H31.3119V163.83ZM34.1939 163.83H31.8121V159.6H34.1939V163.83Z" fill="#F95555"/>
<path opacity="0.1" d="M28.1084 173.391C28.3793 173.546 28.6562 173.689 28.936 173.844V173.695H31.3179V175.034L31.824 175.269V173.695H34.2058V176.27C34.2515 176.292 34.2994 176.31 34.3487 176.323V173.391H28.1084Z" fill="#F95555"/>
<path opacity="0.1" d="M224.629 99.3987H224.647H224.629ZM206.289 187.254H206.587H206.289ZM187.154 142.552C187.211 142.743 187.258 142.933 187.312 143.121C187.264 142.933 187.214 142.743 187.154 142.552ZM224.629 99.3898H224.647H224.629ZM44.8019 54.8163V56.0874H58.1014V54.8163H44.8019ZM206.289 187.254H206.587H206.289ZM187.154 142.552C187.211 142.743 187.258 142.933 187.312 143.121C187.264 142.933 187.214 142.743 187.154 142.552ZM224.629 99.3898H224.647H224.629ZM206.289 187.245H206.587H206.289ZM187.154 142.552C187.211 142.743 187.258 142.933 187.312 143.121C187.264 142.933 187.214 142.743 187.154 142.552Z" fill="#F95555"/>
<path d="M137.431 113.017C137.431 113.017 136.258 112.854 136.258 111.145C136.258 109.436 135.418 106.245 135.418 106.245C135.418 106.23 134.692 100.688 133.688 99.8065C132.685 98.9254 131.396 93.7519 131.396 93.7519C131.396 93.7519 131.175 90.9448 130.726 90.3406C130.276 89.7363 129.669 88.2569 128.773 86.1464C127.877 84.0359 124.14 82.5743 124.14 82.5743C124.14 82.5743 117.385 78.6569 115.47 77.3799C115.296 77.275 115.134 77.1523 114.985 77.0138C114.652 76.5762 113.199 76.5673 113.199 76.5673C113.047 75.6088 112.901 74.5074 112.853 73.5102C112.853 73.403 112.853 73.2959 112.838 73.1887C114.973 71.9271 116.581 69.938 117.367 67.5865C117.403 67.4734 117.432 67.3543 117.465 67.2412C117.593 67.1991 117.711 67.1307 117.811 67.0405C117.911 66.9503 117.991 66.8402 118.046 66.7173C118.218 66.3333 118.221 65.8838 118.436 65.5266C118.686 65.1039 119.162 64.8777 119.537 64.5592C120.484 63.7555 120.728 62.401 120.684 61.1687C120.654 60.1715 120.493 59.1653 120.556 58.1741L120.573 57.9241C120.591 57.7752 120.612 57.6264 120.639 57.4835C120.785 56.7453 121.103 56.0487 121.282 55.3164C121.461 54.5842 121.478 53.7596 121.062 53.1286C120.451 52.2028 119.18 52.0182 118.064 51.923C116.798 51.8158 115.667 51.9557 114.857 50.9049C114.478 50.3557 114.052 49.8408 113.583 49.366C113.416 49.2112 111.796 48.2229 111.796 48.1574C110.216 47.4254 108.424 47.288 106.75 47.7705C105.91 48.0145 105.118 48.4134 104.267 48.6129C102.43 49.0475 100.316 48.5771 98.756 49.6279C97.8866 50.2233 97.3656 51.1699 96.8773 52.0927C96.4803 52.8527 96.0774 53.6118 95.6685 54.3698C95.0106 55.6171 94.3407 56.8852 94.0638 58.2664C94.0056 58.5669 93.9698 58.8714 93.9566 59.1773V59.1921C93.9566 59.3023 93.9566 59.4124 93.9566 59.5226V59.6625C93.9566 59.7666 93.9566 59.8679 93.9745 59.9601C93.9923 60.0524 93.9894 60.0822 93.9983 60.1447C94.0072 60.2072 94.0221 60.3471 94.04 60.4424C94.0578 60.5376 94.0936 60.7043 94.1293 60.8353C94.1442 60.8918 94.165 60.9454 94.1829 60.999C94.2127 61.1002 94.2484 61.1984 94.2871 61.2967C94.3079 61.3473 94.3288 61.4009 94.3526 61.4515C94.3972 61.5557 94.4508 61.6569 94.5044 61.7491C94.5283 61.7908 94.5461 61.8295 94.5699 61.8682C94.653 62.0066 94.7445 62.1399 94.8438 62.2671C95.481 63.0619 96.4188 63.5679 97.1125 64.3121C97.1125 64.3419 97.1125 64.3716 97.1125 64.3984C97.1125 64.4818 97.1125 64.5621 97.1125 64.6455C97.1493 66.3052 97.5912 67.9307 98.3996 69.3808C99.208 70.8308 100.359 72.0614 101.751 72.9654C101.751 73.0786 101.766 73.1946 101.772 73.3078C101.83 74.1914 101.819 75.0781 101.739 75.96C101.618 75.8173 101.466 75.7035 101.295 75.6273C101.124 75.551 100.938 75.5142 100.751 75.5195C100.623 75.5132 100.495 75.5242 100.37 75.5522L100.343 75.5314V75.5582C99.6879 75.7189 98.881 76.4006 98.1099 78.3384C98.1099 78.3384 95.7638 80.9818 93.9775 80.8716C92.1911 80.7615 87.6686 83.6221 87.6686 83.6221C87.6686 83.6221 83.2563 86.4857 82.3096 89.4029C81.7803 91.0571 81.1459 92.6758 80.4101 94.249L74.9557 105.486L73.9494 114.401C73.9494 114.401 74.5061 118.366 74.396 118.971C74.2858 119.575 76.6855 125.025 76.6855 125.025C76.6855 125.025 84.614 138.953 87.8532 139.668L88.0854 139.504C88.224 139.576 88.371 139.631 88.5231 139.668L89.19 139.198C89.2301 139.722 89.2131 140.249 89.1394 140.769C88.6928 142.144 89.3061 151.119 90.0862 152.879C90.8662 154.638 90.5893 177.704 90.5893 177.704L90.4792 179.74C90.4792 179.74 90.4792 179.806 90.506 179.919L90.4792 180.401L90.5596 180.443C90.643 181.089 90.6158 181.744 90.4792 182.381C90.1993 183.274 90.0862 185.798 90.0862 185.798C90.0862 185.798 87.8562 200.051 88.9131 202.914C89.9701 205.778 90.8692 208.915 90.8692 208.915C90.8692 208.915 91.9857 212.487 90.9228 213.098C89.8599 213.708 86.838 214.732 87.4602 216.22C88.0259 217.595 90.1725 221.281 90.4911 221.819L90.4643 222.102L90.0266 226.844C90.0975 227.47 90.2673 228.081 90.5298 228.654C91.0091 229.687 91.941 230.759 93.7125 230.642C94.0102 230.622 94.3556 230.586 94.689 230.541C97.9313 230.107 101.924 228.66 101.924 228.66C101.717 228.528 101.526 228.371 101.358 228.193C101.199 228.038 101.072 227.853 100.987 227.648C100.902 227.444 100.859 227.224 100.861 227.002C100.909 226.139 99.2919 222.025 98.89 221.013C98.8274 220.867 98.7947 220.784 98.7947 220.784C98.7947 220.784 102.481 216.932 101.867 213.517C101.867 213.517 97.7884 211.136 99.1311 209.829C100.474 208.522 102.874 204.769 102.874 204.769C102.874 204.769 102.984 190.734 102.874 188.638C102.759 187.183 102.828 185.72 103.079 184.283C103.124 184.066 103.177 183.854 103.234 183.646C105.091 183.923 106.965 184.065 108.843 184.072C109.528 184.072 110.224 184.072 110.927 184.03C110.927 184.228 110.936 184.443 110.954 184.673C111.109 188.15 111.397 194.246 111.633 196.511C111.966 199.759 113.809 208.51 113.809 208.51C113.809 208.51 110.293 210.767 114.422 216.327C114.422 216.327 114.422 218.343 114.148 218.634C113.856 219.588 113.62 220.558 113.443 221.54C113.27 222.587 113.199 223.647 113.479 224.198C114.148 225.514 118.168 225.406 118.168 225.406L118.266 225.389C119.025 225.31 119.792 225.383 120.522 225.603C121.252 225.824 121.932 226.187 122.521 226.671C124.048 227.898 129.845 227.359 132.983 226.969C134.212 226.814 135.034 226.671 135.034 226.671C135.074 226.532 135.088 226.387 135.076 226.243C135.043 225.472 134.439 223.781 130.342 222.272C130.342 222.272 126.489 219.682 126.543 217.426H126.462H126.016C126.34 217.408 126.549 217.426 126.549 217.426C126.549 217.426 125.039 211.919 125.656 211.472C126.272 211.026 124.426 204.924 124.426 204.924C124.426 204.924 123.369 194.684 123.312 193.966C123.315 193.351 123.408 192.739 123.589 192.15L123.312 186.536C123.312 186.536 123.259 184.67 123.312 184.063C123.303 183.536 123.261 183.01 123.184 182.488C123.158 182.28 123.131 182.062 123.101 181.848C124.545 181.482 125.483 181.143 125.483 181.143L125.316 161.6C126.543 159.219 126.769 153.995 126.763 150.289C126.763 147.907 126.656 146.145 126.656 146.145L128.332 143.41C128.332 143.41 128.719 140.135 128.106 139.418C127.835 139.093 127.957 138.757 128.18 138.48C128.296 138.388 128.419 138.305 128.547 138.23C128.547 138.23 128.529 138.203 128.508 138.165C128.625 138.067 128.749 137.978 128.88 137.9C128.88 137.9 128.285 136.977 128.817 136.587C129.318 136.926 129.764 137.182 130.104 137.391C130.08 137.608 130.056 137.733 130.056 137.733L130.199 137.435C130.526 137.62 130.726 137.733 130.726 137.733C130.726 137.733 133.352 132.503 133.295 131.732C133.239 130.961 135.082 127.713 135.082 127.713C135.082 127.713 135.305 126.008 136.311 125.293C137.318 124.579 137.091 119.402 137.091 119.402C137.091 119.402 137.371 116.705 138.041 115.604C138.711 114.503 137.431 113.017 137.431 113.017ZM87.1863 110.722L87.2369 111.969C86.9392 111.49 86.7248 111.145 86.7248 111.145L87.1863 110.722Z" fill="url(#paint0_linear)"/>
<path d="M130.869 135.474L130.226 138.212C130.226 138.212 125.075 135.584 124.146 132.244C123.217 128.904 125.7 127.636 125.7 127.636L130.5 129.669L130.869 135.474Z" fill="white"/>
<path opacity="0.1" d="M130.869 135.474L130.226 138.212C130.226 138.212 125.075 135.584 124.146 132.244C123.217 128.904 125.7 127.636 125.7 127.636L130.5 129.669L130.869 135.474Z" fill="black"/>
<path d="M101.962 228.678C101.962 228.678 97.1989 230.428 93.9239 230.648C92.1851 230.764 91.2711 229.699 90.8007 228.672C90.5437 228.101 90.378 227.493 90.3095 226.871L90.7352 222.153L90.9615 219.64L97.9194 217.834L98.9048 220.846L98.9971 221.075C99.3931 222.081 100.98 226.174 100.932 227.029C100.93 227.247 100.973 227.464 101.057 227.666C101.14 227.868 101.264 228.051 101.421 228.205C101.58 228.385 101.762 228.544 101.962 228.678Z" fill="white"/>
<path d="M134.501 226.279C134.513 226.422 134.499 226.566 134.459 226.704C134.459 226.704 124.271 228.404 122.187 226.704C121.599 226.208 120.915 225.839 120.176 225.623C119.438 225.407 118.663 225.347 117.9 225.448C117.9 225.448 113.958 225.555 113.3 224.257C113.026 223.713 113.097 222.656 113.267 221.614C113.44 220.638 113.671 219.673 113.958 218.724L114.116 218.599L115.054 217.846L126.034 217.521H126.117C126.063 219.765 129.845 222.34 129.845 222.34C133.861 223.829 134.453 225.511 134.501 226.279Z" fill="white"/>
<path opacity="0.1" d="M134.501 226.279C134.511 226.422 134.496 226.566 134.456 226.704C134.456 226.704 124.271 228.404 122.187 226.704C121.6 226.208 120.915 225.84 120.178 225.624C119.44 225.407 118.665 225.348 117.903 225.448C117.903 225.448 113.958 225.555 113.303 224.257C113.029 223.71 113.097 222.656 113.267 221.614C114.786 221.766 117.182 222.144 118.123 223.046C119.546 224.418 121.958 225.787 123.438 225.895C124.596 225.969 131.524 226.189 134.501 226.279Z" fill="black"/>
<path opacity="0.1" d="M101.962 228.678C101.962 228.678 97.1989 230.428 93.9239 230.648C92.1851 230.764 91.2711 229.699 90.8037 228.669C92.0154 229.077 93.6976 229.505 94.5818 229.112C95.6298 228.648 99.3455 228.347 101.43 228.219C101.588 228.393 101.767 228.547 101.962 228.678Z" fill="black"/>
<path d="M109.031 87.6258C105.101 86.0987 100.045 81.0532 101.307 78.6956C101.588 78.1007 101.754 77.4586 101.799 76.8024C101.88 75.9117 101.892 75.016 101.834 74.1234C101.746 72.6615 101.57 71.2063 101.307 69.7654C101.307 69.7654 113.577 70.0423 112.862 71.8491C112.654 72.379 112.621 73.2988 112.678 74.3288C112.734 75.3587 112.883 76.5226 113.038 77.5079C113.252 78.8593 113.467 79.8893 113.467 79.8893C113.467 79.8893 112.716 80.9401 112.276 80.9966C111.835 81.0532 114.669 89.8018 109.031 87.6258Z" fill="#CF6F80"/>
<path opacity="0.1" d="M98.9882 221.075L98.8959 221.176C95.2279 216.741 90.7918 222.269 90.7918 222.269L90.7263 222.153L90.9526 219.64L97.9104 217.834L98.8959 220.846L98.9882 221.075Z" fill="black"/>
<path opacity="0.1" d="M126.12 217.834C126.12 217.834 123.44 217.777 122.011 219.039C120.582 220.301 113.675 219.313 113.973 219.039C114.061 218.903 114.114 218.748 114.128 218.587L115.065 217.834L126.046 217.509C126.087 217.709 126.12 217.834 126.12 217.834Z" fill="black"/>
<path d="M103.552 183.003C103.353 183.496 103.201 184.008 103.1 184.53C102.852 185.961 102.783 187.417 102.894 188.864C103.005 190.948 102.894 204.912 102.894 204.912C102.894 204.912 100.539 208.636 99.2264 209.948C97.9134 211.261 101.906 213.619 101.906 213.619C102.501 217.012 98.8929 220.846 98.8929 220.846C95.2249 216.411 90.7888 221.941 90.7888 221.941C90.7888 221.941 88.3772 217.774 87.7758 216.286C87.1744 214.797 90.1308 213.767 91.1699 213.163C92.209 212.559 91.1193 208.996 91.1193 208.996C91.1193 208.996 90.241 205.873 89.1989 203.024C88.1569 200.176 90.3482 185.995 90.3482 185.995C90.3482 185.995 90.4613 183.476 90.7322 182.598C90.8689 181.964 90.8961 181.312 90.8126 180.669C90.7948 180.452 90.7739 180.27 90.759 180.148C90.7441 180.026 90.7322 179.97 90.7322 179.97L90.7739 179.898L92.2626 177.124C92.2626 177.124 104.267 181.256 103.552 183.003Z" fill="#F95555"/>
<path d="M126.12 217.506C126.12 217.506 123.44 217.45 122.011 218.697C120.582 219.944 113.675 218.971 113.973 218.697C114.271 218.423 114.247 216.396 114.247 216.396C110.195 210.865 113.651 208.621 113.651 208.621C113.651 208.621 111.841 199.914 111.514 196.684C111.284 194.428 111.001 188.364 110.85 184.902C110.784 183.414 110.745 182.39 110.745 182.39L114.056 181.723L114.482 181.637L122.467 180.035C122.467 180.035 122.687 181.524 122.836 182.741C122.91 183.261 122.952 183.785 122.961 184.31C122.908 184.905 122.961 186.769 122.961 186.769L123.232 192.356C123.055 192.942 122.964 193.551 122.961 194.163C123.015 194.874 124.054 205.06 124.054 205.06C124.054 205.06 125.861 211.139 125.245 211.577C124.628 212.014 126.12 217.506 126.12 217.506Z" fill="#F95555"/>
<path opacity="0.1" d="M112.862 71.8491C112.654 72.379 112.621 73.2988 112.678 74.3288C111.034 75.3182 109.145 75.8241 107.227 75.7883C105.309 75.7525 103.44 75.1764 101.834 74.1263C101.746 72.6635 101.57 71.2072 101.307 69.7654C101.307 69.7654 113.577 70.0363 112.862 71.8491Z" fill="black"/>
<path d="M117.605 65.2706C117.607 66.3433 117.439 67.4095 117.105 68.4289C116.359 70.7131 114.829 72.6602 112.787 73.9259C110.744 75.1917 108.319 75.6946 105.941 75.3459C103.563 74.9971 101.385 73.8191 99.792 72.0201C98.1988 70.2211 97.2929 67.9169 97.2346 65.5147C97.2346 65.4314 97.2346 65.354 97.2346 65.2706C97.2115 63.9185 97.4579 62.5753 97.9594 61.3193C98.461 60.0634 99.2076 58.9199 100.156 57.9555C101.104 56.9911 102.235 56.2251 103.482 55.7023C104.73 55.1794 106.069 54.9101 107.421 54.9101C108.774 54.9101 110.113 55.1794 111.36 55.7023C112.608 56.2251 113.739 56.9911 114.687 57.9555C115.635 58.9199 116.382 60.0634 116.883 61.3193C117.385 62.5753 117.631 63.9185 117.608 65.2706H117.605Z" fill="#CF6F80"/>
<path opacity="0.1" d="M109.031 87.6258C105.101 86.0987 100.045 81.0532 101.307 78.6956C101.588 78.1007 101.754 77.4586 101.799 76.8024L107.179 81.2229L110.507 83.9525L113.038 77.5109C113.252 78.8623 113.467 79.8923 113.467 79.8923C113.467 79.8923 112.716 80.9431 112.276 80.9996C111.835 81.0562 114.669 89.8018 109.031 87.6258Z" fill="black"/>
<path d="M122.943 107.162L118.451 182.622L112.591 183.006L97.4192 139.251L99.9082 87.3043L100.432 76.3291L107.179 81.8688L110.51 84.5985L113.115 77.9693L117.959 82.1903L122.943 107.162Z" fill="#F95555"/>
<path opacity="0.1" d="M103.552 183.003C103.353 183.496 103.201 184.008 103.1 184.53C98.8363 183.872 94.6956 182.579 90.8156 180.693L90.7352 180.651L90.762 180.172L90.7769 179.922L92.2655 177.148C92.2655 177.148 104.267 181.256 103.552 183.003Z" fill="black"/>
<path opacity="0.1" d="M114.125 184.542C113.035 184.727 111.935 184.852 110.832 184.917C110.766 183.429 110.728 182.405 110.728 182.405L114.038 181.738L114.125 184.542Z" fill="black"/>
<path opacity="0.1" d="M122.818 182.756C120.701 183.307 117.432 183.926 114.506 183.539L114.464 181.652L122.449 180.05C122.449 180.05 122.669 181.524 122.818 182.756Z" fill="black"/>
<path opacity="0.1" d="M114.452 183.884C102.245 185.968 91.0657 179.993 91.0657 179.993L91.1729 177.969C91.1729 177.969 91.4498 155.022 90.6816 153.263C89.9135 151.503 89.3151 142.582 89.7497 141.213C90.1844 139.843 88.1628 119.31 88.1628 119.31L87.8354 110.975L75.8489 106.12L81.208 94.9515C81.9318 93.3856 82.5543 91.7749 83.0717 90.1292C84.0036 87.2299 88.3296 84.3812 88.3296 84.3812C88.3296 84.3812 92.7657 81.5354 94.5193 81.6426C96.2729 81.7497 98.5714 79.1243 98.5714 79.1243C100.268 74.7991 101.805 76.7578 101.805 76.7578C101.805 76.9632 101.805 76.7578 101.721 77.3978C101.126 82.1456 111.35 97.1483 111.496 97.4132L112.469 121.126L113.455 151.134L114.452 183.884Z" fill="black"/>
<path d="M114.125 183.884C101.918 185.968 90.7352 179.993 90.7352 179.993L90.8454 177.969C90.8454 177.969 91.1222 155.022 90.3511 153.263C89.58 151.503 88.9846 142.582 89.4222 141.213C89.8599 139.843 87.8354 119.31 87.8354 119.31L87.5049 110.975L75.5124 106.102L80.8715 94.9336C81.5938 93.3671 82.2163 91.7564 82.7353 90.1114C83.6642 87.212 87.9931 84.3633 87.9931 84.3633C87.9931 84.3633 92.4293 81.5176 94.1799 81.6247C95.9305 81.7319 98.232 79.1064 98.232 79.1064C99.932 74.7812 101.805 76.7399 101.805 76.7399C101.805 76.9453 101.626 77.0376 101.721 77.3799C103.031 81.9849 111.022 97.1305 111.168 97.3954L112.154 121.108L113.139 151.116L114.125 183.884Z" fill="white"/>
<path opacity="0.1" d="M110.835 98.0711C109.522 97.5234 102.567 89.5845 102.567 89.5845V87.7776C102.314 87.1823 100.81 87.5454 99.5896 87.9622L100.114 76.987L100.709 77.4811C102.013 82.0831 110.683 97.8062 110.835 98.0711Z" fill="black"/>
<path d="M111.165 97.4133C109.849 96.8655 102.894 88.9266 102.894 88.9266V87.1198C102.641 86.5244 101.138 86.8876 99.9171 87.3043L100.444 76.3291L101.04 76.8233C102.347 81.4253 111.019 97.1513 111.165 97.4133Z" fill="white"/>
<path opacity="0.1" d="M91.0657 137.007C91.2294 137.007 99.5539 136.132 99.5539 136.132C99.5539 136.132 104.594 146.041 104.264 148.452C103.933 150.863 103.335 152.998 101.307 152.62C99.28 152.242 90.3958 152.917 90.3958 152.917L91.0657 137.007Z" fill="black"/>
<path d="M90.7352 136.349C90.899 136.349 99.2234 135.474 99.2234 135.474C99.2234 135.474 104.261 145.386 103.933 147.794C103.606 150.202 103.002 152.34 100.977 151.962C98.9525 151.584 90.0653 152.259 90.0653 152.259L90.7352 136.349Z" fill="white"/>
<path d="M97.0083 131.696C97.0083 131.696 104.648 135.801 104.812 137.054C104.975 138.307 100.923 136.507 100.048 136.289C99.472 136.15 98.8855 136.059 98.2945 136.015L92.4561 136.173L97.0083 131.696Z" fill="#CF6F80"/>
<path opacity="0.1" d="M108.703 98.5831C109.147 98.5831 109.507 98.2233 109.507 97.7794C109.507 97.3355 109.147 96.9757 108.703 96.9757C108.259 96.9757 107.899 97.3355 107.899 97.7794C107.899 98.2233 108.259 98.5831 108.703 98.5831Z" fill="black"/>
<path d="M108.703 98.2557C109.147 98.2557 109.507 97.8958 109.507 97.452C109.507 97.0081 109.147 96.6482 108.703 96.6482C108.259 96.6482 107.899 97.0081 107.899 97.452C107.899 97.8958 108.259 98.2557 108.703 98.2557Z" fill="#3F3D56"/>
<path opacity="0.1" d="M110.183 133.375C110.627 133.375 110.987 133.015 110.987 132.571C110.987 132.127 110.627 131.768 110.183 131.768C109.739 131.768 109.379 132.127 109.379 132.571C109.379 133.015 109.739 133.375 110.183 133.375Z" fill="black"/>
<path d="M110.183 133.045C110.627 133.045 110.987 132.685 110.987 132.241C110.987 131.797 110.627 131.437 110.183 131.437C109.739 131.437 109.379 131.797 109.379 132.241C109.379 132.685 109.739 133.045 110.183 133.045Z" fill="#3F3D56"/>
<path opacity="0.1" d="M109.504 115.979C109.948 115.979 110.308 115.619 110.308 115.175C110.308 114.731 109.948 114.372 109.504 114.372C109.06 114.372 108.7 114.731 108.7 115.175C108.7 115.619 109.06 115.979 109.504 115.979Z" fill="black"/>
<path d="M109.504 115.652C109.948 115.652 110.308 115.292 110.308 114.848C110.308 114.404 109.948 114.044 109.504 114.044C109.06 114.044 108.7 114.404 108.7 114.848C108.7 115.292 109.06 115.652 109.504 115.652Z" fill="#3F3D56"/>
<path d="M128.034 135.849C128.034 135.849 128.582 136.67 128.034 137.054C127.487 137.438 128.088 138.367 128.088 138.367C128.088 138.367 126.721 139.168 127.323 139.888C127.924 140.608 127.543 143.862 127.543 143.862L125.9 146.583C125.9 146.583 125.998 148.336 126.004 150.706C126.004 154.403 125.787 159.6 124.584 161.969L124.751 181.41C124.751 181.41 118.995 183.512 114.178 182.872L113.464 151.676C113.464 151.676 114.506 133.985 114.89 130.592C115.115 128.83 115.206 127.054 115.164 125.278C115.164 125.278 115 119.968 114.449 117.503C114.449 117.503 113.854 106.826 113.794 103.87C113.767 102.456 113.842 98.3301 113.925 94.4068C114.017 90.1173 114.122 86.0719 114.122 86.0719L113.035 77.4752C113.035 77.4752 114.122 77.365 114.449 77.8026C114.596 77.9396 114.755 78.0622 114.926 78.1687C116.801 79.4368 123.429 83.3363 123.429 83.3363C123.429 83.3363 127.097 84.7949 127.975 86.8846C128.853 88.9742 129.464 90.4567 129.889 91.052C130.315 91.6473 130.547 94.4455 130.547 94.4455C130.547 94.4455 131.81 99.5952 132.795 100.467C133.781 101.34 134.501 106.888 134.501 106.888L125.793 113.735C125.793 113.735 125.027 125.124 124.864 125.564C124.7 126.005 128.034 135.849 128.034 135.849Z" fill="white"/>
<path d="M128.365 135.849C128.365 135.849 128.91 136.67 128.365 137.054C127.82 137.438 128.416 138.367 128.416 138.367C128.416 138.367 127.058 139.177 127.653 139.897C128.249 140.617 127.874 143.871 127.874 143.871L126.23 146.592C126.23 146.592 126.328 148.345 126.337 150.714C126.337 154.412 126.12 159.609 124.917 161.978L125.081 181.419C125.081 181.419 119.317 183.521 114.506 182.881L113.794 151.685C113.794 151.685 114.836 133.994 115.22 130.601C115.445 128.839 115.536 127.063 115.491 125.287C115.491 125.287 115.327 119.977 114.78 117.512C114.78 117.512 114.184 106.835 114.122 103.879C114.095 102.465 114.172 98.339 114.253 94.4157C114.345 90.1262 114.449 86.0809 114.449 86.0809L113.014 77.368C113.014 77.368 114.449 77.368 114.78 77.8115C114.925 77.9502 115.085 78.0729 115.256 78.1777C117.132 79.4458 123.762 83.3453 123.762 83.3453C123.762 83.3453 127.427 84.8039 128.305 86.8935C129.184 88.9832 129.794 90.4656 130.223 91.0609C130.651 91.6563 130.878 94.4544 130.878 94.4544C130.878 94.4544 132.14 99.6041 133.126 100.476C134.111 101.348 134.823 106.885 134.823 106.885L126.114 113.732C126.114 113.732 125.349 125.121 125.182 125.561C125.015 126.002 128.365 135.849 128.365 135.849Z" fill="white"/>
<path opacity="0.1" d="M117.936 88.6081L118.722 90.9002L114.583 95.0676C114.675 90.7811 114.78 86.7328 114.78 86.7328L113.345 78.0199C113.345 78.0199 114.78 78.0199 115.11 78.4634C115.255 78.6017 115.415 78.7235 115.586 78.8266L119.106 88.9772L117.936 88.6081Z" fill="black"/>
<path d="M117.605 87.9503L118.394 90.2423L114.256 94.4097C114.348 90.1203 114.452 86.0749 114.452 86.0749L113.014 77.362C113.014 77.362 114.452 77.3621 114.78 77.8056C114.926 77.9434 115.085 78.066 115.256 78.1717L118.778 88.3194L117.605 87.9503Z" fill="white"/>
<path opacity="0.1" d="M117.605 65.2706C117.607 66.3433 117.439 67.4094 117.105 68.4289C117.049 68.4377 116.991 68.4351 116.936 68.4213C116.881 68.4075 116.829 68.3827 116.783 68.3485C116.706 65.6695 115.387 63.1542 113.764 61.0139C113.309 60.3677 112.757 59.7954 112.127 59.3172C111.49 58.8391 110.699 58.6152 109.906 58.6891C109.013 58.8111 108.224 59.4184 107.322 59.4958C106.131 59.594 105.065 58.7694 103.883 58.7278C103.402 58.7323 102.928 58.8393 102.492 59.0416C102.057 59.2438 101.669 59.5367 101.355 59.9006C100.734 60.635 100.273 61.4906 100 62.4129C99.5323 63.8115 99.2774 65.2726 99.2442 66.7471C99.2294 67.5805 99.149 68.6254 98.3749 68.929C98.4332 68.316 98.3635 67.6976 98.1703 67.113C97.9771 66.5283 97.6645 65.9902 97.2525 65.5326L97.2346 65.5147C97.2346 65.4313 97.2346 65.354 97.2346 65.2706C97.2115 63.9185 97.4579 62.5753 97.9594 61.3193C98.461 60.0634 99.2076 58.9199 100.156 57.9555C101.104 56.9911 102.235 56.2251 103.482 55.7023C104.73 55.1794 106.069 54.9101 107.421 54.9101C108.774 54.9101 110.113 55.1794 111.36 55.7023C112.608 56.2251 113.739 56.9911 114.687 57.9555C115.635 58.9199 116.382 60.0634 116.883 61.3193C117.385 62.5753 117.631 63.9185 117.608 65.2706H117.605Z" fill="black"/>
<path d="M111.639 49.0981C110.092 48.3704 108.332 48.2328 106.69 48.7111C105.866 48.9552 105.089 49.3511 104.252 49.5505C102.466 49.9821 100.382 49.5148 98.8483 50.5596C97.9968 51.155 97.4847 52.0956 97.0083 53.0095L95.8174 55.2777C95.1684 56.519 94.5134 57.7811 94.2424 59.1475C93.9715 60.5138 94.1353 62.0438 95.0016 63.1422C95.6328 63.943 96.5647 64.446 97.2495 65.1991C97.6597 65.6572 97.9709 66.1951 98.1635 66.779C98.3562 67.363 98.4261 67.9804 98.3689 68.5926C99.146 68.2949 99.2204 67.2471 99.2383 66.4136C99.2715 64.9392 99.5264 63.4781 99.9945 62.0795C100.266 61.1569 100.728 60.3012 101.349 59.5672C101.663 59.2035 102.051 58.9109 102.487 58.7087C102.923 58.5064 103.396 58.3993 103.877 58.3944C105.068 58.436 106.137 59.2576 107.316 59.1594C108.209 59.085 109.001 58.4747 109.9 58.3557C110.693 58.2807 111.485 58.5047 112.121 58.9837C112.75 59.4613 113.302 60.0337 113.755 60.6805C115.381 62.8207 116.7 65.3301 116.777 68.0151C117.114 68.2622 117.599 67.9407 117.766 67.5597C117.933 67.1787 117.939 66.7322 118.15 66.369C118.394 65.9493 118.861 65.726 119.228 65.4105C120.157 64.6097 120.389 63.2613 120.353 62.0379C120.317 60.8144 120.079 59.5731 120.311 58.3705C120.451 57.6323 120.767 56.9417 120.94 56.2124C121.112 55.4831 121.133 54.6645 120.725 54.0364C120.13 53.1137 118.876 52.9321 117.784 52.8457C116.542 52.7386 115.432 52.8755 114.64 51.8307C114.268 51.2855 113.85 50.7735 113.389 50.3006C113.231 50.1459 111.639 49.1635 111.639 49.0981Z" fill="#512E4E"/>
<path opacity="0.1" d="M79.2787 111.871L76.1674 106.12L75.182 114.994C75.182 114.994 75.7298 118.935 75.6196 119.539C75.5095 120.144 77.8645 125.561 77.8645 125.561C77.8645 125.561 85.6441 139.415 88.8208 140.129L99.5539 132.461L96.7076 128.847C96.7076 128.847 95.7221 128.463 95.475 128.847C95.475 128.847 90.1904 119.757 89.6426 119.099C89.0947 118.441 89.2019 117.128 89.2019 117.128C89.2019 117.128 88.3802 116.253 88.6541 115.431C88.928 114.61 87.0672 111.761 87.0672 111.761L88.7643 110.174L79.2787 111.871Z" fill="black"/>
<path d="M76.3312 105.465L75.5095 106.12L74.524 114.994C74.524 114.994 75.0718 118.935 74.9616 119.539C74.8515 120.144 77.2095 125.561 77.2095 125.561C77.2095 125.561 84.9861 139.415 88.1629 140.129L98.8989 132.461L96.0496 128.847C96.0496 128.847 95.0642 128.463 94.8171 128.847C94.8171 128.847 89.5324 119.757 88.9846 119.099C88.4368 118.441 88.5469 117.128 88.5469 117.128C88.5469 117.128 87.7252 116.253 87.9991 115.431C88.273 114.61 86.4092 111.761 86.4092 111.761L88.1063 110.174L76.3312 105.465Z" fill="white"/>
<path opacity="0.1" d="M127.323 140.227C127.918 140.951 127.543 144.198 127.543 144.198L125.9 146.919C125.9 146.919 125.998 148.675 126.004 151.042L123.241 151.905C122.991 151.983 122.727 152 122.469 151.955C122.211 151.91 121.968 151.804 121.76 151.646C121.551 151.488 121.384 151.282 121.271 151.046C121.159 150.81 121.104 150.55 121.112 150.289L121.589 134.926L128.034 137.391C127.487 137.772 128.088 138.706 128.088 138.706C128.088 138.706 126.721 139.504 127.323 140.227Z" fill="black"/>
<path d="M127.653 139.897C128.249 140.62 127.874 143.871 127.874 143.871L126.23 146.592C126.23 146.592 126.328 148.345 126.337 150.714L123.524 151.593C123.279 151.669 123.02 151.685 122.768 151.641C122.516 151.596 122.278 151.492 122.074 151.337C121.87 151.182 121.706 150.981 121.596 150.75C121.486 150.519 121.432 150.265 121.44 150.009L121.919 134.598L128.368 137.063C127.817 137.444 128.419 138.376 128.419 138.376C128.419 138.376 127.058 139.177 127.653 139.897Z" fill="white"/>
<path d="M129.788 132.574C129.788 132.574 129.35 135.369 128.255 135.533C127.159 135.697 126.668 140.055 125.575 139.9C124.483 139.745 125.206 135.849 125.245 135.093C125.283 134.337 124.054 131.205 124.974 130.494C125.894 129.782 128.806 130.494 128.806 130.494L129.788 132.574Z" fill="#CF6F80"/>
<path opacity="0.1" d="M132.119 111.05L134.185 106.882C134.185 106.882 135.007 110.058 135.007 111.755C135.007 113.452 136.156 113.619 136.156 113.619C136.156 113.619 137.416 115.107 136.752 116.19C136.088 117.274 135.82 119.971 135.82 119.971C135.82 119.971 136.037 125.118 135.052 125.829C134.066 126.54 133.861 128.24 133.861 128.24C133.861 128.24 132.051 131.47 132.107 132.238C132.164 133.006 129.589 138.206 129.589 138.206C129.589 138.206 130.848 131.744 123.509 128.952C123.509 128.952 123.452 126.758 124 126.156C124.548 125.555 125.403 125.281 124.867 122.242C124.331 119.203 124.712 115.571 124.712 114.842C124.712 114.113 126.355 109.564 126.355 109.564L132.119 111.05Z" fill="black"/>
<path d="M133.012 106.287L134.817 106.882C134.817 106.882 135.641 110.058 135.641 111.755C135.641 113.452 136.791 113.619 136.791 113.619C136.791 113.619 138.05 115.107 137.386 116.19C136.722 117.274 136.457 119.971 136.457 119.971C136.457 119.971 136.674 125.118 135.689 125.829C134.703 126.54 134.483 128.24 134.483 128.24C134.483 128.24 132.676 131.47 132.733 132.238C132.789 133.006 130.211 138.206 130.211 138.206C130.211 138.206 131.473 131.744 124.131 128.952C124.131 128.952 124.078 126.758 124.625 126.156C125.173 125.555 126.028 125.281 125.492 122.242C124.956 119.203 125.337 115.571 125.337 114.842C125.337 114.113 126.98 109.564 126.98 109.564L133.012 106.287Z" fill="white"/>
<path opacity="0.1" d="M93.1617 214.303C93.1617 214.303 96.0377 212.496 97.9253 213.809C99.8129 215.122 93.1617 214.303 93.1617 214.303Z" fill="black"/>
<path opacity="0.1" d="M115.509 208.716C115.509 208.716 118.055 208.388 120.192 210.689C122.33 212.99 115.509 208.716 115.509 208.716Z" fill="black"/>
<g opacity="0.1">
<path opacity="0.1" d="M119.234 64.7586C118.867 65.0741 118.397 65.3004 118.153 65.7201C117.944 66.0803 117.938 66.5238 117.772 66.9108C117.605 67.2977 117.12 67.6133 116.783 67.3692C116.706 64.6901 115.384 62.1748 113.761 60.0316C113.308 59.3848 112.756 58.8124 112.127 58.3348C111.49 57.8558 110.697 57.6319 109.903 57.7068C109.01 57.8288 108.224 58.4361 107.322 58.5105C106.131 58.6117 105.062 57.7871 103.88 57.7455C103.4 57.7502 102.926 57.8576 102.49 58.0604C102.055 58.2632 101.668 58.5567 101.355 58.9213C100.734 59.6542 100.272 60.5089 100 61.4306C99.5326 62.8293 99.2777 64.2903 99.2442 65.7647C99.2264 66.5952 99.149 67.6311 98.3808 67.9407C98.3987 68.1606 98.3987 68.3816 98.3808 68.6016C99.1549 68.3039 99.2323 67.2561 99.2502 66.4226C99.2834 64.9481 99.5383 63.4871 100.006 62.0885C100.278 61.1659 100.74 60.3102 101.361 59.5761C101.674 59.2126 102.062 58.9199 102.497 58.7177C102.932 58.5155 103.406 58.4083 103.886 58.4033C105.077 58.445 106.149 59.2666 107.328 59.1683C108.221 59.0939 109.013 58.4837 109.909 58.3646C110.703 58.2897 111.496 58.5137 112.133 58.9927C112.762 59.4702 113.314 60.0426 113.767 60.6894C115.39 62.8297 116.712 65.3391 116.789 68.0241C117.126 68.2711 117.611 67.9496 117.778 67.5686C117.944 67.1876 117.95 66.7411 118.159 66.3779C118.403 65.9582 118.873 65.735 119.24 65.4194C120.168 64.6187 120.401 63.2702 120.365 62.0468C120.365 62.0081 120.365 61.9694 120.365 61.9337C120.308 62.9934 120.026 64.074 119.234 64.7586Z" fill="black"/>
<path opacity="0.1" d="M97.2554 64.5473C96.5706 63.7941 95.6358 63.2911 95.0076 62.4933C94.4786 61.7871 94.1765 60.937 94.1412 60.0554C94.0475 61.157 94.3552 62.2554 95.0076 63.1482C95.6358 63.9489 96.5706 64.452 97.2554 65.2051C97.9129 65.9418 98.3076 66.8755 98.3778 67.8603C98.4234 67.261 98.3475 66.6586 98.1546 66.0893C97.9618 65.52 97.6559 64.9955 97.2554 64.5473Z" fill="black"/>
<path opacity="0.1" d="M120.946 55.5605C120.77 56.2898 120.457 56.9834 120.314 57.7187C120.23 58.21 120.199 58.709 120.222 59.207C120.232 58.9233 120.263 58.6408 120.314 58.3616C120.457 57.6234 120.77 56.9328 120.946 56.2035C121.048 55.8013 121.081 55.3845 121.044 54.9711C121.025 55.1697 120.992 55.3667 120.946 55.5605Z" fill="black"/>
</g>
<path opacity="0.1" d="M39.5173 226.407C55.5393 226.407 68.5278 224.321 68.5278 221.748C68.5278 219.175 55.5393 217.089 39.5173 217.089C23.4952 217.089 10.5068 219.175 10.5068 221.748C10.5068 224.321 23.4952 226.407 39.5173 226.407Z" fill="#F95555"/>
<path d="M40.4521 132.506H38.5854V174.528H40.4521V132.506Z" fill="#535461"/>
<path d="M52.1826 174.4L52.0665 176.293L51.8997 178.972L51.8313 180.086L51.6675 182.765L51.5961 183.878L51.4293 186.557L49.5477 216.941C49.4659 218.248 48.889 219.475 47.9343 220.372C46.9796 221.269 45.719 221.768 44.4089 221.769H34.6256C33.3159 221.768 32.0556 221.269 31.1014 220.372C30.1472 219.475 29.5709 218.248 29.4898 216.941L27.6171 186.536L27.4504 183.857L27.3819 182.744L27.2152 180.065L27.1467 178.952L26.98 176.273L26.8609 174.379C26.8402 174.015 26.8942 173.65 27.0196 173.308C27.145 172.965 27.3391 172.651 27.59 172.386C27.8409 172.121 28.1433 171.91 28.4787 171.766C28.8141 171.622 29.1754 171.548 29.5405 171.549H49.5507C49.9143 171.552 50.2735 171.629 50.606 171.777C50.9385 171.924 51.2372 172.138 51.4839 172.405C51.7305 172.672 51.9197 172.987 52.0399 173.33C52.1601 173.673 52.2086 174.038 52.1826 174.4Z" fill="#3F3D56"/>
<path d="M52.0664 176.293L51.8997 178.964H27.1348L26.9681 176.293H52.0664Z" fill="#9D9CB5"/>
<path d="M51.8313 180.077L51.6675 182.75H27.37L27.2033 180.077H51.8313Z" fill="#9D9CB5"/>
<path d="M51.5961 183.866L51.4323 186.536H27.6052L27.4385 183.866H51.5961Z" fill="#9D9CB5"/>
<path d="M24.1188 148.256C34.9888 156.12 39.5262 168.42 39.5262 168.42C39.5262 168.42 26.4262 167.971 15.5532 160.106C4.68027 152.242 0.15184 139.945 0.15184 139.945C0.15184 139.945 13.2459 140.391 24.1188 148.256Z" fill="#F95555"/>
<path d="M0.142899 139.945C0.142899 139.945 13.7431 147.491 18.1048 153.739C22.4665 159.987 39.5262 168.42 39.5262 168.42" stroke="#535461" stroke-width="2" stroke-miterlimit="10"/>
<path d="M31.1363 132.414C37.0521 136.691 39.5262 143.386 39.5262 143.386C39.5262 143.386 32.3956 143.142 26.4768 138.864C20.558 134.587 18.0899 127.889 18.0899 127.889C18.0899 127.889 25.2175 128.133 31.1363 132.414Z" fill="#F95555"/>
<path d="M18.0899 127.889C18.0899 127.889 25.4914 131.997 27.8642 135.396C30.2371 138.796 39.5262 143.386 39.5262 143.386" stroke="#535461" stroke-width="2" stroke-miterlimit="10"/>
<path d="M48.1156 143.046C41.3185 150.515 39.8805 160.276 39.8805 160.276C39.8805 160.276 49.4643 157.924 56.2555 150.452C63.0466 142.981 64.4906 133.223 64.4906 133.223C64.4906 133.223 54.9127 135.578 48.1156 143.046Z" fill="#F95555"/>
<path d="M64.4966 133.226C64.4966 133.226 55.6422 140.882 53.3913 146.157C51.1405 151.432 39.8805 160.276 39.8805 160.276" stroke="#535461" stroke-width="2" stroke-miterlimit="10"/>
<path d="M297.629 140.418C297.629 140.418 292.713 115.967 294.595 112.925C294.595 112.925 294.663 110.097 294.55 106.492C294.55 106.355 294.55 106.218 294.55 106.078C294.881 106.299 295.226 106.498 295.583 106.674C297.317 107.564 299.307 107.821 301.21 107.4L299.722 105.742C299.364 105.346 298.992 104.918 298.915 104.394C298.837 103.87 299.052 103.402 299.236 102.935C300.65 99.363 300.725 94.8711 298.001 92.1445C295.699 89.8524 295.14 86.8935 292.642 84.8009C290.817 83.2679 289.813 81.0205 288.866 78.8474C288.066 77.0108 287.259 75.1593 286.8 73.2125C286.443 71.6914 286.3 70.1167 285.809 68.6313C285.318 67.1459 284.398 65.7022 282.96 65.0384C282.447 64.8033 281.879 64.6693 281.411 64.3568C280.798 63.943 280.429 63.2703 279.985 62.6809C277.731 59.7041 270.184 61.4574 266.611 62.666C265.64 62.9703 264.741 63.4686 263.968 64.1305L264 64.0769C264.027 64.0323 264.06 63.9876 264.09 63.943C263.699 64.2592 263.361 64.636 263.089 65.0593C262.568 65.8838 262.351 66.8453 261.916 67.7383C261.392 68.795 258.477 71.745 259.731 72.9327C259.819 73.0125 259.919 73.0769 260.029 73.1232C260.499 73.319 261.017 73.3708 261.517 73.272L261.464 73.4C261.036 74.4479 260.816 75.5693 260.818 76.7012C260.818 81.592 264.852 85.557 269.833 85.557C270.769 85.5579 271.7 85.4143 272.593 85.1313C272.614 85.2444 272.631 85.3575 272.652 85.4707C272.652 85.5153 272.667 85.5599 272.673 85.6046L272.515 85.8249C272.507 85.8113 272.498 85.7984 272.488 85.7862L267.814 92.3171C267.1 92.8202 262.985 95.7969 262.753 98.0294C262.509 100.473 262.265 103.334 262.265 103.334L262.232 103.947C262.028 104.118 261.789 104.242 261.532 104.312C261.275 104.381 261.006 104.394 260.743 104.349C259.284 104.111 259.284 109.707 259.284 109.707C259.284 109.707 258.314 110.6 257.647 109.826C256.98 109.052 255.217 111.675 255.217 111.675L244.172 112.151L243.919 112.166L243.323 110.323C243.259 110.129 243.121 109.968 242.939 109.875C242.756 109.782 242.545 109.764 242.35 109.826C242.303 109.841 242.259 109.86 242.216 109.883L242.174 109.907L242.097 109.96L242.058 109.996C242.036 110.015 242.017 110.036 241.998 110.058L241.963 110.1L241.945 110.118C241.876 110.213 241.83 110.323 241.812 110.439C241.793 110.554 241.802 110.673 241.838 110.785L242.35 112.365C240.218 112.794 238.039 114.003 239.816 117.331L230.807 115.667L233.721 118.113L248.769 121.218C248.569 121.575 248.7 122.093 249.322 122.823C252.002 125.969 256.885 126.823 258.85 127.044C259.369 128.204 260.017 129.303 260.782 130.318L260.612 133.452C260.612 133.452 255.637 157.344 254.726 158.555C255.186 158.034 255.607 157.48 255.985 156.897C254.542 161.806 252.523 168.524 251.993 169.53C251.141 171.138 250.352 177.642 251.323 178.059C251.621 178.187 252.472 178.124 253.687 178.032V178.571L253.633 198.988C253.633 198.988 253.878 211.511 253.208 212.705C252.538 213.898 252.359 216.402 252.359 216.402C252.359 216.402 249.68 221.34 247.557 223.326C247.542 223.341 247.526 223.355 247.509 223.367L247.444 222.903C247.444 222.903 244.892 226.124 239.247 225.942C239.247 225.942 235.85 228.151 240.888 228.27C245.925 228.389 252.359 228.091 252.359 228.091C252.359 228.091 256.852 221.245 260.615 222.138V227.326H261.767V222.055C262.302 221.703 262.759 221.246 263.112 220.713C263.464 220.179 263.705 219.579 263.819 218.95C263.917 218.301 263.845 217.638 263.609 217.026C263.373 216.413 262.981 215.873 262.473 215.458C262.244 215.252 262.061 215 261.935 214.719C261.808 214.439 261.741 214.135 261.738 213.827L261.696 213.863C261.696 213.758 261.669 213.651 261.657 213.541C261.327 210.862 260.913 205.334 262.375 201.244C264.378 195.636 264.986 187.825 263.527 183.176C263.056 181.689 262.67 180.178 262.369 178.648C262.333 178.455 262.3 178.27 262.271 178.097C263.268 178.232 264.255 178.431 265.227 178.693C268.606 179.624 275.999 179.797 282.31 179.746C282.325 179.919 282.343 180.101 282.364 180.282C282.477 181.544 282.712 182.793 283.067 184.009C283.859 186.39 284.222 196.889 284.222 196.889C284.222 196.889 285.243 205.522 284.686 209.034C284.389 210.987 284.091 212.949 283.921 214.919V214.958C283.921 214.958 282.248 219.721 281.024 222.308C280.995 222.373 280.962 222.439 280.932 222.501C280.606 222.531 280.285 222.602 279.976 222.712C279.976 222.712 278.336 225.987 276.701 226.529C275.067 227.07 275.609 228.853 279.309 228.199C283.01 227.544 288.598 227.008 288.598 227.008L288.84 223.668L289.977 222.245L289.679 225.576L290.891 225.338L290.73 221.287L292.591 218.959C292.591 218.959 294.839 216.958 291.498 213.023V213.11C291.463 213.053 291.43 212.993 291.391 212.937V212.919C290.837 212.062 290.397 210.463 291.204 207.626C292.662 202.501 293.511 197.848 293.511 197.848C293.511 197.848 296.768 185.384 292.853 179.487H293.026C292.624 178.658 292.341 177.776 292.183 176.868C292.163 176.761 292.145 176.651 292.13 176.538C295.026 176.371 297.87 175.847 300.189 174.716C300.18 174.704 298.784 145.127 297.629 140.418ZM260.85 119.789V119.849L260.255 119.879L260.85 119.789ZM258.808 120.072C258.71 120.094 258.618 120.138 258.54 120.2C258.284 120.562 258.123 120.983 258.073 121.424L257.144 121.215C257.144 121.215 256.492 121.075 255.554 120.917L255.11 120.471C256.331 120.37 257.599 120.221 258.808 120.072Z" fill="url(#paint1_linear)"/>
<path d="M289.542 221.328L289.188 225.546L290.376 225.308L290.197 220.733L289.542 221.328Z" fill="#1D2366"/>
<path d="M262.44 201.301C261.008 205.379 261.413 210.883 261.735 213.556C261.854 214.544 261.964 215.146 261.964 215.146C261.964 215.146 259.823 220.021 259.645 220.206C259.466 220.391 253.345 224.126 253.345 224.126L249.066 226.624C249.066 226.624 244.725 224.722 246.807 224.067C247.232 223.896 247.615 223.635 247.929 223.302C250.013 221.322 252.63 216.402 252.63 216.402C252.63 216.402 252.809 213.904 253.464 212.717C254.119 211.529 253.881 199.048 253.881 199.048L253.931 178.702V176.049L262.074 176.109C262.125 177.009 262.243 177.905 262.425 178.788C262.718 180.312 263.096 181.819 263.56 183.301C264.995 187.941 264.399 195.714 262.44 201.301Z" fill="#FFB0B1"/>
<path opacity="0.1" d="M261.964 215.146C261.964 215.146 259.823 220.022 259.645 220.206C259.466 220.391 253.345 224.126 253.345 224.126L249.066 226.624C249.066 226.624 244.725 224.722 246.807 224.067C247.232 223.896 247.615 223.635 247.929 223.302L248.114 224.603L249.54 224.543L261.746 213.562C261.854 214.544 261.964 215.146 261.964 215.146Z" fill="black"/>
<path d="M261.815 213.839L249.54 224.894L248.114 224.954L247.816 222.87C247.816 222.87 245.321 226.079 239.777 225.901C239.777 225.901 236.449 228.1 241.382 228.219C246.315 228.338 252.615 228.041 252.615 228.041C252.615 228.041 257.016 221.194 260.698 222.087V227.258H261.83V222.04C262.356 221.686 262.805 221.229 263.15 220.697C263.495 220.165 263.728 219.569 263.837 218.944C263.934 218.3 263.865 217.643 263.635 217.034C263.405 216.425 263.022 215.885 262.524 215.467C262.301 215.258 262.123 215.006 262.001 214.726C261.879 214.446 261.816 214.144 261.815 213.839Z" fill="#1D2366"/>
<path d="M290.674 207.659C289.882 210.487 290.313 212.08 290.855 212.934V212.952C291.55 214.007 292.034 215.186 292.278 216.426L292.326 216.694L286.741 224.835L283.71 226.026C283.71 226.026 278.836 224.362 279.726 223.885C279.95 223.769 280.298 223.15 280.697 222.296C281.888 219.721 283.531 214.97 283.531 214.97V214.931C283.704 212.97 283.978 211.014 284.281 209.067C284.826 205.564 283.826 196.964 283.826 196.964C283.826 196.964 283.469 186.507 282.695 184.128C282.345 182.919 282.113 181.679 282.001 180.425C281.84 178.937 281.804 177.71 281.804 177.71C281.804 177.71 285.014 173.245 290.897 178.068C291.367 178.452 291.781 178.901 292.127 179.401C296.19 185.182 292.918 197.916 292.918 197.916C292.918 197.916 292.1 202.548 290.674 207.659Z" fill="#FFB0B1"/>
<path opacity="0.1" d="M292.335 216.694L286.75 224.835L283.719 226.026C283.719 226.026 278.845 224.362 279.735 223.885C279.958 223.769 280.307 223.15 280.706 222.296C282.769 222.278 283.838 224.243 283.838 224.243L286.452 223.826C286.452 223.826 289.899 217.051 290.674 216.637C291.448 216.223 290.793 213.544 290.793 213.544V212.862C290.814 212.886 290.831 212.913 290.855 212.937V212.955C291.55 214.01 292.034 215.189 292.278 216.429L292.335 216.694Z" fill="black"/>
<path d="M284.016 224.418C284.016 224.418 282.528 221.685 279.676 222.695C279.676 222.695 278.071 225.969 276.466 226.499C274.861 227.029 275.397 228.815 279.024 228.163C282.65 227.511 288.116 226.972 288.116 226.972L288.354 223.641L292.04 218.947C292.04 218.947 294.237 216.955 290.968 213.035V213.717C290.968 213.717 291.623 216.396 290.849 216.81C290.075 217.223 286.639 224.001 286.639 224.001L284.016 224.418Z" fill="#1D2366"/>
<path opacity="0.1" d="M262.083 176.103C262.134 177.003 262.252 177.899 262.434 178.782C259.082 178.291 255.971 178.535 253.931 178.696V176.043L262.083 176.103Z" fill="black"/>
<path opacity="0.1" d="M292.457 180.142C292.457 180.142 287.693 180.375 282.013 180.422C281.852 178.934 281.816 177.707 281.816 177.707C281.816 177.707 285.026 173.242 290.909 178.065C291.379 178.449 291.793 178.898 292.138 179.398C292.231 179.652 292.337 179.9 292.457 180.142Z" fill="black"/>
<path d="M292.457 179.607C292.457 179.607 271.592 180.616 265.233 178.833C258.873 177.05 252.571 178.594 251.621 178.181C250.671 177.767 251.442 171.287 252.276 169.682C253.109 168.078 257.683 151.852 257.683 151.852L262.083 128.913L266.719 127.636L267.046 127.544L275.123 125.317L281.042 123.683C281.042 123.683 292.811 169.623 291.802 173.01C291.435 174.307 291.376 175.672 291.629 176.996C291.784 177.9 292.062 178.779 292.457 179.607Z" fill="#1D2366"/>
<path d="M246.744 113.226C246.744 113.226 242.576 117.691 245.732 120.179C248.888 122.668 250.963 120.417 250.963 120.417L246.744 113.226Z" fill="#C7DAF5"/>
<path opacity="0.1" d="M246.744 113.226C246.744 113.226 242.576 117.691 245.732 120.179C248.888 122.668 250.963 120.417 250.963 120.417L246.744 113.226Z" fill="black"/>
<path d="M280.42 83.8692C280.42 83.8692 279.932 84.3335 279.196 85.0182C278.148 85.9975 276.597 87.4293 275.222 88.6289C273.316 90.287 271.744 91.5045 272.307 90.4656C272.87 89.4267 272.762 87.6169 272.483 85.9231C272.462 85.81 272.444 85.6969 272.423 85.5867C272.191 84.3428 271.884 83.1141 271.503 81.9075C271.503 81.9075 274.581 77.9306 276.284 76.3619C276.919 75.7665 277.362 75.5224 277.389 75.9362C277.419 76.4929 277.836 77.7222 278.354 79.026C278.369 79.0677 278.383 79.1064 278.401 79.1481C278.747 80.0411 279.137 80.9579 279.479 81.7497C280.003 82.9642 280.42 83.8692 280.42 83.8692Z" fill="#FFB0B1"/>
<path opacity="0.1" d="M278.401 79.1481C278.112 80.7038 277.41 82.1534 276.369 83.3452C275.328 84.537 273.986 85.4273 272.483 85.9231C272.246 84.5643 271.919 83.2228 271.503 81.9075C271.503 81.9075 277.3 74.4211 277.389 75.9362C277.41 76.5107 277.862 77.7848 278.401 79.1481Z" fill="black"/>
<path opacity="0.1" d="M271.905 87.9235L272.655 86.8667C272.655 86.8667 273.152 89.897 274.98 88.5605C276.808 87.2239 276.898 98.6188 276.898 98.6188L274.936 127.948L260.758 127.1L261.16 112.928L262.765 105.784L266.733 95.398L269.094 91.9658L271.905 87.9235Z" fill="black"/>
<path d="M276.898 98.8004L275.111 125.32L274.924 128.13L267.019 127.657L266.721 127.639L260.767 127.282L261.169 113.107L262.774 105.962L266.742 95.5766L269.103 92.1444L271.914 88.0872L272.664 87.0334C272.664 87.0334 273.161 90.0637 274.989 88.7272L275.028 88.7004C276.814 87.5692 276.898 98.8004 276.898 98.8004Z" fill="#1D2366"/>
<path d="M262.973 103.48C262.973 103.48 262.262 104.968 260.832 104.727C259.403 104.486 259.406 110.085 259.406 110.085C259.406 110.085 258.457 110.978 257.802 110.204C257.147 109.43 255.42 112.047 255.42 112.047L244.6 112.523C244.6 112.523 249.415 114.723 248.471 121.379C248.471 121.379 264.816 120.367 265.352 118.822C265.888 117.277 262.973 103.48 262.973 103.48Z" fill="white"/>
<path opacity="0.03" d="M262.973 103.48C262.973 103.48 262.262 104.968 260.832 104.727C259.403 104.486 259.406 110.085 259.406 110.085C259.406 110.085 258.457 110.978 257.802 110.204C257.147 109.43 255.42 112.047 255.42 112.047L244.6 112.523C244.6 112.523 249.415 114.723 248.471 121.379C248.471 121.379 264.816 120.367 265.352 118.822C265.888 117.277 262.973 103.48 262.973 103.48Z" fill="black"/>
<path d="M231.53 116.021L234.382 118.456L257.861 123.388L254.949 120.417L231.53 116.021Z" fill="white"/>
<path d="M271.95 88.8611C271.56 89.4565 270.443 92.5046 269.511 95.1658C268.734 97.3835 268.085 99.3332 268.085 99.3332C268.085 99.3332 266.57 109.198 265.796 110.981C265.021 112.764 265.441 119.718 265.441 119.718L262.556 136.891C262.556 136.891 261.249 145.746 259.231 151.036C257.239 156.242 255.021 158.683 254.952 158.761C255.846 157.552 260.713 133.756 260.713 133.756L262.321 103.745C262.321 103.745 262.556 100.893 262.794 98.4551C263.033 96.0172 267.856 92.6892 267.856 92.6892L272.506 86.0779C272.974 86.703 272.661 87.7925 271.95 88.8611Z" fill="white"/>
<path d="M259.823 127.431C259.823 127.431 252.975 127.133 249.659 123.15C246.342 119.167 257.325 121.56 257.325 121.56L260.18 122.215L259.823 127.431Z" fill="#FFB0B1"/>
<path opacity="0.1" d="M291.802 173.013C291.435 174.31 291.376 175.675 291.629 176.999C284.159 177.529 276.168 175.511 276.168 175.511C274.68 176.88 270.759 178.898 270.759 178.898L268.621 152.405C267.254 148.833 266.719 130.119 266.719 130.119C266.719 130.119 266.841 129.139 267.016 127.672C267.016 127.636 267.016 127.597 267.031 127.562C267.564 123.463 268.621 115.768 269.139 114.729C269.854 113.3 266.942 109.499 266.942 109.499L268.267 98.2021L268.428 96.8388C271.22 95.5915 273.361 91.6086 273.361 91.6086L275.004 88.7302C276.791 87.5841 276.883 98.8153 276.883 98.8153L275.097 125.335L281.015 123.701C281.015 123.701 292.811 169.626 291.802 173.013Z" fill="black"/>
<path d="M299.468 174.844C291.326 178.886 276.526 175.141 276.526 175.141C275.037 176.511 271.116 178.529 271.116 178.529L268.975 152.036C267.612 148.464 267.076 129.749 267.076 129.749C267.076 129.749 268.797 115.786 269.511 114.36C269.72 113.943 269.618 113.324 269.371 112.657C268.156 109.483 267.709 106.067 268.067 102.688L268.639 97.833L268.797 96.4726C271.592 95.2224 273.733 91.2395 273.733 91.2395L275.222 88.6319L277.961 83.8275L279.259 81.5533L279.479 81.7527L281.161 83.2768C281.161 83.2768 281.876 83.8722 282.948 84.7652C285.279 86.7298 289.307 90.1888 291.385 92.3052C293.213 94.1686 293.791 101.417 293.958 106.873C294.068 110.466 294.002 113.282 294.002 113.282C292.159 116.315 296.979 140.668 296.979 140.668C298.102 145.374 299.468 174.844 299.468 174.844Z" fill="white"/>
<path opacity="0.03" d="M283.838 91.18C283.838 91.18 278.249 101.816 278.899 105.858C279.548 109.901 281.393 114.476 280.503 115.544C280.197 115.949 279.802 116.278 279.348 116.505C278.894 116.731 278.394 116.85 277.886 116.851C276.993 116.911 274.611 118.575 274.611 118.753C274.611 118.932 272.411 118.932 270.443 119.765C268.475 120.599 265.569 121.072 265.569 121.072C265.569 121.072 259.913 120.894 259.386 121.429C258.859 121.965 258.317 125.171 259.445 127.728C260.573 130.285 261.827 132.193 262.774 132.542C263.72 132.89 269.729 130.878 274.602 130.401C279.476 129.925 284.767 126.064 284.767 126.064C284.767 126.064 290.593 123.981 291.614 120.477C292.636 116.973 290.367 97.7169 290.367 97.7169C290.367 97.7169 288.652 88.7421 283.838 91.18Z" fill="black"/>
<path opacity="0.03" d="M283.123 90.287C283.123 90.287 277.535 100.926 278.19 104.965C278.845 109.005 280.685 113.583 279.792 114.654C279.487 115.06 279.092 115.389 278.639 115.616C278.185 115.842 277.685 115.961 277.178 115.961C276.284 116.021 273.903 117.685 273.903 117.863C273.903 118.042 271.702 118.042 269.734 118.872C267.767 119.703 264.861 120.179 264.861 120.179C264.861 120.179 259.204 120.001 258.68 120.536C258.156 121.072 257.608 124.281 258.739 126.835C259.871 129.389 261.121 131.3 262.068 131.649C263.015 131.997 269.023 129.985 273.897 129.511C278.771 129.038 284.061 125.171 284.061 125.171C284.061 125.171 289.885 123.087 290.894 119.587C291.903 116.086 289.646 96.8239 289.646 96.8239C289.646 96.8239 287.938 87.852 283.123 90.287Z" fill="black"/>
<path d="M283.662 90.6442C283.662 90.6442 278.074 101.283 278.729 105.322C279.384 109.362 281.224 113.94 280.334 115.009C280.029 115.415 279.634 115.745 279.18 115.972C278.725 116.199 278.224 116.318 277.717 116.318C276.823 116.378 274.442 118.042 274.442 118.218C274.442 118.393 272.244 118.396 270.273 119.23C268.302 120.063 265.4 120.536 265.4 120.536C265.4 120.536 259.743 120.358 259.216 120.894C258.689 121.429 258.147 124.638 259.275 127.192C260.404 129.746 261.657 131.657 262.604 132.006C263.551 132.354 269.559 130.342 274.433 129.865C279.306 129.389 284.597 125.528 284.597 125.528C284.597 125.528 290.424 123.445 291.445 119.941C292.466 116.437 290.212 97.1811 290.212 97.1811C290.212 97.1811 288.473 88.2211 283.662 90.6442Z" fill="white"/>
<path opacity="0.1" d="M283.54 119.179C283.54 119.179 279.074 118.286 280.628 119.774C282.182 121.263 282.174 122.567 284.076 122.507C285.978 122.447 283.54 119.179 283.54 119.179Z" fill="black"/>
<path opacity="0.1" d="M291.087 151.203C291.087 151.203 289.069 152.569 292.93 155.718C296.792 158.868 291.087 151.203 291.087 151.203Z" fill="black"/>
<path opacity="0.1" d="M287.235 162.434C287.235 162.612 286.52 168.983 289.194 170.575C291.868 172.168 287.235 162.434 287.235 162.434Z" fill="black"/>
<path d="M244.785 112.508C242.629 112.583 237.973 113.24 240.388 117.744C242.522 121.73 246.11 119.066 248.128 117.045C247.636 115.16 246.439 113.537 244.785 112.508Z" fill="#FFB0B1"/>
<path d="M248.155 117.009L248.245 116.917L248.155 117.009Z" fill="#FFB0B1"/>
<path opacity="0.1" d="M282.948 84.9467C280.661 86.5095 278.744 87.8282 278.369 88.1021C277.344 88.8611 275.391 93.3173 274.132 95.5915C273.129 97.4222 269.868 97.8925 268.639 98.0086L268.797 96.6482C271.592 95.398 273.733 91.4152 273.733 91.4152L279.259 81.7289L281.161 83.4584C281.161 83.4584 281.876 84.0537 282.948 84.9467Z" fill="black"/>
<path d="M282.948 84.7681C280.661 86.3309 278.744 87.6496 278.369 87.9264C277.344 88.6825 275.391 93.1387 274.132 95.4129C273.129 97.2436 269.868 97.7139 268.639 97.83L268.797 96.4696C271.592 95.2194 273.733 91.2365 273.733 91.2365L279.259 81.5503L281.161 83.2738C281.161 83.2738 281.876 83.8632 282.948 84.7681Z" fill="#DCE7FF"/>
<path d="M278.547 77.1834C278.548 78.9703 278.006 80.7154 276.993 82.1873C275.796 83.9276 274.015 85.1813 271.973 85.7209C269.931 86.2605 267.763 86.0503 265.862 85.1284C263.962 84.2065 262.455 82.6339 261.614 80.6961C260.774 78.7583 260.657 76.5837 261.283 74.5667C261.91 72.5497 263.239 70.824 265.029 69.7028C266.819 68.5817 268.952 68.1392 271.04 68.4558C273.129 68.7723 275.035 69.8269 276.412 71.4282C277.789 73.0295 278.547 75.0714 278.547 77.1834Z" fill="#FFB0B1"/>
<path opacity="0.1" d="M293.958 106.876C292.748 106.133 291.764 105.075 291.108 103.816C290.611 102.834 290.281 101.7 289.432 101.003C288.667 100.378 287.646 100.226 286.693 99.9464C283.561 99.0207 280.935 96.163 280.837 92.9005C280.789 91.3646 281.268 89.8315 281.051 88.3104C280.928 87.4495 280.585 86.6348 280.057 85.9439C279.794 85.6135 279.507 85.304 279.196 85.0182C278.779 84.6252 278.342 84.2442 277.961 83.8275C277.721 83.5694 277.511 83.2848 277.335 82.9791C277.194 82.729 277.079 82.4646 276.993 82.1903C276.398 80.3685 276.939 78.2074 276.284 76.3649L276.249 76.2636C276.002 75.6088 275.498 74.9539 274.799 74.9033C274.099 74.8527 273.501 75.4331 272.834 75.6921C271.437 76.2339 269.931 75.3111 268.767 74.3704C267.603 73.4298 266.29 72.3552 264.81 72.5636C263.831 72.7035 263.056 73.3703 262.154 73.7156C261.951 73.7944 261.741 73.8552 261.526 73.8971C262.29 71.9936 263.692 70.4152 265.493 69.4333C267.294 68.4514 269.381 68.1272 271.395 68.5164C273.409 68.9056 275.224 69.9839 276.53 71.5661C277.835 73.1482 278.548 75.1355 278.547 77.1864C278.548 77.8057 278.483 78.4234 278.354 79.029C278.369 79.0707 278.383 79.1094 278.401 79.1511C278.747 80.0441 279.137 80.9609 279.479 81.7527L281.161 83.2768C281.161 83.2768 281.876 83.8721 282.948 84.7652C285.279 86.7298 289.307 90.1887 291.385 92.3052C293.213 94.1746 293.785 101.42 293.958 106.876Z" fill="black"/>
<path d="M262.05 68.2771C262.476 67.4109 262.687 66.4405 263.196 65.6189C263.944 64.4282 265.248 63.6661 266.588 63.2047C270.086 61.9992 277.478 60.2489 279.688 63.2047C280.122 63.8001 280.482 64.4609 281.084 64.8717C281.542 65.1843 282.096 65.3182 282.599 65.5534C284.008 66.2142 284.907 67.655 285.386 69.1255C285.865 70.596 286.008 72.1736 286.36 73.6888C286.809 75.6326 287.598 77.4752 288.384 79.3058C289.31 81.4669 290.293 83.7084 292.079 85.2355C294.517 87.3192 295.056 90.2691 297.319 92.5552C299.998 95.27 299.912 99.75 298.531 103.307C298.349 103.775 298.144 104.263 298.215 104.76C298.286 105.257 298.656 105.709 299.004 106.105L300.469 107.757C297.003 108.594 293.082 106.784 291.469 103.608C290.971 102.626 290.641 101.494 289.789 100.795C289.027 100.17 288.003 100.021 287.053 99.7411C283.921 98.8123 281.295 95.9517 281.197 92.6892C281.149 91.1562 281.629 89.6232 281.411 88.105C281.29 87.2384 280.947 86.4179 280.414 85.7237C279.595 84.655 278.36 83.9376 277.693 82.7469C276.564 80.7555 277.422 78.1687 276.609 76.0315C276.359 75.3766 275.859 74.7217 275.159 74.6711C274.459 74.6205 273.861 75.2009 273.191 75.4599C271.798 76.0017 270.291 75.0819 269.127 74.1383C267.963 73.1946 266.65 72.123 265.167 72.3344C264.188 72.4713 263.417 73.1381 262.515 73.4864C261.848 73.7424 260.496 73.9716 259.913 73.409C258.68 72.2748 261.535 69.3368 262.05 68.2771Z" fill="#591D4B"/>
<path opacity="0.1" d="M292.296 102.626C291.796 101.643 291.469 100.512 290.617 99.8155C289.855 99.1904 288.831 99.0385 287.878 98.7587C284.749 97.833 282.123 94.9723 282.022 91.7099C281.974 90.1768 282.453 88.6409 282.239 87.1227C282.114 86.2616 281.771 85.4469 281.242 84.7562C280.42 83.6876 279.184 82.9702 278.52 81.7795C277.392 79.7911 278.25 77.2043 277.434 75.064C277.187 74.4121 276.683 73.7572 275.987 73.7037C275.29 73.6501 274.686 74.2365 274.019 74.4955C272.625 75.0372 271.116 74.1145 269.955 73.1738C268.794 72.2332 267.475 71.1586 265.995 71.3669C265.016 71.5068 264.241 72.1736 263.342 72.5189C262.675 72.7749 261.321 73.0071 260.737 72.4445C259.511 71.2538 262.366 68.3217 262.878 67.268C263.304 66.3988 263.515 65.4314 264.027 64.6098C264.054 64.5651 264.084 64.5205 264.113 64.4758C263.73 64.7931 263.4 65.1688 263.134 65.5891C262.625 66.4107 262.413 67.3752 261.988 68.2473C261.473 69.3011 258.617 72.2421 259.847 73.4239C260.442 73.9894 261.782 73.7572 262.449 73.5012C263.342 73.153 264.122 72.4862 265.102 72.3493C266.591 72.1379 267.901 73.2125 269.062 74.1531C270.223 75.0938 271.741 76.0166 273.129 75.4748C273.796 75.2158 274.379 74.6324 275.094 74.686C275.808 74.7396 276.285 75.3915 276.544 76.0463C277.356 78.1836 276.499 80.7704 277.627 82.7618C278.294 83.9317 279.53 84.664 280.348 85.7386C280.881 86.4328 281.225 87.2533 281.346 88.1199C281.563 89.6381 281.084 91.1711 281.132 92.7041C281.23 95.9785 283.856 98.8272 286.988 99.7559C287.932 100.036 288.962 100.185 289.724 100.81C290.578 101.509 290.915 102.64 291.403 103.623C293.017 106.799 296.938 108.609 300.403 107.772L299.713 106.992C296.709 107.037 293.669 105.328 292.296 102.626Z" fill="black"/>
<path opacity="0.1" d="M271.771 89.0397C271.381 89.6351 270.264 92.6832 269.333 95.3444C268.46 95.0051 267.668 92.841 267.668 92.841L272.319 86.2267C272.795 86.8816 272.482 87.9681 271.771 89.0397Z" fill="black"/>
<path d="M271.95 88.8611C271.56 89.4565 270.443 92.5046 269.511 95.1658C268.639 94.8295 267.847 92.6624 267.847 92.6624L272.497 86.0511C272.974 86.703 272.661 87.7925 271.95 88.8611Z" fill="#DCE7FF"/>
<path d="M244.91 119.271L242.332 111.142C242.301 111.047 242.29 110.946 242.298 110.847C242.306 110.747 242.334 110.65 242.38 110.561C242.426 110.473 242.489 110.394 242.566 110.329C242.642 110.265 242.731 110.216 242.826 110.186C243.018 110.126 243.226 110.145 243.404 110.237C243.582 110.33 243.717 110.489 243.779 110.681L246.357 118.801L246.101 120.501L244.91 119.271Z" fill="#BE8B87"/>
<path opacity="0.1" d="M242.576 110.427C242.768 110.367 242.977 110.385 243.156 110.477C243.335 110.57 243.47 110.73 243.532 110.922L246.11 119.042L245.916 120.316L246.104 120.513L246.36 118.813L243.767 110.692C243.705 110.501 243.571 110.342 243.392 110.249C243.214 110.157 243.006 110.138 242.814 110.198C242.653 110.251 242.513 110.355 242.418 110.496C242.469 110.469 242.521 110.446 242.576 110.427Z" fill="white"/>
<path d="M244.91 119.271L246.357 118.813L246.146 120.206L246.101 120.513L245.678 120.072L244.91 119.271Z" fill="#EFC8C4"/>
<path d="M245.678 120.072C245.703 120.04 245.735 120.014 245.77 119.995C245.791 119.981 245.816 119.974 245.84 119.974C245.865 119.974 245.889 119.981 245.91 119.995C245.931 120.019 245.948 120.046 245.961 120.075C245.981 120.108 246.007 120.136 246.039 120.157C246.071 120.178 246.108 120.192 246.146 120.197L246.101 120.495L245.678 120.072Z" fill="#727A9C"/>
<path d="M242.317 114.029C242.317 114.029 247.488 114 246.271 116.199C245.053 118.399 243.15 118.664 243.15 118.664L242.317 114.029Z" fill="#FFB0B1"/>
<path d="M210.153 15.3063H209.93C201.046 15.3063 193.189 20.0066 188.669 26.9423C184.15 20.0066 176.293 15.3063 167.409 15.3063H167.186C160.518 15.3698 154.145 18.0616 149.452 22.7966C144.758 27.5315 142.124 33.9272 142.12 40.5936C142.12 48.8718 145.746 60.618 152.817 70.2834C166.289 88.7004 188.669 104.813 188.669 104.813C188.669 104.813 211.05 88.7034 224.519 70.2834C231.593 60.618 235.216 48.8718 235.216 40.5936C235.212 33.9277 232.578 27.5325 227.885 22.7976C223.192 18.0627 216.82 15.3706 210.153 15.3063ZM206.959 71.7003C205.947 71.6965 204.96 71.3868 204.127 70.812C203.295 70.2372 202.656 69.4241 202.293 68.4795H196.982C196.632 68.4773 196.292 68.366 196.008 68.1611C195.725 67.9562 195.513 67.6679 195.401 67.3364L193.77 62.4219L188.607 80.4578C188.506 80.805 188.296 81.1103 188.007 81.3277C187.718 81.545 187.367 81.6629 187.005 81.6634H186.901C186.524 81.6452 186.164 81.4981 185.882 81.2467C185.601 80.9953 185.414 80.6549 185.353 80.2822L180.032 48.2884L176.144 67.2204C176.055 67.58 175.848 67.8994 175.556 68.1277C175.264 68.3559 174.904 68.4797 174.533 68.4795H167.052C166.827 68.489 166.603 68.453 166.393 68.3738C166.183 68.2945 165.992 68.1736 165.829 68.0182C165.667 67.8629 165.538 67.6765 165.45 67.47C165.362 67.2636 165.317 67.0415 165.317 66.817C165.317 66.5926 165.362 66.3704 165.45 66.164C165.538 65.9576 165.667 65.7711 165.829 65.6158C165.992 65.4605 166.183 65.3395 166.393 65.2603C166.603 65.181 166.827 65.145 167.052 65.1545H173.223L178.731 39.7006C178.822 39.3242 179.04 38.991 179.349 38.7578C179.658 38.5246 180.038 38.406 180.425 38.4221C180.812 38.4383 181.181 38.5883 181.469 38.8464C181.758 39.1046 181.948 39.4549 182.006 39.8375L187.44 72.4743L192.067 56.3375C192.163 55.9976 192.367 55.698 192.647 55.4834C192.928 55.2688 193.27 55.1507 193.624 55.1468H193.656C194.006 55.1469 194.347 55.2574 194.631 55.4627C194.914 55.668 195.125 55.9574 195.234 56.2898L198.185 65.1634H202.228C202.515 64.2903 203.039 63.5135 203.74 62.9188C204.441 62.3241 205.293 61.9347 206.201 61.7935C207.11 61.6523 208.04 61.7648 208.888 62.1186C209.737 62.4724 210.471 63.0538 211.01 63.7985C211.549 64.5432 211.872 65.4224 211.943 66.3389C212.014 67.2554 211.83 68.1737 211.412 68.9924C210.993 69.8111 210.357 70.4983 209.573 70.9783C208.789 71.4582 207.887 71.7122 206.968 71.7122L206.959 71.7003Z" fill="#F95555"/>
</g>
<defs>
<linearGradient id="paint0_linear" x1="106.089" y1="230.657" x2="106.089" y2="47.4877" gradientUnits="userSpaceOnUse">
<stop stop-color="#808080" stop-opacity="0.25"/>
<stop offset="0.54" stop-color="#808080" stop-opacity="0.12"/>
<stop offset="1" stop-color="#808080" stop-opacity="0.1"/>
</linearGradient>
<linearGradient id="paint1_linear" x1="66457.2" y1="138204" x2="66457.2" y2="44181.4" gradientUnits="userSpaceOnUse">
<stop stop-color="#808080" stop-opacity="0.25"/>
<stop offset="0.54" stop-color="#808080" stop-opacity="0.12"/>
<stop offset="1" stop-color="#808080" stop-opacity="0.1"/>
</linearGradient>
<clipPath id="clip0">
<rect width="329" height="233" fill="white"/>
</clipPath>
</defs>
</svg>
