<svg width="28" height="28" viewBox="0 0 28 28" fill="none" xmlns="http://www.w3.org/2000/svg">
<circle cx="14" cy="11" r="8" fill="#574039"/>
<path d="M19.3166 25.802L17.1663 22.3431C16.8968 21.9096 17.0028 21.3305 17.4111 21.0059L21.8685 17.4611C22.3107 17.1095 22.9418 17.1847 23.2702 17.6283L25.3188 20.3954C25.7113 20.9256 25.4799 21.7029 24.8564 21.949L22.4481 22.8996C22.1754 23.0073 21.9595 23.2289 21.8571 23.5063L21.0916 25.5789C20.8003 26.3677 19.7503 26.4997 19.3166 25.802Z" fill="#574039"/>
<path d="M8.68341 25.802L10.8337 22.3431C11.1032 21.9096 10.9972 21.3305 10.5889 21.0059L6.13149 17.4611C5.68931 17.1095 5.05822 17.1847 4.72985 17.6283L2.6812 20.3954C2.28873 20.9256 2.52011 21.7029 3.14365 21.949L5.5519 22.8996C5.82457 23.0073 6.04046 23.2289 6.14293 23.5063L6.9084 25.5789C7.19974 26.3677 8.24969 26.4997 8.68341 25.802Z" fill="#574039"/>
</svg>
