<svg width="28" height="28" viewBox="0 0 28 28" fill="none" xmlns="http://www.w3.org/2000/svg">
<path fill-rule="evenodd" clip-rule="evenodd" d="M10.5 16.8276C5.91479 16.8276 2 17.594 2 20.6559C2 23.7166 5.89096 25 10.5 25C15.0841 25 19 23.7443 19 20.6823C19 17.6204 15.109 16.8276 10.5 16.8276Z" fill="#574039"/>
<path fill-rule="evenodd" clip-rule="evenodd" d="M10.5 13.9113C13.6218 13.9113 16.1243 11.2614 16.1243 7.95565C16.1243 4.64989 13.6218 2 10.5 2C7.37815 2 4.87568 4.64989 4.87568 7.95565C4.87568 11.2614 7.37815 13.9113 10.5 13.9113Z" fill="#574039"/>
<path d="M22.5 10V13.5M22.5 17V13.5M22.5 13.5H19M22.5 13.5H26" stroke="#574039" stroke-width="3.5" stroke-linecap="round"/>
</svg>
