<svg width="28" height="28" viewBox="0 0 28 28" fill="none" xmlns="http://www.w3.org/2000/svg">
<path d="M20.397 10.8928L20.3955 10.8929C19.6463 10.9022 18.9387 11.234 18.4629 11.8006C17.9869 12.3673 17.7916 13.111 17.9306 13.8321L17.9305 13.8321L17.9318 13.8374C18.2088 14.9974 19.2753 15.8094 20.4912 15.7938L24.4622 15.7938L24.4636 15.7938C25.0074 15.7876 25.4519 15.3585 25.4583 14.821V14.8195V11.8671C25.4583 11.3261 25.0094 10.8928 24.4622 10.8928L20.397 10.8928ZM18.9348 2.875H8.39852C6.363 2.875 4.72886 3.46102 3.60316 4.55723C2.47703 5.65387 1.875 7.24625 1.875 9.22821V17.7718C1.875 19.7537 2.47703 21.3461 3.60316 22.4428C4.72886 23.539 6.363 24.125 8.39852 24.125H18.9348C20.5838 24.125 21.9693 23.7406 23.0352 23.0111C24.1023 22.2808 24.8405 21.2103 25.2023 19.855C25.3806 19.1869 24.8309 18.602 24.1686 18.602H20.3997C19.5248 18.5645 18.2109 18.2563 17.1187 17.457C16.0311 16.661 15.1585 15.3754 15.1585 13.3635C15.1585 11.3516 16.0311 10.066 17.1187 9.27005C18.2109 8.47072 19.5248 8.16253 20.3997 8.125H24.0856C24.7639 8.125 25.3213 7.51126 25.1036 6.83442C24.6968 5.56968 23.9479 4.57714 22.8997 3.90209C21.8527 3.22784 20.5146 2.875 18.9348 2.875Z" fill="#574039" stroke="#574039" stroke-width="0.25"/>
</svg>
