<svg width="28" height="28" viewBox="0 0 28 28" fill="none" xmlns="http://www.w3.org/2000/svg">
<path d="M20.6316 14C20.6316 17.6625 17.6625 20.6316 14 20.6316C10.3375 20.6316 7.36842 17.6625 7.36842 14C7.36842 10.3375 10.3375 7.36842 14 7.36842C17.6625 7.36842 20.6316 10.3375 20.6316 14Z" fill="#574039"/>
<path d="M20.6316 14C20.6316 17.6625 17.6625 20.6316 14 20.6316M20.6316 14C20.6316 10.3375 17.6625 7.36842 14 7.36842M20.6316 14H24M14 20.6316C10.3375 20.6316 7.36842 17.6625 7.36842 14M14 20.6316V24M7.36842 14C7.36842 10.3375 10.3375 7.36842 14 7.36842M7.36842 14H4M14 7.36842V4" stroke="#574039" stroke-width="4" stroke-linecap="round"/>
</svg>
