<svg width="35" height="35" viewBox="0 0 35 35" fill="none" xmlns="http://www.w3.org/2000/svg">
<path d="M13.7608 31.5H21.2392C21.6533 31.5 21.9917 31.1617 21.9917 30.7475V4.2525C21.9917 3.83833 21.6533 3.5 21.2392 3.5H13.7608C13.3467 3.5 13.0083 3.83833 13.0083 4.2525V30.7475C13.0083 31.1617 13.3467 31.5 13.7608 31.5ZM31.5 13.1308C31.5 12.7167 31.1617 12.3783 30.7475 12.3783H23.9108C23.4967 12.3783 23.1583 12.7167 23.1583 13.1308V30.7475C23.1583 31.1617 23.4967 31.5 23.9108 31.5H30.7475C31.1617 31.5 31.5 31.1617 31.5 30.7475V13.1308ZM4.2525 31.5H11.0892C11.5033 31.5 11.8417 31.1617 11.8417 30.7475V18.2C11.8417 17.7858 11.5033 17.4475 11.0892 17.4475H4.2525C3.83833 17.4475 3.5 17.7858 3.5 18.2V30.7475C3.5 31.1617 3.83833 31.5 4.2525 31.5Z" fill="#3B9EE4"/>
</svg>
