<svg width="24" height="24" viewBox="0 0 24 24" fill="none" xmlns="http://www.w3.org/2000/svg">
<path d="M5 12.5L3.98392 13.6034C3.67548 13.3194 3.5 12.9193 3.5 12.5C3.5 12.0807 3.67548 11.6806 3.98392 11.3966L5 12.5ZM11.0427 4.89656C11.6522 4.33539 12.6011 4.37451 13.1623 4.98392C13.7234 5.59333 13.6843 6.54227 13.0749 7.10344L11.0427 4.89656ZM13.0749 17.8966C13.6843 18.4577 13.7234 19.4067 13.1623 20.0161C12.6011 20.6255 11.6522 20.6646 11.0427 20.1034L13.0749 17.8966ZM20 11C20.8284 11 21.5 11.6716 21.5 12.5C21.5 13.3284 20.8284 14 20 14V11ZM3.98392 11.3966L11.0427 4.89656L13.0749 7.10344L6.01608 13.6034L3.98392 11.3966ZM6.01608 11.3966L13.0749 17.8966L11.0427 20.1034L3.98392 13.6034L6.01608 11.3966ZM20 14H5V11H20V14Z" fill="#5C453E"/>
</svg>
