<svg width="24" height="24" viewBox="0 0 24 24" fill="none" xmlns="http://www.w3.org/2000/svg">
<path d="M19 12.5L20.0161 13.6034C20.3245 13.3194 20.5 12.9193 20.5 12.5C20.5 12.0807 20.3245 11.6806 20.0161 11.3966L19 12.5ZM12.9573 4.89656C12.3478 4.33539 11.3989 4.37451 10.8377 4.98392C10.2766 5.59333 10.3157 6.54227 10.9251 7.10344L12.9573 4.89656ZM10.9251 17.8966C10.3157 18.4577 10.2766 19.4067 10.8377 20.0161C11.3989 20.6255 12.3478 20.6646 12.9573 20.1034L10.9251 17.8966ZM4 11C3.17157 11 2.5 11.6716 2.5 12.5C2.5 13.3284 3.17157 14 4 14V11ZM20.0161 11.3966L12.9573 4.89656L10.9251 7.10344L17.9839 13.6034L20.0161 11.3966ZM17.9839 11.3966L10.9251 17.8966L12.9573 20.1034L20.0161 13.6034L17.9839 11.3966ZM4 14H19V11H4V14Z" fill="#5C453E"/>
</svg>
