<svg width="690" height="1193" viewBox="0 0 690 1193" fill="none" xmlns="http://www.w3.org/2000/svg">
<rect x="479" y="442" width="36" height="374" fill="#4E3528"/>
<rect x="490" y="442" width="36" height="374" fill="#382721"/>
<path fill-rule="evenodd" clip-rule="evenodd" d="M683.964 328.831L507.74 23.6002L331.515 328.831H456.627L384.916 453.037H471.307L426.933 529.895H589.426L545.052 453.037H630.563L558.852 328.831H683.964Z" fill="#7C834F"/>
<path fill-rule="evenodd" clip-rule="evenodd" d="M515.179 0L523.592 14.5718L527.766 7.34231L558.281 60.1961H512.486L521.57 75.9296H473.805L495.68 113.819L504.166 99.1212L506.42 103.025L521.997 76.0454L534.835 98.2818L549.793 72.3742L580.308 125.228H550.393L552.512 128.899H550.397L564.478 153.288L585.456 116.952L615.971 169.806H589.25L604.537 196.284L606.434 192.998L636.949 245.852H610.795L623.396 267.678L631.065 254.395L661.58 307.249H648.992L673.913 350.413H612.882L637.803 307.249H621.917L628.558 318.75H570.794L591.108 353.936H569.784L579.301 370.42L585.258 360.102L615.773 412.956H591.361L615.773 455.239H563.827L568.646 463.586L572.869 456.272L603.384 509.126H552.264L556.753 516.902H495.723L501.826 506.331H468.623L493.249 548.984H432.219L456.845 506.331H456.083L485.072 456.12H484.272L496.478 434.978H456.083L458.626 430.574H425.251L431.374 419.969H412.807L439.755 466.645H378.725L405.674 419.969H393.934L424.449 367.115L443.169 399.539L455.766 377.72L472.454 406.624L486.598 382.125L497.859 401.629L511.662 377.72H471.058L481.23 360.102H432.299L455.568 319.799H421.432L432.938 339.728H371.907L383.414 319.799H331L357.646 273.648H336.769L367.284 220.794L391.917 263.46L405.045 240.723L419.316 265.441L433.89 240.198L445.361 260.068L458.299 237.658H428.775L428.889 237.46H383.97L414.485 184.607L417.696 190.168L437.022 156.695H419.108L440 120.508H438.512L464.25 75.9296H460.539L491.055 23.0758L496.455 32.4305L515.179 0ZM488.124 456.12L509.469 493.092L521.661 471.976H512.46L521.615 456.12H488.124ZM536.074 384.768H571.018L554.743 412.956H579.155L559.285 447.372L542.975 419.122L533.458 435.606L520.381 412.956H552.349L536.074 384.768ZM504.398 412.956L506.795 417.108L509.192 412.956H504.398ZM501.573 324.867L487.279 349.624L470.06 319.799H480.138L468.315 299.321H507.42L495.723 319.581H512.479L505.5 331.669L501.573 324.867ZM517.992 281.009L526.238 266.727L527.922 269.644L539.778 249.11H519.507L522.05 244.705H484.272L488.34 237.658H479.66L491.398 257.988L498.049 246.467L517.992 281.009ZM483.301 272.013H452.548L467.924 298.645L483.301 272.013ZM531.356 376.452L544.355 353.936H530.078L531.014 352.315H517.421L531.356 376.452ZM538.345 216.482L533.676 224.569L529.007 216.482H538.345ZM484.14 216.482H500.566L489.073 236.389L463.349 191.833H498.371L484.14 216.482ZM456.316 188.248L474.533 156.695H438.099L456.316 188.248ZM492.264 151.975L506.824 177.193L514.655 163.629L515.603 165.271L523.279 151.975H492.264ZM577.288 243.481L554.13 203.371H600.445L577.288 243.481ZM580.538 249.11L578.657 245.852H593.196L582.838 263.792L574.362 249.11H580.538ZM569.161 315.922L587.9 283.465H571.48L578.092 272.013H529.289L553.333 313.657L560.593 301.082L569.161 315.922ZM608.185 283.465L611.233 288.744L614.281 283.465H608.185ZM434.247 293.577L420.27 317.786L406.292 293.577H434.247ZM376.891 293.577H398.553L387.722 312.337L376.891 293.577ZM365.384 273.648L375.71 291.532L386.036 273.648H365.384ZM445.543 208.616L436.945 223.508L428.346 208.616H445.543ZM459.245 120.508L475.532 148.717L491.818 120.508H459.245ZM521.358 128.899L528.98 142.101L536.602 128.899H521.358ZM554.941 169.806H518.222L541.757 210.571L550.022 196.256L550.864 197.714L566.977 169.806H554.941ZM542.812 331.88L535.711 319.581H549.913L542.812 331.88ZM547.309 500.544L530.815 471.976H563.802L547.309 500.544Z" fill="#676843"/>
<path d="M460 849C460 828.565 476.565 812 497 812H653C673.435 812 690 828.565 690 849V1180C690 1187.18 684.18 1193 677 1193H473C465.82 1193 460 1187.18 460 1180V849Z" fill="#3F2C25"/>
<path fill-rule="evenodd" clip-rule="evenodd" d="M485.556 858.548H460V871.325C460 877.114 463.849 882.003 469.127 883.574V923.121C469.127 925.263 470.864 927 473.006 927C475.148 927 476.885 925.263 476.885 923.121V883.429C478.804 882.778 480.518 881.684 481.905 880.268V887.07C481.905 889.212 483.641 890.949 485.784 890.949C487.926 890.949 489.663 889.212 489.663 887.07V880.711C491.077 882.019 492.788 883.01 494.683 883.574V903.498C494.683 905.64 496.419 907.377 498.561 907.377C500.704 907.377 502.44 905.64 502.44 903.498V883.429C507.483 881.718 511.111 876.946 511.111 871.325V858.548L485.556 858.548ZM485.556 871.349C485.556 871.649 485.567 871.948 485.588 872.243C485.566 872.244 485.545 872.245 485.523 872.247C485.544 871.95 485.555 871.651 485.556 871.349ZM536.634 872.247L536.656 872.245L536.699 872.243C536.678 871.948 536.667 871.65 536.667 871.35C536.666 871.651 536.655 871.951 536.634 872.247ZM533.016 880.268C531.629 881.684 529.915 882.778 527.996 883.429V939.55C527.996 941.692 526.259 943.429 524.117 943.429C521.975 943.429 520.238 941.692 520.238 939.55V883.574C514.96 882.003 511.111 877.114 511.111 871.325V858.548H536.667H562.222V871.325C562.222 876.946 558.594 881.718 553.552 883.429V913.994C553.552 916.136 551.815 917.873 549.673 917.873C547.53 917.873 545.794 916.136 545.794 913.994V883.574C543.899 883.01 542.188 882.019 540.774 880.711V901.216C540.774 903.359 539.037 905.095 536.895 905.095C534.753 905.095 533.016 903.359 533.016 901.216V880.268ZM613.366 872.243C613.344 872.244 613.322 872.245 613.301 872.247C613.322 871.95 613.333 871.651 613.333 871.349C613.334 871.65 613.345 871.948 613.366 872.243ZM604.663 883.429C606.581 882.778 608.295 881.684 609.683 880.268V887.07C609.683 889.212 611.419 890.949 613.561 890.949C615.704 890.949 617.44 889.212 617.44 887.07V880.711C618.855 882.019 620.566 883.01 622.46 883.574V904.411C622.46 906.553 624.197 908.29 626.339 908.29C628.482 908.29 630.218 906.553 630.218 904.411V883.429C635.26 881.718 638.889 876.946 638.889 871.325V858.548H613.333H587.778H562.222V871.325C562.222 877.114 566.071 882.003 571.349 883.574V929.51C571.349 931.652 573.086 933.389 575.228 933.389C577.37 933.389 579.107 931.652 579.107 929.51V883.429C581.026 882.778 582.74 881.684 584.127 880.268V893.915C584.127 896.057 585.864 897.794 588.006 897.794C590.148 897.794 591.885 896.057 591.885 893.915V880.711C593.299 882.019 595.01 883.01 596.905 883.574V911.256C596.905 913.398 598.641 915.135 600.784 915.135C602.926 915.135 604.663 913.398 604.663 911.256V883.429ZM587.745 872.247C587.766 871.951 587.777 871.651 587.778 871.35C587.778 871.65 587.789 871.948 587.81 872.243C587.788 872.244 587.767 872.245 587.745 872.247ZM655.774 883.429C657.692 882.778 659.406 881.684 660.794 880.268V883.419C660.794 885.561 662.53 887.298 664.673 887.298C666.815 887.298 668.552 885.561 668.552 883.419V880.711C669.966 882.019 671.677 883.01 673.571 883.574V916.732C673.571 918.875 675.308 920.611 677.45 920.611C679.593 920.611 681.329 918.875 681.329 916.732V883.429C686.371 881.718 690 876.946 690 871.325V858.548H664.444H638.889V871.325C638.889 877.114 642.738 882.003 648.016 883.574V891.633C648.016 893.775 649.753 895.512 651.895 895.512C654.037 895.512 655.774 893.775 655.774 891.633V883.429ZM664.444 871.349C664.444 871.651 664.433 871.95 664.412 872.247C664.433 872.245 664.455 872.244 664.477 872.243C664.456 871.948 664.445 871.65 664.444 871.349ZM549.673 923.349C547.53 923.349 545.794 925.086 545.794 927.228C545.794 929.371 547.53 931.107 549.673 931.107C551.815 931.107 553.552 929.371 553.552 927.228C553.552 925.086 551.815 923.349 549.673 923.349ZM622.46 916.732C622.46 914.59 624.197 912.853 626.339 912.853C628.482 912.853 630.218 914.59 630.218 916.732V920.839C630.218 922.982 628.482 924.718 626.339 924.718C624.197 924.718 622.46 922.982 622.46 920.839V916.732ZM524.117 948.905C521.975 948.905 520.238 950.642 520.238 952.784C520.238 954.926 521.975 956.663 524.117 956.663C526.259 956.663 527.996 954.926 527.996 952.784C527.996 950.642 526.259 948.905 524.117 948.905ZM596.905 925.859C596.905 923.717 598.641 921.98 600.784 921.98C602.926 921.98 604.663 923.717 604.663 925.859V942.288C604.663 944.43 602.926 946.167 600.784 946.167C598.641 946.167 596.905 944.43 596.905 942.288V925.859ZM651.895 900.988C649.753 900.988 648.016 902.725 648.016 904.867V913.538C648.016 915.68 649.753 917.417 651.895 917.417C654.037 917.417 655.774 915.68 655.774 913.538V904.867C655.774 902.725 654.037 900.988 651.895 900.988Z" fill="#30221D"/>
<path fill-rule="evenodd" clip-rule="evenodd" d="M536.667 852.615H562.222V865.393C562.222 872.45 556.501 878.171 549.444 878.171C542.395 878.171 536.68 872.463 536.667 865.417C536.654 872.463 530.938 878.171 523.889 878.171C516.832 878.171 511.111 872.45 511.111 865.393V852.615H536.667ZM460 852.615H485.556V852.615H511.111V865.393C511.111 872.45 505.39 878.171 498.333 878.171C491.284 878.171 485.568 872.462 485.556 865.416C485.543 872.462 479.827 878.171 472.778 878.171C465.721 878.171 460 872.45 460 865.393V852.615ZM638.889 852.615H613.333H587.778H562.222V865.393C562.222 872.45 567.943 878.171 575 878.171C582.049 878.171 587.765 872.463 587.778 865.417C587.791 872.463 593.507 878.171 600.556 878.171C607.605 878.171 613.32 872.463 613.333 865.417C613.346 872.463 619.062 878.171 626.111 878.171C633.168 878.171 638.889 872.45 638.889 865.393V852.615ZM638.889 852.615H664.444H690V865.393C690 872.45 684.279 878.171 677.222 878.171C670.173 878.171 664.457 872.463 664.444 865.417C664.432 872.463 658.716 878.171 651.667 878.171C644.61 878.171 638.889 872.45 638.889 865.393V852.615Z" fill="#676843"/>
<path fill-rule="evenodd" clip-rule="evenodd" d="M493.77 812C475.119 812 460 827.119 460 845.77H690C690 827.119 674.881 812 656.23 812H493.77ZM485.556 845.77H460V858.548C460 865.605 465.721 871.325 472.778 871.325C479.827 871.325 485.543 865.617 485.556 858.571C485.568 865.617 491.284 871.325 498.333 871.325C505.39 871.325 511.111 865.605 511.111 858.548V845.77H485.556H485.556ZM562.222 845.77H536.667H511.111V858.548C511.111 865.605 516.832 871.325 523.889 871.325C530.938 871.325 536.654 865.618 536.667 858.572C536.68 865.618 542.395 871.325 549.444 871.325C556.501 871.325 562.222 865.605 562.222 858.548V845.77ZM562.222 845.77H587.778H613.333H638.889V858.548C638.889 865.605 633.168 871.325 626.111 871.325C619.062 871.325 613.346 865.618 613.333 858.572C613.32 865.618 607.605 871.325 600.556 871.325C593.507 871.325 587.791 865.618 587.778 858.572C587.765 865.618 582.049 871.325 575 871.325C567.943 871.325 562.222 865.605 562.222 858.548V845.77ZM677.222 871.325C684.279 871.325 690 865.605 690 858.548V845.77H664.444H638.889V858.548C638.889 865.605 644.61 871.325 651.667 871.325C658.716 871.325 664.432 865.618 664.444 858.572C664.457 865.618 670.173 871.325 677.222 871.325Z" fill="#7C834F"/>
<rect x="148.323" y="603.546" width="27.0659" height="229.454" fill="#4E3528"/>
<rect x="156.402" y="603.546" width="27.4699" height="229.454" fill="#382721"/>
<path fill-rule="evenodd" clip-rule="evenodd" d="M305.878 516.288L170.137 281.179L34.3962 516.288H130.766L75.5299 611.961H142.074L107.894 671.162H233.058L198.878 611.961H264.744L209.508 516.288H305.878Z" fill="#7C834F"/>
<path fill-rule="evenodd" clip-rule="evenodd" d="M175.868 263L182.348 274.224L185.563 268.656L209.068 309.367H173.793L180.79 321.486H143.998L160.848 350.671L167.384 339.35L169.121 342.358L181.119 321.575L191.008 338.703L202.53 318.748L226.034 359.459H202.992L204.624 362.287H202.995L213.841 381.073L230 353.085L253.504 393.797H232.922L244.697 414.192L246.158 411.661L269.663 452.372H249.517L259.224 469.184L265.131 458.953L288.635 499.665H278.939L298.135 532.912H251.125L270.321 499.665H258.085L263.2 508.524H218.706L234.353 535.626H217.928L225.259 548.323L229.847 540.376L253.352 581.088H234.548L253.352 613.657H213.34L217.052 620.087L220.304 614.453L243.809 655.165H204.433L207.891 661.154H160.881L165.582 653.012H140.007L158.976 685.866H111.966L130.935 653.012H130.347L152.677 614.336H152.06L161.462 598.051H130.347L132.306 594.658H106.599L111.315 586.49H97.0134L117.771 622.443H70.7612L91.5189 586.49H82.4763L105.981 545.778L120.401 570.753L130.104 553.947L142.957 576.21L153.852 557.339L162.526 572.363L173.159 553.947H141.882L149.717 540.376H112.027L129.951 509.332H103.657L112.519 524.683H65.5097L74.3724 509.332H34L54.5243 473.783H38.4437L61.9486 433.071L80.9228 465.935L91.0341 448.422L102.027 467.462L113.253 448.018L122.089 463.323L132.055 446.061H109.313L109.401 445.909H74.8008L98.3057 405.197L100.779 409.481L115.665 383.697H101.867L117.96 355.824H116.813L136.638 321.486H133.78L157.285 280.775L161.445 287.98L175.868 263ZM155.028 614.336L171.47 642.814L180.86 626.549H173.773L180.825 614.336H155.028ZM191.962 559.375H218.878L206.342 581.088H225.146L209.841 607.597L197.278 585.838L189.947 598.534L179.875 581.088H204.498L191.962 559.375ZM167.564 581.088L169.41 584.286L171.256 581.088H167.564ZM165.387 513.235L154.377 532.305L141.113 509.332H148.877L139.769 493.558H169.891L160.881 509.164H173.788L168.412 518.474L165.387 513.235ZM178.035 479.453L184.386 468.452L185.683 470.699L194.815 454.882H179.202L181.16 451.489H152.06L155.194 446.061H148.508L157.55 461.721L162.673 452.846L178.035 479.453ZM151.313 472.523H127.625L139.469 493.037L151.313 472.523ZM188.328 552.969L198.341 535.626H187.344L188.064 534.378H177.594L188.328 552.969ZM193.711 429.75L190.115 435.979L186.519 429.75H193.711ZM151.959 429.75H164.611L155.759 445.084L135.944 410.763H162.921L151.959 429.75ZM130.527 408.002L144.559 383.697H116.495L130.527 408.002ZM158.217 380.062L169.432 399.486L175.464 389.038L176.194 390.303L182.107 380.062H158.217ZM223.708 450.546L205.871 419.651H241.545L223.708 450.546ZM226.211 454.882L224.762 452.372H235.962L227.983 466.191L221.454 454.882H226.211ZM217.448 506.345L231.882 481.344H219.234L224.327 472.523H186.737L205.256 504.601L210.849 494.915L217.448 506.345ZM247.507 481.344L249.855 485.411L252.203 481.344H247.507ZM113.528 489.133L102.762 507.782L91.9951 489.133H113.528ZM69.3482 489.133H86.034L77.6911 503.584L69.3482 489.133ZM60.4854 473.783L68.4387 487.558L76.392 473.783H60.4854ZM122.229 423.69L115.606 435.162L108.983 423.69H122.229ZM132.784 355.824L145.328 377.552L157.873 355.824H132.784ZM180.627 362.287L186.498 372.456L192.369 362.287H180.627ZM206.495 393.797H178.211L196.34 425.197L202.706 414.17L203.355 415.293L215.766 393.797H206.495ZM191.683 509.164H202.622L197.152 518.637L191.683 509.164ZM187.912 626.549H213.32L200.616 648.554L187.912 626.549Z" fill="#676843"/>
<path d="M0 849C0 828.565 16.5655 812 37 812H193C213.435 812 230 828.565 230 849V1180C230 1187.18 224.18 1193 217 1193H13C5.82029 1193 0 1187.18 0 1180V849Z" fill="#3F2C25"/>
<path fill-rule="evenodd" clip-rule="evenodd" d="M25.5556 858.548H0V871.325C0 877.114 3.84888 882.003 9.127 883.574V923.121C9.127 925.263 10.8637 927 13.006 927C15.1483 927 16.8849 925.263 16.8849 923.121V883.429C18.8036 882.778 20.5175 881.684 21.9048 880.268V887.07C21.9048 889.212 23.6414 890.949 25.7837 890.949C27.926 890.949 29.6627 889.212 29.6627 887.07V880.711C31.0771 882.019 32.7877 883.01 34.6825 883.574V903.498C34.6825 905.64 36.4192 907.377 38.5615 907.377C40.7038 907.377 42.4404 905.64 42.4404 903.498V883.429C47.4826 881.718 51.1111 876.946 51.1111 871.325V858.548L25.5556 858.548ZM25.5555 871.349C25.5561 871.649 25.567 871.948 25.588 872.243C25.5662 872.244 25.5445 872.245 25.5228 872.247C25.544 871.95 25.555 871.651 25.5555 871.349ZM76.634 872.247L76.6562 872.245L76.6991 872.243C76.6781 871.948 76.6672 871.65 76.6667 871.35C76.6661 871.651 76.6551 871.951 76.634 872.247ZM73.0159 880.268C71.6287 881.684 69.9147 882.778 67.9961 883.429V939.55C67.9961 941.692 66.2594 943.429 64.1171 943.429C61.9748 943.429 60.2381 941.692 60.2381 939.55V883.574C54.96 882.003 51.1111 877.114 51.1111 871.325V858.548H76.6666H102.222V871.325C102.222 876.946 98.5937 881.718 93.5516 883.429V913.994C93.5516 916.136 91.8149 917.873 89.6726 917.873C87.5303 917.873 85.7936 916.136 85.7936 913.994V883.574C83.8989 883.01 82.1883 882.019 80.7738 880.711V901.216C80.7738 903.359 79.0371 905.095 76.8949 905.095C74.7526 905.095 73.0159 903.359 73.0159 901.216V880.268ZM153.366 872.243C153.344 872.244 153.322 872.245 153.301 872.247C153.322 871.95 153.333 871.651 153.333 871.349C153.334 871.65 153.345 871.948 153.366 872.243ZM144.663 883.429C146.581 882.778 148.295 881.684 149.683 880.268V887.07C149.683 889.212 151.419 890.949 153.561 890.949C155.704 890.949 157.44 889.212 157.44 887.07V880.711C158.855 882.019 160.566 883.01 162.46 883.574V904.411C162.46 906.553 164.197 908.29 166.339 908.29C168.482 908.29 170.218 906.553 170.218 904.411V883.429C175.26 881.718 178.889 876.946 178.889 871.325V858.548H153.333H127.778H102.222V871.325C102.222 877.114 106.071 882.003 111.349 883.574V929.51C111.349 931.652 113.086 933.389 115.228 933.389C117.37 933.389 119.107 931.652 119.107 929.51V883.429C121.026 882.778 122.74 881.684 124.127 880.268V893.915C124.127 896.057 125.864 897.794 128.006 897.794C130.148 897.794 131.885 896.057 131.885 893.915V880.711C133.299 882.019 135.01 883.01 136.905 883.574V911.256C136.905 913.398 138.641 915.135 140.784 915.135C142.926 915.135 144.663 913.398 144.663 911.256V883.429ZM127.745 872.247C127.766 871.951 127.777 871.651 127.778 871.35C127.778 871.65 127.789 871.948 127.81 872.243C127.788 872.244 127.767 872.245 127.745 872.247ZM195.774 883.429C197.692 882.778 199.406 881.684 200.794 880.268V883.419C200.794 885.561 202.53 887.298 204.673 887.298C206.815 887.298 208.552 885.561 208.552 883.419V880.711C209.966 882.019 211.677 883.01 213.571 883.574V916.732C213.571 918.875 215.308 920.611 217.45 920.611C219.593 920.611 221.329 918.875 221.329 916.732V883.429C226.371 881.718 230 876.946 230 871.325V858.548H204.444H178.889V871.325C178.889 877.114 182.738 882.003 188.016 883.574V891.633C188.016 893.775 189.753 895.512 191.895 895.512C194.037 895.512 195.774 893.775 195.774 891.633V883.429ZM204.444 871.349C204.444 871.651 204.433 871.95 204.412 872.247C204.433 872.245 204.455 872.244 204.477 872.243C204.456 871.948 204.445 871.65 204.444 871.349ZM89.6726 923.349C87.5303 923.349 85.7936 925.086 85.7936 927.228C85.7936 929.371 87.5303 931.107 89.6726 931.107C91.8149 931.107 93.5516 929.371 93.5516 927.228C93.5516 925.086 91.8149 923.349 89.6726 923.349ZM162.46 916.732C162.46 914.59 164.197 912.853 166.339 912.853C168.482 912.853 170.218 914.59 170.218 916.732V920.839C170.218 922.982 168.482 924.718 166.339 924.718C164.197 924.718 162.46 922.982 162.46 920.839V916.732ZM64.1171 948.905C61.9748 948.905 60.2381 950.642 60.2381 952.784C60.2381 954.926 61.9748 956.663 64.1171 956.663C66.2594 956.663 67.9961 954.926 67.9961 952.784C67.9961 950.642 66.2594 948.905 64.1171 948.905ZM136.905 925.859C136.905 923.717 138.641 921.98 140.784 921.98C142.926 921.98 144.663 923.717 144.663 925.859V942.288C144.663 944.43 142.926 946.167 140.784 946.167C138.641 946.167 136.905 944.43 136.905 942.288V925.859ZM191.895 900.988C189.753 900.988 188.016 902.725 188.016 904.867V913.538C188.016 915.68 189.753 917.417 191.895 917.417C194.037 917.417 195.774 915.68 195.774 913.538V904.867C195.774 902.725 194.037 900.988 191.895 900.988Z" fill="#30221D"/>
<path fill-rule="evenodd" clip-rule="evenodd" d="M76.6666 852.615H102.222V865.393C102.222 872.45 96.5014 878.171 89.4444 878.171C82.3954 878.171 76.6795 872.463 76.6667 865.417C76.6538 872.463 70.9379 878.171 63.8889 878.171C56.8319 878.171 51.1111 872.45 51.1111 865.393V852.615H76.6666ZM0 852.615H25.5555V852.615H51.1111V865.393C51.1111 872.45 45.3903 878.171 38.3333 878.171C31.284 878.171 25.5679 872.462 25.5555 865.416C25.5432 872.462 19.8271 878.171 12.7778 878.171C5.72081 878.171 0 872.45 0 865.393V852.615ZM178.889 852.615H153.333H127.778H102.222V865.393C102.222 872.45 107.943 878.171 115 878.171C122.049 878.171 127.765 872.463 127.778 865.417C127.791 872.463 133.507 878.171 140.556 878.171C147.605 878.171 153.32 872.463 153.333 865.417C153.346 872.463 159.062 878.171 166.111 878.171C173.168 878.171 178.889 872.45 178.889 865.393V852.615ZM178.889 852.615H204.444H230V865.393C230 872.45 224.279 878.171 217.222 878.171C210.173 878.171 204.457 872.463 204.444 865.417C204.432 872.463 198.716 878.171 191.667 878.171C184.61 878.171 178.889 872.45 178.889 865.393V852.615Z" fill="#676843"/>
<path fill-rule="evenodd" clip-rule="evenodd" d="M33.7698 812C15.1193 812 0 827.119 0 845.77H230C230 827.119 214.881 812 196.23 812H33.7698ZM25.5555 845.77H0V858.548C0 865.605 5.72081 871.325 12.7778 871.325C19.8271 871.325 25.5431 865.617 25.5555 858.571C25.5679 865.617 31.284 871.325 38.3333 871.325C45.3903 871.325 51.1111 865.605 51.1111 858.548V845.77H25.5556H25.5555ZM102.222 845.77H76.6666H51.1111V858.548C51.1111 865.605 56.8319 871.325 63.8889 871.325C70.9379 871.325 76.6538 865.618 76.6667 858.572C76.6795 865.618 82.3954 871.325 89.4444 871.325C96.5014 871.325 102.222 865.605 102.222 858.548V845.77ZM102.222 845.77H127.778H153.333H178.889V858.548C178.889 865.605 173.168 871.325 166.111 871.325C159.062 871.325 153.346 865.618 153.333 858.572C153.32 865.618 147.605 871.325 140.556 871.325C133.507 871.325 127.791 865.618 127.778 858.572C127.765 865.618 122.049 871.325 115 871.325C107.943 871.325 102.222 865.605 102.222 858.548V845.77ZM217.222 871.325C224.279 871.325 230 865.605 230 858.548V845.77H204.444H178.889V858.548C178.889 865.605 184.61 871.325 191.667 871.325C198.716 871.325 204.432 865.618 204.444 858.572C204.457 865.618 210.173 871.325 217.222 871.325Z" fill="#7C834F"/>
</svg>
