<svg width="48" height="48" viewBox="0 0 48 48" fill="none" xmlns="http://www.w3.org/2000/svg">
<path d="M32.8213 12.8571C32.8213 12.8571 32.8213 12.8571 32.8213 12.8571C32.8213 7.98516 28.8718 4.03571 23.9999 4.03571C19.128 4.03571 15.1785 7.98518 15.1785 12.8571C15.1785 12.8571 15.1785 12.8571 15.1785 12.8571L15.1779 17.7897C14.0598 17.873 13.2547 18.0968 12.4233 18.5414C11.3729 19.1032 10.5316 19.9444 9.96986 20.9948C9.37695 22.1035 9.17847 23.1634 9.17847 24.9667V35.0333C9.17847 36.8366 9.37695 37.8965 9.96986 39.0052C10.5316 40.0556 11.3729 40.8968 12.4233 41.4586C13.5319 42.0515 14.5918 42.25 16.3951 42.25H31.6047C33.408 42.25 34.4678 42.0515 35.5765 41.4586C36.6269 40.8968 37.4682 40.0556 38.0299 39.0052C38.6228 37.8965 38.8213 36.8366 38.8213 35.0333V24.9667C38.8213 23.1634 38.6228 22.1035 38.0299 20.9948C37.4682 19.9444 36.6269 19.1032 35.5765 18.5414C34.7453 18.0969 33.9403 17.8731 32.8228 17.7897L32.8213 12.8571ZM16.3951 20.8214H31.6047C33.1127 20.8214 33.6203 20.9783 34.128 21.2498C34.6432 21.5253 35.046 21.9281 35.3215 22.4433C35.593 22.951 35.7499 23.4586 35.7499 24.9667V35.0333C35.7499 36.5414 35.593 37.049 35.3215 37.5567C35.046 38.0719 34.6432 38.4747 34.128 38.7502C33.6203 39.0217 33.1127 39.1786 31.6047 39.1786H16.3951C14.8871 39.1786 14.3795 39.0217 13.8718 38.7502C13.3566 38.4747 12.9538 38.0719 12.6783 37.5567C12.4068 37.049 12.2499 36.5414 12.2499 35.0333V24.9667C12.2499 23.4586 12.4068 22.951 12.6783 22.4433C12.9538 21.9281 13.3566 21.5253 13.8718 21.2498C14.3795 20.9783 14.8871 20.8214 16.3951 20.8214ZM26.8213 28.2857C26.8213 26.7275 25.5581 25.4643 23.9999 25.4643C22.4417 25.4643 21.1785 26.7275 21.1785 28.2857C21.1785 29.4513 21.8852 30.4513 22.8928 30.8816L22.8928 33.4286C22.8928 34.04 23.3884 34.5357 23.9999 34.5357C24.6113 34.5357 25.107 34.0401 25.107 33.4286C25.107 33.4286 25.107 33.4286 25.107 33.4286L25.1078 30.8813C26.115 30.4508 26.8213 29.451 26.8213 28.2857ZM18.2499 12.8571C18.2499 9.6815 20.8243 7.10714 23.9999 7.10714C27.1755 7.10714 29.7499 9.6815 29.7499 12.8571V17.75H18.2499V12.8571Z" fill="#574039" stroke="#574039" stroke-width="0.5"/>
</svg>
