<svg width="24" height="24" viewBox="0 0 24 24" fill="none" xmlns="http://www.w3.org/2000/svg">
<path d="M23 11.3889C23.0042 13.0021 22.6273 14.5934 21.9 16.0333C21.0376 17.7588 19.7119 19.2101 18.0713 20.2247C16.4307 21.2393 14.5401 21.777 12.6111 21.7778C11.2763 21.7813 9.95636 21.5238 8.72484 21.0228C8.23089 20.8218 7.6821 20.7726 7.17621 20.9413L4.79473 21.7351C3.23121 22.2563 1.74374 20.7688 2.26491 19.2053L3.05874 16.8238C3.22737 16.3179 3.17815 15.7691 2.97721 15.2752C2.4762 14.0436 2.21874 12.7237 2.22222 11.3889C2.22297 9.45995 2.76075 7.56929 3.77532 5.9287C4.78989 4.28811 6.24119 2.96239 7.96666 2.10003C9.40657 1.37273 10.9979 0.995829 12.6111 1.00003H13.2222C15.7697 1.14058 18.1759 2.21585 19.98 4.01997C21.7841 5.82409 22.8594 8.23026 23 10.7778V11.3889Z" fill="#574039"/>
</svg>
