<svg width="24" height="24" viewBox="0 0 24 24" fill="none" xmlns="http://www.w3.org/2000/svg">
<path fill-rule="evenodd" clip-rule="evenodd" d="M0.5 8.5C0.5 4.08172 4.08172 0.5 8.5 0.5H15.5C19.9183 0.5 23.5 4.08172 23.5 8.5V15.5C23.5 19.9183 19.9183 23.5 15.5 23.5H8.5C4.08172 23.5 0.5 19.9183 0.5 15.5V8.5ZM12 15.1364C11.1339 15.1364 10.4318 14.4343 10.4318 13.5682V10.4318C10.4318 9.56573 11.1339 8.86364 12 8.86364C12.8661 8.86364 13.5682 9.56574 13.5682 10.4318V13.5682C13.5682 14.4343 12.8661 15.1364 12 15.1364Z" fill="#574039"/>
</svg>
