<svg width="24" height="24" viewBox="0 0 24 24" fill="none" xmlns="http://www.w3.org/2000/svg">
<path d="M8.66663 16.3889V14.1667C8.66663 12.0958 8.66663 11.0604 9.00494 10.2436C9.45602 9.15462 10.3212 8.2894 11.4103 7.83831C12.227 7.5 13.2624 7.5 15.3333 7.5C17.4041 7.5 18.4396 7.5 19.2563 7.83831C20.3453 8.2894 21.2106 9.15462 21.6616 10.2436C22 11.0604 22 12.0958 22 14.1667V16.3889C22 18.4597 22 19.4952 21.6616 20.3119C21.2106 21.4009 20.3453 22.2662 19.2563 22.7172C18.4396 23.0556 17.4041 23.0556 15.3333 23.0556C13.2624 23.0556 12.227 23.0556 11.4103 22.7172C10.3212 22.2662 9.45602 21.4009 9.00494 20.3119C8.66663 19.4952 8.66663 18.4597 8.66663 16.3889Z" fill="#877867" fill-opacity="0.25"/>
<path d="M2 10.8333V8.61113C2 6.54027 2 5.50485 2.33831 4.68809C2.7894 3.59907 3.65462 2.73386 4.74363 2.28277C5.56039 1.94446 6.59581 1.94446 8.66667 1.94446C10.7375 1.94446 11.7729 1.94446 12.5897 2.28277C13.6787 2.73386 14.5439 3.59907 14.995 4.68809C15.3333 5.50485 15.3333 6.54027 15.3333 8.61113V10.8333C15.3333 12.9042 15.3333 13.9396 14.995 14.7564C14.5439 15.8454 13.6787 16.7106 12.5897 17.1617C11.7729 17.5 10.7375 17.5 8.66667 17.5C6.59581 17.5 5.56039 17.5 4.74363 17.1617C3.65462 16.7106 2.7894 15.8454 2.33831 14.7564C2 13.9396 2 12.9042 2 10.8333Z" fill="#877867"/>
</svg>
