<svg width="36" height="36" viewBox="0 0 36 36" fill="none" xmlns="http://www.w3.org/2000/svg">
<path d="M13.6669 12.9056C13.6537 12.0776 12.5718 11.7736 12.1293 12.4735L6.59255 21.2313C6.21239 21.8326 6.71195 22.6031 7.41605 22.5014L13.349 21.6444C13.8461 21.5726 14.2934 21.9537 14.3014 22.4559L14.3636 26.3598C14.3768 27.1878 15.4587 27.4917 15.9012 26.7918L21.4379 18.0341C21.8181 17.4327 21.3185 16.6623 20.6144 16.764L14.6815 17.6209C14.1843 17.6927 13.7371 17.3117 13.7291 16.8094L13.6669 12.9056Z" fill="#574039" stroke="#574039" stroke-width="1.66667" stroke-linecap="round" stroke-linejoin="round"/>
<path opacity="0.5" d="M27.5467 9.6615C27.7922 8.86811 26.853 8.24307 26.216 8.77593L23.1376 11.3508C22.5942 11.8054 22.8299 12.6877 23.5276 12.8107L25.7573 13.2038C26.2514 13.291 26.557 13.7917 26.4087 14.2709L26.2116 14.9079C25.966 15.7013 26.9053 16.3263 27.5423 15.7934L30.6206 13.2186C31.164 12.764 30.9284 11.8817 30.2307 11.7587L28.001 11.3655C27.5069 11.2784 27.2013 10.7777 27.3496 10.2985L27.5467 9.6615Z" fill="#574039" stroke="#574039" stroke-width="1.66667" stroke-linecap="round" stroke-linejoin="round"/>
</svg>
