<svg width="36" height="36" viewBox="0 0 36 36" fill="none" xmlns="http://www.w3.org/2000/svg">
<path d="M16.59 7.5407C16.6159 6.71301 15.5495 6.35839 15.0745 7.03671L9.13131 15.5239C8.72324 16.1066 9.18595 16.8998 9.89406 16.8314L15.8608 16.2549C16.3608 16.2066 16.7895 16.6083 16.7739 17.1103L16.6521 21.0128C16.6263 21.8405 17.6927 22.1951 18.1677 21.5168L24.1108 13.0296C24.5189 12.4468 24.0562 11.6537 23.3481 11.7221L17.3813 12.2986C16.8814 12.3469 16.4526 11.9452 16.4683 11.4432L16.59 7.5407Z" fill="#574039" stroke="#574039" stroke-width="1.66667" stroke-linecap="round" stroke-linejoin="round"/>
<path opacity="0.4" d="M30.4273 19.2357C30.7743 18.4811 29.9247 17.7388 29.2236 18.1839L25.8353 20.3347C25.2372 20.7144 25.3556 21.6199 26.0313 21.833L28.1906 22.514C28.669 22.6649 28.9067 23.2012 28.697 23.6569L28.4184 24.2627C28.0713 25.0173 28.9209 25.7596 29.6221 25.3145L33.0103 23.1637C33.6085 22.784 33.49 21.8785 32.8144 21.6654L30.6551 20.9844C30.1766 20.8335 29.939 20.2972 30.1486 19.8414L30.4273 19.2357Z" fill="#574039" stroke="#574039" stroke-width="1.66667" stroke-linecap="round" stroke-linejoin="round"/>
<path opacity="0.6" d="M5.81553 23.1559C5.65773 22.3406 4.53471 22.2326 4.22439 23.0029L2.72489 26.7255C2.46018 27.3826 3.08422 28.0494 3.75744 27.8287L5.90892 27.1235C6.38562 26.9672 6.89133 27.2645 6.98664 27.757L7.11333 28.4117C7.27112 29.2271 8.39415 29.3351 8.70446 28.5647L10.204 24.8421C10.4687 24.185 9.84463 23.5182 9.17141 23.7389L7.01994 24.4441C6.54323 24.6004 6.03753 24.3031 5.94221 23.8106L5.81553 23.1559Z" fill="#574039" stroke="#574039" stroke-width="1.66667" stroke-linecap="round" stroke-linejoin="round"/>
</svg>
