<svg width="24" height="24" viewBox="0 0 24 24" fill="none" xmlns="http://www.w3.org/2000/svg">
<path d="M3.66247 16.042C1.70752 13.882 1.70752 10.6634 3.66247 8.50344C5.5395 6.42957 8.36534 4.27271 12 4.27271C15.6347 4.27271 18.4605 6.42957 20.3375 8.50344C22.2925 10.6634 22.2925 13.882 20.3375 16.042C18.4605 18.1158 15.6347 20.2727 12 20.2727C8.36534 20.2727 5.5395 18.1158 3.66247 16.042Z" fill="#877867" fill-opacity="0.25"/>
<path d="M12 15.2727C13.6569 15.2727 15 13.9296 15 12.2727C15 10.6159 13.6569 9.27271 12 9.27271C10.3431 9.27271 9 10.6159 9 12.2727C9 13.9296 10.3431 15.2727 12 15.2727Z" fill="#877867"/>
</svg>
