<svg width="14" height="15" viewBox="0 0 14 15" fill="none" xmlns="http://www.w3.org/2000/svg">
<g id="Iconly/Light/Home">
<g id="Home">
<path id="Home_2" fill-rule="evenodd" clip-rule="evenodd" d="M5.34163 12.6167V10.8278C5.34162 10.3728 5.71257 10.0031 6.17218 10H7.85572C8.31752 10 8.69188 10.3706 8.69188 10.8278V10.8278V12.6223C8.69177 13.0086 9.00323 13.3244 9.39336 13.3334H10.5157C11.6346 13.3334 12.5416 12.4355 12.5416 11.3278V11.3278V6.23882C12.5356 5.80306 12.3289 5.39387 11.9804 5.12768L8.14192 2.06651C7.46946 1.5335 6.51354 1.5335 5.84108 2.06651L2.01943 5.13324C1.66957 5.39834 1.46256 5.80822 1.45825 6.24437V11.3278C1.45825 12.4355 2.36526 13.3334 3.48412 13.3334H4.60648C5.00629 13.3334 5.3304 13.0125 5.3304 12.6167V12.6167" fill="currentColor"/>
</g>
</g>
</svg>
