<svg width="16" height="23" viewBox="0 0 16 23" fill="none" xmlns="http://www.w3.org/2000/svg">
<path d="M9 21C10.6776 21 12.1146 20.6217 13.1182 19.6182C14.1217 18.6146 14.5 17.1776 14.5 15.5V8C14.5 6.31998 14.1213 4.80023 13.1711 3.68902C12.1971 2.55009 10.7613 2 9 2H6.5C4.73216 2 3.37733 2.55804 2.52368 3.75985C1.72495 4.88434 1.5 6.39743 1.5 8V15.5C1.5 17.091 1.71963 18.5266 2.5697 19.55C3.46075 20.6228 4.82747 21 6.5 21H9Z" stroke="#574039" stroke-width="2" stroke-linecap="round"/>
<path d="M10 16L6 16" stroke="#574039" stroke-width="2" stroke-linecap="round"/>
</svg>
