<svg width="37" height="37" viewBox="0 0 37 37" fill="none" xmlns="http://www.w3.org/2000/svg">
<path d="M9.22727 5.5V7H9.22727L9.22727 5.5ZM17.9848 5.5V4V5.5ZM19.0152 28.5C19.8436 28.5 20.5152 27.8284 20.5152 27C20.5152 26.1716 19.8436 25.5 19.0152 25.5V28.5ZM24.2121 21.5033C24.214 22.3318 24.887 23.0018 25.7155 23C26.5439 22.9981 27.214 22.3251 27.2121 21.4967L24.2121 21.5033ZM25.6903 11.7282L27.1903 11.7249L27.1902 11.6828L27.1877 11.6407L25.6903 11.7282ZM35.5 27L36.5447 28.0764C36.8358 27.7939 37 27.4056 37 27C37 26.5944 36.8358 26.2061 36.5447 25.9236L35.5 27ZM32.9387 22.4236C32.3442 21.8466 31.3945 21.8608 30.8176 22.4553C30.2406 23.0498 30.2548 23.9994 30.8492 24.5764L32.9387 22.4236ZM30.8492 29.4236C30.2548 30.0006 30.2406 30.9502 30.8176 31.5447C31.3945 32.1392 32.3442 32.1534 32.9387 31.5764L30.8492 29.4236ZM24.6818 25.5C23.8534 25.5 23.1818 26.1716 23.1818 27C23.1818 27.8284 23.8534 28.5 24.6818 28.5V25.5ZM9.22727 4C6.50532 4 4.13421 4.51975 2.445 5.99532C0.711142 7.50989 0 9.75677 0 12.5H3C3 10.2432 3.57674 8.99011 4.41863 8.25469C5.30519 7.48026 6.79771 7 9.22727 7V4ZM17.9848 4L9.22727 4L9.22727 7L17.9848 7V4ZM19.0152 25.5H9.22727V28.5H19.0152V25.5ZM3 20V12.5H0V20H3ZM27.2121 21.4967L27.1903 11.7249L24.1903 11.7316L24.2121 21.5033L27.2121 21.4967ZM36.5447 25.9236L32.9387 22.4236L30.8492 24.5764L34.4553 28.0764L36.5447 25.9236ZM34.4553 25.9236L30.8492 29.4236L32.9387 31.5764L36.5447 28.0764L34.4553 25.9236ZM24.6818 28.5H35.5V25.5H24.6818V28.5ZM9.22727 25.5C6.79771 25.5 5.30519 25.0197 4.41863 24.2453C3.57674 23.5099 3 22.2568 3 20H0C0 22.7432 0.711142 24.9901 2.445 26.5047C4.13421 27.9803 6.50532 28.5 9.22727 28.5V25.5ZM17.9848 7C20.2824 7 21.7458 7.43008 22.6465 8.13327C23.489 8.79108 24.0798 9.88043 24.1929 11.8157L27.1877 11.6407C27.0417 9.14089 26.2186 7.11613 24.4926 5.76861C22.8248 4.46647 20.5651 4 17.9848 4V7Z" fill="#6B6356"/>
</svg>
