<svg width="37" height="37" viewBox="0 0 37 37" fill="none" xmlns="http://www.w3.org/2000/svg">
<path d="M11.5845 24.6094C12.6351 24.0501 13.7878 23.5867 14.9612 23.3458C14.977 23.3426 14.9857 23.3427 14.9886 23.3428C14.9917 23.343 14.9934 23.3433 14.9949 23.3438C14.9971 23.3445 15.0117 23.3493 15.0343 23.3704C15.0843 23.4171 15.1452 23.5198 15.1452 23.6667V24.5806C15.1452 27.591 18.6937 29.1969 20.9553 27.2099L29.1626 19.9991C30.8188 18.544 30.7335 15.9385 28.9857 14.5949L20.7783 8.2854C18.4765 6.51586 15.1452 8.15683 15.1452 11.0602V12.6145C15.1452 12.825 14.9653 13.1684 14.5036 13.3228C11.7347 14.2484 8.12089 16.4874 6.43028 20.8334C6.13953 21.5808 6.13505 22.3609 6.42727 23.0656C6.70964 23.7466 7.2205 24.2436 7.77347 24.5634C8.8535 25.1881 10.3276 25.2784 11.5845 24.6094Z" stroke="#6B6356" stroke-width="3" stroke-linecap="round" stroke-linejoin="round"/>
</svg>
