<svg width="28" height="39" viewBox="0 0 28 39" fill="none" xmlns="http://www.w3.org/2000/svg">
<g filter="url(#filter0_d)">
<path fill-rule="evenodd" clip-rule="evenodd" d="M23.9139 25.5751C23.8747 25.9976 23.6933 26.4094 23.3697 26.7329C23.3232 26.7794 23.2749 26.823 23.225 26.8636L21.8072 28.2813L21.2737 28.8146C20.5373 29.5509 19.3433 29.5509 18.6069 28.8146C17.8761 28.0839 17.8706 26.9026 18.5903 26.165L18.6069 26.1482L19.3625 25.3927L19.361 25.3913L17.993 24.0234L17.9708 24.0008C17.2567 23.2629 17.2641 22.0858 17.993 21.357C18.6475 20.7027 19.6633 20.6298 20.3982 21.1386V21.1387C20.4902 21.2024 20.5778 21.2752 20.6598 21.3571L20.6929 21.3903L20.7536 21.451L23.2249 23.9219C23.2749 23.9625 23.3232 24.0061 23.3697 24.0526C23.6329 24.3157 23.802 24.6373 23.8771 24.9755C23.901 25.0833 23.9154 25.1928 23.9202 25.3026C23.9215 25.3329 23.9221 25.3632 23.922 25.3935M23.922 25.3936C23.9222 25.4541 23.9195 25.5147 23.9139 25.5751L23.922 25.3936ZM21.2025 18.178C19.4304 17.4421 17.313 17.7946 15.8719 19.2356C14.1286 20.9785 13.9779 23.7109 15.4197 25.625C14.6944 27.3931 15.0498 29.5003 16.4858 30.9361C16.5971 31.0474 16.7125 31.1523 16.8315 31.2506V31.8987C16.8315 32.2902 16.5141 32.6075 16.1226 32.6075H14.7089C14.3174 32.6075 14 32.2902 14 31.8987V31.0346V30.3974H13.8315H11H10.8315V31.0346V31.8987C10.8315 32.2902 10.5141 32.6075 10.1226 32.6075H8.70886C8.31737 32.6075 8 32.2902 8 31.8987V31.0346V30.3974V30.3056C7.94331 30.2926 7.88712 30.2782 7.83148 30.2624C7.31363 30.1162 6.8429 29.8569 6.44737 29.5126C5.82992 29.664 5.15151 29.499 4.66923 29.0144C3.93423 28.2759 3.93423 27.0786 4.66923 26.3401L5.19955 25.8073V10.6285C5.19955 8.62455 6.81616 7 8.81032 7H16.7875C18.7816 7 20.3982 8.62455 20.3982 10.6285V15.0089C21.2763 15.0975 21.9616 15.8389 21.9616 16.7404C21.9616 17.3376 21.6608 17.8645 21.2025 18.178ZM23.6053 20.0598C24.4444 19.205 24.9616 18.0336 24.9616 16.7404C24.9616 15.3439 24.3585 14.0895 23.3982 13.2223V10.6285C23.3982 6.98156 20.4523 4 16.7875 4H8.81032C5.14548 4 2.19955 6.98156 2.19955 10.6285V24.6066C0.650888 26.5256 0.765333 29.3447 2.54288 31.1307L4.65253 29.0311L2.54288 31.1307C3.25386 31.8451 4.12923 32.2911 5.04416 32.4727C5.32008 34.2485 6.85576 35.6075 8.70886 35.6075H10.1226C10.9883 35.6075 11.7847 35.3109 12.4157 34.8139C13.0468 35.3109 13.8432 35.6075 14.7089 35.6075H16.1226C17.8966 35.6075 19.3797 34.362 19.7452 32.6977C19.9554 32.5921 20.1591 32.4757 20.3556 32.3492C21.1867 32.2788 22.0032 31.9963 22.7173 31.5019C22.762 31.471 22.8063 31.4393 22.8501 31.4067C23.0402 31.2655 23.2223 31.1087 23.3948 30.9362L23.9283 30.4028L23.9283 30.4027L24.0459 30.2852L24.0459 30.2852L25.2629 29.0684C25.3408 28.9998 25.4169 28.9285 25.4909 28.8545L25.4906 28.8547C25.4907 28.8546 25.4908 28.8545 25.4909 28.8544C26.4455 27.8999 26.9232 26.6425 26.922 25.3953C26.922 25.395 26.922 25.3948 26.922 25.3945C26.9222 25.3167 26.9204 25.2389 26.9168 25.161M26.7973 24.2884C26.5987 23.4253 26.163 22.6031 25.4909 21.931C25.4169 21.857 25.3408 21.7857 25.2628 21.717L23.6053 20.0598C23.6053 20.0598 23.6053 20.0598 23.6053 20.0599L25.2628 21.7171C25.3408 21.7858 25.4169 21.8571 25.4909 21.9311L23.419 24.0032L25.4909 21.9311C26.163 22.6031 26.5987 23.4253 26.7973 24.2884ZM20.255 32.3567L19.7452 32.6977L20.0721 32.3651C20.1331 32.3634 20.1941 32.3607 20.255 32.3567Z" fill="#574039"/>
</g>
<defs>
<filter id="filter0_d" x="0.46057" y="3.21111" width="27.1189" height="32.9223" filterUnits="userSpaceOnUse" color-interpolation-filters="sRGB">
<feFlood flood-opacity="0" result="BackgroundImageFix"/>
<feColorMatrix in="SourceAlpha" type="matrix" values="0 0 0 0 0 0 0 0 0 0 0 0 0 0 0 0 0 0 127 0"/>
<feOffset dy="-0.131482"/>
<feGaussianBlur stdDeviation="0.328706"/>
<feColorMatrix type="matrix" values="0 0 0 0 0 0 0 0 0 0 0 0 0 0 0 0 0 0 0.07 0"/>
<feBlend mode="normal" in2="BackgroundImageFix" result="effect1_dropShadow"/>
<feBlend mode="normal" in="SourceGraphic" in2="effect1_dropShadow" result="shape"/>
</filter>
</defs>
</svg>
