<svg width="17" height="22" viewBox="0 0 17 22" fill="none" xmlns="http://www.w3.org/2000/svg">
<g filter="url(#filter0_d)">
<path fill-rule="evenodd" clip-rule="evenodd" d="M6.8819 17.8683C6.94638 17.8146 7.009 17.7574 7.06952 17.6969C7.8879 16.8787 8.0889 15.6768 7.67252 14.6701C8.49742 13.5817 8.41337 12.0241 7.42037 11.0312C6.60346 10.2145 5.40438 10.0128 4.39877 10.4263C4.12873 10.2485 3.95049 9.94262 3.95049 9.59511C3.95049 9.07995 4.34221 8.65626 4.84402 8.60566V6.10301C4.84402 4.9579 5.7678 4.02959 6.90731 4.02959H11.4657C12.6052 4.02959 13.529 4.9579 13.529 6.10301V14.7768L13.8317 15.0809C14.2517 15.5029 14.2517 16.1871 13.8317 16.6091C13.5562 16.8859 13.1687 16.9802 12.816 16.8939C12.5863 17.0939 12.3121 17.2437 12.0104 17.3265C11.9833 17.3339 11.956 17.3408 11.9284 17.3472V17.3995V17.782V18.2319C11.9284 18.4696 11.7357 18.6623 11.498 18.6623H10.7408C10.5031 18.6623 10.3104 18.4696 10.3104 18.2319V17.782V17.3995H10.2284H10.1999H8.61042H8.5819H8.49989V17.782V18.2319C8.49989 18.4696 8.30719 18.6623 8.06949 18.6623H7.3123C7.0746 18.6623 6.8819 18.4696 6.8819 18.2319V17.8683ZM6.01965 18.3563L9.40515 19.8917C9.77051 20.1861 10.2351 20.3623 10.7408 20.3623H11.498C12.5582 20.3623 13.4374 19.5879 13.6011 18.5739C14.1261 18.4724 14.6289 18.218 15.0366 17.8083C16.0482 16.7919 16.1124 15.1869 15.229 14.0958V6.10301C15.229 4.02688 13.5519 2.32959 11.4657 2.32959H6.90731C4.82107 2.32959 3.14402 4.02688 3.14402 6.10301V7.591C2.59534 8.08406 2.25049 8.79898 2.25049 9.59511C2.25049 10.3354 2.54862 11.0054 3.03154 11.4922L2.07529 12.4483C2.03036 12.4877 1.98655 12.5288 1.94395 12.5714C1.9182 12.5971 1.89307 12.6233 1.86855 12.6498C1.84556 12.6746 1.82311 12.6997 1.8012 12.7252C1.34921 13.2503 1.12534 13.9064 1.13016 14.5563C1.13334 15.2605 1.40492 15.9691 1.94375 16.5078L1.94469 16.5082C1.98682 16.5503 2.03012 16.5909 2.07452 16.6299L2.07521 16.6306L2.07428 16.6302L2.8366 17.3924L3.14143 17.6972L3.14672 17.7025L3.14673 17.7025L3.15359 17.7093L3.15887 17.7145L3.15889 17.7145C3.64021 18.1874 4.25011 18.4486 4.87263 18.5006C4.98913 18.5758 5.11011 18.6447 5.23508 18.707C5.45098 19.6549 6.29903 20.3623 7.3123 20.3623H8.06949C8.57522 20.3623 9.03979 20.1861 9.40515 19.8917L5.98244 18.3689C5.99486 18.3648 6.00727 18.3606 6.01965 18.3563ZM4.84402 12.1086C5.26396 11.8179 5.8444 11.8595 6.21838 12.2334C6.63491 12.6499 6.63915 13.3225 6.2311 13.7441L6.21838 13.7571L5.43585 14.5395L5.86753 14.9711L5.87703 14.9807C6.28832 15.4022 6.28515 16.0772 5.86753 16.4948C5.44672 16.9155 4.76448 16.9155 4.34367 16.4948L3.22907 15.3803C3.20041 15.357 3.17267 15.332 3.14599 15.3054C2.93622 15.0956 2.83101 14.8209 2.83038 14.546C2.82782 14.2854 2.91929 14.024 3.10479 13.817C3.11795 13.8023 3.13158 13.7879 3.14569 13.7738C3.17254 13.747 3.20045 13.7219 3.22929 13.6984L4.654 12.274L4.67588 12.2521L4.69428 12.2337C4.74119 12.1868 4.79134 12.1451 4.84402 12.1087V12.1086Z" fill="white"/>
</g>
<defs>
<filter id="filter0_d" x="0.730965" y="1.8506" width="15.5149" height="18.831" filterUnits="userSpaceOnUse" color-interpolation-filters="sRGB">
<feFlood flood-opacity="0" result="BackgroundImageFix"/>
<feColorMatrix in="SourceAlpha" type="matrix" values="0 0 0 0 0 0 0 0 0 0 0 0 0 0 0 0 0 0 127 0" result="hardAlpha"/>
<feOffset dy="-0.0798323"/>
<feGaussianBlur stdDeviation="0.199581"/>
<feColorMatrix type="matrix" values="0 0 0 0 0 0 0 0 0 0 0 0 0 0 0 0 0 0 0.07 0"/>
<feBlend mode="normal" in2="BackgroundImageFix" result="effect1_dropShadow"/>
<feBlend mode="normal" in="SourceGraphic" in2="effect1_dropShadow" result="shape"/>
</filter>
</defs>
</svg>
