<svg width="34" height="34" viewBox="0 0 34 34" fill="none" xmlns="http://www.w3.org/2000/svg">
<path d="M11.1931 7.22185C11.8902 5.59272 14.1098 5.59271 14.8069 7.22185L16.4977 11.1735C16.7852 11.8454 17.3946 12.3067 18.0969 12.384L22.2269 12.8381C23.9295 13.0253 24.6154 15.2245 23.3436 16.4186L20.2586 19.3149C19.734 19.8074 19.5012 20.5539 19.6477 21.2735L20.5094 25.5058C20.8646 27.2507 19.0689 28.6099 17.5858 27.7187L13.9884 25.5571C13.3767 25.1896 12.6233 25.1896 12.0116 25.5571L8.4142 27.7187C6.9311 28.6099 5.13538 27.2507 5.49062 25.5058L6.35229 21.2735C6.4988 20.5539 6.266 19.8074 5.74143 19.3149L2.65644 16.4186C1.38459 15.2245 2.0705 13.0253 3.77315 12.8381L7.9031 12.384C8.60535 12.3067 9.21484 11.8454 9.50234 11.1735L11.1931 7.22185Z" fill="#5C453E"/>
</svg>
