<svg width="14" height="14" viewBox="0 0 14 14" fill="none" xmlns="http://www.w3.org/2000/svg">
<path d="M6.17869 2.55539C6.49554 1.81487 7.50446 1.81487 7.82131 2.55539L8.58985 4.35159C8.72053 4.65701 8.99757 4.8667 9.31677 4.9018L11.194 5.10822C11.968 5.19331 12.2797 6.19296 11.7016 6.73572L10.2993 8.05225C10.0609 8.27611 9.95509 8.6154 10.0217 8.94251L10.4134 10.8663C10.5748 11.6594 9.75859 12.2772 9.08445 11.8721L7.44926 10.8896C7.17122 10.7225 6.82878 10.7225 6.55074 10.8896L4.91555 11.8721C4.24141 12.2772 3.42517 11.6594 3.58664 10.8663L3.97831 8.94251C4.04491 8.6154 3.93909 8.27611 3.70065 8.05225L2.29838 6.73572C1.72027 6.19296 2.03204 5.19331 2.80598 5.10822L4.68323 4.9018C5.00243 4.8667 5.27947 4.65701 5.41015 4.35159L6.17869 2.55539Z" fill="#5C453E"/>
</svg>
