<svg width="54" height="15" viewBox="0 0 54 15" fill="none" xmlns="http://www.w3.org/2000/svg">
<g filter="url(#filter0_d)">
<path d="M6.79753 2.93086C7.09721 2.39917 7.86286 2.39917 8.16255 2.93086L9.34806 5.03416C9.45986 5.23252 9.65242 5.37242 9.87561 5.41745L12.2423 5.89498C12.8406 6.0157 13.0772 6.74388 12.6641 7.19319L11.0301 8.97063C10.876 9.13826 10.8025 9.36462 10.8286 9.59081L11.1058 11.9892C11.1759 12.5955 10.5564 13.0456 10.0015 12.7916L7.80608 11.7868C7.59905 11.692 7.36103 11.692 7.15399 11.7868L4.95861 12.7916C4.40364 13.0456 3.78421 12.5955 3.85428 11.9892L4.13148 9.59081C4.15762 9.36462 4.08407 9.13826 3.92997 8.97063L2.29595 7.19319C1.88289 6.74388 2.11949 6.0157 2.71776 5.89498L5.08447 5.41745C5.30766 5.37242 5.50022 5.23252 5.61202 5.03416L6.79753 2.93086Z" fill="#F6DA8F"/>
<path d="M7.13879 3.1232C7.28863 2.85736 7.67145 2.85736 7.82129 3.1232L9.0068 5.22651L9.34806 5.03416L9.0068 5.22651C9.1745 5.52404 9.46334 5.73389 9.79813 5.80144L12.1648 6.27897C12.464 6.33933 12.5823 6.70342 12.3757 6.92808L10.7417 8.70552C10.5106 8.95695 10.4003 9.29651 10.4395 9.63578L10.7167 12.0342C10.7517 12.3374 10.442 12.5624 10.1645 12.4354L7.96911 11.4306C7.65855 11.2885 7.30153 11.2885 6.99097 11.4306L4.79558 12.4354C4.5181 12.5624 4.20839 12.3374 4.24342 12.0342L4.52062 9.63578C4.55983 9.2965 4.4495 8.95695 4.21836 8.70552L2.58434 6.92808C2.37781 6.70342 2.49611 6.33933 2.79524 6.27897L5.16195 5.80144C5.49674 5.73389 5.78558 5.52404 5.95328 5.22651L7.13879 3.1232Z" stroke="#FFCE3B" stroke-width="0.783455"/>
</g>
<g filter="url(#filter1_d)">
<path d="M19.6774 2.93086C19.9771 2.39917 20.7427 2.39917 21.0424 2.93086L22.2279 5.03416C22.3397 5.23252 22.5323 5.37242 22.7555 5.41745L25.1222 5.89498C25.7205 6.0157 25.9571 6.74388 25.544 7.19319L23.91 8.97063C23.7559 9.13826 23.6823 9.36462 23.7085 9.59081L23.9857 11.9892C24.0557 12.5955 23.4363 13.0456 22.8814 12.7916L20.686 11.7868C20.4789 11.692 20.2409 11.692 20.0339 11.7868L17.8385 12.7916C17.2835 13.0456 16.6641 12.5955 16.7342 11.9892L17.0114 9.59081C17.0375 9.36462 16.964 9.13826 16.8099 8.97063L15.1758 7.19319C14.7628 6.74388 14.9994 6.0157 15.5976 5.89498L17.9644 5.41745C18.1875 5.37242 18.3801 5.23252 18.4919 5.03416L19.6774 2.93086Z" fill="#F6DA8F"/>
<path d="M20.0187 3.1232C20.1685 2.85736 20.5513 2.85736 20.7012 3.1232L21.8867 5.22651L22.2279 5.03416L21.8867 5.22651C22.0544 5.52404 22.3432 5.73389 22.678 5.80144L25.0447 6.27897C25.3439 6.33933 25.4622 6.70342 25.2556 6.92808L23.6216 8.70552C23.3905 8.95695 23.2801 9.29651 23.3193 9.63578L23.5965 12.0342C23.6316 12.3374 23.3219 12.5624 23.0444 12.4354L20.849 11.4306C20.5384 11.2885 20.1814 11.2885 19.8709 11.4306L17.6755 12.4354C17.398 12.5624 17.0883 12.3374 17.1233 12.0342L17.4005 9.63578C17.4397 9.2965 17.3294 8.95695 17.0982 8.70552L15.4642 6.92808C15.2577 6.70342 15.376 6.33933 15.6751 6.27897L18.0418 5.80144C18.3766 5.73389 18.6655 5.52404 18.8332 5.22651L20.0187 3.1232Z" stroke="#FFCE3B" stroke-width="0.783455"/>
</g>
<g filter="url(#filter2_d)">
<path d="M32.5575 2.93086C32.8572 2.39917 33.6229 2.39917 33.9226 2.93086L35.1081 5.03416C35.2199 5.23252 35.4124 5.37242 35.6356 5.41745L38.0023 5.89498C38.6006 6.0157 38.8372 6.74388 38.4241 7.19319L36.7901 8.97063C36.636 9.13826 36.5625 9.36462 36.5886 9.59081L36.8658 11.9892C36.9359 12.5955 36.3164 13.0456 35.7615 12.7916L33.5661 11.7868C33.3591 11.692 33.121 11.692 32.914 11.7868L30.7186 12.7916C30.1636 13.0456 29.5442 12.5955 29.6143 11.9892L29.8915 9.59081C29.9176 9.36462 29.8441 9.13826 29.69 8.97063L28.056 7.19319C27.6429 6.74388 27.8795 6.0157 28.4778 5.89498L30.8445 5.41745C31.0677 5.37242 31.2602 5.23252 31.372 5.03416L32.5575 2.93086Z" fill="#F6DA8F"/>
<path d="M32.8988 3.1232C33.0486 2.85736 33.4315 2.85736 33.5813 3.1232L34.7668 5.22651L35.1081 5.03416L34.7668 5.22651C34.9345 5.52404 35.2234 5.73389 35.5581 5.80144L37.9248 6.27897C38.224 6.33933 38.3423 6.70342 38.1358 6.92808L36.5017 8.70552C36.2706 8.95695 36.1603 9.29651 36.1995 9.63578L36.4767 12.0342C36.5117 12.3374 36.202 12.5624 35.9245 12.4354L33.7291 11.4306C33.4186 11.2885 33.0615 11.2885 32.751 11.4306L30.5556 12.4354C30.2781 12.5624 29.9684 12.3374 30.0034 12.0342L30.2806 9.63578C30.3198 9.2965 30.2095 8.95695 29.9784 8.70552L28.3443 6.92808C28.1378 6.70342 28.2561 6.33933 28.5553 6.27897L30.922 5.80144C31.2567 5.73389 31.5456 5.52404 31.7133 5.22651L32.8988 3.1232Z" stroke="#FFCE3B" stroke-width="0.783455"/>
</g>
<g filter="url(#filter3_d)">
<path d="M45.4374 2.93086C45.7371 2.39917 46.5028 2.39917 46.8024 2.93086L47.9879 5.03416C48.0997 5.23252 48.2923 5.37242 48.5155 5.41745L50.8822 5.89498C51.4805 6.0157 51.7171 6.74388 51.304 7.19319L49.67 8.97063C49.5159 9.13826 49.4424 9.36462 49.4685 9.59081L49.7457 11.9892C49.8158 12.5955 49.1963 13.0456 48.6414 12.7916L46.446 11.7868C46.2389 11.692 46.0009 11.692 45.7939 11.7868L43.5985 12.7916C43.0435 13.0456 42.4241 12.5955 42.4942 11.9892L42.7714 9.59081C42.7975 9.36462 42.724 9.13826 42.5699 8.97063L40.9358 7.19319C40.5228 6.74388 40.7594 6.0157 41.3577 5.89498L43.7244 5.41745C43.9476 5.37242 44.1401 5.23252 44.2519 5.03416L45.4374 2.93086Z" fill="#F6DA8F"/>
<path d="M45.7787 3.1232C45.9285 2.85736 46.3113 2.85736 46.4612 3.1232L47.6467 5.22651L47.9879 5.03416L47.6467 5.22651C47.8144 5.52404 48.1032 5.73389 48.438 5.80144L50.8047 6.27897C51.1039 6.33933 51.2222 6.70342 51.0156 6.92808L49.3816 8.70552C49.1505 8.95695 49.0401 9.29651 49.0794 9.63578L49.3565 12.0342C49.3916 12.3374 49.0819 12.5624 48.8044 12.4354L46.609 11.4306C46.2984 11.2885 45.9414 11.2885 45.6309 11.4306L43.4355 12.4354C43.158 12.5624 42.8483 12.3374 42.8833 12.0342L43.1605 9.63578C43.1997 9.2965 43.0894 8.95695 42.8582 8.70552L41.2242 6.92808C41.0177 6.70342 41.136 6.33933 41.4351 6.27897L43.8018 5.80144C44.1366 5.73389 44.4255 5.52404 44.5932 5.22651L45.7787 3.1232Z" stroke="#FFCE3B" stroke-width="0.783455"/>
</g>
<defs>
<filter id="filter0_d" x="0.521713" y="0.965179" width="13.9167" height="13.4656" filterUnits="userSpaceOnUse" color-interpolation-filters="sRGB">
<feFlood flood-opacity="0" result="BackgroundImageFix"/>
<feColorMatrix in="SourceAlpha" type="matrix" values="0 0 0 0 0 0 0 0 0 0 0 0 0 0 0 0 0 0 127 0"/>
<feOffset/>
<feGaussianBlur stdDeviation="0.783455"/>
<feColorMatrix type="matrix" values="0 0 0 0 0 0 0 0 0 0 0 0 0 0 0 0 0 0 0.11 0"/>
<feBlend mode="normal" in2="BackgroundImageFix" result="effect1_dropShadow"/>
<feBlend mode="normal" in="SourceGraphic" in2="effect1_dropShadow" result="shape"/>
</filter>
<filter id="filter1_d" x="13.4016" y="0.965179" width="13.9167" height="13.4656" filterUnits="userSpaceOnUse" color-interpolation-filters="sRGB">
<feFlood flood-opacity="0" result="BackgroundImageFix"/>
<feColorMatrix in="SourceAlpha" type="matrix" values="0 0 0 0 0 0 0 0 0 0 0 0 0 0 0 0 0 0 127 0"/>
<feOffset/>
<feGaussianBlur stdDeviation="0.783455"/>
<feColorMatrix type="matrix" values="0 0 0 0 0 0 0 0 0 0 0 0 0 0 0 0 0 0 0.11 0"/>
<feBlend mode="normal" in2="BackgroundImageFix" result="effect1_dropShadow"/>
<feBlend mode="normal" in="SourceGraphic" in2="effect1_dropShadow" result="shape"/>
</filter>
<filter id="filter2_d" x="26.2817" y="0.965179" width="13.9167" height="13.4656" filterUnits="userSpaceOnUse" color-interpolation-filters="sRGB">
<feFlood flood-opacity="0" result="BackgroundImageFix"/>
<feColorMatrix in="SourceAlpha" type="matrix" values="0 0 0 0 0 0 0 0 0 0 0 0 0 0 0 0 0 0 127 0"/>
<feOffset/>
<feGaussianBlur stdDeviation="0.783455"/>
<feColorMatrix type="matrix" values="0 0 0 0 0 0 0 0 0 0 0 0 0 0 0 0 0 0 0.11 0"/>
<feBlend mode="normal" in2="BackgroundImageFix" result="effect1_dropShadow"/>
<feBlend mode="normal" in="SourceGraphic" in2="effect1_dropShadow" result="shape"/>
</filter>
<filter id="filter3_d" x="39.1616" y="0.965179" width="13.9167" height="13.4656" filterUnits="userSpaceOnUse" color-interpolation-filters="sRGB">
<feFlood flood-opacity="0" result="BackgroundImageFix"/>
<feColorMatrix in="SourceAlpha" type="matrix" values="0 0 0 0 0 0 0 0 0 0 0 0 0 0 0 0 0 0 127 0"/>
<feOffset/>
<feGaussianBlur stdDeviation="0.783455"/>
<feColorMatrix type="matrix" values="0 0 0 0 0 0 0 0 0 0 0 0 0 0 0 0 0 0 0.11 0"/>
<feBlend mode="normal" in2="BackgroundImageFix" result="effect1_dropShadow"/>
<feBlend mode="normal" in="SourceGraphic" in2="effect1_dropShadow" result="shape"/>
</filter>
</defs>
</svg>
