<svg width="36" height="36" viewBox="0 0 36 36" fill="none" xmlns="http://www.w3.org/2000/svg">
<path d="M16.2753 9.33301C16.9406 7.889 19.0594 7.889 19.7247 9.333L21.3387 12.8356C21.6131 13.4312 22.1949 13.8401 22.8652 13.9085L26.8074 14.311C28.4327 14.477 29.0874 16.4263 27.8734 17.4847L24.9286 20.0519C24.4279 20.4884 24.2057 21.15 24.3455 21.7879L25.168 25.5393C25.5071 27.0858 23.793 28.2906 22.3774 27.5007L18.9435 25.5847C18.3596 25.2589 17.6404 25.2589 17.0565 25.5847L13.6226 27.5007C12.207 28.2906 10.4929 27.0858 10.832 25.5393L11.6545 21.7879C11.7943 21.15 11.5721 20.4884 11.0714 20.0519L8.1266 17.4847C6.91257 16.4263 7.56729 14.477 9.19255 14.311L13.1348 13.9085C13.8051 13.8401 14.3869 13.4312 14.6613 12.8356L16.2753 9.33301Z" fill="#5C453E"/>
</svg>
