<svg width="230" height="600" viewBox="0 0 230 600" fill="none" xmlns="http://www.w3.org/2000/svg">
<path d="M0 37C0 16.5655 16.5655 0 37 0H193C213.435 0 230 16.5655 230 37V587C230 594.18 224.18 600 217 600H13C5.82029 600 0 594.18 0 587V37Z" fill="#3F2C25"/>
<path fill-rule="evenodd" clip-rule="evenodd" d="M25.5556 46.5477H0V59.3254C0 65.1138 3.84888 70.0032 9.127 71.5741V111.121C9.127 113.263 10.8637 115 13.006 115C15.1483 115 16.8849 113.263 16.8849 111.121V71.4288C18.8036 70.778 20.5175 69.6837 21.9048 68.268V75.0695C21.9048 77.2118 23.6414 78.9485 25.7837 78.9485C27.926 78.9485 29.6627 77.2118 29.6627 75.0695V68.7113C31.0771 70.0186 32.7877 71.0102 34.6825 71.5741V91.4981C34.6825 93.6404 36.4192 95.377 38.5615 95.377C40.7038 95.377 42.4404 93.6404 42.4404 91.4981V71.4288C47.4826 69.7184 51.1111 64.9457 51.1111 59.3255V46.5477L25.5556 46.5477ZM25.5555 59.3489C25.5561 59.6495 25.567 59.9476 25.588 60.243C25.5662 60.2441 25.5445 60.2454 25.5228 60.2468C25.544 59.9502 25.555 59.6507 25.5555 59.3489ZM76.634 60.2468L76.6562 60.2454L76.6991 60.243C76.6781 59.948 76.6672 59.6502 76.6667 59.3499C76.6661 59.6514 76.6551 59.9505 76.634 60.2468ZM73.0159 68.2681C71.6287 69.6837 69.9147 70.778 67.9961 71.4288V127.55C67.9961 129.692 66.2594 131.429 64.1171 131.429C61.9748 131.429 60.2381 129.692 60.2381 127.55V71.5741C54.96 70.0033 51.1111 65.1138 51.1111 59.3255V46.5477H76.6666H102.222V59.3255C102.222 64.9457 98.5937 69.7184 93.5516 71.4288V101.994C93.5516 104.136 91.8149 105.873 89.6726 105.873C87.5303 105.873 85.7936 104.136 85.7936 101.994V71.5741C83.8989 71.0102 82.1883 70.0186 80.7738 68.7113V89.2164C80.7738 91.3586 79.0371 93.0953 76.8949 93.0953C74.7526 93.0953 73.0159 91.3586 73.0159 89.2164V68.2681ZM153.366 60.243C153.344 60.2441 153.322 60.2454 153.301 60.2468C153.322 59.9504 153.333 59.651 153.333 59.3493C153.334 59.6498 153.345 59.9478 153.366 60.243ZM144.663 71.4288C146.581 70.778 148.295 69.6837 149.683 68.268V75.0695C149.683 77.2118 151.419 78.9485 153.561 78.9485C155.704 78.9485 157.44 77.2118 157.44 75.0695V68.7113C158.855 70.0186 160.566 71.0102 162.46 71.5741V92.4108C162.46 94.5531 164.197 96.2897 166.339 96.2897C168.482 96.2897 170.218 94.5531 170.218 92.4108V71.4288C175.26 69.7184 178.889 64.9457 178.889 59.3255V46.5477H153.333H127.778H102.222V59.3255C102.222 65.1138 106.071 70.0032 111.349 71.5741V117.51C111.349 119.652 113.086 121.389 115.228 121.389C117.37 121.389 119.107 119.652 119.107 117.51V71.4289C121.026 70.778 122.74 69.6837 124.127 68.2681V81.9148C124.127 84.0571 125.864 85.7937 128.006 85.7937C130.148 85.7937 131.885 84.0571 131.885 81.9148V68.7113C133.299 70.0186 135.01 71.0102 136.905 71.5741V99.256C136.905 101.398 138.641 103.135 140.784 103.135C142.926 103.135 144.663 101.398 144.663 99.256V71.4288ZM127.745 60.2468C127.766 59.9505 127.777 59.6514 127.778 59.3499C127.778 59.6502 127.789 59.948 127.81 60.243C127.788 60.2441 127.767 60.2454 127.745 60.2468ZM195.774 71.4288C197.692 70.778 199.406 69.6837 200.794 68.268V71.4187C200.794 73.561 202.53 75.2977 204.673 75.2977C206.815 75.2977 208.552 73.561 208.552 71.4187V68.7113C209.966 70.0186 211.677 71.0102 213.571 71.5741V104.732C213.571 106.875 215.308 108.611 217.45 108.611C219.593 108.611 221.329 106.875 221.329 104.732V71.4288C226.371 69.7184 230 64.9457 230 59.3255V46.5477H204.444H178.889V59.3255C178.889 65.1138 182.738 70.0033 188.016 71.5741V79.633C188.016 81.7753 189.753 83.512 191.895 83.512C194.037 83.512 195.774 81.7753 195.774 79.633V71.4288ZM204.444 59.3493C204.444 59.6511 204.433 59.9503 204.412 60.2468C204.433 60.2454 204.455 60.2441 204.477 60.243C204.456 59.9478 204.445 59.6497 204.444 59.3493ZM89.6726 111.349C87.5303 111.349 85.7936 113.086 85.7936 115.228C85.7936 117.371 87.5303 119.107 89.6726 119.107C91.8149 119.107 93.5516 117.371 93.5516 115.228C93.5516 113.086 91.8149 111.349 89.6726 111.349ZM162.46 104.732C162.46 102.59 164.197 100.853 166.339 100.853C168.482 100.853 170.218 102.59 170.218 104.732V108.839C170.218 110.982 168.482 112.718 166.339 112.718C164.197 112.718 162.46 110.982 162.46 108.839V104.732ZM64.1171 136.905C61.9748 136.905 60.2381 138.641 60.2381 140.784C60.2381 142.926 61.9748 144.663 64.1171 144.663C66.2594 144.663 67.9961 142.926 67.9961 140.784C67.9961 138.641 66.2594 136.905 64.1171 136.905ZM136.905 113.859C136.905 111.717 138.641 109.98 140.784 109.98C142.926 109.98 144.663 111.717 144.663 113.859V130.288C144.663 132.43 142.926 134.167 140.784 134.167C138.641 134.167 136.905 132.43 136.905 130.288V113.859ZM191.895 88.9882C189.753 88.9882 188.016 90.7248 188.016 92.8671V101.538C188.016 103.68 189.753 105.417 191.895 105.417C194.037 105.417 195.774 103.68 195.774 101.538V92.8671C195.774 90.7248 194.037 88.9882 191.895 88.9882Z" fill="#30221D"/>
<path fill-rule="evenodd" clip-rule="evenodd" d="M76.6666 40.6152H102.222V53.3929C102.222 60.4499 96.5014 66.1707 89.4444 66.1707C82.3954 66.1707 76.6795 60.4628 76.6667 53.4168C76.6538 60.4628 70.9379 66.1707 63.8889 66.1707C56.8319 66.1707 51.1111 60.4499 51.1111 53.393V40.6152H76.6666ZM0 40.6152H25.5555V40.6152H51.1111V53.3929C51.1111 60.4499 45.3903 66.1707 38.3333 66.1707C31.284 66.1707 25.5679 60.4623 25.5555 53.4159C25.5432 60.4623 19.8271 66.1708 12.7778 66.1708C5.72081 66.1708 0 60.4499 0 53.393V40.6152ZM178.889 40.6152H153.333H127.778H102.222V53.393C102.222 60.4499 107.943 66.1707 115 66.1707C122.049 66.1707 127.765 60.4628 127.778 53.4168C127.791 60.4628 133.507 66.1707 140.556 66.1707C147.605 66.1707 153.32 60.4628 153.333 53.4168C153.346 60.4628 159.062 66.1707 166.111 66.1707C173.168 66.1707 178.889 60.4499 178.889 53.3929V40.6152ZM178.889 40.6152H204.444H230V53.3929C230 60.4499 224.279 66.1707 217.222 66.1707C210.173 66.1707 204.457 60.4628 204.444 53.4168C204.432 60.4628 198.716 66.1707 191.667 66.1707C184.61 66.1707 178.889 60.4499 178.889 53.393V40.6152Z" fill="#676843"/>
<path fill-rule="evenodd" clip-rule="evenodd" d="M33.7698 0C15.1193 0 0 15.1193 0 33.7698H230C230 15.1193 214.881 0 196.23 0H33.7698ZM25.5555 33.7699H0V46.5477C0 53.6047 5.72081 59.3255 12.7778 59.3255C19.8271 59.3255 25.5431 53.6171 25.5555 46.5707C25.5679 53.6171 31.284 59.3255 38.3333 59.3255C45.3903 59.3255 51.1111 53.6047 51.1111 46.5477V33.7699H25.5556H25.5555ZM102.222 33.7699H76.6666H51.1111V46.5477C51.1111 53.6047 56.8319 59.3255 63.8889 59.3255C70.9379 59.3255 76.6538 53.6176 76.6667 46.5716C76.6795 53.6176 82.3954 59.3255 89.4444 59.3255C96.5014 59.3255 102.222 53.6047 102.222 46.5477V33.7699ZM102.222 33.7699H127.778H153.333H178.889V46.5477C178.889 53.6047 173.168 59.3255 166.111 59.3255C159.062 59.3255 153.346 53.6176 153.333 46.5716C153.32 53.6176 147.605 59.3255 140.556 59.3255C133.507 59.3255 127.791 53.6176 127.778 46.5716C127.765 53.6176 122.049 59.3255 115 59.3255C107.943 59.3255 102.222 53.6047 102.222 46.5477V33.7699ZM217.222 59.3255C224.279 59.3255 230 53.6047 230 46.5477V33.7699H204.444H178.889V46.5477C178.889 53.6047 184.61 59.3255 191.667 59.3255C198.716 59.3255 204.432 53.6176 204.444 46.5716C204.457 53.6176 210.173 59.3255 217.222 59.3255Z" fill="#7C834F"/>
</svg>
