<svg width="24" height="24" viewBox="0 0 24 24" fill="none" xmlns="http://www.w3.org/2000/svg">
<path fill-rule="evenodd" clip-rule="evenodd" d="M24 8.32C24 1.6 22.4 0 15.68 0H8.32C1.6 0 0 1.6 0 8.32V15.68C0 22.4 1.6 24 8.32 24H15.68C22.4 24 24 22.4 24 15.68V8.32ZM4.50003 7.5H6.25003C6.69728 7.5 6.86552 7.69575 7.03325 8.18034C7.88915 10.6736 9.33225 12.8524 9.92551 12.8524C10.148 12.8524 10.25 12.75 10.25 12.185V9.60792C10.2099 8.87435 9.95362 8.55711 9.76381 8.32213C9.6466 8.17702 9.55473 8.06329 9.55473 7.90225C9.55473 7.70652 9.72196 7.5 10 7.5H12.75C13.1209 7.5 13.25 7.69831 13.25 8.14328V11.6102C13.25 11.981 13.411 12.1108 13.5223 12.1108C13.7447 12.1108 13.9302 11.981 14.338 11.5732C15.1459 10.6702 15.8015 9.45511 16.1683 8.69872C16.3935 8.23423 16.5467 7.61274 17.054 7.51725C17.1136 7.50604 17.1787 7.5 17.25 7.5H19C19.5292 7.5 19.6404 7.77247 19.5292 8.14328C19.3227 9.09012 17.4695 11.7475 17.2058 12.1223L17.1746 12.1664C16.9893 12.4631 16.9151 12.6114 17.1746 12.9451C17.2661 13.0731 17.4611 13.2641 17.6843 13.4827C17.9137 13.7075 18.173 13.9614 18.3798 14.2058C19.1315 15.0515 19.698 15.7649 19.8558 16.2566C20 16.75 19.75 17 19.25 17H17.5C17.0313 17 16.7953 16.7374 16.2852 16.1701C16.0691 15.9296 15.8037 15.6344 15.4504 15.2812C14.4122 14.28 13.9672 14.1502 13.7077 14.1502C13.3554 14.1502 13.25 14.25 13.25 14.75V16.3194C13.25 16.75 13.1124 17 12 17C10.146 17 8.10857 15.8744 6.66248 13.798C4.49331 10.7574 3.90002 8.45844 3.90002 7.99493C3.90002 7.73538 4.00003 7.5 4.50003 7.5Z" fill="#574039"/>
</svg>
