<svg width="101" height="102" viewBox="0 0 101 102" fill="none" xmlns="http://www.w3.org/2000/svg">
<g filter="url(#filter0_d)">
<path d="M13.2359 33.6885C13.6142 20.6121 24.2772 10.2643 37.358 10.0982C41.921 10.0402 46.5222 10 50.5 10C54.4778 10 59.079 10.0402 63.642 10.0982C76.7228 10.2643 87.3858 20.6121 87.7641 33.6885C87.9026 38.4755 88 43.3257 88 47.5C88 51.6743 87.9026 56.5245 87.7641 61.3115C87.3858 74.3879 76.7228 84.7357 63.642 84.9018C59.079 84.9598 54.4778 85 50.5 85C46.5222 85 41.921 84.9598 37.358 84.9018C24.2772 84.7357 13.6142 74.3879 13.2359 61.3115C13.0974 56.5245 13 51.6743 13 47.5C13 43.3257 13.0974 38.4755 13.2359 33.6885Z" fill="white"/>
<path d="M13.2359 33.6885C13.6142 20.6121 24.2772 10.2643 37.358 10.0982C41.921 10.0402 46.5222 10 50.5 10C54.4778 10 59.079 10.0402 63.642 10.0982C76.7228 10.2643 87.3858 20.6121 87.7641 33.6885C87.9026 38.4755 88 43.3257 88 47.5C88 51.6743 87.9026 56.5245 87.7641 61.3115C87.3858 74.3879 76.7228 84.7357 63.642 84.9018C59.079 84.9598 54.4778 85 50.5 85C46.5222 85 41.921 84.9598 37.358 84.9018C24.2772 84.7357 13.6142 74.3879 13.2359 61.3115C13.0974 56.5245 13 51.6743 13 47.5C13 43.3257 13.0974 38.4755 13.2359 33.6885Z" fill="url(#paint0_radial)"/>
</g>
<path fill-rule="evenodd" clip-rule="evenodd" d="M50.5057 42.6447C47.7198 42.6447 45.4613 44.8185 45.4613 47.5C45.4613 50.1815 47.7198 52.3553 50.5057 52.3553C53.2917 52.3553 55.5502 50.1815 55.5502 47.5C55.5502 44.8185 53.2917 42.6447 50.5057 42.6447ZM42.0983 47.5C42.0983 43.0309 45.8624 39.4079 50.5057 39.4079C55.149 39.4079 58.9131 43.0309 58.9131 47.5C58.9131 51.9691 55.149 55.5921 50.5057 55.5921C45.8624 55.5921 42.0983 51.9691 42.0983 47.5Z" fill="white"/>
<path fill-rule="evenodd" clip-rule="evenodd" d="M67.7227 47.5L68.2062 47.7699C70.8675 49.2556 71.7872 52.5281 70.2669 55.1024L67.1816 60.327C65.6425 62.9333 62.1909 63.8319 59.4967 62.3278L59.0815 62.0961V62.6053C59.0815 65.5847 56.5721 68 53.4766 68H47.3581C44.2626 68 41.7532 65.5847 41.7532 62.6053V62.1651L41.5538 62.2791C38.8563 63.8217 35.3686 62.9326 33.8181 60.307L30.733 55.0829C29.2241 52.5278 30.1178 49.2804 32.7429 47.7792L33.2311 47.5L32.7429 47.2208C30.1178 45.7196 29.2241 42.4722 30.733 39.9171L33.8181 34.693C35.3686 32.0674 38.8563 31.1783 41.5538 32.7209L41.7532 32.8349V32.3947C41.7532 29.4153 44.2626 27 47.3581 27H53.4766C56.5721 27 59.0815 29.4153 59.0815 32.3947V32.9039L59.4967 32.6722C62.1909 31.1681 65.6425 32.0667 67.1816 34.673L70.2669 39.8976C71.7872 42.4719 70.8675 45.7444 68.2062 47.2301L67.7227 47.5ZM64.3636 49.3666C62.874 48.5351 62.874 46.4649 64.3636 45.6334L66.519 44.4301C67.5835 43.8358 67.9514 42.5268 67.3433 41.4971L64.2579 36.2725C63.6422 35.23 62.2616 34.8705 61.1839 35.4721L59.0854 36.6436C57.5908 37.478 55.7186 36.44 55.7186 34.777V32.3947C55.7186 31.203 54.7148 30.2368 53.4766 30.2368H47.3581C46.1199 30.2368 45.1162 31.203 45.1162 32.3947V34.731C45.1162 36.4042 43.2235 37.4408 41.729 36.5862L39.836 35.5037C38.757 34.8866 37.362 35.2423 36.7417 36.2925L33.6567 41.5166C33.0531 42.5386 33.4106 43.8376 34.4606 44.4381L36.5709 45.6448C38.0333 46.4811 38.0333 48.5189 36.5709 49.3552L34.4606 50.5619C33.4106 51.1624 33.0531 52.4614 33.6567 53.4834L36.7417 58.7075C37.362 59.7577 38.757 60.1134 39.836 59.4963L41.729 58.4138C43.2235 57.5592 45.1162 58.5958 45.1162 60.269V62.6053C45.1162 63.797 46.1199 64.7632 47.3581 64.7632H53.4766C54.7148 64.7632 55.7186 63.797 55.7186 62.6053V60.223C55.7186 58.56 57.5908 57.522 59.0854 58.3564L61.1839 59.5279C62.2616 60.1295 63.6422 59.77 64.2579 58.7275L67.3433 53.5029C67.9514 52.4732 67.5835 51.1642 66.519 50.5699L64.3636 49.3666Z" fill="white"/>
<defs>
<filter id="filter0_d" x="0.323421" y="0.78067" width="100.353" height="100.353" filterUnits="userSpaceOnUse" color-interpolation-filters="sRGB">
<feFlood flood-opacity="0" result="BackgroundImageFix"/>
<feColorMatrix in="SourceAlpha" type="matrix" values="0 0 0 0 0 0 0 0 0 0 0 0 0 0 0 0 0 0 127 0"/>
<feOffset dy="3.45725"/>
<feGaussianBlur stdDeviation="6.33829"/>
<feColorMatrix type="matrix" values="0 0 0 0 0.745098 0 0 0 0 0.207843 0 0 0 0 0.298039 0 0 0 0.29 0"/>
<feBlend mode="lighten" in2="BackgroundImageFix" result="effect1_dropShadow"/>
<feBlend mode="normal" in="SourceGraphic" in2="effect1_dropShadow" result="shape"/>
</filter>
<radialGradient id="paint0_radial" cx="0" cy="0" r="1" gradientUnits="userSpaceOnUse" gradientTransform="translate(13 94.5) rotate(-39.5449) scale(121.714 2510.76)">
<stop stop-color="#B5344B"/>
<stop offset="1" stop-color="#FF003D"/>
</radialGradient>
</defs>
</svg>
