<svg width="101" height="102" viewBox="0 0 101 102" fill="none" xmlns="http://www.w3.org/2000/svg">
<g filter="url(#filter0_d)">
<path d="M13.2359 33.6885C13.6142 20.6121 24.2772 10.2643 37.358 10.0982C41.921 10.0402 46.5222 10 50.5 10C54.4778 10 59.079 10.0402 63.642 10.0982C76.7228 10.2643 87.3858 20.6121 87.7641 33.6885C87.9026 38.4755 88 43.3257 88 47.5C88 51.6743 87.9026 56.5245 87.7641 61.3115C87.3858 74.3879 76.7228 84.7357 63.642 84.9018C59.079 84.9598 54.4778 85 50.5 85C46.5222 85 41.921 84.9598 37.358 84.9018C24.2772 84.7357 13.6142 74.3879 13.2359 61.3115C13.0974 56.5245 13 51.6743 13 47.5C13 43.3257 13.0974 38.4755 13.2359 33.6885Z" fill="url(#paint0_radial)"/>
</g>
<path fill-rule="evenodd" clip-rule="evenodd" d="M31 56.7436C31 53.7839 33.3993 51.3846 36.359 51.3846C39.3187 51.3846 41.7179 53.7839 41.7179 56.7436V60.641C41.7179 63.6007 39.3187 66 36.359 66C33.3993 66 31 63.6007 31 60.641V56.7436ZM36.359 54.3077C35.0137 54.3077 33.9231 55.3983 33.9231 56.7436V60.641C33.9231 61.9863 35.0137 63.0769 36.359 63.0769C37.7043 63.0769 38.7949 61.9863 38.7949 60.641V56.7436C38.7949 55.3983 37.7043 54.3077 36.359 54.3077Z" fill="white"/>
<path fill-rule="evenodd" clip-rule="evenodd" d="M44.641 45.0513C44.641 42.0916 47.0403 39.6923 50 39.6923C52.9597 39.6923 55.359 42.0916 55.359 45.0513V60.641C55.359 63.6007 52.9597 66 50 66C47.0403 66 44.641 63.6007 44.641 60.641V45.0513ZM50 42.6154C48.6547 42.6154 47.5641 43.706 47.5641 45.0513V60.641C47.5641 61.9863 48.6547 63.0769 50 63.0769C51.3453 63.0769 52.4359 61.9863 52.4359 60.641V45.0513C52.4359 43.706 51.3453 42.6154 50 42.6154Z" fill="white"/>
<path fill-rule="evenodd" clip-rule="evenodd" d="M58.2821 33.359C58.2821 30.3993 60.6813 28 63.641 28C66.6007 28 69 30.3993 69 33.359V60.641C69 63.6007 66.6007 66 63.641 66C60.6813 66 58.2821 63.6007 58.2821 60.641V33.359ZM63.641 30.9231C62.2957 30.9231 61.2051 32.0137 61.2051 33.359V60.641C61.2051 61.9863 62.2957 63.0769 63.641 63.0769C64.9863 63.0769 66.0769 61.9863 66.0769 60.641V33.359C66.0769 32.0137 64.9863 30.9231 63.641 30.9231Z" fill="white"/>
<defs>
<filter id="filter0_d" x="0.323421" y="0.78067" width="100.353" height="100.353" filterUnits="userSpaceOnUse" color-interpolation-filters="sRGB">
<feFlood flood-opacity="0" result="BackgroundImageFix"/>
<feColorMatrix in="SourceAlpha" type="matrix" values="0 0 0 0 0 0 0 0 0 0 0 0 0 0 0 0 0 0 127 0"/>
<feOffset dy="3.45725"/>
<feGaussianBlur stdDeviation="6.33829"/>
<feColorMatrix type="matrix" values="0 0 0 0 0.745098 0 0 0 0 0.207843 0 0 0 0 0.298039 0 0 0 0.29 0"/>
<feBlend mode="lighten" in2="BackgroundImageFix" result="effect1_dropShadow"/>
<feBlend mode="normal" in="SourceGraphic" in2="effect1_dropShadow" result="shape"/>
</filter>
<radialGradient id="paint0_radial" cx="0" cy="0" r="1" gradientUnits="userSpaceOnUse" gradientTransform="translate(13 94.5) rotate(-39.5449) scale(121.714 2510.76)">
<stop stop-color="#B5344B"/>
<stop offset="1" stop-color="#FF003D"/>
</radialGradient>
</defs>
</svg>
