<svg width="36" height="36" viewBox="0 0 36 36" fill="none" xmlns="http://www.w3.org/2000/svg">
<path d="M13 19.8663C17.0144 19.8663 20.5 21.3456 20.5 24.6021C20.5 26.2944 19.8666 27 18.5087 27H7.49122C6.13329 27 5.49996 26.2944 5.49996 24.6021C5.49996 21.3456 8.98557 19.8663 13 19.8663ZM13.0001 9C15.4638 9 17.4596 11.0658 17.4596 13.616C17.4596 16.1661 15.4638 18.2319 13.0001 18.2319C10.5364 18.2319 8.54066 16.1661 8.54066 13.616C8.54066 11.0658 10.5364 9 13.0001 9Z" fill="#5C453E"/>
<path d="M26.5 13V17M26.5 21V17M26.5 17H22.5M26.5 17H30.5" stroke="#5C453E" stroke-width="3" stroke-linecap="round"/>
</svg>
