<svg width="36" height="36" viewBox="0 0 36 36" fill="none" xmlns="http://www.w3.org/2000/svg">
<path d="M7.00003 17.3889C6.99583 19.0021 7.37273 20.5934 8.10003 22.0334C8.96239 23.7588 10.2881 25.2101 11.9287 26.2247C13.5693 27.2393 15.4599 27.777 17.3889 27.7778C18.6959 27.7812 19.9885 27.5345 21.1979 27.0539C21.743 26.8373 22.3464 26.7821 22.9028 26.9676L24.8258 27.6086C26.5457 28.1819 28.1819 26.5457 27.6086 24.8258L26.9676 22.9029C26.7821 22.3464 26.8373 21.743 27.0539 21.1979C27.5344 19.9885 27.7812 18.6959 27.7778 17.3889C27.777 15.46 27.2393 13.5693 26.2247 11.9287C25.2101 10.2881 23.7588 8.96241 22.0333 8.10005C20.5934 7.37274 19.0021 6.99584 17.3889 7.00005H16.7778C14.2303 7.1406 11.8241 8.21587 10.02 10.02C8.21585 11.8241 7.14058 14.2303 7.00003 16.7778V17.3889Z" fill="#5C453E"/>
</svg>
