<svg width="36" height="36" viewBox="0 0 36 36" fill="none" xmlns="http://www.w3.org/2000/svg">
<path d="M25.619 15.9828C25.619 11.5294 22.3199 8 18.0044 8C13.6876 8 10.381 11.5309 10.381 15.9804V17.681C10.381 17.9676 10.1921 18.2982 9.67913 18.889C9.61478 18.9631 9.5542 19.0318 9.42174 19.1815C8.40453 20.3332 8 21 8 22.0356C8 22.5 8.04573 22.8369 8.24569 23.2523C8.70669 24.2101 9.74746 24.7442 11.3333 24.7442L12.3259 24.7444C13.2075 24.7447 13.9437 25.3507 14.4101 26.0988C15.1827 27.3382 16.4012 28 18 28C19.5988 28 20.8173 27.3382 21.5899 26.0988C22.0563 25.3507 22.7925 24.7447 23.6741 24.7444L24.6667 24.7442C26.2078 24.7442 27.2377 24.2241 27.7196 23.2982C27.9457 22.8637 28 22.5017 28 22.0356C28 20.9995 27.5947 20.3327 26.5755 19.1809C26.4428 19.0312 26.3821 18.9625 26.3176 18.8884C25.8044 18.2983 25.6151 17.9678 25.6147 17.682L25.619 15.9828Z" fill="#5C453E"/>
</svg>
