<svg width="36" height="36" viewBox="0 0 36 36" fill="none" xmlns="http://www.w3.org/2000/svg">
<path d="M16.3574 8.61078C16.9911 7.12974 19.0089 7.12974 19.6426 8.61077L21.1797 12.2032C21.4411 12.814 21.9951 13.2334 22.6335 13.3036L26.388 13.7164C27.9359 13.8866 28.5595 15.8859 27.4032 16.9714L24.5987 19.6045C24.1218 20.0522 23.9102 20.7308 24.0434 21.385L24.8267 25.2326C25.1497 26.8188 23.5172 28.0544 22.1689 27.2443L18.8985 25.2792C18.3424 24.9451 17.6576 24.945 17.1015 25.2792L13.8311 27.2443C12.4828 28.0544 10.8503 26.8188 11.1733 25.2326L11.9566 21.385C12.0898 20.7308 11.8782 20.0522 11.4013 19.6045L8.59676 16.9714C7.44054 15.8859 8.06409 13.8866 9.61195 13.7164L13.3665 13.3036C14.0049 13.2334 14.5589 12.814 14.8203 12.2032L16.3574 8.61078Z" fill="#5C453E"/>
</svg>
