<svg width="24" height="27" viewBox="0 0 24 27" fill="none" xmlns="http://www.w3.org/2000/svg">
<path d="M21.3333 27H2.66667C1.19391 27 0 25.7912 0 24.3V5.4C0 3.90883 1.19391 2.7 2.66667 2.7H5.33333V0H8V2.7H16V0H18.6667V2.7H21.3333C22.8061 2.7 24 3.90883 24 5.4V24.3C24 25.7912 22.8061 27 21.3333 27ZM2.66667 10.8V24.3H21.3333V10.8H2.66667ZM2.66667 5.4V8.1H21.3333V5.4H2.66667ZM18.6667 21.6H16V18.9H18.6667V21.6ZM13.3333 21.6H10.6667V18.9H13.3333V21.6ZM8 21.6H5.33333V18.9H8V21.6ZM18.6667 16.2H16V13.5H18.6667V16.2ZM13.3333 16.2H10.6667V13.5H13.3333V16.2ZM8 16.2H5.33333V13.5H8V16.2Z" fill="black"/>
</svg>
