<svg width="700" height="815" viewBox="0 0 700 815" fill="none" xmlns="http://www.w3.org/2000/svg">
<g clip-path="url(#clip0)">
<path d="M454.904 814.775H384.343V711.864H454.904V814.775Z" fill="#375A64"/>
<path d="M303.132 814.775H232.571V711.864H303.132V814.775Z" fill="#1A2E35"/>
<path d="M416.772 757.928H219.425C170.092 757.928 130.099 717.934 130.099 668.601V271.254C130.099 221.921 170.092 181.928 219.425 181.928H416.772C466.105 181.928 506.099 221.921 506.099 271.254V668.601C506.099 717.934 466.105 757.928 416.772 757.928Z" fill="#FFC29C"/>
<path d="M455.432 815.261H384.766V715.261H455.432V815.261Z" fill="#616161"/>
<path d="M303.432 815.261H232.766V715.261H303.432V815.261Z" fill="#404040"/>
<path d="M548.766 457.261C548.766 481.193 529.364 500.594 505.432 500.594C481.5 500.594 462.099 481.193 462.099 457.261C462.099 433.329 481.5 413.928 505.432 413.928C529.364 413.928 548.766 433.329 548.766 457.261Z" fill="#FFC29C"/>
<path d="M530.099 457.928C530.099 471.182 519.354 481.928 506.099 481.928C492.844 481.928 482.099 471.182 482.099 457.928C482.099 444.673 492.844 433.928 506.099 433.928C519.354 433.928 530.099 444.673 530.099 457.928Z" fill="#D96969"/>
<path d="M130.099 576.594V668.601C130.099 717.934 170.092 757.928 219.426 757.928H416.772C466.106 757.928 506.099 717.934 506.099 668.601V576.594H130.099Z" fill="#616161"/>
<path d="M506.099 650.594H130.099V613.261H506.099V650.594Z" fill="#FFD90A"/>
<path d="M158.766 650.594H130.099V613.261H158.766V650.594Z" fill="#FF8000"/>
<path d="M217.433 650.594H188.766V613.261H217.433V650.594Z" fill="#FF8000"/>
<path d="M276.099 650.594H247.432V613.261H276.099V650.594Z" fill="#FF8000"/>
<path d="M334.766 650.594H306.099V613.261H334.766V650.594Z" fill="#FF8000"/>
<path d="M393.433 650.594H364.766V613.261H393.433V650.594Z" fill="#FF8000"/>
<path d="M452.099 650.594H423.432V613.261H452.099V650.594Z" fill="#FF8000"/>
<path d="M301.369 468.741C248.888 470.863 165.323 458.723 130.1 452.388V583.66C251.586 618.237 385.132 590.964 506.1 565.981V402C473.079 439.128 366.971 466.089 301.369 468.741Z" fill="#00796B"/>
<path d="M301.369 456.741C248.888 458.863 165.323 446.723 130.1 440.388V571.66C251.586 606.237 385.132 578.964 506.1 553.981V390C473.079 427.128 366.971 454.089 301.369 456.741Z" fill="#009688"/>
<path d="M160.383 492.333H148.951C142.903 492.333 138 487.431 138 481.383V469.951C138 463.903 142.903 459 148.951 459H160.383C166.431 459 171.333 463.903 171.333 469.951V481.383C171.333 487.431 166.431 492.333 160.383 492.333Z" fill="#00B7AD"/>
<path d="M229.383 504.333H217.951C211.903 504.333 207 499.431 207 493.383V481.951C207 475.903 211.903 471 217.951 471H229.383C235.431 471 240.333 475.903 240.333 481.951V493.383C240.333 499.431 235.431 504.333 229.383 504.333Z" fill="#00B7AD"/>
<path d="M201.383 564.333H189.951C183.903 564.333 179 559.431 179 553.383V541.951C179 535.903 183.903 531 189.951 531H201.383C207.431 531 212.333 535.903 212.333 541.951V553.383C212.333 559.431 207.431 564.333 201.383 564.333Z" fill="#00B7AD"/>
<path d="M269.383 568.333H257.951C251.903 568.333 247 563.431 247 557.383V545.951C247 539.903 251.903 535 257.951 535H269.383C275.431 535 280.333 539.903 280.333 545.951V557.383C280.333 563.431 275.431 568.333 269.383 568.333Z" fill="#00B7AD"/>
<path d="M298.383 512.333H286.951C280.903 512.333 276 507.431 276 501.383V489.951C276 483.903 280.903 479 286.951 479H298.383C304.431 479 309.333 483.903 309.333 489.951V501.383C309.333 507.431 304.431 512.333 298.383 512.333Z" fill="#00B7AD"/>
<path d="M340.383 568.333H328.951C322.903 568.333 318 563.431 318 557.383V545.951C318 539.903 322.903 535 328.951 535H340.383C346.431 535 351.333 539.903 351.333 545.951V557.383C351.333 563.431 346.431 568.333 340.383 568.333Z" fill="#00B7AD"/>
<path d="M372.383 504.333H360.951C354.903 504.333 350 499.431 350 493.383V481.951C350 475.903 354.903 471 360.951 471H372.383C378.431 471 383.333 475.903 383.333 481.951V493.383C383.333 499.431 378.431 504.333 372.383 504.333Z" fill="#00B7AD"/>
<path d="M415.383 560.333H403.951C397.903 560.333 393 555.431 393 549.383V537.951C393 531.903 397.903 527 403.951 527H415.383C421.431 527 426.333 531.903 426.333 537.951V549.383C426.333 555.431 421.431 560.333 415.383 560.333Z" fill="#00B7AD"/>
<path d="M428.383 485.333H416.951C410.903 485.333 406 480.431 406 474.383V462.951C406 456.903 410.903 452 416.951 452H428.383C434.431 452 439.333 456.903 439.333 462.951V474.383C439.333 480.431 434.431 485.333 428.383 485.333Z" fill="#00B7AD"/>
<path d="M490.383 461.333H478.951C472.903 461.333 468 456.431 468 450.383V438.951C468 432.903 472.903 428 478.951 428H490.383C496.431 428 501.333 432.903 501.333 438.951V450.383C501.333 456.431 496.431 461.333 490.383 461.333Z" fill="#00B7AD"/>
<path d="M474.383 522.333H462.951C456.903 522.333 452 517.431 452 511.383V499.951C452 493.903 456.903 489 462.951 489H474.383C480.431 489 485.333 493.903 485.333 499.951V511.383C485.333 517.431 480.431 522.333 474.383 522.333Z" fill="#00B7AD"/>
<path d="M583.754 667.524C565.361 685.917 535.539 685.917 517.146 667.524L449.462 599.839C431.069 581.445 431.069 551.624 449.462 533.23C467.855 514.837 497.675 514.837 516.069 533.23L583.754 600.916C602.147 619.309 602.147 649.131 583.754 667.524Z" fill="#404040"/>
<path d="M583.754 600.564C602.147 618.958 602.147 648.779 583.754 667.172L531.402 719.524C513.009 737.918 483.189 737.918 464.795 719.524C446.402 701.131 446.402 671.31 464.795 652.916L517.146 600.564C535.539 582.171 565.361 582.171 583.754 600.564Z" fill="#616161"/>
<g filter="url(#filter0_i)">
<path d="M478.118 639.593L464.796 652.915C446.402 671.309 446.402 701.13 464.796 719.523C483.189 737.917 513.009 737.917 531.402 719.523L544.726 706.199L478.118 639.593Z" fill="#FFC29C"/>
</g>
<path d="M130.099 668.601V644.946L116.795 658.249C98.4017 676.642 98.4017 706.464 116.795 724.857C129.067 737.129 146.414 741.172 162.071 737.066C142.531 720.681 130.099 696.097 130.099 668.601Z" fill="#FFC29C"/>
<path d="M235.274 433.261H223.59C214.298 433.261 206.766 425.729 206.766 416.435V375.419C206.766 366.126 214.298 358.594 223.59 358.594H235.274C244.566 358.594 252.099 366.126 252.099 375.419V416.435C252.099 425.729 244.566 433.261 235.274 433.261Z" fill="#103245"/>
<path d="M367.274 433.261H355.591C346.299 433.261 338.766 425.729 338.766 416.435V375.419C338.766 366.126 346.299 358.594 355.591 358.594H367.274C376.567 358.594 384.099 366.126 384.099 375.419V416.435C384.099 425.729 376.567 433.261 367.274 433.261Z" fill="#103245"/>
<path d="M110.766 202.594C127.45 171.138 169.282 165.685 182.766 163.927C204.426 161.103 228.842 164.935 277.674 172.598C281.998 173.277 293.652 175.157 309.432 175.927C311.375 176.022 323.504 176.587 337.432 175.927C382.931 173.771 406.136 160.509 441.432 163.927C451.942 164.946 500.864 171.061 515.278 204.17C521.727 218.985 518.755 233.441 516.842 242.757C508.142 285.074 470.531 307.289 466.819 309.406C432.424 329.023 386.603 328.077 353.432 313.261C334.16 304.653 324.316 293.666 304.099 294.594C285.986 295.426 279.338 304.913 261.432 313.261C229.754 328.031 185.754 328.551 152.619 309.406C144.863 304.926 112.006 284.519 105.432 246.594C104.286 239.977 100.998 221.01 110.766 202.594Z" fill="#103245"/>
<path d="M127.587 208.711C142.022 182.841 179.359 180.236 192.782 179.3C208.331 178.215 230.477 182.341 274.766 190.595C282.47 192.03 294.41 194.348 310.766 194.595C326.109 194.826 337.637 193.118 345.433 191.928C414.394 181.399 412.266 178.607 427.001 179.3C435.002 179.676 481.213 181.848 493.865 209.91C498.859 220.985 496.726 231.883 495.281 239.26C490.451 263.917 472.025 285.208 450.766 295.928C407.261 317.864 352.61 295.165 347.317 292.888C331.591 286.117 321.107 277.936 302.646 278.689C286.417 279.351 278.633 286.324 264.013 292.888C259.75 294.801 206.553 317.847 164.099 295.928C161.091 294.375 127.789 276.533 122.758 242.179C122.006 237.049 119.879 222.524 127.587 208.711Z" fill="#FF713E"/>
<path d="M258.766 187.621C224.902 181.368 206.334 178.353 192.782 179.3C179.359 180.236 142.022 182.841 127.587 208.711C119.879 222.524 122.007 237.049 122.758 242.179C127.79 276.533 161.092 294.375 164.099 295.927C200.01 314.468 243.599 300.839 258.766 295.039V187.621Z" fill="#FF5617"/>
<g filter="url(#filter1_d)">
<path d="M258.766 294.594L237.432 257.261H257.432L242.766 218.594L258.766 209.261L250.766 186.154L274.766 190.594L285.432 213.261L266.766 229.261L285.432 258.594L261.432 293.985" fill="#FFC100"/>
</g>
</g>
<defs>
<filter id="filter0_i" x="448.061" y="639.593" width="96.6657" height="99.6057" filterUnits="userSpaceOnUse" color-interpolation-filters="sRGB">
<feFlood flood-opacity="0" result="BackgroundImageFix"/>
<feBlend mode="normal" in="SourceGraphic" in2="BackgroundImageFix" result="shape"/>
<feColorMatrix in="SourceAlpha" type="matrix" values="0 0 0 0 0 0 0 0 0 0 0 0 0 0 0 0 0 0 127 0" result="hardAlpha"/>
<feOffset dx="-2.94" dy="5.88"/>
<feGaussianBlur stdDeviation="7.355"/>
<feComposite in2="hardAlpha" operator="arithmetic" k2="-1" k3="1"/>
<feColorMatrix type="matrix" values="0 0 0 0 0 0 0 0 0 0 0 0 0 0 0 0 0 0 0.05 0"/>
<feBlend mode="normal" in2="shape" result="effect1_innerShadow"/>
</filter>
<filter id="filter1_d" x="187.432" y="136.154" width="148" height="208.44" filterUnits="userSpaceOnUse" color-interpolation-filters="sRGB">
<feFlood flood-opacity="0" result="BackgroundImageFix"/>
<feColorMatrix in="SourceAlpha" type="matrix" values="0 0 0 0 0 0 0 0 0 0 0 0 0 0 0 0 0 0 127 0"/>
<feOffset/>
<feGaussianBlur stdDeviation="25"/>
<feColorMatrix type="matrix" values="0 0 0 0 1 0 0 0 0 0.756863 0 0 0 0 0 0 0 0 1 0"/>
<feBlend mode="normal" in2="BackgroundImageFix" result="effect1_dropShadow"/>
<feBlend mode="normal" in="SourceGraphic" in2="effect1_dropShadow" result="shape"/>
</filter>
<clipPath id="clip0">
<rect width="700" height="815" fill="white"/>
</clipPath>
</defs>
</svg>
