<svg width="700" height="815" viewBox="0 0 700 815" fill="none" xmlns="http://www.w3.org/2000/svg">
<path d="M417.006 756.928H219.66C170.326 756.928 130.333 716.934 130.333 667.601V270.254C130.333 220.921 170.326 180.928 219.66 180.928H417.006C466.34 180.928 506.333 220.921 506.333 270.254V667.601C506.333 716.934 466.34 756.928 417.006 756.928Z" fill="url(#paint0_linear)"/>
<path d="M455.667 814.261H385V714.261H455.667V814.261Z" fill="#616161"/>
<path d="M303.667 814.261H233V714.261H303.667V814.261Z" fill="#404040"/>
<path d="M549 456.261C549 480.193 529.598 499.594 505.666 499.594C481.734 499.594 462.333 480.193 462.333 456.261C462.333 432.329 481.734 412.928 505.666 412.928C529.598 412.928 549 432.329 549 456.261Z" fill="#FFC29C"/>
<path d="M530.333 456.928C530.333 470.182 519.588 480.928 506.333 480.928C493.078 480.928 482.333 470.182 482.333 456.928C482.333 443.673 493.078 432.928 506.333 432.928C519.588 432.928 530.333 443.673 530.333 456.928Z" fill="#D96969"/>
<g filter="url(#filter0_d)">
<path d="M130.333 575.594V667.601C130.333 716.934 170.326 756.928 219.66 756.928H417.006C466.34 756.928 506.333 716.934 506.333 667.601V575.594H130.333Z" fill="url(#paint1_linear)"/>
</g>
<path d="M241.666 694.927C241.666 701.555 236.294 706.927 229.666 706.927H214C196.326 706.927 179 689.601 179 671.927V656.261C179 649.633 184.372 644.261 191 644.261H229.666C236.294 644.261 241.666 649.633 241.666 656.261V694.927Z" fill="#D04B45"/>
<path d="M241.666 689.594C241.666 696.222 236.294 701.594 229.666 701.594H216.333C198.66 701.594 184.333 687.268 184.333 669.594V656.261C184.333 649.633 189.706 644.261 196.333 644.261H229.666C236.294 644.261 241.666 649.633 241.666 656.261V689.594Z" fill="#FD4F4E"/>
<path d="M379 694.927C379 701.555 384.372 706.927 391 706.927H409.666C427.34 706.927 441.666 692.601 441.666 674.927V656.261C441.666 649.633 436.294 644.261 429.666 644.261H391C384.372 644.261 379 649.633 379 656.261V694.927Z" fill="#D04B45"/>
<path d="M384.333 689.594C384.333 696.222 389.706 701.594 396.333 701.594H409.666C427.34 701.594 441.666 687.268 441.666 669.594V656.261C441.666 649.633 436.294 644.261 429.666 644.261H396.333C389.706 644.261 384.333 649.633 384.333 656.261V689.594Z" fill="#FD4F4E"/>
<g filter="url(#filter1_d)">
<path d="M316.333 688.928C316.333 694.452 311.856 698.928 306.333 698.928C300.81 698.928 296.333 694.452 296.333 688.928C296.333 683.404 300.81 678.928 306.333 678.928C311.856 678.928 316.333 683.404 316.333 688.928Z" fill="#FD4F4E"/>
</g>
<g filter="url(#filter2_d)">
<path d="M308.333 688.928C308.333 690.032 307.438 690.928 306.333 690.928C305.228 690.928 304.333 690.032 304.333 688.928C304.333 687.824 305.228 686.928 306.333 686.928C307.438 686.928 308.333 687.824 308.333 688.928Z" fill="#FAEFAC"/>
</g>
<g filter="url(#filter3_d)">
<path d="M316.333 652.928C316.333 658.452 311.856 662.928 306.333 662.928C300.81 662.928 296.333 658.452 296.333 652.928C296.333 647.404 300.81 642.928 306.333 642.928C311.856 642.928 316.333 647.404 316.333 652.928Z" fill="#FD4F4E"/>
</g>
<g filter="url(#filter4_d)">
<path d="M308.333 652.928C308.333 654.032 307.438 654.928 306.333 654.928C305.228 654.928 304.333 654.032 304.333 652.928C304.333 651.824 305.228 650.928 306.333 650.928C307.438 650.928 308.333 651.824 308.333 652.928Z" fill="#FAEFAC"/>
</g>
<g filter="url(#filter5_d)">
<path d="M316.333 616.928C316.333 622.452 311.856 626.928 306.333 626.928C300.81 626.928 296.333 622.452 296.333 616.928C296.333 611.404 300.81 606.928 306.333 606.928C311.856 606.928 316.333 611.404 316.333 616.928Z" fill="#FD4F4E"/>
</g>
<g filter="url(#filter6_d)">
<path d="M308.333 616.928C308.333 618.032 307.438 618.928 306.333 618.928C305.228 618.928 304.333 618.032 304.333 616.928C304.333 615.824 305.228 614.928 306.333 614.928C307.438 614.928 308.333 615.824 308.333 616.928Z" fill="#FAEFAC"/>
</g>
<path d="M301.599 467.669C249.118 469.791 165.553 457.651 130.33 451.315V582.588C251.816 617.164 385.362 589.892 506.33 564.908V400.928C473.309 438.055 367.201 465.017 301.599 467.669Z" fill="#B54C47"/>
<g filter="url(#filter7_d)">
<path d="M301.599 455.669C249.118 457.791 165.553 445.651 130.33 439.315V570.588C251.816 605.164 385.362 577.892 506.33 552.908V388.928C473.309 426.055 367.201 453.017 301.599 455.669Z" fill="url(#paint2_linear)"/>
</g>
<path d="M154.111 545.037C172.769 532.702 201.028 517.99 236.879 514.761C264.936 512.233 280.652 518.269 306.82 520.47C334.633 522.812 374.567 520.845 425.128 500.392" stroke="#FF7E7E" stroke-width="5.33333" stroke-miterlimit="10" stroke-linecap="round"/>
<path d="M179.979 546.057C179.254 546.181 178.565 545.692 178.442 544.966L176.21 531.82C176.087 531.094 176.577 530.406 177.302 530.282C178.029 530.16 178.717 530.648 178.841 531.373L181.071 544.52C181.194 545.246 180.705 545.933 179.979 546.057Z" fill="#103245"/>
<path d="M189.404 545.809C190.267 550.892 186.847 555.711 181.764 556.572C176.682 557.436 171.863 554.015 171 548.933C170.138 543.851 173.559 539.032 178.64 538.171C183.723 537.307 188.542 540.727 189.404 545.809Z" fill="#576D21"/>
<path d="M178.243 551.761C178.366 552.488 177.878 553.176 177.151 553.299C176.426 553.421 175.738 552.933 175.614 552.208C175.491 551.481 175.979 550.792 176.706 550.671C177.431 550.547 178.119 551.035 178.243 551.761Z" fill="#FAEFAC"/>
<path d="M183.7 544.072C183.823 544.799 183.335 545.488 182.608 545.61C181.883 545.734 181.195 545.246 181.071 544.519C180.948 543.794 181.436 543.104 182.163 542.982C182.888 542.859 183.576 543.347 183.7 544.072Z" fill="#FAEFAC"/>
<path d="M208.007 535.89C207.281 536.014 206.592 535.525 206.469 534.799L204.237 521.653C204.115 520.927 204.604 520.239 205.329 520.115C206.056 519.993 206.744 520.481 206.867 521.207L209.097 534.353C209.221 535.079 208.732 535.766 208.007 535.89Z" fill="#103245"/>
<path d="M217.432 535.642C218.293 540.725 214.874 545.544 209.792 546.406C204.709 547.269 199.89 543.848 199.028 538.766C198.165 533.684 201.586 528.865 206.668 528.004C211.75 527.14 216.569 530.56 217.432 535.642Z" fill="#005043"/>
<path d="M206.27 541.594C206.393 542.321 205.905 543.009 205.178 543.132C204.453 543.256 203.765 542.766 203.641 542.041C203.518 541.314 204.006 540.625 204.733 540.504C205.458 540.38 206.146 540.868 206.27 541.594Z" fill="#FAEFAC"/>
<path d="M211.727 533.905C211.85 534.632 211.362 535.321 210.635 535.443C209.91 535.567 209.222 535.079 209.098 534.352C208.975 533.627 209.463 532.937 210.19 532.815C210.915 532.692 211.603 533.18 211.727 533.905Z" fill="#FAEFAC"/>
<path d="M238.241 530.759C237.516 530.883 236.826 530.393 236.704 529.668L234.472 516.521C234.349 515.796 234.837 515.108 235.564 514.984C236.29 514.861 236.978 515.349 237.101 516.076L239.332 529.221C239.456 529.948 238.966 530.635 238.241 530.759Z" fill="#103245"/>
<path d="M247.665 530.511C248.528 535.594 245.108 540.412 240.025 541.275C234.944 542.138 230.125 538.716 229.263 533.635C228.4 528.552 231.82 523.734 236.903 522.872C241.984 522.008 246.804 525.428 247.665 530.511Z" fill="#576D21"/>
<path d="M236.504 536.463C236.628 537.19 236.139 537.878 235.413 538C234.687 538.124 233.999 537.635 233.875 536.91C233.752 536.183 234.24 535.494 234.967 535.372C235.693 535.248 236.381 535.736 236.504 536.463Z" fill="#FAEFAC"/>
<path d="M241.962 528.774C242.084 529.501 241.596 530.19 240.87 530.311C240.144 530.435 239.456 529.947 239.332 529.221C239.21 528.495 239.698 527.806 240.424 527.683C241.15 527.561 241.838 528.049 241.962 528.774Z" fill="#FAEFAC"/>
<path d="M265.424 531.554C264.699 531.678 264.009 531.19 263.887 530.463L261.655 517.317C261.532 516.591 262.021 515.903 262.747 515.781C263.473 515.657 264.161 516.145 264.285 516.871L266.516 530.017C266.639 530.743 266.149 531.431 265.424 531.554Z" fill="#103245"/>
<path d="M274.849 531.307C275.712 536.389 272.292 541.208 267.209 542.071C262.126 542.933 257.308 539.512 256.445 534.431C255.582 529.348 259.004 524.529 264.085 523.668C269.168 522.804 273.986 526.224 274.849 531.307Z" fill="#005043"/>
<path d="M263.688 537.258C263.81 537.985 263.322 538.674 262.596 538.796C261.87 538.92 261.182 538.432 261.058 537.705C260.936 536.978 261.424 536.29 262.15 536.168C262.876 536.044 263.564 536.533 263.688 537.258Z" fill="#FAEFAC"/>
<path d="M269.145 529.571C269.267 530.296 268.779 530.985 268.053 531.108C267.327 531.231 266.639 530.743 266.515 530.016C266.393 529.291 266.881 528.601 267.607 528.479C268.333 528.356 269.022 528.844 269.145 529.571Z" fill="#FAEFAC"/>
<path d="M294.368 534.756C293.643 534.88 292.953 534.392 292.831 533.665L290.599 520.52C290.476 519.793 290.964 519.105 291.691 518.983C292.417 518.859 293.105 519.347 293.228 520.073L295.459 533.219C295.583 533.945 295.093 534.633 294.368 534.756Z" fill="#103245"/>
<path d="M303.793 534.509C304.654 539.591 301.234 544.41 296.153 545.273C291.07 546.135 286.252 542.714 285.389 537.633C284.526 532.55 287.948 527.731 293.029 526.87C298.112 526.007 302.93 529.427 303.793 534.509Z" fill="#576D21"/>
<path d="M292.631 540.461C292.755 541.187 292.266 541.877 291.54 541.998C290.814 542.122 290.126 541.634 290.002 540.907C289.879 540.181 290.368 539.493 291.094 539.37C291.82 539.246 292.508 539.735 292.631 540.461Z" fill="#FAEFAC"/>
<path d="M298.089 532.773C298.211 533.498 297.723 534.188 296.997 534.31C296.271 534.433 295.583 533.945 295.459 533.218C295.337 532.493 295.825 531.804 296.551 531.682C297.277 531.558 297.965 532.046 298.089 532.773Z" fill="#FAEFAC"/>
<path d="M325.941 537.512C325.216 537.635 324.526 537.147 324.404 536.42L322.172 523.275C322.049 522.548 322.537 521.862 323.264 521.738C323.99 521.614 324.678 522.103 324.801 522.828L327.032 535.975C327.156 536.7 326.666 537.388 325.941 537.512Z" fill="#103245"/>
<path d="M335.366 537.265C336.227 542.347 332.807 547.166 327.726 548.027C322.643 548.891 317.825 545.47 316.962 540.389C316.099 535.306 319.521 530.487 324.602 529.625C329.685 528.762 334.503 532.182 335.366 537.265Z" fill="#005043"/>
<path d="M324.204 543.217C324.327 543.942 323.839 544.631 323.112 544.754C322.387 544.877 321.699 544.389 321.575 543.662C321.452 542.937 321.94 542.247 322.667 542.125C323.392 542.002 324.08 542.49 324.204 543.217Z" fill="#FAEFAC"/>
<path d="M329.662 535.528C329.784 536.255 329.296 536.943 328.57 537.065C327.844 537.189 327.156 536.7 327.032 535.975C326.91 535.248 327.398 534.559 328.124 534.437C328.85 534.313 329.538 534.803 329.662 535.528Z" fill="#FAEFAC"/>
<path d="M359.25 534.563C358.525 534.687 357.835 534.198 357.713 533.473L355.482 520.326C355.358 519.601 355.847 518.913 356.573 518.789C357.299 518.666 357.987 519.154 358.111 519.881L360.341 533.026C360.465 533.753 359.977 534.439 359.25 534.563Z" fill="#103245"/>
<path d="M368.676 534.316C369.537 539.398 366.117 544.217 361.036 545.08C355.953 545.942 351.134 542.521 350.272 537.44C349.409 532.357 352.829 527.538 357.912 526.677C362.993 525.813 367.813 529.233 368.676 534.316Z" fill="#576D21"/>
<path d="M357.514 540.268C357.636 540.994 357.148 541.682 356.423 541.805C355.696 541.929 355.008 541.44 354.884 540.714C354.762 539.988 355.25 539.298 355.976 539.177C356.702 539.053 357.391 539.541 357.514 540.268Z" fill="#FAEFAC"/>
<path d="M362.971 532.579C363.094 533.305 362.606 533.995 361.879 534.116C361.154 534.24 360.465 533.752 360.341 533.025C360.219 532.3 360.707 531.611 361.434 531.488C362.159 531.365 362.847 531.853 362.971 532.579Z" fill="#FAEFAC"/>
<path d="M391.891 527.671C391.164 527.794 390.476 527.306 390.353 526.58L388.123 513.434C387.999 512.707 388.487 512.02 389.213 511.896C389.939 511.772 390.628 512.262 390.752 512.987L392.981 526.134C393.105 526.859 392.617 527.547 391.891 527.671Z" fill="#103245"/>
<path d="M401.315 527.424C402.178 532.506 398.758 537.325 393.677 538.186C388.594 539.05 383.775 535.629 382.911 530.548C382.05 525.465 385.47 520.646 390.553 519.784C395.634 518.921 400.454 522.341 401.315 527.424Z" fill="#005043"/>
<path d="M390.154 533.375C390.278 534.101 389.79 534.79 389.063 534.913C388.336 535.035 387.648 534.547 387.524 533.821C387.402 533.095 387.891 532.406 388.616 532.285C389.343 532.161 390.031 532.649 390.154 533.375Z" fill="#FAEFAC"/>
<path d="M395.611 525.687C395.735 526.413 395.247 527.101 394.52 527.224C393.793 527.348 393.105 526.859 392.981 526.133C392.86 525.407 393.348 524.719 394.073 524.596C394.8 524.472 395.488 524.961 395.611 525.687Z" fill="#FAEFAC"/>
<path d="M422.547 517.058C421.82 517.182 421.132 516.694 421.01 515.967L418.779 502.821C418.655 502.095 419.143 501.407 419.87 501.283C420.595 501.161 421.284 501.649 421.408 502.375L423.638 515.521C423.762 516.247 423.274 516.935 422.547 517.058Z" fill="#103245"/>
<path d="M431.971 516.81C432.834 521.893 429.414 526.712 424.333 527.574C419.25 528.437 414.431 525.016 413.567 519.934C412.706 514.852 416.126 510.033 421.209 509.172C426.29 508.308 431.11 511.728 431.971 516.81Z" fill="#576D21"/>
<path d="M420.81 522.762C420.934 523.489 420.446 524.177 419.719 524.3C418.994 524.424 418.305 523.934 418.181 523.209C418.059 522.482 418.547 521.794 419.273 521.672C419.999 521.548 420.687 522.037 420.81 522.762Z" fill="#FAEFAC"/>
<path d="M426.267 515.075C426.391 515.8 425.903 516.489 425.176 516.611C424.451 516.735 423.762 516.247 423.638 515.52C423.516 514.795 424.004 514.105 424.73 513.983C425.456 513.86 426.144 514.348 426.267 515.075Z" fill="#FAEFAC"/>
<path d="M583.988 666.524C565.595 684.917 535.774 684.917 517.38 666.524L449.696 598.839C431.303 580.445 431.303 550.624 449.696 532.23C468.09 513.837 497.91 513.837 516.303 532.23L583.988 599.916C602.382 618.309 602.382 648.131 583.988 666.524Z" fill="#404040"/>
<path d="M583.988 599.564C602.382 617.958 602.382 647.779 583.988 666.172L531.636 718.524C513.243 736.918 483.423 736.918 465.03 718.524C446.636 700.131 446.636 670.31 465.03 651.916L517.38 599.564C535.774 581.171 565.595 581.171 583.988 599.564Z" fill="#616161"/>
<g filter="url(#filter8_i)">
<path d="M478.353 638.593L465.03 651.915C446.637 670.309 446.637 700.13 465.03 718.523C483.424 736.917 513.244 736.917 531.637 718.523L544.961 705.199L478.353 638.593Z" fill="#FFC29C"/>
</g>
<path d="M130.333 667.601V643.946L117.029 657.249C98.636 675.642 98.636 705.464 117.029 723.857C129.301 736.129 146.648 740.172 162.305 736.066C142.765 719.681 130.333 695.097 130.333 667.601Z" fill="#FFC29C"/>
<path d="M235.508 432.261H223.824C214.532 432.261 207 424.729 207 415.435V374.419C207 365.126 214.532 357.594 223.824 357.594H235.508C244.8 357.594 252.334 365.126 252.334 374.419V415.435C252.334 424.729 244.8 432.261 235.508 432.261Z" fill="#103245"/>
<path d="M367.508 432.261H355.825C346.533 432.261 339 424.729 339 415.435V374.419C339 365.126 346.533 357.594 355.825 357.594H367.508C376.801 357.594 384.333 365.126 384.333 374.419V415.435C384.333 424.729 376.801 432.261 367.508 432.261Z" fill="#103245"/>
<path d="M304.333 814.927H123C111.955 814.927 103 805.973 103 794.927V789.594H304.333V814.927Z" fill="#007A6B"/>
<path d="M103 760.261V789.594H132.333C116.133 789.594 103 776.461 103 760.261Z" fill="#007A6B"/>
<path d="M457.667 814.927H276.333C265.288 814.927 256.333 805.973 256.333 794.927V789.594H457.667V814.927Z" fill="#009789"/>
<path d="M256.333 760.261V789.594H285.667C269.467 789.594 256.333 776.461 256.333 760.261Z" fill="#009789"/>
<path d="M111 201.594C127.684 170.138 169.516 164.685 183 162.927C204.66 160.103 229.076 163.935 277.908 171.598C282.232 172.277 293.887 174.157 309.667 174.927C311.609 175.022 323.739 175.587 337.667 174.927C383.165 172.771 406.371 159.509 441.667 162.927C452.176 163.946 501.099 170.061 515.512 203.17C521.961 217.985 518.989 232.441 517.076 241.757C508.376 284.074 470.765 306.289 467.053 308.406C432.659 328.023 386.837 327.077 353.667 312.261C334.395 303.653 324.551 292.666 304.333 293.594C286.22 294.426 279.572 303.913 261.667 312.261C229.988 327.031 185.988 327.551 152.853 308.406C145.097 303.926 112.24 283.519 105.667 245.594C104.52 238.977 101.232 220.01 111 201.594Z" fill="#AECDD9"/>
<g filter="url(#filter9_d)">
<path d="M127.822 207.711C142.256 181.841 179.594 179.236 193.016 178.3C208.566 177.215 230.711 181.341 275 189.595C282.704 191.03 294.644 193.348 311 193.595C326.343 193.826 337.871 192.118 345.667 190.928C414.628 180.399 412.5 177.607 427.235 178.3C435.236 178.676 481.447 180.848 494.099 208.91C499.094 219.985 496.96 230.883 495.515 238.26C490.686 262.917 472.259 284.208 451 294.928C407.495 316.864 352.844 294.165 347.551 291.888C331.826 285.117 321.342 276.936 302.88 277.689C286.651 278.351 278.867 285.324 264.247 291.888C259.984 293.801 206.787 316.847 164.334 294.928C161.326 293.375 128.023 275.533 122.992 241.179C122.24 236.049 120.114 221.524 127.822 207.711Z" fill="#1E3150"/>
</g>
<path d="M259 186.621C225.136 180.368 206.568 177.353 193.016 178.3C179.593 179.236 142.256 181.841 127.821 207.711C120.113 221.524 122.241 236.049 122.992 241.179C128.024 275.533 161.327 293.375 164.333 294.927C200.244 313.468 243.833 299.839 259 294.039V186.621Z" fill="#37516A"/>
<g filter="url(#filter10_d)">
<path d="M259 293.594L237.667 256.261H257.667L243 217.594L259 208.261L251 185.154L275 189.594L285.667 212.261L267 228.261L285.667 257.594L261.667 292.985" fill="#C5E7F3"/>
</g>
<defs>
<filter id="filter0_d" x="113.333" y="560.594" width="410" height="215.333" filterUnits="userSpaceOnUse" color-interpolation-filters="sRGB">
<feFlood flood-opacity="0" result="BackgroundImageFix"/>
<feColorMatrix in="SourceAlpha" type="matrix" values="0 0 0 0 0 0 0 0 0 0 0 0 0 0 0 0 0 0 127 0"/>
<feOffset dy="2"/>
<feGaussianBlur stdDeviation="8.5"/>
<feColorMatrix type="matrix" values="0 0 0 0 0 0 0 0 0 0 0 0 0 0 0 0 0 0 0.15 0"/>
<feBlend mode="normal" in2="BackgroundImageFix" result="effect1_dropShadow"/>
<feBlend mode="normal" in="SourceGraphic" in2="effect1_dropShadow" result="shape"/>
</filter>
<filter id="filter1_d" x="280.333" y="662.928" width="52" height="52" filterUnits="userSpaceOnUse" color-interpolation-filters="sRGB">
<feFlood flood-opacity="0" result="BackgroundImageFix"/>
<feColorMatrix in="SourceAlpha" type="matrix" values="0 0 0 0 0 0 0 0 0 0 0 0 0 0 0 0 0 0 127 0"/>
<feOffset/>
<feGaussianBlur stdDeviation="8"/>
<feColorMatrix type="matrix" values="0 0 0 0 0.279167 0 0 0 0 0.279167 0 0 0 0 0.279167 0 0 0 1 0"/>
<feBlend mode="normal" in2="BackgroundImageFix" result="effect1_dropShadow"/>
<feBlend mode="normal" in="SourceGraphic" in2="effect1_dropShadow" result="shape"/>
</filter>
<filter id="filter2_d" x="296.333" y="678.928" width="20" height="20" filterUnits="userSpaceOnUse" color-interpolation-filters="sRGB">
<feFlood flood-opacity="0" result="BackgroundImageFix"/>
<feColorMatrix in="SourceAlpha" type="matrix" values="0 0 0 0 0 0 0 0 0 0 0 0 0 0 0 0 0 0 127 0"/>
<feOffset/>
<feGaussianBlur stdDeviation="4"/>
<feColorMatrix type="matrix" values="0 0 0 0 0.980392 0 0 0 0 0.937255 0 0 0 0 0.67451 0 0 0 0.5 0"/>
<feBlend mode="normal" in2="BackgroundImageFix" result="effect1_dropShadow"/>
<feBlend mode="normal" in="SourceGraphic" in2="effect1_dropShadow" result="shape"/>
</filter>
<filter id="filter3_d" x="280.333" y="626.928" width="52" height="52" filterUnits="userSpaceOnUse" color-interpolation-filters="sRGB">
<feFlood flood-opacity="0" result="BackgroundImageFix"/>
<feColorMatrix in="SourceAlpha" type="matrix" values="0 0 0 0 0 0 0 0 0 0 0 0 0 0 0 0 0 0 127 0"/>
<feOffset/>
<feGaussianBlur stdDeviation="8"/>
<feColorMatrix type="matrix" values="0 0 0 0 0.279167 0 0 0 0 0.279167 0 0 0 0 0.279167 0 0 0 1 0"/>
<feBlend mode="normal" in2="BackgroundImageFix" result="effect1_dropShadow"/>
<feBlend mode="normal" in="SourceGraphic" in2="effect1_dropShadow" result="shape"/>
</filter>
<filter id="filter4_d" x="296.333" y="642.928" width="20" height="20" filterUnits="userSpaceOnUse" color-interpolation-filters="sRGB">
<feFlood flood-opacity="0" result="BackgroundImageFix"/>
<feColorMatrix in="SourceAlpha" type="matrix" values="0 0 0 0 0 0 0 0 0 0 0 0 0 0 0 0 0 0 127 0"/>
<feOffset/>
<feGaussianBlur stdDeviation="4"/>
<feColorMatrix type="matrix" values="0 0 0 0 0.980392 0 0 0 0 0.937255 0 0 0 0 0.67451 0 0 0 0.5 0"/>
<feBlend mode="normal" in2="BackgroundImageFix" result="effect1_dropShadow"/>
<feBlend mode="normal" in="SourceGraphic" in2="effect1_dropShadow" result="shape"/>
</filter>
<filter id="filter5_d" x="280.333" y="590.928" width="52" height="52" filterUnits="userSpaceOnUse" color-interpolation-filters="sRGB">
<feFlood flood-opacity="0" result="BackgroundImageFix"/>
<feColorMatrix in="SourceAlpha" type="matrix" values="0 0 0 0 0 0 0 0 0 0 0 0 0 0 0 0 0 0 127 0"/>
<feOffset/>
<feGaussianBlur stdDeviation="8"/>
<feColorMatrix type="matrix" values="0 0 0 0 0.279167 0 0 0 0 0.279167 0 0 0 0 0.279167 0 0 0 1 0"/>
<feBlend mode="normal" in2="BackgroundImageFix" result="effect1_dropShadow"/>
<feBlend mode="normal" in="SourceGraphic" in2="effect1_dropShadow" result="shape"/>
</filter>
<filter id="filter6_d" x="296.333" y="606.928" width="20" height="20" filterUnits="userSpaceOnUse" color-interpolation-filters="sRGB">
<feFlood flood-opacity="0" result="BackgroundImageFix"/>
<feColorMatrix in="SourceAlpha" type="matrix" values="0 0 0 0 0 0 0 0 0 0 0 0 0 0 0 0 0 0 127 0"/>
<feOffset/>
<feGaussianBlur stdDeviation="4"/>
<feColorMatrix type="matrix" values="0 0 0 0 0.980392 0 0 0 0 0.937255 0 0 0 0 0.67451 0 0 0 0.5 0"/>
<feBlend mode="normal" in2="BackgroundImageFix" result="effect1_dropShadow"/>
<feBlend mode="normal" in="SourceGraphic" in2="effect1_dropShadow" result="shape"/>
</filter>
<filter id="filter7_d" x="124.33" y="384.928" width="388" height="210" filterUnits="userSpaceOnUse" color-interpolation-filters="sRGB">
<feFlood flood-opacity="0" result="BackgroundImageFix"/>
<feColorMatrix in="SourceAlpha" type="matrix" values="0 0 0 0 0 0 0 0 0 0 0 0 0 0 0 0 0 0 127 0"/>
<feOffset dy="2"/>
<feGaussianBlur stdDeviation="3"/>
<feColorMatrix type="matrix" values="0 0 0 0 0.620833 0 0 0 0 0.220819 0 0 0 0 0.201771 0 0 0 0.5 0"/>
<feBlend mode="normal" in2="BackgroundImageFix" result="effect1_dropShadow"/>
<feBlend mode="normal" in="SourceGraphic" in2="effect1_dropShadow" result="shape"/>
</filter>
<filter id="filter8_i" x="448.295" y="638.593" width="96.6657" height="99.6057" filterUnits="userSpaceOnUse" color-interpolation-filters="sRGB">
<feFlood flood-opacity="0" result="BackgroundImageFix"/>
<feBlend mode="normal" in="SourceGraphic" in2="BackgroundImageFix" result="shape"/>
<feColorMatrix in="SourceAlpha" type="matrix" values="0 0 0 0 0 0 0 0 0 0 0 0 0 0 0 0 0 0 127 0" result="hardAlpha"/>
<feOffset dx="-2.94" dy="5.88"/>
<feGaussianBlur stdDeviation="7.355"/>
<feComposite in2="hardAlpha" operator="arithmetic" k2="-1" k3="1"/>
<feColorMatrix type="matrix" values="0 0 0 0 0 0 0 0 0 0 0 0 0 0 0 0 0 0 0.05 0"/>
<feBlend mode="normal" in2="shape" result="effect1_innerShadow"/>
</filter>
<filter id="filter9_d" x="112.147" y="172.129" width="395.083" height="146.277" filterUnits="userSpaceOnUse" color-interpolation-filters="sRGB">
<feFlood flood-opacity="0" result="BackgroundImageFix"/>
<feColorMatrix in="SourceAlpha" type="matrix" values="0 0 0 0 0 0 0 0 0 0 0 0 0 0 0 0 0 0 127 0"/>
<feOffset dy="4"/>
<feGaussianBlur stdDeviation="5"/>
<feColorMatrix type="matrix" values="0 0 0 0 0.301961 0 0 0 0 0.354314 0 0 0 0 0.498039 0 0 0 0.5 0"/>
<feBlend mode="normal" in2="BackgroundImageFix" result="effect1_dropShadow"/>
<feBlend mode="normal" in="SourceGraphic" in2="effect1_dropShadow" result="shape"/>
</filter>
<filter id="filter10_d" x="187.667" y="135.154" width="148" height="208.44" filterUnits="userSpaceOnUse" color-interpolation-filters="sRGB">
<feFlood flood-opacity="0" result="BackgroundImageFix"/>
<feColorMatrix in="SourceAlpha" type="matrix" values="0 0 0 0 0 0 0 0 0 0 0 0 0 0 0 0 0 0 127 0"/>
<feOffset/>
<feGaussianBlur stdDeviation="25"/>
<feColorMatrix type="matrix" values="0 0 0 0 0.772549 0 0 0 0 0.905882 0 0 0 0 0.952941 0 0 0 1 0"/>
<feBlend mode="normal" in2="BackgroundImageFix" result="effect1_dropShadow"/>
<feBlend mode="normal" in="SourceGraphic" in2="effect1_dropShadow" result="shape"/>
</filter>
<linearGradient id="paint0_linear" x1="318.333" y1="756.928" x2="318.333" y2="180.928" gradientUnits="userSpaceOnUse">
<stop stop-color="#FFC29C"/>
<stop offset="1" stop-color="#FFAB77"/>
</linearGradient>
<linearGradient id="paint1_linear" x1="318.333" y1="756.928" x2="318.333" y2="575.594" gradientUnits="userSpaceOnUse">
<stop stop-color="#5E5E5E"/>
<stop offset="1" stop-color="#616161"/>
</linearGradient>
<linearGradient id="paint2_linear" x1="318.33" y1="388.928" x2="318.33" y2="586.928" gradientUnits="userSpaceOnUse">
<stop stop-color="#EB5857"/>
<stop offset="1" stop-color="#CD4140"/>
</linearGradient>
</defs>
</svg>
