<svg width="700" height="815" viewBox="0 0 700 815" fill="none" xmlns="http://www.w3.org/2000/svg">
<g clip-path="url(#clip0)">
<path d="M423.006 757.928H225.66C176.326 757.928 136.333 717.934 136.333 668.601V271.254C136.333 221.921 176.326 181.928 225.66 181.928H423.006C472.34 181.928 512 221.921 512 271.254V668.601C512 717.934 472.34 757.928 423.006 757.928Z" fill="url(#paint0_linear)"/>
<path d="M458.667 815.261H388V715.261H458.667V815.261Z" fill="#F98450"/>
<path d="M306.667 815.261H236V715.261H306.667V815.261Z" fill="#F35D50"/>
<path d="M554.667 457.26C554.667 481.192 535.265 500.594 511.333 500.594C487.401 500.594 468 481.192 468 457.26C468 433.328 487.401 413.927 511.333 413.927C535.265 413.927 554.667 433.328 554.667 457.26Z" fill="url(#paint1_linear)"/>
<path d="M536 457.927C536 471.182 525.255 481.927 512 481.927C498.745 481.927 488 471.182 488 457.927C488 444.673 498.745 433.927 512 433.927C525.255 433.927 536 444.673 536 457.927Z" fill="#D96969"/>
<path d="M307.269 480.944C254.788 482.69 171.222 472.696 136 467.481V575.549C257.486 604.013 391.032 581.561 512 560.994V426C478.979 456.565 372.871 478.761 307.269 480.944Z" fill="#F19B4B"/>
<g filter="url(#filter0_d)">
<path d="M307.269 498.573C254.788 500.212 171.222 490.831 136 485.936V587.374C257.486 614.092 391.032 593.018 512 573.712V447C478.979 475.69 372.871 496.524 307.269 498.573Z" fill="url(#paint2_linear)"/>
</g>
<path d="M136 526.195L136 665.5C136 723 176 757.5 225.327 758.26H422.673C478.5 758.26 512 715.233 512 662.157V564V495.83C458.5 524.195 435.13 538.525 343.5 547.695C322.969 549.749 291.5 550.695 255 547.695C181.884 541.685 165 535.695 136 526.195Z" fill="url(#paint3_linear)"/>
<path d="M359.29 637.812C313.452 636.36 284.94 613.751 276.414 602.628C279.685 597.537 289.592 585.896 303.052 580.059C335.766 565.345 375.497 616.42 391.273 643.796C384.623 641.674 380.884 638.497 359.29 637.812Z" fill="#F46350" fill-opacity="0.2"/>
<path d="M202.526 572.786C182.729 591.5 161.273 594.057 153.019 592.996C152.244 589.486 151.487 580.437 154.662 572.321C162.156 552.372 200.297 557 218.432 561.808C214.755 563.723 211.852 563.969 202.526 572.786Z" fill="#F46350" fill-opacity="0.2"/>
<path d="M192.477 628.974C209.725 609.79 229.781 605.728 237.652 606.096C238.653 609.349 240.063 617.831 237.689 625.736C232.147 645.14 195.791 643.702 178.306 640.558C181.63 638.468 184.351 638.012 192.477 628.974Z" fill="#F46350" fill-opacity="0.2"/>
<path d="M498.415 603.196C473.072 598.393 459.2 583.345 455.432 576.422C457.693 573.878 464.212 568.274 472.199 566.204C491.657 560.881 509.283 592.723 515.664 609.309C512.154 607.55 510.353 605.459 498.415 603.196Z" fill="#F46350" fill-opacity="0.2"/>
<path d="M390.743 568.815C404.797 553.097 421.179 549.733 427.613 550.015C428.439 552.672 429.61 559.601 427.687 566.067C423.201 581.939 393.485 580.845 379.188 578.314C381.899 576.599 384.122 576.22 390.743 568.815Z" fill="#F46350" fill-opacity="0.2"/>
<path d="M299.216 665.756C340.117 666.739 365.704 686.663 373.385 696.502C370.502 701.054 361.743 711.48 349.775 716.765C320.691 730.079 284.903 684.902 270.644 660.649C276.591 662.492 279.948 665.294 299.216 665.756Z" fill="#E45441" fill-opacity="0.2"/>
<path d="M439.502 722.556C457.035 705.769 476.159 703.349 483.528 704.237C484.244 707.355 484.981 715.401 482.203 722.645C475.652 740.446 441.596 736.586 425.386 732.431C428.654 730.702 431.242 730.464 439.502 722.556Z" fill="#E45441" fill-opacity="0.2"/>
<path d="M448.086 672.491C432.829 689.678 414.965 693.428 407.941 693.154C407.026 690.266 405.711 682.728 407.775 675.678C412.588 658.375 445.03 659.408 460.649 662.088C457.698 663.97 455.274 664.394 448.086 672.491Z" fill="#E45441" fill-opacity="0.2"/>
<path d="M175.339 697.5C197.979 701.603 210.456 714.898 213.864 721.033C211.865 723.312 206.087 728.343 198.976 730.238C181.654 735.107 165.715 706.893 159.911 692.178C163.054 693.719 164.674 695.568 175.339 697.5Z" fill="#E45441" fill-opacity="0.2"/>
<path d="M271.624 727.363C259.192 741.445 244.601 744.549 238.859 744.341C238.105 741.983 237.014 735.825 238.685 730.059C242.579 715.906 269.096 716.678 281.868 718.833C279.46 720.378 277.48 720.729 271.624 727.363Z" fill="#E45441" fill-opacity="0.2"/>
<path d="M136.099 668.582V644.927L122.795 658.23C104.402 676.623 104.402 706.444 122.795 724.838C135.067 737.11 152.414 741.152 168.071 737.047C148.531 720.662 136.099 696.078 136.099 668.582Z" fill="#FFC29C"/>
<path d="M241.508 433.261H229.824C220.532 433.261 213 425.729 213 416.435V375.419C213 366.126 220.532 358.594 229.824 358.594H241.508C250.8 358.594 258.334 366.126 258.334 375.419V416.435C258.334 425.729 250.8 433.261 241.508 433.261Z" fill="#103245"/>
<path d="M373.508 433.261H361.825C352.533 433.261 345 425.729 345 416.435V375.419C345 366.126 352.533 358.594 361.825 358.594H373.508C382.801 358.594 390.333 366.126 390.333 375.419V416.435C390.333 425.729 382.801 433.261 373.508 433.261Z" fill="#103245"/>
<path d="M117 202.594C133.684 171.138 175.516 165.685 189 163.927C210.66 161.103 235.076 164.935 283.908 172.598C288.232 173.277 299.887 175.157 315.667 175.927C317.609 176.022 329.739 176.587 343.667 175.927C389.165 173.771 412.371 160.509 447.667 163.927C458.176 164.946 507.099 171.061 521.512 204.17C527.961 218.985 524.989 233.441 523.076 242.757C514.376 285.074 476.765 307.289 473.053 309.406C438.659 329.023 392.837 328.077 359.667 313.261C340.395 304.653 330.551 293.666 310.333 294.594C292.22 295.426 285.572 304.913 267.667 313.261C235.988 328.031 191.988 328.551 158.853 309.406C151.097 304.926 118.24 284.519 111.667 246.594C110.52 239.977 107.232 221.01 117 202.594Z" fill="#103245"/>
<g filter="url(#filter1_d)">
<path d="M133.821 208.711C148.256 182.841 185.593 180.236 199.016 179.3C214.565 178.215 236.711 182.341 281 190.595C288.704 192.03 300.644 194.348 317 194.595C332.343 194.826 343.871 193.118 351.667 191.928C420.628 181.399 418.5 178.607 433.235 179.3C441.236 179.676 487.447 181.848 500.099 209.91C505.093 220.985 502.96 231.883 501.515 239.26C496.685 263.917 478.259 285.208 457 295.928C413.495 317.864 358.844 295.165 353.551 292.888C337.825 286.117 327.341 277.936 308.88 278.689C292.651 279.351 284.867 286.324 270.247 292.888C265.984 294.801 212.787 317.847 170.333 295.928C167.325 294.375 134.023 276.533 128.992 242.179C128.24 237.049 126.113 222.524 133.821 208.711Z" fill="#FF7261"/>
</g>
<path d="M265 187.621C231.136 181.368 212.568 178.353 199.016 179.3C185.593 180.236 148.256 182.841 133.821 208.711C126.113 222.524 128.241 237.049 128.992 242.179C134.024 276.533 167.327 294.375 170.333 295.927C206.244 314.468 249.833 300.839 265 295.039V187.621Z" fill="#FF6553"/>
<g filter="url(#filter2_d)">
<path d="M265 294.594L243.667 257.261H263.667L249 218.594L265 209.261L257 186.154L281 190.594L291.667 213.261L273 229.261L291.667 258.594L267.667 293.985" fill="#FFA197"/>
</g>
<path d="M512 651H136V622H512V651Z" fill="#ED673D"/>
<path d="M512 645.333H136V622H512V645.333Z" fill="#F1734B"/>
<path d="M165 645.125H136V622H165V645.125Z" fill="#FC9450"/>
<path d="M226 645.125H197V622H226V645.125Z" fill="#FC9450"/>
<path d="M288 645.125H259V622H288V645.125Z" fill="#FC9450"/>
<path d="M349 645.125H320V622H349V645.125Z" fill="#FC9450"/>
<path d="M411 645.125H382V622H411V645.125Z" fill="#FC9450"/>
<path d="M472 645.125H443V622H472V645.125Z" fill="#FC9450"/>
<path d="M577.087 667.524C558.694 685.917 528.872 685.917 510.479 667.524L442.795 599.839C424.402 581.445 424.402 551.624 442.795 533.23C461.188 514.837 491.008 514.837 509.402 533.23L577.087 600.916C595.48 619.309 595.48 649.131 577.087 667.524Z" fill="#F1734B"/>
<path d="M577.087 600.564C595.48 618.958 595.48 648.779 577.087 667.172L524.735 719.524C506.342 737.918 476.522 737.918 458.128 719.524C439.735 701.131 439.735 671.31 458.128 652.916L510.479 600.564C528.872 582.171 558.694 582.171 577.087 600.564Z" fill="#FFAD62"/>
<g filter="url(#filter3_ii)">
<path d="M471.451 639.593L458.129 652.915C439.735 671.309 439.735 701.13 458.129 719.523C476.522 737.917 506.342 737.917 524.735 719.523L538.059 706.199L471.451 639.593Z" fill="#FFC29C"/>
</g>
</g>
<defs>
<filter id="filter0_d" x="76.8451" y="361.554" width="494.31" height="271.31" filterUnits="userSpaceOnUse" color-interpolation-filters="sRGB">
<feFlood flood-opacity="0" result="BackgroundImageFix"/>
<feColorMatrix in="SourceAlpha" type="matrix" values="0 0 0 0 0 0 0 0 0 0 0 0 0 0 0 0 0 0 127 0"/>
<feOffset dy="-26.2911"/>
<feGaussianBlur stdDeviation="29.5775"/>
<feColorMatrix type="matrix" values="0 0 0 0 0.595833 0 0 0 0 0.292472 0 0 0 0 0.101788 0 0 0 0.15 0"/>
<feBlend mode="normal" in2="BackgroundImageFix" result="effect1_dropShadow"/>
<feBlend mode="normal" in="SourceGraphic" in2="effect1_dropShadow" result="shape"/>
</filter>
<filter id="filter1_d" x="118.146" y="173.129" width="395.083" height="146.277" filterUnits="userSpaceOnUse" color-interpolation-filters="sRGB">
<feFlood flood-opacity="0" result="BackgroundImageFix"/>
<feColorMatrix in="SourceAlpha" type="matrix" values="0 0 0 0 0 0 0 0 0 0 0 0 0 0 0 0 0 0 127 0"/>
<feOffset dy="4"/>
<feGaussianBlur stdDeviation="5"/>
<feColorMatrix type="matrix" values="0 0 0 0 1 0 0 0 0 0.447059 0 0 0 0 0.380392 0 0 0 0.5 0"/>
<feBlend mode="normal" in2="BackgroundImageFix" result="effect1_dropShadow"/>
<feBlend mode="normal" in="SourceGraphic" in2="effect1_dropShadow" result="shape"/>
</filter>
<filter id="filter2_d" x="193.667" y="136.154" width="148" height="208.44" filterUnits="userSpaceOnUse" color-interpolation-filters="sRGB">
<feFlood flood-opacity="0" result="BackgroundImageFix"/>
<feColorMatrix in="SourceAlpha" type="matrix" values="0 0 0 0 0 0 0 0 0 0 0 0 0 0 0 0 0 0 127 0"/>
<feOffset/>
<feGaussianBlur stdDeviation="25"/>
<feColorMatrix type="matrix" values="0 0 0 0 1 0 0 0 0 0.631373 0 0 0 0 0.592157 0 0 0 1 0"/>
<feBlend mode="normal" in2="BackgroundImageFix" result="effect1_dropShadow"/>
<feBlend mode="normal" in="SourceGraphic" in2="effect1_dropShadow" result="shape"/>
</filter>
<filter id="filter3_ii" x="441.394" y="639.593" width="96.6657" height="99.6057" filterUnits="userSpaceOnUse" color-interpolation-filters="sRGB">
<feFlood flood-opacity="0" result="BackgroundImageFix"/>
<feBlend mode="normal" in="SourceGraphic" in2="BackgroundImageFix" result="shape"/>
<feColorMatrix in="SourceAlpha" type="matrix" values="0 0 0 0 0 0 0 0 0 0 0 0 0 0 0 0 0 0 127 0" result="hardAlpha"/>
<feOffset dx="-2.94" dy="5.88"/>
<feGaussianBlur stdDeviation="7.355"/>
<feComposite in2="hardAlpha" operator="arithmetic" k2="-1" k3="1"/>
<feColorMatrix type="matrix" values="0 0 0 0 0 0 0 0 0 0 0 0 0 0 0 0 0 0 0.05 0"/>
<feBlend mode="normal" in2="shape" result="effect1_innerShadow"/>
<feColorMatrix in="SourceAlpha" type="matrix" values="0 0 0 0 0 0 0 0 0 0 0 0 0 0 0 0 0 0 127 0" result="hardAlpha"/>
<feOffset dx="-2.94" dy="5.88"/>
<feGaussianBlur stdDeviation="7.355"/>
<feComposite in2="hardAlpha" operator="arithmetic" k2="-1" k3="1"/>
<feColorMatrix type="matrix" values="0 0 0 0 0 0 0 0 0 0 0 0 0 0 0 0 0 0 0.05 0"/>
<feBlend mode="normal" in2="effect1_innerShadow" result="effect2_innerShadow"/>
</filter>
<linearGradient id="paint0_linear" x1="324.166" y1="757.928" x2="324.166" y2="181.928" gradientUnits="userSpaceOnUse">
<stop stop-color="#FFC29C"/>
<stop offset="1" stop-color="#FFAB77"/>
</linearGradient>
<linearGradient id="paint1_linear" x1="555" y1="457" x2="468" y2="457" gradientUnits="userSpaceOnUse">
<stop stop-color="#FFC29C"/>
<stop offset="0.494255" stop-color="#FFC29C"/>
<stop offset="0.497322" stop-color="#FFC29C" stop-opacity="0"/>
</linearGradient>
<linearGradient id="paint2_linear" x1="324" y1="447" x2="324" y2="600" gradientUnits="userSpaceOnUse">
<stop stop-color="#FFAD62"/>
<stop offset="1" stop-color="#FFA451"/>
</linearGradient>
<linearGradient id="paint3_linear" x1="324" y1="758.26" x2="324" y2="510.365" gradientUnits="userSpaceOnUse">
<stop stop-color="#F35A50"/>
<stop offset="1" stop-color="#FD9950"/>
</linearGradient>
<clipPath id="clip0">
<rect width="700" height="815" fill="white"/>
</clipPath>
</defs>
</svg>
