<svg width="700" height="815" viewBox="0 0 700 815" fill="none" xmlns="http://www.w3.org/2000/svg">
<path d="M422.474 761H233.526C186.292 761 148 722.604 148 675.24V293.76C148 246.396 186.292 208 233.526 208H422.474C469.709 208 508 246.396 508 293.76V675.24C508 722.604 469.709 761 422.474 761Z" fill="#FFC29C"/>
<g filter="url(#filter0_i)">
<path d="M461 815H393V719H461V815Z" fill="#404040"/>
</g>
<g filter="url(#filter1_i)">
<path d="M315 815H247V719H315V815Z" fill="#303030"/>
</g>
<path d="M148.041 646L135.246 658.793C117.585 676.455 117.585 705.091 135.246 722.753C152.908 740.416 181.544 740.416 199.206 722.753L212 709.959L148.041 646Z" fill="#FFC29C"/>
<g filter="url(#filter2_d)">
<path d="M405.234 547.762H375.872V497H338.851V547.762H291.617V518.733H255.872V547.762H208L148 516.177V587.131V596.719V675.35C148 722.653 186.291 761 233.526 761H422.474C469.708 761 508 722.653 508 675.35V596.719V587.131V516.177L405.234 547.762Z" fill="#404040"/>
</g>
<g filter="url(#filter3_d)">
<path d="M376 208H339V358H376V208Z" fill="#404040"/>
</g>
<path d="M393.28 666.986H378.488C372.944 666.986 368.45 662.561 368.45 657.1V612.077C368.45 606.618 372.944 602.192 378.488 602.192H393.28C398.824 602.192 403.317 606.618 403.317 612.077V657.1C403.317 662.561 398.824 666.986 393.28 666.986Z" fill="#767676"/>
<path d="M331.923 627.113H368.45V614.154H324.617V619.328C324.617 623.627 327.889 627.113 331.923 627.113Z" fill="#767676"/>
<path d="M336.572 627.113V547.366H324.617V619.509C324.617 623.708 327.829 627.113 331.79 627.113H336.572Z" fill="#767676"/>
<path d="M393 667H380V761H393V667Z" fill="#767676"/>
<path d="M399.178 610.042C399.178 612.504 397.181 614.499 394.718 614.499C392.255 614.499 390.259 612.504 390.259 610.042C390.259 607.58 392.255 605.584 394.718 605.584C397.181 605.584 399.178 607.58 399.178 610.042Z" fill="#00BC65"/>
<path d="M399.178 622.776C399.178 625.238 397.181 627.234 394.718 627.234C392.255 627.234 390.259 625.238 390.259 622.776C390.259 620.314 392.255 618.319 394.718 618.319C397.181 618.319 399.178 620.314 399.178 622.776Z" fill="#84CD5D"/>
<path d="M399.178 635.512C399.178 637.974 397.181 639.969 394.718 639.969C392.255 639.969 390.259 637.974 390.259 635.512C390.259 633.05 392.255 631.054 394.718 631.054C397.181 631.054 399.178 633.05 399.178 635.512Z" fill="#D0E248"/>
<g filter="url(#filter4_di)">
<path d="M236.041 448H224.958C216.144 448 209 440.737 209 431.776V392.224C209 383.263 216.144 376 224.958 376H236.041C244.854 376 252 383.263 252 392.224V431.776C252 440.737 244.854 448 236.041 448Z" fill="#103245"/>
</g>
<g filter="url(#filter5_di)">
<path d="M362.041 448H350.958C342.144 448 335 440.737 335 431.776V392.224C335 383.263 342.144 376 350.958 376H362.041C370.854 376 378 383.263 378 392.224V431.776C378 440.737 370.854 448 362.041 448Z" fill="#103245"/>
</g>
<g filter="url(#filter6_d)">
<path d="M246.43 183.723C233.234 190.652 173.37 222.088 174.725 265.497C175.592 293.257 201.211 316.871 204.175 315.328C206.146 314.304 198.973 301.713 199.054 279.552C199.101 266.505 201.626 260.476 202.895 257.831C204.312 254.877 209.393 244.292 220.821 239.943C226.733 237.693 231.751 238.099 238.747 238.665C245.977 239.25 252.107 239.746 256.673 243.776C261.35 247.903 261.853 253.502 263.076 260.386C264.049 265.863 268.018 288.204 278.441 303.829C286.01 315.175 297.431 323.654 300.208 321.717C302.529 320.099 296.977 312.503 295.087 299.996C291.741 277.857 302.698 259.069 307.891 250.165C310.894 245.017 318.936 233.336 333.5 223.333C340.727 218.369 354.938 210.159 374.474 208C388.039 206.501 409.839 204.091 425.692 218.222C443.172 233.802 444.097 261.071 438.496 278.275C432.367 297.106 418.028 307.293 420.57 310.218C422.93 312.933 437.221 306.373 447.459 296.163C457.501 286.149 461.32 274.944 464.105 266.775C466.587 259.492 470.322 248.538 469.227 234.832C469.227 234.832 467.78 216.72 455.142 199.056C430.849 165.102 329.752 139.969 246.43 183.723Z" fill="#BEBEBE"/>
</g>
<path d="M149.116 181.168C186.874 144.581 235.028 142.703 306.61 140.281C380.485 137.78 423.904 152.554 446.178 162.002C469.406 171.853 482.663 181.436 492.274 190.112C503.82 200.535 533.168 226.98 535.809 268.053C538.544 310.575 511.003 342.99 508.92 342.161C507.309 341.519 520.078 320.666 512.761 297.44C511.481 293.373 506.343 278.986 492.274 270.608C484.056 265.715 476.552 265.051 464.105 264.22C451.512 263.378 441.355 262.699 430.813 266.775C416.925 272.144 416.073 280.466 401.363 293.607C379.709 312.953 352.871 320.548 350.145 316.606C348.053 313.579 361.742 306.018 366.791 287.219C368.016 282.66 371.312 270.386 365.511 257.831C359.028 243.803 345.275 238.27 339.902 236.11C332.123 232.982 325.392 232.401 321.976 232.277C306.006 231.697 294.266 238.612 289.965 241.221C264.736 256.529 259.616 284.985 259.234 287.219C254.806 313.118 269.536 330.993 265.636 333.217C260.979 335.872 234.721 313.68 228.503 282.108C223.228 255.32 235.491 237.589 228.503 233.554C218.737 227.915 187.783 258.508 175.881 271.859C175.369 272.434 174.978 272.876 174.725 273.164C166.182 282.83 155.654 294.742 146.555 312.773C124.734 356.015 132.872 391.375 127.348 391.992C119.643 392.853 90.1567 325.582 109.422 253.998C113.791 237.766 122.478 206.98 149.116 181.168Z" fill="#767676"/>
<g filter="url(#filter7_iii)">
<path d="M147.836 197.778C188.071 152.751 249.544 148.851 314.293 149.224C376.541 149.583 418.955 159.721 448.318 173.207C463.046 179.97 475.42 187.486 487.153 197.778C499.545 208.649 527.222 232.927 530.688 270.608C533.848 304.959 515.362 333.887 512.762 333.216C511.148 332.8 515.899 321.054 511.481 305.106C510.314 300.889 506.08 285.608 492.275 276.996C484.732 272.291 477.772 271.723 464.105 270.608C451.627 269.59 442.92 268.621 433.449 271.358C411.269 277.768 409.33 293.533 378.315 310.217C368.597 315.446 357.815 319.8 356.548 317.884C355.452 316.226 362.849 311.963 368.072 302.551C377.642 285.305 371.569 265.802 370.633 262.942C368.798 257.337 365.704 247.882 356.548 241.22C346.566 233.956 335.482 234.455 327.098 234.832C309.241 235.634 296.011 243.449 289.965 247.609C284.656 251.262 262.48 267.55 259.234 293.607C256.751 313.538 266.776 327.693 264.325 328.849C261.073 330.381 241.928 310.1 236.186 282.107C232.357 263.439 237.235 254.713 231.065 250.164C220.206 242.159 192.98 260.244 178.566 273.163C172.359 278.727 159.344 291.562 147.836 315.328C129.207 353.795 133.613 381.476 128.629 381.77C121.186 382.209 99.1394 321.184 117.105 257.831C120.831 244.694 127.766 220.238 147.836 197.778Z" fill="#9F9F9F"/>
</g>
<path d="M549 470.5C549 493.419 530.419 512 507.5 512C484.581 512 466 493.419 466 470.5C466 447.581 484.581 429 507.5 429C530.419 429 549 447.581 549 470.5Z" fill="#FFC29C"/>
<g filter="url(#filter8_d)">
<path d="M531.123 471.138C531.123 483.832 520.832 494.123 508.138 494.123C495.444 494.123 485.154 483.832 485.154 471.138C485.154 458.445 495.444 448.154 508.138 448.154C520.832 448.154 531.123 458.445 531.123 471.138Z" fill="#D96969"/>
</g>
<g filter="url(#filter9_d)">
<path d="M583.792 672.937C566.18 690.567 537.627 690.567 520.015 672.937L455.209 608.063C437.597 590.434 437.597 561.851 455.209 544.222C472.82 526.592 501.373 526.592 518.984 544.222L583.792 609.096C601.403 626.725 601.403 655.308 583.792 672.937Z" fill="#4F4F4F"/>
</g>
<g filter="url(#filter10_d)">
<path d="M583.792 608.758C601.403 626.388 601.403 654.971 583.792 672.6L533.665 722.777C516.054 740.407 487.501 740.407 469.89 722.777C452.279 705.148 452.279 676.565 469.89 658.936L520.015 608.758C537.627 591.129 566.18 591.129 583.792 608.758Z" fill="#404040"/>
</g>
<g filter="url(#filter11_i)">
<path d="M482.647 646.166L469.891 658.936C452.28 676.565 452.28 705.148 469.891 722.777C487.502 740.406 516.055 740.406 533.666 722.777L546.424 710.006L482.647 646.166Z" fill="#FFC29C"/>
</g>
<defs>
<filter id="filter0_i" x="393" y="719" width="68" height="105" filterUnits="userSpaceOnUse" color-interpolation-filters="sRGB">
<feFlood flood-opacity="0" result="BackgroundImageFix"/>
<feBlend mode="normal" in="SourceGraphic" in2="BackgroundImageFix" result="shape"/>
<feColorMatrix in="SourceAlpha" type="matrix" values="0 0 0 0 0 0 0 0 0 0 0 0 0 0 0 0 0 0 127 0" result="hardAlpha"/>
<feOffset dy="44"/>
<feGaussianBlur stdDeviation="4.5"/>
<feComposite in2="hardAlpha" operator="arithmetic" k2="-1" k3="1"/>
<feColorMatrix type="matrix" values="0 0 0 0 0 0 0 0 0 0 0 0 0 0 0 0 0 0 0.07 0"/>
<feBlend mode="normal" in2="shape" result="effect1_innerShadow"/>
</filter>
<filter id="filter1_i" x="247" y="719" width="68" height="105" filterUnits="userSpaceOnUse" color-interpolation-filters="sRGB">
<feFlood flood-opacity="0" result="BackgroundImageFix"/>
<feBlend mode="normal" in="SourceGraphic" in2="BackgroundImageFix" result="shape"/>
<feColorMatrix in="SourceAlpha" type="matrix" values="0 0 0 0 0 0 0 0 0 0 0 0 0 0 0 0 0 0 127 0" result="hardAlpha"/>
<feOffset dy="44"/>
<feGaussianBlur stdDeviation="4.5"/>
<feComposite in2="hardAlpha" operator="arithmetic" k2="-1" k3="1"/>
<feColorMatrix type="matrix" values="0 0 0 0 0 0 0 0 0 0 0 0 0 0 0 0 0 0 0.07 0"/>
<feBlend mode="normal" in2="shape" result="effect1_innerShadow"/>
</filter>
<filter id="filter2_d" x="133" y="477" width="390" height="294" filterUnits="userSpaceOnUse" color-interpolation-filters="sRGB">
<feFlood flood-opacity="0" result="BackgroundImageFix"/>
<feColorMatrix in="SourceAlpha" type="matrix" values="0 0 0 0 0 0 0 0 0 0 0 0 0 0 0 0 0 0 127 0"/>
<feOffset dy="-5"/>
<feGaussianBlur stdDeviation="7.5"/>
<feColorMatrix type="matrix" values="0 0 0 0 0 0 0 0 0 0 0 0 0 0 0 0 0 0 0.15 0"/>
<feBlend mode="normal" in2="BackgroundImageFix" result="effect1_dropShadow"/>
<feBlend mode="normal" in="SourceGraphic" in2="effect1_dropShadow" result="shape"/>
</filter>
<filter id="filter3_d" x="324" y="198" width="67" height="180" filterUnits="userSpaceOnUse" color-interpolation-filters="sRGB">
<feFlood flood-opacity="0" result="BackgroundImageFix"/>
<feColorMatrix in="SourceAlpha" type="matrix" values="0 0 0 0 0 0 0 0 0 0 0 0 0 0 0 0 0 0 127 0"/>
<feOffset dy="5"/>
<feGaussianBlur stdDeviation="7.5"/>
<feColorMatrix type="matrix" values="0 0 0 0 0 0 0 0 0 0 0 0 0 0 0 0 0 0 0.15 0"/>
<feBlend mode="normal" in2="BackgroundImageFix" result="effect1_dropShadow"/>
<feBlend mode="normal" in="SourceGraphic" in2="effect1_dropShadow" result="shape"/>
</filter>
<filter id="filter4_di" x="191.353" y="361.294" width="78.2941" height="107.294" filterUnits="userSpaceOnUse" color-interpolation-filters="sRGB">
<feFlood flood-opacity="0" result="BackgroundImageFix"/>
<feColorMatrix in="SourceAlpha" type="matrix" values="0 0 0 0 0 0 0 0 0 0 0 0 0 0 0 0 0 0 127 0"/>
<feOffset dy="2.94118"/>
<feGaussianBlur stdDeviation="8.82353"/>
<feColorMatrix type="matrix" values="0 0 0 0 0 0 0 0 0 0 0 0 0 0 0 0 0 0 0.15 0"/>
<feBlend mode="normal" in2="BackgroundImageFix" result="effect1_dropShadow"/>
<feBlend mode="normal" in="SourceGraphic" in2="effect1_dropShadow" result="shape"/>
<feColorMatrix in="SourceAlpha" type="matrix" values="0 0 0 0 0 0 0 0 0 0 0 0 0 0 0 0 0 0 127 0" result="hardAlpha"/>
<feOffset dy="5.88235"/>
<feGaussianBlur stdDeviation="5.88235"/>
<feComposite in2="hardAlpha" operator="arithmetic" k2="-1" k3="1"/>
<feColorMatrix type="matrix" values="0 0 0 0 1 0 0 0 0 1 0 0 0 0 1 0 0 0 0.25 0"/>
<feBlend mode="normal" in2="shape" result="effect2_innerShadow"/>
</filter>
<filter id="filter5_di" x="317.353" y="361.294" width="78.2941" height="107.294" filterUnits="userSpaceOnUse" color-interpolation-filters="sRGB">
<feFlood flood-opacity="0" result="BackgroundImageFix"/>
<feColorMatrix in="SourceAlpha" type="matrix" values="0 0 0 0 0 0 0 0 0 0 0 0 0 0 0 0 0 0 127 0"/>
<feOffset dy="2.94118"/>
<feGaussianBlur stdDeviation="8.82353"/>
<feColorMatrix type="matrix" values="0 0 0 0 0 0 0 0 0 0 0 0 0 0 0 0 0 0 0.15 0"/>
<feBlend mode="normal" in2="BackgroundImageFix" result="effect1_dropShadow"/>
<feBlend mode="normal" in="SourceGraphic" in2="effect1_dropShadow" result="shape"/>
<feColorMatrix in="SourceAlpha" type="matrix" values="0 0 0 0 0 0 0 0 0 0 0 0 0 0 0 0 0 0 127 0" result="hardAlpha"/>
<feOffset dy="5.88235"/>
<feGaussianBlur stdDeviation="5.88235"/>
<feComposite in2="hardAlpha" operator="arithmetic" k2="-1" k3="1"/>
<feColorMatrix type="matrix" values="0 0 0 0 1 0 0 0 0 1 0 0 0 0 1 0 0 0 0.25 0"/>
<feBlend mode="normal" in2="shape" result="effect2_innerShadow"/>
</filter>
<filter id="filter6_d" x="151.173" y="142.742" width="341.779" height="208.663" filterUnits="userSpaceOnUse" color-interpolation-filters="sRGB">
<feFlood flood-opacity="0" result="BackgroundImageFix"/>
<feColorMatrix in="SourceAlpha" type="matrix" values="0 0 0 0 0 0 0 0 0 0 0 0 0 0 0 0 0 0 127 0"/>
<feOffset dy="5.88235"/>
<feGaussianBlur stdDeviation="11.7647"/>
<feColorMatrix type="matrix" values="0 0 0 0 0 0 0 0 0 0 0 0 0 0 0 0 0 0 0.1 0"/>
<feBlend mode="normal" in2="BackgroundImageFix" result="effect1_dropShadow"/>
<feBlend mode="normal" in="SourceGraphic" in2="effect1_dropShadow" result="shape"/>
</filter>
<filter id="filter7_iii" x="110.225" y="128.614" width="420.825" height="253.158" filterUnits="userSpaceOnUse" color-interpolation-filters="sRGB">
<feFlood flood-opacity="0" result="BackgroundImageFix"/>
<feBlend mode="normal" in="SourceGraphic" in2="BackgroundImageFix" result="shape"/>
<feColorMatrix in="SourceAlpha" type="matrix" values="0 0 0 0 0 0 0 0 0 0 0 0 0 0 0 0 0 0 127 0" result="hardAlpha"/>
<feOffset dy="17.6471"/>
<feComposite in2="hardAlpha" operator="arithmetic" k2="-1" k3="1"/>
<feColorMatrix type="matrix" values="0 0 0 0 0 0 0 0 0 0 0 0 0 0 0 0 0 0 0.06 0"/>
<feBlend mode="normal" in2="shape" result="effect1_innerShadow"/>
<feColorMatrix in="SourceAlpha" type="matrix" values="0 0 0 0 0 0 0 0 0 0 0 0 0 0 0 0 0 0 127 0" result="hardAlpha"/>
<feOffset dy="-11.7647"/>
<feGaussianBlur stdDeviation="39.7059"/>
<feComposite in2="hardAlpha" operator="arithmetic" k2="-1" k3="1"/>
<feColorMatrix type="matrix" values="0 0 0 0 0 0 0 0 0 0 0 0 0 0 0 0 0 0 0.21 0"/>
<feBlend mode="normal" in2="effect1_innerShadow" result="effect2_innerShadow"/>
<feColorMatrix in="SourceAlpha" type="matrix" values="0 0 0 0 0 0 0 0 0 0 0 0 0 0 0 0 0 0 127 0" result="hardAlpha"/>
<feOffset dy="-29.4118"/>
<feGaussianBlur stdDeviation="10.2941"/>
<feComposite in2="hardAlpha" operator="arithmetic" k2="-1" k3="1"/>
<feColorMatrix type="matrix" values="0 0 0 0 0 0 0 0 0 0 0 0 0 0 0 0 0 0 0.03 0"/>
<feBlend mode="normal" in2="effect2_innerShadow" result="effect3_innerShadow"/>
</filter>
<filter id="filter8_d" x="462.241" y="425.241" width="91.7946" height="91.7946" filterUnits="userSpaceOnUse" color-interpolation-filters="sRGB">
<feFlood flood-opacity="0" result="BackgroundImageFix"/>
<feColorMatrix in="SourceAlpha" type="matrix" values="0 0 0 0 0 0 0 0 0 0 0 0 0 0 0 0 0 0 127 0"/>
<feOffset/>
<feGaussianBlur stdDeviation="11.4564"/>
<feColorMatrix type="matrix" values="0 0 0 0 0.85098 0 0 0 0 0.411765 0 0 0 0 0.411765 0 0 0 0.5 0"/>
<feBlend mode="normal" in2="BackgroundImageFix" result="effect1_dropShadow"/>
<feBlend mode="normal" in="SourceGraphic" in2="effect1_dropShadow" result="shape"/>
</filter>
<filter id="filter9_d" x="409.13" y="498.13" width="214.16" height="214.32" filterUnits="userSpaceOnUse" color-interpolation-filters="sRGB">
<feFlood flood-opacity="0" result="BackgroundImageFix"/>
<feColorMatrix in="SourceAlpha" type="matrix" values="0 0 0 0 0 0 0 0 0 0 0 0 0 0 0 0 0 0 127 0"/>
<feOffset dx="-3.29" dy="-3.29"/>
<feGaussianBlur stdDeviation="14.79"/>
<feColorMatrix type="matrix" values="0 0 0 0 0 0 0 0 0 0 0 0 0 0 0 0 0 0 0.13 0"/>
<feBlend mode="normal" in2="BackgroundImageFix" result="effect1_dropShadow"/>
<feBlend mode="normal" in="SourceGraphic" in2="effect1_dropShadow" result="shape"/>
</filter>
<filter id="filter10_d" x="440.252" y="575.817" width="173.179" height="173.323" filterUnits="userSpaceOnUse" color-interpolation-filters="sRGB">
<feFlood flood-opacity="0" result="BackgroundImageFix"/>
<feColorMatrix in="SourceAlpha" type="matrix" values="0 0 0 0 0 0 0 0 0 0 0 0 0 0 0 0 0 0 127 0"/>
<feOffset dy="-3.29"/>
<feGaussianBlur stdDeviation="8.215"/>
<feColorMatrix type="matrix" values="0 0 0 0 0 0 0 0 0 0 0 0 0 0 0 0 0 0 0.07 0"/>
<feBlend mode="normal" in2="BackgroundImageFix" result="effect1_dropShadow"/>
<feBlend mode="normal" in="SourceGraphic" in2="effect1_dropShadow" result="shape"/>
</filter>
<filter id="filter11_i" x="453.742" y="646.166" width="92.6811" height="95.7128" filterUnits="userSpaceOnUse" color-interpolation-filters="sRGB">
<feFlood flood-opacity="0" result="BackgroundImageFix"/>
<feBlend mode="normal" in="SourceGraphic" in2="BackgroundImageFix" result="shape"/>
<feColorMatrix in="SourceAlpha" type="matrix" values="0 0 0 0 0 0 0 0 0 0 0 0 0 0 0 0 0 0 127 0" result="hardAlpha"/>
<feOffset dx="-2.94" dy="5.88"/>
<feGaussianBlur stdDeviation="7.355"/>
<feComposite in2="hardAlpha" operator="arithmetic" k2="-1" k3="1"/>
<feColorMatrix type="matrix" values="0 0 0 0 0 0 0 0 0 0 0 0 0 0 0 0 0 0 0.05 0"/>
<feBlend mode="normal" in2="shape" result="effect1_innerShadow"/>
</filter>
</defs>
</svg>
