<svg width="700" height="815" viewBox="0 0 700 815" fill="none" xmlns="http://www.w3.org/2000/svg">
<path d="M422.474 761H233.526C186.292 761 148 722.604 148 675.24V293.76C148 246.396 186.292 208 233.526 208H422.474C469.709 208 508 246.396 508 293.76V675.24C508 722.604 469.709 761 422.474 761Z" fill="#FFC29C"/>
<path d="M532.148 472.199C532.148 484.915 521.84 495.223 509.124 495.223C496.409 495.223 486.101 484.915 486.101 472.199C486.101 459.484 496.409 449.176 509.124 449.176C521.84 449.176 532.148 459.484 532.148 472.199Z" fill="#D96969"/>
<g filter="url(#filter0_i)">
<path d="M461 815H393V719H461V815Z" fill="#D08A63"/>
</g>
<g filter="url(#filter1_i)">
<path d="M315 815H247V719H315V815Z" fill="#965937"/>
</g>
<path d="M148.041 646L135.246 658.793C117.585 676.455 117.585 705.091 135.246 722.753C152.908 740.416 181.544 740.416 199.206 722.753L212 709.959L148.041 646Z" fill="#FFC29C"/>
<path d="M405.234 547.762H375.872V497H338.851V547.762H291.617V518.733H255.872V547.762H208L148 516.177V587.131V596.719V675.35C148 722.653 186.291 761 233.526 761H422.474C469.708 761 508 722.653 508 675.35V596.719V587.131V516.177L405.234 547.762Z" fill="#B87A57"/>
<path d="M375.872 208.072H338.851V357.65H375.872V208.072Z" fill="#404040"/>
<path d="M393.28 666.986H378.488C372.944 666.986 368.45 662.561 368.45 657.1V612.077C368.45 606.618 372.944 602.192 378.488 602.192H393.28C398.824 602.192 403.317 606.618 403.317 612.077V657.1C403.317 662.561 398.824 666.986 393.28 666.986Z" fill="#965937"/>
<path d="M331.923 627.113H368.45V614.154H324.617V619.328C324.617 623.627 327.889 627.113 331.923 627.113Z" fill="#965937"/>
<path d="M336.572 627.113V547.366H324.617V619.509C324.617 623.708 327.829 627.113 331.79 627.113H336.572Z" fill="#965937"/>
<path d="M393 667H380V761H393V667Z" fill="#965937"/>
<path d="M399.178 610.042C399.178 612.504 397.181 614.499 394.718 614.499C392.255 614.499 390.259 612.504 390.259 610.042C390.259 607.58 392.255 605.584 394.718 605.584C397.181 605.584 399.178 607.58 399.178 610.042Z" fill="#00BC65"/>
<path d="M399.178 622.776C399.178 625.238 397.181 627.234 394.718 627.234C392.255 627.234 390.259 625.238 390.259 622.776C390.259 620.314 392.255 618.319 394.718 618.319C397.181 618.319 399.178 620.314 399.178 622.776Z" fill="#84CD5D"/>
<path d="M399.178 635.512C399.178 637.974 397.181 639.969 394.718 639.969C392.255 639.969 390.259 637.974 390.259 635.512C390.259 633.05 392.255 631.054 394.718 631.054C397.181 631.054 399.178 633.05 399.178 635.512Z" fill="#D0E248"/>
<g filter="url(#filter2_d)">
<path d="M583.792 672.937C566.18 690.567 537.627 690.567 520.015 672.937L455.209 608.063C437.597 590.434 437.597 561.851 455.209 544.222C472.82 526.592 501.372 526.592 518.984 544.222L583.792 609.096C601.403 626.725 601.403 655.308 583.792 672.937Z" fill="#965937"/>
</g>
<g filter="url(#filter3_d)">
<path d="M583.792 608.758C601.403 626.388 601.403 654.971 583.792 672.6L533.665 722.777C516.054 740.407 487.502 740.407 469.89 722.777C452.279 705.148 452.279 676.565 469.89 658.936L520.015 608.758C537.627 591.129 566.18 591.129 583.792 608.758Z" fill="#D08A63"/>
</g>
<g filter="url(#filter4_i)">
<path d="M482.647 646.166L469.891 658.936C452.28 676.565 452.28 705.148 469.891 722.777C487.503 740.406 516.055 740.406 533.666 722.777L546.424 710.006L482.647 646.166Z" fill="#FFC29C"/>
</g>
<g filter="url(#filter5_d)">
<g filter="url(#filter6_i)">
<rect x="99" y="146.56" width="458" height="409.441" rx="85" fill="url(#paint0_linear)"/>
</g>
<g filter="url(#filter7_i)">
<path d="M259.348 332.628H248.139C239.225 332.628 232 325.402 232 316.487V277.141C232 268.225 239.225 261 248.139 261H259.348C268.262 261 275.488 268.225 275.488 277.141V316.487C275.488 325.402 268.262 332.628 259.348 332.628Z" fill="#FFC700"/>
<path d="M385.976 332.628H374.767C365.853 332.628 358.628 325.402 358.628 316.487V277.141C358.628 268.225 365.853 261 374.767 261H385.976C394.89 261 402.116 268.225 402.116 277.141V316.487C402.116 325.402 394.89 332.628 385.976 332.628Z" fill="#FFC700"/>
</g>
<g filter="url(#filter8_d)">
<path d="M219.529 164.793L241.141 147.441C241.851 146.87 242.734 146.56 243.645 146.56H405.986C406.405 146.56 406.822 146.626 407.221 146.755L431.495 154.636C435.828 156.043 434.815 162.441 430.26 162.441H395.084C391.458 162.441 389.703 166.879 392.348 169.359L406.076 182.229C409.007 184.977 406.51 189.847 402.568 189.072L350.105 178.759C346.768 178.103 344.186 181.646 345.834 184.621L355.511 202.095C357.532 205.744 353.318 209.663 349.825 207.382L310.53 181.725C308.683 180.519 306.209 181.036 304.999 182.879L287.549 209.464C285.736 212.227 281.544 211.723 280.436 208.609L274.035 190.604C273.3 188.537 271.039 187.448 268.965 188.161L241.429 197.634C237.316 199.049 234.219 193.807 237.443 190.887L246.541 182.645C249.019 180.401 247.814 176.288 244.517 175.735L221.373 171.857C217.966 171.286 216.836 166.955 219.529 164.793Z" fill="#E87230"/>
<path d="M311.092 159.093H348.647C353.491 159.093 356.338 153.651 353.576 149.672L335.105 123.062L334.051 97.8164L332.476 69.5363C332.311 66.5777 330.011 64.1824 327.061 63.8977L323.636 63.5671C320.375 63.2524 317.465 65.6109 317.097 68.8658L314.037 95.9595L310.619 124.51C310.423 126.14 309.569 127.618 308.255 128.602L288.604 143.301C284.585 146.307 285.814 152.625 290.667 153.906L309.56 158.894C310.06 159.026 310.575 159.093 311.092 159.093Z" fill="#CA6F3C"/>
</g>
<g filter="url(#filter9_i)">
<path d="M221.435 469.863L180.74 406.495C179.037 403.843 182.052 400.695 184.775 402.282L222.725 424.408C223.393 424.798 224.187 424.914 224.939 424.732L254.55 417.587C254.935 417.494 255.333 417.478 255.724 417.54L318.649 427.511C318.96 427.56 319.277 427.56 319.588 427.511L382.513 417.54C382.903 417.478 383.302 417.494 383.686 417.587L413.349 424.745C414.07 424.919 414.83 424.82 415.483 424.466L456.974 401.977C459.749 400.473 462.666 403.722 460.872 406.319L416.836 470.068C415.672 471.753 413.199 471.802 411.969 470.165L399.703 453.836C398.295 451.961 395.378 452.353 394.515 454.533L391.347 462.534C390.587 464.452 388.164 465.049 386.601 463.704L370.132 449.531C368.65 448.256 366.364 448.716 365.491 450.465L353.471 474.531C352.594 476.287 350.295 476.741 348.815 475.451L321.09 451.273C319.96 450.288 318.276 450.288 317.146 451.273L289.421 475.451C287.941 476.741 285.642 476.287 284.765 474.531L272.745 450.465C271.872 448.716 269.586 448.256 268.105 449.531L251.635 463.704C250.072 465.049 247.649 464.452 246.889 462.534L243.721 454.533C242.858 452.353 239.941 451.961 238.533 453.836L226.358 470.044C225.102 471.715 222.565 471.622 221.435 469.863Z" fill="#FFC700"/>
</g>
</g>
<defs>
<filter id="filter0_i" x="393" y="719" width="68" height="105" filterUnits="userSpaceOnUse" color-interpolation-filters="sRGB">
<feFlood flood-opacity="0" result="BackgroundImageFix"/>
<feBlend mode="normal" in="SourceGraphic" in2="BackgroundImageFix" result="shape"/>
<feColorMatrix in="SourceAlpha" type="matrix" values="0 0 0 0 0 0 0 0 0 0 0 0 0 0 0 0 0 0 127 0" result="hardAlpha"/>
<feOffset dy="44"/>
<feGaussianBlur stdDeviation="4.5"/>
<feComposite in2="hardAlpha" operator="arithmetic" k2="-1" k3="1"/>
<feColorMatrix type="matrix" values="0 0 0 0 0 0 0 0 0 0 0 0 0 0 0 0 0 0 0.07 0"/>
<feBlend mode="normal" in2="shape" result="effect1_innerShadow"/>
</filter>
<filter id="filter1_i" x="247" y="719" width="68" height="105" filterUnits="userSpaceOnUse" color-interpolation-filters="sRGB">
<feFlood flood-opacity="0" result="BackgroundImageFix"/>
<feBlend mode="normal" in="SourceGraphic" in2="BackgroundImageFix" result="shape"/>
<feColorMatrix in="SourceAlpha" type="matrix" values="0 0 0 0 0 0 0 0 0 0 0 0 0 0 0 0 0 0 127 0" result="hardAlpha"/>
<feOffset dy="44"/>
<feGaussianBlur stdDeviation="4.5"/>
<feComposite in2="hardAlpha" operator="arithmetic" k2="-1" k3="1"/>
<feColorMatrix type="matrix" values="0 0 0 0 0 0 0 0 0 0 0 0 0 0 0 0 0 0 0.07 0"/>
<feBlend mode="normal" in2="shape" result="effect1_innerShadow"/>
</filter>
<filter id="filter2_d" x="409.13" y="498.13" width="214.16" height="214.32" filterUnits="userSpaceOnUse" color-interpolation-filters="sRGB">
<feFlood flood-opacity="0" result="BackgroundImageFix"/>
<feColorMatrix in="SourceAlpha" type="matrix" values="0 0 0 0 0 0 0 0 0 0 0 0 0 0 0 0 0 0 127 0"/>
<feOffset dx="-3.29" dy="-3.29"/>
<feGaussianBlur stdDeviation="14.79"/>
<feColorMatrix type="matrix" values="0 0 0 0 0 0 0 0 0 0 0 0 0 0 0 0 0 0 0.13 0"/>
<feBlend mode="normal" in2="BackgroundImageFix" result="effect1_dropShadow"/>
<feBlend mode="normal" in="SourceGraphic" in2="effect1_dropShadow" result="shape"/>
</filter>
<filter id="filter3_d" x="440.252" y="575.817" width="173.179" height="173.323" filterUnits="userSpaceOnUse" color-interpolation-filters="sRGB">
<feFlood flood-opacity="0" result="BackgroundImageFix"/>
<feColorMatrix in="SourceAlpha" type="matrix" values="0 0 0 0 0 0 0 0 0 0 0 0 0 0 0 0 0 0 127 0"/>
<feOffset dy="-3.29"/>
<feGaussianBlur stdDeviation="8.215"/>
<feColorMatrix type="matrix" values="0 0 0 0 0 0 0 0 0 0 0 0 0 0 0 0 0 0 0.07 0"/>
<feBlend mode="normal" in2="BackgroundImageFix" result="effect1_dropShadow"/>
<feBlend mode="normal" in="SourceGraphic" in2="effect1_dropShadow" result="shape"/>
</filter>
<filter id="filter4_i" x="453.743" y="646.166" width="92.6811" height="95.7128" filterUnits="userSpaceOnUse" color-interpolation-filters="sRGB">
<feFlood flood-opacity="0" result="BackgroundImageFix"/>
<feBlend mode="normal" in="SourceGraphic" in2="BackgroundImageFix" result="shape"/>
<feColorMatrix in="SourceAlpha" type="matrix" values="0 0 0 0 0 0 0 0 0 0 0 0 0 0 0 0 0 0 127 0" result="hardAlpha"/>
<feOffset dx="-2.94" dy="5.88"/>
<feGaussianBlur stdDeviation="7.355"/>
<feComposite in2="hardAlpha" operator="arithmetic" k2="-1" k3="1"/>
<feColorMatrix type="matrix" values="0 0 0 0 0 0 0 0 0 0 0 0 0 0 0 0 0 0 0.05 0"/>
<feBlend mode="normal" in2="shape" result="effect1_innerShadow"/>
</filter>
<filter id="filter5_d" x="81" y="59" width="494" height="529" filterUnits="userSpaceOnUse" color-interpolation-filters="sRGB">
<feFlood flood-opacity="0" result="BackgroundImageFix"/>
<feColorMatrix in="SourceAlpha" type="matrix" values="0 0 0 0 0 0 0 0 0 0 0 0 0 0 0 0 0 0 127 0"/>
<feOffset dy="14"/>
<feGaussianBlur stdDeviation="9"/>
<feColorMatrix type="matrix" values="0 0 0 0 0 0 0 0 0 0 0 0 0 0 0 0 0 0 0.04 0"/>
<feBlend mode="normal" in2="BackgroundImageFix" result="effect1_dropShadow"/>
<feBlend mode="normal" in="SourceGraphic" in2="effect1_dropShadow" result="shape"/>
</filter>
<filter id="filter6_i" x="99" y="146.56" width="458" height="409.441" filterUnits="userSpaceOnUse" color-interpolation-filters="sRGB">
<feFlood flood-opacity="0" result="BackgroundImageFix"/>
<feBlend mode="normal" in="SourceGraphic" in2="BackgroundImageFix" result="shape"/>
<feColorMatrix in="SourceAlpha" type="matrix" values="0 0 0 0 0 0 0 0 0 0 0 0 0 0 0 0 0 0 127 0" result="hardAlpha"/>
<feOffset dy="-12"/>
<feComposite in2="hardAlpha" operator="arithmetic" k2="-1" k3="1"/>
<feColorMatrix type="matrix" values="0 0 0 0 0 0 0 0 0 0 0 0 0 0 0 0 0 0 0.05 0"/>
<feBlend mode="normal" in2="shape" result="effect1_innerShadow"/>
</filter>
<filter id="filter7_i" x="232" y="261" width="170.116" height="71.6279" filterUnits="userSpaceOnUse" color-interpolation-filters="sRGB">
<feFlood flood-opacity="0" result="BackgroundImageFix"/>
<feBlend mode="normal" in="SourceGraphic" in2="BackgroundImageFix" result="shape"/>
<feColorMatrix in="SourceAlpha" type="matrix" values="0 0 0 0 0 0 0 0 0 0 0 0 0 0 0 0 0 0 127 0" result="hardAlpha"/>
<feOffset dy="-9"/>
<feComposite in2="hardAlpha" operator="arithmetic" k2="-1" k3="1"/>
<feColorMatrix type="matrix" values="0 0 0 0 0 0 0 0 0 0 0 0 0 0 0 0 0 0 0.03 0"/>
<feBlend mode="normal" in2="shape" result="effect1_innerShadow"/>
</filter>
<filter id="filter8_d" x="189.03" y="37.5391" width="274.233" height="205.73" filterUnits="userSpaceOnUse" color-interpolation-filters="sRGB">
<feFlood flood-opacity="0" result="BackgroundImageFix"/>
<feColorMatrix in="SourceAlpha" type="matrix" values="0 0 0 0 0 0 0 0 0 0 0 0 0 0 0 0 0 0 127 0"/>
<feOffset dy="3"/>
<feGaussianBlur stdDeviation="14.5"/>
<feColorMatrix type="matrix" values="0 0 0 0 0 0 0 0 0 0 0 0 0 0 0 0 0 0 0.11 0"/>
<feBlend mode="normal" in2="BackgroundImageFix" result="effect1_dropShadow"/>
<feBlend mode="normal" in="SourceGraphic" in2="effect1_dropShadow" result="shape"/>
</filter>
<filter id="filter9_i" x="180.244" y="401.595" width="281.18" height="74.5961" filterUnits="userSpaceOnUse" color-interpolation-filters="sRGB">
<feFlood flood-opacity="0" result="BackgroundImageFix"/>
<feBlend mode="normal" in="SourceGraphic" in2="BackgroundImageFix" result="shape"/>
<feColorMatrix in="SourceAlpha" type="matrix" values="0 0 0 0 0 0 0 0 0 0 0 0 0 0 0 0 0 0 127 0" result="hardAlpha"/>
<feOffset dy="-9"/>
<feComposite in2="hardAlpha" operator="arithmetic" k2="-1" k3="1"/>
<feColorMatrix type="matrix" values="0 0 0 0 0 0 0 0 0 0 0 0 0 0 0 0 0 0 0.03 0"/>
<feBlend mode="normal" in2="shape" result="effect1_innerShadow"/>
</filter>
<linearGradient id="paint0_linear" x1="328" y1="147" x2="328" y2="556" gradientUnits="userSpaceOnUse">
<stop stop-color="#FFA371"/>
<stop offset="1" stop-color="#FF833F"/>
</linearGradient>
</defs>
</svg>
