<svg width="700" height="815" viewBox="0 0 700 815" fill="none" xmlns="http://www.w3.org/2000/svg">
<g clip-path="url(#clip0)">
<path d="M441.875 173.03H241.416C191.296 173.03 150.667 213.655 150.667 263.769V667.351C150.667 717.465 191.296 758.09 241.416 758.09H441.875C491.994 758.09 532.623 717.465 532.623 667.351V263.769C532.623 213.655 491.994 173.03 441.875 173.03Z" fill="url(#paint0_linear)"/>
<path d="M481.155 714.752H409.368V776.373H481.155V714.752Z" fill="#51C881"/>
<path d="M481.155 795.333H409.368V816.325H481.155V795.333Z" fill="#51C881"/>
<path d="M468.287 775.019H422.236V796.688H468.287V775.019Z" fill="#616161"/>
<path d="M326.747 714.752H254.96V776.373H326.747V714.752Z" fill="#007E27"/>
<path d="M326.747 795.333H254.96V816.325H326.747V795.333Z" fill="#007E27"/>
<path d="M313.879 775.019H267.828V796.688H313.879V775.019Z" fill="#616161"/>
<path d="M150.667 573.905V667.352C150.667 691.417 160.228 714.497 177.247 731.514C194.265 748.53 217.348 758.09 241.416 758.09H441.875C465.943 758.09 489.025 748.53 506.044 731.514C523.062 714.497 532.623 691.417 532.623 667.352V573.905H150.667Z" fill="#51C881"/>
<path d="M151.345 464.883L331.487 425.608L531.947 464.883V569.165H202.814L149.99 539.37L150.667 464.992" fill="#9E9E9E"/>
<g filter="url(#filter0_d)">
<path d="M151.345 481.135L331.487 441.86L531.947 481.135V585.417H202.814L149.99 555.622L150.667 481.244" fill="url(#paint1_linear)"/>
</g>
<path d="M328.101 479.781H326.747C304.679 479.781 286.79 497.668 286.79 519.733V521.087C286.79 543.152 304.679 561.039 326.747 561.039H328.101C350.168 561.039 368.057 543.152 368.057 521.087V519.733C368.057 497.668 350.168 479.781 328.101 479.781Z" fill="url(#paint2_radial)"/>
<path d="M360.094 495.802C358.195 493.261 355.998 490.955 353.552 488.936L332.842 509.643V480.065C331.268 479.881 329.686 479.786 328.101 479.781H326.747C325.609 479.781 324.471 479.781 323.361 479.93V509.643L302.055 488.34C299.564 490.303 297.314 492.553 295.351 495.044L316.656 516.347H286.939C286.845 517.457 286.79 518.595 286.79 519.733V521.087C286.796 522.671 286.891 524.254 287.075 525.827H316.656L295.947 546.534C297.966 548.981 300.272 551.177 302.814 553.076L323.361 532.599V560.958C324.471 561.053 325.609 561.107 326.747 561.107H328.101C329.686 561.101 331.268 561.006 332.842 560.822V532.599L352.793 552.547C355.284 550.585 357.535 548.335 359.498 545.844L339.614 525.827H367.841C368.025 524.254 368.12 522.671 368.125 521.087V519.733C368.125 518.595 368.125 517.457 367.976 516.347H339.614L360.094 495.802Z" fill="#757575"/>
<path d="M327.492 495.911H327.478C313.983 495.911 303.044 506.849 303.044 520.342V520.356C303.044 533.849 313.983 544.788 327.478 544.788H327.492C340.986 544.788 351.926 533.849 351.926 520.356V520.342C351.926 506.849 340.986 495.911 327.492 495.911Z" fill="#9E9E9E"/>
<path d="M531.947 496.709C556.258 496.709 575.967 477.003 575.967 452.695C575.967 428.386 556.258 408.68 531.947 408.68C507.635 408.68 487.927 428.386 487.927 452.695C487.927 477.003 507.635 496.709 531.947 496.709Z" fill="#FFC19C"/>
<path d="M532.624 477.749C546.089 477.749 557.004 466.835 557.004 453.372C557.004 439.908 546.089 428.994 532.624 428.994C519.159 428.994 508.244 439.908 508.244 453.372C508.244 466.835 519.159 477.749 532.624 477.749Z" fill="#C06969"/>
<path d="M475.103 529.86L475.093 529.87C456.411 548.55 456.411 578.837 475.093 597.517L543.859 666.276C562.542 684.956 592.832 684.956 611.514 666.276L611.524 666.266C630.206 647.586 630.206 617.299 611.524 598.618L542.758 529.86C524.075 511.18 493.785 511.18 475.103 529.86Z" fill="#007E27"/>
<path d="M490.654 719.073L490.664 719.082C509.346 737.763 539.637 737.763 558.319 719.082L611.512 665.895C630.195 647.215 630.195 616.928 611.512 598.248L611.503 598.238C592.82 579.558 562.53 579.558 543.848 598.238L490.654 651.425C471.972 670.106 471.972 700.393 490.654 719.073Z" fill="#51C881"/>
<g filter="url(#filter1_i)">
<path d="M504.194 637.896L490.649 651.439C486.2 655.883 482.67 661.161 480.262 666.971C477.854 672.78 476.615 679.007 476.615 685.296C476.615 691.585 477.854 697.812 480.262 703.622C482.67 709.431 486.2 714.709 490.649 719.154C495.095 723.603 500.373 727.132 506.183 729.54C511.993 731.947 518.221 733.187 524.511 733.187C530.8 733.187 537.028 731.947 542.838 729.54C548.648 727.132 553.927 723.603 558.372 719.154L571.917 705.611L504.194 637.896Z" fill="#FFC19C"/>
</g>
<path d="M150.667 667.352V643.326L137.123 656.869C132.674 661.314 129.144 666.592 126.736 672.402C124.328 678.211 123.088 684.438 123.088 690.727C123.088 697.016 124.328 703.243 126.736 709.052C129.144 714.862 132.674 720.14 137.123 724.584C143.042 730.5 150.411 734.759 158.493 736.933C166.574 739.108 175.085 739.123 183.174 736.976C172.979 728.467 164.781 717.818 159.163 705.785C153.545 693.752 150.645 680.631 150.667 667.352Z" fill="#FFC19C"/>
<path d="M308.461 372.791C308.461 343.62 284.811 319.973 255.637 319.973C226.463 319.973 202.813 343.62 202.813 372.791C202.813 401.961 226.463 425.608 255.637 425.608C284.811 425.608 308.461 401.961 308.461 372.791Z" fill="#233546"/>
<path d="M460.16 372.791C460.16 343.62 436.51 319.973 407.336 319.973C378.162 319.973 354.512 343.62 354.512 372.791C354.512 401.961 378.162 425.608 407.336 425.608C436.51 425.608 460.16 401.961 460.16 372.791Z" fill="#233546"/>
<path d="M255.637 319.973H407.336V374.145L340.968 363.31H324.715L255.637 372.791V319.973Z" fill="#233546"/>
<g filter="url(#filter2_i)">
<path d="M406.307 336.942H406.293C386.672 336.942 370.766 352.846 370.766 372.465V372.479C370.766 392.098 386.672 408.002 406.293 408.002H406.307C425.928 408.002 441.834 392.098 441.834 372.479V372.465C441.834 352.846 425.928 336.942 406.307 336.942Z" fill="#EEEEEE"/>
</g>
<g filter="url(#filter3_i)">
<path d="M254.608 336.942H254.594C234.973 336.942 219.067 352.846 219.067 372.465V372.479C219.067 392.098 234.973 408.002 254.594 408.002H254.608C274.229 408.002 290.135 392.098 290.135 372.479V372.465C290.135 352.846 274.229 336.942 254.608 336.942Z" fill="#EEEEEE"/>
</g>
<path d="M318.376 321.11C318.376 312.763 311.608 305.996 303.26 305.996C294.912 305.996 288.144 312.763 288.144 321.11C288.144 329.457 294.912 336.224 303.26 336.224C311.608 336.224 318.376 329.457 318.376 321.11Z" fill="#233546"/>
<g filter="url(#filter4_i)">
<path d="M310.845 320.731C310.845 316.333 307.279 312.768 302.881 312.768C298.482 312.768 294.917 316.333 294.917 320.731C294.917 325.129 298.482 328.694 302.881 328.694C307.279 328.694 310.845 325.129 310.845 320.731Z" fill="#9E9E9E"/>
</g>
<path d="M372.554 321.11C372.554 312.763 365.786 305.996 357.438 305.996C349.09 305.996 342.322 312.763 342.322 321.11C342.322 329.457 349.09 336.224 357.438 336.224C365.786 336.224 372.554 329.457 372.554 321.11Z" fill="#233546"/>
<g filter="url(#filter5_i)">
<path d="M365.023 320.731C365.023 316.333 361.457 312.768 357.059 312.768C352.66 312.768 349.095 316.333 349.095 320.731C349.095 325.129 352.66 328.694 357.059 328.694C361.457 328.694 365.023 325.129 365.023 320.731Z" fill="#9E9E9E"/>
</g>
<path d="M466.31 585.416H202.814L150.722 556.027L150.979 599.365L200.322 630.108H507.688L475.06 597.51C471.521 593.967 468.568 589.885 466.31 585.416Z" fill="#B54C47"/>
<path d="M466.296 585.416H202.814L150.762 556.055L150.979 592.052L200.322 622.795H500.374L475.06 597.51C471.521 593.964 468.564 589.883 466.296 585.416Z" fill="#DC504F"/>
<path d="M427.654 585.416H401.919V622.795H427.654V585.416Z" fill="#FB6261"/>
<path d="M362.64 585.416H336.905V622.795H362.64V585.416Z" fill="#FB6261"/>
<path d="M305.753 585.416H280.018V622.795H305.753V585.416Z" fill="#FB6261"/>
<path d="M232.612 585.416H206.878V622.795H232.612V585.416Z" fill="#FB6261"/>
<path d="M219.068 613.856H219.054C217.655 613.856 216.521 614.99 216.521 616.389V632.492C216.521 633.89 217.655 635.024 219.054 635.024H219.068C220.466 635.024 221.6 633.89 221.6 632.492V616.389C221.6 614.99 220.466 613.856 219.068 613.856Z" fill="#9E9E9E"/>
<path d="M219.067 657.871C226.548 657.871 232.612 651.808 232.612 644.328C232.612 636.849 226.548 630.785 219.067 630.785C211.587 630.785 205.523 636.849 205.523 644.328C205.523 651.808 211.587 657.871 219.067 657.871Z" fill="#DC504F"/>
<path d="M219.068 656.179C220.938 656.179 222.454 654.663 222.454 652.793C222.454 650.923 220.938 649.407 219.068 649.407C217.197 649.407 215.681 650.923 215.681 652.793C215.681 654.663 217.197 656.179 219.068 656.179Z" fill="#F2DC4B"/>
<path d="M293.563 613.856H293.549C292.15 613.856 291.016 614.99 291.016 616.389V632.492C291.016 633.89 292.15 635.024 293.549 635.024H293.563C294.961 635.024 296.095 633.89 296.095 632.492V616.389C296.095 614.99 294.961 613.856 293.563 613.856Z" fill="#9E9E9E"/>
<path d="M293.563 657.871C301.043 657.871 307.107 651.808 307.107 644.328C307.107 636.849 301.043 630.785 293.563 630.785C286.082 630.785 280.018 636.849 280.018 644.328C280.018 651.808 286.082 657.871 293.563 657.871Z" fill="#DC504F"/>
<path d="M293.563 656.179C295.433 656.179 296.949 654.663 296.949 652.793C296.949 650.923 295.433 649.407 293.563 649.407C291.693 649.407 290.177 650.923 290.177 652.793C290.177 654.663 291.693 656.179 293.563 656.179Z" fill="#F2DC4B"/>
<path d="M350.463 613.856H350.45C349.051 613.856 347.917 614.99 347.917 616.389V632.492C347.917 633.89 349.051 635.024 350.45 635.024H350.463C351.862 635.024 352.996 633.89 352.996 632.492V616.389C352.996 614.99 351.862 613.856 350.463 613.856Z" fill="#9E9E9E"/>
<path d="M350.45 657.871C357.93 657.871 363.994 651.808 363.994 644.328C363.994 636.849 357.93 630.785 350.45 630.785C342.969 630.785 336.905 636.849 336.905 644.328C336.905 651.808 342.969 657.871 350.45 657.871Z" fill="#DC504F"/>
<path d="M350.45 656.179C352.32 656.179 353.836 654.663 353.836 652.793C353.836 650.923 352.32 649.407 350.45 649.407C348.58 649.407 347.064 650.923 347.064 652.793C347.064 654.663 348.58 656.179 350.45 656.179Z" fill="#F2DC4B"/>
<path d="M416.832 613.856H416.818C415.419 613.856 414.285 614.99 414.285 616.389V632.492C414.285 633.89 415.419 635.024 416.818 635.024H416.832C418.23 635.024 419.364 633.89 419.364 632.492V616.389C419.364 614.99 418.23 613.856 416.832 613.856Z" fill="#9E9E9E"/>
<path d="M416.818 657.871C424.298 657.871 430.363 651.808 430.363 644.328C430.363 636.849 424.298 630.785 416.818 630.785C409.338 630.785 403.273 636.849 403.273 644.328C403.273 651.808 409.338 657.871 416.818 657.871Z" fill="#DC504F"/>
<path d="M416.818 656.179C418.688 656.179 420.204 654.663 420.204 652.793C420.204 650.923 418.688 649.407 416.818 649.407C414.948 649.407 413.432 650.923 413.432 652.793C413.432 654.663 414.948 656.179 416.818 656.179Z" fill="#F2DC4B"/>
<path d="M240.323 177.991C239.103 177.875 238.273 176.699 238.572 175.511L244.631 151.471C245.053 149.795 247.259 149.408 248.227 150.84L248.62 151.421C249.554 152.803 251.671 152.5 252.181 150.911L254.776 142.822C255.4 140.878 258.191 141.007 258.633 142.999L260.198 150.051C260.631 152.002 263.341 152.182 264.028 150.305L266.712 142.974C267.478 140.879 270.579 141.422 270.59 143.652L270.621 150.262C270.63 152.062 272.826 152.936 274.068 151.633L276.448 149.139C277.954 147.561 280.539 149.189 279.765 151.229L277.428 157.392C276.788 159.081 278.611 160.646 280.184 159.756C281.923 158.772 283.828 160.757 282.773 162.455L271.949 179.874C271.549 180.519 270.817 180.881 270.062 180.809L240.323 177.991Z" fill="#67AA40"/>
<path d="M448.386 177.991C449.606 177.875 450.436 176.699 450.137 175.511L444.078 151.471C443.656 149.795 441.45 149.408 440.482 150.839L440.089 151.421C439.155 152.803 437.038 152.5 436.528 150.911L433.93 142.813C433.307 140.871 430.517 140.998 430.074 142.99L428.502 150.053C428.068 152.004 425.357 152.182 424.671 150.305L421.998 142.99C421.232 140.895 418.13 141.437 418.119 143.667L418.088 150.262C418.079 152.062 415.883 152.936 414.641 151.633L412.261 149.139C410.755 147.561 408.17 149.189 408.944 151.229L411.28 157.389C411.921 159.079 410.096 160.645 408.523 159.755C406.783 158.77 404.877 160.755 405.932 162.454L416.747 179.873C417.147 180.518 417.878 180.881 418.634 180.809L448.386 177.991Z" fill="#67AA40"/>
<path d="M26.7346 116.827C26.7346 114.583 24.9154 112.764 22.6713 112.764C20.4271 112.764 18.6079 114.583 18.6079 116.827V142.559C18.6079 144.803 20.4271 146.622 22.6713 146.622C24.9154 146.622 26.7346 144.803 26.7346 142.559V116.827Z" fill="#9E9E9E"/>
<path d="M22.6713 183.188C34.64 183.188 44.3426 173.486 44.3426 161.519C44.3426 149.552 34.64 139.85 22.6713 139.85C10.7026 139.85 1 149.552 1 161.519C1 173.486 10.7026 183.188 22.6713 183.188Z" fill="url(#paint3_radial)"/>
<path d="M23 167C25.7614 167 28 164.761 28 162C28 159.239 25.7614 157 23 157C20.2386 157 18 159.239 18 162C18 164.761 20.2386 167 23 167Z" fill="#F2DC4B"/>
<path d="M663.329 116.827C663.329 114.583 661.509 112.764 659.265 112.764C657.021 112.764 655.202 114.583 655.202 116.827V142.559C655.202 144.803 657.021 146.622 659.265 146.622C661.509 146.622 663.329 144.803 663.329 142.559V116.827Z" fill="#9E9E9E"/>
<path d="M659.265 183.188C671.234 183.188 680.937 173.486 680.937 161.519C680.937 149.552 671.234 139.85 659.265 139.85C647.297 139.85 637.594 149.552 637.594 161.519C637.594 173.486 647.297 183.188 659.265 183.188Z" fill="url(#paint4_radial)"/>
<path d="M659 167C661.761 167 664 164.761 664 162C664 159.239 661.761 157 659 157C656.239 157 654 159.239 654 162C654 164.761 656.239 167 659 167Z" fill="#F2DC4B"/>
<path d="M86.8052 16.7926L85.8091 17.7886C76.542 27.0547 76.5419 42.0781 85.8091 51.3442L227.364 192.883C236.631 202.149 251.656 202.149 260.923 192.883L261.919 191.887C271.186 182.621 271.186 167.598 261.919 158.332L120.365 16.7926C111.097 7.5265 96.0724 7.52649 86.8052 16.7926Z" fill="#8F4D2A"/>
<path d="M114.071 56.5886C123.423 47.2378 123.423 32.0772 114.071 22.7264C104.72 13.3757 89.5574 13.3757 80.2056 22.7265L18.6035 84.3217C9.25166 93.6725 9.25165 108.833 18.6034 118.184C27.9552 127.535 43.1175 127.535 52.4693 118.184L114.071 56.5886Z" fill="#8F4D2A"/>
<path d="M159.792 104.323C169.705 94.4114 169.705 78.3419 159.792 68.4305C149.88 58.5191 133.809 58.5192 123.896 68.4305L95.4798 96.8436C85.5673 106.755 85.5673 122.825 95.4798 132.736C105.392 142.647 121.464 142.647 131.376 132.736L159.792 104.323Z" fill="#8F4D2A"/>
<path d="M204.826 147.328C214.178 137.977 214.178 122.816 204.826 113.466C195.474 104.115 180.312 104.115 170.96 113.466L147.955 136.468C138.603 145.819 138.603 160.98 147.955 170.33C157.307 179.681 172.469 179.681 181.821 170.33L204.826 147.328Z" fill="#8F4D2A"/>
<path d="M423.534 191.872L424.53 192.868C433.798 202.134 448.823 202.134 458.09 192.868L599.645 51.3293C608.912 42.0632 608.912 27.0398 599.645 17.7737L598.648 16.7777C589.381 7.5116 574.356 7.51158 565.089 16.7777L423.534 158.317C414.267 167.583 414.267 182.606 423.534 191.872Z" fill="#8F4D2A"/>
<path d="M632.964 118.179C642.316 127.53 657.478 127.53 666.83 118.179C676.182 108.828 676.182 93.6678 666.83 84.317L605.228 22.7217C595.876 13.371 580.714 13.371 571.362 22.7217C562.01 32.0725 562.01 47.2331 571.362 56.5838L632.964 118.179Z" fill="#8F4D2A"/>
<path d="M554.076 132.742C563.989 142.653 580.06 142.653 589.973 132.742C599.885 122.83 599.885 106.761 589.973 96.8493L561.556 68.4362C551.644 58.5248 535.573 58.5248 525.66 68.4362C515.748 78.3475 515.747 94.4171 525.66 104.328L554.076 132.742Z" fill="#8F4D2A"/>
<path d="M503.62 170.319C512.971 179.67 528.134 179.67 537.485 170.319C546.837 160.968 546.837 145.808 537.485 136.457L514.48 113.455C505.129 104.104 489.966 104.104 480.615 113.455C471.263 122.805 471.263 137.966 480.614 147.317L503.62 170.319Z" fill="#8F4D2A"/>
<path d="M441.875 171.676H241.416C217.367 171.676 194.301 181.221 177.285 198.215C160.27 215.208 150.696 238.26 150.667 262.306C153.341 240.3 163.979 220.034 180.573 205.334C197.166 190.633 218.568 182.514 240.739 182.511H441.198C463.387 182.514 484.806 190.646 501.405 205.37C518.004 220.093 528.633 240.387 531.283 262.415H532.637C532.637 250.498 530.29 238.697 525.728 227.688C521.167 216.678 514.481 206.674 506.053 198.248C497.625 189.822 487.619 183.139 476.607 178.579C465.596 174.02 453.794 171.674 441.875 171.676Z" fill="#8F4D2A"/>
</g>
<defs>
<filter id="filter0_d" x="143.99" y="433.86" width="393.956" height="155.556" filterUnits="userSpaceOnUse" color-interpolation-filters="sRGB">
<feFlood flood-opacity="0" result="BackgroundImageFix"/>
<feColorMatrix in="SourceAlpha" type="matrix" values="0 0 0 0 0 0 0 0 0 0 0 0 0 0 0 0 0 0 127 0"/>
<feOffset dy="-2"/>
<feGaussianBlur stdDeviation="3"/>
<feColorMatrix type="matrix" values="0 0 0 0 0.482353 0 0 0 0 0.615686 0 0 0 0 0.682353 0 0 0 0.25 0"/>
<feBlend mode="normal" in2="BackgroundImageFix" result="effect1_dropShadow"/>
<feBlend mode="normal" in="SourceGraphic" in2="effect1_dropShadow" result="shape"/>
</filter>
<filter id="filter1_i" x="473.675" y="637.896" width="98.2418" height="101.171" filterUnits="userSpaceOnUse" color-interpolation-filters="sRGB">
<feFlood flood-opacity="0" result="BackgroundImageFix"/>
<feBlend mode="normal" in="SourceGraphic" in2="BackgroundImageFix" result="shape"/>
<feColorMatrix in="SourceAlpha" type="matrix" values="0 0 0 0 0 0 0 0 0 0 0 0 0 0 0 0 0 0 127 0" result="hardAlpha"/>
<feOffset dx="-2.94" dy="5.88"/>
<feGaussianBlur stdDeviation="7.355"/>
<feComposite in2="hardAlpha" operator="arithmetic" k2="-1" k3="1"/>
<feColorMatrix type="matrix" values="0 0 0 0 0 0 0 0 0 0 0 0 0 0 0 0 0 0 0.05 0"/>
<feBlend mode="normal" in2="shape" result="effect1_innerShadow"/>
</filter>
<filter id="filter2_i" x="370.766" y="336.942" width="71.0682" height="77.0604" filterUnits="userSpaceOnUse" color-interpolation-filters="sRGB">
<feFlood flood-opacity="0" result="BackgroundImageFix"/>
<feBlend mode="normal" in="SourceGraphic" in2="BackgroundImageFix" result="shape"/>
<feColorMatrix in="SourceAlpha" type="matrix" values="0 0 0 0 0 0 0 0 0 0 0 0 0 0 0 0 0 0 127 0" result="hardAlpha"/>
<feOffset dy="6"/>
<feGaussianBlur stdDeviation="8"/>
<feComposite in2="hardAlpha" operator="arithmetic" k2="-1" k3="1"/>
<feColorMatrix type="matrix" values="0 0 0 0 0.370833 0 0 0 0 0.370833 0 0 0 0 0.370833 0 0 0 0.35 0"/>
<feBlend mode="normal" in2="shape" result="effect1_innerShadow"/>
</filter>
<filter id="filter3_i" x="219.067" y="336.942" width="71.0683" height="77.0604" filterUnits="userSpaceOnUse" color-interpolation-filters="sRGB">
<feFlood flood-opacity="0" result="BackgroundImageFix"/>
<feBlend mode="normal" in="SourceGraphic" in2="BackgroundImageFix" result="shape"/>
<feColorMatrix in="SourceAlpha" type="matrix" values="0 0 0 0 0 0 0 0 0 0 0 0 0 0 0 0 0 0 127 0" result="hardAlpha"/>
<feOffset dy="6"/>
<feGaussianBlur stdDeviation="8"/>
<feComposite in2="hardAlpha" operator="arithmetic" k2="-1" k3="1"/>
<feColorMatrix type="matrix" values="0 0 0 0 0.370833 0 0 0 0 0.370833 0 0 0 0 0.370833 0 0 0 0.35 0"/>
<feBlend mode="normal" in2="shape" result="effect1_innerShadow"/>
</filter>
<filter id="filter4_i" x="294.917" y="312.768" width="15.9284" height="17.9266" filterUnits="userSpaceOnUse" color-interpolation-filters="sRGB">
<feFlood flood-opacity="0" result="BackgroundImageFix"/>
<feBlend mode="normal" in="SourceGraphic" in2="BackgroundImageFix" result="shape"/>
<feColorMatrix in="SourceAlpha" type="matrix" values="0 0 0 0 0 0 0 0 0 0 0 0 0 0 0 0 0 0 127 0" result="hardAlpha"/>
<feOffset dy="2"/>
<feGaussianBlur stdDeviation="1"/>
<feComposite in2="hardAlpha" operator="arithmetic" k2="-1" k3="1"/>
<feColorMatrix type="matrix" values="0 0 0 0 0.508333 0 0 0 0 0.508333 0 0 0 0 0.508333 0 0 0 1 0"/>
<feBlend mode="normal" in2="shape" result="effect1_innerShadow"/>
</filter>
<filter id="filter5_i" x="349.095" y="312.768" width="15.9284" height="17.9266" filterUnits="userSpaceOnUse" color-interpolation-filters="sRGB">
<feFlood flood-opacity="0" result="BackgroundImageFix"/>
<feBlend mode="normal" in="SourceGraphic" in2="BackgroundImageFix" result="shape"/>
<feColorMatrix in="SourceAlpha" type="matrix" values="0 0 0 0 0 0 0 0 0 0 0 0 0 0 0 0 0 0 127 0" result="hardAlpha"/>
<feOffset dy="2"/>
<feGaussianBlur stdDeviation="1"/>
<feComposite in2="hardAlpha" operator="arithmetic" k2="-1" k3="1"/>
<feColorMatrix type="matrix" values="0 0 0 0 0.508333 0 0 0 0 0.508333 0 0 0 0 0.508333 0 0 0 1 0"/>
<feBlend mode="normal" in2="shape" result="effect1_innerShadow"/>
</filter>
<linearGradient id="paint0_linear" x1="341.645" y1="173.03" x2="341.645" y2="758.09" gradientUnits="userSpaceOnUse">
<stop stop-color="#FFC29C"/>
<stop offset="1" stop-color="#F0A87B"/>
</linearGradient>
<linearGradient id="paint1_linear" x1="340.968" y1="441.86" x2="340.968" y2="585.417" gradientUnits="userSpaceOnUse">
<stop stop-color="#424242"/>
<stop offset="1" stop-color="#363636"/>
</linearGradient>
<radialGradient id="paint2_radial" cx="0" cy="0" r="1" gradientUnits="userSpaceOnUse" gradientTransform="translate(327.424 520.41) rotate(90) scale(40.6292 40.6337)">
<stop stop-color="#616161"/>
<stop offset="1" stop-color="#2F2F2F"/>
</radialGradient>
<radialGradient id="paint3_radial" cx="0" cy="0" r="1" gradientUnits="userSpaceOnUse" gradientTransform="translate(22.6713 161.519) rotate(90) scale(21.6689 21.6713)">
<stop offset="0.222981" stop-color="#DC504F"/>
<stop offset="1" stop-color="#FF8382"/>
</radialGradient>
<radialGradient id="paint4_radial" cx="0" cy="0" r="1" gradientUnits="userSpaceOnUse" gradientTransform="translate(659.265 161.519) rotate(90) scale(21.6689 21.6713)">
<stop offset="0.222981" stop-color="#DC504F"/>
<stop offset="1" stop-color="#FF8382"/>
</radialGradient>
<clipPath id="clip0">
<rect width="700" height="815" fill="white"/>
</clipPath>
</defs>
</svg>
