<svg width="700" height="815" viewBox="0 0 700 815" fill="none" xmlns="http://www.w3.org/2000/svg">
<rect x="473.5" y="362.5" width="102" height="309" rx="35.5" fill="#7D3833" stroke="black" stroke-width="25"/>
<path d="M397.728 727.5V802.5H443.5V727.5H397.728Z" fill="#F0B541" stroke="black" stroke-width="25"/>
<path d="M245.5 727.5V802.5H291.272V727.5H245.5Z" fill="#CF752B" stroke="black" stroke-width="25"/>
<path d="M219.327 745.5H416.673C459.103 745.5 493.5 711.103 493.5 668.673V271.327C493.5 228.897 459.103 194.5 416.673 194.5H219.327C176.897 194.5 142.5 228.897 142.5 271.327V668.673C142.5 711.103 176.897 745.5 219.327 745.5Z" fill="#FFE091" stroke="black" stroke-width="25"/>
<path d="M549 457.5C549 481.524 529.524 501 505.5 501C481.476 501 462 481.524 462 457.5C462 433.476 481.476 414 505.5 414C529.524 414 549 433.476 549 457.5Z" fill="black"/>
<path d="M528 457.5C528 469.926 517.926 480 505.5 480C493.074 480 483 469.926 483 457.5C483 445.074 493.074 435 505.5 435C517.926 435 528 445.074 528 457.5Z" fill="#FFD4A3"/>
<path d="M320.067 586.279C264.586 595.27 209.463 587.827 142.5 557.335V668.838C142.5 711.155 176.875 745.5 219.327 745.5H416.673C459.125 745.5 493.5 711.155 493.5 668.838V521.069C428.695 552.784 374.581 577.444 320.067 586.279Z" fill="#F0B541" stroke="black" stroke-width="25" stroke-linecap="round"/>
<path d="M458.643 596.607L458.643 596.607L526.376 664.33C526.376 664.33 526.376 664.33 526.376 664.33C539.902 677.852 561.832 677.852 575.357 664.33C588.881 650.808 588.881 628.886 575.357 615.365L507.622 547.642C494.097 534.12 472.168 534.12 458.643 547.642C445.119 561.164 445.119 583.086 458.643 596.607Z" fill="#CF752B" stroke="black" stroke-width="25"/>
<path d="M473.987 667.393L473.987 667.393C460.463 680.915 460.463 702.836 473.987 716.358C487.513 729.881 509.441 729.881 522.966 716.358L575.357 663.977C588.881 650.456 588.881 628.534 575.357 615.012C561.831 601.49 539.902 601.49 526.376 615.012C526.376 615.012 526.376 615.012 526.376 615.012L473.987 667.393Z" fill="#F0B541" stroke="black" stroke-width="25"/>
<path d="M131.066 668.738V645L117.778 658.35C99.4072 676.808 99.4072 706.734 117.778 725.192C130.036 737.507 147.361 741.564 163 737.444C143.483 721.001 131.066 696.331 131.066 668.738Z" fill="black"/>
<rect x="110" y="311" width="292" height="159" rx="79.5" fill="#686F99"/>
<rect x="110" y="311" width="222" height="109" rx="54.5" fill="#A3A7C2"/>
<path d="M161 353.723C161 347.743 164.981 342.495 170.812 341.168C178.832 339.344 190.246 337.14 199.072 337.007C208.79 336.859 221.478 339.236 230.134 341.177C235.995 342.492 240 347.762 240 353.769C240 362.803 231.193 369.318 222.365 367.399C214.816 365.757 206.132 364.327 199.072 364.416C192.882 364.495 185.364 365.785 178.65 367.279C169.833 369.242 161 362.756 161 353.723Z" fill="white"/>
<rect x="97.5" y="298.5" width="317" height="184" rx="92" stroke="black" stroke-width="25"/>
</svg>
