<svg width="700" height="815" viewBox="0 0 700 815" fill="none" xmlns="http://www.w3.org/2000/svg">
<g filter="url(#filter0_i)">
<path d="M451 815H383V719H451V815Z" fill="#333F58"/>
</g>
<g filter="url(#filter1_i)">
<path d="M305 815H237V719H305V815Z" fill="#12173D"/>
</g>
<g filter="url(#filter2_i)">
<path d="M112 240C87.2002 290.4 122.5 483.333 136 544.5H496C509.667 487.5 538.4 314.9 532 254.5C524 179 385 256.5 297.5 254.5C210 252.5 143 177 112 240Z" fill="#2F5753"/>
</g>
<path d="M139.041 646L126.246 658.793C108.585 676.455 108.585 705.091 126.246 722.753C143.908 740.416 172.544 740.416 190.206 722.753L203 709.959L139.041 646Z" fill="#DEA487"/>
<path d="M413.474 761H224.526C177.292 761 139 722.604 139 675.24V293.76C139 246.396 177.292 208 224.526 208H413.474C460.709 208 499 246.396 499 293.76V675.24C499 722.604 460.709 761 413.474 761Z" fill="#DEA487"/>
<g filter="url(#filter3_d)">
<path d="M522.232 472.21C522.232 484.925 511.924 495.233 499.209 495.233C486.494 495.233 476.186 484.925 476.186 472.21C476.186 459.495 486.494 449.187 499.209 449.187C511.924 449.187 522.232 459.495 522.232 472.21Z" fill="#D96969"/>
</g>
<g filter="url(#filter4_di)">
<path d="M227.041 448H215.958C207.144 448 200 440.737 200 431.776V392.224C200 383.263 207.144 376 215.958 376H227.041C235.854 376 243 383.263 243 392.224V431.776C243 440.737 235.854 448 227.041 448Z" fill="#103245"/>
</g>
<g filter="url(#filter5_di)">
<path d="M353.041 448H341.958C333.144 448 326 440.737 326 431.776V392.224C326 383.263 333.144 376 341.958 376H353.041C361.854 376 369 383.263 369 392.224V431.776C369 440.737 361.854 448 353.041 448Z" fill="#103245"/>
</g>
<g filter="url(#filter6_i)">
<path d="M432.5 54.0003C327.676 76.1073 185 126 164.5 202C144 278 538.279 460.513 518 382C497.721 303.488 488.352 292.732 569 176.001C649.648 59.2697 537.324 31.8933 432.5 54.0003Z" fill="#22A1FF"/>
</g>
<mask id="mask0" mask-type="alpha" maskUnits="userSpaceOnUse" x="73" y="146" width="487" height="474">
<path d="M94.6954 246.07C77.9676 269.261 64.3422 325.093 79.6954 396.07C81.2056 403.052 82.9526 410.622 84.8794 418.62C101.906 481.906 132.779 592.765 138.695 619.571V538.07C137.46 527.495 142.944 530.209 139.974 507.177C139.374 504.018 138.834 500.813 138.391 497.641C136.57 484.59 132.96 479.559 140.548 477.898C145.497 476.696 152.073 478.052 159.695 482.064L159.746 482.09C175.062 490.151 214.24 510.771 261.466 520.1C272.974 522.373 284.96 523.976 297.195 524.564C304.308 524.905 310.971 524.23 317.288 522.785C337.961 517.968 354.95 504.918 371.984 492.298C379.212 486.943 386.448 481.666 393.978 477.127C402.641 471.906 411.692 467.662 421.565 465.406C430.916 463.226 441.002 462.825 452.195 465.064C453.747 465.374 454.699 465.773 456.064 466.254L456.068 466.256C463.337 468.76 460.822 470.659 463.695 477.127C468.184 487.232 464.195 501.57 450.195 528.07C450.195 528.07 439.695 544.634 405.618 570.192C403.593 570.667 401.517 570.989 399.391 571.141C398.967 571.171 398.648 571.203 398.428 571.238C395.171 572.544 508.29 576.356 514.436 576.562C518.659 569.107 522.914 558.049 527.032 544.471C549.231 471.284 567.465 324.901 555.391 275.14C542.507 222.044 458.899 174.435 381.213 155.164C359.407 149.755 338.068 146.579 318.891 146.14C302.253 145.76 285.416 146.935 268.754 149.506C261.331 150.651 253.942 152.074 246.621 153.76C184.084 168.23 126.549 201.909 94.6954 246.07Z" fill="#C4C4C4"/>
</mask>
<g mask="url(#mask0)">
<g filter="url(#filter7_ddii)">
<path d="M319.195 146.07C231.695 144.07 138.695 185.07 94.6954 246.07C77.9676 269.261 64.3422 325.093 79.6954 396.07C94.5023 464.522 132.068 589.541 138.695 619.571V557.747V540.57C138.695 540.57 131.195 476.07 128.195 454.57C125.195 433.07 137.695 426.57 156.695 436.57L156.746 436.596C175.794 446.622 231.75 476.073 294.195 479.07C356.695 482.07 384.414 406.614 449.195 419.57C471.695 424.07 474.195 447.07 470.695 474.07C470.695 474.07 448.695 567.57 399.695 571.07C383.816 572.205 514.695 576.57 514.695 576.57C541.695 529.07 570.018 334.095 555.695 275.07C539.195 207.07 406.695 148.07 319.195 146.07Z" fill="#22A1FF"/>
</g>
<mask id="mask1" mask-type="alpha" maskUnits="userSpaceOnUse" x="73" y="146" width="487" height="433">
<path d="M319.195 146.07C231.695 144.07 138.695 185.07 94.6954 246.07C77.9676 269.261 64.3422 325.093 79.6954 396.07C94.5023 464.522 132.068 548.041 138.695 578.07V516.247V499.07C138.695 499.07 131.195 476.07 128.195 454.57C125.195 433.07 137.695 426.57 156.695 436.57L156.746 436.596C175.794 446.622 231.75 476.073 294.195 479.07C356.695 482.07 384.414 406.614 449.195 419.57C471.695 424.07 474.195 447.07 470.695 474.07C470.695 474.07 448.695 567.57 399.695 571.07C383.816 572.205 514.695 576.57 514.695 576.57C541.695 529.07 570.018 334.095 555.695 275.07C539.195 207.07 406.695 148.07 319.195 146.07Z" fill="#3B7D4F"/>
</mask>
<g mask="url(#mask1)">
<g filter="url(#filter8_ddii)">
<path d="M263.06 486.705C263.06 486.705 152.447 190.564 277.833 145.705C322.692 129.655 402.916 101.534 385.06 145.705C347.06 239.704 350.06 436.705 385.06 486.705C412.382 525.736 263.06 486.705 263.06 486.705Z" fill="#62418E"/>
</g>
<path d="M447.5 515.5C467.5 511.5 498.594 515.658 514.32 531.384L527.5 544.563" stroke="#226AB6" stroke-width="13"/>
</g>
<circle cx="142.5" cy="310.5" r="60.5" fill="#417FB8"/>
<ellipse cx="142.5" cy="310.5" rx="44.5" ry="44.5" transform="rotate(180 142.5 310.5)" fill="#5A8FBF"/>
<path d="M124 293C126.014 296.042 141.85 311 141.85 311C141.85 311 150.71 320.115 161 326.756" stroke="#00303B" stroke-width="15.125"/>
<circle cx="461.5" cy="332.5" r="60.5" transform="rotate(180 461.5 332.5)" fill="#417FB8"/>
<ellipse cx="461.5" cy="332.5" rx="44.5" ry="44.5" transform="rotate(180 461.5 332.5)" fill="#5A8FBF"/>
<path d="M464.5 332.5L444 353L485 312" stroke="#00303B" stroke-width="15.125"/>
</g>
<mask id="mask2" mask-type="alpha" maskUnits="userSpaceOnUse" x="138" y="540" width="361" height="221">
<path fill-rule="evenodd" clip-rule="evenodd" d="M139 540.5V674.5C139 723.743 176.766 761 224 761H414C461.234 761 499 723.243 499 674V596.5L441 543.589C334.16 592.961 259.108 603.317 139 540.5Z" fill="#47A851"/>
</mask>
<g mask="url(#mask2)">
<path fill-rule="evenodd" clip-rule="evenodd" d="M139 540.5V674.5C139 723.743 176.766 761 224 761H414C461.234 761 499 723.243 499 674V596.5L441 543.589C334.16 592.961 259.108 603.317 139 540.5Z" fill="#22A1FF"/>
<path d="M414.246 550C406.893 572.034 412.044 599.98 429.569 617.523L475 663" stroke="#226AB6" stroke-width="13"/>
<path d="M135.827 602.603C153.103 618.131 162.426 644.974 155.851 668.884L138.808 730.865" stroke="#226AB6" stroke-width="13"/>
</g>
<path d="M139 644C139 647.393 138.5 680.5 139.529 684.5C144.249 728.7 180.02 761 224 761H414C461.234 761 499 723.243 499 674V636C349.5 671.5 270.971 661 139 644Z" fill="#62418E"/>
<path d="M139 666C139 669.393 138.5 680.5 139.529 684.5C144.249 728.7 180.02 761 224 761H414C461.234 761 499 723.243 499 674V658C349.5 693.5 270.971 683 139 666Z" fill="#333F58"/>
<g filter="url(#filter9_di)">
<path d="M357.314 604.584C343.146 596.98 257.97 594.704 247.065 604.584C236.16 614.465 220.262 654.26 237.878 679.093C249.755 695.836 347.903 688.232 372.626 679.093C397.578 669.869 371.481 612.189 357.314 604.584Z" fill="#EEF7FF"/>
<path d="M357.314 604.584C343.146 596.98 257.97 594.704 247.065 604.584C236.16 614.465 220.262 654.26 237.878 679.093C249.755 695.836 347.903 688.232 372.626 679.093C397.578 669.869 371.481 612.189 357.314 604.584Z" stroke="#5E7898" stroke-width="11.4065"/>
</g>
<g filter="url(#filter10_d)">
<path d="M569.792 670.937C552.18 688.567 523.627 688.567 506.015 670.937L441.209 606.063C423.598 588.434 423.598 559.851 441.209 542.222C458.82 524.592 487.373 524.592 504.984 542.222L569.792 607.096C587.403 624.725 587.403 653.308 569.792 670.937Z" fill="#1B549A"/>
</g>
<g filter="url(#filter11_d)">
<path d="M569.792 606.759C587.403 624.388 587.403 652.971 569.792 670.6L519.665 720.778C502.054 738.407 473.501 738.407 455.89 720.778C438.279 703.149 438.279 674.566 455.89 656.937L506.015 606.759C523.627 589.13 552.18 589.13 569.792 606.759Z" fill="#22A1FF"/>
</g>
<g filter="url(#filter12_i)">
<path d="M468.647 644.166L455.891 656.936C438.28 674.565 438.28 703.148 455.891 720.777C473.502 738.406 502.055 738.406 519.666 720.777L532.424 708.006L468.647 644.166Z" fill="#D69371"/>
</g>
<path d="M353.126 517.424C350.445 509.528 252.419 544.691 256.607 554.368C263.778 570.935 297.778 579.485 320.278 570.435C342.778 561.384 361.278 541.434 353.126 517.424Z" fill="#413E3C"/>
<mask id="mask3" mask-type="alpha" maskUnits="userSpaceOnUse" x="256" y="514" width="100" height="62">
<path d="M353.126 517.424C350.445 509.528 252.419 544.691 256.607 554.368C263.778 570.935 297.778 579.485 320.278 570.435C342.778 561.384 361.278 541.434 353.126 517.424Z" fill="#413E3C"/>
</mask>
<g mask="url(#mask3)">
<path d="M337.778 517.935C337.778 512.435 261.602 541.935 265.278 545.434C276.029 555.669 289.731 558.826 312.22 549.781C334.118 540.973 337.778 533.421 337.778 517.935Z" fill="#FFF8F3"/>
</g>
<g filter="url(#filter13_i)">
<path d="M201.555 504C199.055 504 186.055 485.5 187.055 465L220.555 475.5C221.555 487.5 204.055 504 201.555 504Z" fill="#EDE6E8"/>
</g>
<g filter="url(#filter14_i)">
<path d="M402.041 478C404.541 478 417.541 459.5 416.541 439L383.041 449.5C382.041 461.5 399.541 478 402.041 478Z" fill="#EDE6E8"/>
</g>
<g filter="url(#filter15_i)">
<path d="M264.111 526.81C257.318 526.478 237.847 498.678 238.395 484.347C238.943 470.015 281.447 469.762 284.307 486.833C287.167 503.904 270.903 527.142 264.111 526.81Z" fill="#EDE6E8"/>
</g>
<g filter="url(#filter16_i)">
<path d="M349.207 512.519C355.924 511.461 372.303 481.733 370.221 467.544C368.139 453.354 325.854 457.659 324.841 474.939C323.828 492.218 342.489 513.578 349.207 512.519Z" fill="#EDE6E8"/>
</g>
<g filter="url(#filter17_i)">
<path d="M237.5 283.5C336.5 268.101 470 415 471 440C471.243 446.08 447 436.813 430.5 438C375.13 441.982 351.578 491.372 301.5 495.5C238.181 500.718 170.02 461.63 131 437C130 427.499 149.5 297.189 237.5 283.5Z" fill="#C6F2FF"/>
</g>
<g filter="url(#filter18_d)">
<path d="M225.789 361.797C221.883 373.598 214.552 374.667 203.969 369.397C193.387 364.127 192.017 349.944 195.235 341.441C198.453 332.938 204.179 330.603 212.648 333.808C221.116 337.013 229.694 349.997 225.789 361.797Z" fill="#5DC7FE"/>
</g>
<g filter="url(#filter19_d)">
<path d="M302.789 355.797C298.883 367.598 291.552 368.667 280.969 363.397C270.387 358.127 269.017 343.944 272.235 335.441C275.453 326.938 281.179 324.603 289.648 327.808C298.116 331.013 306.694 343.997 302.789 355.797Z" fill="#5DC7FE"/>
</g>
<defs>
<filter id="filter0_i" x="383" y="719" width="68" height="105" filterUnits="userSpaceOnUse" color-interpolation-filters="sRGB">
<feFlood flood-opacity="0" result="BackgroundImageFix"/>
<feBlend mode="normal" in="SourceGraphic" in2="BackgroundImageFix" result="shape"/>
<feColorMatrix in="SourceAlpha" type="matrix" values="0 0 0 0 0 0 0 0 0 0 0 0 0 0 0 0 0 0 127 0" result="hardAlpha"/>
<feOffset dy="44"/>
<feGaussianBlur stdDeviation="4.5"/>
<feComposite in2="hardAlpha" operator="arithmetic" k2="-1" k3="1"/>
<feColorMatrix type="matrix" values="0 0 0 0 0 0 0 0 0 0 0 0 0 0 0 0 0 0 0.07 0"/>
<feBlend mode="normal" in2="shape" result="effect1_innerShadow"/>
</filter>
<filter id="filter1_i" x="237" y="719" width="68" height="105" filterUnits="userSpaceOnUse" color-interpolation-filters="sRGB">
<feFlood flood-opacity="0" result="BackgroundImageFix"/>
<feBlend mode="normal" in="SourceGraphic" in2="BackgroundImageFix" result="shape"/>
<feColorMatrix in="SourceAlpha" type="matrix" values="0 0 0 0 0 0 0 0 0 0 0 0 0 0 0 0 0 0 127 0" result="hardAlpha"/>
<feOffset dy="44"/>
<feGaussianBlur stdDeviation="4.5"/>
<feComposite in2="hardAlpha" operator="arithmetic" k2="-1" k3="1"/>
<feColorMatrix type="matrix" values="0 0 0 0 0 0 0 0 0 0 0 0 0 0 0 0 0 0 0.07 0"/>
<feBlend mode="normal" in2="shape" result="effect1_innerShadow"/>
</filter>
<filter id="filter2_i" x="103.389" y="214.961" width="429.528" height="333.539" filterUnits="userSpaceOnUse" color-interpolation-filters="sRGB">
<feFlood flood-opacity="0" result="BackgroundImageFix"/>
<feBlend mode="normal" in="SourceGraphic" in2="BackgroundImageFix" result="shape"/>
<feColorMatrix in="SourceAlpha" type="matrix" values="0 0 0 0 0 0 0 0 0 0 0 0 0 0 0 0 0 0 127 0" result="hardAlpha"/>
<feOffset dy="4"/>
<feGaussianBlur stdDeviation="11.5"/>
<feComposite in2="hardAlpha" operator="arithmetic" k2="-1" k3="1"/>
<feColorMatrix type="matrix" values="0 0 0 0 0 0 0 0 0 0 0 0 0 0 0 0 0 0 0.1 0"/>
<feBlend mode="normal" in2="shape" result="effect1_innerShadow"/>
</filter>
<filter id="filter3_d" x="453.273" y="426.274" width="91.8719" height="91.8719" filterUnits="userSpaceOnUse" color-interpolation-filters="sRGB">
<feFlood flood-opacity="0" result="BackgroundImageFix"/>
<feColorMatrix in="SourceAlpha" type="matrix" values="0 0 0 0 0 0 0 0 0 0 0 0 0 0 0 0 0 0 127 0" result="hardAlpha"/>
<feOffset/>
<feGaussianBlur stdDeviation="11.4564"/>
<feColorMatrix type="matrix" values="0 0 0 0 0.85098 0 0 0 0 0.411765 0 0 0 0 0.411765 0 0 0 0.5 0"/>
<feBlend mode="normal" in2="BackgroundImageFix" result="effect1_dropShadow"/>
<feBlend mode="normal" in="SourceGraphic" in2="effect1_dropShadow" result="shape"/>
</filter>
<filter id="filter4_di" x="182.353" y="361.294" width="78.2941" height="107.294" filterUnits="userSpaceOnUse" color-interpolation-filters="sRGB">
<feFlood flood-opacity="0" result="BackgroundImageFix"/>
<feColorMatrix in="SourceAlpha" type="matrix" values="0 0 0 0 0 0 0 0 0 0 0 0 0 0 0 0 0 0 127 0" result="hardAlpha"/>
<feOffset dy="2.94118"/>
<feGaussianBlur stdDeviation="8.82353"/>
<feColorMatrix type="matrix" values="0 0 0 0 0 0 0 0 0 0 0 0 0 0 0 0 0 0 0.15 0"/>
<feBlend mode="normal" in2="BackgroundImageFix" result="effect1_dropShadow"/>
<feBlend mode="normal" in="SourceGraphic" in2="effect1_dropShadow" result="shape"/>
<feColorMatrix in="SourceAlpha" type="matrix" values="0 0 0 0 0 0 0 0 0 0 0 0 0 0 0 0 0 0 127 0" result="hardAlpha"/>
<feOffset dy="5.88235"/>
<feGaussianBlur stdDeviation="5.88235"/>
<feComposite in2="hardAlpha" operator="arithmetic" k2="-1" k3="1"/>
<feColorMatrix type="matrix" values="0 0 0 0 1 0 0 0 0 1 0 0 0 0 1 0 0 0 0.25 0"/>
<feBlend mode="normal" in2="shape" result="effect2_innerShadow"/>
</filter>
<filter id="filter5_di" x="308.353" y="361.294" width="78.2941" height="107.294" filterUnits="userSpaceOnUse" color-interpolation-filters="sRGB">
<feFlood flood-opacity="0" result="BackgroundImageFix"/>
<feColorMatrix in="SourceAlpha" type="matrix" values="0 0 0 0 0 0 0 0 0 0 0 0 0 0 0 0 0 0 127 0" result="hardAlpha"/>
<feOffset dy="2.94118"/>
<feGaussianBlur stdDeviation="8.82353"/>
<feColorMatrix type="matrix" values="0 0 0 0 0 0 0 0 0 0 0 0 0 0 0 0 0 0 0.15 0"/>
<feBlend mode="normal" in2="BackgroundImageFix" result="effect1_dropShadow"/>
<feBlend mode="normal" in="SourceGraphic" in2="effect1_dropShadow" result="shape"/>
<feColorMatrix in="SourceAlpha" type="matrix" values="0 0 0 0 0 0 0 0 0 0 0 0 0 0 0 0 0 0 127 0" result="hardAlpha"/>
<feOffset dy="5.88235"/>
<feGaussianBlur stdDeviation="5.88235"/>
<feComposite in2="hardAlpha" operator="arithmetic" k2="-1" k3="1"/>
<feColorMatrix type="matrix" values="0 0 0 0 1 0 0 0 0 1 0 0 0 0 1 0 0 0 0.25 0"/>
<feBlend mode="normal" in2="shape" result="effect2_innerShadow"/>
</filter>
<filter id="filter6_i" x="153.727" y="46.9863" width="442.766" height="365.231" filterUnits="userSpaceOnUse" color-interpolation-filters="sRGB">
<feFlood flood-opacity="0" result="BackgroundImageFix"/>
<feBlend mode="normal" in="SourceGraphic" in2="BackgroundImageFix" result="shape"/>
<feColorMatrix in="SourceAlpha" type="matrix" values="0 0 0 0 0 0 0 0 0 0 0 0 0 0 0 0 0 0 127 0" result="hardAlpha"/>
<feOffset dx="-10" dy="11"/>
<feGaussianBlur stdDeviation="7.5"/>
<feComposite in2="hardAlpha" operator="arithmetic" k2="-1" k3="1"/>
<feColorMatrix type="matrix" values="0 0 0 0 0 0 0 0 0 0 0 0 0 0 0 0 0 0 0.05 0"/>
<feBlend mode="normal" in2="shape" result="effect1_innerShadow"/>
</filter>
<filter id="filter7_ddii" x="64" y="143" width="521.544" height="504.571" filterUnits="userSpaceOnUse" color-interpolation-filters="sRGB">
<feFlood flood-opacity="0" result="BackgroundImageFix"/>
<feColorMatrix in="SourceAlpha" type="matrix" values="0 0 0 0 0 0 0 0 0 0 0 0 0 0 0 0 0 0 127 0" result="hardAlpha"/>
<feOffset dy="6"/>
<feGaussianBlur stdDeviation="4.5"/>
<feColorMatrix type="matrix" values="0 0 0 0 0 0 0 0 0 0 0 0 0 0 0 0 0 0 0.1 0"/>
<feBlend mode="normal" in2="BackgroundImageFix" result="effect1_dropShadow"/>
<feColorMatrix in="SourceAlpha" type="matrix" values="0 0 0 0 0 0 0 0 0 0 0 0 0 0 0 0 0 0 127 0" result="hardAlpha"/>
<feOffset dy="28"/>
<feComposite in2="hardAlpha" operator="out"/>
<feColorMatrix type="matrix" values="0 0 0 0 0 0 0 0 0 0 0 0 0 0 0 0 0 0 0.2 0"/>
<feBlend mode="normal" in2="effect1_dropShadow" result="effect2_dropShadow"/>
<feBlend mode="normal" in="SourceGraphic" in2="effect2_dropShadow" result="shape"/>
<feColorMatrix in="SourceAlpha" type="matrix" values="0 0 0 0 0 0 0 0 0 0 0 0 0 0 0 0 0 0 127 0" result="hardAlpha"/>
<feOffset dy="10"/>
<feGaussianBlur stdDeviation="18.5"/>
<feComposite in2="hardAlpha" operator="arithmetic" k2="-1" k3="1"/>
<feColorMatrix type="matrix" values="0 0 0 0 0.152083 0 0 0 0 0.5 0 0 0 0 0.187951 0 0 0 0.2 0"/>
<feBlend mode="normal" in2="shape" result="effect3_innerShadow"/>
<feColorMatrix in="SourceAlpha" type="matrix" values="0 0 0 0 0 0 0 0 0 0 0 0 0 0 0 0 0 0 127 0" result="hardAlpha"/>
<feOffset dx="26"/>
<feGaussianBlur stdDeviation="28"/>
<feComposite in2="hardAlpha" operator="arithmetic" k2="-1" k3="1"/>
<feColorMatrix type="matrix" values="0 0 0 0 0.232031 0 0 0 0 0.5625 0 0 0 0 0.262693 0 0 0 0.05 0"/>
<feBlend mode="normal" in2="effect3_innerShadow" result="effect4_innerShadow"/>
</filter>
<filter id="filter8_ddii" x="210" y="122" width="186.399" height="382.052" filterUnits="userSpaceOnUse" color-interpolation-filters="sRGB">
<feFlood flood-opacity="0" result="BackgroundImageFix"/>
<feColorMatrix in="SourceAlpha" type="matrix" values="0 0 0 0 0 0 0 0 0 0 0 0 0 0 0 0 0 0 127 0" result="hardAlpha"/>
<feOffset dx="8"/>
<feComposite in2="hardAlpha" operator="out"/>
<feColorMatrix type="matrix" values="0 0 0 0 0.375972 0 0 0 0 0.215278 0 0 0 0 0.833333 0 0 0 1 0"/>
<feBlend mode="normal" in2="BackgroundImageFix" result="effect1_dropShadow"/>
<feColorMatrix in="SourceAlpha" type="matrix" values="0 0 0 0 0 0 0 0 0 0 0 0 0 0 0 0 0 0 127 0" result="hardAlpha"/>
<feOffset dx="-8"/>
<feComposite in2="hardAlpha" operator="out"/>
<feColorMatrix type="matrix" values="0 0 0 0 0.376471 0 0 0 0 0.215686 0 0 0 0 0.831373 0 0 0 1 0"/>
<feBlend mode="normal" in2="effect1_dropShadow" result="effect2_dropShadow"/>
<feBlend mode="normal" in="SourceGraphic" in2="effect2_dropShadow" result="shape"/>
<feColorMatrix in="SourceAlpha" type="matrix" values="0 0 0 0 0 0 0 0 0 0 0 0 0 0 0 0 0 0 127 0" result="hardAlpha"/>
<feOffset dx="16"/>
<feComposite in2="hardAlpha" operator="arithmetic" k2="-1" k3="1"/>
<feColorMatrix type="matrix" values="0 0 0 0 0.478431 0 0 0 0 0.32549 0 0 0 0 0.913725 0 0 0 1 0"/>
<feBlend mode="normal" in2="shape" result="effect3_innerShadow"/>
<feColorMatrix in="SourceAlpha" type="matrix" values="0 0 0 0 0 0 0 0 0 0 0 0 0 0 0 0 0 0 127 0" result="hardAlpha"/>
<feOffset dx="-16"/>
<feComposite in2="hardAlpha" operator="arithmetic" k2="-1" k3="1"/>
<feColorMatrix type="matrix" values="0 0 0 0 0.478431 0 0 0 0 0.32549 0 0 0 0 0.913725 0 0 0 1 0"/>
<feBlend mode="normal" in2="effect3_innerShadow" result="effect4_innerShadow"/>
</filter>
<filter id="filter9_di" x="217.455" y="592.297" width="178.092" height="118.25" filterUnits="userSpaceOnUse" color-interpolation-filters="sRGB">
<feFlood flood-opacity="0" result="BackgroundImageFix"/>
<feColorMatrix in="SourceAlpha" type="matrix" values="0 0 0 0 0 0 0 0 0 0 0 0 0 0 0 0 0 0 127 0" result="hardAlpha"/>
<feOffset dy="9"/>
<feGaussianBlur stdDeviation="3.42194"/>
<feComposite in2="hardAlpha" operator="out"/>
<feColorMatrix type="matrix" values="0 0 0 0 0 0 0 0 0 0 0 0 0 0 0 0 0 0 0.15 0"/>
<feBlend mode="normal" in2="BackgroundImageFix" result="effect1_dropShadow"/>
<feBlend mode="normal" in="SourceGraphic" in2="effect1_dropShadow" result="shape"/>
<feColorMatrix in="SourceAlpha" type="matrix" values="0 0 0 0 0 0 0 0 0 0 0 0 0 0 0 0 0 0 127 0" result="hardAlpha"/>
<feOffset dy="12"/>
<feGaussianBlur stdDeviation="15"/>
<feComposite in2="hardAlpha" operator="arithmetic" k2="-1" k3="1"/>
<feColorMatrix type="matrix" values="0 0 0 0 1 0 0 0 0 1 0 0 0 0 1 0 0 0 0.15 0"/>
<feBlend mode="normal" in2="shape" result="effect2_innerShadow"/>
</filter>
<filter id="filter10_d" x="395.13" y="496.13" width="214.16" height="214.32" filterUnits="userSpaceOnUse" color-interpolation-filters="sRGB">
<feFlood flood-opacity="0" result="BackgroundImageFix"/>
<feColorMatrix in="SourceAlpha" type="matrix" values="0 0 0 0 0 0 0 0 0 0 0 0 0 0 0 0 0 0 127 0" result="hardAlpha"/>
<feOffset dx="-3.29" dy="-3.29"/>
<feGaussianBlur stdDeviation="14.79"/>
<feColorMatrix type="matrix" values="0 0 0 0 0 0 0 0 0 0 0 0 0 0 0 0 0 0 0.13 0"/>
<feBlend mode="normal" in2="BackgroundImageFix" result="effect1_dropShadow"/>
<feBlend mode="normal" in="SourceGraphic" in2="effect1_dropShadow" result="shape"/>
</filter>
<filter id="filter11_d" x="426.252" y="573.817" width="173.179" height="173.323" filterUnits="userSpaceOnUse" color-interpolation-filters="sRGB">
<feFlood flood-opacity="0" result="BackgroundImageFix"/>
<feColorMatrix in="SourceAlpha" type="matrix" values="0 0 0 0 0 0 0 0 0 0 0 0 0 0 0 0 0 0 127 0" result="hardAlpha"/>
<feOffset dy="-3.29"/>
<feGaussianBlur stdDeviation="8.215"/>
<feColorMatrix type="matrix" values="0 0 0 0 0 0 0 0 0 0 0 0 0 0 0 0 0 0 0.07 0"/>
<feBlend mode="normal" in2="BackgroundImageFix" result="effect1_dropShadow"/>
<feBlend mode="normal" in="SourceGraphic" in2="effect1_dropShadow" result="shape"/>
</filter>
<filter id="filter12_i" x="439.742" y="644.166" width="92.6811" height="95.7128" filterUnits="userSpaceOnUse" color-interpolation-filters="sRGB">
<feFlood flood-opacity="0" result="BackgroundImageFix"/>
<feBlend mode="normal" in="SourceGraphic" in2="BackgroundImageFix" result="shape"/>
<feColorMatrix in="SourceAlpha" type="matrix" values="0 0 0 0 0 0 0 0 0 0 0 0 0 0 0 0 0 0 127 0" result="hardAlpha"/>
<feOffset dx="-2.94" dy="5.88"/>
<feGaussianBlur stdDeviation="7.355"/>
<feComposite in2="hardAlpha" operator="arithmetic" k2="-1" k3="1"/>
<feColorMatrix type="matrix" values="0 0 0 0 0 0 0 0 0 0 0 0 0 0 0 0 0 0 0.05 0"/>
<feBlend mode="normal" in2="shape" result="effect1_innerShadow"/>
</filter>
<filter id="filter13_i" x="187" y="465" width="33.596" height="39" filterUnits="userSpaceOnUse" color-interpolation-filters="sRGB">
<feFlood flood-opacity="0" result="BackgroundImageFix"/>
<feBlend mode="normal" in="SourceGraphic" in2="BackgroundImageFix" result="shape"/>
<feColorMatrix in="SourceAlpha" type="matrix" values="0 0 0 0 0 0 0 0 0 0 0 0 0 0 0 0 0 0 127 0" result="hardAlpha"/>
<feOffset dy="12"/>
<feComposite in2="hardAlpha" operator="arithmetic" k2="-1" k3="1"/>
<feColorMatrix type="matrix" values="0 0 0 0 1 0 0 0 0 1 0 0 0 0 1 0 0 0 1 0"/>
<feBlend mode="normal" in2="shape" result="effect1_innerShadow"/>
</filter>
<filter id="filter14_i" x="383" y="439" width="33.596" height="39" filterUnits="userSpaceOnUse" color-interpolation-filters="sRGB">
<feFlood flood-opacity="0" result="BackgroundImageFix"/>
<feBlend mode="normal" in="SourceGraphic" in2="BackgroundImageFix" result="shape"/>
<feColorMatrix in="SourceAlpha" type="matrix" values="0 0 0 0 0 0 0 0 0 0 0 0 0 0 0 0 0 0 127 0" result="hardAlpha"/>
<feOffset dy="12"/>
<feComposite in2="hardAlpha" operator="arithmetic" k2="-1" k3="1"/>
<feColorMatrix type="matrix" values="0 0 0 0 1 0 0 0 0 1 0 0 0 0 1 0 0 0 1 0"/>
<feBlend mode="normal" in2="shape" result="effect1_innerShadow"/>
</filter>
<filter id="filter15_i" x="238.384" y="473.799" width="46.2569" height="53.0143" filterUnits="userSpaceOnUse" color-interpolation-filters="sRGB">
<feFlood flood-opacity="0" result="BackgroundImageFix"/>
<feBlend mode="normal" in="SourceGraphic" in2="BackgroundImageFix" result="shape"/>
<feColorMatrix in="SourceAlpha" type="matrix" values="0 0 0 0 0 0 0 0 0 0 0 0 0 0 0 0 0 0 127 0" result="hardAlpha"/>
<feOffset dy="28"/>
<feComposite in2="hardAlpha" operator="arithmetic" k2="-1" k3="1"/>
<feColorMatrix type="matrix" values="0 0 0 0 1 0 0 0 0 1 0 0 0 0 1 0 0 0 1 0"/>
<feBlend mode="normal" in2="shape" result="effect1_innerShadow"/>
</filter>
<filter id="filter16_i" x="324.801" y="459.036" width="45.6015" height="53.5206" filterUnits="userSpaceOnUse" color-interpolation-filters="sRGB">
<feFlood flood-opacity="0" result="BackgroundImageFix"/>
<feBlend mode="normal" in="SourceGraphic" in2="BackgroundImageFix" result="shape"/>
<feColorMatrix in="SourceAlpha" type="matrix" values="0 0 0 0 0 0 0 0 0 0 0 0 0 0 0 0 0 0 127 0" result="hardAlpha"/>
<feOffset dy="28"/>
<feComposite in2="hardAlpha" operator="arithmetic" k2="-1" k3="1"/>
<feColorMatrix type="matrix" values="0 0 0 0 1 0 0 0 0 1 0 0 0 0 1 0 0 0 1 0"/>
<feBlend mode="normal" in2="shape" result="effect1_innerShadow"/>
</filter>
<filter id="filter17_i" x="130.964" y="282.372" width="340.038" height="213.601" filterUnits="userSpaceOnUse" color-interpolation-filters="sRGB">
<feFlood flood-opacity="0" result="BackgroundImageFix"/>
<feBlend mode="normal" in="SourceGraphic" in2="BackgroundImageFix" result="shape"/>
<feColorMatrix in="SourceAlpha" type="matrix" values="0 0 0 0 0 0 0 0 0 0 0 0 0 0 0 0 0 0 127 0" result="hardAlpha"/>
<feOffset dy="-17"/>
<feComposite in2="hardAlpha" operator="arithmetic" k2="-1" k3="1"/>
<feColorMatrix type="matrix" values="0 0 0 0 0 0 0 0 0 0 0 0 0 0 0 0 0 0 0.1 0"/>
<feBlend mode="normal" in2="shape" result="effect1_innerShadow"/>
</filter>
<filter id="filter18_d" x="193.702" y="332.432" width="33.0575" height="43.4973" filterUnits="userSpaceOnUse" color-interpolation-filters="sRGB">
<feFlood flood-opacity="0" result="BackgroundImageFix"/>
<feColorMatrix in="SourceAlpha" type="matrix" values="0 0 0 0 0 0 0 0 0 0 0 0 0 0 0 0 0 0 127 0" result="hardAlpha"/>
<feOffset dy="3.50837"/>
<feComposite in2="hardAlpha" operator="out"/>
<feColorMatrix type="matrix" values="0 0 0 0 0 0 0 0 0 0 0 0 0 0 0 0 0 0 0.15 0"/>
<feBlend mode="normal" in2="BackgroundImageFix" result="effect1_dropShadow"/>
<feBlend mode="normal" in="SourceGraphic" in2="effect1_dropShadow" result="shape"/>
</filter>
<filter id="filter19_d" x="270.702" y="326.432" width="33.0575" height="43.4973" filterUnits="userSpaceOnUse" color-interpolation-filters="sRGB">
<feFlood flood-opacity="0" result="BackgroundImageFix"/>
<feColorMatrix in="SourceAlpha" type="matrix" values="0 0 0 0 0 0 0 0 0 0 0 0 0 0 0 0 0 0 127 0" result="hardAlpha"/>
<feOffset dy="3.50837"/>
<feComposite in2="hardAlpha" operator="out"/>
<feColorMatrix type="matrix" values="0 0 0 0 0 0 0 0 0 0 0 0 0 0 0 0 0 0 0.15 0"/>
<feBlend mode="normal" in2="BackgroundImageFix" result="effect1_dropShadow"/>
<feBlend mode="normal" in="SourceGraphic" in2="effect1_dropShadow" result="shape"/>
</filter>
</defs>
</svg>
