<svg width="700" height="815" viewBox="0 0 700 815" fill="none" xmlns="http://www.w3.org/2000/svg">
<g clip-path="url(#clip0)">
<path d="M413.813 756.234H222.079C171.269 756.234 130.08 715.044 130.08 664.234V254.999C130.08 204.19 171.269 163 222.079 163H413.813C464.624 163 505.812 204.19 505.812 254.999V664.234C505.812 715.044 464.624 756.234 413.813 756.234Z" fill="#FFC29C"/>
<path d="M455.181 815.282H384.565V712.29H455.181V815.282Z" fill="#455A64"/>
<path d="M303.29 815.282H232.673V712.29H303.29V815.282Z" fill="#263238"/>
<path d="M130.08 569.475V664.235C130.08 715.044 170.045 756.234 219.342 756.234H416.548C465.848 756.234 505.812 715.044 505.812 664.235V569.475H130.08Z" fill="#455A64"/>
<path d="M505.812 667.661H130.08V629.21H505.812V667.661Z" fill="#43221D"/>
<path d="M505.812 662.168H130.08V623.717H505.812V662.168Z" fill="#663E33"/>
<path d="M174.366 668.004C173.608 668.019 172.98 667.416 172.965 666.659L172.686 652.929C172.671 652.172 173.273 651.544 174.031 651.529C174.79 651.513 175.416 652.116 175.431 652.874L175.71 666.602C175.727 667.361 175.124 667.987 174.366 668.004Z" fill="#103245"/>
<path d="M184.005 669.181C184.112 674.489 179.897 678.879 174.59 678.987C169.281 679.096 164.891 674.879 164.784 669.571C164.675 664.264 168.891 659.875 174.198 659.766C179.506 659.658 183.896 663.874 184.005 669.181Z" fill="#FD4F4E"/>
<path d="M171.731 673.552C171.746 674.31 171.145 674.937 170.387 674.952C169.628 674.967 169.001 674.366 168.985 673.607C168.97 672.849 169.573 672.221 170.331 672.207C171.089 672.191 171.716 672.792 171.731 673.552Z" fill="#FAEFAC"/>
<path d="M178.457 666.548C178.472 667.306 177.87 667.933 177.112 667.948C176.353 667.963 175.727 667.362 175.71 666.602C175.695 665.844 176.298 665.217 177.056 665.203C177.814 665.187 178.442 665.788 178.457 666.548Z" fill="#FAEFAC"/>
<path d="M206.663 674.866C205.905 674.882 205.277 674.28 205.262 673.521L204.983 659.791C204.968 659.034 205.57 658.406 206.328 658.391C207.087 658.375 207.713 658.978 207.728 659.736L208.007 673.465C208.024 674.223 207.421 674.851 206.663 674.866Z" fill="#103245"/>
<path d="M216.302 676.043C216.41 681.351 212.194 685.741 206.887 685.851C201.578 685.958 197.189 681.742 197.08 676.435C196.972 671.127 201.188 666.737 206.495 666.628C211.804 666.52 216.193 670.736 216.302 676.043Z" fill="#D04B45"/>
<path d="M204.029 680.414C204.044 681.172 203.441 681.799 202.685 681.816C201.925 681.83 201.298 681.228 201.282 680.47C201.267 679.711 201.87 679.083 202.627 679.07C203.386 679.054 204.014 679.656 204.029 680.414Z" fill="#FAEFAC"/>
<path d="M210.754 673.41C210.769 674.168 210.167 674.795 209.409 674.812C208.651 674.826 208.024 674.224 208.007 673.466C207.992 672.707 208.595 672.08 209.353 672.065C210.111 672.05 210.738 672.652 210.754 673.41Z" fill="#FAEFAC"/>
<path d="M239.621 668.004C238.863 668.019 238.235 667.416 238.219 666.659L237.94 652.929C237.925 652.172 238.528 651.544 239.286 651.528C240.044 651.513 240.671 652.116 240.686 652.872L240.965 666.602C240.982 667.361 240.379 667.987 239.621 668.004Z" fill="#103245"/>
<path d="M249.259 669.181C249.367 674.489 245.152 678.879 239.844 678.987C234.535 679.096 230.146 674.879 230.038 669.571C229.929 664.264 234.145 659.875 239.453 659.766C244.762 659.658 249.15 663.874 249.259 669.181Z" fill="#FD4F4E"/>
<path d="M236.986 673.552C237.002 674.31 236.4 674.937 235.642 674.952C234.883 674.967 234.256 674.366 234.24 673.607C234.225 672.849 234.828 672.221 235.586 672.207C236.344 672.191 236.971 672.792 236.986 673.552Z" fill="#FAEFAC"/>
<path d="M243.712 666.548C243.727 667.306 243.125 667.933 242.367 667.948C241.608 667.963 240.982 667.362 240.965 666.602C240.95 665.844 241.553 665.217 242.311 665.203C243.069 665.187 243.697 665.788 243.712 666.548Z" fill="#FAEFAC"/>
<path d="M272.578 674.867C271.82 674.883 271.193 674.28 271.176 673.523L270.897 659.792C270.882 659.035 271.485 658.408 272.243 658.393C273.001 658.376 273.629 658.979 273.644 659.737L273.923 673.465C273.938 674.225 273.336 674.852 272.578 674.867Z" fill="#103245"/>
<path d="M282.216 676.045C282.325 681.352 278.109 685.742 272.801 685.851C267.493 685.959 263.104 681.742 262.995 676.435C262.887 671.127 267.103 666.738 272.41 666.63C277.719 666.521 282.108 670.737 282.216 676.045Z" fill="#D04B45"/>
<path d="M269.944 680.415C269.959 681.173 269.357 681.8 268.599 681.815C267.84 681.831 267.214 681.229 267.197 680.47C267.182 679.712 267.785 679.084 268.543 679.07C269.301 679.054 269.929 679.655 269.944 680.415Z" fill="#FAEFAC"/>
<path d="M276.669 673.411C276.684 674.169 276.083 674.796 275.325 674.811C274.565 674.827 273.938 674.225 273.923 673.466C273.908 672.708 274.51 672.08 275.267 672.066C276.026 672.05 276.654 672.651 276.669 673.411Z" fill="#FAEFAC"/>
<path d="M305.535 668.004C304.777 668.019 304.149 667.416 304.134 666.659L303.856 652.929C303.84 652.172 304.442 651.544 305.2 651.528C305.959 651.513 306.585 652.116 306.601 652.872L306.879 666.602C306.896 667.361 306.293 667.987 305.535 668.004Z" fill="#103245"/>
<path d="M315.174 669.181C315.282 674.489 311.066 678.879 305.759 678.987C300.45 679.096 296.061 674.879 295.953 669.571C295.844 664.264 300.06 659.875 305.367 659.766C310.676 659.658 315.065 663.874 315.174 669.181Z" fill="#FD4F4E"/>
<path d="M302.901 673.552C302.916 674.31 302.313 674.937 301.557 674.952C300.797 674.967 300.17 674.366 300.155 673.607C300.14 672.849 300.741 672.221 301.499 672.207C302.258 672.191 302.886 672.792 302.901 673.552Z" fill="#FAEFAC"/>
<path d="M309.626 666.548C309.641 667.306 309.039 667.933 308.281 667.948C307.523 667.963 306.896 667.362 306.879 666.602C306.864 665.844 307.467 665.217 308.225 665.203C308.983 665.187 309.611 665.788 309.626 666.548Z" fill="#FAEFAC"/>
<path d="M338.492 674.866C337.734 674.882 337.107 674.28 337.092 673.521L336.813 659.791C336.798 659.034 337.399 658.406 338.157 658.391C338.917 658.375 339.543 658.978 339.558 659.736L339.837 673.465C339.853 674.223 339.25 674.851 338.492 674.866Z" fill="#103245"/>
<path d="M348.131 676.043C348.24 681.351 344.024 685.741 338.716 685.851C333.407 685.958 329.019 681.742 328.91 676.435C328.802 671.127 333.017 666.737 338.325 666.63C343.632 666.52 348.023 670.736 348.131 676.043Z" fill="#D04B45"/>
<path d="M335.858 680.414C335.873 681.172 335.271 681.799 334.513 681.816C333.755 681.829 333.128 681.228 333.111 680.47C333.096 679.711 333.699 679.084 334.457 679.069C335.215 679.054 335.843 679.656 335.858 680.414Z" fill="#FAEFAC"/>
<path d="M342.583 673.41C342.598 674.168 341.997 674.795 341.239 674.812C340.479 674.826 339.853 674.224 339.837 673.466C339.822 672.707 340.424 672.08 341.182 672.065C341.94 672.05 342.568 672.652 342.583 673.41Z" fill="#FAEFAC"/>
<path d="M371.45 668.004C370.692 668.019 370.066 667.416 370.05 666.659L369.771 652.929C369.756 652.172 370.359 651.544 371.117 651.528C371.875 651.513 372.502 652.116 372.516 652.872L372.795 666.602C372.811 667.361 372.21 667.987 371.45 668.004Z" fill="#103245"/>
<path d="M381.09 669.181C381.197 674.489 376.983 678.879 371.675 678.987C366.366 679.096 361.976 674.879 361.867 669.571C361.76 664.264 365.976 659.875 371.284 659.766C376.593 659.658 380.981 663.874 381.09 669.181Z" fill="#FD4F4E"/>
<path d="M368.817 673.552C368.832 674.31 368.23 674.937 367.472 674.952C366.713 674.967 366.087 674.366 366.07 673.607C366.055 672.849 366.658 672.221 367.416 672.207C368.174 672.191 368.802 672.792 368.817 673.552Z" fill="#FAEFAC"/>
<path d="M375.542 666.547C375.557 667.305 374.954 667.933 374.198 667.948C373.439 667.963 372.812 667.362 372.795 666.602C372.78 665.844 373.383 665.217 374.14 665.203C374.899 665.186 375.525 665.788 375.542 666.547Z" fill="#FAEFAC"/>
<path d="M404.407 674.867C403.649 674.884 403.021 674.28 403.006 673.523L402.727 659.792C402.712 659.035 403.313 658.408 404.073 658.393C404.831 658.376 405.458 658.979 405.472 659.737L405.751 673.465C405.767 674.225 405.166 674.852 404.407 674.867Z" fill="#103245"/>
<path d="M414.046 676.045C414.153 681.352 409.939 685.742 404.631 685.851C399.322 685.959 394.932 681.742 394.825 676.435C394.716 671.127 398.932 666.738 404.24 666.63C409.547 666.521 413.938 670.737 414.046 676.045Z" fill="#D04B45"/>
<path d="M401.773 680.415C401.788 681.173 401.185 681.801 400.428 681.816C399.67 681.831 399.043 681.229 399.026 680.47C399.011 679.712 399.614 679.084 400.371 679.071C401.13 679.054 401.756 679.656 401.773 680.415Z" fill="#FAEFAC"/>
<path d="M408.498 673.411C408.513 674.169 407.91 674.796 407.154 674.811C406.394 674.827 405.768 674.225 405.752 673.466C405.737 672.708 406.339 672.08 407.096 672.066C407.855 672.05 408.482 672.651 408.498 673.411Z" fill="#FAEFAC"/>
<path d="M437.365 668.004C436.607 668.019 435.98 667.416 435.963 666.659L435.685 652.929C435.671 652.171 436.272 651.544 437.03 651.528C437.79 651.513 438.417 652.116 438.431 652.872L438.71 666.602C438.726 667.361 438.123 667.987 437.365 668.004Z" fill="#103245"/>
<path d="M447.003 669.181C447.112 674.489 442.896 678.879 437.588 678.988C432.28 679.095 427.891 674.879 427.782 669.571C427.675 664.264 431.89 659.874 437.197 659.766C442.506 659.658 446.896 663.874 447.003 669.181Z" fill="#FD4F4E"/>
<path d="M434.731 673.55C434.747 674.31 434.144 674.937 433.387 674.952C432.628 674.967 432.001 674.365 431.985 673.607C431.97 672.849 432.573 672.221 433.329 672.206C434.087 672.191 434.715 672.792 434.731 673.55Z" fill="#FAEFAC"/>
<path d="M441.457 666.548C441.472 667.306 440.869 667.933 440.113 667.948C439.353 667.963 438.727 667.362 438.71 666.602C438.695 665.844 439.298 665.217 440.055 665.203C440.813 665.187 441.44 665.788 441.457 666.548Z" fill="#FAEFAC"/>
<path d="M548.449 446.571C548.449 471.219 529.062 491.201 505.146 491.201C481.231 491.201 461.844 471.219 461.844 446.571C461.844 421.923 481.231 401.941 505.146 401.941C529.062 401.941 548.449 421.923 548.449 446.571Z" fill="#FFC29C"/>
<path d="M529.796 447.258C529.796 460.909 519.059 471.976 505.812 471.976C492.568 471.976 481.829 460.909 481.829 447.258C481.829 433.607 492.568 422.54 505.812 422.54C519.059 422.54 529.796 433.607 529.796 447.258Z" fill="#D96969"/>
<path d="M301.074 478.519C248.671 480.63 165.231 477.723 130.061 471.417V592.912C251.365 627.33 392.043 599.374 505.499 564.289V397.636C472.527 434.594 366.578 475.879 301.074 478.519Z" fill="#004C3D"/>
<path d="M301.074 468.228C248.671 470.339 165.231 467.432 130.061 461.126V582.621C251.365 617.039 392.043 589.083 505.499 553.998V387.345C472.527 424.303 366.578 465.588 301.074 468.228Z" fill="#00A89B"/>
<path fill-rule="evenodd" clip-rule="evenodd" d="M198.434 550.74L202.434 546.74V535.24L204.445 536.102V534.079L214.404 539.829L219.868 538.365L218.404 532.901L208.445 527.151L211.494 524.87L208.445 522.589L218.404 516.839L219.868 511.375L214.404 509.911L204.445 515.661V513.638L202.434 514.5V503L198.434 499L194.434 503V514.5L192.424 513.638V515.661L182.464 509.911L177 511.375L178.464 516.839L188.424 522.589L185.374 524.87L188.424 527.151L178.464 532.901L177 538.365L182.464 539.829L192.424 534.079V536.102L194.434 535.24V546.74L198.434 550.74ZM194.434 525.066L198.5 521L202.566 525.066L198.5 529.132L194.434 525.066Z" fill="#BBFFFA"/>
<path fill-rule="evenodd" clip-rule="evenodd" d="M265.434 563.74L269.434 559.74V548.24L271.445 549.102V547.079L281.404 552.829L286.868 551.365L285.404 545.901L275.445 540.151L278.494 537.87L275.445 535.589L285.404 529.839L286.868 524.375L281.404 522.911L271.445 528.661V526.638L269.434 527.5V516L265.434 512L261.434 516V527.5L259.424 526.638V528.661L249.464 522.911L244 524.375L245.464 529.839L255.424 535.589L252.374 537.87L255.424 540.151L245.464 545.901L244 551.365L249.464 552.829L259.424 547.079V549.102L261.434 548.24V559.74L265.434 563.74ZM261.434 538.066L265.5 534L269.566 538.066L265.5 542.132L261.434 538.066Z" fill="#BBFFFA"/>
<path fill-rule="evenodd" clip-rule="evenodd" d="M337.434 527.74L341.434 523.74V512.24L343.445 513.102V511.079L353.404 516.829L358.868 515.365L357.404 509.901L347.445 504.151L350.494 501.87L347.445 499.589L357.404 493.839L358.868 488.375L353.404 486.911L343.445 492.661V490.638L341.434 491.5V480L337.434 476L333.434 480V491.5L331.424 490.638V492.661L321.464 486.911L316 488.375L317.464 493.839L327.424 499.589L324.374 501.87L327.424 504.151L317.464 509.901L316 515.365L321.464 516.829L331.424 511.079V513.102L333.434 512.24V523.74L337.434 527.74ZM333.434 502.066L337.5 498L341.566 502.066L337.5 506.132L333.434 502.066Z" fill="#BBFFFA"/>
<path fill-rule="evenodd" clip-rule="evenodd" d="M402.434 543.74L406.434 539.74V528.24L408.445 529.102V527.079L418.404 532.829L423.868 531.365L422.404 525.901L412.445 520.151L415.494 517.87L412.445 515.589L422.404 509.839L423.868 504.375L418.404 502.911L408.445 508.661V506.638L406.434 507.5V496L402.434 492L398.434 496V507.5L396.424 506.638V508.661L386.464 502.911L381 504.375L382.464 509.839L392.424 515.589L389.374 517.87L392.424 520.151L382.464 525.901L381 531.365L386.464 532.829L396.424 527.079V529.102L398.434 528.24V539.74L402.434 543.74ZM398.434 518.066L402.5 514L406.566 518.066L402.5 522.132L398.434 518.066Z" fill="#BBFFFA"/>
<path fill-rule="evenodd" clip-rule="evenodd" d="M447.434 499.74L451.434 495.74V484.24L453.445 485.102V483.079L463.404 488.829L468.868 487.365L467.404 481.901L457.445 476.151L460.494 473.87L457.445 471.589L467.404 465.839L468.868 460.375L463.404 458.911L453.445 464.661V462.638L451.434 463.5V452L447.434 448L443.434 452V463.5L441.424 462.638V464.661L431.464 458.911L426 460.375L427.464 465.839L437.424 471.589L434.374 473.87L437.424 476.151L427.464 481.901L426 487.365L431.464 488.829L441.424 483.079V485.102L443.434 484.24V495.74L447.434 499.74ZM443.434 474.066L447.5 470L451.566 474.066L447.5 478.132L443.434 474.066Z" fill="#BBFFFA"/>
<path d="M130.059 272.086V302.273L130 346C151.014 334.315 181.069 320.815 218.272 311.878C257.393 302.48 288.072 302.379 319.811 302.273H337.179C361.992 302.438 386.856 303.664 417.233 310.506C455.227 319.064 485.441 332.672 505.5 343.5L505.494 302.273V272.086H130.059Z" fill="#004C3D"/>
<path d="M130.059 261.109V291.296V335C151.073 323.315 181.069 309.837 218.272 300.901C257.393 291.503 288.072 291.401 319.811 291.296H337.179C361.992 291.46 386.856 292.687 417.233 299.529C455.227 308.087 485.441 321.672 505.5 332.5L505.494 291.296V261.109H130.059Z" fill="#00A89B"/>
<path d="M413.568 163H221.985C171.215 163 130.059 204.158 130.059 254.927V269.341H505.495V254.927C505.495 204.158 464.339 163 413.568 163Z" fill="url(#paint0_linear)"/>
<path d="M583.413 663.125C565.033 682.069 535.232 682.069 516.851 663.125L449.215 593.415C430.835 574.471 430.835 543.757 449.215 524.814C467.595 505.87 497.396 505.87 515.776 524.814L583.413 594.524C601.794 613.468 601.794 644.181 583.413 663.125Z" fill="#1A2E35"/>
<path d="M538.421 597.868L526.789 559.86L507.275 557.449L498.434 541.979L480.025 540.56L474.363 543.818L491.381 549.204L498.305 565.136L521.8 565.816L527.57 595.78L538.421 597.868Z" fill="#00ABF7"/>
<path d="M533.915 593.695L524.174 561.47L506.028 558.939L497.738 543.129L481.081 541.845L477.098 543.575L492.629 547.717L499.553 563.648L518.945 564.69L524.1 591.806L533.915 593.695Z" fill="#D9F5FE"/>
<path d="M583.413 594.162C601.794 613.106 601.794 643.819 583.413 662.763L531.099 716.681C512.72 735.625 482.918 735.625 464.539 716.681C446.158 697.738 446.158 667.024 464.539 648.08L516.852 594.162C535.232 575.218 565.033 575.218 583.413 594.162Z" fill="#375A64"/>
<path d="M571.939 601.153L536.856 619.834L538.218 639.448L524.722 651.083L526.848 669.425L531.127 674.361L533.165 656.624L547.478 646.784L543.654 623.591L571.964 612.202L571.939 601.153Z" fill="#00ABF7"/>
<path d="M568.704 606.371L538.936 622.093L539.919 640.387L525.985 651.546L527.907 668.141L530.367 671.721L531.464 655.685L545.778 645.844L543.095 626.611L568.726 616.368L568.704 606.371Z" fill="#D9F5FE"/>
<g filter="url(#filter0_i)">
<path d="M477.852 634.358L464.538 648.08C446.158 667.023 446.158 697.737 464.538 716.68C482.918 735.624 512.719 735.624 531.099 716.68L544.413 702.958L477.852 634.358Z" fill="#FFC29C"/>
</g>
<path d="M130.08 664.235V639.872L116.785 653.573C98.4048 672.516 98.4048 703.23 116.785 722.174C129.048 734.813 146.384 738.976 162.029 734.748C142.503 717.873 130.08 692.553 130.08 664.235Z" fill="#FFC29C"/>
<g filter="url(#filter1_d)">
<rect x="203" y="335" width="63" height="73" rx="26" fill="#00ABF7"/>
</g>
<g filter="url(#filter2_d)">
<rect x="325" y="335" width="63" height="73" rx="26" fill="#00ABF7"/>
</g>
<g filter="url(#filter3_d)">
<rect x="210" y="342" width="49" height="59" rx="21" fill="#00C4F9"/>
</g>
<g filter="url(#filter4_d)">
<rect x="332" y="342" width="49" height="59" rx="21" fill="#00C4F9"/>
</g>
<g filter="url(#filter5_d)">
<path d="M236.551 394H232.449C223.917 394 217 386.775 217 377.861V366.138C217 357.225 223.917 350 232.449 350H236.551C245.083 350 252 357.225 252 366.138V377.861C252 386.775 245.083 394 236.551 394Z" fill="#D9F5FE"/>
</g>
<g filter="url(#filter6_d)">
<path d="M358.551 394H354.449C345.917 394 339 386.775 339 377.861V366.138C339 357.225 345.917 350 354.449 350H358.551C367.083 350 374 357.225 374 366.138V377.861C374 386.775 367.083 394 358.551 394Z" fill="#D9F5FE"/>
</g>
</g>
<defs>
<filter id="filter0_i" x="447.813" y="634.358" width="96.6005" height="102.41" filterUnits="userSpaceOnUse" color-interpolation-filters="sRGB">
<feFlood flood-opacity="0" result="BackgroundImageFix"/>
<feBlend mode="normal" in="SourceGraphic" in2="BackgroundImageFix" result="shape"/>
<feColorMatrix in="SourceAlpha" type="matrix" values="0 0 0 0 0 0 0 0 0 0 0 0 0 0 0 0 0 0 127 0" result="hardAlpha"/>
<feOffset dx="-2.94" dy="5.88"/>
<feGaussianBlur stdDeviation="7.355"/>
<feComposite in2="hardAlpha" operator="arithmetic" k2="-1" k3="1"/>
<feColorMatrix type="matrix" values="0 0 0 0 0 0 0 0 0 0 0 0 0 0 0 0 0 0 0.05 0"/>
<feBlend mode="normal" in2="shape" result="effect1_innerShadow"/>
</filter>
<filter id="filter1_d" x="197" y="329" width="75" height="85" filterUnits="userSpaceOnUse" color-interpolation-filters="sRGB">
<feFlood flood-opacity="0" result="BackgroundImageFix"/>
<feColorMatrix in="SourceAlpha" type="matrix" values="0 0 0 0 0 0 0 0 0 0 0 0 0 0 0 0 0 0 127 0"/>
<feOffset/>
<feGaussianBlur stdDeviation="3"/>
<feColorMatrix type="matrix" values="0 0 0 0 0 0 0 0 0 0.670588 0 0 0 0 0.968627 0 0 0 0.15 0"/>
<feBlend mode="normal" in2="BackgroundImageFix" result="effect1_dropShadow"/>
<feBlend mode="normal" in="SourceGraphic" in2="effect1_dropShadow" result="shape"/>
</filter>
<filter id="filter2_d" x="319" y="329" width="75" height="85" filterUnits="userSpaceOnUse" color-interpolation-filters="sRGB">
<feFlood flood-opacity="0" result="BackgroundImageFix"/>
<feColorMatrix in="SourceAlpha" type="matrix" values="0 0 0 0 0 0 0 0 0 0 0 0 0 0 0 0 0 0 127 0"/>
<feOffset/>
<feGaussianBlur stdDeviation="3"/>
<feColorMatrix type="matrix" values="0 0 0 0 0 0 0 0 0 0.670588 0 0 0 0 0.968627 0 0 0 0.15 0"/>
<feBlend mode="normal" in2="BackgroundImageFix" result="effect1_dropShadow"/>
<feBlend mode="normal" in="SourceGraphic" in2="effect1_dropShadow" result="shape"/>
</filter>
<filter id="filter3_d" x="204" y="336" width="61" height="71" filterUnits="userSpaceOnUse" color-interpolation-filters="sRGB">
<feFlood flood-opacity="0" result="BackgroundImageFix"/>
<feColorMatrix in="SourceAlpha" type="matrix" values="0 0 0 0 0 0 0 0 0 0 0 0 0 0 0 0 0 0 127 0"/>
<feOffset/>
<feGaussianBlur stdDeviation="3"/>
<feColorMatrix type="matrix" values="0 0 0 0 0 0 0 0 0 0.768627 0 0 0 0 0.976471 0 0 0 0.25 0"/>
<feBlend mode="normal" in2="BackgroundImageFix" result="effect1_dropShadow"/>
<feBlend mode="normal" in="SourceGraphic" in2="effect1_dropShadow" result="shape"/>
</filter>
<filter id="filter4_d" x="326" y="336" width="61" height="71" filterUnits="userSpaceOnUse" color-interpolation-filters="sRGB">
<feFlood flood-opacity="0" result="BackgroundImageFix"/>
<feColorMatrix in="SourceAlpha" type="matrix" values="0 0 0 0 0 0 0 0 0 0 0 0 0 0 0 0 0 0 127 0"/>
<feOffset/>
<feGaussianBlur stdDeviation="3"/>
<feColorMatrix type="matrix" values="0 0 0 0 0 0 0 0 0 0.768627 0 0 0 0 0.976471 0 0 0 0.25 0"/>
<feBlend mode="normal" in2="BackgroundImageFix" result="effect1_dropShadow"/>
<feBlend mode="normal" in="SourceGraphic" in2="effect1_dropShadow" result="shape"/>
</filter>
<filter id="filter5_d" x="211" y="344" width="47" height="56" filterUnits="userSpaceOnUse" color-interpolation-filters="sRGB">
<feFlood flood-opacity="0" result="BackgroundImageFix"/>
<feColorMatrix in="SourceAlpha" type="matrix" values="0 0 0 0 0 0 0 0 0 0 0 0 0 0 0 0 0 0 127 0"/>
<feOffset/>
<feGaussianBlur stdDeviation="3"/>
<feColorMatrix type="matrix" values="0 0 0 0 0.85098 0 0 0 0 0.960784 0 0 0 0 0.996078 0 0 0 0.5 0"/>
<feBlend mode="normal" in2="BackgroundImageFix" result="effect1_dropShadow"/>
<feBlend mode="normal" in="SourceGraphic" in2="effect1_dropShadow" result="shape"/>
</filter>
<filter id="filter6_d" x="333" y="344" width="47" height="56" filterUnits="userSpaceOnUse" color-interpolation-filters="sRGB">
<feFlood flood-opacity="0" result="BackgroundImageFix"/>
<feColorMatrix in="SourceAlpha" type="matrix" values="0 0 0 0 0 0 0 0 0 0 0 0 0 0 0 0 0 0 127 0"/>
<feOffset/>
<feGaussianBlur stdDeviation="3"/>
<feColorMatrix type="matrix" values="0 0 0 0 0.85098 0 0 0 0 0.960784 0 0 0 0 0.996078 0 0 0 0.5 0"/>
<feBlend mode="normal" in2="BackgroundImageFix" result="effect1_dropShadow"/>
<feBlend mode="normal" in="SourceGraphic" in2="effect1_dropShadow" result="shape"/>
</filter>
<linearGradient id="paint0_linear" x1="317.777" y1="269.341" x2="317.777" y2="163" gradientUnits="userSpaceOnUse">
<stop stop-color="#00A89B"/>
<stop offset="1" stop-color="#00BCAE"/>
</linearGradient>
<clipPath id="clip0">
<rect width="700" height="815" fill="white"/>
</clipPath>
</defs>
</svg>
