<svg width="20" height="21" viewBox="0 0 20 21" fill="none" xmlns="http://www.w3.org/2000/svg">
<rect y="0.5" width="20" height="20" rx="10" fill="#474747"/>
<path d="M6.14298 12.5226C4.74046 12.3375 4.91785 13.193 5.18186 13.6439C5.21637 13.7062 5.37764 13.9198 5.55563 14.0977C5.73361 14.2757 6.14298 14.5249 7.26428 14.9966C8.38558 15.4682 9.88066 15.2813 10.0764 15.2368C10.2722 15.1923 12.9509 14.6495 14.2858 12.2823C15.3537 10.3885 14.9918 8.09965 14.6773 7.19193C14.2235 5.97273 13.1378 6.69357 13.1556 6.89826C13.1734 7.10294 12.9865 7.85937 12.8352 8.31323C12.6839 8.76709 12.7462 8.91838 11.5804 10.369C10.4146 11.8195 7.89613 12.7539 6.14298 12.5226Z" fill="url(#paint0_linear_1078_7766)"/>
<defs>
<linearGradient id="paint0_linear_1078_7766" x1="0" y1="10.9054" x2="8.74064" y2="20.8258" gradientUnits="userSpaceOnUse">
<stop stop-color="#FFB73D"/>
<stop offset="1" stop-color="#FFA000"/>
</linearGradient>
</defs>
</svg>
