<svg width="20" height="20" viewBox="0 0 20 20" fill="none" xmlns="http://www.w3.org/2000/svg">
<rect width="20" height="20" rx="10" fill="url(#paint0_linear_2357_5072)"/>
<path fill-rule="evenodd" clip-rule="evenodd" d="M6.72967 8.07302C6.60444 8.1981 6.42685 8.3091 6.26127 8.34418C6.12562 8.37292 5.99608 8.35628 5.85381 8.21419C5.74807 8.10857 5.69364 7.95647 5.75043 7.69862C5.81056 7.42564 5.99142 7.08356 6.29697 6.72685C6.90946 6.0118 7.89694 5.38309 8.88241 5.2293C9.17163 5.18416 9.36946 4.91339 9.32427 4.62451C9.27907 4.33563 9.00798 4.13804 8.71876 4.18318C7.44274 4.38232 6.2394 5.16536 5.49147 6.03852C5.11681 6.47592 4.82505 6.97206 4.71512 7.47112C4.64594 7.78522 4.64815 8.11409 4.75706 8.41907C4.61717 8.44206 4.48681 8.5207 4.40197 8.64782C3.6712 9.74267 4.10266 10.9043 4.40197 11.3528C4.47472 11.4618 4.58094 11.5351 4.69793 11.5683C4.59257 11.9138 4.60199 12.2711 4.69139 12.6114C4.82549 13.1218 5.13726 13.5973 5.5031 13.9968C5.8727 14.4004 6.32399 14.7556 6.78176 15.0214C7.23322 15.2836 7.72703 15.4796 8.18246 15.5251C9.03286 15.61 9.63607 15.3536 10.0322 14.9579C10.4068 14.5838 10.5455 14.1365 10.5924 13.9021C10.7138 13.296 10.714 12.7533 10.6736 12.3374C10.6347 11.9374 10.5543 11.6181 10.4862 11.4653C10.473 11.4357 10.4593 11.4023 10.4442 11.3656C10.3362 11.1022 10.16 10.6725 9.60335 10.2754C9.50655 10.2063 9.39443 10.1744 9.28401 10.1768C9.29142 10.1308 9.29527 10.0837 9.29527 10.0356C9.29527 9.54827 8.89976 9.15323 8.41188 9.15323C7.924 9.15323 7.52849 9.54827 7.52849 10.0356C7.52849 10.5229 7.924 10.9179 8.41188 10.9179C8.54392 10.9179 8.6692 10.889 8.78169 10.8371C8.8115 10.954 8.88124 11.0614 8.98719 11.137C9.17535 11.2712 9.27157 11.3918 9.33378 11.495C9.38512 11.5802 9.41204 11.6453 9.44928 11.7353C9.46802 11.7807 9.48938 11.8323 9.51778 11.896C9.51703 11.8944 9.51727 11.8951 9.51835 11.8983C9.52229 11.9101 9.53741 11.9555 9.55648 12.0404C9.57873 12.1395 9.60244 12.275 9.61844 12.4397C9.65048 12.7694 9.65069 13.2062 9.55291 13.6945C9.52915 13.8131 9.45579 14.0363 9.28266 14.2092C9.13113 14.3606 8.85095 14.5277 8.28793 14.4715C8.03664 14.4464 7.69124 14.3248 7.31452 14.1061C6.94411 13.891 6.57826 13.6021 6.28533 13.2822C5.98862 12.9582 5.79244 12.6307 5.71674 12.3426C5.64583 12.0727 5.68 11.8483 5.83238 11.6454C5.83428 11.6433 5.84573 11.6305 5.87079 11.6109C5.89841 11.5894 5.93328 11.5669 5.97128 11.5474C6.00963 11.5276 6.04377 11.5147 6.06902 11.5078C6.07714 11.5055 6.08294 11.5043 6.08654 11.5037C6.20175 11.5142 6.26148 11.5446 6.31068 11.5793C6.36904 11.6205 6.4121 11.6644 6.4903 11.7441C6.51787 11.7722 6.54981 11.8048 6.58832 11.8433C6.68543 11.9403 6.81085 11.9918 6.93802 11.9977C6.86405 12.1268 6.82177 12.2762 6.82177 12.4356C6.82177 12.9229 7.21728 13.3179 7.70517 13.3179C8.19305 13.3179 8.58856 12.9229 8.58856 12.4356C8.58856 11.9483 8.19305 11.5532 7.70517 11.5532C7.62771 11.5532 7.55259 11.5632 7.48101 11.5819C7.51804 11.4117 7.47034 11.2269 7.3379 11.0946C7.31766 11.0744 7.29632 11.0522 7.27362 11.0286C7.0702 10.8174 6.75794 10.493 6.15553 10.447C5.90159 10.4275 5.6551 10.519 5.48577 10.6061C5.41424 10.643 5.33965 10.6877 5.26747 10.7396C5.09829 10.4652 4.89674 9.81533 5.284 9.23514C5.30184 9.20841 5.31693 9.18064 5.32933 9.15218C5.6999 9.41075 6.11082 9.45842 6.48123 9.37995C6.89869 9.2915 7.25113 9.04957 7.47925 8.82171C7.58346 8.71763 7.63521 8.58099 7.63449 8.44457C7.65781 8.44642 7.68138 8.44736 7.70517 8.44736C8.19305 8.44736 8.58856 8.05232 8.58856 7.56502C8.58856 7.07771 8.19305 6.68267 7.70517 6.68267C7.21728 6.68267 6.82177 7.07771 6.82177 7.56502C6.82177 7.7046 6.85423 7.83662 6.91201 7.95395C6.84558 7.97976 6.78331 8.01945 6.72967 8.07302ZM10.4471 6.30609C10.4708 6.18746 10.5442 5.96425 10.7173 5.79133C10.8689 5.63998 11.149 5.47283 11.7121 5.52906C11.9634 5.55416 12.3088 5.67578 12.6855 5.89451C13.0559 6.10959 13.4217 6.39848 13.7147 6.71838C14.0114 7.04239 14.2076 7.36983 14.2833 7.65795C14.3542 7.92784 14.32 8.15225 14.1676 8.35518C14.1657 8.35731 14.1543 8.3701 14.1292 8.38964C14.1016 8.41117 14.0667 8.43364 14.0287 8.4532C13.9904 8.47293 13.9562 8.48589 13.931 8.4928C13.9229 8.49502 13.9171 8.49624 13.9135 8.4969C13.7982 8.48641 13.7385 8.45596 13.6893 8.42126C13.631 8.38008 13.5879 8.33618 13.5097 8.25644C13.4821 8.22833 13.4502 8.19576 13.4117 8.1573C13.3146 8.0603 13.1891 8.00881 13.062 8.00283C13.1359 7.87381 13.1782 7.72434 13.1782 7.56502C13.1782 7.07771 12.7827 6.68267 12.2948 6.68267C11.807 6.68267 11.4114 7.07771 11.4114 7.56502C11.4114 8.05232 11.807 8.44736 12.2948 8.44736C12.3723 8.44736 12.4474 8.4374 12.519 8.4187C12.482 8.58885 12.5297 8.77371 12.6621 8.90599C12.6823 8.9262 12.7037 8.94835 12.7263 8.97192C12.9298 9.18319 13.2421 9.50754 13.8445 9.55361C14.0984 9.57304 14.3449 9.48157 14.5142 9.39443C14.5858 9.35762 14.6603 9.31288 14.7325 9.26094C14.9017 9.53534 15.1033 10.1852 14.716 10.7654C14.6982 10.7922 14.6831 10.8199 14.6707 10.8484C14.3001 10.5898 13.8892 10.5422 13.5188 10.6206C13.1013 10.7091 12.7489 10.951 12.5208 11.1789C12.4166 11.2829 12.3648 11.4196 12.3655 11.556C12.3422 11.5542 12.3186 11.5532 12.2948 11.5532C11.807 11.5532 11.4114 11.9483 11.4114 12.4356C11.4114 12.9229 11.807 13.3179 12.2948 13.3179C12.7827 13.3179 13.1782 12.9229 13.1782 12.4356C13.1782 12.296 13.1458 12.164 13.088 12.0466C13.1544 12.0208 13.2167 11.9811 13.2703 11.9276C13.3956 11.8025 13.5732 11.6915 13.7388 11.6564C13.8744 11.6277 14.0039 11.6443 14.1462 11.7864C14.2519 11.892 14.3064 12.0441 14.2496 12.302C14.1895 12.5749 14.0086 12.917 13.7031 13.2737C13.0906 13.9888 12.1031 14.6175 11.1176 14.7713C10.8284 14.8164 10.6306 15.0872 10.6758 15.3761C10.7209 15.6649 10.992 15.8625 11.2813 15.8174C12.5573 15.6183 13.7606 14.8352 14.5086 13.9621C14.8832 13.5247 15.175 13.0285 15.2849 12.5294C15.3541 12.2153 15.3519 11.8865 15.243 11.5815C15.3828 11.5585 15.5132 11.4799 15.598 11.3528C16.3288 10.2579 15.8973 9.09624 15.598 8.64782C15.5253 8.53882 15.4191 8.46546 15.3021 8.43227C15.4074 8.08673 15.398 7.72945 15.3086 7.38918C15.1745 6.87878 14.8627 6.40329 14.4969 6.00378C14.1273 5.60016 13.676 5.24494 13.2182 4.97914C12.7668 4.717 12.273 4.52099 11.8175 4.4755C10.9671 4.39057 10.3639 4.64694 9.96776 5.04263C9.59318 5.41676 9.45453 5.86412 9.40761 6.09843C9.28624 6.70454 9.28603 7.24731 9.32644 7.66317C9.36532 8.06322 9.4457 8.38243 9.51381 8.53523C9.52703 8.56488 9.54073 8.59828 9.55574 8.63489C9.66377 8.89834 9.83999 9.32807 10.3967 9.72521C10.4934 9.79426 10.6056 9.82616 10.716 9.82373C10.7086 9.86973 10.7047 9.91692 10.7047 9.965C10.7047 10.4523 11.1002 10.8473 11.5881 10.8473C12.076 10.8473 12.4715 10.4523 12.4715 9.965C12.4715 9.4777 12.076 9.08266 11.5881 9.08266C11.4561 9.08266 11.3308 9.1116 11.2183 9.16347C11.1885 9.04659 11.1188 8.93921 11.0128 8.86362C10.8246 8.72938 10.7284 8.60873 10.6662 8.50554C10.6149 8.42037 10.588 8.35527 10.5507 8.26523C10.532 8.21999 10.5105 8.16808 10.4822 8.10454C10.483 8.10622 10.4827 8.1055 10.4816 8.10226C10.4777 8.09042 10.4626 8.04502 10.4435 7.96013C10.4213 7.86106 10.3976 7.72554 10.3816 7.56088C10.3495 7.23116 10.3493 6.79439 10.4471 6.30609Z" fill="white"/>
<defs>
<linearGradient id="paint0_linear_2357_5072" x1="-10" y1="10" x2="10" y2="30" gradientUnits="userSpaceOnUse">
<stop stop-color="#70B2FF"/>
<stop offset="1" stop-color="#5C9CE6"/>
</linearGradient>
</defs>
</svg>
