<svg width="32" height="32" viewBox="0 0 32 32" fill="none" xmlns="http://www.w3.org/2000/svg">
<path d="M26.5799 21.33C26.7399 19.44 26.2499 17.61 27.5899 16.27L28.4199 15.44C30.7799 13.08 30.7799 9.24002 28.4199 6.88002L26.5599 5.02002L25.2199 6.36002C23.7299 6.40002 22.2499 6.99002 21.1099 8.13002L20.8999 8.33002C19.5599 9.67002 17.7899 10.49 15.9099 10.65C13.4099 10.86 11.0699 11.95 9.28994 13.73C6.31994 16.7 5.50994 21.01 6.86994 24.71L6.18994 25.39L8.73994 27.94C12.8199 32.02 19.4299 32.02 23.5099 27.94C25.2799 26.17 26.3699 23.83 26.5799 21.33Z" fill="url(#paint0_linear_2670_5968)"/>
<path d="M21.66 4.47C23.05 4.47 24.44 5 25.5 6.06C27.62 8.18 27.62 11.62 25.5 13.74L25.31 13.93C24.11 15.13 23.37 16.72 23.23 18.41C23.04 20.65 22.06 22.76 20.47 24.35C18.64 26.18 16.24 27.1 13.84 27.1C11.44 27.1 9.04 26.18 7.21 24.35C3.55 20.69 3.55 14.76 7.21 11.1C8.8 9.51 10.9 8.53 13.15 8.34C14.84 8.2 16.43 7.46 17.63 6.26L17.82 6.07C18.88 5 20.27 4.47 21.66 4.47ZM21.66 3C19.82 3 18.08 3.72 16.78 5.02L16.6 5.21C15.65 6.16 14.38 6.75 13.03 6.87C10.44 7.09 8.01 8.22 6.18 10.05C4.13 12.1 3 14.83 3 17.72C3 20.62 4.13 23.34 6.18 25.39C8.23 27.44 10.95 28.57 13.85 28.57C16.75 28.57 19.47 27.44 21.52 25.39C23.35 23.56 24.49 21.12 24.71 18.54C24.82 17.19 25.41 15.93 26.37 14.97L26.56 14.78C27.86 13.48 28.58 11.74 28.58 9.9C28.58 8.06 27.86 6.32 26.56 5.02C25.24 3.72 23.51 3 21.66 3Z" fill="#337D63"/>
<path d="M25.3201 13.9297L25.5101 13.7397C27.6301 11.6197 27.6301 8.17973 25.5101 6.05973C23.3901 3.93973 19.9501 3.93973 17.8301 6.05973L17.6401 6.24973C16.4401 7.44973 14.8501 8.18973 13.1601 8.32973C10.9101 8.51973 8.8101 9.49973 7.2201 11.0897C3.5601 14.7497 3.5601 20.6797 7.2201 24.3397C10.8801 27.9997 16.8101 27.9997 20.4701 24.3397C22.0601 22.7497 23.0401 20.6497 23.2301 18.3997C23.3801 16.7197 24.1201 15.1297 25.3201 13.9297Z" fill="#89BA4F"/>
<path d="M25.3201 13.9297L25.5101 13.7397C27.6301 11.6197 27.6301 8.17973 25.5101 6.05973C23.3901 3.93973 19.9501 3.93973 17.8301 6.05973L17.6401 6.24973C16.4401 7.44973 14.8501 8.18973 13.1601 8.32973C10.9101 8.51973 8.8101 9.49973 7.2201 11.0897C3.5601 14.7497 3.5601 20.6797 7.2201 24.3397C10.8801 27.9997 16.8101 27.9997 20.4701 24.3397C22.0601 22.7497 23.0401 20.6497 23.2301 18.3997C23.3801 16.7197 24.1201 15.1297 25.3201 13.9297Z" fill="url(#paint1_radial_2670_5968)"/>
<path d="M25.3201 13.9297L25.5101 13.7397C27.6301 11.6197 27.6301 8.17973 25.5101 6.05973C23.3901 3.93973 19.9501 3.93973 17.8301 6.05973L17.6401 6.24973C16.4401 7.44973 14.8501 8.18973 13.1601 8.32973C10.9101 8.51973 8.8101 9.49973 7.2201 11.0897C3.5601 14.7497 3.5601 20.6797 7.2201 24.3397C10.8801 27.9997 16.8101 27.9997 20.4701 24.3397C22.0601 22.7497 23.0401 20.6497 23.2301 18.3997C23.3801 16.7197 24.1201 15.1297 25.3201 13.9297Z" fill="url(#paint2_radial_2670_5968)"/>
<path d="M14.2899 21.6897C16.6979 21.6897 18.6499 19.7377 18.6499 17.3297C18.6499 14.9218 16.6979 12.9697 14.2899 12.9697C11.882 12.9697 9.92993 14.9218 9.92993 17.3297C9.92993 19.7377 11.882 21.6897 14.2899 21.6897Z" fill="url(#paint3_radial_2670_5968)"/>
<defs>
<linearGradient id="paint0_linear_2670_5968" x1="30.1899" y1="10.25" x2="12" y2="29.75" gradientUnits="userSpaceOnUse">
<stop offset="0.0112" stop-color="#A9EC4A"/>
<stop offset="0.130301" stop-color="#88C83E"/>
<stop offset="0.256868" stop-color="#578546"/>
<stop offset="0.379777" stop-color="#55A052"/>
<stop offset="0.600539" stop-color="#275B57"/>
<stop offset="0.751125" stop-color="#294F59"/>
<stop offset="1" stop-color="#395468"/>
</linearGradient>
<radialGradient id="paint1_radial_2670_5968" cx="0" cy="0" r="1" gradientUnits="userSpaceOnUse" gradientTransform="translate(8.37512 10.2498) rotate(56.8393) scale(20.1101 54.5371)">
<stop offset="0.351455" stop-color="#D9F650"/>
<stop offset="0.814859" stop-color="#DEFB4F" stop-opacity="0"/>
</radialGradient>
<radialGradient id="paint2_radial_2670_5968" cx="0" cy="0" r="1" gradientUnits="userSpaceOnUse" gradientTransform="translate(12.5001 18.4998) rotate(47.7263) scale(7.43303 7.02009)">
<stop offset="0.351455" stop-color="#9AAE39"/>
<stop offset="0.814859" stop-color="#A4D050" stop-opacity="0"/>
</radialGradient>
<radialGradient id="paint3_radial_2670_5968" cx="0" cy="0" r="1" gradientUnits="userSpaceOnUse" gradientTransform="translate(16.1875 15.7498) rotate(140.505) scale(7.37023)">
<stop offset="0.129081" stop-color="#D5A891"/>
<stop offset="0.443693" stop-color="#A07751"/>
<stop offset="0.791711" stop-color="#57463C"/>
<stop offset="0.982639" stop-color="#5B5830"/>
</radialGradient>
</defs>
</svg>
