<svg width="195" height="195" viewBox="0 0 195 195" fill="none" xmlns="http://www.w3.org/2000/svg">
<path d="M80.4243 72.7816L73.3533 79.8527L153.727 156.069C154.78 157.068 156.473 157.953 157.499 156.927C158.525 155.901 157.639 154.208 156.641 153.155L80.4243 72.7816Z" fill="#FFE4B8"/>
<path d="M46.1297 70.3067C36.7958 61.5386 36.1123 46.8544 36.9373 40.6083C45.4226 46.2651 51.4329 46.6187 63.1002 44.8509C74.7675 43.0832 83.9598 59.3466 75.8281 68.1854C67.6964 77.0242 57.7969 81.2669 46.1297 70.3067Z" fill="#FFE4B8"/>
<path d="M60.2718 58.9932C57.9989 63.0844 46.601 66.3 41.1799 66.7714C47.6617 75.3745 61.0271 83.0752 73.7068 71.014C88.2026 57.2254 71.5855 42.0226 61.3324 43.0833C49.3116 56.5184 61.5345 56.7204 60.2718 58.9932Z" fill="#E1E1E1"/>
<path d="M57.4433 56.1648C55.1704 60.2559 43.7725 63.4715 38.3514 63.9429C44.8332 72.5461 58.1986 80.2467 70.8783 68.1855C85.3741 54.3969 68.757 39.1941 58.5039 40.2548C46.4831 53.6899 58.706 53.8919 57.4433 56.1648Z" fill="white"/>
<path d="M60.2718 58.9931C57.999 63.0842 46.6011 66.2999 41.18 66.7713C37.5266 60.5252 31.2098 46.1945 35.1696 38.8406C35.912 37.4617 53.2008 49.8007 61.3325 43.0832C49.3117 56.5182 61.5345 56.7203 60.2718 58.9931Z" fill="#F05F88"/>
<path d="M71.2319 77.7314L69.0536 79.9098L71.289 82.0296L151.663 158.246C152.397 158.943 153.464 159.717 154.711 160.116C156.001 160.527 158.02 160.649 159.62 159.049C161.22 157.449 161.099 155.429 160.687 154.139C160.289 152.892 159.514 151.826 158.818 151.091L82.6012 70.7173L80.4814 68.4819L78.303 70.6603L71.2319 77.7314ZM38.6014 38.1121L34.5938 35.4404L33.9631 40.2154C33.5071 43.668 33.4808 49.2548 34.7955 55.1634C36.1105 61.0727 38.8268 67.5626 44.0756 72.4933C50.3818 78.4173 56.667 80.6153 62.7808 79.6327C68.7059 78.6804 73.7854 74.8367 78.0359 70.2166C83.2366 64.5637 82.6701 56.7901 79.5135 51.0878C76.3642 45.3988 70.0857 40.7583 62.6508 41.8848C56.8725 42.7603 52.8153 43.0534 49.2498 42.544C45.7739 42.0474 42.5682 40.7566 38.6014 38.1121Z" stroke="#171C1F" stroke-width="6"/>
<path d="M41.1799 66.7713C46.601 66.2999 57.9989 63.0843 60.2718 58.9931C61.5344 56.7203 49.3116 56.5183 61.3324 43.0832" stroke="#171C1F" stroke-width="4"/>
<path d="M121.432 80.5199L114.36 73.4488L38.144 153.823C37.1454 154.876 36.2596 156.568 37.2858 157.595C38.312 158.621 40.0047 157.735 41.0578 156.736L121.432 80.5199Z" fill="#FFE4B8"/>
<path d="M123.906 46.2252C132.675 36.8914 147.359 36.2079 153.605 37.0329C147.948 45.5181 147.594 51.5285 149.362 63.1958C151.13 74.863 134.867 84.0554 126.028 75.9237C117.189 67.792 112.946 57.8925 123.906 46.2252Z" fill="#FFE4B8"/>
<path d="M135.22 60.3674C131.129 58.0945 127.913 46.6966 127.442 41.2755C118.839 47.7573 111.138 61.1227 123.199 73.8024C136.988 88.2981 152.191 71.6811 151.13 61.428C137.695 49.4072 137.493 61.63 135.22 60.3674Z" fill="#E1E1E1"/>
<path d="M138.048 57.5389C133.957 55.266 130.742 43.8681 130.27 38.447C121.667 44.9288 113.966 58.2942 126.028 70.9739C139.816 85.4697 155.019 68.8526 153.958 58.5995C140.523 46.5787 140.321 58.8016 138.048 57.5389Z" fill="white"/>
<path d="M135.22 60.3674C131.129 58.0946 127.913 46.6967 127.442 41.2755C133.688 37.6222 148.019 31.3053 155.373 35.2651C156.751 36.0076 144.412 53.2964 151.13 61.4281C137.695 49.4073 137.493 61.6301 135.22 60.3674Z" fill="#FBD20A"/>
<path d="M116.482 71.3275L114.303 69.1491L112.184 71.3846L35.9671 151.758C35.2706 152.493 34.4957 153.559 34.0976 154.807C33.6861 156.096 33.5646 158.116 35.1645 159.716C36.7644 161.316 38.7842 161.194 40.0738 160.783C41.3211 160.385 42.3876 159.61 43.122 158.913L123.496 82.6968L125.731 80.577L123.553 78.3986L116.482 71.3275ZM156.101 38.697L158.773 34.6893L153.998 34.0587C150.545 33.6027 144.958 33.5764 139.05 34.8911C133.14 36.2061 126.651 38.9224 121.72 44.1712C115.796 50.4774 113.598 56.7626 114.58 62.8764C115.533 68.8015 119.376 73.881 123.997 78.1315C129.649 83.3322 137.423 82.7657 143.125 79.609C148.814 76.4598 153.455 70.1813 152.328 62.7464C151.453 56.968 151.16 52.9109 151.669 49.3453C152.166 45.8695 153.457 42.6637 156.101 38.697Z" stroke="#171C1F" stroke-width="6"/>
<path d="M127.442 41.2755C127.913 46.6966 131.129 58.0945 135.22 60.3673C137.493 61.63 137.695 49.4072 151.13 61.428" stroke="#171C1F" stroke-width="4"/>
</svg>
