<svg width="96" height="96" viewBox="0 0 96 96" fill="none" xmlns="http://www.w3.org/2000/svg">
<path fill-rule="evenodd" clip-rule="evenodd" d="M48 96C74.5097 96 96 74.5097 96 48C96 21.4903 74.5097 0 48 0C21.4903 0 0 21.4903 0 48C0 74.5097 21.4903 96 48 96ZM47.662 60.169C54.5694 60.169 60.169 54.5694 60.169 47.662C60.169 40.7545 54.5694 35.1549 47.662 35.1549C40.7545 35.1549 35.1549 40.7545 35.1549 47.662C35.1549 54.5694 40.7545 60.169 47.662 60.169Z" fill="#FF66AC"/>
<rect x="18.9297" y="18.7441" width="4.05634" height="7.43662" rx="2.02817" transform="rotate(-6.94641 18.9297 18.7441)" fill="#BEDBFB"/>
<rect x="83.8311" y="49.8428" width="4.05634" height="7.43662" rx="2.02817" transform="rotate(-6.94641 83.8311 49.8428)" fill="#BEDBFB"/>
<rect x="41.4331" y="78.4224" width="4.05634" height="7.43662" rx="2.02817" transform="rotate(57.5878 41.4331 78.4224)" fill="#BEDBFB"/>
<rect x="33.3269" y="62.873" width="4.05634" height="7.43662" rx="2.02817" transform="rotate(22.9881 33.3269 62.873)" fill="#FFFEFF"/>
<rect x="29.564" y="41.9155" width="4.05634" height="7.43662" rx="2.02817" transform="rotate(62.1939 29.564 41.9155)" fill="#FFFEFF"/>
<rect x="71.4856" y="43.2856" width="4.05634" height="7.43662" rx="2.02817" transform="rotate(23.3091 71.4856 43.2856)" fill="#FFFEFF"/>
<rect x="48.676" y="10.3862" width="4.05634" height="7.43662" rx="2.02817" transform="rotate(-34.0862 48.676 10.3862)" fill="#FFFEFF"/>
<rect x="36.8477" y="20.8916" width="4.05634" height="7.43662" rx="2.02817" transform="rotate(-94.8165 36.8477 20.8916)" fill="#FDDD64"/>
<rect x="15.5493" y="33.4668" width="4.05634" height="7.43662" rx="2.02817" transform="rotate(-14.5043 15.5493 33.4668)" fill="#FDDD64"/>
<rect x="14.8733" y="68.1821" width="4.05634" height="7.43662" rx="2.02817" transform="rotate(-77.2958 14.8733 68.1821)" fill="#FDDD64"/>
<rect x="66.9297" y="68.2461" width="4.05634" height="7.43662" rx="2.02817" transform="rotate(-55.544 66.9297 68.2461)" fill="#FDDD64"/>
<rect x="71.6018" y="33.5327" width="4.05634" height="7.43662" rx="2.02817" transform="rotate(-98.7318 71.6018 33.5327)" fill="#FDDD64"/>
<rect x="64.0173" y="21.5381" width="4.05634" height="7.43662" rx="2.02817" transform="rotate(-106.38 64.0173 21.5381)" fill="#FD0C7D"/>
<rect x="10.2402" y="59.1685" width="4.05634" height="7.43662" rx="2.02817" transform="rotate(-149.075 10.2402 59.1685)" fill="#FD0C7D"/>
<rect x="56.2144" y="71.3013" width="4.05634" height="7.43662" rx="2.02817" transform="rotate(132.748 56.2144 71.3013)" fill="#FD0C7D"/>
<rect x="63.7732" y="82.1592" width="4.05634" height="7.43662" rx="2.02817" transform="rotate(-152.683 63.7732 82.1592)" fill="#928BFB"/>
<rect x="29.0703" y="31.5825" width="4.05634" height="7.43662" rx="2.02817" transform="rotate(-72.2881 29.0703 31.5825)" fill="#928BFB"/>
</svg>
