<svg width="195" height="195" viewBox="0 0 195 195" fill="none" xmlns="http://www.w3.org/2000/svg">
<path fill-rule="evenodd" clip-rule="evenodd" d="M110 3.0095V184.326C54.6271 180.939 -0.694326 132.316 31.5388 55.8662C48.1357 16.502 79.4017 2.58244 110 3.0095Z" fill="white"/>
<path fill-rule="evenodd" clip-rule="evenodd" d="M110 184.326V3.00952C149.416 3.55965 187.724 27.9163 192.141 52.3571C192.5 54.3448 190.978 56.1206 189 56.5322C129.309 68.9569 155.694 126.363 186.92 132.782C189.625 133.338 191.547 136.155 190.451 138.689C175.893 172.35 142.937 186.341 110 184.326Z" fill="#E7D0A9"/>
<path d="M38 61.5C76.8338 -30.605 173.437 7.4338 180.196 52.3506C180.497 54.3466 178.98 56.1203 177.004 56.5316C117.201 68.977 143.788 126.568 175.088 132.816C177.748 133.347 179.662 136.087 178.68 138.616C142.96 230.579 -5.46898 164.599 38 61.5Z" fill="#FFE4B8"/>
<path d="M150 40C150 49.3888 142.389 57 133 57C133 57 133 49.3888 133 40C133 30.6112 133 23 133 23C142.389 23 150 30.6112 150 40Z" fill="#3769A5"/>
<path d="M116 40C116 49.3888 123.611 57 133 57C133 57 133 49.3888 133 40C133 30.6112 133 23 133 23C123.611 23 116 30.6112 116 40Z" fill="white"/>
<ellipse cx="131.5" cy="40" rx="11.5" ry="17" fill="#4E9BD4"/>
<circle cx="133" cy="40" r="18.5" stroke="#171C1F" stroke-width="5"/>
<path d="M97 49C97 58.3888 89.3888 66 80 66C80 66 80 58.3888 80 49C80 39.6112 80 32 80 32C89.3888 32 97 39.6112 97 49Z" fill="#EE3C7A"/>
<path d="M63 49C63 58.3888 70.6112 66 80 66C80 66 80 58.3888 80 49C80 39.6112 80 32 80 32C70.6112 32 63 39.6112 63 49Z" fill="white"/>
<ellipse cx="78.5" cy="49" rx="11.5" ry="17" fill="#F05F88"/>
<circle cx="80" cy="49" r="18.5" stroke="#171C1F" stroke-width="5"/>
<path d="M74 98C74 107.389 66.3888 115 57 115C57 115 57 107.389 57 98C57 88.6112 57 81 57 81C66.3888 81 74 88.6112 74 98Z" fill="#FAAF1A"/>
<path d="M40 98C40 107.389 47.6112 115 57 115C57 115 57 107.389 57 98C57 88.6112 57 81 57 81C47.6112 81 40 88.6112 40 98Z" fill="white"/>
<ellipse cx="55.5" cy="98" rx="11.5" ry="17" fill="#FBD20A"/>
<circle cx="57" cy="98" r="18.5" stroke="#171C1F" stroke-width="5"/>
<path d="M97 142C97 151.389 89.3888 159 80 159C80 159 80 151.389 80 142C80 132.611 80 125 80 125C89.3888 125 97 132.611 97 142Z" fill="#F05225"/>
<path d="M63 142C63 151.389 70.6112 159 80 159C80 159 80 151.389 80 142C80 132.611 80 125 80 125C70.6112 125 63 132.611 63 142Z" fill="white"/>
<ellipse cx="78.5" cy="142" rx="11.5" ry="17" fill="#F16723"/>
<circle cx="80" cy="142" r="18.5" stroke="#171C1F" stroke-width="5"/>
<circle cx="132" cy="145" r="14.1471" fill="#FFD1B0" stroke="#171C1F" stroke-width="3.82353"/>
<path d="M31.5384 55.8662C63.9928 -24.637 176.923 -2.44941 191.655 51.924C192.236 54.0694 190.691 56.1691 188.517 56.634C129.451 69.267 155.778 126.38 186.92 132.782C189.625 133.338 191.547 136.155 190.452 138.69C151.491 228.969 -17.9357 178.587 31.5384 55.8662Z" stroke="#171C1F" stroke-width="5"/>
<path d="M28.789 74.0071H18.789L21.7286 184.733C21.7671 186.184 22.3378 188.007 23.789 188.007C25.2402 188.007 25.8108 186.184 25.8494 184.733L28.789 74.0071Z" fill="#FFE4B8"/>
<path d="M6.28899 48.0071C5.88899 35.2071 15.789 24.3405 20.789 20.5071C22.789 30.5071 26.7889 35.0071 36.2889 42.0071C45.7889 49.0071 40.7889 67.0071 28.789 67.5071C16.789 68.0071 6.78899 64.0071 6.28899 48.0071Z" fill="#FFE4B8"/>
<path d="M24.2888 50.0071C19.7888 51.2929 9.4555 45.5071 5.28883 42.0071C3.78883 52.6738 7.79443 67.5698 25.2889 68.0071C45.2889 68.5071 44.2889 46.0071 36.2888 39.5071C18.2888 40.5071 26.7888 49.2929 24.2888 50.0071Z" fill="#E1E1E1"/>
<path d="M24.2888 46.0071C19.7888 47.2929 9.4555 41.5071 5.28883 38.0071C3.78883 48.6738 7.79443 63.5698 25.2889 64.0071C45.2889 64.5071 44.2889 42.0071 36.2888 35.5071C18.2888 36.5071 26.7888 45.2929 24.2888 46.0071Z" fill="white"/>
<path d="M24.2889 50.0071C19.7889 51.2929 9.45561 45.5071 5.28894 42.0071C7.12227 35.0071 12.7889 20.4072 20.7889 18.0071C22.2889 17.5571 25.7889 38.5071 36.2889 39.5071C18.2889 40.5071 26.7889 49.2929 24.2889 50.0071Z" fill="#F05F88"/>
<path d="M31.7879 74.0868L31.8697 71.0071H28.789H18.789H15.7083L15.79 74.0868L18.7297 184.813C18.7565 185.825 18.9627 187.127 19.5632 188.29C20.1841 189.493 21.5263 191.007 23.789 191.007C26.0516 191.007 27.3939 189.493 28.0148 188.29C28.6153 187.127 28.8214 185.825 28.8483 184.813L31.7879 74.0868ZM23.7307 19.9188L22.7861 15.1958L18.9637 18.1263C16.2 20.2452 12.2308 24.1771 8.98255 29.2847C5.73379 34.3931 3.06551 40.9028 3.29045 48.1008C3.5607 56.7488 6.45078 62.7474 11.4687 66.3757C16.3317 69.8921 22.6414 70.7659 28.9139 70.5045C36.5885 70.1848 41.6847 64.2875 43.4848 58.0232C45.2806 51.7736 44.1224 44.0527 38.0685 39.592C33.3636 36.1252 30.2875 33.4635 28.1265 30.5821C26.0198 27.7733 24.6657 24.5937 23.7307 19.9188Z" stroke="#171C1F" stroke-width="6"/>
<path d="M5.28894 42.0071C9.45561 45.5071 19.7889 51.2929 24.2889 50.0071C26.7889 49.2929 18.2889 40.5071 36.2889 39.5071" stroke="#171C1F" stroke-width="4"/>
</svg>
