<svg width="29" height="28" viewBox="0 0 29 28" fill="none" xmlns="http://www.w3.org/2000/svg">
<path d="M14.5519 7.03658H22.2506C23.288 7.02782 24.125 6.18673 24.125 5.15291C24.125 2.1916 20.5853 0.68466 18.4668 2.7348L14.5519 6.53067V7.03658Z" fill="#DE2236"/>
<path d="M14.5519 7.03658H22.2506C23.288 7.02782 24.125 6.18673 24.125 5.15291C24.125 2.1916 20.5853 0.68466 18.4668 2.7348L14.5519 6.53067V7.03658Z" fill="url(#paint0_radial_2667_5956)"/>
<path d="M14.5519 7.03658H22.2506C23.288 7.02782 24.125 6.18673 24.125 5.15291C24.125 2.1916 20.5853 0.68466 18.4668 2.7348L14.5519 6.53067V7.03658Z" fill="url(#paint1_radial_2667_5956)"/>
<path d="M14.5519 7.03658H22.2506C23.288 7.02782 24.125 6.18673 24.125 5.15291C24.125 2.1916 20.5853 0.68466 18.4668 2.7348L14.5519 6.53067V7.03658Z" fill="url(#paint2_linear_2667_5956)"/>
<path d="M14.5519 7.03658H22.2506C23.288 7.02782 24.125 6.18673 24.125 5.15291C24.125 2.1916 20.5853 0.68466 18.4668 2.7348L14.5519 6.53067V7.03658Z" fill="url(#paint3_radial_2667_5956)"/>
<path d="M14.5519 7.03658H22.2506C23.288 7.02782 24.125 6.18673 24.125 5.15291C24.125 2.1916 20.5853 0.68466 18.4668 2.7348L14.5519 6.53067V7.03658Z" fill="url(#paint4_radial_2667_5956)"/>
<path d="M14.5519 7.03658H22.2506C23.288 7.02782 24.125 6.18673 24.125 5.15291C24.125 2.1916 20.5853 0.68466 18.4668 2.7348L14.5519 6.53067V7.03658Z" fill="url(#paint5_linear_2667_5956)"/>
<path d="M14.5519 7.03658H22.2506C23.288 7.02782 24.125 6.18673 24.125 5.15291C24.125 2.1916 20.5853 0.68466 18.4668 2.7348L14.5519 6.53067V7.03658Z" fill="url(#paint6_radial_2667_5956)" fill-opacity="0.8"/>
<path d="M14.5519 7.03658H6.8532C5.81573 7.02782 4.97878 6.18673 4.97878 5.15291C4.97878 2.1916 8.51842 0.68466 10.637 2.7348L14.5519 6.53067V7.03658Z" fill="url(#paint7_linear_2667_5956)"/>
<path d="M14.5519 7.03658H6.8532C5.81573 7.02782 4.97878 6.18673 4.97878 5.15291C4.97878 2.1916 8.51842 0.68466 10.637 2.7348L14.5519 6.53067V7.03658Z" fill="url(#paint8_linear_2667_5956)"/>
<path d="M14.5519 7.03658H6.8532C5.81573 7.02782 4.97878 6.18673 4.97878 5.15291C4.97878 2.1916 8.51842 0.68466 10.637 2.7348L14.5519 6.53067V7.03658Z" fill="url(#paint9_radial_2667_5956)"/>
<path d="M14.5519 7.03658H6.8532C5.81573 7.02782 4.97878 6.18673 4.97878 5.15291C4.97878 2.1916 8.51842 0.68466 10.637 2.7348L14.5519 6.53067V7.03658Z" fill="url(#paint10_radial_2667_5956)"/>
<path d="M14.5519 7.03658H6.8532C5.81573 7.02782 4.97878 6.18673 4.97878 5.15291C4.97878 2.1916 8.51842 0.68466 10.637 2.7348L14.5519 6.53067V7.03658Z" fill="url(#paint11_radial_2667_5956)" fill-opacity="0.8"/>
<path d="M14.5519 7.03658H6.8532C5.81573 7.02782 4.97878 6.18673 4.97878 5.15291C4.97878 2.1916 8.51842 0.68466 10.637 2.7348L14.5519 6.53067V7.03658Z" fill="url(#paint12_radial_2667_5956)" fill-opacity="0.7"/>
<path d="M14.5519 7.03658H6.8532C5.81573 7.02782 4.97878 6.18673 4.97878 5.15291C4.97878 2.1916 8.51842 0.68466 10.637 2.7348L14.5519 6.53067V7.03658Z" fill="url(#paint13_radial_2667_5956)"/>
<path d="M14.5519 7.03658H6.8532C5.81573 7.02782 4.97878 6.18673 4.97878 5.15291C4.97878 2.1916 8.51842 0.68466 10.637 2.7348L14.5519 6.53067V7.03658Z" fill="url(#paint14_radial_2667_5956)" fill-opacity="0.6"/>
<path d="M14.5519 7.03658H6.8532C5.81573 7.02782 4.97878 6.18673 4.97878 5.15291C4.97878 2.1916 8.51842 0.68466 10.637 2.7348L14.5519 6.53067V7.03658Z" fill="url(#paint15_radial_2667_5956)" fill-opacity="0.6"/>
<path d="M22.2771 26.2865H6.72292C5.69824 26.2865 4.875 25.4732 4.875 24.4609V13.1615H24.125V24.4609C24.125 25.4646 23.3018 26.2865 22.2771 26.2865Z" fill="url(#paint16_linear_2667_5956)"/>
<path d="M22.2771 26.2865H6.72292C5.69824 26.2865 4.875 25.4732 4.875 24.4609V13.1615H24.125V24.4609C24.125 25.4646 23.3018 26.2865 22.2771 26.2865Z" fill="url(#paint17_linear_2667_5956)"/>
<path d="M22.2771 26.2865H6.72292C5.69824 26.2865 4.875 25.4732 4.875 24.4609V13.1615H24.125V24.4609C24.125 25.4646 23.3018 26.2865 22.2771 26.2865Z" fill="url(#paint18_linear_2667_5956)"/>
<path d="M22.2771 26.2865H6.72292C5.69824 26.2865 4.875 25.4732 4.875 24.4609V13.1615H24.125V24.4609C24.125 25.4646 23.3018 26.2865 22.2771 26.2865Z" fill="url(#paint19_radial_2667_5956)"/>
<path d="M22.2771 26.2865H6.72292C5.69824 26.2865 4.875 25.4732 4.875 24.4609V13.1615H24.125V24.4609C24.125 25.4646 23.3018 26.2865 22.2771 26.2865Z" fill="url(#paint20_radial_2667_5956)"/>
<path d="M22.2771 26.2865H6.72292C5.69824 26.2865 4.875 25.4732 4.875 24.4609V13.1615H24.125V24.4609C24.125 25.4646 23.3018 26.2865 22.2771 26.2865Z" fill="url(#paint21_linear_2667_5956)"/>
<path d="M22.2771 26.2865H6.72292C5.69824 26.2865 4.875 25.4732 4.875 24.4609V13.1615H24.125V24.4609C24.125 25.4646 23.3018 26.2865 22.2771 26.2865Z" fill="url(#paint22_linear_2667_5956)"/>
<path d="M22.2771 26.2865H6.72292C5.69824 26.2865 4.875 25.4732 4.875 24.4609V13.1615H24.125V24.4609C24.125 25.4646 23.3018 26.2865 22.2771 26.2865Z" fill="url(#paint23_radial_2667_5956)"/>
<path d="M22.2771 26.2865H6.72292C5.69824 26.2865 4.875 25.4732 4.875 24.4609V13.1615H24.125V24.4609C24.125 25.4646 23.3018 26.2865 22.2771 26.2865Z" fill="url(#paint24_radial_2667_5956)"/>
<path d="M24.7039 7.0365H4.29615C3.64939 7.0365 3.125 7.56225 3.125 8.21067V11.9873C3.125 12.6358 3.64939 13.1615 4.29615 13.1615H24.7039C25.3506 13.1615 25.875 12.6358 25.875 11.9873V8.21067C25.875 7.56225 25.3506 7.0365 24.7039 7.0365Z" fill="url(#paint25_linear_2667_5956)"/>
<path d="M24.7039 7.0365H4.29615C3.64939 7.0365 3.125 7.56225 3.125 8.21067V11.9873C3.125 12.6358 3.64939 13.1615 4.29615 13.1615H24.7039C25.3506 13.1615 25.875 12.6358 25.875 11.9873V8.21067C25.875 7.56225 25.3506 7.0365 24.7039 7.0365Z" fill="url(#paint26_linear_2667_5956)"/>
<path d="M24.7039 7.0365H4.29615C3.64939 7.0365 3.125 7.56225 3.125 8.21067V11.9873C3.125 12.6358 3.64939 13.1615 4.29615 13.1615H24.7039C25.3506 13.1615 25.875 12.6358 25.875 11.9873V8.21067C25.875 7.56225 25.3506 7.0365 24.7039 7.0365Z" fill="url(#paint27_radial_2667_5956)" fill-opacity="0.8"/>
<path d="M24.7039 7.0365H4.29615C3.64939 7.0365 3.125 7.56225 3.125 8.21067V11.9873C3.125 12.6358 3.64939 13.1615 4.29615 13.1615H24.7039C25.3506 13.1615 25.875 12.6358 25.875 11.9873V8.21067C25.875 7.56225 25.3506 7.0365 24.7039 7.0365Z" fill="url(#paint28_radial_2667_5956)" fill-opacity="0.3"/>
<path d="M24.7039 7.0365H4.29615C3.64939 7.0365 3.125 7.56225 3.125 8.21067V11.9873C3.125 12.6358 3.64939 13.1615 4.29615 13.1615H24.7039C25.3506 13.1615 25.875 12.6358 25.875 11.9873V8.21067C25.875 7.56225 25.3506 7.0365 24.7039 7.0365Z" fill="url(#paint29_radial_2667_5956)" fill-opacity="0.6"/>
<path d="M24.7039 7.0365H4.29615C3.64939 7.0365 3.125 7.56225 3.125 8.21067V11.9873C3.125 12.6358 3.64939 13.1615 4.29615 13.1615H24.7039C25.3506 13.1615 25.875 12.6358 25.875 11.9873V8.21067C25.875 7.56225 25.3506 7.0365 24.7039 7.0365Z" fill="url(#paint30_linear_2667_5956)"/>
<path d="M24.7039 7.0365H4.29615C3.64939 7.0365 3.125 7.56225 3.125 8.21067V11.9873C3.125 12.6358 3.64939 13.1615 4.29615 13.1615H24.7039C25.3506 13.1615 25.875 12.6358 25.875 11.9873V8.21067C25.875 7.56225 25.3506 7.0365 24.7039 7.0365Z" fill="url(#paint31_radial_2667_5956)"/>
<path d="M24.7039 7.0365H4.29615C3.64939 7.0365 3.125 7.56225 3.125 8.21067V11.9873C3.125 12.6358 3.64939 13.1615 4.29615 13.1615H24.7039C25.3506 13.1615 25.875 12.6358 25.875 11.9873V8.21067C25.875 7.56225 25.3506 7.0365 24.7039 7.0365Z" fill="url(#paint32_linear_2667_5956)"/>
<path d="M24.7039 7.0365H4.29615C3.64939 7.0365 3.125 7.56225 3.125 8.21067V11.9873C3.125 12.6358 3.64939 13.1615 4.29615 13.1615H24.7039C25.3506 13.1615 25.875 12.6358 25.875 11.9873V8.21067C25.875 7.56225 25.3506 7.0365 24.7039 7.0365Z" fill="url(#paint33_radial_2667_5956)"/>
<path d="M14.5043 2.6615C13.0513 2.6615 11.875 3.85948 11.875 5.33935V26.2865H17.125V5.33935C17.1336 3.85948 15.9573 2.6615 14.5043 2.6615Z" fill="url(#paint34_linear_2667_5956)"/>
<path d="M14.5043 2.6615C13.0513 2.6615 11.875 3.85948 11.875 5.33935V26.2865H17.125V5.33935C17.1336 3.85948 15.9573 2.6615 14.5043 2.6615Z" fill="url(#paint35_linear_2667_5956)"/>
<path d="M14.5043 2.6615C13.0513 2.6615 11.875 3.85948 11.875 5.33935V26.2865H17.125V5.33935C17.1336 3.85948 15.9573 2.6615 14.5043 2.6615Z" fill="url(#paint36_radial_2667_5956)"/>
<path d="M14.5043 2.6615C13.0513 2.6615 11.875 3.85948 11.875 5.33935V26.2865H17.125V5.33935C17.1336 3.85948 15.9573 2.6615 14.5043 2.6615Z" fill="url(#paint37_radial_2667_5956)"/>
<path d="M14.5043 2.6615C13.0513 2.6615 11.875 3.85948 11.875 5.33935V26.2865H17.125V5.33935C17.1336 3.85948 15.9573 2.6615 14.5043 2.6615Z" fill="url(#paint38_linear_2667_5956)"/>
<path d="M14.5043 2.6615C13.0513 2.6615 11.875 3.85948 11.875 5.33935V26.2865H17.125V5.33935C17.1336 3.85948 15.9573 2.6615 14.5043 2.6615Z" fill="url(#paint39_radial_2667_5956)"/>
<path d="M14.5043 2.6615C13.0513 2.6615 11.875 3.85948 11.875 5.33935V26.2865H17.125V5.33935C17.1336 3.85948 15.9573 2.6615 14.5043 2.6615Z" fill="url(#paint40_radial_2667_5956)"/>
<path d="M14.5043 2.6615C13.0513 2.6615 11.875 3.85948 11.875 5.33935V26.2865H17.125V5.33935C17.1336 3.85948 15.9573 2.6615 14.5043 2.6615Z" fill="url(#paint41_linear_2667_5956)"/>
<defs>
<radialGradient id="paint0_radial_2667_5956" cx="0" cy="0" r="1" gradientUnits="userSpaceOnUse" gradientTransform="translate(23.6909 3.62997) rotate(161.323) scale(3.49626 7.53125)">
<stop stop-color="#FB5157" stop-opacity="0.35"/>
<stop offset="0.760014" stop-color="#FB5157" stop-opacity="0.155599"/>
<stop offset="1" stop-color="#FB5157" stop-opacity="0"/>
</radialGradient>
<radialGradient id="paint1_radial_2667_5956" cx="0" cy="0" r="1" gradientUnits="userSpaceOnUse" gradientTransform="translate(19.2186 6.04181) rotate(-30.6716) scale(5.02693 4.79904)">
<stop stop-color="#FB5157" stop-opacity="0"/>
<stop offset="0.785828" stop-color="#FB5157" stop-opacity="0"/>
<stop offset="0.817688" stop-color="#FB5157" stop-opacity="0.153978"/>
<stop offset="0.841351" stop-color="#FB5157" stop-opacity="0.327228"/>
<stop offset="0.876786" stop-color="#FB5157" stop-opacity="0.68"/>
<stop offset="0.907275" stop-color="#FB5157" stop-opacity="0.867629"/>
<stop offset="0.926291" stop-color="#FB5157" stop-opacity="0.86"/>
<stop offset="0.957593" stop-color="#FB5157" stop-opacity="0.682713"/>
<stop offset="1" stop-color="#FB5157" stop-opacity="0"/>
</radialGradient>
<linearGradient id="paint2_linear_2667_5956" x1="20.3712" y1="7.45647" x2="20.3712" y2="5.83108" gradientUnits="userSpaceOnUse">
<stop offset="0.281039" stop-color="#CE280A"/>
<stop offset="0.773458" stop-color="#CE280A" stop-opacity="0.223506"/>
<stop offset="1" stop-color="#CE280A" stop-opacity="0"/>
</linearGradient>
<radialGradient id="paint3_radial_2667_5956" cx="0" cy="0" r="1" gradientUnits="userSpaceOnUse" gradientTransform="translate(23.8513 6.76575) rotate(-132.522) scale(1.47114 6.25607)">
<stop stop-color="#DE2236"/>
<stop offset="0.499788" stop-color="#DE2236"/>
<stop offset="0.782723" stop-color="#DE2236" stop-opacity="0.222514"/>
<stop offset="1" stop-color="#DE2236" stop-opacity="0"/>
</radialGradient>
<radialGradient id="paint4_radial_2667_5956" cx="0" cy="0" r="1" gradientUnits="userSpaceOnUse" gradientTransform="translate(20.449 1.25816) rotate(69.6521) scale(1.85194 7.8754)">
<stop stop-color="#DE2236"/>
<stop offset="0.499788" stop-color="#DE2236"/>
<stop offset="0.780931" stop-color="#DE2236" stop-opacity="0.222514"/>
<stop offset="1" stop-color="#DE2236" stop-opacity="0"/>
</radialGradient>
<linearGradient id="paint5_linear_2667_5956" x1="17.861" y1="3.20072" x2="18.6684" y2="4.12863" gradientUnits="userSpaceOnUse">
<stop stop-color="#B23C3E"/>
<stop offset="0.692708" stop-color="#B23C3E" stop-opacity="0.259759"/>
<stop offset="1" stop-color="#B23C3E" stop-opacity="0"/>
</linearGradient>
<radialGradient id="paint6_radial_2667_5956" cx="0" cy="0" r="1" gradientUnits="userSpaceOnUse" gradientTransform="translate(21.1783 7.20434) rotate(-78.9407) scale(5.31605 5.40963)">
<stop stop-color="#B23C3E" stop-opacity="0"/>
<stop offset="0.831316" stop-color="#B23C3E" stop-opacity="0"/>
<stop offset="0.877061" stop-color="#B23C3E" stop-opacity="0.259759"/>
<stop offset="0.936366" stop-color="#B23C3E" stop-opacity="0.626319"/>
<stop offset="1" stop-color="#B23C3E"/>
</radialGradient>
<linearGradient id="paint7_linear_2667_5956" x1="11.2961" y1="2.91893" x2="9.76533" y2="7.03658" gradientUnits="userSpaceOnUse">
<stop stop-color="#DF2332"/>
<stop offset="1" stop-color="#D9213B"/>
</linearGradient>
<linearGradient id="paint8_linear_2667_5956" x1="8.73256" y1="7.45647" x2="8.73256" y2="5.83108" gradientUnits="userSpaceOnUse">
<stop offset="0.175365" stop-color="#CE280A"/>
<stop offset="0.776867" stop-color="#CE280A" stop-opacity="0.211088"/>
<stop offset="1" stop-color="#CE280A" stop-opacity="0"/>
</linearGradient>
<radialGradient id="paint9_radial_2667_5956" cx="0" cy="0" r="1" gradientUnits="userSpaceOnUse" gradientTransform="translate(12.3459 7.28716) rotate(-173.603) scale(2.24891 5.91506)">
<stop offset="0.150943" stop-color="#BD1123"/>
<stop offset="1" stop-color="#BD1123" stop-opacity="0"/>
</radialGradient>
<radialGradient id="paint10_radial_2667_5956" cx="0" cy="0" r="1" gradientUnits="userSpaceOnUse" gradientTransform="translate(5.81772 6.84079) rotate(-57.1306) scale(1.36525 6.46324)">
<stop stop-color="#B23C3E"/>
<stop offset="0.664656" stop-color="#B23C3E" stop-opacity="0.326073"/>
<stop offset="1" stop-color="#B23C3E" stop-opacity="0"/>
</radialGradient>
<radialGradient id="paint11_radial_2667_5956" cx="0" cy="0" r="1" gradientUnits="userSpaceOnUse" gradientTransform="translate(11.0863 6.77709) rotate(-141.705) scale(6.40993 4.99098)">
<stop stop-color="#B23C3E" stop-opacity="0"/>
<stop offset="0.831316" stop-color="#B23C3E" stop-opacity="0"/>
<stop offset="0.879941" stop-color="#B23C3E" stop-opacity="0.259759"/>
<stop offset="0.936366" stop-color="#B23C3E" stop-opacity="0.626319"/>
<stop offset="1" stop-color="#B23C3E"/>
</radialGradient>
<radialGradient id="paint12_radial_2667_5956" cx="0" cy="0" r="1" gradientUnits="userSpaceOnUse" gradientTransform="translate(11.1904 3.91566) rotate(125.49) scale(2.19647 4.90806)">
<stop stop-color="#FB5157" stop-opacity="0.73"/>
<stop offset="0.177703" stop-color="#FB5157" stop-opacity="0.68"/>
<stop offset="0.490193" stop-color="#FB5157" stop-opacity="0.303009"/>
<stop offset="0.722196" stop-color="#FB5157" stop-opacity="0.04"/>
<stop offset="1" stop-color="#FB5157" stop-opacity="0"/>
</radialGradient>
<radialGradient id="paint13_radial_2667_5956" cx="0" cy="0" r="1" gradientUnits="userSpaceOnUse" gradientTransform="translate(11.1687 3.97286) rotate(128.157) scale(0.762168 5.04003)">
<stop stop-color="#FB5157" stop-opacity="0.95"/>
<stop offset="0.202351" stop-color="#FB5157" stop-opacity="0.79"/>
<stop offset="0.490193" stop-color="#FB5157" stop-opacity="0.303009"/>
<stop offset="0.722196" stop-color="#FB5157" stop-opacity="0.04"/>
<stop offset="1" stop-color="#FB5157" stop-opacity="0"/>
</radialGradient>
<radialGradient id="paint14_radial_2667_5956" cx="0" cy="0" r="1" gradientUnits="userSpaceOnUse" gradientTransform="translate(9.56231 2.90121) rotate(116.369) scale(0.570151 1.89412)">
<stop stop-color="#FB5157" stop-opacity="0.73"/>
<stop offset="0.177703" stop-color="#FB5157" stop-opacity="0.68"/>
<stop offset="0.424401" stop-color="#FB5157" stop-opacity="0.303009"/>
<stop offset="0.722196" stop-color="#FB5157" stop-opacity="0.04"/>
<stop offset="1" stop-color="#FB5157" stop-opacity="0"/>
</radialGradient>
<radialGradient id="paint15_radial_2667_5956" cx="0" cy="0" r="1" gradientUnits="userSpaceOnUse" gradientTransform="translate(8.85436 2.56406) rotate(97.1935) scale(0.637938 2.11932)">
<stop stop-color="#FB5157" stop-opacity="0.73"/>
<stop offset="0.177703" stop-color="#FB5157" stop-opacity="0.68"/>
<stop offset="0.424401" stop-color="#FB5157" stop-opacity="0.303009"/>
<stop offset="0.722196" stop-color="#FB5157" stop-opacity="0.04"/>
<stop offset="1" stop-color="#FB5157" stop-opacity="0"/>
</radialGradient>
<linearGradient id="paint16_linear_2667_5956" x1="4.875" y1="21.5287" x2="24.125" y2="21.5287" gradientUnits="userSpaceOnUse">
<stop stop-color="#F1A738"/>
<stop offset="1" stop-color="#FAD42C"/>
</linearGradient>
<linearGradient id="paint17_linear_2667_5956" x1="24.3937" y1="20.8724" x2="21.9207" y2="20.8724" gradientUnits="userSpaceOnUse">
<stop stop-color="#FFF733"/>
<stop offset="0.720904" stop-color="#FFF733" stop-opacity="0.136144"/>
<stop offset="1" stop-color="#FFF733" stop-opacity="0"/>
</linearGradient>
<linearGradient id="paint18_linear_2667_5956" x1="14.5" y1="11.8435" x2="14.5" y2="14.2552" gradientUnits="userSpaceOnUse">
<stop stop-color="#C97525"/>
<stop offset="0.808655" stop-color="#C97525" stop-opacity="0.142955"/>
<stop offset="1" stop-color="#C97525" stop-opacity="0"/>
</linearGradient>
<radialGradient id="paint19_radial_2667_5956" cx="0" cy="0" r="1" gradientUnits="userSpaceOnUse" gradientTransform="translate(2.93138 21.942) scale(7.03514 19.9576)">
<stop offset="0.215641" stop-color="#DE7550" stop-opacity="0.12"/>
<stop offset="0.648277" stop-color="#DE7550" stop-opacity="0.158562"/>
<stop offset="1" stop-color="#DE7550" stop-opacity="0"/>
</radialGradient>
<radialGradient id="paint20_radial_2667_5956" cx="0" cy="0" r="1" gradientUnits="userSpaceOnUse" gradientTransform="translate(12.0713 18.6849) rotate(-180) scale(1.71723 17.3947)">
<stop stop-color="#C87C28"/>
<stop offset="0.736532" stop-color="#C87C28" stop-opacity="0.111376"/>
<stop offset="1" stop-color="#C87C28" stop-opacity="0"/>
</radialGradient>
<linearGradient id="paint21_linear_2667_5956" x1="4.70689" y1="19.724" x2="7.61398" y2="19.724" gradientUnits="userSpaceOnUse">
<stop offset="0.062763" stop-color="#C2773F"/>
<stop offset="0.557292" stop-color="#C2773F" stop-opacity="0.319771"/>
<stop offset="0.751516" stop-color="#C2773F" stop-opacity="0.13"/>
<stop offset="0.869792" stop-color="#C2773F" stop-opacity="0.0544971"/>
<stop offset="1" stop-color="#C2773F" stop-opacity="0"/>
</linearGradient>
<linearGradient id="paint22_linear_2667_5956" x1="14.9488" y1="27.0882" x2="14.9488" y2="23.9228" gradientUnits="userSpaceOnUse">
<stop stop-color="#E68370"/>
<stop offset="0.696478" stop-color="#E68370" stop-opacity="0.202348"/>
<stop offset="0.81579" stop-color="#E68370" stop-opacity="0.0982455"/>
<stop offset="1" stop-color="#E68370" stop-opacity="0"/>
</linearGradient>
<radialGradient id="paint23_radial_2667_5956" cx="0" cy="0" r="1" gradientUnits="userSpaceOnUse" gradientTransform="translate(7.2093 27.6441) rotate(-90) scale(4.03663 11.4513)">
<stop offset="0.215641" stop-color="#DE7550"/>
<stop offset="0.804562" stop-color="#DE7550" stop-opacity="0.158562"/>
<stop offset="1" stop-color="#DE7550" stop-opacity="0"/>
</radialGradient>
<radialGradient id="paint24_radial_2667_5956" cx="0" cy="0" r="1" gradientUnits="userSpaceOnUse" gradientTransform="translate(7.38227 12.8678) rotate(88.2101) scale(0.960084 5.99092)">
<stop stop-color="#DE7550"/>
<stop offset="0.768755" stop-color="#DE7550" stop-opacity="0.158562"/>
<stop offset="1" stop-color="#DE7550" stop-opacity="0"/>
</radialGradient>
<linearGradient id="paint25_linear_2667_5956" x1="25.875" y1="10.5252" x2="3.12515" y2="10.4664" gradientUnits="userSpaceOnUse">
<stop stop-color="#F6D729"/>
<stop offset="1" stop-color="#F39B3A"/>
</linearGradient>
<linearGradient id="paint26_linear_2667_5956" x1="25.875" y1="10.099" x2="24.3636" y2="10.099" gradientUnits="userSpaceOnUse">
<stop stop-color="#FFF850"/>
<stop offset="0.695278" stop-color="#FFF850" stop-opacity="0.15634"/>
<stop offset="1" stop-color="#FFF850" stop-opacity="0"/>
</linearGradient>
<radialGradient id="paint27_radial_2667_5956" cx="0" cy="0" r="1" gradientUnits="userSpaceOnUse" gradientTransform="translate(21.9299 6.9487) rotate(90) scale(1.53707 9.53609)">
<stop stop-color="#FFF850" stop-opacity="0.6"/>
<stop offset="0.671477" stop-color="#FFF850" stop-opacity="0.15634"/>
<stop offset="1" stop-color="#FFF850" stop-opacity="0"/>
</radialGradient>
<radialGradient id="paint28_radial_2667_5956" cx="0" cy="0" r="1" gradientUnits="userSpaceOnUse" gradientTransform="translate(8.48056 7.04852) rotate(90) scale(2.11342 13.1118)">
<stop stop-color="#FFF850" stop-opacity="0.6"/>
<stop offset="0.671477" stop-color="#FFF850" stop-opacity="0.15634"/>
<stop offset="1" stop-color="#FFF850" stop-opacity="0"/>
</radialGradient>
<radialGradient id="paint29_radial_2667_5956" cx="0" cy="0" r="1" gradientUnits="userSpaceOnUse" gradientTransform="translate(25.1538 7.99592) rotate(-123.341) scale(0.955671 1.50355)">
<stop stop-color="white" stop-opacity="0.64"/>
<stop offset="0.672805" stop-color="white" stop-opacity="0.15634"/>
<stop offset="0.870446" stop-color="white" stop-opacity="0.0479534"/>
<stop offset="1" stop-color="white" stop-opacity="0"/>
</radialGradient>
<linearGradient id="paint30_linear_2667_5956" x1="14.5" y1="13.4404" x2="14.5" y2="11.7706" gradientUnits="userSpaceOnUse">
<stop offset="0.125527" stop-color="#E8AF21"/>
<stop offset="0.769626" stop-color="#E8AF21" stop-opacity="0.18586"/>
<stop offset="1" stop-color="#E8AF21" stop-opacity="0"/>
</linearGradient>
<radialGradient id="paint31_radial_2667_5956" cx="0" cy="0" r="1" gradientUnits="userSpaceOnUse" gradientTransform="translate(5.88372 13.7951) rotate(-90) scale(1.88376 13.5333)">
<stop offset="0.215641" stop-color="#DE7550"/>
<stop offset="0.804562" stop-color="#DE7550" stop-opacity="0.158562"/>
<stop offset="1" stop-color="#DE7550" stop-opacity="0"/>
</radialGradient>
<linearGradient id="paint32_linear_2667_5956" x1="3.14033" y1="10.4689" x2="4.63289" y2="10.4689" gradientUnits="userSpaceOnUse">
<stop stop-color="#BE7841"/>
<stop offset="0.606593" stop-color="#BE7841" stop-opacity="0.217187"/>
<stop offset="0.8324" stop-color="#BE7841" stop-opacity="0.0717493"/>
<stop offset="1" stop-color="#BE7841" stop-opacity="0"/>
</linearGradient>
<radialGradient id="paint33_radial_2667_5956" cx="0" cy="0" r="1" gradientUnits="userSpaceOnUse" gradientTransform="translate(12.7057 11.0013) rotate(-180) scale(2.21484 15.3398)">
<stop offset="0.188888" stop-color="#C57E10" stop-opacity="0.7"/>
<stop offset="0.763803" stop-color="#C57E10" stop-opacity="0.145026"/>
<stop offset="0.885514" stop-color="#C57E10" stop-opacity="0.072038"/>
<stop offset="1" stop-color="#C57E10" stop-opacity="0"/>
</radialGradient>
<linearGradient id="paint34_linear_2667_5956" x1="14.5068" y1="2.66308" x2="14.5068" y2="26.2854" gradientUnits="userSpaceOnUse">
<stop stop-color="#D12136"/>
<stop offset="1" stop-color="#B6246E"/>
</linearGradient>
<linearGradient id="paint35_linear_2667_5956" x1="11.9516" y1="14.6917" x2="12.4116" y2="14.6917" gradientUnits="userSpaceOnUse">
<stop stop-color="#BA1A27"/>
<stop offset="0.589026" stop-color="#BA1A27" stop-opacity="0.261528"/>
<stop offset="1" stop-color="#BA1A27" stop-opacity="0"/>
</linearGradient>
<radialGradient id="paint36_radial_2667_5956" cx="0" cy="0" r="1" gradientUnits="userSpaceOnUse" gradientTransform="translate(12.3896 3.70935) rotate(23.4986) scale(0.621535 3.46305)">
<stop stop-color="#BA1A27"/>
<stop offset="0.589026" stop-color="#BA1A27" stop-opacity="0.261528"/>
<stop offset="1" stop-color="#BA1A27" stop-opacity="0"/>
</radialGradient>
<radialGradient id="paint37_radial_2667_5956" cx="0" cy="0" r="1" gradientUnits="userSpaceOnUse" gradientTransform="translate(13.1578 3.00306) rotate(60.7086) scale(0.582514 3.24563)">
<stop stop-color="#BA1A27"/>
<stop offset="0.589026" stop-color="#BA1A27" stop-opacity="0.261528"/>
<stop offset="1" stop-color="#BA1A27" stop-opacity="0"/>
</radialGradient>
<linearGradient id="paint38_linear_2667_5956" x1="17.0852" y1="16.38" x2="16.3718" y2="16.38" gradientUnits="userSpaceOnUse">
<stop stop-color="#E44D57"/>
<stop offset="0.509552" stop-color="#E44D57" stop-opacity="0.272435"/>
<stop offset="0.705965" stop-color="#E44D57" stop-opacity="0.0833426"/>
<stop offset="1" stop-color="#E44D57" stop-opacity="0"/>
</linearGradient>
<radialGradient id="paint39_radial_2667_5956" cx="0" cy="0" r="1" gradientUnits="userSpaceOnUse" gradientTransform="translate(8.31251 17.2254) rotate(-58.9068) scale(15.9286 13.5023)">
<stop stop-color="#E44D57" stop-opacity="0"/>
<stop offset="0.960718" stop-color="#E44D57" stop-opacity="0"/>
<stop offset="0.976618" stop-color="#E44D57" stop-opacity="0.224248"/>
<stop offset="1" stop-color="#E44D57"/>
</radialGradient>
<radialGradient id="paint40_radial_2667_5956" cx="0" cy="0" r="1" gradientUnits="userSpaceOnUse" gradientTransform="translate(16.8279 4.18906) rotate(151.512) scale(0.563265 1.98977)">
<stop stop-color="#E44D57"/>
<stop offset="0.508631" stop-color="#E44D57" stop-opacity="0.272435"/>
<stop offset="1" stop-color="#E44D57" stop-opacity="0"/>
</radialGradient>
<linearGradient id="paint41_linear_2667_5956" x1="14.5" y1="26.5098" x2="14.5" y2="23.8711" gradientUnits="userSpaceOnUse">
<stop stop-color="#B3368C"/>
<stop offset="1" stop-color="#B3368C" stop-opacity="0"/>
</linearGradient>
</defs>
</svg>
