<svg width="96" height="96" viewBox="0 0 96 96" fill="none" xmlns="http://www.w3.org/2000/svg">
<g clip-path="url(#clip0_859_3936)">
<path d="M0 24.6154C0 11.0207 11.0207 0 24.6154 0H71.3846C84.9793 0 96 11.0207 96 24.6154V71.3846C96 84.9793 84.9793 96 71.3846 96H24.6154C11.0207 96 0 84.9793 0 71.3846V24.6154Z" fill="#4E5051"/>
<path d="M28.3181 68.045L26.2154 71.1991L29.9735 71.6954C32.6907 72.0543 37.0877 72.075 41.7379 71.0403C46.3888 70.0054 51.4965 67.8676 55.3771 63.7366C60.5026 58.2804 62.0551 52.8666 60.7191 47.6924C60.2733 45.966 60.5575 44.5507 61.3039 43.7662L122.862 -20.9368C123.412 -21.5146 124.023 -22.3537 124.337 -23.3354C124.662 -24.3505 124.758 -25.9407 123.499 -27.2004C122.239 -28.4601 120.649 -28.3636 119.634 -28.0388C118.652 -27.7247 117.813 -27.1137 117.235 -26.564L53.3187 34.243C52.3591 35.1558 50.4825 35.3173 47.9766 34.6943C43.753 33.6441 39.2764 34.9713 36.054 37.5731C32.8031 40.1977 30.5646 44.3474 31.2873 49.1174C31.9764 53.6651 32.207 56.8582 31.8061 59.6644C31.4153 62.4 30.3994 64.923 28.3181 68.045Z" fill="white" stroke="white" stroke-width="4.72217"/>
</g>
<defs>
<clipPath id="clip0_859_3936">
<path d="M0 24.6154C0 11.0207 11.0207 0 24.6154 0H71.3846C84.9793 0 96 11.0207 96 24.6154V71.3846C96 84.9793 84.9793 96 71.3846 96H24.6154C11.0207 96 0 84.9793 0 71.3846V24.6154Z" fill="white"/>
</clipPath>
</defs>
</svg>
