<svg width="96" height="96" viewBox="0 0 96 96" fill="none" xmlns="http://www.w3.org/2000/svg">
<rect width="96" height="96" rx="24.6154" fill="#FF5277"/>
<path d="M25.708 25.6877L24.7077 24.1872L26.4955 23.9511C27.7882 23.7804 29.88 23.7705 32.0923 24.2628C34.3048 24.7551 36.7347 25.7721 38.5809 27.7374C41.0193 30.3331 41.7578 32.9086 41.1222 35.3702C40.9102 36.1915 41.0454 36.8648 41.4005 37.238L70.6858 68.0194C70.9474 68.2943 71.2381 68.6935 71.3875 69.1605C71.542 69.6435 71.5879 70.4 70.9886 70.9992C70.3894 71.5985 69.6329 71.5526 69.1499 71.3981C68.6829 71.2487 68.2837 70.958 68.0088 70.6965L37.6016 41.7685C37.1451 41.3342 36.2523 41.2574 35.0602 41.5538C33.0509 42.0534 30.9213 41.422 29.3882 40.1843C27.8417 38.9357 26.7767 36.9615 27.1205 34.6922C27.4484 32.5287 27.5581 31.0097 27.3674 29.6747C27.1814 28.3733 26.6981 27.173 25.708 25.6877Z" fill="#E2E2E2" stroke="#E2E2E2" stroke-width="2.2465"/>
<path d="M70.3452 25.6877L71.3456 24.1872L69.5577 23.9511C68.265 23.7804 66.1732 23.7705 63.961 24.2628C61.7484 24.7551 59.3185 25.7721 57.4723 27.7374C55.034 30.3331 54.2954 32.9086 54.931 35.3702C55.1431 36.1915 55.0078 36.8648 54.6528 37.238L25.3674 68.0194C25.1059 68.2943 24.8152 68.6935 24.6657 69.1605C24.5112 69.6435 24.4653 70.4 25.0646 70.9992C25.6639 71.5985 26.4204 71.5526 26.9033 71.3981C27.3703 71.2487 27.7695 70.958 28.0444 70.6965L58.4516 41.7685C58.9081 41.3342 59.8009 41.2574 60.993 41.5538C63.0023 42.0534 65.132 41.422 66.665 40.1843C68.2115 38.9357 69.2765 36.9615 68.9327 34.6922C68.6049 32.5287 68.4951 31.0097 68.6859 29.6747C68.8718 28.3733 69.3551 27.173 70.3452 25.6877Z" fill="white" stroke="white" stroke-width="2.2465"/>
</svg>
