<svg width="96" height="96" viewBox="0 0 96 96" fill="none" xmlns="http://www.w3.org/2000/svg">
<rect width="96" height="96" rx="24.6154" fill="#4E5051"/>
<path fill-rule="evenodd" clip-rule="evenodd" d="M48.6248 27.1505C48.0348 27.0664 47.473 27.0664 46.8829 27.1505C46.3584 27.2254 45.9121 27.3391 45.0122 27.633L33.1831 31.5751C31.8046 32.0346 30.8748 33.3247 30.8748 34.7777V50.4403C30.8748 58.7152 35.9509 65.0047 45.773 69.1798C47.0388 69.7179 48.469 69.7179 49.7348 69.1798L50.3564 68.9099C59.7745 64.7324 64.633 58.5328 64.633 50.4403V34.7777C64.633 33.3247 63.7032 32.0346 62.3247 31.5751L50.813 27.7379C49.6938 27.3648 49.2076 27.2337 48.6248 27.1505ZM47.3598 30.4925C47.6335 30.4535 47.8742 30.4535 48.148 30.4925L48.3532 30.5274C48.6019 30.577 48.9041 30.6636 49.4809 30.8529L61.2572 34.7777V50.4403C61.2572 57.0667 57.275 62.1481 48.9997 65.8188L48.4022 66.0782C47.9923 66.2524 47.5155 66.2524 47.0936 66.073C38.4215 62.3868 34.2506 57.2188 34.2506 50.4403V34.7777L45.7622 30.9405C46.7047 30.6263 47.0224 30.5407 47.3598 30.4925ZM43.0397 41.1447C42.3805 40.4856 41.3118 40.4856 40.6527 41.1447C39.9935 41.8039 39.9935 42.8726 40.6527 43.5318L45.3668 48.246L40.6527 52.9601C39.9935 53.6193 39.9935 54.688 40.6527 55.3472C41.3118 56.0064 42.3805 56.0064 43.0397 55.3472L47.7539 50.633L52.468 55.3472C53.1272 56.0064 54.1959 56.0064 54.8551 55.3472C55.5143 54.688 55.5143 53.6193 54.8551 52.9601L50.1409 48.246L54.8551 43.5318C55.5143 42.8726 55.5143 41.8039 54.8551 41.1447C54.1959 40.4856 53.1272 40.4856 52.468 41.1447L47.7539 45.8589L43.0397 41.1447Z" fill="white"/>
</svg>
