<svg width="20" height="20" viewBox="0 0 20 20" fill="none" xmlns="http://www.w3.org/2000/svg">
<rect width="20" height="20" rx="10" fill="url(#paint0_linear_2357_5074)"/>
<path fill-rule="evenodd" clip-rule="evenodd" d="M14.0625 10.7917V9.96875C14.0625 9.22955 14.0621 8.71782 14.0372 8.31718C14.0128 7.92395 13.9674 7.70025 13.9049 7.53259C13.6515 6.85319 13.1156 6.31728 12.4362 6.06388C12.2685 6.00134 12.0448 5.95595 11.6516 5.93154C11.2509 5.90667 10.7392 5.90625 10 5.90625C9.2608 5.90625 8.74907 5.90667 8.34843 5.93154C7.9552 5.95595 7.7315 6.00134 7.56384 6.06388C6.88444 6.31728 6.34853 6.85319 6.09513 7.53259C6.03259 7.70025 5.9872 7.92395 5.96279 8.31718C5.93792 8.71782 5.9375 9.22955 5.9375 9.96875V10.7917C5.9375 10.9285 5.93775 10.9659 5.93925 10.9975C5.96472 11.5359 6.26583 12.0231 6.73596 12.2866C6.76357 12.3021 6.79692 12.3191 6.91926 12.3802L6.92533 12.3833C6.9464 12.3938 6.98064 12.4108 7.01404 12.4296C7.29127 12.585 7.50973 12.8182 7.64755 13.0938H12.3525C12.4903 12.8182 12.7087 12.585 12.986 12.4296C13.0194 12.4108 13.0536 12.3938 13.0746 12.3833L13.0747 12.3833L13.0807 12.3802C13.2031 12.3191 13.2364 12.3021 13.264 12.2866C13.7342 12.0231 14.0353 11.5359 14.0608 10.9975C14.0623 10.9659 14.0625 10.9285 14.0625 10.7917ZM13.125 13.8255C13.125 13.7937 13.125 13.7777 13.1257 13.763C13.1359 13.5476 13.2563 13.3528 13.4444 13.2473C13.4573 13.2401 13.4715 13.233 13.5 13.2188L13.5 13.2187C13.6139 13.1618 13.6709 13.1333 13.7225 13.1044C14.4747 12.6827 14.9564 11.9032 14.9972 11.0418C15 10.9828 15 10.9191 15 10.7917V9.96875C15 8.51362 15 7.78606 14.7833 7.20497C14.4348 6.27079 13.698 5.53392 12.7638 5.18549C12.1827 4.96875 11.4551 4.96875 10 4.96875C8.54487 4.96875 7.81731 4.96875 7.23622 5.18549C6.30204 5.53392 5.56517 6.27079 5.21674 7.20497C5 7.78606 5 8.51362 5 9.96875V10.7917C5 10.9191 5 10.9828 5.00279 11.0418C5.04355 11.9032 5.52534 12.6827 6.27753 13.1044C6.32909 13.1333 6.38606 13.1618 6.5 13.2188C6.52848 13.233 6.54273 13.2401 6.55562 13.2473C6.74367 13.3528 6.86411 13.5476 6.8743 13.763C6.875 13.7777 6.875 13.7937 6.875 13.8255V14.0313V14.8125C6.875 15.0714 7.08487 15.2812 7.34375 15.2812C7.60263 15.2812 7.8125 15.0714 7.8125 14.8125V14.0313H9.53125V14.8125C9.53125 15.0714 9.74112 15.2812 10 15.2812C10.2589 15.2812 10.4688 15.0714 10.4688 14.8125V14.0313H12.1875V14.8125C12.1875 15.0714 12.3974 15.2812 12.6562 15.2812C12.9151 15.2812 13.125 15.0714 13.125 14.8125V14.0313V13.8255ZM10 10.9062C9.74112 10.9062 9.53125 11.1161 9.53125 11.375V11.6875C9.53125 11.9464 9.74112 12.1562 10 12.1562C10.2589 12.1562 10.4688 11.9464 10.4688 11.6875V11.375C10.4688 11.1161 10.2589 10.9062 10 10.9062ZM11.4062 9.1875C11.4062 9.44638 11.6161 9.65625 11.875 9.65625C12.1339 9.65625 12.3438 9.44638 12.3438 9.1875C12.3438 8.92862 12.1339 8.71875 11.875 8.71875C11.6161 8.71875 11.4062 8.92862 11.4062 9.1875ZM11.875 7.78125C11.0983 7.78125 10.4688 8.41085 10.4688 9.1875C10.4688 9.96415 11.0983 10.5938 11.875 10.5938C12.6517 10.5938 13.2812 9.96415 13.2812 9.1875C13.2812 8.41085 12.6517 7.78125 11.875 7.78125ZM8.125 9.65625C7.86612 9.65625 7.65625 9.44638 7.65625 9.1875C7.65625 8.92862 7.86612 8.71875 8.125 8.71875C8.38388 8.71875 8.59375 8.92862 8.59375 9.1875C8.59375 9.44638 8.38388 9.65625 8.125 9.65625ZM6.71875 9.1875C6.71875 8.41085 7.34835 7.78125 8.125 7.78125C8.90165 7.78125 9.53125 8.41085 9.53125 9.1875C9.53125 9.96415 8.90165 10.5938 8.125 10.5938C7.34835 10.5938 6.71875 9.96415 6.71875 9.1875Z" fill="white"/>
<defs>
<linearGradient id="paint0_linear_2357_5074" x1="-10" y1="10" x2="10" y2="30" gradientUnits="userSpaceOnUse">
<stop stop-color="#B1B6BD"/>
<stop offset="1" stop-color="#99A2AD"/>
</linearGradient>
</defs>
</svg>
