<svg width="20" height="20" viewBox="0 0 20 20" fill="none" xmlns="http://www.w3.org/2000/svg">
<rect width="20" height="20" rx="10" fill="url(#paint0_linear_2357_5076)"/>
<path fill-rule="evenodd" clip-rule="evenodd" d="M12.5724 5.72788L13.9017 4.47464C13.908 4.46878 13.9122 4.46649 13.9136 4.4658C13.9152 4.46504 13.9165 4.46463 13.9182 4.46438C13.9222 4.46379 13.9309 4.4639 13.942 4.4687C13.9531 4.47349 13.9593 4.47991 13.9618 4.48351C13.9629 4.48505 13.9636 4.48648 13.9642 4.48827C13.9647 4.4899 13.9659 4.4944 13.9659 4.5031V5.44626C13.9659 5.75825 14.2188 6.01117 14.5308 6.01117H15.4608C15.47 6.01117 15.4747 6.01246 15.4764 6.013C15.4783 6.01358 15.4796 6.01426 15.4809 6.01519C15.4841 6.0174 15.49 6.0231 15.4943 6.0333C15.4987 6.04349 15.4986 6.05128 15.4981 6.05441C15.4981 6.05441 15.4979 6.05534 15.4975 6.05637C15.4974 6.05699 15.4971 6.05764 15.4969 6.05817C15.4969 6.05817 15.4941 6.06349 15.4879 6.06992L15.4863 6.07149L14.2122 7.40183L14.2095 7.40466C14.2095 7.40466 14.206 7.40794 14.2013 7.40994C14.1964 7.412 14.1912 7.413 14.1867 7.413H12.9821C12.825 7.413 12.675 7.4784 12.5681 7.59351L11.3205 8.93712C11.17 9.09912 11.1279 9.33398 11.2127 9.53814C11.2759 9.69042 11.3118 9.8553 11.3118 10.0231C11.3118 10.7072 10.7572 11.2618 10.0731 11.2618C9.38895 11.2618 8.83438 10.7072 8.83438 10.0231C8.83438 9.33893 9.38894 8.78438 10.0731 8.78438C10.1905 8.78438 10.3053 8.80055 10.4123 8.83012C10.6155 8.88634 10.8331 8.82467 10.9767 8.67019L12.4097 7.12805C12.5068 7.02355 12.5608 6.88617 12.5608 6.74352V5.75403C12.5608 5.75037 12.5616 5.7456 12.5638 5.74034C12.5661 5.73503 12.5693 5.73077 12.5724 5.72788ZM15.0957 4.5031C15.0957 3.48398 13.8739 2.95041 13.128 3.65128L12.6383 4.11301C11.8421 3.75777 10.9601 3.56028 10.032 3.56028C6.49607 3.56028 3.62964 6.42666 3.62964 9.96251C3.62964 13.4984 6.49607 16.3647 10.032 16.3647C13.5679 16.3647 16.4344 13.4984 16.4344 9.96251C16.4344 9.01744 16.2296 8.12019 15.862 7.31272L16.3008 6.85453L16.3017 6.85359C17.0163 6.11167 16.4847 4.88136 15.4608 4.88136H15.0957V4.5031ZM15.0051 8.20685C14.7851 8.42526 14.4879 8.5428 14.1867 8.5428H13.2284L12.3737 9.46326C12.4173 9.64168 12.4416 9.82943 12.4416 10.0231C12.4416 11.3312 11.3812 12.3916 10.0731 12.3916C8.76494 12.3916 7.70455 11.3311 7.70455 10.0231C7.70455 8.71496 8.76495 7.65457 10.0731 7.65457C10.1704 7.65457 10.2669 7.66047 10.362 7.67193L11.4309 6.52158V5.75403C11.4309 5.46209 11.5413 5.18286 11.7337 4.97072C11.1998 4.78879 10.6274 4.69009 10.032 4.69009C7.12006 4.69009 4.75947 7.05063 4.75947 9.96251C4.75947 12.8744 7.12006 15.2349 10.032 15.2349C12.9439 15.2349 15.3045 12.8744 15.3045 9.96251C15.3045 9.34696 15.199 8.75604 15.0051 8.20685Z" fill="white"/>
<defs>
<linearGradient id="paint0_linear_2357_5076" x1="-10" y1="10" x2="10" y2="30" gradientUnits="userSpaceOnUse">
<stop stop-color="#FFB73D"/>
<stop offset="1" stop-color="#FFA000"/>
</linearGradient>
</defs>
</svg>
