<svg width="268" height="174" viewBox="0 0 268 174" fill="none" xmlns="http://www.w3.org/2000/svg">
<g clip-path="url(#clip0)">
<path d="M268 81.5432C268 88.4532 265.388 95.1088 260.684 100.179C255.98 105.25 249.532 108.362 242.629 108.893C242.396 108.911 242.16 108.928 241.924 108.939V82.9042C241.924 82.644 241.866 82.3871 241.754 82.1522C241.642 81.9173 241.479 81.7104 241.276 81.5468C241.253 81.5228 241.227 81.5015 241.198 81.4835C241.173 81.4627 241.146 81.4439 241.117 81.4272C240.87 81.2682 240.586 81.1736 240.293 81.1521C239.999 81.1306 239.705 81.1828 239.436 81.3041L239.144 80.664C239.464 80.5187 239.811 80.4432 240.162 80.4425L220.091 63.1857C220.246 63.0099 220.408 62.8376 220.57 62.6653C224.354 58.6844 229.247 55.9275 234.617 54.7508C239.988 53.574 245.588 54.0315 250.695 56.0642C255.802 58.0968 260.18 61.6112 263.265 66.1532C266.35 70.6952 267.999 76.0561 268 81.5432Z" fill="#F2F2F2"/>
<path d="M6.96918 100.247C6.86936 99.7385 6.88257 99.2139 7.00788 98.7106C7.13319 98.2073 7.36755 97.7375 7.69445 97.3344C8.02136 96.9313 8.43284 96.6046 8.89994 96.3773C9.36704 96.1501 9.87838 96.0278 10.3979 96.0191L26.2415 77.1962L30.1969 82.2434L14.0501 99.7613C14.0069 100.633 13.6446 101.459 13.0319 102.083C12.4193 102.706 11.5988 103.083 10.726 103.143C9.8532 103.203 8.98868 102.941 8.29628 102.408C7.60387 101.874 7.13168 101.105 6.96919 100.247H6.96918Z" fill="#FFB8B8"/>
<path d="M82.2044 77.0799C82.0935 77.2399 81.9954 77.4085 81.9111 77.5839L64.6115 80.0519L61.9846 76.7234L56.4332 80.0235L61.6515 88.1434L82.7501 81.9362C83.3068 82.4392 84.0038 82.7611 84.7484 82.8591C85.493 82.9572 86.2498 82.8266 86.9182 82.4849C87.5866 82.1432 88.135 81.6065 88.4903 80.9462C88.8457 80.2859 88.9912 79.5333 88.9075 78.7884C88.8238 78.0435 88.5149 77.3418 88.0218 76.7764C87.5288 76.211 86.8749 75.8089 86.1473 75.6234C85.4196 75.4379 84.6526 75.4779 83.9483 75.7381C83.244 75.9983 82.6357 76.4663 82.2044 77.0799Z" fill="#FFB8B8"/>
<path d="M52.654 139.97L55.7154 143.012L68.9295 132.676L64.4113 128.186L52.654 139.97Z" fill="#FFB8B8"/>
<path d="M58.7889 151.716L49.1677 142.155L52.869 138.445L58.7729 144.312C59.2611 144.797 59.6487 145.374 59.9137 146.008C60.1787 146.643 60.3159 147.324 60.3173 148.011C60.3188 148.699 60.1846 149.38 59.9224 150.015C59.6601 150.651 59.2749 151.229 58.7889 151.716L58.7889 151.716Z" fill="#2F2E41"/>
<path d="M36.3813 169.149H40.7014L42.7565 152.519H36.3806L36.3813 169.149Z" fill="#FFB8B8"/>
<path d="M49.0329 173.152L35.4556 173.153L35.4554 167.917L43.7869 167.917C44.4758 167.917 45.1579 168.052 45.7944 168.315C46.4308 168.579 47.0091 168.964 47.4963 169.45C47.9834 169.936 48.3698 170.514 48.6335 171.149C48.8972 171.784 49.0329 172.465 49.0329 173.152Z" fill="#2F2E41"/>
<path d="M35.4422 156.305L30.5214 120.087C29.7513 114.613 29.9903 109.046 31.2266 103.658C32.2364 99.3281 33.6005 96.3289 35.2813 94.744C35.5465 94.4956 35.8861 94.3409 36.2479 94.3035L52.4947 92.6144C52.8076 92.5825 53.1232 92.6401 53.4046 92.7804C53.686 92.9208 53.9216 93.1381 54.0839 93.4071L54.618 94.2953C54.6828 94.4031 54.7351 94.518 54.7738 94.6377L58.2088 105.265C58.2601 105.426 58.3429 105.575 58.4523 105.703C58.5617 105.831 58.6955 105.937 58.8461 106.013C64.2544 108.769 81.8221 118.071 80.8167 122.085C79.8721 125.856 71.028 131.97 68.3399 133.754C68.0662 133.937 67.7438 134.033 67.4145 134.031C67.0853 134.028 66.7643 133.927 66.4934 133.74L62.0313 130.693C61.8134 130.545 61.6344 130.346 61.5092 130.114C61.3841 129.882 61.3163 129.624 61.3117 129.36C61.3071 129.097 61.3657 128.836 61.4827 128.6C61.5997 128.364 61.7716 128.159 61.9842 128.003L65.0613 125.74C65.2496 125.601 65.3965 125.414 65.4862 125.198C65.5759 124.983 65.6049 124.747 65.5703 124.516C65.5356 124.285 65.4385 124.068 65.2894 123.888C65.1403 123.708 64.9449 123.572 64.7241 123.495L48.1983 117.708C48.0127 117.643 47.8147 117.621 47.6194 117.644C47.4242 117.668 47.2369 117.735 47.0719 117.842C46.907 117.949 46.7688 118.092 46.668 118.261C46.5672 118.429 46.5065 118.619 46.4905 118.814L43.4434 155.982C43.4098 156.381 43.2327 156.754 42.9449 157.032C42.6571 157.31 42.278 157.475 41.8779 157.496L37.1633 157.731C37.1346 157.733 37.1062 157.733 37.0777 157.733C36.6776 157.735 36.2906 157.591 35.9895 157.328C35.6884 157.065 35.4937 156.701 35.4422 156.305Z" fill="#2F2E41"/>
<path d="M42.8933 62.6282C47.6732 62.6282 51.548 58.761 51.548 53.9906C51.548 49.2203 47.6732 45.3531 42.8933 45.3531C38.1135 45.3531 34.2386 49.2203 34.2386 53.9906C34.2386 58.761 38.1135 62.6282 42.8933 62.6282Z" fill="#FFB8B8"/>
<path d="M34.7983 93.2645L28.4277 70.0663L28.5368 69.9929C28.6736 69.9008 42.405 60.8516 58.4818 68.144L58.7733 68.3109L54.9983 92.3892C54.9159 92.9387 54.6441 93.4423 54.2295 93.8131C53.815 94.184 53.2838 94.3988 52.7275 94.4207L37.1938 95.017C37.1625 95.018 37.1313 95.0188 37.1002 95.0188C36.5766 95.02 36.0672 94.8487 35.651 94.5315C35.2348 94.2144 34.9351 93.769 34.7983 93.2645Z" fill="#CCCCCC"/>
<path d="M28.1853 85.1687L22.8795 79.0793C22.6239 78.7867 22.48 78.4135 22.4732 78.0254C22.4663 77.6374 22.5969 77.2593 22.842 76.9579L28.3886 70.1196L32.6465 71.2786L34.9039 79.1638L30.7879 85.0323C30.6443 85.2382 30.4554 85.4085 30.2355 85.5301C30.0157 85.6518 29.7708 85.7215 29.5197 85.7339C29.49 85.7353 29.4605 85.736 29.431 85.736C29.1947 85.7365 28.9611 85.6861 28.7461 85.5881C28.5311 85.4902 28.3398 85.3472 28.1853 85.1687Z" fill="#CCCCCC"/>
<path d="M57.5257 83.9001C57.2747 83.8877 57.0298 83.818 56.81 83.6964C56.5901 83.5748 56.4012 83.4044 56.2576 83.1985L52.1416 77.3301L54.1214 69.0297L58.0417 67.9626L58.7733 68.311L64.2035 75.1242C64.4485 75.4256 64.5791 75.8036 64.5723 76.1917C64.5654 76.5798 64.4215 76.953 64.166 77.2456L58.8602 83.335C58.7057 83.5134 58.5144 83.6565 58.2994 83.7544C58.0844 83.8523 57.8508 83.9028 57.6145 83.9023C57.585 83.9023 57.5554 83.9015 57.5257 83.9001Z" fill="#CCCCCC"/>
<path d="M241.924 81.181C241.928 81.2686 241.897 81.3541 241.84 81.4202C241.779 81.4911 241.692 81.5349 241.599 81.5422C241.506 81.5495 241.414 81.5195 241.343 81.4589L240.162 80.4425L220.091 63.1858L163.796 14.7775C163.475 14.5032 163.066 14.3527 162.643 14.3533C162.22 14.354 161.812 14.5057 161.491 14.7811L85.6812 80.5129L84.9976 81.1037C84.9714 81.1268 84.9416 81.1458 84.9095 81.1599C84.8531 81.1849 84.7911 81.1946 84.7297 81.1881C84.6417 81.1787 84.5602 81.1374 84.5007 81.072C84.4701 81.0374 84.4467 80.9971 84.4317 80.9535C84.4167 80.9098 84.4105 80.8636 84.4134 80.8175C84.4164 80.7715 84.4284 80.7264 84.4488 80.685C84.4692 80.6436 84.4976 80.6066 84.5324 80.5762L84.6275 80.4918L161.03 14.25C161.478 13.8652 162.05 13.653 162.642 13.6517C163.234 13.6504 163.807 13.8601 164.257 14.243L220.57 62.6653L241.801 80.9243C241.838 80.9564 241.868 80.9957 241.889 81.0399C241.911 81.084 241.922 81.1321 241.924 81.181Z" fill="#3F3D56"/>
<path d="M199.121 91.566L198.194 89.0199L195.002 80.228L188.124 61.2973L180.435 40.1369L166.569 1.96948C166.297 1.22518 165.74 0.618899 165.021 0.283396C164.301 -0.0521063 163.478 -0.0894836 162.731 0.179449L82.5627 29.1892C81.8167 29.4607 81.209 30.0162 80.8728 30.7341C80.5366 31.452 80.4993 32.2737 80.7692 33.019L100.428 87.1279L100.763 88.0528L121.398 97.3863L127.198 100.01L128.139 100.435L152.696 111.545L153.647 111.2L169.754 105.373L194.051 96.5809L197.324 95.3958C198.071 95.1246 198.679 94.5693 199.016 93.8514C199.352 93.1336 199.39 92.3118 199.121 91.566Z" fill="#E6E6E6"/>
<path d="M165.505 46.4952C165.105 45.3998 164.286 44.5074 163.228 44.0136C162.17 43.5198 160.958 43.465 159.86 43.8611L128.139 55.3434L112.821 60.8858C112.277 61.0821 111.777 61.3836 111.349 61.7729C110.922 62.1623 110.575 62.6319 110.33 63.1549C110.084 63.678 109.945 64.2442 109.919 64.8211C109.892 65.3981 109.981 65.9746 110.178 66.5176C110.375 67.0606 110.678 67.5595 111.068 67.9857C111.459 68.4119 111.93 68.7571 112.454 69.0016C112.978 69.2461 113.546 69.3851 114.124 69.4106C114.702 69.4361 115.28 69.3476 115.823 69.1502L128.139 64.6944L162.865 52.129C163.963 51.7299 164.857 50.9127 165.352 49.8566C165.847 48.8005 165.902 47.5917 165.505 46.4952Z" fill="white"/>
<path d="M171.09 61.8705C170.69 60.7751 169.871 59.8827 168.813 59.3889C167.755 58.8951 166.543 58.8403 165.445 59.2364L160.071 61.1812L128.139 72.7373L118.406 76.2575C117.309 76.6557 116.415 77.4723 115.92 78.5282C115.426 79.584 115.371 80.7925 115.769 81.8883C116.167 82.984 116.985 83.8772 118.042 84.3717C119.099 84.8662 120.31 84.9215 121.409 84.5255L128.139 82.0883L168.451 67.5008C168.542 67.4692 168.63 67.4305 168.718 67.3918C169.742 66.9436 170.556 66.1238 170.997 65.0986C171.437 64.0733 171.47 62.9193 171.09 61.8705Z" fill="white"/>
<path d="M176.735 77.4075C176.336 76.3124 175.518 75.4199 174.46 74.9261C173.402 74.4323 172.192 74.3774 171.093 74.7735L156.022 80.228L144.355 84.4516L128.139 90.3176L124.051 91.7981C123.107 92.1416 122.308 92.7966 121.787 93.6548C121.266 94.513 121.054 95.5229 121.186 96.5176C121.227 96.8136 121.298 97.1047 121.398 97.3863L127.198 100.01L128.139 99.6686H128.146L157.573 89.0199L174.096 83.0414C175.194 82.6431 176.089 81.826 176.584 80.7696C177.078 79.7132 177.133 78.504 176.735 77.4075H176.735Z" fill="white"/>
<path d="M143.707 31.3802C143.307 30.2848 142.488 29.3924 141.43 28.8986C140.372 28.4048 139.16 28.35 138.062 28.7461L119.844 35.3365C118.746 35.7346 117.852 36.5513 117.358 37.6071C116.863 38.6629 116.809 39.8715 117.207 40.9672C117.605 42.0629 118.422 42.9562 119.479 43.4507C120.537 43.9452 121.748 44.0005 122.846 43.6044L128.611 41.519L132.427 40.1369L141.068 37.0105C142.165 36.6122 143.059 35.7956 143.554 34.7401C144.049 33.6845 144.104 32.4761 143.707 31.3802Z" fill="white"/>
<path d="M216.409 40.1369H131.134C130.631 40.1374 130.136 40.2643 129.695 40.5058C129.254 40.7473 128.882 41.0958 128.611 41.519C128.302 41.9981 128.138 42.5562 128.139 43.1261V100.435L152.696 111.545L156.156 113.11L161.621 115.582C161.942 115.726 162.289 115.801 162.64 115.801C162.991 115.801 163.338 115.726 163.658 115.582L169.124 113.11L186.228 105.373L202.169 98.16L219.404 90.3668V43.1261C219.403 42.3335 219.088 41.5735 218.526 41.013C217.965 40.4525 217.203 40.1374 216.409 40.1369Z" fill="currentColor"/>
<path d="M198.79 80.228H148.753C147.615 80.2286 146.522 80.6688 145.702 81.4561C144.882 82.2435 144.399 83.317 144.355 84.4516C144.349 84.5089 144.347 84.5664 144.348 84.6239C144.35 85.7893 144.814 86.9065 145.64 87.7305C146.466 88.5546 147.585 89.0182 148.753 89.0199H198.79C199.958 89.0199 201.078 88.5567 201.905 87.7323C202.731 86.9079 203.195 85.7898 203.195 84.6239C203.195 83.458 202.731 82.3399 201.905 81.5155C201.078 80.6911 199.958 80.228 198.79 80.228Z" fill="white"/>
<path d="M201.641 97.6289C200.847 96.9508 199.835 96.579 198.79 96.5809H148.753C147.585 96.5809 146.464 97.0441 145.638 97.8685C144.812 98.6929 144.348 99.811 144.348 100.977C144.348 102.143 144.812 103.261 145.638 104.085C146.464 104.91 147.585 105.373 148.753 105.373H186.228L202.169 98.1599C202.009 97.9683 201.832 97.7907 201.641 97.6289Z" fill="white"/>
<path d="M156.156 113.11L161.621 115.582C161.942 115.726 162.289 115.801 162.64 115.801C162.991 115.801 163.338 115.726 163.658 115.582L169.124 113.11H156.156Z" fill="white"/>
<path d="M187.599 61.4871C187.288 60.6409 186.725 59.9101 185.985 59.3937C185.246 58.8773 184.365 58.6002 183.462 58.5999H164.081C163.235 58.6006 162.407 58.8445 161.696 59.3022C160.985 59.7599 160.421 60.4122 160.071 61.1812C159.81 61.7506 159.675 62.3696 159.676 62.9958C159.678 64.1612 160.143 65.2784 160.968 66.1024C161.794 66.9265 162.913 67.3901 164.081 67.3918H183.462C184.17 67.3919 184.868 67.2213 185.497 66.8946C186.125 66.5679 186.665 66.0946 187.071 65.5151C187.478 64.9355 187.737 64.2668 187.829 63.5655C187.921 62.8643 187.842 62.1513 187.599 61.4871Z" fill="white"/>
<path d="M184.519 105.373L167.415 113.11L163.366 114.942C163.138 115.045 162.89 115.098 162.64 115.098C162.39 115.098 162.142 115.045 161.914 114.942L157.865 113.11H156.156L161.621 115.582C161.942 115.726 162.289 115.801 162.64 115.801C162.991 115.801 163.338 115.726 163.658 115.582L169.124 113.11L186.228 105.373H184.519ZM184.519 105.373L167.415 113.11L163.366 114.942C163.138 115.045 162.89 115.098 162.64 115.098C162.39 115.098 162.142 115.045 161.914 114.942L157.865 113.11H156.156L161.621 115.582C161.942 115.726 162.289 115.801 162.64 115.801C162.991 115.801 163.338 115.726 163.658 115.582L169.124 113.11L186.228 105.373H184.519ZM184.519 105.373L167.415 113.11L163.366 114.942C163.138 115.045 162.89 115.098 162.64 115.098C162.39 115.098 162.142 115.045 161.914 114.942L157.865 113.11H156.156L161.621 115.582C161.942 115.726 162.289 115.801 162.64 115.801C162.991 115.801 163.338 115.726 163.658 115.582L169.124 113.11L186.228 105.373H184.519ZM241.924 81.181C241.794 81.052 241.651 80.9365 241.498 80.8364C241.152 80.6124 240.754 80.4792 240.343 80.4491C239.932 80.4189 239.519 80.4929 239.144 80.6641L201.641 97.6289L184.519 105.373L167.414 113.11L163.366 114.942C163.138 115.045 162.89 115.098 162.64 115.098C162.39 115.098 162.142 115.045 161.914 114.942L157.865 113.11L153.647 111.2L128.146 99.6686L128.139 99.6651L121.186 96.5176L100.428 87.1279L86.1358 80.6641C85.9904 80.5969 85.8379 80.5462 85.6812 80.5129C85.3361 80.4268 84.9759 80.4196 84.6276 80.4918C84.0703 80.6056 83.5694 80.9077 83.2093 81.3472C82.8492 81.7866 82.652 82.3366 82.6508 82.9042V171.221C82.6515 171.873 82.9116 172.499 83.374 172.961C83.8365 173.422 84.4634 173.682 85.1174 173.682H240.162C240.816 173.682 241.443 173.422 241.906 172.961C242.368 172.499 242.628 171.873 242.629 171.221V82.9042C242.63 82.2597 242.377 81.6406 241.924 81.181V81.181ZM241.924 171.221C241.924 171.687 241.738 172.134 241.408 172.464C241.078 172.794 240.63 172.979 240.162 172.979H85.1174C84.6502 172.979 84.2022 172.794 83.8718 172.464C83.5414 172.134 83.3557 171.687 83.3555 171.221V82.9042C83.3557 82.6104 83.4296 82.3212 83.5706 82.0632C83.7115 81.8052 83.915 81.5865 84.1625 81.4272C84.3366 81.3159 84.5284 81.2351 84.7297 81.1881C84.7891 81.1753 84.8491 81.1659 84.9095 81.1599C84.9784 81.15 85.0479 81.1453 85.1174 81.1459C85.3679 81.1462 85.6154 81.2001 85.8433 81.3041L100.763 88.0528L121.398 97.3863L127.198 100.01L128.139 100.435L152.696 111.545L156.156 113.11L161.621 115.582C161.942 115.726 162.289 115.801 162.64 115.801C162.991 115.801 163.338 115.726 163.658 115.582L169.124 113.11L186.228 105.373L202.169 98.16L239.436 81.3041C239.705 81.1829 239.999 81.1306 240.293 81.1521C240.586 81.1736 240.87 81.2682 241.117 81.4272C241.146 81.4439 241.173 81.4627 241.198 81.4835C241.226 81.5015 241.253 81.5228 241.276 81.5468C241.479 81.7104 241.642 81.9173 241.754 82.1522C241.866 82.3871 241.924 82.644 241.924 82.9042L241.924 171.221ZM184.519 105.373L167.415 113.11L163.366 114.942C163.138 115.045 162.89 115.098 162.64 115.098C162.39 115.098 162.142 115.045 161.914 114.942L157.865 113.11H156.156L161.621 115.582C161.942 115.726 162.289 115.801 162.64 115.801C162.991 115.801 163.338 115.726 163.658 115.582L169.124 113.11L186.228 105.373H184.519ZM184.519 105.373L167.415 113.11L163.366 114.942C163.138 115.045 162.89 115.098 162.64 115.098C162.39 115.098 162.142 115.045 161.914 114.942L157.865 113.11H156.156L161.621 115.582C161.942 115.726 162.289 115.801 162.64 115.801C162.991 115.801 163.338 115.726 163.658 115.582L169.124 113.11L186.228 105.373H184.519ZM127.198 100.01L128.139 100.435V99.6686L127.198 100.01ZM184.519 105.373L167.415 113.11L163.366 114.942C163.138 115.045 162.89 115.098 162.64 115.098C162.39 115.098 162.142 115.045 161.914 114.942L157.865 113.11H156.156L161.621 115.582C161.942 115.726 162.289 115.801 162.64 115.801C162.991 115.801 163.338 115.726 163.658 115.582L169.124 113.11L186.228 105.373H184.519Z" fill="#3F3D56"/>
<path d="M61.851 173.682H22.0326C21.9391 173.682 21.8495 173.645 21.7834 173.579C21.7173 173.513 21.6802 173.424 21.6802 173.331C21.6802 173.237 21.7173 173.148 21.7834 173.082C21.8495 173.016 21.9391 172.979 22.0326 172.979H61.851C61.9444 172.979 62.034 173.016 62.1001 173.082C62.1662 173.148 62.2033 173.237 62.2033 173.331C62.2033 173.424 62.1662 173.513 62.1001 173.579C62.034 173.645 61.9444 173.682 61.851 173.682Z" fill="#3F3D56"/>
<path d="M39.6026 60.3074C38.9525 59.9781 38.412 59.4679 38.0464 58.8385C37.6809 58.209 37.5059 57.4873 37.5428 56.7607C37.5797 56.034 37.8269 55.3337 38.2543 54.7443C38.6818 54.155 39.2713 53.7019 39.9514 53.44C42.563 52.4342 45.4908 54.4869 48.2284 53.9033C50.957 53.3216 52.5354 50.066 51.8841 47.3584C51.2328 44.6507 48.8623 42.6113 46.2485 41.6373C44.5413 41.0028 42.7131 40.7595 40.899 40.9254C39.085 41.0914 37.3315 41.6623 35.7684 42.596C34.2214 43.557 32.9331 44.8806 32.0153 46.4517C31.0975 48.0228 30.5782 49.7938 30.5023 51.6108C30.4668 53.4294 30.912 55.2253 31.7931 56.8175C32.6742 58.4098 33.9602 59.7423 35.5214 60.6808C36.2172 61.081 37.0271 61.4024 37.8096 61.2222C38.452 61.0139 39.0573 60.7051 39.6026 60.3074Z" fill="#2F2E41"/>
<path d="M36.7979 42.3855C34.495 39.337 31.3863 36.8326 27.7688 35.591C24.1514 34.3494 20.0176 34.449 16.6202 36.2037C13.2227 37.9584 10.689 41.4432 10.4246 45.2519C9.98443 51.5908 15.4116 56.979 15.9685 63.3087C16.1451 65.3151 15.8188 67.3337 15.019 69.1828C14.2193 71.0319 12.9713 72.6535 11.3873 73.9014C9.80331 75.1493 7.93318 75.9844 5.94534 76.3314C3.95749 76.6784 1.91437 76.5265 0 75.8893C1.36353 77.0095 2.94443 77.8362 4.6434 78.3174C6.34236 78.7986 8.12268 78.9239 9.87252 78.6856C11.6195 78.4239 13.2862 77.7775 14.7518 76.7932C16.2175 75.809 17.4452 74.5116 18.3462 72.995C19.5676 70.8771 20.0691 68.4168 20.264 65.9809C20.5699 62.1291 20.1556 58.2542 19.042 54.5537C18.4333 52.5347 17.6077 50.457 17.9937 48.384C18.2138 47.3058 18.7464 46.3159 19.5255 45.5372C20.3045 44.7586 21.2956 44.2256 22.3757 44.0044C24.1211 43.678 25.9057 44.2096 27.5723 44.8215C29.2389 45.4333 30.9192 46.1414 32.6946 46.1819C34.4699 46.2224 36.4036 45.4114 37.0897 43.7767L36.7979 42.3855Z" fill="#2F2E41"/>
</g>
<defs>
<clipPath id="clip0">
<rect width="268" height="173.682" fill="white"/>
</clipPath>
</defs>
</svg>
