<svg width="268" height="120" viewBox="0 0 268 120" fill="none" xmlns="http://www.w3.org/2000/svg">
<g clip-path="url(#clip0)">
<path d="M114.093 76.0293H5.52055C4.05692 76.0277 2.6537 75.4454 1.61875 74.4103C0.583799 73.3752 0.00164283 71.9718 0 70.5079V4.20476C0.00123367 3.08999 0.444539 2.02124 1.23266 1.23296C2.02078 0.444688 3.08935 0.00127264 4.20394 0H115.347C116.478 0.00127422 117.563 0.45126 118.363 1.25123C119.162 2.0512 119.612 3.13582 119.614 4.26713V70.5079C119.612 71.9718 119.03 73.3752 117.995 74.4103C116.96 75.4454 115.557 76.0277 114.093 76.0293Z" fill="white"/>
<path d="M114.093 76.0293H5.52055C4.05692 76.0277 2.6537 75.4454 1.61875 74.4103C0.583799 73.3752 0.00164283 71.9718 0 70.5079V4.20476C0.00123367 3.08999 0.444539 2.02124 1.23266 1.23296C2.02078 0.444688 3.08935 0.00127264 4.20394 0H115.347C116.478 0.00127422 117.563 0.45126 118.363 1.25123C119.162 2.0512 119.612 3.13582 119.614 4.26713V70.5079C119.612 71.9718 119.03 73.3752 117.995 74.4103C116.96 75.4454 115.557 76.0277 114.093 76.0293ZM4.20394 1.19382C3.40582 1.19476 2.64066 1.51229 2.07631 2.07675C1.51197 2.64121 1.19453 3.40651 1.19363 4.20476V70.5079C1.19494 71.6553 1.65123 72.7552 2.4624 73.5665C3.27357 74.3778 4.37338 74.8342 5.52055 74.8355H114.093C115.24 74.8342 116.34 74.3778 117.151 73.5665C117.962 72.7552 118.419 71.6553 118.42 70.5079V4.26713C118.419 3.45233 118.095 2.67115 117.519 2.09498C116.943 1.51882 116.162 1.19474 115.347 1.19382H4.20394Z" fill="#E6E6E6"/>
<path d="M49.569 59.2423H17.0366C16.2406 59.2411 15.4721 58.9512 14.8737 58.4263C14.2753 57.9015 13.8875 57.1773 13.7824 56.3882C13.7627 56.2461 13.7532 56.1027 13.7541 55.9593V20.07C13.7551 19.1996 14.1012 18.3651 14.7166 17.7496C15.332 17.1341 16.1663 16.7879 17.0366 16.787H49.569C50.4393 16.7879 51.2737 17.1341 51.889 17.7496C52.5044 18.3651 52.8506 19.1996 52.8515 20.07V55.9593C52.8506 56.8297 52.5044 57.6642 51.889 58.2796C51.2737 58.8951 50.4393 59.2413 49.569 59.2423ZM17.0366 18.5777C16.641 18.5781 16.2617 18.7355 15.982 19.0153C15.7023 19.295 15.545 19.6743 15.5445 20.07V55.9593C15.5439 56.0206 15.5477 56.082 15.5559 56.1428C15.6016 56.5036 15.7771 56.8355 16.0496 57.0763C16.322 57.3172 16.6729 57.4506 17.0366 57.4516H49.569C49.9646 57.4511 50.3439 57.2938 50.6236 57.014C50.9033 56.7342 51.0606 56.3549 51.0611 55.9593V20.07C51.0606 19.6743 50.9033 19.295 50.6236 19.0153C50.3439 18.7355 49.9646 18.5781 49.569 18.5777H17.0366Z" fill="#E6E6E6"/>
<path d="M103.472 47.5727H64.0823C63.4491 47.5727 62.8419 47.3211 62.3942 46.8733C61.9465 46.4256 61.695 45.8183 61.695 45.185C61.695 44.5518 61.9465 43.9445 62.3942 43.4967C62.8419 43.0489 63.4491 42.7974 64.0823 42.7974H103.472C104.105 42.7974 104.713 43.0489 105.16 43.4967C105.608 43.9445 105.859 44.5518 105.859 45.185C105.859 45.8183 105.608 46.4256 105.16 46.8733C104.713 47.3211 104.105 47.5727 103.472 47.5727Z" fill="#E6E6E6"/>
<path d="M85.5677 37.4252H64.0823C63.4491 37.4252 62.8419 37.1736 62.3942 36.7258C61.9465 36.2781 61.695 35.6708 61.695 35.0375C61.695 34.4043 61.9465 33.797 62.3942 33.3492C62.8419 32.9014 63.4491 32.6499 64.0823 32.6499H85.5677C86.2008 32.6499 86.808 32.9014 87.2557 33.3492C87.7034 33.797 87.9549 34.4043 87.9549 35.0375C87.9549 35.6708 87.7034 36.2781 87.2557 36.7258C86.808 37.1736 86.2008 37.4252 85.5677 37.4252Z" fill="#E6E6E6"/>
<path d="M44.0295 37.0283C44.0295 42.3029 39.153 41.5051 33.1376 41.5051C27.1221 41.5051 22.2457 42.3029 22.2457 37.0283C22.2457 31.7536 24.6277 22.4039 33.1376 22.4039C41.9406 22.4039 44.0295 31.7536 44.0295 37.0283Z" fill="#2F2E41"/>
<path d="M44.4701 45.9055C44.26 45.299 43.8411 44.787 43.2884 44.4609C43.1817 44.3954 43.0699 44.3385 42.9541 44.2908C42.4694 44.0892 41.9364 44.0332 41.4203 44.1297C40.9042 44.2262 40.4274 44.471 40.0482 44.8341C39.669 45.1972 39.4038 45.663 39.2849 46.1745C39.1661 46.6859 39.1989 47.221 39.3792 47.7141L43.718 57.5781H49.4326L44.4701 45.9055Z" fill="#3F3D56"/>
<path d="M25.536 46.4427C25.193 46.2769 24.8189 46.1856 24.4382 46.1746C24.0575 46.1636 23.6787 46.2333 23.3268 46.379C22.9749 46.5247 22.6577 46.7431 22.3961 47.02C22.1345 47.2969 21.9344 47.626 21.8089 47.9857L17.7685 57.4915C17.9754 57.5493 18.1893 57.5784 18.4041 57.5781H23.4741L26.8997 49.7943C27.1282 49.166 27.1152 48.4752 26.8632 47.8558C26.6112 47.2365 26.1382 46.7329 25.536 46.4427Z" fill="#3F3D56"/>
<path d="M33.1012 41.4963C37.149 41.4963 40.4304 38.2144 40.4304 34.1659C40.4304 30.1174 37.149 26.8355 33.1012 26.8355C29.0534 26.8355 25.772 30.1174 25.772 34.1659C25.772 38.2144 29.0534 41.4963 33.1012 41.4963Z" fill="#FFB8B8"/>
<path d="M43.4166 44.5773C43.3749 44.5385 43.3331 44.4968 43.2884 44.4609C42.7775 44.0002 42.1728 43.6557 41.516 43.4512C40.8591 43.2466 40.1658 43.1869 39.4837 43.2761L25.9776 44.9862C24.7404 45.1393 23.6115 45.7684 22.8304 46.7402C22.0494 47.712 21.6776 48.9499 21.794 50.1913C21.979 52.2745 22.2774 54.9039 22.7549 57.5781H44.0911L44.8759 48.4573C44.939 47.7425 44.8407 47.0227 44.5881 46.3511C44.3355 45.6795 43.9351 45.0733 43.4166 44.5773Z" fill="#3F3D56"/>
<path d="M24.6329 33.4468H27.5318L28.8107 29.8653L29.0664 33.4468H30.4519L31.1979 31.3576L31.3471 33.4468H41.6422C41.6422 31.3887 40.8248 29.415 39.3698 27.9597C37.9148 26.5045 35.9413 25.6869 33.8836 25.6869H32.3916C30.3338 25.6869 28.3604 26.5045 26.9054 27.9597C25.4504 29.415 24.6329 31.3887 24.6329 33.4468Z" fill="#2F2E41"/>
<path d="M148.386 70.5079V4.26713C148.388 3.13582 148.838 2.0512 149.637 1.25123C150.437 0.45126 151.522 0.00127422 152.653 0H263.796C264.911 0.00127264 265.979 0.444688 266.767 1.23296C267.555 2.02124 267.999 3.08999 268 4.20476V70.5079C267.998 71.9718 267.416 73.3752 266.381 74.4103C265.346 75.4454 263.943 76.0277 262.479 76.0293H153.907C152.443 76.0277 151.04 75.4454 150.005 74.4103C148.97 73.3752 148.388 71.9718 148.386 70.5079Z" fill="white"/>
<path d="M148.386 70.5079V4.26713C148.388 3.13582 148.838 2.0512 149.637 1.25123C150.437 0.45126 151.522 0.00127422 152.653 0H263.796C264.911 0.00127264 265.979 0.444688 266.767 1.23296C267.555 2.02124 267.999 3.08999 268 4.20476V70.5079C267.998 71.9718 267.416 73.3752 266.381 74.4103C265.346 75.4454 263.943 76.0277 262.479 76.0293H153.907C152.443 76.0277 151.04 75.4454 150.005 74.4103C148.97 73.3752 148.388 71.9718 148.386 70.5079ZM152.653 1.19382C151.838 1.19474 151.057 1.51882 150.481 2.09498C149.905 2.67115 149.581 3.45233 149.58 4.26713V70.5079C149.581 71.6553 150.038 72.7552 150.849 73.5665C151.66 74.3778 152.76 74.8342 153.907 74.8355H262.479C263.627 74.8342 264.726 74.3778 265.538 73.5665C266.349 72.7552 266.805 71.6553 266.806 70.5079V4.20476C266.805 3.40651 266.488 2.64121 265.924 2.07675C265.359 1.51229 264.594 1.19476 263.796 1.19382H152.653Z" fill="#E6E6E6"/>
<path d="M215.148 55.9593V20.07C215.149 19.1996 215.496 18.3651 216.111 17.7496C216.726 17.1341 217.561 16.7879 218.431 16.787H250.963C251.834 16.7879 252.668 17.1341 253.283 17.7496C253.899 18.3651 254.245 19.1996 254.246 20.07V55.9593C254.247 56.1027 254.237 56.2461 254.218 56.3882C254.112 57.1773 253.725 57.9015 253.126 58.4263C252.528 58.9512 251.759 59.2411 250.963 59.2423H218.431C217.561 59.2413 216.726 58.8951 216.111 58.2796C215.496 57.6642 215.149 56.8297 215.148 55.9593ZM218.431 18.5777C218.035 18.5781 217.656 18.7355 217.376 19.0153C217.097 19.295 216.939 19.6743 216.939 20.07V55.9593C216.939 56.3549 217.097 56.7342 217.376 57.014C217.656 57.2938 218.035 57.4511 218.431 57.4516H250.963C251.327 57.4506 251.678 57.3172 251.95 57.0763C252.223 56.8355 252.398 56.5036 252.444 56.1428C252.452 56.082 252.456 56.0206 252.455 55.9593V20.07C252.455 19.6743 252.298 19.295 252.018 19.0153C251.738 18.7355 251.359 18.5781 250.963 18.5777H218.431Z" fill="#E6E6E6"/>
<path d="M162.141 45.185C162.141 44.552 162.393 43.9451 162.841 43.4975C163.288 43.0499 163.895 42.7981 164.528 42.7974H203.918C204.551 42.7974 205.158 43.0489 205.606 43.4967C206.053 43.9445 206.305 44.5518 206.305 45.185C206.305 45.8183 206.053 46.4256 205.606 46.8733C205.158 47.3211 204.551 47.5727 203.918 47.5727H164.528C163.895 47.5719 163.288 47.3201 162.841 46.8725C162.393 46.4249 162.141 45.818 162.141 45.185Z" fill="#E6E6E6"/>
<path d="M162.141 35.0375C162.141 34.4045 162.393 33.7976 162.841 33.35C163.288 32.9024 163.895 32.6506 164.528 32.6499H186.013C186.646 32.6499 187.254 32.9014 187.701 33.3492C188.149 33.797 188.4 34.4043 188.4 35.0375C188.4 35.6708 188.149 36.2781 187.701 36.7258C187.254 37.1736 186.646 37.4252 186.013 37.4252H164.528C163.895 37.4244 163.288 37.1727 162.841 36.725C162.393 36.2774 162.141 35.6705 162.141 35.0375Z" fill="#E6E6E6"/>
<path d="M226.657 30.7338C228.75 34.8475 230.398 39.0905 235.013 39.0905C237.229 39.0905 239.354 38.2101 240.921 36.6429C242.488 35.0757 243.368 32.9501 243.368 30.7338C243.368 28.5174 242.488 26.3918 240.921 24.8246C239.354 23.2574 237.229 22.377 235.013 22.377C230.323 22.3183 222.764 23.0767 226.657 30.7338Z" fill="#2F2E41"/>
<path d="M234.602 39.2533C238.649 39.2533 241.931 35.9714 241.931 31.9229C241.931 27.8744 238.649 24.5925 234.602 24.5925C230.554 24.5925 227.272 27.8744 227.272 31.9229C227.272 35.9714 230.554 39.2533 234.602 39.2533Z" fill="#A0616A"/>
<path d="M244.608 45.2847C244.135 44.7699 243.621 44.2947 243.071 43.864C240.665 41.9782 237.65 41.0433 234.599 41.2376C234.477 41.2436 234.355 41.2525 234.232 41.2645C232.466 41.4057 230.749 41.9217 229.197 42.778C227.646 43.6343 226.294 44.8113 225.232 46.2308C224.154 47.6719 223.396 49.3267 223.009 51.0845C222.622 52.8422 222.615 54.6623 222.988 56.4231C223.069 56.7961 223.14 57.1722 223.209 57.5483H247.505L247.786 55.668C248.066 53.8097 247.927 51.9122 247.377 50.1152C246.827 48.3182 245.88 46.6675 244.608 45.2847Z" fill="#3F3D56"/>
<path d="M248.329 47.2455C248.158 46.2648 247.648 45.3752 246.888 44.7317C246.129 44.0882 245.168 43.7315 244.172 43.7238C244.134 43.7238 244.092 43.7267 244.053 43.7267C243.721 43.7343 243.392 43.7804 243.071 43.864C242.532 44.0074 242.026 44.2559 241.583 44.5952C241.14 44.9345 240.769 45.358 240.49 45.8413C240.211 46.3247 240.03 46.8584 239.958 47.4118C239.886 47.9652 239.924 48.5274 240.069 49.0661L242.364 57.5482H250.087L248.329 47.2455Z" fill="#3F3D56"/>
<path d="M231.335 45.022C231.044 44.4503 230.626 43.9522 230.114 43.5656C229.752 43.2918 229.346 43.08 228.915 42.9388C228.738 42.8785 228.558 42.8306 228.375 42.7956C227.377 42.6067 226.344 42.7808 225.463 43.2865C224.582 43.7921 223.911 44.5961 223.57 45.5533L219.369 57.5482H227.342L231.409 48.7259C231.68 48.1438 231.815 47.5073 231.802 46.8653C231.789 46.2233 231.629 45.5927 231.335 45.022Z" fill="#3F3D56"/>
<path d="M226.824 27.7801C228.499 28.9347 230.487 29.5491 232.521 29.541C231.795 30.0442 230.969 30.3841 230.1 30.5372C232.804 31.1175 235.599 31.1332 238.31 30.5834C238.913 30.4867 239.494 30.287 240.029 29.993C240.296 29.8441 240.528 29.6408 240.71 29.3963C240.893 29.1519 241.023 28.8716 241.09 28.5739C241.27 27.5447 240.468 26.6096 239.635 25.9794C238.359 25.0292 236.888 24.3746 235.328 24.0629C233.768 23.7511 232.159 23.79 230.616 24.1768C229.608 24.4373 228.599 24.8774 227.944 25.6866C227.29 26.4958 227.096 27.7434 227.72 28.5767L226.824 27.7801Z" fill="#2F2E41"/>
<path d="M188.286 119.007H79.7138C78.2501 119.005 76.8469 118.423 75.812 117.388C74.777 116.353 74.1949 114.949 74.1932 113.486V47.1824C74.1945 46.0677 74.6378 44.9989 75.4259 44.2106C76.214 43.4223 77.2826 42.9789 78.3972 42.9777H189.54C190.672 42.9789 191.756 43.4289 192.556 44.2289C193.356 45.0289 193.806 46.1135 193.807 47.2448V113.486C193.805 114.949 193.223 116.353 192.188 117.388C191.153 118.423 189.75 119.005 188.286 119.007Z" fill="white"/>
<path d="M188.286 119.007H79.7138C78.2501 119.005 76.8469 118.423 75.812 117.388C74.777 116.353 74.1949 114.949 74.1932 113.486V47.1824C74.1945 46.0677 74.6378 44.9989 75.4259 44.2106C76.214 43.4223 77.2826 42.9789 78.3972 42.9777H189.54C190.672 42.9789 191.756 43.4289 192.556 44.2289C193.356 45.0289 193.806 46.1135 193.807 47.2448V113.486C193.805 114.949 193.223 116.353 192.188 117.388C191.153 118.423 189.75 119.005 188.286 119.007ZM78.3972 44.1715C77.5991 44.1724 76.8339 44.4899 76.2695 45.0544C75.7052 45.6189 75.3878 46.3842 75.3869 47.1824V113.486C75.3882 114.633 75.8445 115.733 76.6556 116.544C77.4668 117.355 78.5666 117.812 79.7138 117.813H188.286C189.433 117.812 190.533 117.355 191.344 116.544C192.156 115.733 192.612 114.633 192.613 113.486V47.2448C192.612 46.43 192.288 45.6488 191.712 45.0726C191.136 44.4965 190.355 44.1724 189.54 44.1715H78.3972Z" fill="#3F3D56"/>
<path d="M123.762 102.22H91.2298C90.4338 102.219 89.6654 101.929 89.0669 101.404C88.4685 100.879 88.0807 100.155 87.9756 99.3658C87.9559 99.2238 87.9464 99.0804 87.9473 98.937V63.0476C87.9483 62.1772 88.2944 61.3427 88.9098 60.7273C89.5252 60.1118 90.3595 59.7656 91.2298 59.7646H123.762C124.633 59.7656 125.467 60.1118 126.082 60.7273C126.698 61.3427 127.044 62.1772 127.045 63.0476V98.937C127.044 99.8074 126.698 100.642 126.082 101.257C125.467 101.873 124.633 102.219 123.762 102.22ZM91.2298 61.5554C90.8342 61.5558 90.455 61.7132 90.1753 61.9929C89.8955 62.2727 89.7382 62.652 89.7378 63.0476V98.937C89.7371 98.9983 89.7409 99.0597 89.7491 99.1205C89.7948 99.4813 89.9703 99.8131 90.2428 100.054C90.5153 100.295 90.8661 100.428 91.2298 100.429H123.762C124.158 100.429 124.537 100.271 124.817 99.9917C125.097 99.7119 125.254 99.3326 125.254 98.937V63.0476C125.254 62.652 125.097 62.2727 124.817 61.9929C124.537 61.7132 124.158 61.5558 123.762 61.5554H91.2298Z" fill="#E6E6E6"/>
<path d="M107.024 66.3258C104.906 65.3405 102.306 65.0174 100.151 65.9331C97.9959 66.8487 96.5267 69.1957 97.2235 71.2727C97.5395 72.2144 98.259 73.1405 97.9787 74.0916C97.7629 74.8237 97.0102 75.307 96.271 75.6507C95.5318 75.9943 94.7232 76.2832 94.1886 76.8629C93.654 77.4425 93.5425 78.4403 94.2103 78.8898C94.4303 79.0379 94.7053 79.1081 94.9187 79.2642C95.1005 79.4119 95.2317 79.6127 95.294 79.8386C95.3563 80.0645 95.3465 80.3042 95.2661 80.5243C95.0883 80.9671 94.7944 81.3538 94.4154 81.6437C93.6573 82.2976 92.6554 83.046 92.8908 83.9743C92.9781 84.2223 93.124 84.4457 93.316 84.6254C93.5081 84.805 93.7406 84.9357 93.994 85.0063C94.5201 85.1581 95.0659 85.2301 95.6134 85.2201L117.984 85.9249C118.722 85.9804 119.465 85.9389 120.193 85.8015C120.546 85.737 120.883 85.6001 121.181 85.3996C121.48 85.1991 121.734 84.9391 121.927 84.636C122.356 83.8429 122.074 82.866 121.545 82.1255C121.016 81.3849 120.268 80.8007 119.649 80.1207C119.03 79.4407 118.524 78.5918 118.633 77.7129C118.72 77.0094 119.184 76.4013 119.517 75.762C119.85 75.1228 120.044 74.3239 119.613 73.7358C119.005 72.9071 117.545 72.9821 116.854 72.2099C116.333 71.6271 116.434 70.7882 116.382 70.0367C116.257 68.2291 115.006 66.522 113.224 65.7292C112.319 65.3403 111.334 65.1725 110.35 65.2395C109.367 65.3064 108.413 65.6064 107.569 66.1145L107.024 66.3258Z" fill="#2F2E41"/>
<path d="M107.851 85.7515C111.899 85.7515 115.181 82.4696 115.181 78.4211C115.181 74.3727 111.899 71.0908 107.851 71.0908C103.804 71.0908 100.522 74.3727 100.522 78.4211C100.522 82.4696 103.804 85.7515 107.851 85.7515Z" fill="#A0616A"/>
<path d="M117.474 95.2182C117.467 93.9333 117.111 92.6745 116.444 91.576C115.778 90.4775 114.826 89.5804 113.69 88.9805C113.598 88.9297 113.502 88.8849 113.407 88.8402C112.582 88.4492 111.689 88.2221 110.778 88.1716L103.801 87.7807C102.816 87.7244 101.829 87.8759 100.906 88.2254C100.682 88.3091 100.461 88.4047 100.247 88.5119C99.5725 88.8441 98.9559 89.2824 98.4205 89.8102C97.7155 90.5063 97.1638 91.3423 96.801 92.2645C96.4381 93.1866 96.2722 94.1744 96.3138 95.1645L96.4392 98.1222L97.3165 100.399H116.823C117.065 100.106 117.275 99.788 117.45 99.4503C117.781 98.7947 117.955 98.0713 117.959 97.337C117.963 96.6027 117.797 95.8775 117.474 95.2182Z" fill="#3F3D56"/>
<path d="M116.996 91.2965C116.678 90.6057 116.179 90.0138 115.552 89.5833C115.1 89.2733 114.592 89.0525 114.057 88.9327C113.843 88.8856 113.625 88.8547 113.407 88.8402C112.976 88.8108 112.543 88.8481 112.123 88.9506C111.497 89.1064 110.914 89.4026 110.419 89.8168C109.924 90.231 109.529 90.7523 109.265 91.3413C109.001 91.9303 108.874 92.5717 108.894 93.2169C108.914 93.8622 109.081 94.4945 109.381 95.066L112.064 100.146L112.198 100.399H121.207L116.996 91.2965Z" fill="#3F3D56"/>
<path d="M102.252 88.6492C101.83 88.4344 101.375 88.2912 100.906 88.2254C100.557 88.1756 100.203 88.1706 99.853 88.2104C98.9615 88.3114 98.1247 88.6916 97.4622 89.2968C96.7998 89.902 96.3456 90.7011 96.1646 91.58L94.3473 100.399H101.455L102.783 99.8562L104.437 93.511C104.677 92.573 104.592 91.5811 104.195 90.6978C103.798 89.8145 103.113 89.0922 102.252 88.6492Z" fill="#3F3D56"/>
<path d="M100.353 77.379C102.668 77.1931 104.59 74.8805 104.349 72.5706C104.322 73.5227 104.646 74.4515 105.259 75.1804C105.872 75.9094 106.731 76.3875 107.674 76.5239C108.735 76.6409 109.899 76.3196 110.823 76.8553C111.847 77.4486 112.174 78.8895 113.241 79.402C114.271 79.8971 115.58 79.2218 116.089 78.1982C116.598 77.1746 116.473 75.9448 116.135 74.8525C115.654 73.2948 114.778 71.888 113.593 70.7692C112.407 69.6503 110.952 68.8575 109.369 68.4676C107.786 68.0778 106.13 68.1043 104.56 68.5445C102.991 68.9848 101.562 69.8238 100.412 70.98C99.4391 71.9591 98.6664 73.2069 98.541 74.5818C98.4157 75.9567 99.0534 77.4486 100.288 78.0663L100.353 77.379Z" fill="#2F2E41"/>
<path d="M177.665 90.5503H138.275C137.642 90.5503 137.035 90.2988 136.587 89.851C136.14 89.4032 135.888 88.7959 135.888 88.1627C135.888 87.5294 136.14 86.9221 136.587 86.4744C137.035 86.0266 137.642 85.775 138.275 85.775H177.665C178.299 85.775 178.906 86.0266 179.353 86.4744C179.801 86.9221 180.053 87.5294 180.053 88.1627C180.053 88.7959 179.801 89.4032 179.353 89.851C178.906 90.2988 178.299 90.5503 177.665 90.5503Z" fill="#E6E6E6"/>
<path d="M159.761 80.4028H138.275C137.642 80.4028 137.035 80.1513 136.587 79.7035C136.14 79.2557 135.888 78.6484 135.888 78.0152C135.888 77.3819 136.14 76.7746 136.587 76.3268C137.035 75.8791 137.642 75.6275 138.275 75.6275H159.761C160.394 75.6275 161.001 75.8791 161.449 76.3268C161.897 76.7746 162.148 77.3819 162.148 78.0152C162.148 78.6484 161.897 79.2557 161.449 79.7035C161.001 80.1513 160.394 80.4028 159.761 80.4028Z" fill="currentColor"/>
<path d="M171.289 97.8398C169.204 97.8436 167.206 98.6748 165.733 100.151C164.26 101.627 163.432 103.627 163.432 105.712C163.432 107.798 164.26 109.798 165.733 111.274C167.206 112.75 169.204 113.581 171.289 113.585H171.289C173.374 113.581 175.373 112.75 176.846 111.274C178.319 109.798 179.146 107.798 179.146 105.712C179.146 103.627 178.319 101.627 176.846 100.151C175.373 98.6748 173.374 97.8436 171.289 97.8398Z" fill="currentColor"/>
<path d="M170.542 108.982C170.335 108.982 170.133 108.915 169.968 108.791L169.957 108.783L167.793 107.127C167.591 106.972 167.459 106.742 167.425 106.49C167.392 106.237 167.461 105.981 167.616 105.779C167.771 105.577 168 105.444 168.252 105.411C168.505 105.377 168.761 105.445 168.963 105.6L170.365 106.675L173.679 102.352C173.755 102.252 173.851 102.168 173.961 102.105C174.07 102.042 174.191 102.001 174.316 101.984C174.441 101.967 174.568 101.976 174.69 102.008C174.812 102.041 174.927 102.097 175.027 102.174L175.027 102.174L175.006 102.203L175.028 102.174C175.23 102.33 175.362 102.559 175.395 102.812C175.429 103.065 175.36 103.321 175.205 103.523L171.308 108.606C171.218 108.723 171.102 108.818 170.97 108.883C170.837 108.948 170.691 108.981 170.543 108.981L170.542 108.982Z" fill="white"/>
</g>
<defs>
<clipPath id="clip0">
<rect width="268" height="119.007" fill="white"/>
</clipPath>
</defs>
</svg>
