<svg width="209" height="207" viewBox="0 0 209 207" fill="none" xmlns="http://www.w3.org/2000/svg">
<path d="M103.084 49.1276H101.947V18.0097C101.947 13.2333 100.05 8.65241 96.6723 5.27493C93.2949 1.89745 88.714 0 83.9375 0H18.0097C13.2333 0 8.65241 1.89745 5.27493 5.27493C1.89746 8.65241 0 13.2333 0 18.0097V188.725C0 193.502 1.89746 198.083 5.27493 201.46C8.65241 204.838 13.2333 206.735 18.0097 206.735H83.9373C88.7137 206.735 93.2946 204.838 96.6721 201.46C100.05 198.083 101.947 193.502 101.947 188.725V71.2779H103.083L103.084 49.1276Z" fill="#3F3D56"/>
<path d="M84.6641 4.68509H76.0584C76.4544 5.65542 76.6056 6.70825 76.4987 7.7508C76.3919 8.79336 76.0303 9.79363 75.4457 10.6635C74.8612 11.5333 74.0717 12.2461 73.1468 12.7389C72.2218 13.2317 71.1899 13.4894 70.1419 13.4894H32.3729C31.325 13.4893 30.2932 13.2315 29.3684 12.7387C28.4437 12.246 27.6542 11.5333 27.0698 10.6636C26.4853 9.79387 26.1236 8.79375 26.0167 7.75133C25.9098 6.70892 26.0609 5.65621 26.4567 4.68594H18.4176C14.8505 4.68594 11.4294 6.10298 8.90709 8.62533C6.38474 11.1477 4.96771 14.5687 4.96771 18.1359V188.6C4.96771 192.167 6.38474 195.588 8.90709 198.111C11.4294 200.633 14.8505 202.05 18.4176 202.05H84.6616C88.2287 202.05 91.6498 200.633 94.1721 198.111C96.6945 195.588 98.1115 192.167 98.1115 188.6V188.6V18.135C98.1115 14.5679 96.6945 11.1468 94.1721 8.62448C91.6498 6.10213 88.2287 4.68509 84.6616 4.68509H84.6641Z" fill="white"/>
<path d="M89.6867 38.2028H13.3962V168.532H89.6867V38.2028Z" fill="#E6E6E6"/>
<path d="M51.6547 192.524C55.7337 192.524 59.0404 189.217 59.0404 185.138C59.0404 181.059 55.7337 177.753 51.6547 177.753C47.5757 177.753 44.269 181.059 44.269 185.138C44.269 189.217 47.5757 192.524 51.6547 192.524Z" fill="#E6E6E6"/>
<path d="M86.9594 182.483L86.1157 190.639L90.8968 190.077L91.4593 183.327L86.9594 182.483Z" fill="#FFB9B9"/>
<path d="M74.3037 120.608C74.3037 120.608 49.8349 144.233 65.3037 151.546H70.0848C70.0848 151.546 80.4909 134.388 85.5535 134.671L86.9596 150.983L86.116 183.89L92.3035 184.171C92.3035 184.171 95.9597 167.577 95.6785 158.296L102.147 123.983L74.3037 120.608Z" fill="#2F2E41"/>
<path d="M66.7093 150.421L70.0843 151.546C70.0843 151.546 83.303 148.452 84.1455 148.734L86.7626 148.715L86.6774 141.983H75.4284L66.7093 150.421Z" fill="#2F2E41"/>
<path d="M91.4593 188.952C91.4593 188.952 86.3967 186.702 85.553 188.952C84.7093 191.202 84.9906 197.671 84.9906 197.671C85.6653 198.968 85.8643 200.461 85.553 201.89C84.9906 204.14 87.8031 205.265 91.4593 204.14C95.1155 203.015 95.1155 200.202 95.1155 200.202L91.4593 188.952Z" fill="#2F2E41"/>
<path d="M95.6779 141.42C95.6779 141.42 99.6153 139.169 99.3341 142.544C99.1007 144.773 98.5318 146.954 97.6465 149.013C97.6465 149.013 101.303 158.576 97.6465 159.419C93.9903 160.263 91.1777 158.294 91.1777 156.888C91.1777 155.482 95.6779 141.42 95.6779 141.42Z" fill="#2F2E41"/>
<path d="M83.3029 64.3586L83.8657 75.0463L88.6467 79.2644L93.9906 71.6708V64.0774L83.3029 64.3586Z" fill="#FFB9B9"/>
<path d="M86.9592 75.046L83.7396 72.6536L81.6156 75.8897L72.0531 81.5142L77.6776 96.139L77.9588 110.483C77.9588 110.483 67.5527 121.17 73.7402 122.577C79.9277 123.983 101.865 127.077 102.99 124.546C104.115 122.014 101.584 95.8581 101.584 95.8581L102.428 73.6393L93.9909 70.5888L86.9592 75.046Z" fill="currentColor"/>
<path d="M69.803 92.8589C69.803 92.8589 67.5529 108.795 71.7719 108.795C74.2773 108.803 76.7606 108.326 79.0843 107.389L75.7093 98.67L77.1154 92.7637L69.803 92.8589Z" fill="#FFB9B9"/>
<path d="M76.2718 106.827L79.3655 107.39C79.3655 107.39 88.3655 101.765 88.928 101.483C89.4904 101.202 79.928 96.4208 79.928 96.4208L73.4592 98.9521L76.2718 106.827Z" fill="#FFB9B9"/>
<path opacity="0.1" d="M79.928 96.4208L75.8658 98.0101L77.1157 92.7646L69.8033 92.8586C69.8033 92.8586 67.5532 108.795 71.7722 108.795C74.2776 108.803 76.761 108.326 79.0846 107.389L79.0633 107.333L79.3658 107.389C79.3658 107.389 88.3658 101.764 88.9283 101.482C89.4907 101.2 79.928 96.4208 79.928 96.4208Z" fill="black"/>
<path d="M89.8094 69.6914C94.2449 69.6914 97.8405 66.0957 97.8405 61.6603C97.8405 57.2249 94.2449 53.6292 89.8094 53.6292C85.374 53.6292 81.7783 57.2249 81.7783 61.6603C81.7783 66.0957 85.374 69.6914 89.8094 69.6914Z" fill="#FFB9B9"/>
<path d="M82.709 52.6001L81.1398 51.972C81.1398 51.972 84.4207 48.3598 88.9854 48.674L87.7014 47.2605C87.7014 47.2605 90.8398 46.0041 93.6926 49.3021C95.1925 51.0349 96.9276 53.0736 98.0104 55.3691H99.691L98.9896 56.9133L101.444 58.4583L98.924 58.1808C99.1626 59.5141 99.0809 60.885 98.6856 62.1804L98.7533 63.4019C98.7533 63.4019 95.8328 58.8833 95.8328 58.2552V59.8258C95.8328 59.8258 94.2636 58.4123 94.2636 57.4701L93.4077 58.5694L92.9785 56.8392L87.7006 58.5666L88.5564 57.153L85.2755 57.6243L86.5595 55.8969C86.5595 55.8969 82.8507 57.9385 82.7078 59.6662C82.5649 61.3939 80.7109 63.5922 80.7109 63.5922L79.855 62.0216C79.855 62.0216 78.5721 54.9558 82.709 52.6001Z" fill="#2F2E41"/>
<path d="M96.8029 87.9835C95.3834 89.7371 94.5913 91.9152 94.5528 94.171L79.6465 93.6085C79.6465 93.6085 75.709 93.0461 75.709 95.8586V98.6709C75.709 98.6709 77.6779 97.8272 78.8028 98.6709C79.9277 99.5145 92.0215 106.827 97.9278 104.015C103.834 101.202 105.24 90.2336 105.24 90.2336C105.24 90.2336 99.8966 85.7334 96.8029 87.9835Z" fill="#FFB9B9"/>
<path d="M100.179 73.9208L102.429 73.6396C102.429 73.6396 106.929 74.2021 106.367 82.9209C105.804 91.6397 105.523 92.2021 105.523 92.2021C105.523 92.2021 99.6168 86.8583 95.3981 89.3899L100.179 73.9208Z" fill="currentColor"/>
<path d="M73.178 81.5156H72.0532C70.5956 83.3567 69.8027 85.6361 69.8031 87.9843C69.7773 90.4993 69.4468 93.0019 68.8188 95.4374L77.6782 93.8906L73.178 81.5156Z" fill="currentColor"/>
<path d="M208.998 38.1954H127.332V54.3192H208.998V38.1954Z" fill="#E6E6E6"/>
<path d="M129.073 52.5785H207.257V39.9376H129.073V52.5785Z" fill="white"/>
<path d="M135.917 41.3366C136.869 41.3366 137.801 41.6191 138.593 42.1483C139.385 42.6775 140.002 43.4297 140.367 44.3098C140.731 45.1899 140.827 46.1583 140.641 47.0925C140.455 48.0268 139.996 48.885 139.323 49.5586C138.649 50.2321 137.791 50.6909 136.857 50.8767C135.922 51.0625 134.954 50.9672 134.074 50.6026C133.194 50.2381 132.442 49.6208 131.912 48.8287C131.383 48.0367 131.101 47.1055 131.101 46.1529C131.101 44.8755 131.608 43.6505 132.511 42.7473C133.414 41.844 134.64 41.3366 135.917 41.3366V41.3366Z" fill="currentColor"/>
<path d="M194.968 44.2681H147.434V45.3152H194.968V44.2681Z" fill="#E6E6E6"/>
<path d="M194.968 46.9903H147.434V48.0374H194.968V46.9903Z" fill="#E6E6E6"/>
<path d="M208.998 61.2047H127.332V77.3285H208.998V61.2047Z" fill="#E6E6E6"/>
<path d="M129.073 75.5877H207.257V62.9468H129.073V75.5877Z" fill="white"/>
<path d="M135.917 73.9785C138.577 73.9785 140.733 71.8222 140.733 69.1622C140.733 66.5022 138.577 64.3459 135.917 64.3459C133.257 64.3459 131.101 66.5022 131.101 69.1622C131.101 71.8222 133.257 73.9785 135.917 73.9785Z" fill="currentColor"/>
<path d="M194.968 67.2774H147.434V68.3245H194.968V67.2774Z" fill="#E6E6E6"/>
<path d="M194.968 69.9996H147.434V71.0467H194.968V69.9996Z" fill="#E6E6E6"/>
<path d="M208.998 84.2139H127.332V100.338H208.998V84.2139Z" fill="#E6E6E6"/>
<path d="M129.073 98.597H207.257V85.9561H129.073V98.597Z" fill="white"/>
<path d="M135.917 96.9878C138.577 96.9878 140.733 94.8314 140.733 92.1714C140.733 89.5115 138.577 87.3551 135.917 87.3551C133.257 87.3551 131.101 89.5115 131.101 92.1714C131.101 94.8314 133.257 96.9878 135.917 96.9878Z" fill="currentColor"/>
<path d="M194.968 90.2867H147.434V91.3337H194.968V90.2867Z" fill="#E6E6E6"/>
<path d="M194.968 93.0089H147.434V94.0559H194.968V93.0089Z" fill="#E6E6E6"/>
</svg>
