<svg width="268" height="189" viewBox="0 0 268 189" fill="none" xmlns="http://www.w3.org/2000/svg">
<g clip-path="url(#clip0)">
<path d="M136.873 188.599C144.934 188.599 151.468 182.06 151.468 173.994C151.468 165.928 144.934 159.389 136.873 159.389C128.812 159.389 122.278 165.928 122.278 173.994C122.278 182.06 128.812 188.599 136.873 188.599Z" fill="currentColor"/>
<path d="M224.064 187.779C232.229 185.325 240.91 182.766 247.385 176.932C253.172 171.72 257.078 163.759 254.681 155.942C252.289 148.14 245.123 142.938 237.725 140.35C233.529 138.883 229.139 138.069 224.751 137.429C219.981 136.734 215.189 136.164 210.4 135.616C191.009 133.397 171.544 132.041 152.006 131.548C142.366 131.306 132.727 131.311 123.085 131.451C114.475 131.577 105.406 131.573 97.4177 127.911C91.2058 125.063 85.5679 119.882 83.837 113.073C81.839 105.213 85.5243 97.2089 90.8108 91.5166C93.5974 88.5161 96.8542 85.9908 100.214 83.6687C103.859 81.1495 107.63 78.8087 111.484 76.6238C119.074 72.3224 127.009 68.6617 135.206 65.6797C139.25 64.2083 143.354 62.9388 147.494 61.7676C150.989 60.7787 154.495 59.7883 157.874 58.4409C164.405 55.8362 170.616 51.4241 172.277 44.1907C173.85 37.3353 171.197 29.8932 166.545 24.8004C161.163 18.9084 153.048 16.3255 145.268 15.9076C136.534 15.4385 128.001 17.626 119.791 20.4022C111.035 23.3633 102.468 26.768 93.5273 29.1665C84.6611 31.5425 75.6234 33.2237 66.4963 34.1947C62.0282 34.6708 57.4251 35.2084 52.9305 34.8439C49.1636 34.5384 45.4159 33.4298 42.6398 30.7545C40.2594 28.4606 38.8413 25.308 39.3288 21.981C39.4174 21.3768 40.3347 21.6337 40.2467 22.2343C39.6532 26.2841 42.4042 30.0159 45.7941 31.9275C49.7119 34.1368 54.4794 34.1399 58.8413 33.8872C68.2991 33.3156 77.6929 31.9566 86.9253 29.8245C95.9972 27.751 104.745 24.7868 113.483 21.6204C121.782 18.6131 130.266 15.678 139.132 15.0266C146.825 14.4614 154.917 15.583 161.619 19.6061C167.509 23.1418 171.84 29.0383 173.22 35.8047C174.569 42.4167 172.701 49.0717 167.7 53.6858C162.521 58.4631 155.421 60.5056 148.804 62.3867C140.411 64.7726 132.198 67.5614 124.248 71.1826C116.19 74.8428 108.463 79.1905 101.15 84.1776C94.0919 89.0044 87.1261 95.0778 84.8938 103.689C83.8539 107.7 84.0459 111.954 85.7858 115.743C87.3329 119.112 89.8809 121.945 92.8491 124.131C99.931 129.346 108.857 130.417 117.411 130.523C127.019 130.643 136.627 130.318 146.238 130.476C165.824 130.798 185.371 131.991 204.877 134.055C209.765 134.573 214.647 135.145 219.522 135.772C223.908 136.336 228.308 136.896 232.619 137.898C240.285 139.678 247.745 143.102 252.51 149.607C254.625 152.426 255.935 155.767 256.301 159.273C256.634 162.932 255.739 166.598 254.086 169.853C250.427 177.057 243.573 181.64 236.295 184.65C232.397 186.263 228.353 187.484 224.317 188.697C223.729 188.874 223.478 187.955 224.064 187.779L224.064 187.779Z" fill="#F2F2F2"/>
<path d="M39.9435 29.687C44.149 29.687 47.5583 26.2753 47.5583 22.0668C47.5583 17.8583 44.149 14.4466 39.9435 14.4466C35.738 14.4466 32.3287 17.8583 32.3287 22.0668C32.3287 26.2753 35.738 29.687 39.9435 29.687Z" fill="#F2F2F2"/>
<path d="M92.7709 44.1336C96.9764 44.1336 100.386 40.7219 100.386 36.5134C100.386 32.3049 96.9764 28.8932 92.7709 28.8932C88.5654 28.8932 85.1561 32.3049 85.1561 36.5134C85.1561 40.7219 88.5654 44.1336 92.7709 44.1336Z" fill="#F2F2F2"/>
<path d="M137.508 15.2404C141.713 15.2404 145.122 11.8287 145.122 7.62018C145.122 3.41167 141.713 0 137.508 0C133.302 0 129.893 3.41167 129.893 7.62018C129.893 11.8287 133.302 15.2404 137.508 15.2404Z" fill="#F2F2F2"/>
<path d="M165.428 47.6261C169.634 47.6261 173.043 44.2145 173.043 40.006C173.043 35.7974 169.634 32.3858 165.428 32.3858C161.223 32.3858 157.814 35.7974 157.814 40.006C157.814 44.2145 161.223 47.6261 165.428 47.6261Z" fill="#F2F2F2"/>
<path d="M127.672 85.092C131.877 85.092 135.287 81.6803 135.287 77.4718C135.287 73.2633 131.877 69.8517 127.672 69.8517C123.466 69.8517 120.057 73.2633 120.057 77.4718C120.057 81.6803 123.466 85.092 127.672 85.092Z" fill="#F2F2F2"/>
<path d="M79.7623 103.19C83.9679 103.19 87.3771 99.7783 87.3771 95.5698C87.3771 91.3612 83.9679 87.9496 79.7623 87.9496C75.5568 87.9496 72.1476 91.3612 72.1476 95.5698C72.1476 99.7783 75.5568 103.19 79.7623 103.19Z" fill="#F2F2F2"/>
<path d="M130.527 131.448C134.733 131.448 138.142 128.036 138.142 123.828C138.142 119.619 134.733 116.208 130.527 116.208C126.322 116.208 122.913 119.619 122.913 123.828C122.913 128.036 126.322 131.448 130.527 131.448Z" fill="#F2F2F2"/>
<path d="M185.1 147.323C189.305 147.323 192.715 143.912 192.715 139.703C192.715 135.495 189.305 132.083 185.1 132.083C180.894 132.083 177.485 135.495 177.485 139.703C177.485 143.912 180.894 147.323 185.1 147.323Z" fill="#F2F2F2"/>
<path d="M248.873 143.831C253.079 143.831 256.488 140.419 256.488 136.211C256.488 132.002 253.079 128.591 248.873 128.591C244.668 128.591 241.259 132.002 241.259 136.211C241.259 140.419 244.668 143.831 248.873 143.831Z" fill="#F2F2F2"/>
<path d="M135.31 21.5916C112.5 21.7528 93.8231 40.3023 93.4991 63.1268C93.4961 63.3375 93.4947 64.8192 93.4949 66.7572C93.495 69.5988 94.6231 72.3239 96.6308 74.3332C98.6386 76.3425 101.362 77.4715 104.201 77.4718H104.201C105.609 77.4715 107.003 77.1937 108.303 76.6541C109.603 76.1146 110.784 75.324 111.779 74.3274C112.774 73.3308 113.563 72.1479 114.1 70.8461C114.638 69.5444 114.914 68.1494 114.913 66.7408C114.912 65.4225 114.911 64.51 114.911 64.454C114.911 60.9265 115.827 57.4596 117.572 54.3943C119.316 51.3289 121.828 48.7708 124.86 46.9715C127.892 45.1722 131.339 44.1937 134.864 44.1323C138.388 44.0708 141.868 44.9286 144.961 46.6212C148.053 48.3137 150.653 50.7828 152.502 53.7855C154.352 56.7882 155.389 60.2211 155.511 63.7464C155.633 67.2718 154.836 70.7683 153.198 73.8918C151.56 77.0154 149.138 79.6585 146.17 81.5611L146.174 81.5657C146.174 81.5657 130.935 91.3828 126.289 104.85L126.293 104.851C125.476 107.61 125.062 110.473 125.064 113.35C125.064 114.533 125.134 124.882 125.268 133.283C125.315 136.181 126.499 138.945 128.564 140.977C130.629 143.01 133.41 144.149 136.306 144.148H136.306C137.762 144.148 139.203 143.86 140.547 143.301C141.891 142.741 143.111 141.921 144.137 140.888C145.163 139.855 145.974 138.629 146.525 137.281C147.076 135.933 147.355 134.489 147.346 133.032C147.299 125.339 147.274 116.382 147.274 115.731C147.274 107.462 155.246 99.2228 161.794 93.8497C169.334 87.6624 174.761 79.2307 176.94 69.7194C177.422 67.7612 177.688 65.7559 177.733 63.7396C177.733 58.1789 176.633 52.6731 174.498 47.5396C172.362 42.406 169.232 37.746 165.289 33.8282C161.345 29.9104 156.666 26.8122 151.521 24.7121C146.376 22.612 140.866 21.5514 135.31 21.5916Z" fill="currentColor"/>
<path d="M267.622 189H0.377788C0.277784 189 0.181976 188.96 0.111365 188.889C0.0407532 188.818 0.00109863 188.722 0.00109863 188.622C0.00109863 188.522 0.0407532 188.426 0.111365 188.355C0.181976 188.284 0.277784 188.244 0.377788 188.244H267.622C267.722 188.244 267.818 188.284 267.889 188.355C267.96 188.426 268 188.522 268 188.622C268 188.722 267.96 188.818 267.889 188.889C267.818 188.96 267.722 189 267.622 189Z" fill="#3F3D56"/>
<path d="M199.395 86.6783C204.652 86.6783 208.914 82.4137 208.914 77.153C208.914 71.8924 204.652 67.6278 199.395 67.6278C194.138 67.6278 189.877 71.8924 189.877 77.153C189.877 82.4137 194.138 86.6783 199.395 86.6783Z" fill="#2F2E41"/>
<path d="M181.806 184.83H177.917L176.066 169.816H181.807L181.806 184.83Z" fill="#A0616A"/>
<path d="M175.138 183.718H182.64V188.445H170.415C170.415 187.824 170.537 187.209 170.774 186.636C171.012 186.062 171.36 185.541 171.798 185.102C172.237 184.663 172.757 184.315 173.331 184.078C173.904 183.84 174.518 183.718 175.138 183.718Z" fill="#2F2E41"/>
<path d="M211.948 184.83H208.058L206.208 169.816H211.949L211.948 184.83Z" fill="#A0616A"/>
<path d="M205.28 183.718H212.782V188.445H200.557C200.557 187.824 200.679 187.209 200.916 186.636C201.153 186.062 201.501 185.541 201.94 185.102C202.379 184.663 202.899 184.315 203.472 184.078C204.045 183.84 204.66 183.718 205.28 183.718Z" fill="#2F2E41"/>
<path d="M197.949 86.7339C202.253 86.7339 205.742 83.2424 205.742 78.9356C205.742 74.6287 202.253 71.1373 197.949 71.1373C193.645 71.1373 190.156 74.6287 190.156 78.9356C190.156 83.2424 193.645 86.7339 197.949 86.7339Z" fill="#A0616A"/>
<path d="M202.594 111.891L206.08 103.874C206.927 101.994 207.17 99.8963 206.775 97.8717C206.38 95.8471 205.367 93.9951 203.875 92.5712C203.569 92.2681 203.244 91.985 202.901 91.7234C201.181 90.3765 199.06 89.6424 196.876 89.6374C195.407 89.6431 193.957 89.9658 192.625 90.5836C192.51 90.6344 192.399 90.6884 192.285 90.7423C192.066 90.8471 191.85 90.9614 191.641 91.0789C190.275 91.8637 189.113 92.9588 188.247 94.2758C187.382 95.5929 186.838 97.095 186.66 98.661L185.121 111.564C184.734 112.577 170.926 149.154 175.755 177.079C175.806 177.377 175.951 177.651 176.169 177.861C176.388 178.07 176.667 178.205 176.967 178.244L181.862 178.911C182.22 178.96 182.583 178.871 182.878 178.664C183.172 178.456 183.378 178.143 183.452 177.79L191.666 138.607C191.718 138.363 191.849 138.144 192.039 137.984C192.23 137.824 192.468 137.732 192.716 137.724C192.965 137.715 193.209 137.791 193.41 137.937C193.611 138.084 193.756 138.294 193.824 138.534L205.43 179.74C205.513 180.039 205.691 180.303 205.938 180.491C206.185 180.679 206.487 180.781 206.798 180.781C206.89 180.781 206.982 180.772 207.074 180.756L213.054 179.603C213.402 179.538 213.713 179.345 213.926 179.063C214.139 178.78 214.239 178.428 214.206 178.076C213.327 168.268 208.657 119.14 202.594 111.891Z" fill="#2F2E41"/>
<path d="M167.664 85.4253C167.61 85.889 167.658 86.3588 167.805 86.8018C167.952 87.2448 168.194 87.6501 168.515 87.9892C168.835 88.3284 169.226 88.5931 169.66 88.7647C170.094 88.9363 170.56 89.0107 171.026 88.9825L175.381 99.4578L178.676 94.57L174.035 85.3718C173.936 84.5923 173.554 83.8761 172.963 83.3592C172.371 82.8422 171.611 82.5603 170.826 82.5669C170.04 82.5735 169.285 82.8681 168.702 83.395C168.119 83.9218 167.75 84.6442 167.664 85.4253L167.664 85.4253Z" fill="#A0616A"/>
<path d="M197.517 122.439C197.98 122.384 198.425 122.228 198.821 121.981C199.218 121.735 199.555 121.405 199.81 121.014C200.065 120.623 200.231 120.181 200.297 119.719C200.362 119.257 200.326 118.786 200.19 118.339L209.355 111.659L203.837 109.592L195.98 116.252C195.246 116.53 194.639 117.068 194.274 117.764C193.91 118.46 193.813 119.266 194.002 120.029C194.192 120.791 194.654 121.458 195.302 121.902C195.949 122.346 196.738 122.538 197.517 122.439Z" fill="#A0616A"/>
<path d="M182.576 106.442C182.225 106.441 181.875 106.407 181.53 106.338C180.696 106.18 179.915 105.818 179.253 105.286C178.592 104.753 178.072 104.066 177.739 103.285L171.636 95.8385C171.507 95.6811 171.414 95.4979 171.361 95.3012C171.309 95.1044 171.299 94.8988 171.332 94.6979C171.365 94.4971 171.441 94.3057 171.555 94.1366C171.668 93.9675 171.816 93.8245 171.989 93.7174L176.331 91.0279C176.491 90.9285 176.669 90.862 176.856 90.832C177.042 90.802 177.232 90.8092 177.415 90.8532C177.599 90.8972 177.771 90.9771 177.924 91.0883C178.076 91.1995 178.205 91.3397 178.303 91.501L182.604 98.5922L190.841 92.5003C191.497 92.1562 192.255 92.0597 192.976 92.2285C193.697 92.3972 194.333 92.8199 194.768 93.4194C195.204 94.0188 195.409 94.755 195.347 95.4934C195.285 96.2319 194.959 96.9232 194.429 97.4412L186.208 104.946C185.242 105.904 183.937 106.442 182.576 106.442Z" fill="#2F2E41"/>
<path d="M204.834 117.641C204.823 117.641 204.811 117.641 204.8 117.64C204.6 117.636 204.403 117.589 204.222 117.503C204.041 117.417 203.88 117.294 203.75 117.142L199.89 112.635C199.758 112.482 199.661 112.302 199.604 112.108C199.547 111.914 199.532 111.711 199.559 111.51C199.587 111.31 199.657 111.118 199.764 110.947C199.871 110.775 200.014 110.629 200.182 110.517L207.41 105.695L200.862 97.8164C200.481 97.1809 200.341 96.4295 200.468 95.6994C200.595 94.9694 200.98 94.3094 201.553 93.8401C202.126 93.3708 202.849 93.1235 203.589 93.1433C204.33 93.1632 205.038 93.449 205.585 93.9484L213.544 101.731C214.17 102.304 214.648 103.02 214.937 103.818C215.226 104.617 215.317 105.473 215.202 106.314C215.088 107.155 214.771 107.956 214.279 108.648C213.787 109.339 213.134 109.901 212.378 110.285L205.873 117.192C205.739 117.334 205.578 117.447 205.4 117.524C205.221 117.601 205.028 117.641 204.834 117.641Z" fill="#2F2E41"/>
<path d="M195.967 101.035C195.905 101.035 195.844 101.031 195.782 101.024C195.513 100.991 195.259 100.882 195.051 100.709C194.842 100.536 194.687 100.307 194.605 100.049L191.704 91.1498C191.631 90.9248 191.643 90.681 191.736 90.4636C191.829 90.2463 191.997 90.0699 192.21 89.9672L192.304 89.9227C192.389 89.8821 192.474 89.8419 192.56 89.8035C193.913 89.1757 195.385 88.8483 196.876 88.8436C198.812 88.8472 200.704 89.4163 202.321 90.4809C202.538 90.6253 202.689 90.8491 202.743 91.1041C202.796 91.3592 202.748 91.625 202.607 91.8444L197.166 100.375C197.038 100.578 196.861 100.745 196.652 100.86C196.442 100.976 196.207 101.036 195.967 101.035Z" fill="#E6E6E6"/>
<path d="M206.9 72.9006C208.62 72.9006 210.014 71.5052 210.014 69.7838C210.014 68.0624 208.62 66.6669 206.9 66.6669C205.18 66.6669 203.785 68.0624 203.785 69.7838C203.785 71.5052 205.18 72.9006 206.9 72.9006Z" fill="#2F2E41"/>
<path d="M196.222 66.3578C194.035 66.3578 191.936 67.2275 190.389 68.7757C188.842 70.3238 187.973 72.4235 187.973 74.6129V78.1056H192.266L194.319 74.613L194.935 78.1056H207.962L204.472 74.6129C204.472 72.4235 203.603 70.3238 202.056 68.7757C200.509 67.2275 198.41 66.3578 196.222 66.3578Z" fill="#2F2E41"/>
<path d="M208.501 67.6488C208.845 66.571 209.558 65.6493 210.514 65.0456C211.471 64.4419 212.609 64.1949 213.73 64.3481C215.715 64.6802 217.284 66.2768 218.219 68.0601C219.154 69.8434 219.586 71.8392 220.214 73.7524C220.843 75.6655 221.735 77.589 223.322 78.8274C224.909 80.0658 227.344 80.4017 228.902 79.1278C228.724 80.4555 228.134 81.6935 227.214 82.6669C226.294 83.6402 225.092 84.2995 223.777 84.5516C222.463 84.8038 221.102 84.6358 219.888 84.0717C218.674 83.5075 217.668 82.5756 217.012 81.4079C216.189 79.9436 215.977 78.2275 215.733 76.5656C215.489 74.9037 215.172 73.1842 214.19 71.8219C213.209 70.4596 211.371 69.5698 209.811 70.1903L208.501 67.6488Z" fill="#2F2E41"/>
<path d="M107.224 72.4039C104.385 72.4036 101.662 71.2746 99.6538 69.2653C97.646 67.2559 96.518 64.5308 96.5178 61.6893C96.5176 59.7513 96.519 58.2696 96.522 58.0588C96.6122 51.4208 98.2828 44.9 101.395 39.0374C96.2816 46.0425 93.47 54.4647 93.3492 63.139C93.3462 63.3497 93.3448 64.8314 93.345 66.7694C93.3452 69.6109 94.4732 72.3361 96.481 74.3454C98.4888 76.3547 101.212 77.4837 104.051 77.484C106.385 77.4831 108.654 76.7201 110.514 75.3109C112.375 73.9017 113.725 71.9233 114.359 69.6763C112.399 71.4356 109.857 72.4071 107.224 72.4039Z" fill="#3F3D56"/>
<path d="M136.035 44.1682C139.318 44.3251 142.514 45.2769 145.348 46.9419C148.182 48.607 150.57 50.9354 152.306 53.7274C154.043 56.5194 155.077 59.6915 155.319 62.9713C155.561 66.2511 155.003 69.5407 153.695 72.5575C155.588 70.3333 156.979 67.7268 157.773 64.9158C158.568 62.1048 158.748 59.1553 158.3 56.2686C157.852 53.3818 156.788 50.6255 155.179 48.1877C153.571 45.7499 151.456 43.6878 148.979 42.1421C146.502 40.5964 143.72 39.6034 140.825 39.2307C137.93 38.8581 134.988 39.1146 132.201 39.9828C129.413 40.8509 126.846 42.3104 124.673 44.2615C122.5 46.2127 120.774 48.6097 119.611 51.2892C121.621 48.9229 124.147 47.0503 126.995 45.8156C129.842 44.581 132.935 44.0174 136.035 44.1682Z" fill="#3F3D56"/>
<path d="M139.329 139.08C136.433 139.081 133.652 137.942 131.587 135.909C129.522 133.877 128.338 131.113 128.291 128.215C128.157 119.815 128.087 109.465 128.087 108.282C128.085 105.405 128.499 102.542 129.316 99.7832L129.312 99.7822C129.795 98.3974 130.377 97.0497 131.056 95.7496C128.974 98.526 127.317 101.597 126.14 104.862L126.143 104.863C125.327 107.622 124.913 110.485 124.914 113.362C124.914 114.545 124.984 124.895 125.118 133.295C125.165 136.193 126.349 138.957 128.414 140.99C130.479 143.022 133.26 144.161 136.157 144.161C138.545 144.16 140.869 143.385 142.779 141.951C144.69 140.517 146.085 138.502 146.754 136.207C144.725 138.059 142.076 139.084 139.329 139.08Z" fill="#3F3D56"/>
<path d="M40.1491 184.975L44.0387 184.975L45.8894 169.96L40.1482 169.961L40.1491 184.975Z" fill="#FFB8B8"/>
<path d="M51.5407 188.589L39.3156 188.59L39.3154 183.863L46.8172 183.863C48.0699 183.863 49.2713 184.361 50.1571 185.247C51.043 186.133 51.5407 187.336 51.5407 188.589L51.5407 188.589Z" fill="#2F2E41"/>
<path d="M26.1888 184.975L30.0783 184.975L31.929 169.96L26.1878 169.961L26.1888 184.975Z" fill="#FFB8B8"/>
<path d="M37.5803 188.589L25.3552 188.59L25.355 183.863L32.8568 183.863C34.1095 183.863 35.3109 184.361 36.1967 185.247C37.0826 186.133 37.5803 187.336 37.5803 188.589L37.5803 188.589Z" fill="#2F2E41"/>
<path d="M29.5879 180.357L25.7885 180.157C25.5925 180.147 25.4006 180.098 25.2238 180.013C25.047 179.928 24.8888 179.809 24.7584 179.662C24.628 179.515 24.528 179.344 24.4642 179.158C24.4003 178.973 24.3739 178.776 24.3865 178.58L28.9277 128.266L49.84 133.913L51.8548 133.363L45.5542 177.905C45.5005 178.24 45.3342 178.546 45.0828 178.774C44.8314 179.002 44.5099 179.137 44.1714 179.157L40.0756 179.348C39.8709 179.359 39.6659 179.328 39.4738 179.256C39.2817 179.184 39.1066 179.073 38.9595 178.93C38.8125 178.787 38.6967 178.615 38.6195 178.425C38.5423 178.235 38.5053 178.031 38.511 177.825L39.2531 151.093C39.2566 150.969 39.2137 150.848 39.1328 150.755C39.0519 150.661 38.939 150.602 38.8163 150.587C38.6935 150.573 38.5699 150.605 38.4697 150.677C38.3694 150.75 38.2999 150.857 38.2749 150.978L31.118 179.177C31.0504 179.511 30.869 179.812 30.6046 180.028C30.3403 180.244 30.0093 180.361 29.6683 180.36C29.6416 180.36 29.6149 180.359 29.5879 180.357Z" fill="#2F2E41"/>
<path d="M40.8475 87.0986C45.1513 87.0986 48.6403 83.6072 48.6403 79.3003C48.6403 74.9934 45.1513 71.502 40.8475 71.502C36.5437 71.502 33.0547 74.9934 33.0547 79.3003C33.0547 83.6072 36.5437 87.0986 40.8475 87.0986Z" fill="#FFB8B8"/>
<path d="M27.8731 102.211L28.7299 120.712L29.0397 127.442C29.052 127.735 29.1514 128.018 29.3252 128.254C29.499 128.49 29.7392 128.669 30.0151 128.768L50.1105 136.053C50.2728 136.113 50.4448 136.143 50.618 136.142C50.8159 136.143 51.012 136.104 51.1945 136.027C51.3771 135.951 51.5424 135.838 51.6805 135.696C51.8186 135.554 51.9267 135.386 51.9984 135.201C52.0701 135.017 52.1038 134.819 52.0977 134.622L51.2738 101.357C51.2197 98.628 50.2158 96.0033 48.4351 93.9354C46.6545 91.8675 44.2087 90.4862 41.5194 90.0294C41.325 89.9997 41.1273 89.9701 40.9295 89.9437C39.2619 89.7365 37.5692 89.8976 35.9705 90.4155C34.3718 90.9333 32.9059 91.7955 31.676 92.9413C30.4024 94.1135 29.4017 95.5513 28.7446 97.1532C28.0874 98.755 27.7899 100.482 27.8731 102.211L27.8731 102.211Z" fill="#CCCCCC"/>
<path d="M59.71 132.361C59.2347 132.214 58.8004 131.957 58.4419 131.612C58.0834 131.266 57.8105 130.842 57.645 130.372C57.4795 129.902 57.426 129.4 57.4888 128.906C57.5516 128.412 57.7289 127.94 58.0065 127.527L51.192 118.459L57.0725 118.094L62.6422 126.761C63.2385 127.223 63.6534 127.879 63.8142 128.616C63.975 129.353 63.8714 130.123 63.5216 130.791C63.1717 131.459 62.598 131.983 61.9011 132.27C61.2041 132.557 60.4284 132.589 59.71 132.361H59.71Z" fill="#FFB8B8"/>
<path d="M54.9186 125.886C54.738 125.812 54.5738 125.704 54.4354 125.567C54.297 125.429 54.1872 125.266 54.1123 125.086L43.8457 100.608C43.6442 100.129 43.5391 99.6145 43.5364 99.0946C43.5336 98.5746 43.6333 98.0593 43.8297 97.5779C44.0261 97.0966 44.3153 96.6586 44.6809 96.2892C45.0465 95.9198 45.4813 95.6261 45.9603 95.4248C46.4394 95.2236 46.9534 95.1188 47.473 95.1165C47.9925 95.1142 48.5074 95.2143 48.9883 95.4112C49.4692 95.6081 49.9065 95.8979 50.2754 96.2641C50.6443 96.6302 50.9375 97.0655 51.1382 97.5451L61.4048 122.023C61.5566 122.386 61.5583 122.795 61.4095 123.159C61.2608 123.523 60.9738 123.813 60.6115 123.966L56.0536 125.88C55.8742 125.956 55.6815 125.996 55.4866 125.997C55.2918 125.998 55.0987 125.96 54.9185 125.886L54.9186 125.886Z" fill="#CCCCCC"/>
<path d="M38.342 125.022L48.2029 106.128C48.3931 105.764 48.7195 105.491 49.1106 105.369C49.5017 105.246 49.9255 105.283 50.289 105.473L64.6021 112.953C64.9652 113.143 65.238 113.47 65.3608 113.861C65.4835 114.253 65.4461 114.677 65.2568 115.041L55.3959 133.935C55.2057 134.299 54.8793 134.572 54.4882 134.694C54.0971 134.817 53.6733 134.78 53.3098 134.59L38.9967 127.11C38.6336 126.92 38.3607 126.593 38.238 126.202C38.1153 125.81 38.1527 125.386 38.342 125.022Z" fill="#3F3D56"/>
<path d="M44.9551 116.39C44.7798 115.924 44.4981 115.505 44.1324 115.167C43.7667 114.83 43.3271 114.582 42.8489 114.444C42.3706 114.307 41.8668 114.283 41.3777 114.375C40.8886 114.467 40.4277 114.672 40.0318 114.974L30.5837 108.702L30.5676 114.598L39.5422 119.65C40.0376 120.218 40.7172 120.594 41.4617 120.711C42.2063 120.828 42.9683 120.679 43.6141 120.29C44.2598 119.901 44.7482 119.297 44.9934 118.584C45.2386 117.871 45.225 117.094 44.9551 116.39Z" fill="#FFB8B8"/>
<path d="M33.0094 117.716L25.2878 111.595C24.4525 111.314 23.6977 110.835 23.0882 110.198C22.4788 109.561 22.0329 108.786 21.7888 107.939C21.5446 107.091 21.5096 106.197 21.6868 105.334C21.8639 104.47 22.2478 103.662 22.8056 102.979L29.8166 93.7845C30.3038 93.1887 30.989 92.7883 31.7469 92.6564C32.5049 92.5245 33.2849 92.67 33.9445 93.0663C34.604 93.4626 35.099 94.0831 35.339 94.8146C35.579 95.546 35.548 96.3394 35.2515 97.0498L29.7042 106.131L37.8564 110C38.046 110.09 38.2143 110.219 38.3503 110.379C38.4863 110.539 38.5868 110.726 38.6452 110.928C38.7037 111.129 38.7187 111.341 38.6892 111.549C38.6598 111.757 38.5866 111.956 38.4746 112.133L35.1838 117.345C35.0725 117.521 34.9256 117.672 34.7525 117.787C34.5795 117.902 34.3841 117.98 34.179 118.015C34.1709 118.017 34.1627 118.018 34.1545 118.019C33.9531 118.05 33.7475 118.038 33.5505 117.986C33.3536 117.934 33.1694 117.842 33.0094 117.716Z" fill="#CCCCCC"/>
<path d="M34.959 84.5221C34.9256 84.4243 34.915 84.32 34.928 84.2174C34.9411 84.1148 34.9774 84.0165 35.0343 83.9301C35.0911 83.8437 35.167 83.7715 35.256 83.719C35.3451 83.6664 35.445 83.635 35.548 83.6271C35.7591 83.6386 35.9656 83.6927 36.1552 83.7863C36.3448 83.8799 36.5134 84.011 36.6509 84.1716C36.933 84.497 37.2613 84.7791 37.6254 85.0089C38.0023 85.199 38.5136 85.1719 38.7285 84.8094C38.9303 84.469 38.792 84.0131 38.6699 83.6177C38.359 82.6116 38.185 81.5682 38.1527 80.5156C38.1175 79.3407 38.2832 78.1146 38.9331 77.1983C39.772 76.0156 41.272 75.5667 42.6915 75.5992C44.111 75.6318 45.5075 76.0703 46.9136 76.3475C47.399 76.4432 47.9696 76.4921 48.2942 76.1156C48.6395 75.7153 48.5127 75.0674 48.3658 74.5269C47.9848 73.1243 47.5806 71.6742 46.6953 70.5415C45.738 69.3644 44.3707 68.5941 42.8686 68.3855C41.4265 68.2068 39.9626 68.3731 38.5972 68.8708C36.3727 69.5724 34.4153 70.937 32.9868 72.7821C31.5142 74.7442 30.8779 77.21 31.217 79.6403C31.5482 81.757 32.6691 83.6693 34.3535 84.9917L34.959 84.5221Z" fill="#2F2E41"/>
<path d="M133.657 185.037C131.584 184.133 129.749 182.76 128.297 181.025C126.845 179.29 125.816 177.241 125.291 175.04C124.765 172.839 124.759 170.546 125.271 168.342C125.783 166.137 126.8 164.082 128.241 162.339C126.57 163.56 125.177 165.123 124.155 166.924C123.134 168.725 122.507 170.723 122.316 172.786C122.124 174.848 122.374 176.927 123.047 178.885C123.721 180.844 124.802 182.636 126.221 184.144C127.64 185.652 129.362 186.841 131.275 187.632C133.188 188.423 135.247 188.797 137.316 188.731C139.384 188.664 141.415 188.158 143.273 187.246C145.131 186.335 146.774 185.038 148.093 183.442C146.036 184.946 143.621 185.885 141.088 186.165C138.555 186.445 135.993 186.056 133.657 185.037Z" fill="#3F3D56"/>
</g>
<defs>
<clipPath id="clip0">
<rect width="268" height="189" fill="white"/>
</clipPath>
</defs>
</svg>
