<svg width="268" height="193" viewBox="0 0 268 193" fill="none" xmlns="http://www.w3.org/2000/svg">
<g clip-path="url(#clip0)">
<path d="M22.025 81.0888C22.025 84.8586 19.9378 87.6732 16.8653 87.6732C15.831 87.6732 14.8618 87.1108 14.5295 86.4763C14.5295 86.4763 13.974 88.6889 13.8554 89.1189C13.6382 89.8363 13.3205 90.5195 12.9118 91.1479C12.7282 91.0549 12.2424 90.8504 11.7706 90.6575C11.7375 89.9528 11.7945 89.2467 11.9403 88.5564C12.1216 87.7755 13.1675 83.3177 13.1675 83.3177C12.9586 82.8393 12.854 82.3219 12.8607 81.8C12.8607 80.3776 13.6811 79.3131 14.7038 79.3131C15.5753 79.3131 15.9937 79.9685 15.9937 80.7541C15.9937 81.6326 15.4336 82.9458 15.1477 84.1637C15.0906 84.3888 15.0871 84.6243 15.1375 84.851C15.1879 85.0778 15.2909 85.2895 15.4381 85.4693C15.5852 85.649 15.7725 85.7917 15.9849 85.8858C16.1972 85.98 16.4287 86.023 16.6607 86.0114C18.469 86.0114 19.6892 83.6756 19.6892 80.9052C19.6892 78.7971 18.2784 77.2236 15.7125 77.2236C12.8142 77.2236 11.0037 79.3991 11.0037 81.8255C10.9751 82.5095 11.2003 83.18 11.6358 83.7081C11.7118 83.7721 11.7659 83.8583 11.7905 83.9546C11.8151 84.0509 11.809 84.1524 11.773 84.245C11.7265 84.4217 11.6242 84.8447 11.5754 85.0167C11.5675 85.0683 11.5474 85.1173 11.5167 85.1596C11.4861 85.2019 11.4458 85.2363 11.3993 85.2599C11.3527 85.2835 11.3011 85.2957 11.2489 85.2954C11.1967 85.2952 11.1453 85.2825 11.0989 85.2584C9.76253 84.7075 9.13965 83.241 9.13965 81.5862C9.13965 78.8575 11.4313 75.5851 15.9728 75.5851C19.6218 75.5851 22.025 78.2393 22.025 81.0888Z" fill="currentColor"/>
<path d="M253.587 24.5551H247.293C246.136 24.549 245.023 25.0009 244.198 25.8121C243.373 26.6233 242.902 27.728 242.888 28.885V35.0697C242.902 36.2265 243.373 37.3309 244.198 38.1417C245.023 38.9525 246.136 39.4039 247.293 39.3974H253.587C254.743 39.4039 255.856 38.9525 256.681 38.1417C257.506 37.3309 257.977 36.2265 257.991 35.0697V28.885C257.977 27.728 257.506 26.6233 256.681 25.8121C255.856 25.0009 254.744 24.549 253.587 24.5551ZM250.44 34.4515C249.952 34.4431 249.478 34.2908 249.077 34.0139C248.675 33.737 248.365 33.3477 248.184 32.8949C248.003 32.4422 247.96 31.9461 248.061 31.4689C248.161 30.9918 248.4 30.5549 248.747 30.213C249.095 29.8712 249.536 29.6397 250.014 29.5475C250.493 29.4553 250.989 29.5067 251.438 29.695C251.888 29.8834 252.272 30.2004 252.542 30.6062C252.812 31.0121 252.956 31.4887 252.957 31.9762C252.95 32.6379 252.682 33.2701 252.21 33.7341C251.738 34.1981 251.101 34.4561 250.44 34.4515L250.44 34.4515ZM254.53 28.885C254.347 28.8818 254.17 28.8248 254.019 28.7209C253.869 28.6171 253.753 28.4711 253.685 28.3014C253.617 28.1317 253.601 27.9457 253.639 27.7668C253.676 27.588 253.766 27.4243 253.896 27.2962C254.027 27.1681 254.192 27.0813 254.371 27.0468C254.551 27.0124 254.736 27.0317 254.905 27.1023C255.074 27.173 255.217 27.2919 255.319 27.4441C255.42 27.5962 255.474 27.7749 255.474 27.9577C255.473 28.0806 255.448 28.2022 255.4 28.3154C255.352 28.4286 255.282 28.5312 255.195 28.6174C255.107 28.7035 255.003 28.7715 254.889 28.8175C254.775 28.8634 254.653 28.8864 254.53 28.885Z" fill="currentColor"/>
<path d="M141.752 180.357H70.9643C69.3702 180.362 67.8078 179.912 66.4604 179.06C65.3801 178.388 64.4871 177.453 63.864 176.343C63.241 175.234 62.908 173.985 62.8959 172.712V7.65032C62.8959 3.43193 66.5154 1.77322e-06 70.9643 1.77322e-06H87.6005V1.51833C87.6005 4.75869 90.39 7.39498 93.8188 7.39498H117.271C118.591 7.4023 119.881 7.00069 120.963 6.24536C121.73 5.71567 122.36 5.01034 122.799 4.18811C123.239 3.36587 123.476 2.45053 123.49 1.51833V0H141.752C146.201 0 149.821 3.43193 149.821 7.65031V172.712C149.814 173.834 149.555 174.939 149.064 175.947C148.572 176.954 147.86 177.838 146.98 178.533C145.497 179.721 143.652 180.364 141.752 180.357ZM70.9643 0.464839C66.7716 0.464839 63.3607 3.68829 63.3607 7.65031V172.712C63.3729 173.907 63.6863 175.079 64.2719 176.12C64.8574 177.161 65.6962 178.038 66.7105 178.669C67.9831 179.473 69.4588 179.897 70.9643 179.893H141.752C143.546 179.9 145.287 179.293 146.687 178.172C147.513 177.521 148.182 176.691 148.644 175.746C149.106 174.801 149.349 173.764 149.356 172.712V7.65032C149.356 3.6883 145.945 0.46484 141.752 0.46484H123.955V1.51833C123.94 2.52564 123.685 3.51496 123.211 4.40371C122.737 5.29247 122.057 6.0549 121.228 6.62736C120.068 7.4369 118.686 7.86744 117.271 7.85981H93.8188C90.1336 7.85981 87.1357 5.01506 87.1357 1.51833V0.464839H70.9643Z" fill="#3F3D56"/>
<path d="M144.076 14.0312V164.685C144.074 166.48 143.36 168.201 142.091 169.469C140.821 170.738 139.1 171.451 137.306 171.451H76.1445C75.2554 171.453 74.3747 171.279 73.5528 170.939C72.731 170.6 71.9843 170.102 71.3553 169.473C70.7264 168.845 70.2276 168.098 69.8877 167.277C69.5477 166.455 69.3732 165.575 69.3741 164.685V14.0312C69.3741 13.1421 69.5491 12.2617 69.8894 11.4402C70.2296 10.6188 70.7283 9.87239 71.357 9.24369C71.9857 8.61499 72.7321 8.11629 73.5535 7.77607C74.375 7.43586 75.2554 7.26079 76.1445 7.26086H85.2972V8.43458C85.297 9.91301 85.8841 11.331 86.9293 12.3766C87.9745 13.4222 89.3922 14.0099 90.8706 14.0103H121.978C123.168 14.0129 124.327 13.6314 125.283 12.9226C125.476 12.782 125.659 12.6283 125.831 12.4624C126.376 11.9425 126.809 11.3174 127.104 10.625C127.4 9.93265 127.552 9.18743 127.551 8.43458V7.26086H137.306C138.195 7.26059 139.075 7.43553 139.897 7.77567C140.718 8.11582 141.465 8.61451 142.094 9.24325C142.722 9.872 143.221 10.6185 143.561 11.44C143.901 12.2616 144.076 13.1421 144.076 14.0312Z" fill="#F2F2F2"/>
<path d="M127.269 128.246H86.3922V84.2345H127.269V128.246ZM86.9163 127.722H126.745V84.7585H86.9163V127.722Z" fill="#3F3D56"/>
<path d="M118.59 39.139H91.7531V39.6631H118.59V39.139Z" fill="#3F3D56"/>
<path d="M118.59 46.2728H91.7531V46.7969H118.59V46.2728Z" fill="#3F3D56"/>
<path d="M118.59 53.4065H91.7531V53.9306H118.59V53.4065Z" fill="#3F3D56"/>
<path d="M83.6692 180.419L83.4197 180.326C83.3649 180.305 77.9094 178.215 75.3538 173.476C72.7981 168.736 74.0496 163.029 74.0625 162.973L74.1214 162.713L74.3707 162.806C74.4255 162.827 79.8809 164.917 82.4366 169.656C84.9923 174.396 83.7409 180.103 83.728 180.16L83.6692 180.419ZM75.7631 173.255C77.9237 177.262 82.2348 179.316 83.3272 179.785C83.5348 178.615 84.1861 173.88 82.0274 169.877C79.8689 165.874 75.5561 163.817 74.4633 163.347C74.2555 164.518 73.6045 169.252 75.7631 173.255Z" fill="#3F3D56"/>
<path d="M77.3068 171.813C81.8996 174.576 83.6684 180.065 83.6684 180.065C83.6684 180.065 77.9909 181.073 73.3982 178.31C68.8054 175.547 67.0366 170.058 67.0366 170.058C67.0366 170.058 72.7141 169.05 77.3068 171.813Z" fill="currentColor"/>
<path d="M128.787 176.29L121.814 175.825L124.138 186.284L132.041 183.03L128.787 176.29Z" fill="#FFB9B9"/>
<path d="M192.702 156.767L176.433 140.962L167.136 148.167L148.775 170.247L150.867 173.501L173.179 158.394L188.286 178.149L202.696 170.944L192.702 156.767Z" fill="#2F2E41"/>
<path opacity="0.1" d="M192.702 156.767L176.433 140.962L167.136 148.167L148.775 170.247L150.867 173.501L173.179 158.394L188.286 178.149L202.696 170.944L192.702 156.767Z" fill="black"/>
<path d="M194.097 167.226L192.005 168.853L175.038 163.042L171.087 161.415L163.185 163.042C163.185 163.042 163.185 156.534 170.622 156.767L178.292 158.626L187.356 159.323L194.097 167.226Z" fill="#FFB9B9"/>
<path d="M209.204 184.425L204.091 187.679H198.048L169.925 177.22L128.787 184.657L127.625 175.825L165.277 159.323L198.28 170.247L209.204 184.425Z" fill="#2F2E41"/>
<path d="M176.2 143.054L172.714 143.751L171.954 142.865C171.353 142.163 170.972 141.3 170.859 140.382C170.746 139.465 170.906 138.535 171.32 137.708L181.081 124.925C181.081 124.925 183.87 118.65 188.286 121.207C192.702 123.763 184.567 127.947 184.567 127.947L179.687 135.617L180.151 139.568L176.2 143.054Z" fill="#FFB9B9"/>
<path d="M198.28 127.947C203.286 127.947 207.345 123.889 207.345 118.882C207.345 113.876 203.286 109.818 198.28 109.818C193.274 109.818 189.216 113.876 189.216 118.882C189.216 123.889 193.274 127.947 198.28 127.947Z" fill="#FFB9B9"/>
<path d="M194.213 125.506L198.396 135.5L208.39 131.317C208.39 131.317 205.136 123.415 205.136 123.182C205.136 122.95 194.213 125.506 194.213 125.506Z" fill="#FFB9B9"/>
<path d="M221.734 155.072C221.733 160.543 220.871 165.979 219.179 171.181L218.501 173.269L215.247 188.143L211.76 189.073L209.204 185.819L204.091 182.1L200.372 176.058L197.183 170.744L196.188 169.085L192.702 151.654L179.454 144.216L175.038 143.519L175.968 140.962L179.919 135.617L183.87 135.152L185.032 134.222L185.962 134.687L189.681 132.595L190.843 133.06L197.639 133.692L201.766 132.828L207.702 129.641L210.133 130.039L218.501 137.011C220.64 142.793 221.734 148.908 221.734 155.072Z" fill="#575A89"/>
<path d="M123.954 179.889C123.954 179.889 126.036 176.361 125.157 175.949C124.278 175.537 120.544 173.895 120.544 173.895L115.068 172.08C115.068 172.08 107.166 160.337 106.993 170.549C106.819 180.761 112.746 183.216 112.746 183.216C112.746 183.216 118.032 194.592 121.026 192.778C124.02 190.964 127.016 184.806 127.016 184.806C127.016 184.806 121.617 181.903 123.954 179.889Z" fill="#2F2E41"/>
<path opacity="0.1" d="M219.198 153.048L210.366 158.859L197.183 170.744L196.188 169.085L193.399 155.14H194.097L201.302 141.892L219.198 153.048Z" fill="black"/>
<path d="M201.302 140.497L194.097 153.745H191.54L189.913 158.394L186.194 159.323L196.188 170.247L210.366 157.464L219.198 151.654L201.302 140.497Z" fill="#575A89"/>
<path d="M191.23 112.143L190.248 112.521C190.097 112.418 189.968 112.287 189.868 112.134C189.768 111.981 189.7 111.81 189.668 111.631C189.635 111.451 189.638 111.267 189.678 111.089C189.717 110.911 189.792 110.742 189.897 110.593L188.082 110.508C189.247 108.957 190.729 107.67 192.428 106.734C194.128 105.797 196.007 105.233 197.941 105.077C199.875 104.921 201.82 105.177 203.647 105.83C205.475 106.482 207.143 107.514 208.542 108.859C208.624 108.575 209.525 109.128 209.893 109.69C210.016 109.227 210.861 111.465 211.16 113.048C211.298 112.521 211.83 113.371 211.364 114.188C211.659 114.144 211.792 114.9 211.564 115.32C211.887 115.169 211.832 116.07 211.482 116.673C211.943 116.632 207.848 122.987 206.19 126.701C205.709 124.489 205.167 122.16 203.615 120.512C203.351 120.232 203.062 119.977 202.774 119.722L201.214 118.345C199.399 116.744 197.749 114.767 195.332 114.169C193.671 113.757 192.621 113.664 193.526 111.793C192.708 112.134 191.945 112.642 191.12 112.959C191.131 112.697 191.246 112.404 191.23 112.143Z" fill="#2F2E41"/>
<path d="M202.812 121.555C203.711 121.555 204.439 120.827 204.439 119.928C204.439 119.03 203.711 118.301 202.812 118.301C201.914 118.301 201.185 119.03 201.185 119.928C201.185 120.827 201.914 121.555 202.812 121.555Z" fill="#FFB9B9"/>
<path d="M113.292 101.467C113.301 101.645 113.305 101.829 113.305 102.012C113.305 107.589 109.06 114.019 101.298 114.019C99.0069 114.024 96.7644 113.361 94.8447 112.111C95.1783 112.152 95.5141 112.173 95.8502 112.174C97.7492 112.177 99.5941 111.541 101.088 110.368C100.207 110.351 99.3541 110.059 98.6475 109.534C97.9409 109.008 97.416 108.275 97.1462 107.437C97.4084 107.487 97.6747 107.513 97.9416 107.513C98.316 107.514 98.6888 107.464 99.0499 107.365C98.095 107.172 97.2364 106.654 96.6198 105.9C96.0032 105.146 95.6665 104.202 95.667 103.227V103.178C96.2537 103.507 96.9117 103.688 97.5841 103.705C96.6904 103.109 96.0573 102.194 95.8133 101.148C95.5693 100.101 95.7327 99.0008 96.2703 98.0703C97.3279 99.3748 98.6486 100.442 100.146 101.202C101.644 101.962 103.285 102.398 104.962 102.481C104.89 102.164 104.854 101.841 104.855 101.516C104.854 100.67 105.108 99.8432 105.583 99.1434C106.059 98.4436 106.734 97.9031 107.52 97.5922C108.307 97.2813 109.169 97.2143 109.995 97.4C110.82 97.5857 111.57 98.0154 112.148 98.6334C113.094 98.448 114.001 98.1019 114.829 97.61C114.513 98.5872 113.854 99.4172 112.975 99.9472C113.809 99.845 114.623 99.6206 115.392 99.2814C114.828 100.129 114.116 100.869 113.292 101.467Z" fill="currentColor"/>
<path d="M106.858 123.945C103.542 123.945 100.3 122.962 97.5428 121.12C94.7855 119.277 92.6364 116.659 91.3673 113.595C90.0982 110.531 89.7662 107.16 90.4131 103.907C91.0601 100.655 92.657 97.6671 95.0019 95.3221C97.3468 92.9772 100.334 91.3803 103.587 90.7333C106.839 90.0863 110.211 90.4184 113.274 91.6874C116.338 92.9565 118.957 95.1056 120.799 97.8629C122.642 100.62 123.625 103.862 123.625 107.178C123.62 111.624 121.852 115.885 118.709 119.029C115.565 122.172 111.303 123.94 106.858 123.945ZM106.858 90.876C103.634 90.8759 100.482 91.832 97.8011 93.6233C95.1202 95.4146 93.0307 97.9607 91.7968 100.94C90.5629 103.918 90.24 107.196 90.869 110.359C91.498 113.521 93.0507 116.426 95.3306 118.706C97.6105 120.986 100.515 122.538 103.678 123.167C106.84 123.796 110.118 123.473 113.097 122.24C116.075 121.006 118.622 118.916 120.413 116.235C122.204 113.554 123.16 110.402 123.16 107.178C123.155 102.856 121.436 98.7124 118.38 95.6562C115.324 92.6 111.18 90.8809 106.858 90.876ZM103.037 115.772C100.701 115.776 98.4145 115.1 96.4565 113.826L95.6228 113.284L96.6106 113.401C96.9353 113.44 97.2621 113.46 97.5892 113.46C99.2293 113.467 100.833 112.979 102.192 112.061C101.382 111.93 100.623 111.577 100 111.041C99.3778 110.506 98.9158 109.808 98.6654 109.026L98.5449 108.648L98.9331 108.727C99.211 108.783 99.4942 108.807 99.7774 108.8C99.0018 108.444 98.3445 107.873 97.8831 107.155C97.4217 106.437 97.1756 105.602 97.1738 104.748V104.299L97.52 104.493C97.8416 104.674 98.1871 104.807 98.5463 104.891C97.8388 104.197 97.3824 103.288 97.2492 102.307C97.1159 101.326 97.3135 100.328 97.8106 99.4712L97.9796 99.1799L98.1919 99.4412C99.1986 100.68 100.447 101.701 101.861 102.441C103.275 103.182 104.825 103.627 106.417 103.748C106.38 103.513 106.362 103.275 106.362 103.037C106.361 102.155 106.622 101.293 107.112 100.56C107.602 99.8272 108.299 99.2564 109.114 98.9204C109.929 98.5843 110.826 98.4981 111.69 98.6727C112.554 98.8473 113.347 99.2749 113.968 99.901C114.842 99.716 115.68 99.3882 116.448 98.9307L116.974 98.6189L116.788 99.2013C116.562 99.9113 116.159 100.553 115.619 101.066C116.106 100.949 116.581 100.788 117.039 100.586L117.77 100.263L117.326 100.927C116.769 101.764 116.073 102.498 115.267 103.098C115.273 103.24 115.275 103.385 115.275 103.529C115.275 109.547 110.697 115.772 103.037 115.772ZM97.5321 113.925C99.224 114.835 101.116 115.31 103.037 115.307C110.407 115.307 114.81 109.318 114.81 103.529C114.81 103.35 114.806 103.171 114.798 102.996L114.791 102.87L114.893 102.797C115.482 102.37 116.013 101.868 116.472 101.304C115.909 101.492 115.329 101.624 114.74 101.695L113.654 101.829L114.592 101.266C115.239 100.879 115.763 100.318 116.105 99.6464C115.417 99.9879 114.687 100.235 113.933 100.382L113.807 100.407L113.719 100.313C113.173 99.7287 112.464 99.3223 111.684 99.1467C110.904 98.9711 110.089 99.0343 109.346 99.3282C108.602 99.6221 107.964 100.133 107.515 100.794C107.066 101.456 106.826 102.237 106.827 103.037C106.826 103.343 106.86 103.647 106.93 103.945L107.002 104.247L106.692 104.231C105.041 104.147 103.425 103.729 101.94 103.003C100.456 102.276 99.1345 101.255 98.056 100.003C97.6469 100.869 97.5628 101.853 97.819 102.776C98.0752 103.699 98.6547 104.499 99.4516 105.03L100.118 105.475L99.3166 105.455C98.7425 105.44 98.1771 105.312 97.6524 105.079C97.7254 105.939 98.075 106.753 98.6488 107.398C99.2226 108.043 99.9897 108.485 100.836 108.657L101.801 108.851L100.851 109.11C100.327 109.252 99.7822 109.297 99.2423 109.244C99.5456 109.948 100.046 110.55 100.682 110.977C101.319 111.405 102.065 111.639 102.832 111.653L103.484 111.666L102.971 112.068C101.439 113.278 99.5416 113.933 97.5892 113.925C97.5702 113.925 97.5512 113.925 97.5321 113.925Z" fill="#3F3D56"/>
<path d="M252.996 36.0773C252.463 36.0688 251.944 35.9028 251.504 35.6003C251.065 35.2978 250.725 34.8722 250.527 34.3769C250.328 33.8817 250.281 33.3389 250.39 32.8168C250.5 32.2947 250.761 31.8165 251.141 31.4424C251.521 31.0682 252.003 30.8147 252.527 30.7138C253.051 30.6129 253.593 30.669 254.085 30.8751C254.577 31.0812 254.997 31.4281 255.293 31.8722C255.588 32.3164 255.746 32.8379 255.746 33.3713C255.739 34.0945 255.446 34.7855 254.93 35.2928C254.415 35.8001 253.719 36.0822 252.996 36.0773ZM252.996 31.1301C252.555 31.1386 252.126 31.2772 251.763 31.5287C251.4 31.7801 251.119 32.1331 250.956 32.5434C250.793 32.9537 250.755 33.403 250.846 33.835C250.937 34.2669 251.154 34.6623 251.469 34.9715C251.785 35.2806 252.184 35.4899 252.618 35.5729C253.051 35.6559 253.5 35.609 253.907 35.4381C254.314 35.2672 254.662 34.9799 254.906 34.6122C255.15 34.2445 255.281 33.8128 255.281 33.3713C255.274 32.7714 255.03 32.1985 254.602 31.7784C254.174 31.3582 253.596 31.1251 252.996 31.1301Z" fill="#3F3D56"/>
<path d="M256.142 39.7878H249.85C248.958 39.7886 248.102 39.4386 247.465 38.8135C247.15 38.5087 246.9 38.1435 246.729 37.7397C246.558 37.3359 246.47 36.9018 246.471 36.4633V30.2793C246.472 29.8414 246.56 29.408 246.731 29.0046C246.901 28.6012 247.151 28.236 247.464 27.9304C248.099 27.3019 248.957 26.951 249.85 26.9549H256.142C257.034 26.954 257.891 27.304 258.527 27.9294C258.842 28.2341 259.092 28.5993 259.263 29.003C259.434 29.4068 259.522 29.8409 259.521 30.2793V36.4633C259.52 36.9013 259.432 37.3347 259.261 37.7381C259.091 38.1415 258.841 38.5067 258.528 38.8123C257.893 39.4408 257.035 39.7917 256.142 39.7878ZM249.85 27.4197C249.079 27.4161 248.339 27.7186 247.791 28.2609C247.521 28.5234 247.307 28.8371 247.16 29.1838C247.013 29.5304 246.937 29.9029 246.936 30.2793V36.4633C246.935 36.8397 247.011 37.2124 247.157 37.559C247.304 37.9057 247.519 38.2192 247.79 38.4808C248.339 39.021 249.079 39.3235 249.85 39.3229H256.142C256.913 39.3264 257.653 39.0239 258.201 38.4819C258.471 38.2193 258.685 37.9055 258.832 37.5589C258.979 37.2123 259.055 36.8398 259.056 36.4633V30.2793C259.057 29.9029 258.981 29.5303 258.835 29.1836C258.688 28.837 258.473 28.5235 258.202 28.262C257.653 27.7217 256.913 27.4191 256.142 27.4197L249.85 27.4197ZM252.996 37.3142C252.219 37.3015 251.463 37.0594 250.823 36.6184C250.183 36.1774 249.688 35.5571 249.399 34.8355C249.111 34.1138 249.042 33.3231 249.201 32.5624C249.361 31.8018 249.741 31.1052 250.295 30.5602C250.849 30.0152 251.552 29.646 252.315 29.4991C253.078 29.3522 253.868 29.434 254.585 29.7344C255.302 30.0347 255.914 30.5402 256.344 31.1873C256.774 31.8344 257.004 32.5942 257.004 33.3714C256.994 34.4253 256.567 35.4323 255.815 36.1715C255.064 36.9106 254.05 37.3216 252.996 37.3142ZM252.996 29.8934C252.311 29.9061 251.645 30.1209 251.081 30.5108C250.518 30.9007 250.082 31.4484 249.829 32.0851C249.575 32.7218 249.516 33.4191 249.657 34.0896C249.799 34.7601 250.135 35.3738 250.624 35.8539C251.113 36.3339 251.733 36.6588 252.406 36.7878C253.079 36.9168 253.775 36.8441 254.407 36.579C255.039 36.3138 255.578 35.8679 255.958 35.2973C256.337 34.7266 256.539 34.0566 256.539 33.3714C256.529 32.4406 256.151 31.5518 255.487 30.8998C254.822 30.2478 253.927 29.8858 252.996 29.8934ZM257.086 30.5117C256.858 30.5086 256.635 30.4379 256.446 30.3085C256.258 30.1791 256.111 29.9968 256.026 29.7846C255.941 29.5723 255.92 29.3396 255.967 29.1156C256.013 28.8916 256.125 28.6864 256.288 28.5258C256.451 28.3652 256.657 28.2562 256.882 28.2128C257.106 28.1693 257.339 28.1932 257.55 28.2815C257.761 28.3697 257.941 28.5184 258.068 28.7089C258.195 28.8993 258.262 29.1229 258.262 29.3517C258.26 29.6614 258.135 29.9574 257.914 30.1749C257.694 30.3923 257.396 30.5135 257.086 30.5117ZM257.086 28.6566C256.949 28.6597 256.817 28.7032 256.704 28.7815C256.592 28.8598 256.506 28.9695 256.455 29.0968C256.405 29.2241 256.394 29.3634 256.422 29.4972C256.451 29.631 256.518 29.7534 256.616 29.8491C256.714 29.9447 256.838 30.0093 256.973 30.0349C257.107 30.0604 257.246 30.0457 257.372 29.9926C257.498 29.9395 257.606 29.8504 257.682 29.7364C257.757 29.6223 257.798 29.4885 257.798 29.3517C257.795 29.1653 257.719 28.9874 257.586 28.8571C257.452 28.7268 257.273 28.6547 257.086 28.6566Z" fill="#3F3D56"/>
<path d="M252.834 48.4089C244.472 48.4089 237.669 41.7214 237.669 33.5013C237.669 25.2812 244.472 18.5936 252.834 18.5936C261.197 18.5936 268 25.2812 268 33.5013C268 41.7214 261.197 48.4089 252.834 48.4089ZM252.834 19.0584C244.729 19.0584 238.134 25.5374 238.134 33.5013C238.134 41.4651 244.729 47.9441 252.834 47.9441C260.941 47.9441 267.535 41.4651 267.535 33.5013C267.535 25.5374 260.941 19.0584 252.834 19.0584ZM256.142 41.0245H249.85C248.63 41.0332 247.457 40.5578 246.588 39.7027C245.719 38.8476 245.224 37.6826 245.212 36.4633V30.2793C245.224 29.06 245.719 27.895 246.588 27.0399C247.457 26.1848 248.63 25.7095 249.85 25.7181H256.142C257.362 25.7095 258.535 26.1848 259.404 27.0399C260.273 27.895 260.768 29.06 260.78 30.2793V36.4633C260.768 37.6826 260.273 38.8476 259.404 39.7027C258.535 40.5578 257.362 41.0332 256.142 41.0245ZM249.85 26.1829C248.754 26.1742 247.699 26.6006 246.917 27.3685C246.134 28.1364 245.689 29.1832 245.677 30.2793V36.4633C245.689 37.5594 246.134 38.6062 246.917 39.3741C247.699 40.142 248.754 40.5684 249.85 40.5597H256.142C257.238 40.5684 258.293 40.142 259.075 39.3741C259.858 38.6062 260.303 37.5594 260.315 36.4633V30.2793C260.303 29.1832 259.858 28.1364 259.075 27.3685C258.293 26.6006 257.238 26.1742 256.142 26.1829H249.85Z" fill="#3F3D56"/>
<path d="M16.438 99.276C7.3741 99.276 0 91.8659 0 82.7577C0 73.6496 7.37409 66.2395 16.438 66.2395C25.5019 66.2395 32.876 73.6496 32.876 82.7577C32.876 91.8659 25.5019 99.276 16.438 99.276ZM16.438 66.7043C7.63034 66.7043 0.464839 73.9058 0.464839 82.7577C0.464839 91.6096 7.63034 98.8111 16.438 98.8111C25.2456 98.8111 32.4111 91.6096 32.4111 82.7577C32.4111 73.9058 25.2456 66.7043 16.438 66.7043ZM16.535 92.5008C15.5951 92.4999 14.6603 92.3638 13.7592 92.0967L13.4652 92.01L13.628 91.7505C14.0337 91.1336 14.3479 90.4613 14.5608 89.7544C14.6786 89.3315 15.2286 87.1385 15.234 87.1164L15.3823 86.5251L15.6654 87.065C15.9417 87.592 16.8135 88.1372 17.7941 88.1372C20.6954 88.1372 22.7217 85.5254 22.7217 81.7857C22.7217 79.195 20.5449 76.5151 16.9021 76.5151C12.3492 76.5151 10.3014 79.8881 10.3014 82.2833C10.3014 84.006 10.9629 85.2658 12.1163 85.7398C12.1494 85.7574 12.1881 85.7613 12.224 85.7506C12.2549 85.7278 12.2754 85.6936 12.2812 85.6557C12.3068 85.5623 12.3473 85.3996 12.3868 85.2415C12.4217 85.1014 12.4558 84.9649 12.4778 84.8825C12.5194 84.7264 12.5219 84.7171 12.3871 84.5551C11.9174 83.9848 11.6735 83.2618 11.7017 82.5235C11.7017 80.1798 13.433 77.6888 16.6417 77.6888C19.1993 77.6888 20.852 79.2246 20.852 81.6013C20.852 84.646 19.4493 86.9421 17.5893 86.9421C17.3162 86.9471 17.0455 86.89 16.7976 86.7752C16.5497 86.6603 16.3312 86.4906 16.1585 86.279C15.9978 86.0738 15.8866 85.8344 15.8335 85.5793C15.7804 85.3242 15.7867 85.0603 15.8521 84.8081C15.9581 84.3564 16.1001 83.8951 16.2375 83.449C16.4707 82.691 16.6911 81.9751 16.6911 81.4512C16.6911 81.1676 16.6149 80.2424 15.6345 80.2424C14.7309 80.2424 14.0231 81.2331 14.0231 82.4977C14.0182 82.9838 14.1145 83.4657 14.306 83.9125L14.3432 83.9874L14.3243 84.0692C14.3243 84.0692 13.2787 88.5258 13.0951 89.3063C12.9477 90.0104 12.8938 90.7308 12.9347 91.449L12.9489 91.8209L12.6084 91.6704C10.5479 90.7582 8.86244 89.167 7.83338 87.1623C6.80432 85.1575 6.49385 82.8606 6.95378 80.6546C7.41371 78.4486 8.61622 76.4671 10.3607 75.0406C12.1051 73.6141 14.286 72.829 16.5393 72.8162C17.8286 72.8193 19.1047 73.0764 20.2946 73.5729C21.4845 74.0694 22.5649 74.7956 23.4739 75.7099C24.383 76.6242 25.103 77.7087 25.5927 78.9014C26.0824 80.0941 26.3322 81.3716 26.3278 82.6609C26.3311 85.2635 25.3019 87.7611 23.4661 89.6058C21.6302 91.4505 19.1376 92.4916 16.535 92.5008ZM14.1832 91.7322C16.5095 92.349 18.984 92.0476 21.0941 90.8903C23.2043 89.733 24.7885 87.8085 25.5188 85.5153C26.249 83.222 26.0694 80.7358 25.017 78.5714C23.9647 76.407 22.1202 74.7302 19.8656 73.8883C17.611 73.0464 15.119 73.1038 12.9055 74.0486C10.6921 74.9935 8.92679 76.7535 7.97523 78.964C7.02367 81.1746 6.95871 83.6665 7.79382 85.9236C8.62892 88.1808 10.3001 90.0303 12.4613 91.0892C12.4474 90.4546 12.5083 89.8205 12.6426 89.2001C12.8119 88.48 13.7146 84.6329 13.8537 84.0398C13.6556 83.5499 13.5552 83.0261 13.5583 82.4977C13.5583 80.9724 14.4703 79.7776 15.6345 79.7776C16.5587 79.7776 17.1559 80.4346 17.1559 81.4512C17.1559 82.045 16.9255 82.7934 16.6816 83.5857C16.5466 84.0243 16.407 84.4779 16.3046 84.9142C16.256 85.0982 16.2503 85.291 16.2881 85.4776C16.326 85.6642 16.4062 85.8396 16.5228 85.9901C16.6521 86.1467 16.8153 86.272 17 86.3563C17.1848 86.4407 17.3863 86.482 17.5893 86.4772C19.1843 86.4772 20.3872 84.381 20.3872 81.6013C20.3872 79.4747 18.952 78.1536 16.6417 78.1536C13.735 78.1536 12.1665 80.405 12.1665 82.5235C12.1402 83.1523 12.3454 83.7689 12.7433 84.2565C12.8442 84.3488 12.9155 84.4689 12.9482 84.6016C12.9809 84.7344 12.9735 84.8738 12.927 85.0024C12.9054 85.0833 12.872 85.217 12.8378 85.3539C12.7973 85.5161 12.7557 85.6828 12.7302 85.776C12.7135 85.8596 12.6779 85.9384 12.626 86.0061C12.5742 86.0738 12.5076 86.1288 12.4312 86.1668C12.3548 86.2048 12.2708 86.2248 12.1855 86.2252C12.1002 86.2257 12.0159 86.2066 11.9392 86.1695C10.6227 85.6286 9.8365 84.1757 9.8365 82.2832C9.8365 79.2193 12.4794 76.0502 16.9021 76.0502C20.8359 76.0502 23.1865 78.9664 23.1865 81.7857C23.1865 85.7354 20.9187 88.602 17.7941 88.602C16.9635 88.6004 16.1654 88.2791 15.5655 87.7046C15.3952 88.3812 15.0946 89.5703 15.0091 89.8775C14.8173 90.5296 14.5396 91.1534 14.1832 91.7322Z" fill="#3F3D56"/>
<path d="M232.841 82.2239C230.016 82.2347 227.217 81.6868 224.605 80.6116C217.317 77.5739 212.492 71.0327 207.825 64.7068C205.305 61.2916 202.7 57.7603 199.724 54.787C194.955 50.0224 189.423 46.9443 183.725 45.8853C177.321 44.6949 170.796 46.2344 166.27 50.002C165.697 50.4791 165.158 50.9946 164.656 51.5451C165.316 51.6254 165.975 51.711 166.632 51.802C173.543 52.7598 182.21 55.416 184.255 62.632C185.04 65.4019 184.481 68.5373 182.722 71.2341C180.838 74.1238 177.838 76.1109 174.699 76.5493C174.187 76.6205 173.671 76.6561 173.155 76.6558C167.501 76.6562 161.931 72.4535 160.281 66.6767C158.884 61.7844 160.294 56.0838 163.73 51.9041C159.575 51.4306 155.399 51.171 151.217 51.1265L151.222 50.6616C155.524 50.7074 159.82 50.9799 164.092 51.478C164.671 50.8189 165.299 50.206 165.973 49.6448C170.604 45.7897 177.272 44.2136 183.81 45.4282C189.6 46.5044 195.217 49.6269 200.053 54.4581C203.053 57.4562 205.669 61.0018 208.199 64.4308C213.041 70.9946 217.615 77.1944 224.783 80.1826C231.989 83.1863 240.836 81.8198 246.799 76.783C252.762 71.7464 255.589 63.2522 253.834 55.6465L254.287 55.5419C256.081 63.313 253.192 71.992 247.099 77.1383C243.161 80.4643 237.992 82.2238 232.841 82.2239ZM164.282 51.9684C160.799 56.0512 159.347 61.7097 160.728 66.5491C162.466 72.6375 168.705 76.9167 174.634 76.089C177.642 75.6687 180.52 73.759 182.333 70.9801C184.018 68.3958 184.556 65.3992 183.808 62.7587C181.831 55.7841 173.342 53.2012 166.568 52.2626C165.809 52.1573 165.047 52.0592 164.282 51.9684Z" fill="#3F3D56"/>
<path d="M52.7049 79.2559C50.6184 79.263 48.5376 79.0382 46.5007 78.5858C41.436 77.4967 36.8855 74.7341 33.5824 70.7432C32.4921 69.4375 31.4991 67.9718 30.5389 66.5541C29.0812 64.4023 27.5739 62.1771 25.7223 60.5213C23.8798 58.8738 21.454 58.0072 19.3934 58.2572C18.6439 58.3429 17.9224 58.592 17.2798 58.9871C16.6371 59.3821 16.0891 59.9135 15.6743 60.5435L15.2903 60.2816C15.7417 59.5963 16.3381 59.0184 17.0374 58.5889C17.7366 58.1594 18.5217 57.8886 19.3371 57.7958C21.5592 57.5255 24.0634 58.4142 26.0321 60.1747C27.9265 61.8688 29.4502 64.1181 30.9238 66.2934C31.8776 67.7015 32.8639 69.1576 33.9392 70.4452C40.21 77.9541 50.1703 80.578 61.267 77.6443L61.3857 78.0937C58.5541 78.853 55.6364 79.2436 52.7049 79.2559Z" fill="#3F3D56"/>
</g>
<defs>
<clipPath id="clip0">
<rect width="268" height="192.974" fill="white"/>
</clipPath>
</defs>
</svg>
