<svg width="28" height="28" viewBox="0 0 28 28" fill="none" xmlns="http://www.w3.org/2000/svg">
<path d="M13.9999 2.33337C7.55733 2.33337 2.33325 7.55745 2.33325 14C2.33325 20.4426 7.55733 25.6667 13.9999 25.6667C15.0758 25.6667 15.9444 24.7982 15.9444 23.7223C15.9444 23.2167 15.7499 22.763 15.4388 22.413C15.1407 22.076 14.9462 21.6223 14.9462 21.1297C14.9462 20.0537 15.8147 19.1852 16.8907 19.1852H19.1851C22.7629 19.1852 25.6666 16.2815 25.6666 12.7037C25.6666 6.97411 20.4425 2.33337 13.9999 2.33337ZM6.87029 14C5.79436 14 4.92584 13.1315 4.92584 12.0556C4.92584 10.9797 5.79436 10.1112 6.87029 10.1112C7.94622 10.1112 8.81473 10.9797 8.81473 12.0556C8.81473 13.1315 7.94622 14 6.87029 14ZM10.7592 8.81486C9.68325 8.81486 8.81473 7.94634 8.81473 6.87041C8.81473 5.79449 9.68325 4.92597 10.7592 4.92597C11.8351 4.92597 12.7036 5.79449 12.7036 6.87041C12.7036 7.94634 11.8351 8.81486 10.7592 8.81486ZM17.2407 8.81486C16.1647 8.81486 15.2962 7.94634 15.2962 6.87041C15.2962 5.79449 16.1647 4.92597 17.2407 4.92597C18.3166 4.92597 19.1851 5.79449 19.1851 6.87041C19.1851 7.94634 18.3166 8.81486 17.2407 8.81486ZM21.1295 14C20.0536 14 19.1851 13.1315 19.1851 12.0556C19.1851 10.9797 20.0536 10.1112 21.1295 10.1112C22.2055 10.1112 23.074 10.9797 23.074 12.0556C23.074 13.1315 22.2055 14 21.1295 14Z" fill="#574039"/>
</svg>
