<svg width="30" height="30" viewBox="0 0 30 30" fill="none" xmlns="http://www.w3.org/2000/svg">
<path d="M15 0C6.74004 0 0 6.74115 0 15C0 23.26 6.74115 30 15 30C23.26 30 30 23.2588 30 15C30 6.74004 23.2588 0 15 0ZM26.6628 8.73328L22.5954 10.5821C21.8286 9.26883 20.7312 8.17143 19.4179 7.40461L21.2667 3.33721C23.5494 4.56867 25.4313 6.45064 26.6628 8.73328ZM22.0312 15C22.0312 18.877 18.877 22.0312 15 22.0312C11.123 22.0312 7.96875 18.877 7.96875 15C7.96875 11.123 11.123 7.96875 15 7.96875C18.877 7.96875 22.0312 11.123 22.0312 15ZM15 1.75781C16.6421 1.75781 18.215 2.0591 19.6673 2.60795L17.8189 6.67453C16.9337 6.374 15.9855 6.21094 15 6.21094C14.0145 6.21094 13.0663 6.374 12.1811 6.67453L10.3327 2.60795C11.785 2.0591 13.3579 1.75781 15 1.75781ZM8.73334 3.33721L10.5821 7.40461C9.26889 8.17143 8.17148 9.26883 7.40467 10.5821L3.33727 8.73328C4.56867 6.45064 6.45064 4.56867 8.73334 3.33721ZM1.75781 15C1.75781 13.3579 2.0591 11.785 2.60795 10.3327L6.67453 12.1812C6.374 13.0663 6.21094 14.0145 6.21094 15C6.21094 15.9855 6.374 16.9337 6.67453 17.8188L2.60795 19.6673C2.0591 18.215 1.75781 16.6421 1.75781 15ZM3.33721 21.2667L7.40461 19.4179C8.17143 20.7311 9.26883 21.8286 10.5821 22.5953L8.73328 26.6627C6.45064 25.4313 4.56867 23.5494 3.33721 21.2667ZM15 28.2422C13.3579 28.2422 11.785 27.9409 10.3327 27.392L12.1811 23.3255C13.0663 23.626 14.0145 23.7891 15 23.7891C15.9855 23.7891 16.9337 23.626 17.8189 23.3255L19.6673 27.392C18.215 27.9409 16.6421 28.2422 15 28.2422ZM21.2667 26.6628L19.4179 22.5954C20.7311 21.8286 21.8286 20.7312 22.5953 19.4179L26.6627 21.2667C25.4313 23.5494 23.5494 25.4313 21.2667 26.6628ZM23.3255 17.8188C23.626 16.9337 23.7891 15.9855 23.7891 15C23.7891 14.0145 23.626 13.0663 23.3255 12.1812L27.392 10.3327C27.9409 11.785 28.2422 13.3579 28.2422 15C28.2422 16.6421 27.9409 18.215 27.392 19.6673L23.3255 17.8188Z" fill="white"/>
<path d="M14.0274 16.3824C14.0274 16.0643 14.1252 15.7606 14.3207 15.4714C14.5237 15.1822 14.7418 14.9508 14.9749 14.7773C15.208 14.5965 15.4223 14.3869 15.6178 14.1483C15.8209 13.9097 15.9224 13.6711 15.9224 13.4325C15.9224 13.1794 15.8322 12.9842 15.6517 12.8468C15.4712 12.7095 15.2193 12.6408 14.8959 12.6408C14.2643 12.6408 13.8169 12.9625 13.5537 13.606L12.2227 12.8685C12.4483 12.3335 12.8054 11.9214 13.2942 11.6322C13.7905 11.3357 14.3432 11.1875 14.9523 11.1875C15.6366 11.1875 16.227 11.3791 16.7233 11.7623C17.2271 12.1383 17.479 12.6588 17.479 13.324C17.479 13.6277 17.4113 13.9097 17.276 14.1699C17.1481 14.4302 16.9902 14.6544 16.8022 14.8424C16.6217 15.0231 16.4375 15.1966 16.2495 15.3629C16.069 15.522 15.9111 15.6883 15.7758 15.8618C15.6479 16.0353 15.584 16.2089 15.584 16.3824H14.0274ZM15.4825 18.8009C15.2945 18.9816 15.0689 19.072 14.8057 19.072C14.5425 19.072 14.3169 18.9816 14.1289 18.8009C13.9409 18.6201 13.8469 18.4032 13.8469 18.1502C13.8469 17.8971 13.9409 17.6802 14.1289 17.4994C14.3169 17.3187 14.5425 17.2283 14.8057 17.2283C15.0689 17.2283 15.2945 17.3187 15.4825 17.4994C15.6705 17.6802 15.7645 17.8971 15.7645 18.1502C15.7645 18.4032 15.6705 18.6201 15.4825 18.8009Z" fill="white"/>
</svg>
