<svg width="24" height="24" viewBox="0 0 24 24" fill="none" xmlns="http://www.w3.org/2000/svg">
<path d="M19.5715 12.3423C19.1371 12.2034 18.6951 12.0891 18.2478 12C18.6951 11.9109 19.1371 11.7966 19.5715 11.6577C20.4762 11.4543 21.3227 10.9786 22.0204 10.2811C23.7702 8.53187 24.0013 5.91657 22.5355 4.45123C22.0025 3.91846 21.2889 3.58914 20.4979 3.50495C20.4137 2.71435 20.0842 2.00084 19.5513 1.46812C18.8311 0.748101 17.8204 0.411497 16.7049 0.519929C15.6176 0.625774 14.5573 1.14532 13.7194 1.98297C13.0217 2.68047 12.5458 3.52665 12.3424 4.4311C12.2034 4.86536 12.0891 5.30712 12 5.75428C11.9109 5.30712 11.7966 4.86536 11.6576 4.4311C11.4542 3.52665 10.9783 2.68047 10.2806 1.98297C9.44267 1.14532 8.38248 0.625774 7.2951 0.519929C6.18003 0.411497 5.16892 0.748053 4.44865 1.46822C3.9158 2.00084 3.58632 2.71401 3.5021 3.50495C2.71124 3.58914 1.99749 3.91846 1.46454 4.45123C-0.00129634 5.91657 0.229781 8.53187 1.97956 10.2811C2.6773 10.9786 3.52377 11.4543 4.42847 11.6577C4.86293 11.7966 5.30489 11.9109 5.75224 12C5.30489 12.0891 4.86293 12.2034 4.42847 12.3423C3.52377 12.5456 2.6773 13.0213 1.97956 13.7188C0.229781 15.4681 -0.00129616 18.0834 1.46468 19.5487C1.99759 20.0815 2.71124 20.4108 3.50225 20.495C3.58646 21.2856 3.91594 21.9991 4.4488 22.5318C5.16906 23.2518 6.17984 23.5886 7.29525 23.48C8.38252 23.3742 9.44257 22.8546 10.2807 22.017C10.9785 21.3195 11.4543 20.4733 11.6577 19.5689C11.7967 19.1346 11.9109 18.6928 12 18.2457C12.0891 18.6928 12.2034 19.1346 12.3424 19.5689C12.5458 20.4733 13.0217 21.3195 13.7194 22.017C14.5573 22.8546 15.6175 23.3742 16.7049 23.48C16.8421 23.4934 16.9775 23.5 17.1112 23.5C18.0643 23.5 18.9197 23.1633 19.5513 22.5318C20.0842 21.9991 20.4137 21.2857 20.4979 20.495C21.2888 20.4108 22.0026 20.0815 22.5355 19.5487C24.0013 18.0834 23.7702 15.4681 22.0204 13.7188C21.3227 13.0213 20.4762 12.5456 19.5715 12.3423Z" fill="white"/>
</svg>
