<svg width="35" height="35" viewBox="0 0 35 35" fill="none" xmlns="http://www.w3.org/2000/svg">
<path d="M22.3419 4.94841L21.8993 2.74966H20.4487L20.0061 4.94841C19.9601 5.17681 19.789 5.3596 19.5641 5.42049C19.0563 5.55741 18.5684 5.75991 18.1128 6.02289C17.9099 6.14064 17.6575 6.13253 17.4625 6.00199L15.6006 4.75417L14.5759 5.78439L15.8201 7.64444C15.9506 7.83946 15.9587 8.09179 15.841 8.29478C15.578 8.75033 15.3755 9.2382 15.2386 9.74607C15.1777 9.97095 14.9949 10.1421 14.7665 10.188L12.5683 10.63V12.0807L14.7671 12.5226C14.9955 12.5686 15.1783 12.7397 15.2392 12.9646C15.3761 13.4725 15.5786 13.9603 15.8416 14.4159C15.9593 14.6189 15.9512 14.8712 15.8207 15.0662L14.5728 16.9281L15.6031 17.9528L17.4631 16.7087C17.6581 16.5781 17.9105 16.57 18.1135 16.6878C18.569 16.9507 19.0569 17.1532 19.5647 17.2902C19.7896 17.3511 19.9608 17.5338 20.0067 17.7622L20.4487 19.961H21.8993L22.3413 17.7622C22.3873 17.5338 22.5584 17.3511 22.7833 17.2902C23.2911 17.1532 23.779 16.9507 24.2345 16.6878C24.4375 16.57 24.6899 16.5781 24.8849 16.7087L26.7468 17.9565L27.7715 16.9263L26.5273 15.0662C26.3968 14.8712 26.3887 14.6189 26.5064 14.4159C26.7694 13.9603 26.9719 13.4725 27.1088 12.9646C27.1697 12.7397 27.3525 12.5686 27.5809 12.5226L29.7797 12.0807V10.6294L27.5809 10.1874C27.3525 10.1415 27.1697 9.97033 27.1088 9.74545C26.9719 9.23758 26.7694 8.74971 26.5064 8.29417C26.3887 8.09117 26.3968 7.83885 26.5273 7.64383L27.7752 5.78193L26.7449 4.75786L24.8849 6.00199C24.6899 6.13253 24.4375 6.14064 24.2345 6.02289C23.779 5.75991 23.2911 5.55741 22.7833 5.42049C22.5586 5.3594 22.3878 5.17665 22.3419 4.94841ZM25.4768 11.3553C25.4768 13.7317 23.5504 15.6582 21.174 15.6582C18.7976 15.6582 16.8712 13.7317 16.8712 11.3553C16.8712 8.97894 18.7976 7.0525 21.174 7.0525C23.5493 7.05521 25.4741 8.98006 25.4768 11.3553Z" fill="url(#paint0_linear)"/>
<path d="M27.7561 8.02006C27.9258 8.3536 28.0697 8.69966 28.1864 9.0552L29.1195 9.23961C30.0794 8.75964 30.6143 7.70996 30.4385 6.65124C30.2626 5.59251 29.4171 4.77209 28.3536 4.6282L28.6407 4.91526C29.0534 5.32684 29.1204 5.97172 28.8011 6.45937L27.7561 8.02006Z" fill="url(#paint1_linear)"/>
<path d="M18.1006 11.3553C18.1006 13.0528 19.4766 14.4288 21.174 14.4288C22.8714 14.4288 24.2475 13.0528 24.2475 11.3553C24.2475 9.65792 22.8714 8.28189 21.174 8.28189C19.4774 8.28392 18.1026 9.65876 18.1006 11.3553Z" fill="url(#paint2_linear)"/>
<path d="M0.665489 21.0275C0.825933 21.1394 0.995343 21.2379 1.17199 21.3219C1.69632 21.5899 2.41428 21.9575 2.56242 22.7068C2.65044 23.1713 2.59313 23.6517 2.3983 24.0825C2.29134 24.3105 2.1807 24.5072 2.08419 24.6769C2.05469 24.7298 2.02272 24.7888 1.99137 24.8423C2.24647 25.0476 2.59439 25.3082 2.74191 25.4164C2.8761 25.5152 2.96443 25.6642 2.98668 25.8293C3.00893 25.9944 2.96319 26.1615 2.85993 26.2923C2.76854 26.411 2.68907 26.5385 2.62266 26.6728C2.6663 26.6986 2.71056 26.7238 2.75482 26.749C3.29635 26.9827 3.70971 27.4401 3.88769 28.0024C3.97886 28.4413 3.95878 28.896 3.8293 29.3252C3.80041 29.4512 3.77152 29.5772 3.75369 29.7032C3.72076 30.0731 3.77269 30.4457 3.90552 30.7924C4.04187 31.3592 4.59905 31.7192 5.17178 31.6106C6.96311 31.1798 8.72814 30.6462 10.4581 30.0124H10.4618C11.1017 29.7948 11.682 29.592 12.1387 29.4328C12.5647 29.2834 12.8861 29.1715 13.0533 29.118C15.6086 28.3036 16.1268 27.3834 16.112 26.7546C16.1041 26.4153 16.3727 26.1338 16.712 26.1257C16.8756 26.1196 17.0347 26.1799 17.1531 26.2929C17.2716 26.4059 17.3393 26.562 17.3408 26.7257C17.3771 28.2513 16.0604 29.45 13.4283 30.2909C13.2672 30.3425 12.9562 30.4507 12.5444 30.5982L11.9912 30.7912C13.0044 31.9144 13.7439 33.2569 14.1518 34.7136L28.0942 34.6748L28.053 34.6134C27.8762 34.3582 27.717 34.0912 27.5766 33.8143C27.2709 33.1931 27.0158 32.5482 26.8138 31.886C26.4408 30.6277 26.182 29.3384 26.0405 28.0337C25.7981 25.9773 26.1092 23.8934 26.9416 21.9975C27.4324 20.9714 28.0394 20.0052 28.7507 19.1176C29.1072 18.637 29.476 18.1403 29.7957 17.6356C30.6471 16.3208 31.1046 14.7898 31.1142 13.2234C31.1178 13.0845 31.1142 12.9461 31.1111 12.8078L30.8695 12.6462C30.6996 12.9782 30.3875 13.2147 30.0219 13.2885L28.1852 13.6573C28.0684 14.0129 27.9246 14.3589 27.7549 14.6925L28.7962 16.244C29.1229 16.735 29.0548 17.389 28.6339 17.8022L27.6141 18.822C27.2025 19.2348 26.5577 19.3018 26.07 18.9824L24.5093 17.9374C24.1758 18.1071 23.8297 18.251 23.4742 18.3677L23.1054 20.2069C22.9884 20.7798 22.4841 21.1911 21.8993 21.1904H20.4487C19.8626 21.1907 19.3578 20.7772 19.2427 20.2026L18.8738 18.3659C18.5183 18.2491 18.1722 18.1053 17.8387 17.9356L16.2854 18.9775C15.7942 19.3025 15.1417 19.2348 14.7278 18.8158L13.7074 17.7954C13.2946 17.3839 13.2276 16.739 13.5469 16.2513L14.5919 14.6906C14.4222 14.3571 14.2784 14.011 14.1616 13.6555L12.3225 13.2867C11.7495 13.1697 11.3383 12.6654 11.339 12.0807V10.63C11.3387 10.0439 11.7521 9.53914 12.3268 9.42397L14.1635 9.05516C14.2802 8.69962 14.4241 8.35356 14.5938 8.02002L13.5519 6.4667C13.2251 5.97561 13.2932 5.32169 13.7141 4.90846L14.7339 3.88869C15.1455 3.47591 15.7904 3.4089 16.278 3.72826L17.8387 4.77323C18.1722 4.60355 18.5183 4.4597 18.8738 4.34295L19.2427 2.50379C19.3596 1.93086 19.8639 1.51958 20.4487 1.52029H21.8993C21.9807 1.52105 22.0618 1.5297 22.1415 1.5461L22.6456 1.04206C21.0255 0.45738 19.3036 0.20769 17.5842 0.308119C15.6446 0.44451 13.7176 0.722268 11.8184 1.13918C9.33754 1.63093 7.48425 2.51301 6.30834 3.75592C5.33785 4.79635 4.58766 6.0222 4.10284 7.35985C3.87526 8.02515 3.69047 8.70434 3.54961 9.39324C3.40003 9.96758 3.19413 10.5258 2.93492 11.0597C2.81936 11.3184 2.70319 11.5766 2.60299 11.8397C2.54302 11.9775 2.50926 12.1253 2.50341 12.2755C2.52984 12.4599 2.76527 12.6738 3.01483 12.9019C3.52363 13.2594 3.85237 13.82 3.91597 14.4386C3.90468 14.7307 3.8233 15.0157 3.6787 15.2697C2.90943 16.8896 1.96672 18.4214 0.867107 19.8381C0.399328 20.4079 0.301592 20.6335 0.299133 20.7269C0.411916 20.838 0.534536 20.9386 0.665489 21.0275ZM4.8669 9.05024C4.9635 8.62319 5.08459 8.20205 5.22956 7.7889C5.65686 6.60576 6.31928 5.52138 7.1769 4.60112C8.17516 3.54877 9.81208 2.78655 12.0428 2.34274C12.3758 2.27671 12.6993 2.49316 12.7654 2.8262C12.8314 3.15923 12.6149 3.48274 12.2819 3.54877C10.3063 3.94155 8.88943 4.58022 8.07005 5.4457C7.32722 6.2447 6.75351 7.18557 6.38334 8.21181C6.25459 8.58136 6.14705 8.95795 6.06124 9.33976C6.00997 9.55395 5.84802 9.72434 5.63671 9.78643C5.4254 9.84851 5.19702 9.7928 5.03804 9.64038C4.87906 9.48796 4.81377 9.26214 4.8669 9.0484V9.05024Z" fill="url(#paint3_linear)"/>
<path d="M23.4742 4.34791C23.8297 4.46466 24.1758 4.60851 24.5093 4.77819L26.0626 3.73322C26.3169 3.56745 26.6229 3.50014 26.9232 3.54389C27.2757 3.42743 27.6443 3.36687 28.0155 3.36441C29.519 3.35935 30.8743 4.2695 31.4385 5.66311C32.0027 7.05672 31.6623 8.6534 30.5788 9.69571C30.8515 9.9296 31.0086 10.2708 31.0091 10.63V11.2583L32.3755 12.1748L33.0578 11.4925L32.1155 10.0873C31.9834 9.89022 31.9764 9.63471 32.0977 9.43078C32.3048 9.07891 32.463 8.70047 32.5679 8.3059C32.6288 8.08044 32.8122 7.90896 33.0412 7.86332L34.7009 7.53323V6.57186L33.0443 6.24177C32.8153 6.19613 32.6319 6.02465 32.571 5.79919C32.466 5.40462 32.3078 5.02618 32.1007 4.67431C31.9786 4.47097 31.9843 4.21547 32.1155 4.01782L33.0584 2.61264L32.3761 1.93033L30.9703 2.87265C30.7733 3.00479 30.5178 3.01173 30.3138 2.89048C29.962 2.68339 29.5835 2.52519 29.189 2.42024C28.9635 2.35935 28.792 2.17596 28.7464 1.94693L28.4163 0.290955H27.4549L27.1248 1.95062C27.0792 2.17965 26.9077 2.36304 26.6823 2.42393C26.2877 2.52888 25.9092 2.68708 25.5574 2.89417C25.3527 3.01432 25.0972 3.00594 24.9009 2.87265L23.4957 1.93033L23.0654 2.36062C23.0828 2.40797 23.097 2.45643 23.1078 2.50568L23.4742 4.34791Z" fill="url(#paint4_linear)"/>
<defs>
<linearGradient id="paint0_linear" x1="12.5683" y1="11.4459" x2="29.7797" y2="11.4459" gradientUnits="userSpaceOnUse">
<stop stop-color="#2EA7FF"/>
<stop offset="1" stop-color="#2ACCFF"/>
</linearGradient>
<linearGradient id="paint1_linear" x1="27.7561" y1="6.95818" x2="30.4717" y2="6.95818" gradientUnits="userSpaceOnUse">
<stop stop-color="#2EA7FF"/>
<stop offset="1" stop-color="#2ACCFF"/>
</linearGradient>
<linearGradient id="paint2_linear" x1="18.1006" y1="11.3877" x2="24.2475" y2="11.3877" gradientUnits="userSpaceOnUse">
<stop stop-color="#2EA7FF"/>
<stop offset="1" stop-color="#2ACCFF"/>
</linearGradient>
<linearGradient id="paint3_linear" x1="0.299133" y1="17.6812" x2="31.1157" y2="17.6812" gradientUnits="userSpaceOnUse">
<stop stop-color="#2EA7FF"/>
<stop offset="1" stop-color="#2ACCFF"/>
</linearGradient>
<linearGradient id="paint4_linear" x1="23.0654" y1="6.2954" x2="34.7009" y2="6.2954" gradientUnits="userSpaceOnUse">
<stop stop-color="#2EA7FF"/>
<stop offset="1" stop-color="#2ACCFF"/>
</linearGradient>
</defs>
</svg>
