<svg width="32" height="31" viewBox="0 0 32 31" fill="none" xmlns="http://www.w3.org/2000/svg">
<path d="M20.4286 0V4.42857H23.9403L21.4717 6.89721C19.2994 5.34921 16.6506 4.42857 13.7857 4.42857C6.45955 4.42857 0.5 10.3881 0.5 17.7143C0.5 25.0404 6.45955 31 13.7857 31C21.1119 31 27.0714 25.0404 27.0714 17.7143C27.0714 14.8494 26.1508 12.2006 24.6028 10.0283L27.0714 7.5597V11.0714H31.5V0H20.4286ZM13.7857 26.5714C8.90195 26.5714 4.92857 22.598 4.92857 17.7143C4.92857 12.8305 8.90195 8.85714 13.7857 8.85714C18.6695 8.85714 22.6429 12.8305 22.6429 17.7143C22.6429 22.598 18.6695 26.5714 13.7857 26.5714Z" fill="white"/>
</svg>
