<svg width="28" height="35" viewBox="0 0 28 35" fill="none" xmlns="http://www.w3.org/2000/svg">
<path d="M27.5 13.125C27.5 5.88746 21.4443 0 14 0C6.55567 0 0.5 5.88746 0.5 13.125C0.5 19.6158 5.37546 25.0061 11.75 26.0524V28.4375H7.25V32.8125H11.75V35H16.25V32.8125H20.75V28.4375H16.25V26.0524C22.6245 25.0061 27.5 19.6158 27.5 13.125ZM5 13.125C5 8.30032 9.03747 4.375 14 4.375C18.9625 4.375 23 8.30032 23 13.125C23 17.9497 18.9625 21.875 14 21.875C9.03747 21.875 5 17.9497 5 13.125Z" fill="white"/>
</svg>
