<svg width="156" height="191" viewBox="0 0 156 191" fill="none" xmlns="http://www.w3.org/2000/svg">
<path d="M96.7545 141.452H60.8778V154.718H96.7545V141.452Z" fill="#7A82BD"/>
<path d="M93.2309 125.948H80.2576H64.0811C64.0811 125.948 64.8818 144.329 61.1981 149.603H78.8161H96.4341C92.7504 144.329 93.2309 125.948 93.2309 125.948Z" fill="#F5BE94"/>
<path d="M63.6005 139.854C67.7648 142.571 74.0112 143.849 78.9763 143.849C84.4218 143.849 89.2268 142.411 93.8715 140.493C93.0707 133.62 93.2308 125.788 93.2308 125.788H64.081C64.081 125.948 64.2412 133.141 63.6005 139.854Z" fill="#D9A176"/>
<path d="M135.194 162.39L92.9105 147.206H79.1364H78.656H64.7217L22.4384 162.39C22.4384 162.39 7.54316 167.185 9.30496 190.84H78.4958H78.9763H148.167C150.249 165.746 135.194 162.39 135.194 162.39Z" fill="#F5BE94"/>
<path d="M135.194 162.39L100.598 150.083L78.8161 165.267L57.5143 149.923L22.2783 162.55C22.2783 162.55 7.38301 167.345 9.14482 191H148.167C150.249 165.746 135.194 162.39 135.194 162.39Z" fill="#18A4F2"/>
<path d="M110.689 89.8259C109.728 96.0594 111.49 101.494 114.533 102.133C117.736 102.772 121.099 98.1372 122.06 91.9038C123.021 85.6703 121.26 80.236 118.216 79.5966C115.173 78.9573 111.81 83.5924 110.689 89.8259Z" fill="#F5BE94"/>
<path d="M114.533 88.0678C114.533 88.0678 114.533 87.7481 114.693 87.1088C114.853 86.4694 115.013 85.6703 115.494 84.8711C115.814 84.0719 116.455 83.113 117.255 83.113C117.416 83.113 117.736 83.1129 117.896 83.2728L118.216 83.4326L118.377 83.5924C118.697 83.9121 119.017 84.3916 119.177 84.8711C119.338 85.3506 119.498 85.9899 119.498 86.6292C119.498 87.2686 119.658 87.9079 119.498 88.3874C119.338 89.0267 119.338 89.6661 119.338 90.1456C119.177 90.6251 119.177 91.2644 119.017 91.7439C118.857 92.2234 118.857 92.7029 118.697 93.0226C118.537 93.5021 118.537 93.8217 118.377 93.9816C118.216 94.6209 118.056 94.9406 118.056 94.9406C118.056 94.9406 118.216 94.6209 118.537 94.1414C118.697 93.8217 118.857 93.5021 119.017 93.1824C119.177 92.8627 119.338 92.3833 119.498 91.9038C119.658 91.4243 119.818 90.9448 119.978 90.3054C120.138 89.6661 120.299 89.1866 120.299 88.5473C120.459 87.9079 120.459 87.1088 120.299 86.4695C120.299 85.8301 120.138 85.0309 119.818 84.3916C119.658 83.7523 119.177 83.113 118.697 82.6335C118.537 82.4736 118.377 82.4736 118.216 82.3138C118.056 82.154 118.056 82.154 117.736 82.154C117.416 82.154 117.095 81.9941 116.775 82.154C116.134 82.3138 115.654 82.7933 115.173 83.2728C114.853 83.7523 114.533 84.3916 114.373 84.8711C114.052 85.8301 114.052 86.7891 113.892 87.4284C114.533 87.7481 114.533 88.0678 114.533 88.0678Z" fill="#F3AB82"/>
<path d="M114.533 88.0678C114.533 88.0678 114.212 87.4285 116.294 87.2686C116.294 87.2686 118.537 87.7481 117.255 90.7849C116.935 91.4242 116.775 92.0636 116.615 92.8628C116.455 93.8218 116.775 95.2602 116.294 96.2192C115.654 97.338 113.732 96.6987 113.572 95.4201C113.412 94.3012 114.533 92.5431 115.013 91.9038C115.013 91.9038 116.455 89.6661 114.533 88.0678Z" fill="#F3AB82"/>
<path d="M113.572 95.2603C113.572 95.2603 113.572 95.2602 113.412 95.4201C113.251 95.5799 113.251 95.7398 113.091 96.0594C113.091 96.2193 113.091 96.3791 112.931 96.5389C112.931 96.6987 112.931 96.8585 112.931 97.0184C112.931 97.1782 112.931 97.3381 112.931 97.4979C112.931 97.6577 113.091 97.8176 113.091 97.9774C113.091 98.1372 113.251 98.2971 113.251 98.4569C113.412 98.6167 113.412 98.7765 113.572 98.7765C113.732 99.0962 114.052 99.0962 114.212 99.2561C114.693 99.4159 114.853 99.4159 114.853 99.4159C114.853 99.4159 114.693 99.0962 114.533 98.6167C114.533 98.4569 114.373 98.4569 114.373 98.2971C114.373 98.1372 114.212 98.1372 114.212 97.9774C114.212 97.8176 114.052 97.8176 114.052 97.6577C114.052 97.4979 113.892 97.4979 113.892 97.3381C113.732 97.1782 113.732 96.8586 113.572 96.6987C113.572 96.5389 113.572 96.5389 113.412 96.3791C113.412 96.2192 113.412 96.2193 113.412 96.0594C113.572 95.5799 113.572 95.2603 113.572 95.2603Z" fill="#F3AB82"/>
<path d="M47.2638 89.8259C48.2248 96.0594 46.463 101.494 43.4199 102.133C40.2166 102.772 36.8532 98.1372 35.8922 91.9038C34.9312 85.6703 36.693 80.236 39.7361 79.5966C42.9394 78.9573 46.3029 83.5924 47.2638 89.8259Z" fill="#F5BE94"/>
<path d="M43.58 88.0678C43.58 88.0678 43.5801 87.7481 43.4199 87.1088C43.2597 86.4694 43.0996 85.6703 42.6191 84.8711C42.2987 84.0719 41.6581 83.113 40.8573 83.113C40.6971 83.113 40.3768 83.1129 40.2166 83.2728L39.8963 83.4326L39.7361 83.5924C39.4158 83.9121 39.0954 84.3916 38.9353 84.8711C38.7751 85.3506 38.615 85.9899 38.615 86.6293C38.615 87.2686 38.4548 87.9079 38.615 88.3874C38.7751 89.0268 38.7751 89.6661 38.7751 90.1456C38.9353 90.6251 38.9353 91.2644 39.0954 91.7439C39.2556 92.2234 39.2556 92.7029 39.4158 93.0226C39.576 93.5021 39.5759 93.8217 39.7361 93.9816C39.8963 94.6209 40.0564 94.9406 40.0564 94.9406C40.0564 94.9406 39.8962 94.6209 39.5759 94.1414C39.4158 93.8217 39.2556 93.5021 39.0954 93.1824C38.9353 92.8627 38.7751 92.3833 38.615 91.9038C38.4548 91.4243 38.2946 90.9448 38.1345 90.3054C37.9743 89.6661 37.8142 89.1866 37.8142 88.5473C37.654 87.9079 37.654 87.1088 37.8142 86.4695C37.8142 85.8301 37.9743 85.0309 38.2946 84.3916C38.4548 83.7523 38.9353 83.113 39.4158 82.6335C39.576 82.4736 39.7361 82.4736 39.8963 82.3138C40.0564 82.154 40.0564 82.154 40.3767 82.154C40.6971 82.154 41.0174 81.9941 41.3377 82.154C41.9784 82.3138 42.4589 82.7933 42.9394 83.2728C43.2597 83.7523 43.58 84.3916 43.7402 84.8711C44.0605 85.8301 44.0605 86.7891 44.2207 87.4284C43.5801 87.7481 43.58 88.0678 43.58 88.0678Z" fill="#F3AB82"/>
<path d="M43.58 88.0678C43.58 88.0678 43.9004 87.4285 41.8183 87.2686C41.8183 87.2686 39.5759 87.7481 40.8573 90.7849C41.1776 91.4242 41.3377 92.0636 41.4979 92.8628C41.6581 93.8218 41.3378 95.2602 41.8183 96.2192C42.6191 97.338 44.3808 96.6987 44.541 95.4201C44.7012 94.3012 43.58 92.5431 43.0995 91.9038C43.0995 91.9038 41.4979 89.6661 43.58 88.0678Z" fill="#F3AB82"/>
<path d="M44.541 95.2603C44.541 95.2603 44.541 95.2602 44.7012 95.4201C44.8614 95.5799 44.8614 95.7398 45.0215 96.0594C45.0215 96.2193 45.0215 96.3791 45.1817 96.5389C45.1817 96.6987 45.1817 96.8585 45.1817 97.0184C45.1817 97.1782 45.1817 97.3381 45.1817 97.4979C45.1817 97.6577 45.0215 97.8176 45.0215 97.9774C45.0215 98.1372 44.8614 98.2971 44.8614 98.4569C44.7012 98.6167 44.7012 98.7765 44.541 98.7765C44.3809 99.0962 44.0605 99.0962 43.9004 99.2561C43.4199 99.4159 43.2597 99.4159 43.2597 99.4159C43.2597 99.4159 43.4199 99.0962 43.58 98.6167C43.58 98.4569 43.7402 98.4569 43.7402 98.2971C43.7402 98.1372 43.9004 98.1372 43.9004 97.9774C43.9004 97.8176 44.0606 97.8176 44.0606 97.6577C44.0606 97.4979 44.2207 97.4979 44.2207 97.3381C44.3809 97.1782 44.3809 96.8586 44.541 96.6987C44.541 96.5389 44.541 96.5389 44.7012 96.3791C44.7012 96.2192 44.7012 96.2193 44.7012 96.0594C44.541 95.5799 44.541 95.2603 44.541 95.2603Z" fill="#F3AB82"/>
<path d="M79.4568 22.856C79.2966 22.856 79.1364 22.856 78.9763 22.856C78.8161 22.856 78.656 22.856 78.4958 22.856C53.3501 23.0159 39.2556 30.2084 43.2597 75.7607L47.5841 112.043C47.5841 112.043 48.385 118.596 55.5923 122.592L69.2063 132.661C69.2063 132.661 75.6128 135.538 78.9763 135.218C82.3397 135.538 88.7463 132.661 88.7463 132.661L102.36 122.592C109.568 118.596 110.368 112.043 110.368 112.043L114.853 76.5598C118.857 31.0075 104.442 23.0159 79.4568 22.856Z" fill="#F5BE94"/>
<path d="M108.927 89.8259C107.966 93.6619 107.485 99.8954 104.923 103.252C103.161 105.649 100.598 106.768 97.5553 106.928C95.4732 107.088 93.5512 106.928 91.6292 106.449C90.0276 106.129 88.5861 105.49 86.9845 105.33C85.2227 105.33 83.9414 105.969 82.4999 106.768C80.5779 107.727 78.9763 107.727 76.8942 107.088C74.0112 106.129 71.2884 105.01 68.0851 105.17C64.5615 105.33 60.7176 106.289 57.3541 105.17C53.6704 104.051 51.9086 100.854 50.4671 97.6578C49.6663 95.8996 49.1858 91.5841 48.5451 89.8259C47.9045 87.5883 46.7833 89.1866 44.7012 89.0268L47.424 114.6C47.424 114.6 48.2248 121.153 55.4322 125.149L69.0461 135.218C69.0461 135.218 75.4527 138.095 78.8161 137.776C82.1795 138.095 88.5861 135.218 88.5861 135.218L102.2 125.149C109.407 121.153 110.208 114.6 110.208 114.6L113.251 88.5473C111.009 88.5473 109.568 87.1088 108.927 89.8259Z" fill="#4C2710"/>
<path d="M60.3972 78.7975C60.3972 81.195 61.6786 83.113 63.4404 83.113C65.042 83.113 66.3233 81.195 66.3233 78.7975C66.3233 76.4 65.042 74.482 63.2802 74.482C61.6786 74.482 60.3972 76.4 60.3972 78.7975Z" fill="#362010"/>
<path d="M62.1591 77.359C62.1591 77.9983 61.5184 78.6377 60.8778 78.6377C60.2371 78.6377 59.5964 77.9983 59.5964 77.359C59.5964 76.7197 60.2371 76.0803 60.8778 76.0803C61.6786 76.0803 62.1591 76.7197 62.1591 77.359Z" fill="white"/>
<path d="M97.5553 78.7975C97.5553 81.195 96.274 83.113 94.5122 83.113C92.9106 83.113 91.6292 81.195 91.6292 78.7975C91.6292 76.4 92.9106 74.482 94.6724 74.482C96.274 74.482 97.5553 76.4 97.5553 78.7975Z" fill="#362010"/>
<path d="M95.7935 77.359C95.7935 77.9983 96.4342 78.6377 97.0748 78.6377C97.7155 78.6377 98.3561 77.9983 98.3561 77.359C98.3561 76.7197 97.7155 76.0803 97.0748 76.0803C96.4342 76.0803 95.7935 76.7197 95.7935 77.359Z" fill="white"/>
<path d="M83.3007 101.813C82.6601 102.453 81.8592 102.932 80.8983 103.412C80.0974 103.731 79.1364 104.051 78.0153 104.211C77.5348 104.211 77.0543 104.211 76.4136 104.211C75.9332 104.211 75.4527 104.211 74.812 104.051C74.3315 103.891 73.851 103.731 73.3705 103.572C72.89 103.412 72.4096 103.092 71.9291 102.932L71.2884 102.613L71.1283 101.654C71.1283 101.174 70.9681 100.854 70.9681 100.375C70.9681 99.8954 70.9681 99.5757 70.9681 99.0962C70.9681 98.2971 71.1283 97.4979 71.2884 96.6987C71.4486 95.8996 71.7689 95.1004 72.0892 94.4611C72.4096 93.6619 72.8901 93.0226 73.5307 92.3832C73.851 93.1824 74.0112 93.9816 74.1714 94.7807C74.3315 95.5799 74.3315 96.3791 74.4917 97.0184C74.4917 97.8175 74.4917 98.4569 74.4917 99.2561V100.375C74.4917 100.695 74.4917 101.174 74.3315 101.494L73.6909 100.215C74.0112 100.375 74.3316 100.695 74.6519 100.854C74.9722 101.014 75.2925 101.174 75.6128 101.334C75.9332 101.494 76.2535 101.654 76.734 101.813C77.0543 101.813 77.5348 101.973 77.8552 102.133C78.3356 102.293 78.656 102.293 79.1364 102.293C79.6169 102.293 79.9372 102.293 80.4177 102.293C81.5389 102.133 82.4999 101.973 83.3007 101.813Z" fill="#EDA780"/>
<path d="M69.5266 70.0067C69.2063 71.1255 68.2453 71.7648 67.1241 71.605C62.9599 70.8058 58.9558 71.2854 55.272 72.564C54.311 72.8837 53.1899 72.4042 52.7094 71.4452C52.2289 70.4862 52.5492 69.2075 53.6704 68.728C57.9948 67.1297 62.9599 66.6502 67.7648 67.4494C69.0461 67.769 69.8469 68.8879 69.5266 70.0067Z" fill="#4C2710"/>
<path d="M87.3048 70.0067C87.6252 71.1255 88.5861 71.7648 89.7073 71.605C93.8715 70.8058 97.8756 71.2854 101.559 72.564C102.52 72.8837 103.642 72.4042 104.122 71.4452C104.603 70.4862 104.282 69.2075 103.161 68.728C98.8366 67.1297 93.8716 66.6502 89.0666 67.4494C87.7853 67.769 86.9845 68.8879 87.3048 70.0067Z" fill="#4C2710"/>
<path d="M80.2576 117.797C80.2576 117.797 78.8161 118.276 76.734 117.797" stroke="#EC9E86" stroke-miterlimit="10" stroke-linecap="round" stroke-linejoin="round"/>
<path d="M70.4876 110.604L72.5697 114.6C72.5697 114.6 81.6991 119.715 88.2658 110.764C88.2658 110.764 78.1755 111.243 70.4876 110.604Z" fill="white"/>
<path d="M61.1981 33.2452C61.1981 33.2452 70.4876 44.5933 91.7894 47.4703C91.7894 47.4703 113.251 54.8226 112.931 66.9699L109.087 88.867L113.412 88.3874C113.412 88.3874 113.572 79.5967 118.216 79.4368C118.216 79.4368 122.541 61.6954 122.381 58.6586C122.381 55.6218 116.455 25.5732 116.455 25.5732L93.391 9.11046C93.391 9.11046 68.4055 5.43431 56.8737 0C56.8737 0 59.4363 7.03263 63.4404 9.11046C63.4404 9.11046 49.0256 10.7088 47.5841 10.3891C46.3028 10.0695 49.5061 18.0611 49.5061 18.0611L37.4938 36.6017L39.8963 79.5966C39.8963 79.5966 43.5801 79.9163 44.8614 89.0268H48.385L47.7443 61.3757C47.5842 61.5356 52.5492 44.4335 61.1981 33.2452Z" fill="#4C2710"/>
<path d="M60.2371 32.2862C56.233 28.1305 52.0688 23.4954 49.5061 18.2209L37.4938 36.6017V36.7615C41.4979 43.1548 45.3419 49.3883 49.6663 55.6217C51.9086 49.7079 55.9127 40.2778 61.3582 33.2452C61.3582 33.2452 62.6396 34.6837 65.2022 36.7615C63.2802 35.323 61.6786 33.8845 60.2371 32.2862Z" fill="#381B04"/>
<path d="M78.8161 165.107L75.9332 150.562L60.8778 141.452L58.6355 150.562L78.8161 165.107Z" fill="#7A82BD"/>
<path d="M78.8161 165.107L81.6991 150.562L96.7545 141.452L98.9968 150.562L78.8161 165.107Z" fill="#7A82BD"/>
<path d="M86.0236 152.48H79.2967H78.3357H71.6088C71.6088 152.48 68.4056 154.398 69.6869 157.755L74.3316 164.947H77.8552H79.9374H83.461L88.1057 157.755C89.2269 154.398 86.0236 152.48 86.0236 152.48Z" fill="#481B83"/>
<path d="M86.9846 153.279C87.3049 154.558 87.1448 155.997 86.6643 157.595C85.7033 160.632 83.461 162.869 80.2577 163.509C77.3748 163.988 74.4918 162.71 73.691 159.833C72.8902 157.275 72.5698 154.398 74.1714 152.48H71.6088C71.6088 152.48 68.4056 154.398 69.6869 157.755L74.3316 164.947H83.3008L87.9456 157.755C88.7464 155.837 87.7854 154.238 86.9846 153.279Z" fill="#481B83"/>
<path d="M74.3315 165.107L69.3664 190.84H88.2658L83.3007 165.107H74.3315Z" fill="#481B83"/>
<path d="M75.9332 150.562L68.7258 163.669L51.2679 151.841L60.8778 141.452L75.9332 150.562Z" fill="#95BBE1"/>
<path d="M81.6991 150.562L88.7463 163.669L106.204 151.841L96.7545 141.452L81.6991 150.562Z" fill="#95BBE1"/>
</svg>
