<svg width="374" height="366" viewBox="0 0 374 366" fill="none" xmlns="http://www.w3.org/2000/svg">
<path d="M309.038 76.4388H228.08V165.371H309.038V76.4388Z" fill="#985431"/>
<path d="M287.888 139.367H254.431V151.675H287.888V139.367Z" fill="#7FBDCF"/>
<path d="M284.595 122.205H272.98H258.418C258.418 122.205 259.111 142.141 255.817 147.862H271.593H287.368C284.248 142.141 284.595 122.205 284.595 122.205Z" fill="#F5BE94"/>
<path d="M258.418 134.513C263.272 136.767 268.126 139.02 273.673 138.5C277.66 138.154 281.474 136.94 284.941 135.207C284.421 128.619 284.595 122.378 284.595 122.378H258.591C258.591 122.205 258.764 128.099 258.418 134.513Z" fill="#F4AA8A"/>
<path d="M320.133 159.303L283.901 145.088H272.113H271.766H259.978L223.746 159.303C223.746 159.303 211.091 163.81 212.478 186H271.766H272.113H331.401C332.961 162.424 320.133 159.303 320.133 159.303Z" fill="#F5BE94"/>
<path d="M304.531 84.2399C303.49 90.8274 305.397 96.7215 308.691 97.4149C311.985 98.1084 315.625 93.2544 316.665 86.4935C317.706 79.9059 315.799 74.0118 312.505 73.3184C309.211 72.7983 305.571 77.6523 304.531 84.2399Z" fill="#F5BE94"/>
<path d="M308.518 82.5063C308.518 82.5063 308.518 82.1596 308.691 81.4662C308.864 80.7727 309.038 80.0793 309.558 79.0392C309.905 78.1724 310.598 77.1323 311.465 77.1323C311.638 77.1323 311.811 77.1323 312.158 77.3056C312.158 77.3056 312.332 77.479 312.505 77.479L312.678 77.6523C313.025 77.999 313.372 78.5191 313.545 79.0392C313.718 79.5592 313.892 80.2527 313.892 80.9461C313.892 81.6395 314.065 82.333 313.892 82.853C313.718 83.5464 313.718 84.2399 313.718 84.7599C313.545 85.28 313.545 85.9734 313.372 86.4935C313.198 87.0136 313.198 87.5336 313.025 87.8803C312.852 88.2271 312.852 88.7471 312.678 88.9205C312.505 89.4406 312.505 89.9606 312.505 89.9606C312.505 89.9606 312.678 89.6139 313.025 89.0938C313.198 88.7471 313.372 88.4004 313.545 88.0537C313.718 87.707 313.892 87.1869 314.065 86.6669C314.238 86.1468 314.412 85.6267 314.585 84.9333C314.759 84.2399 314.932 83.7198 314.932 83.0264C315.105 82.333 315.105 81.4662 314.932 80.7727C314.932 80.0793 314.759 79.2125 314.585 78.5191C314.412 77.8257 313.892 77.1323 313.372 76.6122C313.198 76.4388 313.025 76.4388 312.852 76.2655C312.678 76.0921 312.678 76.0921 312.332 76.0921C311.985 76.0921 311.638 75.9188 311.291 76.0921C310.598 76.2655 310.078 76.7855 309.558 77.3056C309.211 77.8257 308.864 78.3457 308.691 79.0392C308.344 80.0793 308.344 81.1195 308.171 81.6395C308.518 82.1596 308.518 82.5063 308.518 82.5063Z" fill="#F3AB82"/>
<path d="M308.518 82.5063C308.518 82.5063 308.171 81.8129 310.425 81.6395C310.425 81.6395 312.852 82.1596 311.465 85.4534C311.118 86.1468 310.945 86.8402 310.771 87.707C310.598 88.7471 310.945 90.3073 310.425 91.3475C309.731 92.561 307.651 91.8675 307.651 90.4807C307.478 89.4406 308.691 87.5336 309.211 86.6669C309.038 86.4935 310.598 84.0665 308.518 82.5063Z" fill="#F3AB82"/>
<path d="M307.478 90.134C307.478 90.134 307.478 90.134 307.304 90.3073C307.131 90.4807 307.131 90.654 306.958 91.0008C306.958 91.1741 306.958 91.3475 306.784 91.5208C306.784 91.6942 306.784 91.8675 306.784 92.0409C306.784 92.2142 306.784 92.3876 306.784 92.561C306.784 92.7343 306.958 92.9077 306.958 93.081C306.958 93.2544 307.131 93.4277 307.131 93.6011C307.304 93.7745 307.304 93.9478 307.478 93.9478C307.651 94.2945 307.998 94.2945 308.171 94.4679C308.691 94.6412 308.864 94.6412 308.864 94.6412C308.864 94.6412 308.691 94.2945 308.518 93.7745C308.518 93.6011 308.344 93.6011 308.344 93.4277C308.344 93.2544 308.171 93.2544 308.171 93.081C308.171 92.9077 307.998 92.9077 307.998 92.7343C307.998 92.561 307.824 92.561 307.824 92.3876C307.651 92.2143 307.651 91.8675 307.478 91.6942C307.478 91.5208 307.478 91.5208 307.304 91.3475C307.304 91.1741 307.304 91.1741 307.304 91.0008C307.478 90.4807 307.478 90.134 307.478 90.134Z" fill="#F3AB82"/>
<path d="M240.562 84.2399C241.602 90.8274 239.695 96.7215 236.401 97.4149C233.108 98.1084 229.467 93.2544 228.427 86.4935C227.387 79.9059 229.294 74.0118 232.588 73.3184C235.881 72.7983 239.522 77.6523 240.562 84.2399Z" fill="#F5BE94"/>
<path d="M236.575 82.5063C236.575 82.5063 236.575 82.1596 236.401 81.4662C236.228 80.7727 236.055 80.0793 235.535 79.0392C235.188 78.1724 234.495 77.1323 233.628 77.1323C233.454 77.1323 233.281 77.1322 232.934 77.3056C232.934 77.3056 232.761 77.479 232.588 77.479L232.414 77.6523C232.068 77.999 231.721 78.5191 231.548 79.0392C231.374 79.5592 231.201 80.2527 231.201 80.9461C231.201 81.6395 231.027 82.3329 231.201 82.853C231.374 83.5464 231.374 84.2399 231.374 84.7599C231.548 85.28 231.548 85.9734 231.721 86.4935C231.894 87.0136 231.894 87.5336 232.068 87.8803C232.241 88.227 232.241 88.7471 232.414 88.9205C232.588 89.4406 232.588 89.9606 232.588 89.9606C232.588 89.9606 232.414 89.6139 232.068 89.0938C231.894 88.7471 231.721 88.4004 231.548 88.0537C231.374 87.707 231.201 87.1869 231.027 86.6668C230.854 86.1468 230.681 85.6267 230.507 84.9333C230.334 84.2399 230.161 83.7198 230.161 83.0264C229.987 82.3329 229.987 81.4662 230.161 80.7727C230.161 80.0793 230.334 79.2125 230.507 78.5191C230.681 77.8257 231.201 77.1322 231.721 76.6122C231.894 76.4388 232.068 76.4388 232.241 76.2655C232.414 76.0921 232.414 76.0921 232.761 76.0921C233.108 76.0921 233.454 75.9188 233.801 76.0921C234.495 76.2655 235.015 76.7855 235.535 77.3056C235.881 77.8257 236.228 78.3457 236.401 79.0392C236.748 80.0793 236.748 81.1194 236.922 81.6395C236.575 82.1596 236.575 82.5063 236.575 82.5063Z" fill="#F3AB82"/>
<path d="M236.575 82.5063C236.575 82.5063 236.922 81.8129 234.668 81.6395C234.668 81.6395 232.241 82.1596 233.628 85.4534C233.974 86.1468 234.148 86.8402 234.321 87.707C234.495 88.7471 234.148 90.3073 234.668 91.3475C235.361 92.561 237.442 91.8675 237.442 90.4807C237.615 89.4406 236.401 87.5336 235.881 86.6669C236.055 86.4935 234.495 84.0665 236.575 82.5063Z" fill="#F3AB82"/>
<path d="M237.615 90.134C237.615 90.134 237.615 90.134 237.788 90.3073C237.962 90.4807 237.962 90.654 238.135 91.0008C238.135 91.1741 238.135 91.3475 238.308 91.5208C238.308 91.6942 238.308 91.8675 238.308 92.0409C238.308 92.2142 238.308 92.3876 238.308 92.561C238.308 92.7343 238.135 92.9077 238.135 93.081C238.135 93.2544 237.962 93.4277 237.962 93.6011C237.788 93.7745 237.788 93.9478 237.615 93.9478C237.442 94.2945 237.095 94.2945 236.922 94.4679C236.401 94.6412 236.228 94.6412 236.228 94.6412C236.228 94.6412 236.401 94.2945 236.575 93.7745C236.575 93.6011 236.748 93.6011 236.748 93.4277C236.748 93.2544 236.922 93.2544 236.922 93.081C236.922 92.9077 237.095 92.9077 237.095 92.7343C237.095 92.561 237.268 92.561 237.268 92.3876C237.442 92.2143 237.442 91.8675 237.615 91.6942C237.615 91.5208 237.615 91.5208 237.788 91.3475C237.788 91.1741 237.788 91.1741 237.788 91.0008C237.615 90.4807 237.615 90.134 237.615 90.134Z" fill="#F3AB82"/>
<path d="M305.571 30.4994C305.571 30.4994 294.129 18.0177 271.593 17.3243C249.056 18.5378 237.788 31.5395 237.788 31.5395C231.721 51.3021 235.535 74.3585 238.135 94.2945C240.042 109.03 249.923 119.431 262.578 126.539C262.578 126.539 267.086 129.486 272.806 129.659C278.7 129.139 283.034 126.192 283.034 126.192C295.169 117.871 304.531 107.816 306.784 92.7343C308.864 79.7326 309.211 65.5174 308.864 52.3423C308.691 45.2347 307.824 37.4336 305.571 30.4994Z" fill="#F5BE94"/>
<path d="M261.885 70.718C261.885 70.718 253.91 67.9443 245.589 71.7582C247.15 62.917 262.578 66.5575 262.578 66.5575C262.578 66.5575 263.618 66.7308 263.445 68.4644C263.445 68.4644 262.925 71.2381 261.885 70.718Z" fill="#DA7647"/>
<path d="M280.607 70.718C280.607 70.718 289.795 67.9443 298.116 71.7582C296.556 62.917 280.087 66.5575 280.087 66.5575C280.087 66.5575 279.047 66.7308 279.22 68.4644C279.047 68.4644 279.394 71.2381 280.607 70.718Z" fill="#DA7647"/>
<path d="M251.657 79.0392C251.657 81.6395 253.044 83.7198 254.951 83.7198C256.684 83.7198 258.071 81.6395 258.071 79.0392C258.071 76.4388 256.684 74.3585 254.777 74.3585C253.044 74.3585 251.657 76.4388 251.657 79.0392Z" fill="#362010"/>
<path d="M253.564 77.4789C253.564 78.1724 252.87 78.8658 252.177 78.8658C251.483 78.8658 250.79 78.1724 250.79 77.4789C250.79 76.7855 251.483 76.0921 252.177 76.0921C252.87 76.0921 253.564 76.7855 253.564 77.4789Z" fill="white"/>
<path d="M291.875 79.0392C291.875 81.6395 290.489 83.7198 288.582 83.7198C286.848 83.7198 285.461 81.6395 285.461 79.0392C285.461 76.4388 286.848 74.3585 288.755 74.3585C290.489 74.3585 291.875 76.4388 291.875 79.0392Z" fill="#362010"/>
<path d="M289.969 77.4789C289.969 78.1724 290.662 78.8658 291.355 78.8658C292.049 78.8658 292.742 78.1724 292.742 77.4789C292.742 76.7855 292.049 76.0921 291.355 76.0921C290.489 76.0921 289.969 76.7855 289.969 77.4789Z" fill="white"/>
<path d="M263.792 107.99C263.792 110.417 267.259 112.497 271.593 112.497C275.927 112.497 279.394 110.417 279.394 107.99H263.792Z" fill="white"/>
<path d="M279.047 108.683C280.954 108.163 281.647 107.816 281.647 107.816C281.647 107.816 280.434 107.296 278.527 106.776C273.846 104.869 274.193 107.296 271.766 107.296C270.553 107.296 269.339 105.909 268.126 106.083C266.912 106.256 265.872 106.429 265.005 106.603C263.098 107.123 261.885 107.643 261.885 107.643C261.885 107.643 262.752 108.336 264.659 108.683C264.659 108.683 267.432 108.51 269.686 108.856C269.686 108.856 271.766 109.377 273.153 109.03C273.326 109.203 276.62 108.51 279.047 108.683Z" fill="#EF7B7F"/>
<path d="M280.087 107.816C278.354 109.723 275.407 111.457 271.073 111.457C271.073 111.457 266.912 111.457 263.445 107.816H261.885C261.885 107.99 262.058 107.99 262.058 108.163C262.405 108.856 262.752 109.723 263.445 110.417C263.792 110.763 263.965 111.283 264.312 111.63C264.659 111.977 265.005 112.324 265.352 112.67L265.872 113.19L266.565 113.71C267.086 114.057 267.432 114.404 268.126 114.577C268.646 114.751 269.339 115.097 269.859 115.097L270.553 115.271H270.899H271.073H271.246H271.593L273.5 115.097C274.02 114.924 274.713 114.751 275.233 114.577C275.753 114.404 276.273 114.057 276.794 113.71L277.487 113.19L278.007 112.67C278.354 112.324 278.874 111.977 279.047 111.63C279.394 111.283 279.567 110.763 279.914 110.417C280.434 109.723 280.781 108.856 281.301 108.163C281.301 107.99 281.474 107.99 281.474 107.816H280.087Z" fill="#EF7B7F"/>
<path d="M271.593 113.71C278.007 113.19 279.22 109.55 279.22 109.55C276.273 113.19 271.593 112.67 271.593 112.67C271.593 112.67 271.246 112.67 271.246 113.19C271.246 113.19 271.246 113.71 271.593 113.71Z" fill="white"/>
<path d="M254.777 14.5506C265.005 7.26964 283.034 10.9101 283.034 10.9101C322.386 18.0177 321.173 54.9426 321.173 54.9426L328.8 167.971C325.16 160.69 321.346 159.823 321.346 159.823L300.89 151.849V57.8897C267.952 57.8897 260.498 39.6873 260.498 39.6873L254.777 14.5506Z" fill="#F2783E"/>
<path d="M261.885 39.5139C261.885 39.5139 245.589 43.1544 243.162 60.3167L241.949 152.022L222.186 159.823C222.186 159.823 215.945 163.117 213.692 171.265L223.92 60.3167C223.92 60.3167 225.48 22.0049 254.777 14.5506L261.885 39.5139Z" fill="#F2783E"/>
<path d="M267.259 96.5481C267.606 96.5481 267.779 96.3748 267.952 96.3748C268.299 96.3748 268.819 96.2014 269.339 96.0281C269.859 96.0281 270.379 95.8547 271.073 95.8547C271.593 95.8547 272.286 95.8547 272.806 95.8547C273.326 95.8547 273.846 95.8547 274.367 96.0281C274.713 96.0281 274.887 96.028 275.233 96.2014C275.58 96.2014 275.753 96.2014 276.1 96.3748C276.273 96.3748 276.62 96.5481 276.794 96.5481C276.967 96.5481 277.314 96.5481 277.487 96.5481C277.66 96.5481 277.834 96.5481 278.007 96.7215C278.18 96.7215 278.18 96.7215 278.18 96.7215C278.18 96.7215 278.18 96.7215 278.18 96.8948C278.18 97.0682 278.18 97.2415 278.007 97.4149C277.834 97.7616 277.66 98.2817 277.14 98.8018C276.967 98.9751 276.62 99.3218 276.273 99.4952C275.927 99.6685 275.58 100.015 275.233 100.015C274.887 100.189 274.367 100.362 274.02 100.362C273.673 100.535 273.153 100.535 272.806 100.535C272.286 100.535 271.94 100.535 271.593 100.362C271.246 100.189 270.726 100.189 270.379 100.015C269.686 99.6685 268.992 99.3218 268.646 98.8018C268.126 98.2817 267.952 97.935 267.779 97.4149C267.432 97.0682 267.259 96.8948 267.259 96.5481C267.259 96.7215 267.259 96.5481 267.259 96.5481Z" fill="#F4AA8A"/>
<path d="M258.071 30.4994L258.764 43.1544L261.885 42.1143L258.071 30.4994Z" fill="#F5BE94"/>
<path d="M287.542 146.475L320.133 159.13C320.133 159.13 333.134 162.25 331.401 185.827H272.113H271.766H212.132C210.571 163.81 223.4 159.13 223.4 159.13L256.684 146.128L271.246 161.383L287.542 146.475Z" fill="#FF58B1"/>
<path d="M271.246 161.557L268.472 147.862L254.431 139.367L252.35 147.862L271.246 161.557Z" fill="#7FBDCF"/>
<path d="M268.472 147.862L261.885 160.17L245.589 149.075L254.431 139.367L268.472 147.862Z" fill="#CDE8EA"/>
<path d="M271.246 161.557L273.846 147.862L288.062 139.367L289.969 147.862L271.246 161.557Z" fill="#7FBDCF"/>
<path d="M273.846 147.862L280.607 160.17L296.903 149.075L288.062 139.367L273.846 147.862Z" fill="#CDE8EA"/>
<path d="M267.952 159.13L271.246 161.557L274.54 159.13V185.827H267.952V159.13Z" fill="#83C3D6"/>
<path d="M273.153 167.451C273.153 168.491 272.286 169.531 271.073 169.531C270.033 169.531 268.992 168.664 268.992 167.451C268.992 166.411 269.859 165.371 271.073 165.371C272.286 165.544 273.153 166.411 273.153 167.451Z" fill="#CDE8EA"/>
<path d="M273.153 183.92C273.153 184.96 272.286 186 271.073 186C270.033 186 268.992 185.133 268.992 183.92C268.992 182.88 269.859 181.839 271.073 181.839C272.286 181.839 273.153 182.706 273.153 183.92Z" fill="#CDE8EA"/>
<path d="M127.317 137.101H91.1443V150.504H127.317V137.101Z" fill="#7FBDCF"/>
<path d="M123.764 121.437H110.684H94.3741C94.3741 121.437 95.1815 140.008 91.4673 145.337H109.231H126.994C123.441 140.008 123.764 121.437 123.764 121.437Z" fill="#F5BE94"/>
<path d="M94.0511 135.486C98.2498 138.231 104.548 139.523 109.554 139.523C115.044 139.523 119.889 138.07 124.572 136.132C123.764 129.188 123.926 121.275 123.926 121.275H94.3741C94.3741 121.437 94.6971 128.704 94.0511 135.486Z" fill="#EDA780"/>
<path d="M166.074 158.256L123.442 142.914H109.554H109.069H95.1815L52.5493 158.256C52.5493 158.256 37.5312 163.1 39.3075 187H109.069H109.554H179.316C181.415 161.647 166.074 158.256 166.074 158.256Z" fill="#F5BE94"/>
<path d="M166.074 158.256L131.193 145.821L109.231 161.162L87.9146 145.498L52.3878 158.256C52.3878 158.256 37.3697 163.1 39.146 187H179.315C181.415 161.647 166.074 158.256 166.074 158.256Z" fill="#18A4F2"/>
<path d="M109.231 161.001L106.324 146.306L91.1444 137.101L88.8836 146.467L109.231 161.001Z" fill="#7FBDCF"/>
<path d="M106.324 146.306L99.2187 159.547L81.6167 147.598L91.1444 137.101L106.324 146.306Z" fill="#CDE8EA"/>
<path d="M109.231 161.001L112.138 146.306L127.317 137.101L129.578 146.467L109.231 161.001Z" fill="#7FBDCF"/>
<path d="M112.137 146.306L119.404 159.547L137.006 147.598L127.317 137.101L112.137 146.306Z" fill="#CDE8EA"/>
<path d="M141.528 86.556C140.559 92.8539 142.335 98.3444 145.403 98.9904C148.633 99.6363 152.024 94.9532 152.993 88.6553C153.962 82.3574 152.186 76.8669 149.118 76.2209C145.888 75.7365 142.497 80.2581 141.528 86.556Z" fill="#F5BE94"/>
<path d="M145.242 84.9411C145.242 84.9411 145.242 84.6182 145.403 83.9722C145.565 83.3263 145.726 82.5189 146.211 81.7114C146.534 80.904 147.18 79.9351 147.987 79.9351C148.149 79.9351 148.472 79.9351 148.633 80.0966L148.956 80.2581L149.118 80.4195C149.441 80.7425 149.764 81.227 149.925 81.7114C150.087 82.1959 150.248 82.8418 150.248 83.4878C150.248 84.1337 150.41 84.7797 150.248 85.2641C150.087 85.91 150.087 86.556 150.087 87.0405C149.925 87.5249 149.925 88.1709 149.764 88.6553C149.602 89.1398 149.602 89.6242 149.441 89.9472C149.279 90.4316 149.279 90.7546 149.118 90.9161C148.956 91.562 148.795 91.885 148.795 91.885C148.795 91.885 148.956 91.5621 149.279 91.0776C149.441 90.7546 149.602 90.4316 149.764 90.1087C149.925 89.7857 150.087 89.3013 150.248 88.8168C150.41 88.3323 150.571 87.8479 150.733 87.2019C150.894 86.556 151.055 86.0715 151.055 85.4256C151.217 84.7797 151.217 83.9722 151.055 83.3263C151.055 82.6803 150.894 81.8729 150.571 81.227C150.41 80.581 149.925 79.9351 149.441 79.4506C149.279 79.2891 149.118 79.2891 148.956 79.1277C148.795 78.9662 148.795 78.9662 148.472 78.9662C148.149 78.9662 147.826 78.8047 147.503 78.9662C146.857 79.1277 146.372 79.6121 145.888 80.0966C145.565 80.581 145.242 81.227 145.081 81.7114C144.758 82.6803 144.758 83.6493 144.596 84.2952C145.242 84.4567 145.242 84.9411 145.242 84.9411Z" fill="#F3AB82"/>
<path d="M145.242 84.9412C145.242 84.9412 144.919 84.2952 147.018 84.1337C147.018 84.1337 149.279 84.6182 147.987 87.6864C147.664 88.3323 147.503 88.9783 147.341 89.7857C147.18 90.7546 147.503 92.208 147.018 93.1769C146.372 94.3073 144.435 93.6614 144.273 92.3695C144.112 91.2391 145.242 89.4628 145.726 88.8168C145.726 88.6553 147.341 86.3945 145.242 84.9412Z" fill="#F3AB82"/>
<path d="M144.273 92.0465C144.273 92.0465 144.273 92.0465 144.112 92.208C143.95 92.3695 143.95 92.531 143.789 92.8539C143.789 93.0154 143.789 93.1769 143.627 93.3384C143.627 93.4999 143.627 93.6614 143.627 93.8229C143.627 93.9843 143.627 94.1458 143.627 94.3073C143.627 94.4688 143.789 94.6303 143.789 94.7918C143.789 94.9533 143.95 95.1147 143.95 95.2762C144.112 95.4377 144.112 95.5992 144.273 95.5992C144.435 95.9222 144.758 95.9222 144.919 96.0837C145.403 96.2451 145.565 96.2451 145.565 96.2451C145.565 96.2451 145.403 95.9222 145.242 95.4377C145.242 95.2762 145.081 95.2762 145.081 95.1147C145.081 94.9533 144.919 94.9533 144.919 94.7918C144.919 94.6303 144.758 94.6303 144.758 94.4688C144.758 94.3073 144.596 94.3073 144.596 94.1458C144.435 93.9843 144.435 93.6614 144.273 93.4999C144.273 93.3384 144.273 93.3384 144.112 93.1769C144.112 93.0154 144.112 93.0154 144.112 92.8539C144.273 92.531 144.273 92.0465 144.273 92.0465Z" fill="#F3AB82"/>
<path d="M77.5796 86.556C78.5485 92.8539 76.7721 98.3444 73.7039 98.9904C70.4742 99.6363 67.083 94.9533 66.1141 88.6553C65.1452 82.3574 66.9215 76.8669 69.9897 76.2209C73.058 75.7365 76.4492 80.2581 77.5796 86.556Z" fill="#F5BE94"/>
<path d="M73.7039 84.9411C73.7039 84.9411 73.7039 84.6182 73.5424 83.9722C73.3809 83.3263 73.2194 82.5189 72.735 81.7114C72.412 80.904 71.7661 79.9351 70.9586 79.9351C70.7971 79.9351 70.4742 79.9351 70.3127 80.0966L69.9897 80.2581L69.8282 80.4195C69.5053 80.7425 69.1823 81.227 69.0208 81.7114C68.8593 82.1959 68.6978 82.8418 68.6978 83.4878C68.6978 84.1337 68.5363 84.7797 68.6978 85.2641C68.8593 85.91 68.8593 86.556 68.8593 87.0405C69.0208 87.5249 69.0208 88.1709 69.1823 88.6553C69.3438 89.1398 69.3438 89.6242 69.5053 89.9472C69.6667 90.4316 69.6667 90.7546 69.8282 90.9161C69.9897 91.562 70.1512 91.885 70.1512 91.885C70.1512 91.885 69.9897 91.5621 69.6667 91.0776C69.5053 90.7546 69.3438 90.4316 69.1823 90.1087C69.0208 89.7857 68.8593 89.3013 68.6978 88.8168C68.5363 88.3323 68.3749 87.8479 68.2134 87.2019C68.0519 86.556 67.8904 86.0715 67.8904 85.4256C67.7289 84.7797 67.7289 83.9722 67.8904 83.3263C67.8904 82.6803 68.0519 81.8729 68.3749 81.227C68.5363 80.581 69.0208 79.9351 69.5053 79.4506C69.6667 79.2891 69.8282 79.2891 69.9897 79.1277C70.1512 78.9662 70.1512 78.9662 70.4742 78.9662C70.7971 78.9662 71.1201 78.8047 71.4431 78.9662C72.089 79.1277 72.5735 79.6121 73.0579 80.0966C73.3809 80.581 73.7039 81.227 73.8654 81.7114C74.1883 82.6803 74.1883 83.6493 74.3498 84.2952C73.7039 84.4567 73.7039 84.9411 73.7039 84.9411Z" fill="#F3AB82"/>
<path d="M73.7039 84.9412C73.7039 84.9412 74.0269 84.2952 71.9275 84.1337C71.9275 84.1337 69.6668 84.6182 70.9586 87.6864C71.2816 88.3324 71.4431 88.9783 71.6046 89.7857C71.7661 90.7547 71.4431 92.208 71.9275 93.1769C72.5735 94.3073 74.5113 93.6614 74.6728 92.3695C74.8343 91.2391 73.7039 89.4628 73.2194 88.8168C73.2194 88.6553 71.7661 86.3945 73.7039 84.9412Z" fill="#F3AB82"/>
<path d="M74.6728 92.0465C74.6728 92.0465 74.6728 92.0465 74.8343 92.208C74.9958 92.3695 74.9958 92.531 75.1573 92.854C75.1573 93.0154 75.1573 93.1769 75.3187 93.3384C75.3187 93.4999 75.3187 93.6614 75.3187 93.8229C75.3187 93.9843 75.3187 94.1458 75.3187 94.3073C75.3187 94.4688 75.1573 94.6303 75.1573 94.7918C75.1573 94.9533 74.9958 95.1147 74.9958 95.2762C74.8343 95.4377 74.8343 95.5992 74.6728 95.5992C74.5113 95.9222 74.1884 95.9222 74.0269 96.0837C73.5424 96.2451 73.3809 96.2451 73.3809 96.2451C73.3809 96.2451 73.5424 95.9222 73.7039 95.4377C73.7039 95.2762 73.8654 95.2762 73.8654 95.1148C73.8654 94.9533 74.0269 94.9533 74.0269 94.7918C74.0269 94.6303 74.1883 94.6303 74.1883 94.4688C74.1883 94.3073 74.3498 94.3073 74.3498 94.1458C74.5113 93.9843 74.5113 93.6614 74.6728 93.4999C74.6728 93.3384 74.6728 93.3384 74.8343 93.1769C74.8343 93.0154 74.8343 93.0154 74.8343 92.854C74.6728 92.531 74.6728 92.0465 74.6728 92.0465Z" fill="#F3AB82"/>
<path d="M109.877 18.8936C109.715 18.8936 109.554 18.8936 109.392 18.8936C109.231 18.8936 109.069 18.8936 108.908 18.8936C83.5546 19.0551 69.3438 26.3219 73.381 72.3453L77.7411 109.003C77.7411 109.003 78.5485 115.623 85.8153 119.661L99.5416 129.834C99.5416 129.834 106.001 132.741 109.392 132.418C112.783 132.741 119.243 129.834 119.243 129.834L132.969 119.661C140.236 115.623 141.043 109.003 141.043 109.003L145.565 73.1527C149.602 27.1293 135.23 19.0551 109.877 18.8936Z" fill="#F5BE94"/>
<path d="M90.8214 75.4135C90.8214 77.8358 92.1132 79.7736 93.8896 79.7736C95.5044 79.7736 96.7963 77.8358 96.7963 75.4135C96.7963 72.9912 95.5044 71.0534 93.7281 71.0534C92.1132 71.0534 90.8214 72.9912 90.8214 75.4135Z" fill="#362010"/>
<path d="M92.5977 73.9601C92.5977 74.6061 91.9518 75.252 91.3058 75.252C90.6599 75.252 90.0139 74.6061 90.0139 73.9601C90.0139 73.3142 90.6599 72.6682 91.3058 72.6682C91.9518 72.6682 92.5977 73.3142 92.5977 73.9601Z" fill="white"/>
<path d="M128.286 75.4135C128.286 77.8358 126.994 79.7736 125.218 79.7736C123.603 79.7736 122.311 77.8358 122.311 75.4135C122.311 72.9912 123.603 71.0534 125.379 71.0534C126.994 71.0534 128.286 72.9912 128.286 75.4135Z" fill="#362010"/>
<path d="M126.51 73.9601C126.51 74.6061 127.156 75.252 127.802 75.252C128.447 75.252 129.093 74.6061 129.093 73.9601C129.093 73.3142 128.447 72.6682 127.802 72.6682C126.994 72.6682 126.51 73.3142 126.51 73.9601Z" fill="white"/>
<path d="M115.044 99.6363C114.398 100.444 113.591 101.09 112.783 101.574C112.299 101.736 111.814 102.059 111.33 102.22C110.846 102.382 110.361 102.543 109.877 102.543C108.908 102.705 107.777 102.543 106.647 102.382C106.163 102.22 105.678 102.059 105.194 101.897C104.709 101.736 104.225 101.413 103.74 101.09L102.771 100.444L103.094 99.1519C103.74 96.5681 104.386 94.1458 105.194 91.5621C105.355 90.9161 105.678 90.2702 105.84 89.6242C106.001 88.9783 106.324 88.3323 106.485 87.6864C106.97 86.3945 107.454 85.2641 108.1 83.9722C108.1 85.2641 108.1 86.7175 108.1 88.0094C108.1 88.6553 107.939 89.3013 107.939 89.9472C107.939 90.5931 107.777 91.2391 107.777 91.885C107.454 94.4688 107.131 97.0526 106.647 99.6363L105.84 97.86C106.163 98.0215 106.485 98.183 106.808 98.3445C107.131 98.5059 107.454 98.6674 107.777 98.8289C108.1 98.9904 108.423 98.9904 108.908 99.1519C109.231 99.1519 109.715 99.3134 110.038 99.3134C110.361 99.4749 110.846 99.4748 111.169 99.4748C111.653 99.4748 111.976 99.4748 112.46 99.4748C112.945 99.4748 113.268 99.4748 113.752 99.4748C114.075 99.7978 114.56 99.6363 115.044 99.6363Z" fill="#EDA780"/>
<path d="M100.026 66.5318C99.7031 67.6622 98.7342 68.3081 97.6038 68.1467C93.4052 67.3392 89.368 67.8237 85.6539 69.1156C84.6849 69.4385 83.5545 68.9541 83.0701 67.9852C82.5856 67.0163 82.9086 65.7244 84.039 65.2399C88.3991 63.6251 93.4052 63.1406 98.2497 63.948C99.5416 64.271 100.188 65.4014 100.026 66.5318Z" fill="#9D5C4D"/>
<path d="M117.951 66.5318C118.274 67.6622 119.243 68.3081 120.373 68.1467C124.572 67.3392 128.609 67.8237 132.323 69.1156C133.292 69.4385 134.422 68.9541 134.907 67.9852C135.391 67.0163 135.068 65.7244 133.938 65.2399C129.578 63.6251 124.572 63.1406 119.727 63.948C118.435 64.271 117.628 65.4014 117.951 66.5318Z" fill="#9D5C4D"/>
<path d="M143.304 83.1648C142.174 80.7425 142.981 76.8669 142.335 74.1216C141.689 70.7304 140.236 67.8237 139.106 64.4325C136.683 56.5197 142.658 46.6691 134.745 40.8556C130.87 37.9488 121.665 41.1786 111.815 41.8245C99.3801 42.6319 93.4052 35.3651 87.9147 37.9489C84.2005 39.7252 83.716 40.6941 82.4241 44.0853C80.9708 48.1224 77.5796 51.0292 76.4492 55.2278C73.7039 64.7555 77.5796 66.3703 74.3499 80.2581C74.3499 80.2581 74.6728 77.8358 71.4431 76.0594C71.4431 76.0594 68.3749 75.4135 67.2445 77.8358C68.0519 76.2209 66.4371 70.5689 66.2756 68.7926C65.9526 64.4325 65.4682 59.9109 66.1141 55.5508C66.7601 50.8677 67.2445 46.3461 67.406 41.663C67.5675 36.4955 68.5364 31.3279 70.9587 26.6449C71.4431 25.8374 71.9276 24.8685 72.412 24.0611C74.9958 20.1854 78.71 19.701 80.4863 15.3409C82.9086 9.36591 83.2316 5.32877 89.5295 3.06797C99.5416 -0.646195 103.579 -0.807677 111.007 1.61461C115.529 3.06798 118.92 5.65174 123.764 6.62066C128.448 7.58957 133.615 7.10511 137.814 9.04294C146.372 13.0801 150.248 23.8996 152.024 32.2969C153.962 41.986 152.186 47.1535 152.186 57.1656C152.186 61.5258 151.056 67.9852 150.248 76.0594C150.087 77.6743 146.211 76.5439 144.596 78.4817C143.789 79.2892 142.981 83.4878 142.981 83.4878L143.304 83.1648Z" fill="#9D5C4D"/>
<path d="M118.92 109.164C118.92 109.164 105.032 112.878 100.188 109.164" stroke="#EAA588" stroke-width="1.5" stroke-miterlimit="10" stroke-linecap="round" stroke-linejoin="round"/>
<path d="M109.554 114.977C109.554 114.977 109.069 115.139 108.262 114.977C108.262 114.977 108.262 115.623 108.908 115.623C108.908 115.623 109.554 115.785 109.554 114.977Z" fill="#EAA588"/>
<path d="M112.46 113.201C112.46 113.201 109.069 114.17 105.678 113.201" stroke="#EAA588" stroke-width="1.5" stroke-miterlimit="10" stroke-linecap="round" stroke-linejoin="round"/>
<g filter="url(#filter0_d)">
<rect x="21" y="182" width="338" height="155" rx="21" fill="white"/>
<path d="M57.3991 221.5L57.3811 213.148L53.2411 220.06H52.1971L48.0571 213.256V221.5H45.8431V208.9H47.7691L52.7551 217.234L57.6871 208.9H59.5951L59.6311 221.5H57.3991ZM62.4552 211.888H64.7052V218.224L70.0152 211.888H72.0672V221.5H69.8172V215.164L64.5252 221.5H62.4552V211.888ZM79.9718 211.78C80.9078 211.78 81.7418 211.984 82.4738 212.392C83.2178 212.8 83.7998 213.376 84.2198 214.12C84.6398 214.864 84.8498 215.722 84.8498 216.694C84.8498 217.666 84.6398 218.53 84.2198 219.286C83.7998 220.03 83.2178 220.606 82.4738 221.014C81.7418 221.422 80.9078 221.626 79.9718 221.626C78.6758 221.626 77.6498 221.194 76.8938 220.33V224.992H74.6438V211.888H76.7858V213.148C77.1578 212.692 77.6138 212.35 78.1538 212.122C78.7058 211.894 79.3118 211.78 79.9718 211.78ZM79.7198 219.7C80.5478 219.7 81.2258 219.424 81.7538 218.872C82.2938 218.32 82.5638 217.594 82.5638 216.694C82.5638 215.794 82.2938 215.068 81.7538 214.516C81.2258 213.964 80.5478 213.688 79.7198 213.688C79.1798 213.688 78.6938 213.814 78.2618 214.066C77.8298 214.306 77.4878 214.654 77.2358 215.11C76.9838 215.566 76.8578 216.094 76.8578 216.694C76.8578 217.294 76.9838 217.822 77.2358 218.278C77.4878 218.734 77.8298 219.088 78.2618 219.34C78.6938 219.58 79.1798 219.7 79.7198 219.7ZM98.1298 216.496C99.3178 216.856 99.9118 217.624 99.9118 218.8C99.9118 219.664 99.5878 220.33 98.9398 220.798C98.2918 221.266 97.3318 221.5 96.0598 221.5H91.1638V211.888H95.8618C97.0378 211.888 97.9558 212.104 98.6158 212.536C99.2758 212.968 99.6058 213.58 99.6058 214.372C99.6058 214.864 99.4738 215.29 99.2098 215.65C98.9578 216.01 98.5978 216.292 98.1298 216.496ZM93.3058 215.902H95.6638C96.8278 215.902 97.4098 215.5 97.4098 214.696C97.4098 213.916 96.8278 213.526 95.6638 213.526H93.3058V215.902ZM95.8798 219.862C97.1158 219.862 97.7338 219.46 97.7338 218.656C97.7338 218.236 97.5898 217.924 97.3018 217.72C97.0138 217.504 96.5638 217.396 95.9518 217.396H93.3058V219.862H95.8798ZM115.509 217.648H113.889V221.5H111.657V217.648H110.037L107.697 221.5H105.033L108.183 216.532L105.267 211.888H107.661L110.001 215.776H111.657V211.888H113.889V215.776H115.527L117.885 211.888H120.279L117.363 216.532L120.531 221.5H117.849L115.509 217.648ZM130.437 216.748C130.437 216.904 130.425 217.126 130.401 217.414H122.859C122.991 218.122 123.333 218.686 123.885 219.106C124.449 219.514 125.145 219.718 125.973 219.718C127.029 219.718 127.899 219.37 128.583 218.674L129.789 220.06C129.357 220.576 128.811 220.966 128.151 221.23C127.491 221.494 126.747 221.626 125.919 221.626C124.863 221.626 123.933 221.416 123.129 220.996C122.325 220.576 121.701 219.994 121.257 219.25C120.825 218.494 120.609 217.642 120.609 216.694C120.609 215.758 120.819 214.918 121.239 214.174C121.671 213.418 122.265 212.83 123.021 212.41C123.777 211.99 124.629 211.78 125.577 211.78C126.513 211.78 127.347 211.99 128.079 212.41C128.823 212.818 129.399 213.4 129.807 214.156C130.227 214.9 130.437 215.764 130.437 216.748ZM125.577 213.58C124.857 213.58 124.245 213.796 123.741 214.228C123.249 214.648 122.949 215.212 122.841 215.92H128.295C128.199 215.224 127.905 214.66 127.413 214.228C126.921 213.796 126.309 213.58 125.577 213.58ZM136.822 221.626C135.826 221.626 134.932 221.416 134.14 220.996C133.348 220.576 132.73 219.994 132.286 219.25C131.842 218.494 131.62 217.642 131.62 216.694C131.62 215.746 131.842 214.9 132.286 214.156C132.73 213.412 133.342 212.83 134.122 212.41C134.914 211.99 135.814 211.78 136.822 211.78C137.77 211.78 138.598 211.972 139.306 212.356C140.026 212.74 140.566 213.292 140.926 214.012L139.198 215.02C138.922 214.576 138.574 214.246 138.154 214.03C137.746 213.802 137.296 213.688 136.804 213.688C135.964 213.688 135.268 213.964 134.716 214.516C134.164 215.056 133.888 215.782 133.888 216.694C133.888 217.606 134.158 218.338 134.698 218.89C135.25 219.43 135.952 219.7 136.804 219.7C137.296 219.7 137.746 219.592 138.154 219.376C138.574 219.148 138.922 218.812 139.198 218.368L140.926 219.376C140.554 220.096 140.008 220.654 139.288 221.05C138.58 221.434 137.758 221.626 136.822 221.626ZM149.983 213.796H146.617V221.5H144.367V213.796H140.983V211.888H149.983V213.796ZM155.027 221.626C154.055 221.626 153.179 221.416 152.399 220.996C151.619 220.576 151.007 219.994 150.563 219.25C150.131 218.494 149.915 217.642 149.915 216.694C149.915 215.746 150.131 214.9 150.563 214.156C151.007 213.412 151.619 212.83 152.399 212.41C153.179 211.99 154.055 211.78 155.027 211.78C156.011 211.78 156.893 211.99 157.673 212.41C158.453 212.83 159.059 213.412 159.491 214.156C159.935 214.9 160.157 215.746 160.157 216.694C160.157 217.642 159.935 218.494 159.491 219.25C159.059 219.994 158.453 220.576 157.673 220.996C156.893 221.416 156.011 221.626 155.027 221.626ZM155.027 219.7C155.855 219.7 156.539 219.424 157.079 218.872C157.619 218.32 157.889 217.594 157.889 216.694C157.889 215.794 157.619 215.068 157.079 214.516C156.539 213.964 155.855 213.688 155.027 213.688C154.199 213.688 153.515 213.964 152.975 214.516C152.447 215.068 152.183 215.794 152.183 216.694C152.183 217.594 152.447 218.32 152.975 218.872C153.515 219.424 154.199 219.7 155.027 219.7ZM165.926 217.648H164.18V221.5H161.93V211.888H164.18V215.776H165.98L168.824 211.888H171.236L167.744 216.514L171.47 221.5H168.824L165.926 217.648ZM176.574 221.626C175.602 221.626 174.726 221.416 173.946 220.996C173.166 220.576 172.554 219.994 172.11 219.25C171.678 218.494 171.462 217.642 171.462 216.694C171.462 215.746 171.678 214.9 172.11 214.156C172.554 213.412 173.166 212.83 173.946 212.41C174.726 211.99 175.602 211.78 176.574 211.78C177.558 211.78 178.44 211.99 179.22 212.41C180 212.83 180.606 213.412 181.038 214.156C181.482 214.9 181.704 215.746 181.704 216.694C181.704 217.642 181.482 218.494 181.038 219.25C180.606 219.994 180 220.576 179.22 220.996C178.44 221.416 177.558 221.626 176.574 221.626ZM176.574 219.7C177.402 219.7 178.086 219.424 178.626 218.872C179.166 218.32 179.436 217.594 179.436 216.694C179.436 215.794 179.166 215.068 178.626 214.516C178.086 213.964 177.402 213.688 176.574 213.688C175.746 213.688 175.062 213.964 174.522 214.516C173.994 215.068 173.73 215.794 173.73 216.694C173.73 217.594 173.994 218.32 174.522 218.872C175.062 219.424 175.746 219.7 176.574 219.7ZM183.477 211.888H185.727V218.224L191.037 211.888H193.089V221.5H190.839V215.164L185.547 221.5H183.477V211.888ZM188.139 210.754C187.167 210.754 186.423 210.532 185.907 210.088C185.403 209.632 185.145 208.972 185.133 208.108H186.627C186.639 208.54 186.771 208.882 187.023 209.134C187.287 209.386 187.653 209.512 188.121 209.512C188.577 209.512 188.937 209.386 189.201 209.134C189.477 208.882 189.621 208.54 189.633 208.108H191.163C191.151 208.972 190.887 209.632 190.371 210.088C189.855 210.532 189.111 210.754 188.139 210.754ZM204.564 221.626C203.568 221.626 202.674 221.416 201.882 220.996C201.09 220.576 200.472 219.994 200.028 219.25C199.584 218.494 199.362 217.642 199.362 216.694C199.362 215.746 199.584 214.9 200.028 214.156C200.472 213.412 201.084 212.83 201.864 212.41C202.656 211.99 203.556 211.78 204.564 211.78C205.512 211.78 206.34 211.972 207.048 212.356C207.768 212.74 208.308 213.292 208.668 214.012L206.94 215.02C206.664 214.576 206.316 214.246 205.896 214.03C205.488 213.802 205.038 213.688 204.546 213.688C203.706 213.688 203.01 213.964 202.458 214.516C201.906 215.056 201.63 215.782 201.63 216.694C201.63 217.606 201.9 218.338 202.44 218.89C202.992 219.43 203.694 219.7 204.546 219.7C205.038 219.7 205.488 219.592 205.896 219.376C206.316 219.148 206.664 218.812 206.94 218.368L208.668 219.376C208.296 220.096 207.75 220.654 207.03 221.05C206.322 221.434 205.5 221.626 204.564 221.626ZM215.948 221.5L213.482 218.17L210.998 221.5H208.514L212.258 216.622L208.676 211.888H211.178L213.536 215.038L215.894 211.888H218.324L214.724 216.586L218.486 221.5H215.948ZM226.612 216.496C227.8 216.856 228.394 217.624 228.394 218.8C228.394 219.664 228.07 220.33 227.422 220.798C226.774 221.266 225.814 221.5 224.542 221.5H219.646V211.888H224.344C225.52 211.888 226.438 212.104 227.098 212.536C227.758 212.968 228.088 213.58 228.088 214.372C228.088 214.864 227.956 215.29 227.692 215.65C227.44 216.01 227.08 216.292 226.612 216.496ZM221.788 215.902H224.146C225.31 215.902 225.892 215.5 225.892 214.696C225.892 213.916 225.31 213.526 224.146 213.526H221.788V215.902ZM224.362 219.862C225.598 219.862 226.216 219.46 226.216 218.656C226.216 218.236 226.072 217.924 225.784 217.72C225.496 217.504 225.046 217.396 224.434 217.396H221.788V219.862H224.362ZM233.922 211.78C235.338 211.78 236.418 212.122 237.162 212.806C237.918 213.478 238.296 214.498 238.296 215.866V221.5H236.172V220.33C235.896 220.75 235.5 221.074 234.984 221.302C234.48 221.518 233.868 221.626 233.148 221.626C232.428 221.626 231.798 221.506 231.258 221.266C230.718 221.014 230.298 220.672 229.998 220.24C229.71 219.796 229.566 219.298 229.566 218.746C229.566 217.882 229.884 217.192 230.52 216.676C231.168 216.148 232.182 215.884 233.562 215.884H236.046V215.74C236.046 215.068 235.842 214.552 235.434 214.192C235.038 213.832 234.444 213.652 233.652 213.652C233.112 213.652 232.578 213.736 232.05 213.904C231.534 214.072 231.096 214.306 230.736 214.606L229.854 212.968C230.358 212.584 230.964 212.29 231.672 212.086C232.38 211.882 233.13 211.78 233.922 211.78ZM233.616 219.988C234.18 219.988 234.678 219.862 235.11 219.61C235.554 219.346 235.866 218.974 236.046 218.494V217.378H233.724C232.428 217.378 231.78 217.804 231.78 218.656C231.78 219.064 231.942 219.388 232.266 219.628C232.59 219.868 233.04 219.988 233.616 219.988ZM248.245 213.796H244.879V221.5H242.629V213.796H239.245V211.888H248.245V213.796ZM253.423 217.648H251.677V221.5H249.427V211.888H251.677V215.776H253.477L256.321 211.888H258.733L255.241 216.514L258.967 221.5H256.321L253.423 217.648ZM268.787 216.748C268.787 216.904 268.775 217.126 268.751 217.414H261.209C261.341 218.122 261.683 218.686 262.235 219.106C262.799 219.514 263.495 219.718 264.323 219.718C265.379 219.718 266.249 219.37 266.933 218.674L268.139 220.06C267.707 220.576 267.161 220.966 266.501 221.23C265.841 221.494 265.097 221.626 264.269 221.626C263.213 221.626 262.283 221.416 261.479 220.996C260.675 220.576 260.051 219.994 259.607 219.25C259.175 218.494 258.959 217.642 258.959 216.694C258.959 215.758 259.169 214.918 259.589 214.174C260.021 213.418 260.615 212.83 261.371 212.41C262.127 211.99 262.979 211.78 263.927 211.78C264.863 211.78 265.697 211.99 266.429 212.41C267.173 212.818 267.749 213.4 268.157 214.156C268.577 214.9 268.787 215.764 268.787 216.748ZM263.927 213.58C263.207 213.58 262.595 213.796 262.091 214.228C261.599 214.648 261.299 215.212 261.191 215.92H266.645C266.549 215.224 266.255 214.66 265.763 214.228C265.271 213.796 264.659 213.58 263.927 213.58ZM271.5 218.638C271.92 218.638 272.268 218.776 272.544 219.052C272.82 219.328 272.958 219.688 272.958 220.132C272.958 220.324 272.928 220.528 272.868 220.744C272.82 220.948 272.712 221.26 272.544 221.68L271.626 224.218H270.168L270.888 221.464C270.624 221.356 270.414 221.188 270.258 220.96C270.114 220.72 270.042 220.444 270.042 220.132C270.042 219.688 270.18 219.328 270.456 219.052C270.732 218.776 271.08 218.638 271.5 218.638ZM288.483 211.888V221.5H286.251V213.796H281.517V221.5H279.267V211.888H288.483ZM294.651 211.78C296.067 211.78 297.147 212.122 297.891 212.806C298.647 213.478 299.025 214.498 299.025 215.866V221.5H296.901V220.33C296.625 220.75 296.229 221.074 295.713 221.302C295.209 221.518 294.597 221.626 293.877 221.626C293.157 221.626 292.527 221.506 291.987 221.266C291.447 221.014 291.027 220.672 290.727 220.24C290.439 219.796 290.295 219.298 290.295 218.746C290.295 217.882 290.613 217.192 291.249 216.676C291.897 216.148 292.911 215.884 294.291 215.884H296.775V215.74C296.775 215.068 296.571 214.552 296.163 214.192C295.767 213.832 295.173 213.652 294.381 213.652C293.841 213.652 293.307 213.736 292.779 213.904C292.263 214.072 291.825 214.306 291.465 214.606L290.583 212.968C291.087 212.584 291.693 212.29 292.401 212.086C293.109 211.882 293.859 211.78 294.651 211.78ZM294.345 219.988C294.909 219.988 295.407 219.862 295.839 219.61C296.283 219.346 296.595 218.974 296.775 218.494V217.378H294.453C293.157 217.378 292.509 217.804 292.509 218.656C292.509 219.064 292.671 219.388 292.995 219.628C293.319 219.868 293.769 219.988 294.345 219.988ZM306.687 211.78C307.623 211.78 308.457 211.984 309.189 212.392C309.933 212.8 310.515 213.376 310.935 214.12C311.355 214.864 311.565 215.722 311.565 216.694C311.565 217.666 311.355 218.53 310.935 219.286C310.515 220.03 309.933 220.606 309.189 221.014C308.457 221.422 307.623 221.626 306.687 221.626C305.391 221.626 304.365 221.194 303.609 220.33V224.992H301.359V211.888H303.501V213.148C303.873 212.692 304.329 212.35 304.869 212.122C305.421 211.894 306.027 211.78 306.687 211.78ZM306.435 219.7C307.263 219.7 307.941 219.424 308.469 218.872C309.009 218.32 309.279 217.594 309.279 216.694C309.279 215.794 309.009 215.068 308.469 214.516C307.941 213.964 307.263 213.688 306.435 213.688C305.895 213.688 305.409 213.814 304.977 214.066C304.545 214.306 304.203 214.654 303.951 215.11C303.699 215.566 303.573 216.094 303.573 216.694C303.573 217.294 303.699 217.822 303.951 218.278C304.203 218.734 304.545 219.088 304.977 219.34C305.409 219.58 305.895 219.7 306.435 219.7ZM313.355 211.888H315.605V215.794H320.447V211.888H322.697V221.5H320.447V217.702H315.605V221.5H313.355V211.888ZM325.262 211.888H327.512V218.224L332.822 211.888H334.874V221.5H332.624V215.164L327.332 221.5H325.262V211.888ZM71.963 233.888V243.5H69.731V235.796H64.997V243.5H62.747V233.888H71.963ZM79.8769 233.78C80.8129 233.78 81.6469 233.984 82.3789 234.392C83.1229 234.8 83.7049 235.376 84.1249 236.12C84.5449 236.864 84.7549 237.722 84.7549 238.694C84.7549 239.666 84.5449 240.53 84.1249 241.286C83.7049 242.03 83.1229 242.606 82.3789 243.014C81.6469 243.422 80.8129 243.626 79.8769 243.626C78.5809 243.626 77.5549 243.194 76.7989 242.33V246.992H74.5489V233.888H76.6909V235.148C77.0629 234.692 77.5189 234.35 78.0589 234.122C78.6109 233.894 79.2169 233.78 79.8769 233.78ZM79.6249 241.7C80.4529 241.7 81.1309 241.424 81.6589 240.872C82.1989 240.32 82.4689 239.594 82.4689 238.694C82.4689 237.794 82.1989 237.068 81.6589 236.516C81.1309 235.964 80.4529 235.688 79.6249 235.688C79.0849 235.688 78.5989 235.814 78.1669 236.066C77.7349 236.306 77.3929 236.654 77.1409 237.11C76.8889 237.566 76.7629 238.094 76.7629 238.694C76.7629 239.294 76.8889 239.822 77.1409 240.278C77.3929 240.734 77.7349 241.088 78.1669 241.34C78.5989 241.58 79.0849 241.7 79.6249 241.7ZM90.8282 243.626C89.8562 243.626 88.9802 243.416 88.2002 242.996C87.4202 242.576 86.8082 241.994 86.3642 241.25C85.9322 240.494 85.7162 239.642 85.7162 238.694C85.7162 237.746 85.9322 236.9 86.3642 236.156C86.8082 235.412 87.4202 234.83 88.2002 234.41C88.9802 233.99 89.8562 233.78 90.8282 233.78C91.8122 233.78 92.6942 233.99 93.4742 234.41C94.2542 234.83 94.8602 235.412 95.2922 236.156C95.7362 236.9 95.9582 237.746 95.9582 238.694C95.9582 239.642 95.7362 240.494 95.2922 241.25C94.8602 241.994 94.2542 242.576 93.4742 242.996C92.6942 243.416 91.8122 243.626 90.8282 243.626ZM90.8282 241.7C91.6562 241.7 92.3402 241.424 92.8802 240.872C93.4202 240.32 93.6902 239.594 93.6902 238.694C93.6902 237.794 93.4202 237.068 92.8802 236.516C92.3402 235.964 91.6562 235.688 90.8282 235.688C90.0002 235.688 89.3162 235.964 88.7762 236.516C88.2482 237.068 87.9842 237.794 87.9842 238.694C87.9842 239.594 88.2482 240.32 88.7762 240.872C89.3162 241.424 90.0002 241.7 90.8282 241.7ZM104.993 235.796H101.627V243.5H99.3774V235.796H95.9934V233.888H104.993V235.796ZM106.175 233.888H108.425V240.224L113.735 233.888H115.787V243.5H113.537V237.164L108.245 243.5H106.175V233.888ZM125.33 238.496C126.518 238.856 127.112 239.624 127.112 240.8C127.112 241.664 126.788 242.33 126.14 242.798C125.492 243.266 124.532 243.5 123.26 243.5H118.364V233.888H123.062C124.238 233.888 125.156 234.104 125.816 234.536C126.476 234.968 126.806 235.58 126.806 236.372C126.806 236.864 126.674 237.29 126.41 237.65C126.158 238.01 125.798 238.292 125.33 238.496ZM120.506 237.902H122.864C124.028 237.902 124.61 237.5 124.61 236.696C124.61 235.916 124.028 235.526 122.864 235.526H120.506V237.902ZM123.08 241.862C124.316 241.862 124.934 241.46 124.934 240.656C124.934 240.236 124.79 239.924 124.502 239.72C124.214 239.504 123.764 239.396 123.152 239.396H120.506V241.862H123.08ZM143.843 241.592V245.642H141.737V243.5H134.321V245.642H132.233V241.592H132.683C133.295 241.568 133.709 241.178 133.925 240.422C134.153 239.654 134.303 238.574 134.375 237.182L134.501 233.888H142.421V241.592H143.843ZM136.427 237.344C136.379 238.448 136.289 239.348 136.157 240.044C136.025 240.74 135.785 241.256 135.437 241.592H140.171V235.796H136.481L136.427 237.344ZM154.403 238.748C154.403 238.904 154.391 239.126 154.367 239.414H146.825C146.957 240.122 147.299 240.686 147.851 241.106C148.415 241.514 149.111 241.718 149.939 241.718C150.995 241.718 151.865 241.37 152.549 240.674L153.755 242.06C153.323 242.576 152.777 242.966 152.117 243.23C151.457 243.494 150.713 243.626 149.885 243.626C148.829 243.626 147.899 243.416 147.095 242.996C146.291 242.576 145.667 241.994 145.223 241.25C144.791 240.494 144.575 239.642 144.575 238.694C144.575 237.758 144.785 236.918 145.205 236.174C145.637 235.418 146.231 234.83 146.987 234.41C147.743 233.99 148.595 233.78 149.543 233.78C150.479 233.78 151.313 233.99 152.045 234.41C152.789 234.818 153.365 235.4 153.773 236.156C154.193 236.9 154.403 237.764 154.403 238.748ZM149.543 235.58C148.823 235.58 148.211 235.796 147.707 236.228C147.215 236.648 146.915 237.212 146.807 237.92H152.261C152.165 237.224 151.871 236.66 151.379 236.228C150.887 235.796 150.275 235.58 149.543 235.58ZM163.38 238.496C164.568 238.856 165.162 239.624 165.162 240.8C165.162 241.664 164.838 242.33 164.19 242.798C163.542 243.266 162.582 243.5 161.31 243.5H156.414V233.888H161.112C162.288 233.888 163.206 234.104 163.866 234.536C164.526 234.968 164.856 235.58 164.856 236.372C164.856 236.864 164.724 237.29 164.46 237.65C164.208 238.01 163.848 238.292 163.38 238.496ZM158.556 237.902H160.914C162.078 237.902 162.66 237.5 162.66 236.696C162.66 235.916 162.078 235.526 160.914 235.526H158.556V237.902ZM161.13 241.862C162.366 241.862 162.984 241.46 162.984 240.656C162.984 240.236 162.84 239.924 162.552 239.72C162.264 239.504 161.814 239.396 161.202 239.396H158.556V241.862H161.13ZM176.18 233.888L171.68 244.274C171.26 245.318 170.75 246.05 170.15 246.47C169.55 246.902 168.824 247.118 167.972 247.118C167.492 247.118 167.018 247.04 166.55 246.884C166.082 246.728 165.698 246.512 165.398 246.236L166.298 244.58C166.514 244.784 166.766 244.946 167.054 245.066C167.354 245.186 167.654 245.246 167.954 245.246C168.35 245.246 168.674 245.144 168.926 244.94C169.19 244.736 169.43 244.394 169.646 243.914L169.808 243.536L165.614 233.888H167.954L170.978 240.998L174.02 233.888H176.18ZM191.459 233.888V243.5H177.293V233.888H179.543V241.592H183.269V233.888H185.519V241.592H189.209V233.888H191.459ZM203.034 238.748C203.034 238.904 203.022 239.126 202.998 239.414H195.456C195.588 240.122 195.93 240.686 196.482 241.106C197.046 241.514 197.742 241.718 198.57 241.718C199.626 241.718 200.496 241.37 201.18 240.674L202.386 242.06C201.954 242.576 201.408 242.966 200.748 243.23C200.088 243.494 199.344 243.626 198.516 243.626C197.46 243.626 196.53 243.416 195.726 242.996C194.922 242.576 194.298 241.994 193.854 241.25C193.422 240.494 193.206 239.642 193.206 238.694C193.206 237.758 193.416 236.918 193.836 236.174C194.268 235.418 194.862 234.83 195.618 234.41C196.374 233.99 197.226 233.78 198.174 233.78C199.11 233.78 199.944 233.99 200.676 234.41C201.42 234.818 201.996 235.4 202.404 236.156C202.824 236.9 203.034 237.764 203.034 238.748ZM198.174 235.58C197.454 235.58 196.842 235.796 196.338 236.228C195.846 236.648 195.546 237.212 195.438 237.92H200.892C200.796 237.224 200.502 236.66 200.01 236.228C199.518 235.796 198.906 235.58 198.174 235.58ZM209.041 239.648H207.295V243.5H205.045V233.888H207.295V237.776H209.095L211.939 233.888H214.351L210.859 238.514L214.585 243.5H211.939L209.041 239.648ZM220.247 233.888H222.497V240.224L227.807 233.888H229.859V243.5H227.609V237.164L222.317 243.5H220.247V233.888ZM247.22 241.592V245.642H245.114V243.5H237.698V245.642H235.61V241.592H236.06C236.672 241.568 237.086 241.178 237.302 240.422C237.53 239.654 237.68 238.574 237.752 237.182L237.878 233.888H245.798V241.592H247.22ZM239.804 237.344C239.756 238.448 239.666 239.348 239.534 240.044C239.402 240.74 239.162 241.256 238.814 241.592H243.548V235.796H239.858L239.804 237.344ZM257.78 238.748C257.78 238.904 257.768 239.126 257.744 239.414H250.202C250.334 240.122 250.676 240.686 251.228 241.106C251.792 241.514 252.488 241.718 253.316 241.718C254.372 241.718 255.242 241.37 255.926 240.674L257.132 242.06C256.7 242.576 256.154 242.966 255.494 243.23C254.834 243.494 254.09 243.626 253.262 243.626C252.206 243.626 251.276 243.416 250.472 242.996C249.668 242.576 249.044 241.994 248.6 241.25C248.168 240.494 247.952 239.642 247.952 238.694C247.952 237.758 248.162 236.918 248.582 236.174C249.014 235.418 249.608 234.83 250.364 234.41C251.12 233.99 251.972 233.78 252.92 233.78C253.856 233.78 254.69 233.99 255.422 234.41C256.166 234.818 256.742 235.4 257.15 236.156C257.57 236.9 257.78 237.764 257.78 238.748ZM252.92 235.58C252.2 235.58 251.588 235.796 251.084 236.228C250.592 236.648 250.292 237.212 250.184 237.92H255.638C255.542 237.224 255.248 236.66 254.756 236.228C254.264 235.796 253.652 235.58 252.92 235.58ZM266.757 238.496C267.945 238.856 268.539 239.624 268.539 240.8C268.539 241.664 268.215 242.33 267.567 242.798C266.919 243.266 265.959 243.5 264.687 243.5H259.791V233.888H264.489C265.665 233.888 266.583 234.104 267.243 234.536C267.903 234.968 268.233 235.58 268.233 236.372C268.233 236.864 268.101 237.29 267.837 237.65C267.585 238.01 267.225 238.292 266.757 238.496ZM261.933 237.902H264.291C265.455 237.902 266.037 237.5 266.037 236.696C266.037 235.916 265.455 235.526 264.291 235.526H261.933V237.902ZM264.507 241.862C265.743 241.862 266.361 241.46 266.361 240.656C266.361 240.236 266.217 239.924 265.929 239.72C265.641 239.504 265.191 239.396 264.579 239.396H261.933V241.862H264.507ZM279.557 233.888L275.057 244.274C274.637 245.318 274.127 246.05 273.527 246.47C272.927 246.902 272.201 247.118 271.349 247.118C270.869 247.118 270.395 247.04 269.927 246.884C269.459 246.728 269.075 246.512 268.775 246.236L269.675 244.58C269.891 244.784 270.143 244.946 270.431 245.066C270.731 245.186 271.031 245.246 271.331 245.246C271.727 245.246 272.051 245.144 272.303 244.94C272.567 244.736 272.807 244.394 273.023 243.914L273.185 243.536L268.991 233.888H271.331L274.355 240.998L277.397 233.888H279.557ZM294.836 233.888V243.5H280.67V233.888H282.92V241.592H286.646V233.888H288.896V241.592H292.586V233.888H294.836ZM301.407 239.648H299.661V243.5H297.411V233.888H299.661V237.776H301.461L304.305 233.888H306.717L303.225 238.514L306.951 243.5H304.305L301.407 239.648ZM308.088 233.888H310.338V240.224L315.648 233.888H317.7V243.5H315.45V237.164L310.158 243.5H308.088V233.888ZM58.2995 255.888V265.5H56.0675V257.796H51.3335V265.5H49.0835V255.888H58.2995ZM66.2134 255.78C67.1494 255.78 67.9834 255.984 68.7154 256.392C69.4594 256.8 70.0414 257.376 70.4614 258.12C70.8814 258.864 71.0914 259.722 71.0914 260.694C71.0914 261.666 70.8814 262.53 70.4614 263.286C70.0414 264.03 69.4594 264.606 68.7154 265.014C67.9834 265.422 67.1494 265.626 66.2134 265.626C64.9174 265.626 63.8914 265.194 63.1354 264.33V268.992H60.8854V255.888H63.0274V257.148C63.3994 256.692 63.8554 256.35 64.3954 256.122C64.9474 255.894 65.5534 255.78 66.2134 255.78ZM65.9614 263.7C66.7894 263.7 67.4674 263.424 67.9954 262.872C68.5354 262.32 68.8054 261.594 68.8054 260.694C68.8054 259.794 68.5354 259.068 67.9954 258.516C67.4674 257.964 66.7894 257.688 65.9614 257.688C65.4214 257.688 64.9354 257.814 64.5034 258.066C64.0714 258.306 63.7294 258.654 63.4774 259.11C63.2254 259.566 63.0994 260.094 63.0994 260.694C63.0994 261.294 63.2254 261.822 63.4774 262.278C63.7294 262.734 64.0714 263.088 64.5034 263.34C64.9354 263.58 65.4214 263.7 65.9614 263.7ZM77.1648 265.626C76.1928 265.626 75.3168 265.416 74.5368 264.996C73.7568 264.576 73.1448 263.994 72.7008 263.25C72.2688 262.494 72.0528 261.642 72.0528 260.694C72.0528 259.746 72.2688 258.9 72.7008 258.156C73.1448 257.412 73.7568 256.83 74.5368 256.41C75.3168 255.99 76.1928 255.78 77.1648 255.78C78.1488 255.78 79.0308 255.99 79.8108 256.41C80.5908 256.83 81.1968 257.412 81.6288 258.156C82.0728 258.9 82.2948 259.746 82.2948 260.694C82.2948 261.642 82.0728 262.494 81.6288 263.25C81.1968 263.994 80.5908 264.576 79.8108 264.996C79.0308 265.416 78.1488 265.626 77.1648 265.626ZM77.1648 263.7C77.9928 263.7 78.6768 263.424 79.2168 262.872C79.7568 262.32 80.0268 261.594 80.0268 260.694C80.0268 259.794 79.7568 259.068 79.2168 258.516C78.6768 257.964 77.9928 257.688 77.1648 257.688C76.3368 257.688 75.6528 257.964 75.1128 258.516C74.5848 259.068 74.3208 259.794 74.3208 260.694C74.3208 261.594 74.5848 262.32 75.1128 262.872C75.6528 263.424 76.3368 263.7 77.1648 263.7ZM91.3299 257.796H87.9639V265.5H85.7139V257.796H82.3299V255.888H91.3299V257.796ZM92.512 255.888H94.762V262.224L100.072 255.888H102.124V265.5H99.874V259.164L94.582 265.5H92.512V255.888ZM111.667 260.496C112.855 260.856 113.449 261.624 113.449 262.8C113.449 263.664 113.125 264.33 112.477 264.798C111.829 265.266 110.869 265.5 109.597 265.5H104.701V255.888H109.399C110.575 255.888 111.493 256.104 112.153 256.536C112.813 256.968 113.143 257.58 113.143 258.372C113.143 258.864 113.011 259.29 112.747 259.65C112.495 260.01 112.135 260.292 111.667 260.496ZM106.843 259.902H109.201C110.365 259.902 110.947 259.5 110.947 258.696C110.947 257.916 110.365 257.526 109.201 257.526H106.843V259.902ZM109.417 263.862C110.653 263.862 111.271 263.46 111.271 262.656C111.271 262.236 111.127 261.924 110.839 261.72C110.551 261.504 110.101 261.396 109.489 261.396H106.843V263.862H109.417ZM129.136 255.888V265.5H126.904V257.796H122.17V265.5H119.92V255.888H129.136ZM135.304 255.78C136.72 255.78 137.8 256.122 138.544 256.806C139.3 257.478 139.678 258.498 139.678 259.866V265.5H137.554V264.33C137.278 264.75 136.882 265.074 136.366 265.302C135.862 265.518 135.25 265.626 134.53 265.626C133.81 265.626 133.18 265.506 132.64 265.266C132.1 265.014 131.68 264.672 131.38 264.24C131.092 263.796 130.948 263.298 130.948 262.746C130.948 261.882 131.266 261.192 131.902 260.676C132.55 260.148 133.564 259.884 134.944 259.884H137.428V259.74C137.428 259.068 137.224 258.552 136.816 258.192C136.42 257.832 135.826 257.652 135.034 257.652C134.494 257.652 133.96 257.736 133.432 257.904C132.916 258.072 132.478 258.306 132.118 258.606L131.236 256.968C131.74 256.584 132.346 256.29 133.054 256.086C133.762 255.882 134.512 255.78 135.304 255.78ZM134.998 263.988C135.562 263.988 136.06 263.862 136.492 263.61C136.936 263.346 137.248 262.974 137.428 262.494V261.378H135.106C133.81 261.378 133.162 261.804 133.162 262.656C133.162 263.064 133.324 263.388 133.648 263.628C133.972 263.868 134.422 263.988 134.998 263.988ZM147.34 255.78C148.276 255.78 149.11 255.984 149.842 256.392C150.586 256.8 151.168 257.376 151.588 258.12C152.008 258.864 152.218 259.722 152.218 260.694C152.218 261.666 152.008 262.53 151.588 263.286C151.168 264.03 150.586 264.606 149.842 265.014C149.11 265.422 148.276 265.626 147.34 265.626C146.044 265.626 145.018 265.194 144.262 264.33V268.992H142.012V255.888H144.154V257.148C144.526 256.692 144.982 256.35 145.522 256.122C146.074 255.894 146.68 255.78 147.34 255.78ZM147.088 263.7C147.916 263.7 148.594 263.424 149.122 262.872C149.662 262.32 149.932 261.594 149.932 260.694C149.932 259.794 149.662 259.068 149.122 258.516C148.594 257.964 147.916 257.688 147.088 257.688C146.548 257.688 146.062 257.814 145.63 258.066C145.198 258.306 144.856 258.654 144.604 259.11C144.352 259.566 144.226 260.094 144.226 260.694C144.226 261.294 144.352 261.822 144.604 262.278C144.856 262.734 145.198 263.088 145.63 263.34C146.062 263.58 146.548 263.7 147.088 263.7ZM154.007 255.888H156.257V259.794H161.099V255.888H163.349V265.5H161.099V261.702H156.257V265.5H154.007V255.888ZM174.915 260.748C174.915 260.904 174.903 261.126 174.879 261.414H167.337C167.469 262.122 167.811 262.686 168.363 263.106C168.927 263.514 169.623 263.718 170.451 263.718C171.507 263.718 172.377 263.37 173.061 262.674L174.267 264.06C173.835 264.576 173.289 264.966 172.629 265.23C171.969 265.494 171.225 265.626 170.397 265.626C169.341 265.626 168.411 265.416 167.607 264.996C166.803 264.576 166.179 263.994 165.735 263.25C165.303 262.494 165.087 261.642 165.087 260.694C165.087 259.758 165.297 258.918 165.717 258.174C166.149 257.418 166.743 256.83 167.499 256.41C168.255 255.99 169.107 255.78 170.055 255.78C170.991 255.78 171.825 255.99 172.557 256.41C173.301 256.818 173.877 257.4 174.285 258.156C174.705 258.9 174.915 259.764 174.915 260.748ZM170.055 257.58C169.335 257.58 168.723 257.796 168.219 258.228C167.727 258.648 167.427 259.212 167.319 259.92H172.773C172.677 259.224 172.383 258.66 171.891 258.228C171.399 257.796 170.787 257.58 170.055 257.58ZM176.926 255.888H179.176V262.224L184.486 255.888H186.538V265.5H184.288V259.164L178.996 265.5H176.926V255.888ZM181.588 254.754C180.616 254.754 179.872 254.532 179.356 254.088C178.852 253.632 178.594 252.972 178.582 252.108H180.076C180.088 252.54 180.22 252.882 180.472 253.134C180.736 253.386 181.102 253.512 181.57 253.512C182.026 253.512 182.386 253.386 182.65 253.134C182.926 252.882 183.07 252.54 183.082 252.108H184.612C184.6 252.972 184.336 253.632 183.82 254.088C183.304 254.532 182.56 254.754 181.588 254.754ZM188.79 252.9H191.454L191.004 261.324H189.222L188.79 252.9ZM190.122 265.626C189.702 265.626 189.354 265.494 189.078 265.23C188.802 264.954 188.664 264.618 188.664 264.222C188.664 263.826 188.802 263.496 189.078 263.232C189.354 262.968 189.702 262.836 190.122 262.836C190.53 262.836 190.866 262.968 191.13 263.232C191.406 263.496 191.544 263.826 191.544 264.222C191.544 264.618 191.406 264.954 191.13 265.23C190.866 265.494 190.53 265.626 190.122 265.626ZM209.611 252.9V265.5H207.307V254.88H200.773V265.5H198.469V252.9H209.611ZM217.79 255.78C218.726 255.78 219.56 255.984 220.292 256.392C221.036 256.8 221.618 257.376 222.038 258.12C222.458 258.864 222.668 259.722 222.668 260.694C222.668 261.666 222.458 262.53 222.038 263.286C221.618 264.03 221.036 264.606 220.292 265.014C219.56 265.422 218.726 265.626 217.79 265.626C216.494 265.626 215.468 265.194 214.712 264.33V268.992H212.462V255.888H214.604V257.148C214.976 256.692 215.432 256.35 215.972 256.122C216.524 255.894 217.13 255.78 217.79 255.78ZM217.538 263.7C218.366 263.7 219.044 263.424 219.572 262.872C220.112 262.32 220.382 261.594 220.382 260.694C220.382 259.794 220.112 259.068 219.572 258.516C219.044 257.964 218.366 257.688 217.538 257.688C216.998 257.688 216.512 257.814 216.08 258.066C215.648 258.306 215.306 258.654 215.054 259.11C214.802 259.566 214.676 260.094 214.676 260.694C214.676 261.294 214.802 261.822 215.054 262.278C215.306 262.734 215.648 263.088 216.08 263.34C216.512 263.58 216.998 263.7 217.538 263.7ZM228.741 265.626C227.769 265.626 226.893 265.416 226.113 264.996C225.333 264.576 224.721 263.994 224.277 263.25C223.845 262.494 223.629 261.642 223.629 260.694C223.629 259.746 223.845 258.9 224.277 258.156C224.721 257.412 225.333 256.83 226.113 256.41C226.893 255.99 227.769 255.78 228.741 255.78C229.725 255.78 230.607 255.99 231.387 256.41C232.167 256.83 232.773 257.412 233.205 258.156C233.649 258.9 233.871 259.746 233.871 260.694C233.871 261.642 233.649 262.494 233.205 263.25C232.773 263.994 232.167 264.576 231.387 264.996C230.607 265.416 229.725 265.626 228.741 265.626ZM228.741 263.7C229.569 263.7 230.253 263.424 230.793 262.872C231.333 262.32 231.603 261.594 231.603 260.694C231.603 259.794 231.333 259.068 230.793 258.516C230.253 257.964 229.569 257.688 228.741 257.688C227.913 257.688 227.229 257.964 226.689 258.516C226.161 259.068 225.897 259.794 225.897 260.694C225.897 261.594 226.161 262.32 226.689 262.872C227.229 263.424 227.913 263.7 228.741 263.7ZM243.024 257.796H237.894V265.5H235.644V255.888H243.024V257.796ZM248.073 265.626C247.101 265.626 246.225 265.416 245.445 264.996C244.665 264.576 244.053 263.994 243.609 263.25C243.177 262.494 242.961 261.642 242.961 260.694C242.961 259.746 243.177 258.9 243.609 258.156C244.053 257.412 244.665 256.83 245.445 256.41C246.225 255.99 247.101 255.78 248.073 255.78C249.057 255.78 249.939 255.99 250.719 256.41C251.499 256.83 252.105 257.412 252.537 258.156C252.981 258.9 253.203 259.746 253.203 260.694C253.203 261.642 252.981 262.494 252.537 263.25C252.105 263.994 251.499 264.576 250.719 264.996C249.939 265.416 249.057 265.626 248.073 265.626ZM248.073 263.7C248.901 263.7 249.585 263.424 250.125 262.872C250.665 262.32 250.935 261.594 250.935 260.694C250.935 259.794 250.665 259.068 250.125 258.516C249.585 257.964 248.901 257.688 248.073 257.688C247.245 257.688 246.561 257.964 246.021 258.516C245.493 259.068 245.229 259.794 245.229 260.694C245.229 261.594 245.493 262.32 246.021 262.872C246.561 263.424 247.245 263.7 248.073 263.7ZM263.583 255.888V265.5H261.333V257.796H257.733L257.643 259.704C257.583 260.976 257.463 262.044 257.283 262.908C257.115 263.76 256.821 264.438 256.401 264.942C255.993 265.434 255.429 265.68 254.709 265.68C254.373 265.68 253.959 265.614 253.467 265.482L253.575 263.592C253.743 263.628 253.887 263.646 254.007 263.646C254.463 263.646 254.805 263.466 255.033 263.106C255.261 262.734 255.405 262.296 255.465 261.792C255.537 261.276 255.597 260.544 255.645 259.596L255.807 255.888H263.583ZM270.447 265.626C269.475 265.626 268.599 265.416 267.819 264.996C267.039 264.576 266.427 263.994 265.983 263.25C265.551 262.494 265.335 261.642 265.335 260.694C265.335 259.746 265.551 258.9 265.983 258.156C266.427 257.412 267.039 256.83 267.819 256.41C268.599 255.99 269.475 255.78 270.447 255.78C271.431 255.78 272.313 255.99 273.093 256.41C273.873 256.83 274.479 257.412 274.911 258.156C275.355 258.9 275.577 259.746 275.577 260.694C275.577 261.642 275.355 262.494 274.911 263.25C274.479 263.994 273.873 264.576 273.093 264.996C272.313 265.416 271.431 265.626 270.447 265.626ZM270.447 263.7C271.275 263.7 271.959 263.424 272.499 262.872C273.039 262.32 273.309 261.594 273.309 260.694C273.309 259.794 273.039 259.068 272.499 258.516C271.959 257.964 271.275 257.688 270.447 257.688C269.619 257.688 268.935 257.964 268.395 258.516C267.867 259.068 267.603 259.794 267.603 260.694C267.603 261.594 267.867 262.32 268.395 262.872C268.935 263.424 269.619 263.7 270.447 263.7ZM281.724 265.626C280.728 265.626 279.834 265.416 279.042 264.996C278.25 264.576 277.632 263.994 277.188 263.25C276.744 262.494 276.522 261.642 276.522 260.694C276.522 259.746 276.744 258.9 277.188 258.156C277.632 257.412 278.244 256.83 279.024 256.41C279.816 255.99 280.716 255.78 281.724 255.78C282.672 255.78 283.5 255.972 284.208 256.356C284.928 256.74 285.468 257.292 285.828 258.012L284.1 259.02C283.824 258.576 283.476 258.246 283.056 258.03C282.648 257.802 282.198 257.688 281.706 257.688C280.866 257.688 280.17 257.964 279.618 258.516C279.066 259.056 278.79 259.782 278.79 260.694C278.79 261.606 279.06 262.338 279.6 262.89C280.152 263.43 280.854 263.7 281.706 263.7C282.198 263.7 282.648 263.592 283.056 263.376C283.476 263.148 283.824 262.812 284.1 262.368L285.828 263.376C285.456 264.096 284.91 264.654 284.19 265.05C283.482 265.434 282.66 265.626 281.724 265.626ZM296.307 255.888L291.807 266.274C291.387 267.318 290.877 268.05 290.277 268.47C289.677 268.902 288.951 269.118 288.099 269.118C287.619 269.118 287.145 269.04 286.677 268.884C286.209 268.728 285.825 268.512 285.525 268.236L286.425 266.58C286.641 266.784 286.893 266.946 287.181 267.066C287.481 267.186 287.781 267.246 288.081 267.246C288.477 267.246 288.801 267.144 289.053 266.94C289.317 266.736 289.557 266.394 289.773 265.914L289.935 265.536L285.741 255.888H288.081L291.105 262.998L294.147 255.888H296.307ZM297.42 255.888H299.67V262.224L304.98 255.888H307.032V265.5H304.782V259.164L299.49 265.5H297.42V255.888ZM302.082 254.754C301.11 254.754 300.366 254.532 299.85 254.088C299.346 253.632 299.088 252.972 299.076 252.108H300.57C300.582 252.54 300.714 252.882 300.966 253.134C301.23 253.386 301.596 253.512 302.064 253.512C302.52 253.512 302.88 253.386 303.144 253.134C303.42 252.882 303.564 252.54 303.576 252.108H305.106C305.094 252.972 304.83 253.632 304.314 254.088C303.798 254.532 303.054 254.754 302.082 254.754ZM319.875 260.496C320.475 260.664 320.937 260.94 321.261 261.324C321.597 261.696 321.765 262.146 321.765 262.674C321.765 263.262 321.567 263.784 321.171 264.24C320.775 264.684 320.229 265.032 319.533 265.284C318.837 265.536 318.045 265.662 317.157 265.662C316.413 265.662 315.687 265.578 314.979 265.41C314.271 265.23 313.629 264.978 313.053 264.654L313.701 262.98C314.169 263.244 314.697 263.448 315.285 263.592C315.873 263.736 316.461 263.808 317.049 263.808C317.805 263.808 318.393 263.694 318.813 263.466C319.245 263.226 319.461 262.902 319.461 262.494C319.461 262.122 319.293 261.834 318.957 261.63C318.633 261.426 318.171 261.324 317.571 261.324H315.699V259.812H317.391C317.955 259.812 318.393 259.716 318.705 259.524C319.029 259.332 319.191 259.062 319.191 258.714C319.191 258.366 318.999 258.09 318.615 257.886C318.231 257.682 317.703 257.58 317.031 257.58C316.071 257.58 315.057 257.814 313.989 258.282L313.413 256.626C314.673 256.038 315.945 255.744 317.229 255.744C318.045 255.744 318.777 255.858 319.425 256.086C320.073 256.302 320.577 256.614 320.937 257.022C321.309 257.418 321.495 257.874 321.495 258.39C321.495 258.858 321.351 259.278 321.063 259.65C320.775 260.01 320.379 260.292 319.875 260.496ZM327.232 255.78C328.648 255.78 329.728 256.122 330.472 256.806C331.228 257.478 331.606 258.498 331.606 259.866V265.5H329.482V264.33C329.206 264.75 328.81 265.074 328.294 265.302C327.79 265.518 327.178 265.626 326.458 265.626C325.738 265.626 325.108 265.506 324.568 265.266C324.028 265.014 323.608 264.672 323.308 264.24C323.02 263.796 322.876 263.298 322.876 262.746C322.876 261.882 323.194 261.192 323.83 260.676C324.478 260.148 325.492 259.884 326.872 259.884H329.356V259.74C329.356 259.068 329.152 258.552 328.744 258.192C328.348 257.832 327.754 257.652 326.962 257.652C326.422 257.652 325.888 257.736 325.36 257.904C324.844 258.072 324.406 258.306 324.046 258.606L323.164 256.968C323.668 256.584 324.274 256.29 324.982 256.086C325.69 255.882 326.44 255.78 327.232 255.78ZM326.926 263.988C327.49 263.988 327.988 263.862 328.42 263.61C328.864 263.346 329.176 262.974 329.356 262.494V261.378H327.034C325.738 261.378 325.09 261.804 325.09 262.656C325.09 263.064 325.252 263.388 325.576 263.628C325.9 263.868 326.35 263.988 326.926 263.988ZM71.1956 287.626C70.1996 287.626 69.3056 287.416 68.5136 286.996C67.7216 286.576 67.1036 285.994 66.6596 285.25C66.2156 284.494 65.9936 283.642 65.9936 282.694C65.9936 281.746 66.2156 280.9 66.6596 280.156C67.1036 279.412 67.7156 278.83 68.4956 278.41C69.2876 277.99 70.1876 277.78 71.1956 277.78C72.1436 277.78 72.9716 277.972 73.6796 278.356C74.3996 278.74 74.9396 279.292 75.2996 280.012L73.5716 281.02C73.2956 280.576 72.9476 280.246 72.5276 280.03C72.1196 279.802 71.6696 279.688 71.1776 279.688C70.3376 279.688 69.6416 279.964 69.0896 280.516C68.5376 281.056 68.2616 281.782 68.2616 282.694C68.2616 283.606 68.5316 284.338 69.0716 284.89C69.6236 285.43 70.3256 285.7 71.1776 285.7C71.6696 285.7 72.1196 285.592 72.5276 285.376C72.9476 285.148 73.2956 284.812 73.5716 284.368L75.2996 285.376C74.9276 286.096 74.3816 286.654 73.6616 287.05C72.9536 287.434 72.1316 287.626 71.1956 287.626ZM83.7966 282.496C84.9846 282.856 85.5786 283.624 85.5786 284.8C85.5786 285.664 85.2546 286.33 84.6066 286.798C83.9586 287.266 82.9986 287.5 81.7266 287.5H76.8306V277.888H81.5286C82.7046 277.888 83.6226 278.104 84.2826 278.536C84.9426 278.968 85.2726 279.58 85.2726 280.372C85.2726 280.864 85.1406 281.29 84.8766 281.65C84.6246 282.01 84.2646 282.292 83.7966 282.496ZM78.9726 281.902H81.3306C82.4946 281.902 83.0766 281.5 83.0766 280.696C83.0766 279.916 82.4946 279.526 81.3306 279.526H78.9726V281.902ZM81.5466 285.862C82.7826 285.862 83.4006 285.46 83.4006 284.656C83.4006 284.236 83.2566 283.924 82.9686 283.72C82.6806 283.504 82.2306 283.396 81.6186 283.396H78.9726V285.862H81.5466ZM91.8091 287.626C90.8371 287.626 89.9611 287.416 89.1811 286.996C88.4011 286.576 87.7891 285.994 87.3451 285.25C86.9131 284.494 86.6971 283.642 86.6971 282.694C86.6971 281.746 86.9131 280.9 87.3451 280.156C87.7891 279.412 88.4011 278.83 89.1811 278.41C89.9611 277.99 90.8371 277.78 91.8091 277.78C92.7931 277.78 93.6751 277.99 94.4551 278.41C95.2351 278.83 95.8411 279.412 96.2731 280.156C96.7171 280.9 96.9391 281.746 96.9391 282.694C96.9391 283.642 96.7171 284.494 96.2731 285.25C95.8411 285.994 95.2351 286.576 94.4551 286.996C93.6751 287.416 92.7931 287.626 91.8091 287.626ZM91.8091 285.7C92.6371 285.7 93.3211 285.424 93.8611 284.872C94.4011 284.32 94.6711 283.594 94.6711 282.694C94.6711 281.794 94.4011 281.068 93.8611 280.516C93.3211 279.964 92.6371 279.688 91.8091 279.688C90.9811 279.688 90.2971 279.964 89.7571 280.516C89.2291 281.068 88.9651 281.794 88.9651 282.694C88.9651 283.594 89.2291 284.32 89.7571 284.872C90.2971 285.424 90.9811 285.7 91.8091 285.7ZM98.7118 277.888H100.962V284.224L106.272 277.888H108.324V287.5H106.074V281.164L100.782 287.5H98.7118V277.888ZM103.374 276.754C102.402 276.754 101.658 276.532 101.142 276.088C100.638 275.632 100.38 274.972 100.368 274.108H101.862C101.874 274.54 102.006 274.882 102.258 275.134C102.522 275.386 102.888 275.512 103.356 275.512C103.812 275.512 104.172 275.386 104.436 275.134C104.712 274.882 104.856 274.54 104.868 274.108H106.398C106.386 274.972 106.122 275.632 105.606 276.088C105.09 276.532 104.346 276.754 103.374 276.754ZM124.641 277.888V287.5H122.409V279.796H117.675V287.5H115.425V277.888H124.641ZM131.511 287.626C130.539 287.626 129.663 287.416 128.883 286.996C128.103 286.576 127.491 285.994 127.047 285.25C126.615 284.494 126.399 283.642 126.399 282.694C126.399 281.746 126.615 280.9 127.047 280.156C127.491 279.412 128.103 278.83 128.883 278.41C129.663 277.99 130.539 277.78 131.511 277.78C132.495 277.78 133.377 277.99 134.157 278.41C134.937 278.83 135.543 279.412 135.975 280.156C136.419 280.9 136.641 281.746 136.641 282.694C136.641 283.642 136.419 284.494 135.975 285.25C135.543 285.994 134.937 286.576 134.157 286.996C133.377 287.416 132.495 287.626 131.511 287.626ZM131.511 285.7C132.339 285.7 133.023 285.424 133.563 284.872C134.103 284.32 134.373 283.594 134.373 282.694C134.373 281.794 134.103 281.068 133.563 280.516C133.023 279.964 132.339 279.688 131.511 279.688C130.683 279.688 129.999 279.964 129.459 280.516C128.931 281.068 128.667 281.794 128.667 282.694C128.667 283.594 128.931 284.32 129.459 284.872C129.999 285.424 130.683 285.7 131.511 285.7ZM147.02 277.888V287.5H144.77V279.796H141.17L141.08 281.704C141.02 282.976 140.9 284.044 140.72 284.908C140.552 285.76 140.258 286.438 139.838 286.942C139.43 287.434 138.866 287.68 138.146 287.68C137.81 287.68 137.396 287.614 136.904 287.482L137.012 285.592C137.18 285.628 137.324 285.646 137.444 285.646C137.9 285.646 138.242 285.466 138.47 285.106C138.698 284.734 138.842 284.296 138.902 283.792C138.974 283.276 139.034 282.544 139.082 281.596L139.244 277.888H147.02ZM150.302 284.638C150.722 284.638 151.07 284.776 151.346 285.052C151.622 285.328 151.76 285.688 151.76 286.132C151.76 286.324 151.73 286.528 151.67 286.744C151.622 286.948 151.514 287.26 151.346 287.68L150.428 290.218H148.97L149.69 287.464C149.426 287.356 149.216 287.188 149.06 286.96C148.916 286.72 148.844 286.444 148.844 286.132C148.844 285.688 148.982 285.328 149.258 285.052C149.534 284.776 149.882 284.638 150.302 284.638ZM165.036 282.496C166.224 282.856 166.818 283.624 166.818 284.8C166.818 285.664 166.494 286.33 165.846 286.798C165.198 287.266 164.238 287.5 162.966 287.5H158.07V277.888H162.768C163.944 277.888 164.862 278.104 165.522 278.536C166.182 278.968 166.512 279.58 166.512 280.372C166.512 280.864 166.38 281.29 166.116 281.65C165.864 282.01 165.504 282.292 165.036 282.496ZM160.212 281.902H162.57C163.734 281.902 164.316 281.5 164.316 280.696C164.316 279.916 163.734 279.526 162.57 279.526H160.212V281.902ZM162.786 285.862C164.022 285.862 164.64 285.46 164.64 284.656C164.64 284.236 164.496 283.924 164.208 283.72C163.92 283.504 163.47 283.396 162.858 283.396H160.212V285.862H162.786ZM173.444 281.056C174.668 281.056 175.604 281.332 176.252 281.884C176.9 282.436 177.224 283.216 177.224 284.224C177.224 285.28 176.864 286.096 176.144 286.672C175.436 287.248 174.428 287.53 173.12 287.518L168.764 287.5V277.888H171.014V281.038L173.444 281.056ZM178.466 277.888H180.716V287.5H178.466V277.888ZM172.922 285.862C173.582 285.874 174.086 285.736 174.434 285.448C174.782 285.16 174.956 284.74 174.956 284.188C174.956 283.648 174.788 283.252 174.452 283C174.116 282.748 173.606 282.616 172.922 282.604L171.014 282.586V285.844L172.922 285.862ZM192.003 277.888V287.5H189.753V279.796H186.153L186.063 281.704C186.003 282.976 185.883 284.044 185.703 284.908C185.535 285.76 185.241 286.438 184.821 286.942C184.413 287.434 183.849 287.68 183.129 287.68C182.793 287.68 182.379 287.614 181.887 287.482L181.995 285.592C182.163 285.628 182.307 285.646 182.427 285.646C182.883 285.646 183.225 285.466 183.453 285.106C183.681 284.734 183.825 284.296 183.885 283.792C183.957 283.276 184.017 282.544 184.065 281.596L184.227 277.888H192.003ZM198.867 287.626C197.895 287.626 197.019 287.416 196.239 286.996C195.459 286.576 194.847 285.994 194.403 285.25C193.971 284.494 193.755 283.642 193.755 282.694C193.755 281.746 193.971 280.9 194.403 280.156C194.847 279.412 195.459 278.83 196.239 278.41C197.019 277.99 197.895 277.78 198.867 277.78C199.851 277.78 200.733 277.99 201.513 278.41C202.293 278.83 202.899 279.412 203.331 280.156C203.775 280.9 203.997 281.746 203.997 282.694C203.997 283.642 203.775 284.494 203.331 285.25C202.899 285.994 202.293 286.576 201.513 286.996C200.733 287.416 199.851 287.626 198.867 287.626ZM198.867 285.7C199.695 285.7 200.379 285.424 200.919 284.872C201.459 284.32 201.729 283.594 201.729 282.694C201.729 281.794 201.459 281.068 200.919 280.516C200.379 279.964 199.695 279.688 198.867 279.688C198.039 279.688 197.355 279.964 196.815 280.516C196.287 281.068 196.023 281.794 196.023 282.694C196.023 283.594 196.287 284.32 196.815 284.872C197.355 285.424 198.039 285.7 198.867 285.7ZM214.579 283.648H212.959V287.5H210.727V283.648H209.107L206.767 287.5H204.103L207.253 282.532L204.337 277.888H206.731L209.071 281.776H210.727V277.888H212.959V281.776H214.597L216.955 277.888H219.349L216.433 282.532L219.601 287.5H216.919L214.579 283.648ZM220.824 277.888H223.074V284.224L228.384 277.888H230.436V287.5H228.186V281.164L222.894 287.5H220.824V277.888ZM239.978 282.496C241.166 282.856 241.76 283.624 241.76 284.8C241.76 285.664 241.436 286.33 240.788 286.798C240.14 287.266 239.18 287.5 237.908 287.5H233.012V277.888H237.71C238.886 277.888 239.804 278.104 240.464 278.536C241.124 278.968 241.454 279.58 241.454 280.372C241.454 280.864 241.322 281.29 241.058 281.65C240.806 282.01 240.446 282.292 239.978 282.496ZM235.154 281.902H237.512C238.676 281.902 239.258 281.5 239.258 280.696C239.258 279.916 238.676 279.526 237.512 279.526H235.154V281.902ZM237.728 285.862C238.964 285.862 239.582 285.46 239.582 284.656C239.582 284.236 239.438 283.924 239.15 283.72C238.862 283.504 238.412 283.396 237.8 283.396H235.154V285.862H237.728ZM252.605 287.626C251.609 287.626 250.715 287.416 249.923 286.996C249.131 286.576 248.513 285.994 248.069 285.25C247.625 284.494 247.403 283.642 247.403 282.694C247.403 281.746 247.625 280.9 248.069 280.156C248.513 279.412 249.125 278.83 249.905 278.41C250.697 277.99 251.597 277.78 252.605 277.78C253.553 277.78 254.381 277.972 255.089 278.356C255.809 278.74 256.349 279.292 256.709 280.012L254.981 281.02C254.705 280.576 254.357 280.246 253.937 280.03C253.529 279.802 253.079 279.688 252.587 279.688C251.747 279.688 251.051 279.964 250.499 280.516C249.947 281.056 249.671 281.782 249.671 282.694C249.671 283.606 249.941 284.338 250.481 284.89C251.033 285.43 251.735 285.7 252.587 285.7C253.079 285.7 253.529 285.592 253.937 285.376C254.357 285.148 254.705 284.812 254.981 284.368L256.709 285.376C256.337 286.096 255.791 286.654 255.071 287.05C254.363 287.434 253.541 287.626 252.605 287.626ZM265.766 279.796H262.4V287.5H260.15V279.796H256.766V277.888H265.766V279.796ZM270.811 287.626C269.839 287.626 268.963 287.416 268.183 286.996C267.403 286.576 266.791 285.994 266.347 285.25C265.915 284.494 265.699 283.642 265.699 282.694C265.699 281.746 265.915 280.9 266.347 280.156C266.791 279.412 267.403 278.83 268.183 278.41C268.963 277.99 269.839 277.78 270.811 277.78C271.795 277.78 272.677 277.99 273.457 278.41C274.237 278.83 274.843 279.412 275.275 280.156C275.719 280.9 275.941 281.746 275.941 282.694C275.941 283.642 275.719 284.494 275.275 285.25C274.843 285.994 274.237 286.576 273.457 286.996C272.677 287.416 271.795 287.626 270.811 287.626ZM270.811 285.7C271.639 285.7 272.323 285.424 272.863 284.872C273.403 284.32 273.673 283.594 273.673 282.694C273.673 281.794 273.403 281.068 272.863 280.516C272.323 279.964 271.639 279.688 270.811 279.688C269.983 279.688 269.299 279.964 268.759 280.516C268.231 281.068 267.967 281.794 267.967 282.694C267.967 283.594 268.231 284.32 268.759 284.872C269.299 285.424 269.983 285.7 270.811 285.7ZM283.041 277.78C283.977 277.78 284.811 277.984 285.543 278.392C286.287 278.8 286.869 279.376 287.289 280.12C287.709 280.864 287.919 281.722 287.919 282.694C287.919 283.666 287.709 284.53 287.289 285.286C286.869 286.03 286.287 286.606 285.543 287.014C284.811 287.422 283.977 287.626 283.041 287.626C281.745 287.626 280.719 287.194 279.963 286.33V290.992H277.713V277.888H279.855V279.148C280.227 278.692 280.683 278.35 281.223 278.122C281.775 277.894 282.381 277.78 283.041 277.78ZM282.789 285.7C283.617 285.7 284.295 285.424 284.823 284.872C285.363 284.32 285.633 283.594 285.633 282.694C285.633 281.794 285.363 281.068 284.823 280.516C284.295 279.964 283.617 279.688 282.789 279.688C282.249 279.688 281.763 279.814 281.331 280.066C280.899 280.306 280.557 280.654 280.305 281.11C280.053 281.566 279.927 282.094 279.927 282.694C279.927 283.294 280.053 283.822 280.305 284.278C280.557 284.734 280.899 285.088 281.331 285.34C281.763 285.58 282.249 285.7 282.789 285.7ZM289.709 277.888H291.959V284.224L297.269 277.888H299.321V287.5H297.071V281.164L291.779 287.5H289.709V277.888ZM306.271 287.626C305.275 287.626 304.381 287.416 303.589 286.996C302.797 286.576 302.179 285.994 301.735 285.25C301.291 284.494 301.069 283.642 301.069 282.694C301.069 281.746 301.291 280.9 301.735 280.156C302.179 279.412 302.791 278.83 303.571 278.41C304.363 277.99 305.263 277.78 306.271 277.78C307.219 277.78 308.047 277.972 308.755 278.356C309.475 278.74 310.015 279.292 310.375 280.012L308.647 281.02C308.371 280.576 308.023 280.246 307.603 280.03C307.195 279.802 306.745 279.688 306.253 279.688C305.413 279.688 304.717 279.964 304.165 280.516C303.613 281.056 303.337 281.782 303.337 282.694C303.337 283.606 303.607 284.338 304.147 284.89C304.699 285.43 305.401 285.7 306.253 285.7C306.745 285.7 307.195 285.592 307.603 285.376C308.023 285.148 308.371 284.812 308.647 284.368L310.375 285.376C310.003 286.096 309.457 286.654 308.737 287.05C308.029 287.434 307.207 287.626 306.271 287.626ZM312.942 287.626C312.534 287.626 312.186 287.488 311.898 287.212C311.61 286.924 311.466 286.564 311.466 286.132C311.466 285.688 311.604 285.328 311.88 285.052C312.168 284.776 312.522 284.638 312.942 284.638C313.362 284.638 313.71 284.776 313.986 285.052C314.274 285.328 314.418 285.688 314.418 286.132C314.418 286.564 314.274 286.924 313.986 287.212C313.698 287.488 313.35 287.626 312.942 287.626ZM45.8582 296.9V309.5H43.5542V298.88H37.0202V309.5H34.7162V296.9H45.8582ZM52.9931 309.626C52.0211 309.626 51.1451 309.416 50.3651 308.996C49.5851 308.576 48.9731 307.994 48.5291 307.25C48.0971 306.494 47.8811 305.642 47.8811 304.694C47.8811 303.746 48.0971 302.9 48.5291 302.156C48.9731 301.412 49.5851 300.83 50.3651 300.41C51.1451 299.99 52.0211 299.78 52.9931 299.78C53.9771 299.78 54.8591 299.99 55.6391 300.41C56.4191 300.83 57.0251 301.412 57.4571 302.156C57.9011 302.9 58.1231 303.746 58.1231 304.694C58.1231 305.642 57.9011 306.494 57.4571 307.25C57.0251 307.994 56.4191 308.576 55.6391 308.996C54.8591 309.416 53.9771 309.626 52.9931 309.626ZM52.9931 307.7C53.8211 307.7 54.5051 307.424 55.0451 306.872C55.5851 306.32 55.8551 305.594 55.8551 304.694C55.8551 303.794 55.5851 303.068 55.0451 302.516C54.5051 301.964 53.8211 301.688 52.9931 301.688C52.1651 301.688 51.4811 301.964 50.9411 302.516C50.4131 303.068 50.1491 303.794 50.1491 304.694C50.1491 305.594 50.4131 306.32 50.9411 306.872C51.4811 307.424 52.1651 307.7 52.9931 307.7ZM69.3458 309.5V303.128L66.1058 308.492H65.1338L61.9478 303.11V309.5H59.8958V299.888H62.2538L65.6738 305.9L69.2558 299.888H71.3618L71.3798 309.5H69.3458ZM78.2317 309.626C77.2597 309.626 76.3837 309.416 75.6037 308.996C74.8237 308.576 74.2117 307.994 73.7677 307.25C73.3357 306.494 73.1197 305.642 73.1197 304.694C73.1197 303.746 73.3357 302.9 73.7677 302.156C74.2117 301.412 74.8237 300.83 75.6037 300.41C76.3837 299.99 77.2597 299.78 78.2317 299.78C79.2157 299.78 80.0977 299.99 80.8777 300.41C81.6577 300.83 82.2637 301.412 82.6957 302.156C83.1397 302.9 83.3617 303.746 83.3617 304.694C83.3617 305.642 83.1397 306.494 82.6957 307.25C82.2637 307.994 81.6577 308.576 80.8777 308.996C80.0977 309.416 79.2157 309.626 78.2317 309.626ZM78.2317 307.7C79.0597 307.7 79.7437 307.424 80.2837 306.872C80.8237 306.32 81.0937 305.594 81.0937 304.694C81.0937 303.794 80.8237 303.068 80.2837 302.516C79.7437 301.964 79.0597 301.688 78.2317 301.688C77.4037 301.688 76.7197 301.964 76.1797 302.516C75.6517 303.068 75.3877 303.794 75.3877 304.694C75.3877 305.594 75.6517 306.32 76.1797 306.872C76.7197 307.424 77.4037 307.7 78.2317 307.7ZM92.5145 301.796H87.3845V309.5H85.1345V299.888H92.5145V301.796ZM93.702 299.888H95.952V306.224L101.262 299.888H103.314V309.5H101.064V303.164L95.772 309.5H93.702V299.888ZM114.789 309.626C113.793 309.626 112.899 309.416 112.107 308.996C111.315 308.576 110.697 307.994 110.253 307.25C109.809 306.494 109.587 305.642 109.587 304.694C109.587 303.746 109.809 302.9 110.253 302.156C110.697 301.412 111.309 300.83 112.089 300.41C112.881 299.99 113.781 299.78 114.789 299.78C115.737 299.78 116.565 299.972 117.273 300.356C117.993 300.74 118.533 301.292 118.893 302.012L117.165 303.02C116.889 302.576 116.541 302.246 116.121 302.03C115.713 301.802 115.263 301.688 114.771 301.688C113.931 301.688 113.235 301.964 112.683 302.516C112.131 303.056 111.855 303.782 111.855 304.694C111.855 305.606 112.125 306.338 112.665 306.89C113.217 307.43 113.919 307.7 114.771 307.7C115.263 307.7 115.713 307.592 116.121 307.376C116.541 307.148 116.889 306.812 117.165 306.368L118.893 307.376C118.521 308.096 117.975 308.654 117.255 309.05C116.547 309.434 115.725 309.626 114.789 309.626ZM127.39 304.496C128.578 304.856 129.172 305.624 129.172 306.8C129.172 307.664 128.848 308.33 128.2 308.798C127.552 309.266 126.592 309.5 125.32 309.5H120.424V299.888H125.122C126.298 299.888 127.216 300.104 127.876 300.536C128.536 300.968 128.866 301.58 128.866 302.372C128.866 302.864 128.734 303.29 128.47 303.65C128.218 304.01 127.858 304.292 127.39 304.496ZM122.566 303.902H124.924C126.088 303.902 126.67 303.5 126.67 302.696C126.67 301.916 126.088 301.526 124.924 301.526H122.566V303.902ZM125.14 307.862C126.376 307.862 126.994 307.46 126.994 306.656C126.994 306.236 126.85 305.924 126.562 305.72C126.274 305.504 125.824 305.396 125.212 305.396H122.566V307.862H125.14ZM135.403 309.626C134.431 309.626 133.555 309.416 132.775 308.996C131.995 308.576 131.383 307.994 130.939 307.25C130.507 306.494 130.291 305.642 130.291 304.694C130.291 303.746 130.507 302.9 130.939 302.156C131.383 301.412 131.995 300.83 132.775 300.41C133.555 299.99 134.431 299.78 135.403 299.78C136.387 299.78 137.269 299.99 138.049 300.41C138.829 300.83 139.435 301.412 139.867 302.156C140.311 302.9 140.533 303.746 140.533 304.694C140.533 305.642 140.311 306.494 139.867 307.25C139.435 307.994 138.829 308.576 138.049 308.996C137.269 309.416 136.387 309.626 135.403 309.626ZM135.403 307.7C136.231 307.7 136.915 307.424 137.455 306.872C137.995 306.32 138.265 305.594 138.265 304.694C138.265 303.794 137.995 303.068 137.455 302.516C136.915 301.964 136.231 301.688 135.403 301.688C134.575 301.688 133.891 301.964 133.351 302.516C132.823 303.068 132.559 303.794 132.559 304.694C132.559 305.594 132.823 306.32 133.351 306.872C133.891 307.424 134.575 307.7 135.403 307.7ZM151.306 304.748C151.306 304.904 151.294 305.126 151.27 305.414H143.728C143.86 306.122 144.202 306.686 144.754 307.106C145.318 307.514 146.014 307.718 146.842 307.718C147.898 307.718 148.768 307.37 149.452 306.674L150.658 308.06C150.226 308.576 149.68 308.966 149.02 309.23C148.36 309.494 147.616 309.626 146.788 309.626C145.732 309.626 144.802 309.416 143.998 308.996C143.194 308.576 142.57 307.994 142.126 307.25C141.694 306.494 141.478 305.642 141.478 304.694C141.478 303.758 141.688 302.918 142.108 302.174C142.54 301.418 143.134 300.83 143.89 300.41C144.646 299.99 145.498 299.78 146.446 299.78C147.382 299.78 148.216 299.99 148.948 300.41C149.692 300.818 150.268 301.4 150.676 302.156C151.096 302.9 151.306 303.764 151.306 304.748ZM146.446 301.58C145.726 301.58 145.114 301.796 144.61 302.228C144.118 302.648 143.818 303.212 143.71 303.92H149.164C149.068 303.224 148.774 302.66 148.282 302.228C147.79 301.796 147.178 301.58 146.446 301.58ZM153.316 299.888H155.566V306.224L160.876 299.888H162.928V309.5H160.678V303.164L155.386 309.5H153.316V299.888ZM157.978 298.754C157.006 298.754 156.262 298.532 155.746 298.088C155.242 297.632 154.984 296.972 154.972 296.108H156.466C156.478 296.54 156.61 296.882 156.862 297.134C157.126 297.386 157.492 297.512 157.96 297.512C158.416 297.512 158.776 297.386 159.04 297.134C159.316 296.882 159.46 296.54 159.472 296.108H161.002C160.99 296.972 160.726 297.632 160.21 298.088C159.694 298.532 158.95 298.754 157.978 298.754ZM174.026 305.648H172.28V309.5H170.03V299.888H172.28V303.776H174.08L176.924 299.888H179.336L175.844 304.514L179.57 309.5H176.924L174.026 305.648ZM184.674 309.626C183.702 309.626 182.826 309.416 182.046 308.996C181.266 308.576 180.654 307.994 180.21 307.25C179.778 306.494 179.562 305.642 179.562 304.694C179.562 303.746 179.778 302.9 180.21 302.156C180.654 301.412 181.266 300.83 182.046 300.41C182.826 299.99 183.702 299.78 184.674 299.78C185.658 299.78 186.54 299.99 187.32 300.41C188.1 300.83 188.706 301.412 189.138 302.156C189.582 302.9 189.804 303.746 189.804 304.694C189.804 305.642 189.582 306.494 189.138 307.25C188.706 307.994 188.1 308.576 187.32 308.996C186.54 309.416 185.658 309.626 184.674 309.626ZM184.674 307.7C185.502 307.7 186.186 307.424 186.726 306.872C187.266 306.32 187.536 305.594 187.536 304.694C187.536 303.794 187.266 303.068 186.726 302.516C186.186 301.964 185.502 301.688 184.674 301.688C183.846 301.688 183.162 301.964 182.622 302.516C182.094 303.068 181.83 303.794 181.83 304.694C181.83 305.594 182.094 306.32 182.622 306.872C183.162 307.424 183.846 307.7 184.674 307.7ZM201.027 309.5V303.128L197.787 308.492H196.815L193.629 303.11V309.5H191.577V299.888H193.935L197.355 305.9L200.937 299.888H203.043L203.061 309.5H201.027ZM209.211 299.78C210.627 299.78 211.707 300.122 212.451 300.806C213.207 301.478 213.585 302.498 213.585 303.866V309.5H211.461V308.33C211.185 308.75 210.789 309.074 210.273 309.302C209.769 309.518 209.157 309.626 208.437 309.626C207.717 309.626 207.087 309.506 206.547 309.266C206.007 309.014 205.587 308.672 205.287 308.24C204.999 307.796 204.855 307.298 204.855 306.746C204.855 305.882 205.173 305.192 205.809 304.676C206.457 304.148 207.471 303.884 208.851 303.884H211.335V303.74C211.335 303.068 211.131 302.552 210.723 302.192C210.327 301.832 209.733 301.652 208.941 301.652C208.401 301.652 207.867 301.736 207.339 301.904C206.823 302.072 206.385 302.306 206.025 302.606L205.143 300.968C205.647 300.584 206.253 300.29 206.961 300.086C207.669 299.882 208.419 299.78 209.211 299.78ZM208.905 307.988C209.469 307.988 209.967 307.862 210.399 307.61C210.843 307.346 211.155 306.974 211.335 306.494V305.378H209.013C207.717 305.378 207.069 305.804 207.069 306.656C207.069 307.064 207.231 307.388 207.555 307.628C207.879 307.868 208.329 307.988 208.905 307.988ZM215.919 299.888H218.169V303.794H223.011V299.888H225.261V309.5H223.011V305.702H218.169V309.5H215.919V299.888ZM238.087 307.592V311.642H235.981V309.5H228.565V311.642H226.477V307.592H226.927C227.539 307.568 227.953 307.178 228.169 306.422C228.397 305.654 228.547 304.574 228.619 303.182L228.745 299.888H236.665V307.592H238.087ZM230.671 303.344C230.623 304.448 230.533 305.348 230.401 306.044C230.269 306.74 230.029 307.256 229.681 307.592H234.415V301.796H230.725L230.671 303.344ZM248.646 304.748C248.646 304.904 248.634 305.126 248.61 305.414H241.068C241.2 306.122 241.542 306.686 242.094 307.106C242.658 307.514 243.354 307.718 244.182 307.718C245.238 307.718 246.108 307.37 246.792 306.674L247.998 308.06C247.566 308.576 247.02 308.966 246.36 309.23C245.7 309.494 244.956 309.626 244.128 309.626C243.072 309.626 242.142 309.416 241.338 308.996C240.534 308.576 239.91 307.994 239.466 307.25C239.034 306.494 238.818 305.642 238.818 304.694C238.818 303.758 239.028 302.918 239.448 302.174C239.88 301.418 240.474 300.83 241.23 300.41C241.986 299.99 242.838 299.78 243.786 299.78C244.722 299.78 245.556 299.99 246.288 300.41C247.032 300.818 247.608 301.4 248.016 302.156C248.436 302.9 248.646 303.764 248.646 304.748ZM243.786 301.58C243.066 301.58 242.454 301.796 241.95 302.228C241.458 302.648 241.158 303.212 241.05 303.92H246.504C246.408 303.224 246.114 302.66 245.622 302.228C245.13 301.796 244.518 301.58 243.786 301.58ZM264.398 299.888V309.5H262.166V301.796H257.432V309.5H255.182V299.888H264.398ZM271.268 309.626C270.296 309.626 269.42 309.416 268.64 308.996C267.86 308.576 267.248 307.994 266.804 307.25C266.372 306.494 266.156 305.642 266.156 304.694C266.156 303.746 266.372 302.9 266.804 302.156C267.248 301.412 267.86 300.83 268.64 300.41C269.42 299.99 270.296 299.78 271.268 299.78C272.252 299.78 273.134 299.99 273.914 300.41C274.694 300.83 275.3 301.412 275.732 302.156C276.176 302.9 276.398 303.746 276.398 304.694C276.398 305.642 276.176 306.494 275.732 307.25C275.3 307.994 274.694 308.576 273.914 308.996C273.134 309.416 272.252 309.626 271.268 309.626ZM271.268 307.7C272.096 307.7 272.78 307.424 273.32 306.872C273.86 306.32 274.13 305.594 274.13 304.694C274.13 303.794 273.86 303.068 273.32 302.516C272.78 301.964 272.096 301.688 271.268 301.688C270.44 301.688 269.756 301.964 269.216 302.516C268.688 303.068 268.424 303.794 268.424 304.694C268.424 305.594 268.688 306.32 269.216 306.872C269.756 307.424 270.44 307.7 271.268 307.7ZM283.372 300.356C284.284 300.356 285.088 300.554 285.784 300.95C286.48 301.334 287.02 301.874 287.404 302.57C287.8 303.266 287.998 304.064 287.998 304.964C287.998 305.888 287.782 306.71 287.35 307.43C286.918 308.138 286.312 308.69 285.532 309.086C284.752 309.482 283.864 309.68 282.868 309.68C281.2 309.68 279.91 309.128 278.998 308.024C278.086 306.92 277.63 305.33 277.63 303.254C277.63 301.322 278.044 299.792 278.872 298.664C279.7 297.536 280.966 296.792 282.67 296.432L287.134 295.478L287.458 297.494L283.408 298.322C282.244 298.562 281.374 298.97 280.798 299.546C280.222 300.122 279.886 300.932 279.79 301.976C280.222 301.46 280.744 301.064 281.356 300.788C281.968 300.5 282.64 300.356 283.372 300.356ZM282.922 307.862C283.75 307.862 284.416 307.598 284.92 307.07C285.436 306.53 285.694 305.846 285.694 305.018C285.694 304.19 285.436 303.524 284.92 303.02C284.416 302.516 283.75 302.264 282.922 302.264C282.082 302.264 281.404 302.516 280.888 303.02C280.372 303.524 280.114 304.19 280.114 305.018C280.114 305.858 280.372 306.542 280.888 307.07C281.416 307.598 282.094 307.862 282.922 307.862ZM298.726 304.748C298.726 304.904 298.714 305.126 298.69 305.414H291.148C291.28 306.122 291.622 306.686 292.174 307.106C292.738 307.514 293.434 307.718 294.262 307.718C295.318 307.718 296.188 307.37 296.872 306.674L298.078 308.06C297.646 308.576 297.1 308.966 296.44 309.23C295.78 309.494 295.036 309.626 294.208 309.626C293.152 309.626 292.222 309.416 291.418 308.996C290.614 308.576 289.99 307.994 289.546 307.25C289.114 306.494 288.898 305.642 288.898 304.694C288.898 303.758 289.108 302.918 289.528 302.174C289.96 301.418 290.554 300.83 291.31 300.41C292.066 299.99 292.918 299.78 293.866 299.78C294.802 299.78 295.636 299.99 296.368 300.41C297.112 300.818 297.688 301.4 298.096 302.156C298.516 302.9 298.726 303.764 298.726 304.748ZM293.866 301.58C293.146 301.58 292.534 301.796 292.03 302.228C291.538 302.648 291.238 303.212 291.13 303.92H296.584C296.488 303.224 296.194 302.66 295.702 302.228C295.21 301.796 294.598 301.58 293.866 301.58ZM310.874 307.592V311.642H308.768V309.5H301.352V311.642H299.264V307.592H299.714C300.326 307.568 300.74 307.178 300.956 306.422C301.184 305.654 301.334 304.574 301.406 303.182L301.532 299.888H309.452V307.592H310.874ZM303.458 303.344C303.41 304.448 303.32 305.348 303.188 306.044C303.056 306.74 302.816 307.256 302.468 307.592H307.202V301.796H303.512L303.458 303.344ZM312.434 299.888H314.684V306.224L319.994 299.888H322.046V309.5H319.796V303.164L314.504 309.5H312.434V299.888ZM332.236 301.796H328.87V309.5H326.62V301.796H323.236V299.888H332.236V301.796ZM338.242 303.056C339.466 303.056 340.402 303.332 341.05 303.884C341.71 304.436 342.04 305.216 342.04 306.224C342.04 307.28 341.68 308.096 340.96 308.672C340.24 309.248 339.226 309.53 337.918 309.518L333.418 309.5V299.888H335.668V303.038L338.242 303.056ZM337.72 307.862C338.38 307.874 338.884 307.736 339.232 307.448C339.58 307.16 339.754 306.74 339.754 306.188C339.754 305.648 339.586 305.252 339.25 305C338.914 304.748 338.404 304.616 337.72 304.604L335.668 304.586V307.844L337.72 307.862ZM343.244 296.9H345.908L345.458 305.324H343.676L343.244 296.9ZM344.576 309.626C344.156 309.626 343.808 309.494 343.532 309.23C343.256 308.954 343.118 308.618 343.118 308.222C343.118 307.826 343.256 307.496 343.532 307.232C343.808 306.968 344.156 306.836 344.576 306.836C344.984 306.836 345.32 306.968 345.584 307.232C345.86 307.496 345.998 307.826 345.998 308.222C345.998 308.618 345.86 308.954 345.584 309.23C345.32 309.494 344.984 309.626 344.576 309.626Z" fill="black"/>
</g>
<defs>
<filter id="filter0_d" x="0" y="169" width="380" height="197" filterUnits="userSpaceOnUse" color-interpolation-filters="sRGB">
<feFlood flood-opacity="0" result="BackgroundImageFix"/>
<feColorMatrix in="SourceAlpha" type="matrix" values="0 0 0 0 0 0 0 0 0 0 0 0 0 0 0 0 0 0 127 0"/>
<feOffset dy="8"/>
<feGaussianBlur stdDeviation="10.5"/>
<feColorMatrix type="matrix" values="0 0 0 0 0 0 0 0 0 0.24225 0 0 0 0 0.7125 0 0 0 0.18 0"/>
<feBlend mode="normal" in2="BackgroundImageFix" result="effect1_dropShadow"/>
<feBlend mode="normal" in="SourceGraphic" in2="effect1_dropShadow" result="shape"/>
</filter>
</defs>
</svg>
