<svg width="142" height="191" viewBox="0 0 142 191" fill="none" xmlns="http://www.w3.org/2000/svg">
<path d="M103.493 82.4708H26.9347V169.28H103.493V82.4708Z" fill="#C66139"/>
<path d="M43.4315 63.5715H26.9347V169.119H43.4315V63.5715Z" fill="#EF833E"/>
<path d="M80.9099 129.239H70.1789H56.7252C56.7252 129.239 57.3658 147.658 54.3227 152.943H68.8976H83.4725C80.5896 147.658 80.9099 129.239 80.9099 129.239Z" fill="#F5BE94"/>
<path d="M56.7252 140.61C61.2097 142.692 65.6943 144.775 70.8196 144.294C74.5033 143.974 78.0269 142.853 81.2302 141.251C80.7497 135.165 80.9099 129.399 80.9099 129.399H56.8853C56.8853 129.239 57.0455 134.684 56.7252 140.61Z" fill="#D69F76"/>
<path d="M113.744 163.514L80.2693 150.38H69.218H68.8976H58.0065L24.5322 163.514C24.5322 163.514 12.8403 167.678 14.1216 188.179H68.8976H69.218H123.994C125.596 166.397 113.744 163.514 113.744 163.514Z" fill="#F5BE94"/>
<path d="M99.3287 94.1628C98.3678 100.249 100.13 105.695 103.173 106.335C106.216 106.976 109.579 102.491 110.54 96.2449C111.501 90.1587 109.739 84.7131 106.696 84.0725C103.653 83.592 100.29 88.0765 99.3287 94.1628Z" fill="#F5BE94"/>
<path d="M103.013 92.5611C103.013 92.5611 103.013 92.2408 103.173 91.6002C103.333 90.9595 103.493 90.3188 103.974 89.3579C104.294 88.557 104.934 87.5961 105.735 87.5961C105.895 87.5961 106.056 87.5961 106.376 87.7562L106.696 87.9164L106.856 88.0766C107.177 88.3969 107.497 88.8774 107.657 89.3579C107.817 89.8384 107.978 90.479 107.978 91.1197C107.978 91.7603 108.138 92.401 107.978 92.8815C107.817 93.5221 107.817 94.1628 107.817 94.6433C107.657 95.1238 107.657 95.7644 107.497 96.2449C107.337 96.7254 107.337 97.2059 107.177 97.5262C107.017 97.8466 107.017 98.3271 106.856 98.4872C106.696 98.9677 106.696 99.4482 106.696 99.4482C106.696 99.4482 106.856 99.1279 107.177 98.6474C107.337 98.327 107.497 98.0067 107.657 97.6864C107.817 97.3661 107.978 96.8856 108.138 96.4051C108.298 95.9246 108.458 95.4441 108.618 94.8034C108.778 94.1628 108.939 93.6823 108.939 93.0416C109.099 92.401 109.099 91.6002 108.939 90.9595C108.939 90.3188 108.778 89.518 108.618 88.8774C108.458 88.2367 107.978 87.5961 107.497 87.1156C107.337 86.9554 107.177 86.9554 107.017 86.7952C106.856 86.6351 106.856 86.6351 106.536 86.6351C106.216 86.6351 105.896 86.4749 105.575 86.6351C104.935 86.7952 104.454 87.2757 103.974 87.7562C103.653 88.2367 103.333 88.7172 103.173 89.3579C102.852 90.3188 102.852 91.2798 102.692 91.7603C103.013 92.2408 103.013 92.5611 103.013 92.5611Z" fill="#F3AB82"/>
<path d="M103.013 92.5611C103.013 92.5611 102.692 91.9205 104.774 91.7603C104.774 91.7603 107.017 92.2408 105.735 95.2839C105.415 95.9246 105.255 96.5652 105.095 97.3661C104.934 98.327 105.255 99.7685 104.774 100.729C104.134 101.851 102.212 101.21 102.212 99.9287C102.052 98.9677 103.173 97.2059 103.653 96.4051C103.493 96.2449 104.935 94.0026 103.013 92.5611Z" fill="#F3AB82"/>
<path d="M102.052 99.6084C102.052 99.6084 102.052 99.6084 101.891 99.7685C101.731 99.9287 101.731 100.089 101.571 100.409C101.571 100.569 101.571 100.73 101.411 100.89C101.411 101.05 101.411 101.21 101.411 101.37C101.411 101.53 101.411 101.69 101.411 101.851C101.411 102.011 101.571 102.171 101.571 102.331C101.571 102.491 101.731 102.651 101.731 102.812C101.891 102.972 101.891 103.132 102.052 103.132C102.212 103.452 102.532 103.452 102.692 103.612C103.173 103.773 103.333 103.773 103.333 103.773C103.333 103.773 103.173 103.452 103.013 102.972C103.013 102.812 102.852 102.812 102.852 102.651C102.852 102.491 102.692 102.491 102.692 102.331C102.692 102.171 102.532 102.171 102.532 102.011C102.532 101.851 102.372 101.851 102.372 101.69C102.212 101.53 102.212 101.21 102.052 101.05C102.052 100.89 102.052 100.89 101.891 100.729C101.891 100.569 101.891 100.569 101.891 100.409C102.052 99.9287 102.052 99.6084 102.052 99.6084Z" fill="#F3AB82"/>
<path d="M40.2283 94.1628C41.1892 100.249 39.4275 105.695 36.3843 106.335C33.3412 106.976 29.9778 102.491 29.0168 96.2449C28.0558 90.1587 29.8176 84.7131 32.8607 84.0725C35.9038 83.592 39.2673 88.0765 40.2283 94.1628Z" fill="#F5BE94"/>
<path d="M36.5445 92.5611C36.5445 92.5611 36.5445 92.2408 36.3843 91.6002C36.2242 90.9595 36.064 90.3189 35.5835 89.3579C35.2632 88.557 34.6225 87.5961 33.8217 87.5961C33.6615 87.5961 33.5014 87.5961 33.181 87.7562C33.181 87.7562 33.0209 87.9164 32.8607 87.9164L32.7006 88.0766C32.3802 88.3969 32.0599 88.8774 31.8998 89.3579C31.7396 89.8384 31.5794 90.479 31.5794 91.1197C31.5794 91.7603 31.4192 92.401 31.5794 92.8815C31.7396 93.5221 31.7396 94.1628 31.7396 94.6433C31.8997 95.1238 31.8997 95.7644 32.0599 96.2449C32.22 96.7254 32.2201 97.2059 32.3802 97.5262C32.5404 97.8466 32.5404 98.3271 32.7006 98.4872C32.8607 98.9677 32.8607 99.4482 32.8607 99.4482C32.8607 99.4482 32.7006 99.1279 32.3802 98.6474C32.2201 98.3271 32.0599 98.0067 31.8998 97.6864C31.7396 97.3661 31.5794 96.8856 31.4192 96.4051C31.2591 95.9246 31.0989 95.4441 30.9388 94.8034C30.7786 94.1628 30.6184 93.6823 30.6184 93.0416C30.4583 92.401 30.4583 91.6002 30.6184 90.9595C30.6184 90.3189 30.7786 89.518 30.9388 88.8774C31.0989 88.2367 31.5794 87.5961 32.0599 87.1156C32.22 86.9554 32.3802 86.9554 32.5404 86.7952C32.7006 86.6351 32.7005 86.6351 33.0209 86.6351C33.3412 86.6351 33.6615 86.4749 33.9819 86.6351C34.6225 86.7952 35.103 87.2757 35.5835 87.7562C35.9038 88.2367 36.2242 88.7172 36.3843 89.3579C36.7047 90.3189 36.7046 91.2798 36.8648 91.7603C36.5445 92.2408 36.5445 92.5611 36.5445 92.5611Z" fill="#F3AB82"/>
<path d="M36.5445 92.5611C36.5445 92.5611 36.8648 91.9205 34.7827 91.7603C34.7827 91.7603 32.5404 92.2408 33.8217 95.2839C34.142 95.9246 34.3022 96.5652 34.4624 97.3661C34.6225 98.327 34.3022 99.7685 34.7827 100.729C35.4234 101.851 37.3453 101.21 37.3453 99.9287C37.5055 98.9677 36.3844 97.2059 35.9039 96.4051C36.064 96.2449 34.6225 94.0026 36.5445 92.5611Z" fill="#F3AB82"/>
<path d="M37.5055 99.6084C37.5055 99.6084 37.5055 99.6084 37.6656 99.7685C37.8258 99.9287 37.8258 100.089 37.986 100.409C37.986 100.569 37.986 100.73 38.1462 100.89C38.1462 101.05 38.1462 101.21 38.1462 101.37C38.1462 101.53 38.1462 101.69 38.1462 101.851C38.1462 102.011 37.986 102.171 37.986 102.331C37.986 102.491 37.8258 102.651 37.8258 102.812C37.6657 102.972 37.6657 103.132 37.5055 103.132C37.3454 103.452 37.025 103.452 36.8648 103.612C36.3843 103.773 36.2242 103.773 36.2242 103.773C36.2242 103.773 36.3844 103.452 36.5445 102.972C36.5445 102.812 36.7047 102.812 36.7047 102.651C36.7047 102.491 36.8648 102.491 36.8648 102.331C36.8648 102.171 37.025 102.171 37.025 102.011C37.025 101.851 37.1852 101.851 37.1852 101.69C37.3453 101.53 37.3454 101.21 37.5055 101.05C37.5055 100.89 37.5055 100.89 37.6656 100.729C37.6656 100.569 37.6656 100.569 37.6656 100.409C37.5055 99.9287 37.5055 99.6084 37.5055 99.6084Z" fill="#F3AB82"/>
<path d="M100.29 44.512C100.29 44.512 89.7189 32.9802 68.8976 32.3395C48.0763 33.4607 37.6656 45.4729 37.6656 45.4729C32.0599 63.7316 35.5835 85.0334 37.986 103.452C39.7478 117.066 48.8771 126.676 60.5691 133.243C60.5691 133.243 64.7333 135.966 70.0188 136.126C75.4643 135.645 79.4684 132.922 79.4684 132.922C90.6799 125.235 99.3288 115.945 101.411 102.011C103.333 89.9985 103.653 76.8651 103.333 64.6926C103.173 58.1259 102.372 50.9185 100.29 44.512Z" fill="#F5BE94"/>
<path d="M59.9284 81.67C59.9284 81.67 52.5609 79.1074 44.873 82.631C46.3145 74.4626 60.5691 77.8261 60.5691 77.8261C60.5691 77.8261 61.5301 77.9862 61.3699 79.5879C61.3699 79.5879 60.8894 82.1505 59.9284 81.67Z" fill="#E29361"/>
<path d="M77.2261 81.67C77.2261 81.67 85.7148 79.1074 93.4027 82.631C91.9612 74.4626 76.7456 77.8261 76.7456 77.8261C76.7456 77.8261 75.7847 77.9862 75.9448 79.5879C75.7847 79.5879 76.105 82.1505 77.2261 81.67Z" fill="#E29361"/>
<path d="M50.4787 89.3578C50.4787 91.7603 51.7601 93.6823 53.5219 93.6823C55.1235 93.6823 56.4048 91.7603 56.4048 89.3578C56.4048 86.9554 55.1235 85.0334 53.3617 85.0334C51.7601 85.0334 50.4787 86.9554 50.4787 89.3578Z" fill="#362010"/>
<path d="M52.2405 87.9164C52.2405 88.557 51.5999 89.1977 50.9593 89.1977C50.3186 89.1977 49.6779 88.557 49.6779 87.9164C49.6779 87.2757 50.3186 86.6351 50.9593 86.6351C51.5999 86.6351 52.2405 87.2757 52.2405 87.9164Z" fill="white"/>
<path d="M87.6368 89.3578C87.6368 91.7603 86.3555 93.6823 84.5937 93.6823C82.992 93.6823 81.7107 91.7603 81.7107 89.3578C81.7107 86.9554 82.992 85.0334 84.7538 85.0334C86.3555 85.0334 87.6368 86.9554 87.6368 89.3578Z" fill="#362010"/>
<path d="M85.875 87.9164C85.875 88.557 86.5157 89.1977 87.1563 89.1977C87.797 89.1977 88.4376 88.557 88.4376 87.9164C88.4376 87.2757 87.797 86.6351 87.1563 86.6351C86.3555 86.6351 85.875 87.2757 85.875 87.9164Z" fill="white"/>
<path d="M61.6902 116.105C61.6902 118.348 64.8935 120.269 68.8976 120.269C72.9017 120.269 76.105 118.348 76.105 116.105H61.6902Z" fill="white"/>
<path d="M75.7847 116.746C77.5465 116.265 78.1871 115.945 78.1871 115.945C78.1871 115.945 77.0659 115.465 75.3041 114.984C70.9797 113.222 71.3 115.465 69.0578 115.465C67.9366 115.465 66.8154 114.183 65.6943 114.343C64.5732 114.504 63.6122 114.664 62.8114 114.824C61.0496 115.304 59.9284 115.785 59.9284 115.785C59.9284 115.785 60.7292 116.426 62.491 116.746C62.491 116.746 65.0537 116.586 67.1358 116.906C67.1358 116.906 69.0578 117.387 70.3391 117.066C70.4993 117.226 73.5424 116.586 75.7847 116.746Z" fill="#EF7B7F"/>
<path d="M76.7456 115.945C75.144 117.707 72.4212 119.309 68.4171 119.309C68.4171 119.309 64.5732 119.308 61.3699 115.945H59.9284C59.9284 116.105 60.0886 116.105 60.0886 116.265C60.4089 116.906 60.7292 117.707 61.3699 118.348C61.6902 118.668 61.8504 119.148 62.1707 119.469C62.491 119.789 62.8114 120.109 63.1317 120.43L63.6122 120.91L64.2528 121.391C64.7333 121.711 65.0536 122.031 65.6943 122.191C66.1748 122.352 66.8154 122.672 67.2959 122.672L67.9366 122.832H68.2569H68.4171H68.5773H68.8976L70.6594 122.672C71.1399 122.512 71.7805 122.352 72.261 122.191C72.7415 122.031 73.222 121.711 73.7025 121.391L74.3432 120.91L74.8237 120.43C75.144 120.109 75.6245 119.789 75.7847 119.469C76.105 119.148 76.2651 118.668 76.5855 118.348C77.066 117.707 77.3863 116.906 77.8668 116.265C77.8668 116.105 78.0269 116.105 78.0269 115.945H76.7456Z" fill="#EF7B7F"/>
<path d="M68.8976 121.391C74.8236 120.91 75.9448 117.547 75.9448 117.547C73.222 120.91 68.8976 120.43 68.8976 120.43C68.8976 120.43 68.5773 120.43 68.5773 120.91C68.5773 120.91 68.5772 121.391 68.8976 121.391Z" fill="white"/>
<path d="M114.704 67.0951C114.704 67.0951 116.466 27.0541 80.2692 20.4874C80.2692 20.4874 54.4828 16.3231 44.873 32.3395L54.4828 56.8446C54.4828 56.8446 70.9797 73.1813 102.372 82.7911C102.372 82.7911 103.013 104.734 98.2076 112.421C98.2076 112.421 93.2425 121.711 88.2774 125.875C88.2774 125.875 86.8359 147.337 101.891 158.869L111.822 162.713L115.986 164.475C115.986 164.475 116.787 149.099 110.7 135.966C110.861 136.126 126.236 115.785 114.704 67.0951Z" fill="#EF833E"/>
<path d="M64.8935 105.534C65.2138 105.534 65.374 105.374 65.5342 105.374C65.8545 105.374 66.335 105.214 66.8155 105.054C67.296 105.054 67.9366 104.894 68.4171 104.894C68.8976 104.894 69.5383 104.894 70.0188 104.894C70.4993 104.894 70.9797 104.894 71.4602 105.054C71.7806 105.054 71.9407 105.054 72.261 105.214C72.5814 105.214 72.7415 105.214 73.0619 105.374C73.222 105.374 73.5423 105.534 73.7025 105.534C73.8627 105.534 74.183 105.534 74.3432 105.534C74.5034 105.534 74.6635 105.534 74.8237 105.695C74.9838 105.695 74.9838 105.695 74.9838 105.695C74.9838 105.695 74.9838 105.695 74.9838 105.855C74.9838 106.015 74.9838 106.175 74.8237 106.335C74.6635 106.656 74.5033 107.136 74.0229 107.617C73.8627 107.777 73.5424 108.097 73.222 108.257C72.9017 108.417 72.5814 108.738 72.261 108.738C71.9407 108.898 71.4603 109.058 71.1399 109.058C70.8196 109.218 70.3391 109.218 70.0188 109.218C69.5383 109.218 69.2179 109.218 68.8976 109.058C68.5773 108.898 68.0968 108.898 67.7765 108.738C67.1358 108.417 66.4952 108.097 66.1748 107.617C65.6943 107.136 65.5342 106.816 65.374 106.335C65.0537 106.015 64.8935 105.855 64.8935 105.534C64.8935 105.534 64.8935 105.695 64.8935 105.534Z" fill="#F4AA8A"/>
<path d="M83.6327 151.662L113.744 163.354C113.744 163.354 125.756 166.237 124.154 188.019H69.218H68.8976H14.1216C12.6801 167.678 24.5322 163.354 24.5322 163.354L55.2837 151.341L68.7375 165.436L83.6327 151.662Z" fill="#FF58B1"/>
<path d="M59.9284 55.2429C59.9284 55.2429 37.5055 60.0479 37.5055 91.7603C37.5055 91.7603 35.9038 83.1115 30.6184 85.8342C30.6184 85.8342 13.8012 40.8282 53.2015 28.9761L59.9284 55.2429Z" fill="#EF833E"/>
<path d="M50.6389 48.1957L53.2015 59.5674L55.9244 58.1259L50.6389 48.1957Z" fill="#F5BE94"/>
</svg>
