<svg width="286" height="333" viewBox="0 0 286 333" fill="none" xmlns="http://www.w3.org/2000/svg">
<g clip-path="url(#clip0)">
<path d="M186.309 325.986C186.309 329.852 183.175 332.986 179.309 332.986H164.393C160.527 332.986 157.393 329.852 157.393 325.986V299.129C157.393 295.263 160.527 292.129 164.393 292.129H179.309C183.175 292.129 186.309 295.263 186.309 299.129V325.986Z" fill="#FD4F4E"/>
<path d="M124.113 325.986C124.113 329.852 120.979 332.986 117.113 332.986H102.197C98.3312 332.986 95.1971 329.852 95.1971 325.986V299.129C95.1971 295.263 98.3312 292.129 102.197 292.129H117.113C120.979 292.129 124.113 295.263 124.113 299.129V325.986Z" fill="#D04B45"/>
<path d="M170.241 309.697H89.6106C69.4544 309.697 53.1143 293.357 53.1143 273.201V110.856C53.1143 90.7001 69.4544 74.36 89.6106 74.36H170.241C190.397 74.36 206.737 90.7001 206.737 110.856V273.201C206.737 293.357 190.397 309.697 170.241 309.697Z" fill="#FFC29C"/>
<path d="M224.306 186.921C224.306 196.737 216.348 204.694 206.533 204.694C196.717 204.694 188.76 196.737 188.76 186.921C188.76 177.106 196.717 169.148 206.533 169.148C216.348 169.148 224.306 177.106 224.306 186.921Z" fill="#FFC29C"/>
<path d="M216.65 187.195C216.65 192.631 212.243 197.038 206.806 197.038C201.37 197.038 196.963 192.631 196.963 187.195C196.963 181.759 201.37 177.351 206.806 177.351C212.243 177.351 216.65 181.759 216.65 187.195Z" fill="#D96969"/>
<path d="M53.1143 235.746V273.268C53.1143 293.387 69.4544 309.697 89.6106 309.697H170.241C190.397 309.697 206.737 293.387 206.737 273.268V235.746H53.1143Z" fill="#FD4F4E"/>
<path d="M90.4799 184.674H85.7151C81.9258 184.674 78.8542 181.583 78.8542 177.769V160.936C78.8542 157.123 81.9258 154.031 85.7151 154.031H90.4799C94.2692 154.031 97.3413 157.123 97.3413 160.936V177.769C97.3413 181.583 94.2692 184.674 90.4799 184.674Z" fill="#103245"/>
<path d="M144.31 184.674H139.545C135.756 184.674 132.684 181.583 132.684 177.769V160.936C132.684 157.123 135.756 154.031 139.545 154.031H144.31C148.099 154.031 151.171 157.123 151.171 160.936V177.769C151.171 181.583 148.099 184.674 144.31 184.674Z" fill="#103245"/>
<path d="M238.685 272.995C231.165 280.514 218.972 280.514 211.451 272.995L183.777 245.325C176.257 237.806 176.257 225.616 183.777 218.096C191.298 210.577 203.49 210.577 211.011 218.096L238.685 245.766C246.206 253.285 246.206 265.476 238.685 272.995Z" fill="#D04B45"/>
<path d="M238.685 245.622C246.206 253.141 246.206 265.332 238.685 272.851L217.28 294.252C209.76 301.771 197.567 301.771 190.047 294.252C182.526 286.733 182.526 274.542 190.047 267.023L211.451 245.622C218.972 238.103 231.165 238.103 238.685 245.622Z" fill="#FD4F4E"/>
<path d="M195.494 261.577L190.047 267.023C182.526 274.542 182.526 286.733 190.047 294.252C197.567 301.771 209.76 301.771 217.28 294.252L222.728 288.805L195.494 261.577Z" fill="#FFC29C"/>
<path d="M53.1414 273.227V263.529L47.7123 268.983C40.2063 276.524 40.2063 288.751 47.7123 296.293C52.7203 301.324 59.7991 302.982 66.1885 301.299C58.2146 294.581 53.1414 284.501 53.1414 273.227Z" fill="#FFC29C"/>
</g>
<defs>
<clipPath id="clip0">
<rect width="286" height="332.986" fill="white"/>
</clipPath>
</defs>
</svg>
